G04 #@! TF.GenerationSoftware,KiCad,Pcbnew,5.0.2+dfsg1-1*
G04 #@! TF.CreationDate,2019-10-25T16:48:50-05:00*
G04 #@! TF.ProjectId,bldc_v1,626c6463-5f76-4312-9e6b-696361645f70,rev?*
G04 #@! TF.SameCoordinates,Original*
G04 #@! TF.FileFunction,Copper,L1,Top*
G04 #@! TF.FilePolarity,Positive*
%FSLAX46Y46*%
G04 Gerber Fmt 4.6, Leading zero omitted, Abs format (unit mm)*
G04 Created by KiCad (PCBNEW 5.0.2+dfsg1-1) date Fri 25 Oct 2019 04:48:50 PM CDT*
%MOMM*%
%LPD*%
G01*
G04 APERTURE LIST*
G04 #@! TA.AperFunction,EtchedComponent*
%ADD10C,0.304800*%
G04 #@! TD*
G04 #@! TA.AperFunction,ComponentPad*
%ADD11C,2.000000*%
G04 #@! TD*
G04 #@! TA.AperFunction,ComponentPad*
%ADD12C,1.600000*%
G04 #@! TD*
G04 #@! TA.AperFunction,Conductor*
%ADD13C,0.100000*%
G04 #@! TD*
G04 #@! TA.AperFunction,SMDPad,CuDef*
%ADD14C,1.425000*%
G04 #@! TD*
G04 #@! TA.AperFunction,SMDPad,CuDef*
%ADD15C,1.150000*%
G04 #@! TD*
G04 #@! TA.AperFunction,SMDPad,CuDef*
%ADD16R,1.500000X1.050000*%
G04 #@! TD*
G04 #@! TA.AperFunction,SMDPad,CuDef*
%ADD17R,1.500000X2.400000*%
G04 #@! TD*
G04 #@! TA.AperFunction,SMDPad,CuDef*
%ADD18R,2.300000X3.500000*%
G04 #@! TD*
G04 #@! TA.AperFunction,SMDPad,CuDef*
%ADD19R,3.500000X2.300000*%
G04 #@! TD*
G04 #@! TA.AperFunction,ComponentPad*
%ADD20C,3.000000*%
G04 #@! TD*
G04 #@! TA.AperFunction,ComponentPad*
%ADD21R,1.700000X1.700000*%
G04 #@! TD*
G04 #@! TA.AperFunction,ComponentPad*
%ADD22O,1.700000X1.700000*%
G04 #@! TD*
G04 #@! TA.AperFunction,SMDPad,CuDef*
%ADD23R,10.800000X9.400000*%
G04 #@! TD*
G04 #@! TA.AperFunction,SMDPad,CuDef*
%ADD24R,0.800000X4.600000*%
G04 #@! TD*
G04 #@! TA.AperFunction,SMDPad,CuDef*
%ADD25R,9.400000X10.800000*%
G04 #@! TD*
G04 #@! TA.AperFunction,SMDPad,CuDef*
%ADD26R,4.600000X0.800000*%
G04 #@! TD*
G04 #@! TA.AperFunction,SMDPad,CuDef*
%ADD27C,1.525000*%
G04 #@! TD*
G04 #@! TA.AperFunction,SMDPad,CuDef*
%ADD28R,1.550000X0.600000*%
G04 #@! TD*
G04 #@! TA.AperFunction,ViaPad*
%ADD29C,0.800000*%
G04 #@! TD*
G04 #@! TA.AperFunction,ViaPad*
%ADD30C,1.524000*%
G04 #@! TD*
G04 #@! TA.AperFunction,Conductor*
%ADD31C,0.508000*%
G04 #@! TD*
G04 #@! TA.AperFunction,Conductor*
%ADD32C,0.254000*%
G04 #@! TD*
G04 #@! TA.AperFunction,Conductor*
%ADD33C,1.524000*%
G04 #@! TD*
G04 #@! TA.AperFunction,Conductor*
%ADD34C,0.250000*%
G04 #@! TD*
G04 APERTURE END LIST*
D10*
G04 #@! TO.C,REF\002A\002A*
X213852760Y-43954700D02*
X214182960Y-43822620D01*
X213573360Y-44383960D02*
X213852760Y-43954700D01*
X213243160Y-44922440D02*
X213573360Y-44383960D01*
X212732620Y-45753020D02*
X213243160Y-44922440D01*
X211264500Y-46723300D02*
X211874100Y-46192440D01*
X210753960Y-47233840D02*
X211264500Y-46723300D01*
X210444080Y-47894240D02*
X210753960Y-47233840D01*
X210212940Y-47584360D02*
X210444080Y-47894240D01*
X210372960Y-46804580D02*
X210212940Y-47584360D01*
X211383880Y-45534580D02*
X210372960Y-46804580D01*
X211533740Y-45024040D02*
X211383880Y-45534580D01*
X210672680Y-43934380D02*
X211533740Y-45024040D01*
X210444080Y-44084240D02*
X210672680Y-43934380D01*
X209603340Y-44714160D02*
X210444080Y-44084240D01*
X209354420Y-45044360D02*
X209603340Y-44714160D01*
X209303620Y-45092620D02*
X209354420Y-45044360D01*
X209224880Y-45633640D02*
X209303620Y-45092620D01*
X209224880Y-46692820D02*
X209224880Y-45633640D01*
X209453480Y-47564040D02*
X209224880Y-46692820D01*
X209082640Y-47983140D02*
X209453480Y-47564040D01*
X208584800Y-46314360D02*
X209082640Y-47983140D01*
X208694020Y-44632880D02*
X208584800Y-46314360D01*
X210423760Y-42562780D02*
X209194400Y-44074080D01*
X212323680Y-41894760D02*
X210423760Y-42562780D01*
X213273640Y-41612820D02*
X212323680Y-41894760D01*
X211383880Y-46672500D02*
X211642960Y-47023020D01*
X211152740Y-47383700D02*
X211183220Y-47383700D01*
X210853020Y-47203360D02*
X211152740Y-47383700D01*
X212684360Y-45864780D02*
X212752940Y-45834300D01*
X216034620Y-47683420D02*
X212684360Y-45864780D01*
X214233760Y-43903900D02*
X216034620Y-47683420D01*
X209174080Y-44053760D02*
X209204560Y-44053760D01*
X208313020Y-43624500D02*
X209174080Y-44053760D01*
X211284820Y-37833300D02*
X208313020Y-43624500D01*
X213164420Y-41564560D02*
X211284820Y-37833300D01*
X215983820Y-48602900D02*
X211942680Y-46393100D01*
X205922880Y-48524160D02*
X215983820Y-48602900D01*
X207982820Y-44363640D02*
X205922880Y-48524160D01*
X208612740Y-44643040D02*
X207982820Y-44363640D01*
X210774280Y-45653960D02*
X211002880Y-45783500D01*
X210345020Y-46192440D02*
X210774280Y-45653960D01*
X210372960Y-45582840D02*
X210345020Y-46192440D01*
X209933540Y-45374560D02*
X210372960Y-45582840D01*
X210063080Y-46774100D02*
X209933540Y-45374560D01*
X209964020Y-47083980D02*
X210063080Y-46774100D01*
X209684620Y-46852840D02*
X209964020Y-47083980D01*
X209555080Y-46014640D02*
X209684620Y-46852840D01*
X209555080Y-45072300D02*
X209555080Y-46014640D01*
X211134960Y-45123100D02*
X211312760Y-45354240D01*
X210654900Y-44594780D02*
X211134960Y-45123100D01*
X210294220Y-44714160D02*
X210654900Y-44594780D01*
X209964020Y-44564300D02*
X210294220Y-44714160D01*
X210985100Y-38544500D02*
X212023960Y-39283640D01*
X210723480Y-39154100D02*
X212653880Y-40553640D01*
X210324700Y-39814500D02*
X212933280Y-41564560D01*
X210063080Y-40342820D02*
X212272880Y-41793160D01*
X209715100Y-40982900D02*
X211533740Y-42123360D01*
X210624420Y-42402760D02*
X210654900Y-42402760D01*
X209354420Y-41612820D02*
X210624420Y-42402760D01*
X209024220Y-42252900D02*
X210042760Y-42943780D01*
X209763360Y-43393360D02*
X209763360Y-43373040D01*
X208843880Y-42763440D02*
X209763360Y-43393360D01*
X208564480Y-43243500D02*
X209384900Y-43723560D01*
X213774020Y-44183300D02*
X214614760Y-44813220D01*
X213525100Y-44643040D02*
X215173560Y-45933360D01*
X213194900Y-45252640D02*
X215452960Y-46593760D01*
X207703420Y-44874180D02*
X208445100Y-45272960D01*
X207523080Y-45374560D02*
X208594960Y-45963840D01*
X207324960Y-45864780D02*
X208612740Y-46593760D01*
X208663540Y-47203360D02*
X208694020Y-47203360D01*
X207043020Y-46413420D02*
X208663540Y-47203360D01*
X206733140Y-46873160D02*
X209933540Y-48524160D01*
X206514700Y-47434500D02*
X208894680Y-48572420D01*
X206303880Y-47962820D02*
X207424020Y-48554640D01*
X209534760Y-47584360D02*
X211053680Y-48602900D01*
X212095080Y-48524160D02*
X212123020Y-48524160D01*
X210723480Y-47513240D02*
X212095080Y-48524160D01*
X211312760Y-47053500D02*
X213243160Y-48503840D01*
X214332820Y-48524160D02*
X214353140Y-48524160D01*
X211594700Y-46672500D02*
X214332820Y-48524160D01*
X210423760Y-44282360D02*
X211134960Y-44792900D01*
X206613760Y-49253140D02*
X207043020Y-50523140D01*
X206204820Y-50523140D02*
X206613760Y-49253140D01*
X206324200Y-50172620D02*
X206923640Y-50182780D01*
X207284320Y-49260760D02*
X207965040Y-49253140D01*
X208295240Y-49253140D02*
X208932780Y-49242980D01*
X207624680Y-49260760D02*
X207655160Y-50492660D01*
X208612740Y-50523140D02*
X208605120Y-49270920D01*
X209412840Y-50492660D02*
X209423000Y-50492660D01*
X209412840Y-49260760D02*
X209412840Y-50492660D01*
X209423000Y-49260760D02*
X209933540Y-49260760D01*
X209453480Y-49862740D02*
X209473800Y-49862740D01*
X209875120Y-49852580D02*
X209453480Y-49862740D01*
X209433160Y-50512980D02*
X209443320Y-50512980D01*
X209974180Y-50530760D02*
X209433160Y-50512980D01*
X211264500Y-50502820D02*
X211264500Y-49270920D01*
X210553300Y-49301400D02*
X211264500Y-50502820D01*
X210563460Y-50540920D02*
X210553300Y-49301400D01*
X211683600Y-49253140D02*
X212384640Y-49253140D01*
X212044280Y-49281080D02*
X212064600Y-50492660D01*
X212854540Y-49242980D02*
X212844380Y-50502820D01*
X213504780Y-49392840D02*
X213713060Y-49270920D01*
X213393020Y-49601120D02*
X213504780Y-49392840D01*
X213393020Y-49921160D02*
X213393020Y-49601120D01*
X213504780Y-50352960D02*
X213393020Y-49921160D01*
X213674960Y-50492660D02*
X213504780Y-50352960D01*
X213883240Y-50512980D02*
X213674960Y-50492660D01*
X214114380Y-50401220D02*
X213883240Y-50512980D01*
X214223600Y-50182780D02*
X214114380Y-50401220D01*
X214233760Y-49883060D02*
X214223600Y-50182780D01*
X214223600Y-49542700D02*
X214233760Y-49883060D01*
X214053420Y-49331880D02*
X214223600Y-49542700D01*
X213824820Y-49260760D02*
X214053420Y-49331880D01*
X215513920Y-50512980D02*
X215503760Y-49281080D01*
X214795100Y-49311560D02*
X215513920Y-50512980D01*
X214784940Y-50502820D02*
X214795100Y-49311560D01*
X204924660Y-51323240D02*
X204284580Y-51323240D01*
X204274420Y-52583080D02*
X204863700Y-52583080D01*
X204284580Y-51323240D02*
X204274420Y-52583080D01*
X204703680Y-51943000D02*
X204325220Y-51932840D01*
X205435200Y-52583080D02*
X206024480Y-52583080D01*
X205442820Y-51313080D02*
X205435200Y-52583080D01*
X206463900Y-52593240D02*
X207032860Y-52593240D01*
X206463900Y-51330860D02*
X206463900Y-52593240D01*
X206514700Y-51943000D02*
X206865220Y-51943000D01*
X206463900Y-51330860D02*
X207032860Y-51330860D01*
X206474060Y-51341020D02*
X206463900Y-51330860D01*
X207954880Y-52583080D02*
X208302860Y-52501800D01*
X207744060Y-52481480D02*
X207954880Y-52583080D01*
X207584040Y-52232560D02*
X207744060Y-52481480D01*
X207563720Y-51871880D02*
X207584040Y-52232560D01*
X207662780Y-51501040D02*
X207563720Y-51871880D01*
X207914240Y-51351180D02*
X207662780Y-51501040D01*
X208135220Y-51351180D02*
X207914240Y-51351180D01*
X208373980Y-51462940D02*
X208135220Y-51351180D01*
X208724500Y-51330860D02*
X209395060Y-51330860D01*
X209024220Y-51711860D02*
X209044540Y-52583080D01*
X209044540Y-51341020D02*
X209064860Y-51341020D01*
X209034380Y-51732180D02*
X209044540Y-51341020D01*
X209903060Y-51991260D02*
X209913220Y-51991260D01*
X210304380Y-51991260D02*
X209903060Y-51991260D01*
X210474560Y-51902360D02*
X210304380Y-51991260D01*
X210563460Y-51711860D02*
X210474560Y-51902360D01*
X210474560Y-51452780D02*
X210563460Y-51711860D01*
X210284060Y-51341020D02*
X210474560Y-51452780D01*
X209844640Y-51351180D02*
X210284060Y-51341020D01*
X209844640Y-52572920D02*
X209844640Y-51351180D01*
X210195160Y-52031900D02*
X210553300Y-52572920D01*
X211254340Y-51391820D02*
X211434680Y-51381660D01*
X211104480Y-51582320D02*
X211254340Y-51391820D01*
X211033360Y-52001420D02*
X211104480Y-51582320D01*
X211104480Y-52321460D02*
X211033360Y-52001420D01*
X211312760Y-52583080D02*
X211104480Y-52321460D01*
X211533740Y-52593240D02*
X211312760Y-52583080D01*
X211724240Y-52542440D02*
X211533740Y-52593240D01*
X211843620Y-52382420D02*
X211724240Y-52542440D01*
X211914740Y-52001420D02*
X211843620Y-52382420D01*
X211853780Y-51633120D02*
X211914740Y-52001420D01*
X211714080Y-51412140D02*
X211853780Y-51633120D01*
X211465160Y-51341020D02*
X211714080Y-51412140D01*
X212704680Y-52611020D02*
X212394800Y-52572920D01*
X212953600Y-52532280D02*
X212704680Y-52611020D01*
X213103460Y-52362100D02*
X212953600Y-52532280D01*
X212994240Y-52092860D02*
X213103460Y-52362100D01*
X212742780Y-51981100D02*
X212994240Y-52092860D01*
X212443060Y-51821080D02*
X212742780Y-51981100D01*
X212384640Y-51633120D02*
X212443060Y-51821080D01*
X212524340Y-51381660D02*
X212384640Y-51633120D01*
X212885020Y-51323240D02*
X212524340Y-51381660D01*
X213113620Y-51391820D02*
X212885020Y-51323240D01*
X213504780Y-51330860D02*
X214155020Y-51330860D01*
X213814660Y-51341020D02*
X213834980Y-52583080D01*
X214873840Y-51361340D02*
X215275160Y-52583080D01*
X214454740Y-52593240D02*
X214873840Y-51361340D01*
X214584280Y-52232560D02*
X215115140Y-52232560D01*
X215534240Y-51361340D02*
X216225120Y-51351180D01*
X215874600Y-51361340D02*
X215905080Y-52583080D01*
X216705180Y-51323240D02*
X216705180Y-52552600D01*
X217815160Y-52572920D02*
X217992960Y-52461160D01*
X217523060Y-52572920D02*
X217815160Y-52572920D01*
X217274140Y-52372260D02*
X217523060Y-52572920D01*
X217223340Y-51970940D02*
X217274140Y-52372260D01*
X217314780Y-51551840D02*
X217223340Y-51970940D01*
X217553540Y-51351180D02*
X217314780Y-51551840D01*
X217784680Y-51330860D02*
X217553540Y-51351180D01*
X218053920Y-51483260D02*
X217784680Y-51330860D01*
X206712820Y-54701440D02*
X206644240Y-54681120D01*
X207053180Y-54762400D02*
X206712820Y-54701440D01*
X207284320Y-54653180D02*
X207053180Y-54762400D01*
X207335120Y-54381400D02*
X207284320Y-54653180D01*
X207203040Y-54173120D02*
X207335120Y-54381400D01*
X206872840Y-54041040D02*
X207203040Y-54173120D01*
X206644240Y-53921660D02*
X206872840Y-54041040D01*
X206623920Y-53710840D02*
X206644240Y-53921660D01*
X206855060Y-53482240D02*
X206623920Y-53710840D01*
X207164940Y-53472080D02*
X206855060Y-53482240D01*
X207373220Y-53533040D02*
X207164940Y-53472080D01*
X208473040Y-53472080D02*
X207924400Y-53472080D01*
X208302860Y-54051200D02*
X207904080Y-54041040D01*
X207914240Y-54711600D02*
X207893920Y-53482240D01*
X208513680Y-54742080D02*
X207914240Y-54711600D01*
X209753200Y-54721760D02*
X209753200Y-53482240D01*
X209064860Y-53543200D02*
X209753200Y-54721760D01*
X209064860Y-54711600D02*
X209064860Y-53543200D01*
X210624420Y-54721760D02*
X210355180Y-54681120D01*
X210863180Y-54701440D02*
X210624420Y-54721760D01*
X211033360Y-54500780D02*
X210863180Y-54701440D01*
X211002880Y-54302660D02*
X211033360Y-54500780D01*
X210835240Y-54152800D02*
X211002880Y-54302660D01*
X210614260Y-54081680D02*
X210835240Y-54152800D01*
X210413600Y-53992780D02*
X210614260Y-54081680D01*
X210314540Y-53802280D02*
X210413600Y-53992780D01*
X210383120Y-53591460D02*
X210314540Y-53802280D01*
X210593940Y-53472080D02*
X210383120Y-53591460D01*
X210863180Y-53441600D02*
X210593940Y-53472080D01*
X211074000Y-53533040D02*
X210863180Y-53441600D01*
X211584540Y-53431440D02*
X211584540Y-54691280D01*
X212034120Y-53482240D02*
X212704680Y-53492400D01*
X212374480Y-54691280D02*
X212384640Y-54691280D01*
X212364320Y-53502560D02*
X212374480Y-54691280D01*
X213174580Y-53502560D02*
X213164420Y-54701440D01*
X213995000Y-54701440D02*
X214434420Y-53482240D01*
X213583520Y-53482240D02*
X213995000Y-54701440D01*
X215473280Y-53472080D02*
X214873840Y-53482240D01*
X214873840Y-54721760D02*
X214853520Y-53502560D01*
X215483440Y-54742080D02*
X214873840Y-54721760D01*
X215282780Y-54041040D02*
X214924640Y-54051200D01*
X207944720Y-55651400D02*
X207645000Y-55641240D01*
X208114900Y-55742840D02*
X207944720Y-55651400D01*
X208234280Y-55981600D02*
X208114900Y-55742840D01*
X208274920Y-56311800D02*
X208234280Y-55981600D01*
X208163160Y-56713120D02*
X208274920Y-56311800D01*
X207893920Y-56890920D02*
X208163160Y-56713120D01*
X207573880Y-56890920D02*
X207893920Y-56890920D01*
X207573880Y-55651400D02*
X207573880Y-56890920D01*
X208813400Y-56873140D02*
X209433160Y-56890920D01*
X208843880Y-55631080D02*
X208813400Y-56873140D01*
X209443320Y-55631080D02*
X208843880Y-55631080D01*
X208915000Y-56250840D02*
X208915000Y-56233060D01*
X209252820Y-56222900D02*
X208915000Y-56250840D01*
X210212940Y-56890920D02*
X210634580Y-55631080D01*
X209793840Y-55620920D02*
X210212940Y-56890920D01*
X211074000Y-55631080D02*
X211074000Y-56873140D01*
X212384640Y-56781700D02*
X212394800Y-56771540D01*
X212234780Y-56901080D02*
X212384640Y-56781700D01*
X211973160Y-56862980D02*
X212234780Y-56901080D01*
X211693760Y-56692800D02*
X211973160Y-56862980D01*
X211594700Y-56393080D02*
X211693760Y-56692800D01*
X211673440Y-55991760D02*
X211594700Y-56393080D01*
X211924900Y-55702200D02*
X211673440Y-55991760D01*
X212173820Y-55651400D02*
X211924900Y-55702200D01*
X212384640Y-55742840D02*
X212173820Y-55651400D01*
X212953600Y-56873140D02*
X213525100Y-56890920D01*
X212943440Y-55651400D02*
X212953600Y-56873140D01*
X213553040Y-55631080D02*
X212943440Y-55651400D01*
X213273640Y-56222900D02*
X212963760Y-56233060D01*
X214053420Y-56862980D02*
X214063580Y-56852820D01*
X214284560Y-56901080D02*
X214053420Y-56862980D01*
X214594440Y-56852820D02*
X214284560Y-56901080D01*
X214734140Y-56662320D02*
X214594440Y-56852820D01*
X214614760Y-56372760D02*
X214734140Y-56662320D01*
X214353140Y-56271160D02*
X214614760Y-56372760D01*
X214073740Y-56052720D02*
X214353140Y-56271160D01*
X214073740Y-55811420D02*
X214073740Y-56052720D01*
X214304880Y-55641240D02*
X214073740Y-55811420D01*
X214574120Y-55641240D02*
X214304880Y-55641240D01*
X214795100Y-55732680D02*
X214574120Y-55641240D01*
G04 #@! TD*
D11*
G04 #@! TO.P,C1,1*
G04 #@! TO.N,/48v*
X90170000Y-97536000D03*
G04 #@! TO.P,C1,2*
G04 #@! TO.N,/GND*
X90170000Y-90036000D03*
G04 #@! TD*
D12*
G04 #@! TO.P,C2,2*
G04 #@! TO.N,/GND*
X146000000Y-128220000D03*
G04 #@! TO.P,C2,1*
G04 #@! TO.N,/12v*
X141000000Y-128220000D03*
G04 #@! TD*
D11*
G04 #@! TO.P,C3,2*
G04 #@! TO.N,/GND*
X214825000Y-69448349D03*
G04 #@! TO.P,C3,1*
G04 #@! TO.N,/48v*
X207325000Y-69448349D03*
G04 #@! TD*
G04 #@! TO.P,C4,1*
G04 #@! TO.N,/48v*
X207325000Y-104900000D03*
G04 #@! TO.P,C4,2*
G04 #@! TO.N,/GND*
X214825000Y-104900000D03*
G04 #@! TD*
D12*
G04 #@! TO.P,C5,1*
G04 #@! TO.N,/5v*
X123325000Y-128220000D03*
G04 #@! TO.P,C5,2*
G04 #@! TO.N,/GND*
X128325000Y-128220000D03*
G04 #@! TD*
G04 #@! TO.P,C6,1*
G04 #@! TO.N,/48v*
X81026000Y-76200000D03*
G04 #@! TO.P,C6,2*
G04 #@! TO.N,/GND*
X86026000Y-76200000D03*
G04 #@! TD*
G04 #@! TO.P,C7,2*
G04 #@! TO.N,/GND*
X217575000Y-87200000D03*
G04 #@! TO.P,C7,1*
G04 #@! TO.N,/48v*
X212575000Y-87200000D03*
G04 #@! TD*
D13*
G04 #@! TO.N,Net-(C8-Pad1)*
G04 #@! TO.C,C8*
G36*
X186597504Y-107655204D02*
X186621773Y-107658804D01*
X186645571Y-107664765D01*
X186668671Y-107673030D01*
X186690849Y-107683520D01*
X186711893Y-107696133D01*
X186731598Y-107710747D01*
X186749777Y-107727223D01*
X186766253Y-107745402D01*
X186780867Y-107765107D01*
X186793480Y-107786151D01*
X186803970Y-107808329D01*
X186812235Y-107831429D01*
X186818196Y-107855227D01*
X186821796Y-107879496D01*
X186823000Y-107904000D01*
X186823000Y-108829000D01*
X186821796Y-108853504D01*
X186818196Y-108877773D01*
X186812235Y-108901571D01*
X186803970Y-108924671D01*
X186793480Y-108946849D01*
X186780867Y-108967893D01*
X186766253Y-108987598D01*
X186749777Y-109005777D01*
X186731598Y-109022253D01*
X186711893Y-109036867D01*
X186690849Y-109049480D01*
X186668671Y-109059970D01*
X186645571Y-109068235D01*
X186621773Y-109074196D01*
X186597504Y-109077796D01*
X186573000Y-109079000D01*
X184423000Y-109079000D01*
X184398496Y-109077796D01*
X184374227Y-109074196D01*
X184350429Y-109068235D01*
X184327329Y-109059970D01*
X184305151Y-109049480D01*
X184284107Y-109036867D01*
X184264402Y-109022253D01*
X184246223Y-109005777D01*
X184229747Y-108987598D01*
X184215133Y-108967893D01*
X184202520Y-108946849D01*
X184192030Y-108924671D01*
X184183765Y-108901571D01*
X184177804Y-108877773D01*
X184174204Y-108853504D01*
X184173000Y-108829000D01*
X184173000Y-107904000D01*
X184174204Y-107879496D01*
X184177804Y-107855227D01*
X184183765Y-107831429D01*
X184192030Y-107808329D01*
X184202520Y-107786151D01*
X184215133Y-107765107D01*
X184229747Y-107745402D01*
X184246223Y-107727223D01*
X184264402Y-107710747D01*
X184284107Y-107696133D01*
X184305151Y-107683520D01*
X184327329Y-107673030D01*
X184350429Y-107664765D01*
X184374227Y-107658804D01*
X184398496Y-107655204D01*
X184423000Y-107654000D01*
X186573000Y-107654000D01*
X186597504Y-107655204D01*
X186597504Y-107655204D01*
G37*
D14*
G04 #@! TD*
G04 #@! TO.P,C8,1*
G04 #@! TO.N,Net-(C8-Pad1)*
X185498000Y-108366500D03*
D13*
G04 #@! TO.N,/gatedrivers/PHASEA_SOURCE*
G04 #@! TO.C,C8*
G36*
X186597504Y-110630204D02*
X186621773Y-110633804D01*
X186645571Y-110639765D01*
X186668671Y-110648030D01*
X186690849Y-110658520D01*
X186711893Y-110671133D01*
X186731598Y-110685747D01*
X186749777Y-110702223D01*
X186766253Y-110720402D01*
X186780867Y-110740107D01*
X186793480Y-110761151D01*
X186803970Y-110783329D01*
X186812235Y-110806429D01*
X186818196Y-110830227D01*
X186821796Y-110854496D01*
X186823000Y-110879000D01*
X186823000Y-111804000D01*
X186821796Y-111828504D01*
X186818196Y-111852773D01*
X186812235Y-111876571D01*
X186803970Y-111899671D01*
X186793480Y-111921849D01*
X186780867Y-111942893D01*
X186766253Y-111962598D01*
X186749777Y-111980777D01*
X186731598Y-111997253D01*
X186711893Y-112011867D01*
X186690849Y-112024480D01*
X186668671Y-112034970D01*
X186645571Y-112043235D01*
X186621773Y-112049196D01*
X186597504Y-112052796D01*
X186573000Y-112054000D01*
X184423000Y-112054000D01*
X184398496Y-112052796D01*
X184374227Y-112049196D01*
X184350429Y-112043235D01*
X184327329Y-112034970D01*
X184305151Y-112024480D01*
X184284107Y-112011867D01*
X184264402Y-111997253D01*
X184246223Y-111980777D01*
X184229747Y-111962598D01*
X184215133Y-111942893D01*
X184202520Y-111921849D01*
X184192030Y-111899671D01*
X184183765Y-111876571D01*
X184177804Y-111852773D01*
X184174204Y-111828504D01*
X184173000Y-111804000D01*
X184173000Y-110879000D01*
X184174204Y-110854496D01*
X184177804Y-110830227D01*
X184183765Y-110806429D01*
X184192030Y-110783329D01*
X184202520Y-110761151D01*
X184215133Y-110740107D01*
X184229747Y-110720402D01*
X184246223Y-110702223D01*
X184264402Y-110685747D01*
X184284107Y-110671133D01*
X184305151Y-110658520D01*
X184327329Y-110648030D01*
X184350429Y-110639765D01*
X184374227Y-110633804D01*
X184398496Y-110630204D01*
X184423000Y-110629000D01*
X186573000Y-110629000D01*
X186597504Y-110630204D01*
X186597504Y-110630204D01*
G37*
D14*
G04 #@! TD*
G04 #@! TO.P,C8,2*
G04 #@! TO.N,/gatedrivers/PHASEA_SOURCE*
X185498000Y-111341500D03*
D13*
G04 #@! TO.N,Net-(C9-Pad1)*
G04 #@! TO.C,C9*
G36*
X150959504Y-112260704D02*
X150983773Y-112264304D01*
X151007571Y-112270265D01*
X151030671Y-112278530D01*
X151052849Y-112289020D01*
X151073893Y-112301633D01*
X151093598Y-112316247D01*
X151111777Y-112332723D01*
X151128253Y-112350902D01*
X151142867Y-112370607D01*
X151155480Y-112391651D01*
X151165970Y-112413829D01*
X151174235Y-112436929D01*
X151180196Y-112460727D01*
X151183796Y-112484996D01*
X151185000Y-112509500D01*
X151185000Y-113434500D01*
X151183796Y-113459004D01*
X151180196Y-113483273D01*
X151174235Y-113507071D01*
X151165970Y-113530171D01*
X151155480Y-113552349D01*
X151142867Y-113573393D01*
X151128253Y-113593098D01*
X151111777Y-113611277D01*
X151093598Y-113627753D01*
X151073893Y-113642367D01*
X151052849Y-113654980D01*
X151030671Y-113665470D01*
X151007571Y-113673735D01*
X150983773Y-113679696D01*
X150959504Y-113683296D01*
X150935000Y-113684500D01*
X148785000Y-113684500D01*
X148760496Y-113683296D01*
X148736227Y-113679696D01*
X148712429Y-113673735D01*
X148689329Y-113665470D01*
X148667151Y-113654980D01*
X148646107Y-113642367D01*
X148626402Y-113627753D01*
X148608223Y-113611277D01*
X148591747Y-113593098D01*
X148577133Y-113573393D01*
X148564520Y-113552349D01*
X148554030Y-113530171D01*
X148545765Y-113507071D01*
X148539804Y-113483273D01*
X148536204Y-113459004D01*
X148535000Y-113434500D01*
X148535000Y-112509500D01*
X148536204Y-112484996D01*
X148539804Y-112460727D01*
X148545765Y-112436929D01*
X148554030Y-112413829D01*
X148564520Y-112391651D01*
X148577133Y-112370607D01*
X148591747Y-112350902D01*
X148608223Y-112332723D01*
X148626402Y-112316247D01*
X148646107Y-112301633D01*
X148667151Y-112289020D01*
X148689329Y-112278530D01*
X148712429Y-112270265D01*
X148736227Y-112264304D01*
X148760496Y-112260704D01*
X148785000Y-112259500D01*
X150935000Y-112259500D01*
X150959504Y-112260704D01*
X150959504Y-112260704D01*
G37*
D14*
G04 #@! TD*
G04 #@! TO.P,C9,1*
G04 #@! TO.N,Net-(C9-Pad1)*
X149860000Y-112972000D03*
D13*
G04 #@! TO.N,/gatedrivers/PHASEB_SOURCE*
G04 #@! TO.C,C9*
G36*
X150959504Y-115235704D02*
X150983773Y-115239304D01*
X151007571Y-115245265D01*
X151030671Y-115253530D01*
X151052849Y-115264020D01*
X151073893Y-115276633D01*
X151093598Y-115291247D01*
X151111777Y-115307723D01*
X151128253Y-115325902D01*
X151142867Y-115345607D01*
X151155480Y-115366651D01*
X151165970Y-115388829D01*
X151174235Y-115411929D01*
X151180196Y-115435727D01*
X151183796Y-115459996D01*
X151185000Y-115484500D01*
X151185000Y-116409500D01*
X151183796Y-116434004D01*
X151180196Y-116458273D01*
X151174235Y-116482071D01*
X151165970Y-116505171D01*
X151155480Y-116527349D01*
X151142867Y-116548393D01*
X151128253Y-116568098D01*
X151111777Y-116586277D01*
X151093598Y-116602753D01*
X151073893Y-116617367D01*
X151052849Y-116629980D01*
X151030671Y-116640470D01*
X151007571Y-116648735D01*
X150983773Y-116654696D01*
X150959504Y-116658296D01*
X150935000Y-116659500D01*
X148785000Y-116659500D01*
X148760496Y-116658296D01*
X148736227Y-116654696D01*
X148712429Y-116648735D01*
X148689329Y-116640470D01*
X148667151Y-116629980D01*
X148646107Y-116617367D01*
X148626402Y-116602753D01*
X148608223Y-116586277D01*
X148591747Y-116568098D01*
X148577133Y-116548393D01*
X148564520Y-116527349D01*
X148554030Y-116505171D01*
X148545765Y-116482071D01*
X148539804Y-116458273D01*
X148536204Y-116434004D01*
X148535000Y-116409500D01*
X148535000Y-115484500D01*
X148536204Y-115459996D01*
X148539804Y-115435727D01*
X148545765Y-115411929D01*
X148554030Y-115388829D01*
X148564520Y-115366651D01*
X148577133Y-115345607D01*
X148591747Y-115325902D01*
X148608223Y-115307723D01*
X148626402Y-115291247D01*
X148646107Y-115276633D01*
X148667151Y-115264020D01*
X148689329Y-115253530D01*
X148712429Y-115245265D01*
X148736227Y-115239304D01*
X148760496Y-115235704D01*
X148785000Y-115234500D01*
X150935000Y-115234500D01*
X150959504Y-115235704D01*
X150959504Y-115235704D01*
G37*
D14*
G04 #@! TD*
G04 #@! TO.P,C9,2*
G04 #@! TO.N,/gatedrivers/PHASEB_SOURCE*
X149860000Y-115947000D03*
D13*
G04 #@! TO.N,Net-(C10-Pad1)*
G04 #@! TO.C,C10*
G36*
X122003504Y-107492704D02*
X122027773Y-107496304D01*
X122051571Y-107502265D01*
X122074671Y-107510530D01*
X122096849Y-107521020D01*
X122117893Y-107533633D01*
X122137598Y-107548247D01*
X122155777Y-107564723D01*
X122172253Y-107582902D01*
X122186867Y-107602607D01*
X122199480Y-107623651D01*
X122209970Y-107645829D01*
X122218235Y-107668929D01*
X122224196Y-107692727D01*
X122227796Y-107716996D01*
X122229000Y-107741500D01*
X122229000Y-108666500D01*
X122227796Y-108691004D01*
X122224196Y-108715273D01*
X122218235Y-108739071D01*
X122209970Y-108762171D01*
X122199480Y-108784349D01*
X122186867Y-108805393D01*
X122172253Y-108825098D01*
X122155777Y-108843277D01*
X122137598Y-108859753D01*
X122117893Y-108874367D01*
X122096849Y-108886980D01*
X122074671Y-108897470D01*
X122051571Y-108905735D01*
X122027773Y-108911696D01*
X122003504Y-108915296D01*
X121979000Y-108916500D01*
X119829000Y-108916500D01*
X119804496Y-108915296D01*
X119780227Y-108911696D01*
X119756429Y-108905735D01*
X119733329Y-108897470D01*
X119711151Y-108886980D01*
X119690107Y-108874367D01*
X119670402Y-108859753D01*
X119652223Y-108843277D01*
X119635747Y-108825098D01*
X119621133Y-108805393D01*
X119608520Y-108784349D01*
X119598030Y-108762171D01*
X119589765Y-108739071D01*
X119583804Y-108715273D01*
X119580204Y-108691004D01*
X119579000Y-108666500D01*
X119579000Y-107741500D01*
X119580204Y-107716996D01*
X119583804Y-107692727D01*
X119589765Y-107668929D01*
X119598030Y-107645829D01*
X119608520Y-107623651D01*
X119621133Y-107602607D01*
X119635747Y-107582902D01*
X119652223Y-107564723D01*
X119670402Y-107548247D01*
X119690107Y-107533633D01*
X119711151Y-107521020D01*
X119733329Y-107510530D01*
X119756429Y-107502265D01*
X119780227Y-107496304D01*
X119804496Y-107492704D01*
X119829000Y-107491500D01*
X121979000Y-107491500D01*
X122003504Y-107492704D01*
X122003504Y-107492704D01*
G37*
D14*
G04 #@! TD*
G04 #@! TO.P,C10,1*
G04 #@! TO.N,Net-(C10-Pad1)*
X120904000Y-108204000D03*
D13*
G04 #@! TO.N,/gatedrivers/PHASEC_SOURCE*
G04 #@! TO.C,C10*
G36*
X122003504Y-110467704D02*
X122027773Y-110471304D01*
X122051571Y-110477265D01*
X122074671Y-110485530D01*
X122096849Y-110496020D01*
X122117893Y-110508633D01*
X122137598Y-110523247D01*
X122155777Y-110539723D01*
X122172253Y-110557902D01*
X122186867Y-110577607D01*
X122199480Y-110598651D01*
X122209970Y-110620829D01*
X122218235Y-110643929D01*
X122224196Y-110667727D01*
X122227796Y-110691996D01*
X122229000Y-110716500D01*
X122229000Y-111641500D01*
X122227796Y-111666004D01*
X122224196Y-111690273D01*
X122218235Y-111714071D01*
X122209970Y-111737171D01*
X122199480Y-111759349D01*
X122186867Y-111780393D01*
X122172253Y-111800098D01*
X122155777Y-111818277D01*
X122137598Y-111834753D01*
X122117893Y-111849367D01*
X122096849Y-111861980D01*
X122074671Y-111872470D01*
X122051571Y-111880735D01*
X122027773Y-111886696D01*
X122003504Y-111890296D01*
X121979000Y-111891500D01*
X119829000Y-111891500D01*
X119804496Y-111890296D01*
X119780227Y-111886696D01*
X119756429Y-111880735D01*
X119733329Y-111872470D01*
X119711151Y-111861980D01*
X119690107Y-111849367D01*
X119670402Y-111834753D01*
X119652223Y-111818277D01*
X119635747Y-111800098D01*
X119621133Y-111780393D01*
X119608520Y-111759349D01*
X119598030Y-111737171D01*
X119589765Y-111714071D01*
X119583804Y-111690273D01*
X119580204Y-111666004D01*
X119579000Y-111641500D01*
X119579000Y-110716500D01*
X119580204Y-110691996D01*
X119583804Y-110667727D01*
X119589765Y-110643929D01*
X119598030Y-110620829D01*
X119608520Y-110598651D01*
X119621133Y-110577607D01*
X119635747Y-110557902D01*
X119652223Y-110539723D01*
X119670402Y-110523247D01*
X119690107Y-110508633D01*
X119711151Y-110496020D01*
X119733329Y-110485530D01*
X119756429Y-110477265D01*
X119780227Y-110471304D01*
X119804496Y-110467704D01*
X119829000Y-110466500D01*
X121979000Y-110466500D01*
X122003504Y-110467704D01*
X122003504Y-110467704D01*
G37*
D14*
G04 #@! TD*
G04 #@! TO.P,C10,2*
G04 #@! TO.N,/gatedrivers/PHASEC_SOURCE*
X120904000Y-111179000D03*
D13*
G04 #@! TO.N,/GND*
G04 #@! TO.C,C11*
G36*
X195127505Y-114362204D02*
X195151773Y-114365804D01*
X195175572Y-114371765D01*
X195198671Y-114380030D01*
X195220850Y-114390520D01*
X195241893Y-114403132D01*
X195261599Y-114417747D01*
X195279777Y-114434223D01*
X195296253Y-114452401D01*
X195310868Y-114472107D01*
X195323480Y-114493150D01*
X195333970Y-114515329D01*
X195342235Y-114538428D01*
X195348196Y-114562227D01*
X195351796Y-114586495D01*
X195353000Y-114610999D01*
X195353000Y-115511001D01*
X195351796Y-115535505D01*
X195348196Y-115559773D01*
X195342235Y-115583572D01*
X195333970Y-115606671D01*
X195323480Y-115628850D01*
X195310868Y-115649893D01*
X195296253Y-115669599D01*
X195279777Y-115687777D01*
X195261599Y-115704253D01*
X195241893Y-115718868D01*
X195220850Y-115731480D01*
X195198671Y-115741970D01*
X195175572Y-115750235D01*
X195151773Y-115756196D01*
X195127505Y-115759796D01*
X195103001Y-115761000D01*
X194452999Y-115761000D01*
X194428495Y-115759796D01*
X194404227Y-115756196D01*
X194380428Y-115750235D01*
X194357329Y-115741970D01*
X194335150Y-115731480D01*
X194314107Y-115718868D01*
X194294401Y-115704253D01*
X194276223Y-115687777D01*
X194259747Y-115669599D01*
X194245132Y-115649893D01*
X194232520Y-115628850D01*
X194222030Y-115606671D01*
X194213765Y-115583572D01*
X194207804Y-115559773D01*
X194204204Y-115535505D01*
X194203000Y-115511001D01*
X194203000Y-114610999D01*
X194204204Y-114586495D01*
X194207804Y-114562227D01*
X194213765Y-114538428D01*
X194222030Y-114515329D01*
X194232520Y-114493150D01*
X194245132Y-114472107D01*
X194259747Y-114452401D01*
X194276223Y-114434223D01*
X194294401Y-114417747D01*
X194314107Y-114403132D01*
X194335150Y-114390520D01*
X194357329Y-114380030D01*
X194380428Y-114371765D01*
X194404227Y-114365804D01*
X194428495Y-114362204D01*
X194452999Y-114361000D01*
X195103001Y-114361000D01*
X195127505Y-114362204D01*
X195127505Y-114362204D01*
G37*
D15*
G04 #@! TD*
G04 #@! TO.P,C11,1*
G04 #@! TO.N,/GND*
X194778000Y-115061000D03*
D13*
G04 #@! TO.N,/12v*
G04 #@! TO.C,C11*
G36*
X193077505Y-114362204D02*
X193101773Y-114365804D01*
X193125572Y-114371765D01*
X193148671Y-114380030D01*
X193170850Y-114390520D01*
X193191893Y-114403132D01*
X193211599Y-114417747D01*
X193229777Y-114434223D01*
X193246253Y-114452401D01*
X193260868Y-114472107D01*
X193273480Y-114493150D01*
X193283970Y-114515329D01*
X193292235Y-114538428D01*
X193298196Y-114562227D01*
X193301796Y-114586495D01*
X193303000Y-114610999D01*
X193303000Y-115511001D01*
X193301796Y-115535505D01*
X193298196Y-115559773D01*
X193292235Y-115583572D01*
X193283970Y-115606671D01*
X193273480Y-115628850D01*
X193260868Y-115649893D01*
X193246253Y-115669599D01*
X193229777Y-115687777D01*
X193211599Y-115704253D01*
X193191893Y-115718868D01*
X193170850Y-115731480D01*
X193148671Y-115741970D01*
X193125572Y-115750235D01*
X193101773Y-115756196D01*
X193077505Y-115759796D01*
X193053001Y-115761000D01*
X192402999Y-115761000D01*
X192378495Y-115759796D01*
X192354227Y-115756196D01*
X192330428Y-115750235D01*
X192307329Y-115741970D01*
X192285150Y-115731480D01*
X192264107Y-115718868D01*
X192244401Y-115704253D01*
X192226223Y-115687777D01*
X192209747Y-115669599D01*
X192195132Y-115649893D01*
X192182520Y-115628850D01*
X192172030Y-115606671D01*
X192163765Y-115583572D01*
X192157804Y-115559773D01*
X192154204Y-115535505D01*
X192153000Y-115511001D01*
X192153000Y-114610999D01*
X192154204Y-114586495D01*
X192157804Y-114562227D01*
X192163765Y-114538428D01*
X192172030Y-114515329D01*
X192182520Y-114493150D01*
X192195132Y-114472107D01*
X192209747Y-114452401D01*
X192226223Y-114434223D01*
X192244401Y-114417747D01*
X192264107Y-114403132D01*
X192285150Y-114390520D01*
X192307329Y-114380030D01*
X192330428Y-114371765D01*
X192354227Y-114365804D01*
X192378495Y-114362204D01*
X192402999Y-114361000D01*
X193053001Y-114361000D01*
X193077505Y-114362204D01*
X193077505Y-114362204D01*
G37*
D15*
G04 #@! TD*
G04 #@! TO.P,C11,2*
G04 #@! TO.N,/12v*
X192728000Y-115061000D03*
D13*
G04 #@! TO.N,/12v*
G04 #@! TO.C,C12*
G36*
X157820505Y-119221704D02*
X157844773Y-119225304D01*
X157868572Y-119231265D01*
X157891671Y-119239530D01*
X157913850Y-119250020D01*
X157934893Y-119262632D01*
X157954599Y-119277247D01*
X157972777Y-119293723D01*
X157989253Y-119311901D01*
X158003868Y-119331607D01*
X158016480Y-119352650D01*
X158026970Y-119374829D01*
X158035235Y-119397928D01*
X158041196Y-119421727D01*
X158044796Y-119445995D01*
X158046000Y-119470499D01*
X158046000Y-120370501D01*
X158044796Y-120395005D01*
X158041196Y-120419273D01*
X158035235Y-120443072D01*
X158026970Y-120466171D01*
X158016480Y-120488350D01*
X158003868Y-120509393D01*
X157989253Y-120529099D01*
X157972777Y-120547277D01*
X157954599Y-120563753D01*
X157934893Y-120578368D01*
X157913850Y-120590980D01*
X157891671Y-120601470D01*
X157868572Y-120609735D01*
X157844773Y-120615696D01*
X157820505Y-120619296D01*
X157796001Y-120620500D01*
X157145999Y-120620500D01*
X157121495Y-120619296D01*
X157097227Y-120615696D01*
X157073428Y-120609735D01*
X157050329Y-120601470D01*
X157028150Y-120590980D01*
X157007107Y-120578368D01*
X156987401Y-120563753D01*
X156969223Y-120547277D01*
X156952747Y-120529099D01*
X156938132Y-120509393D01*
X156925520Y-120488350D01*
X156915030Y-120466171D01*
X156906765Y-120443072D01*
X156900804Y-120419273D01*
X156897204Y-120395005D01*
X156896000Y-120370501D01*
X156896000Y-119470499D01*
X156897204Y-119445995D01*
X156900804Y-119421727D01*
X156906765Y-119397928D01*
X156915030Y-119374829D01*
X156925520Y-119352650D01*
X156938132Y-119331607D01*
X156952747Y-119311901D01*
X156969223Y-119293723D01*
X156987401Y-119277247D01*
X157007107Y-119262632D01*
X157028150Y-119250020D01*
X157050329Y-119239530D01*
X157073428Y-119231265D01*
X157097227Y-119225304D01*
X157121495Y-119221704D01*
X157145999Y-119220500D01*
X157796001Y-119220500D01*
X157820505Y-119221704D01*
X157820505Y-119221704D01*
G37*
D15*
G04 #@! TD*
G04 #@! TO.P,C12,2*
G04 #@! TO.N,/12v*
X157471000Y-119920500D03*
D13*
G04 #@! TO.N,/GND*
G04 #@! TO.C,C12*
G36*
X159870505Y-119221704D02*
X159894773Y-119225304D01*
X159918572Y-119231265D01*
X159941671Y-119239530D01*
X159963850Y-119250020D01*
X159984893Y-119262632D01*
X160004599Y-119277247D01*
X160022777Y-119293723D01*
X160039253Y-119311901D01*
X160053868Y-119331607D01*
X160066480Y-119352650D01*
X160076970Y-119374829D01*
X160085235Y-119397928D01*
X160091196Y-119421727D01*
X160094796Y-119445995D01*
X160096000Y-119470499D01*
X160096000Y-120370501D01*
X160094796Y-120395005D01*
X160091196Y-120419273D01*
X160085235Y-120443072D01*
X160076970Y-120466171D01*
X160066480Y-120488350D01*
X160053868Y-120509393D01*
X160039253Y-120529099D01*
X160022777Y-120547277D01*
X160004599Y-120563753D01*
X159984893Y-120578368D01*
X159963850Y-120590980D01*
X159941671Y-120601470D01*
X159918572Y-120609735D01*
X159894773Y-120615696D01*
X159870505Y-120619296D01*
X159846001Y-120620500D01*
X159195999Y-120620500D01*
X159171495Y-120619296D01*
X159147227Y-120615696D01*
X159123428Y-120609735D01*
X159100329Y-120601470D01*
X159078150Y-120590980D01*
X159057107Y-120578368D01*
X159037401Y-120563753D01*
X159019223Y-120547277D01*
X159002747Y-120529099D01*
X158988132Y-120509393D01*
X158975520Y-120488350D01*
X158965030Y-120466171D01*
X158956765Y-120443072D01*
X158950804Y-120419273D01*
X158947204Y-120395005D01*
X158946000Y-120370501D01*
X158946000Y-119470499D01*
X158947204Y-119445995D01*
X158950804Y-119421727D01*
X158956765Y-119397928D01*
X158965030Y-119374829D01*
X158975520Y-119352650D01*
X158988132Y-119331607D01*
X159002747Y-119311901D01*
X159019223Y-119293723D01*
X159037401Y-119277247D01*
X159057107Y-119262632D01*
X159078150Y-119250020D01*
X159100329Y-119239530D01*
X159123428Y-119231265D01*
X159147227Y-119225304D01*
X159171495Y-119221704D01*
X159195999Y-119220500D01*
X159846001Y-119220500D01*
X159870505Y-119221704D01*
X159870505Y-119221704D01*
G37*
D15*
G04 #@! TD*
G04 #@! TO.P,C12,1*
G04 #@! TO.N,/GND*
X159521000Y-119920500D03*
D13*
G04 #@! TO.N,/GND*
G04 #@! TO.C,C13*
G36*
X131149505Y-114101204D02*
X131173773Y-114104804D01*
X131197572Y-114110765D01*
X131220671Y-114119030D01*
X131242850Y-114129520D01*
X131263893Y-114142132D01*
X131283599Y-114156747D01*
X131301777Y-114173223D01*
X131318253Y-114191401D01*
X131332868Y-114211107D01*
X131345480Y-114232150D01*
X131355970Y-114254329D01*
X131364235Y-114277428D01*
X131370196Y-114301227D01*
X131373796Y-114325495D01*
X131375000Y-114349999D01*
X131375000Y-115250001D01*
X131373796Y-115274505D01*
X131370196Y-115298773D01*
X131364235Y-115322572D01*
X131355970Y-115345671D01*
X131345480Y-115367850D01*
X131332868Y-115388893D01*
X131318253Y-115408599D01*
X131301777Y-115426777D01*
X131283599Y-115443253D01*
X131263893Y-115457868D01*
X131242850Y-115470480D01*
X131220671Y-115480970D01*
X131197572Y-115489235D01*
X131173773Y-115495196D01*
X131149505Y-115498796D01*
X131125001Y-115500000D01*
X130474999Y-115500000D01*
X130450495Y-115498796D01*
X130426227Y-115495196D01*
X130402428Y-115489235D01*
X130379329Y-115480970D01*
X130357150Y-115470480D01*
X130336107Y-115457868D01*
X130316401Y-115443253D01*
X130298223Y-115426777D01*
X130281747Y-115408599D01*
X130267132Y-115388893D01*
X130254520Y-115367850D01*
X130244030Y-115345671D01*
X130235765Y-115322572D01*
X130229804Y-115298773D01*
X130226204Y-115274505D01*
X130225000Y-115250001D01*
X130225000Y-114349999D01*
X130226204Y-114325495D01*
X130229804Y-114301227D01*
X130235765Y-114277428D01*
X130244030Y-114254329D01*
X130254520Y-114232150D01*
X130267132Y-114211107D01*
X130281747Y-114191401D01*
X130298223Y-114173223D01*
X130316401Y-114156747D01*
X130336107Y-114142132D01*
X130357150Y-114129520D01*
X130379329Y-114119030D01*
X130402428Y-114110765D01*
X130426227Y-114104804D01*
X130450495Y-114101204D01*
X130474999Y-114100000D01*
X131125001Y-114100000D01*
X131149505Y-114101204D01*
X131149505Y-114101204D01*
G37*
D15*
G04 #@! TD*
G04 #@! TO.P,C13,1*
G04 #@! TO.N,/GND*
X130800000Y-114800000D03*
D13*
G04 #@! TO.N,/12v*
G04 #@! TO.C,C13*
G36*
X129099505Y-114101204D02*
X129123773Y-114104804D01*
X129147572Y-114110765D01*
X129170671Y-114119030D01*
X129192850Y-114129520D01*
X129213893Y-114142132D01*
X129233599Y-114156747D01*
X129251777Y-114173223D01*
X129268253Y-114191401D01*
X129282868Y-114211107D01*
X129295480Y-114232150D01*
X129305970Y-114254329D01*
X129314235Y-114277428D01*
X129320196Y-114301227D01*
X129323796Y-114325495D01*
X129325000Y-114349999D01*
X129325000Y-115250001D01*
X129323796Y-115274505D01*
X129320196Y-115298773D01*
X129314235Y-115322572D01*
X129305970Y-115345671D01*
X129295480Y-115367850D01*
X129282868Y-115388893D01*
X129268253Y-115408599D01*
X129251777Y-115426777D01*
X129233599Y-115443253D01*
X129213893Y-115457868D01*
X129192850Y-115470480D01*
X129170671Y-115480970D01*
X129147572Y-115489235D01*
X129123773Y-115495196D01*
X129099505Y-115498796D01*
X129075001Y-115500000D01*
X128424999Y-115500000D01*
X128400495Y-115498796D01*
X128376227Y-115495196D01*
X128352428Y-115489235D01*
X128329329Y-115480970D01*
X128307150Y-115470480D01*
X128286107Y-115457868D01*
X128266401Y-115443253D01*
X128248223Y-115426777D01*
X128231747Y-115408599D01*
X128217132Y-115388893D01*
X128204520Y-115367850D01*
X128194030Y-115345671D01*
X128185765Y-115322572D01*
X128179804Y-115298773D01*
X128176204Y-115274505D01*
X128175000Y-115250001D01*
X128175000Y-114349999D01*
X128176204Y-114325495D01*
X128179804Y-114301227D01*
X128185765Y-114277428D01*
X128194030Y-114254329D01*
X128204520Y-114232150D01*
X128217132Y-114211107D01*
X128231747Y-114191401D01*
X128248223Y-114173223D01*
X128266401Y-114156747D01*
X128286107Y-114142132D01*
X128307150Y-114129520D01*
X128329329Y-114119030D01*
X128352428Y-114110765D01*
X128376227Y-114104804D01*
X128400495Y-114101204D01*
X128424999Y-114100000D01*
X129075001Y-114100000D01*
X129099505Y-114101204D01*
X129099505Y-114101204D01*
G37*
D15*
G04 #@! TD*
G04 #@! TO.P,C13,2*
G04 #@! TO.N,/12v*
X128750000Y-114800000D03*
D13*
G04 #@! TO.N,/GND*
G04 #@! TO.C,C14*
G36*
X136099504Y-69126204D02*
X136123773Y-69129804D01*
X136147571Y-69135765D01*
X136170671Y-69144030D01*
X136192849Y-69154520D01*
X136213893Y-69167133D01*
X136233598Y-69181747D01*
X136251777Y-69198223D01*
X136268253Y-69216402D01*
X136282867Y-69236107D01*
X136295480Y-69257151D01*
X136305970Y-69279329D01*
X136314235Y-69302429D01*
X136320196Y-69326227D01*
X136323796Y-69350496D01*
X136325000Y-69375000D01*
X136325000Y-71525000D01*
X136323796Y-71549504D01*
X136320196Y-71573773D01*
X136314235Y-71597571D01*
X136305970Y-71620671D01*
X136295480Y-71642849D01*
X136282867Y-71663893D01*
X136268253Y-71683598D01*
X136251777Y-71701777D01*
X136233598Y-71718253D01*
X136213893Y-71732867D01*
X136192849Y-71745480D01*
X136170671Y-71755970D01*
X136147571Y-71764235D01*
X136123773Y-71770196D01*
X136099504Y-71773796D01*
X136075000Y-71775000D01*
X135150000Y-71775000D01*
X135125496Y-71773796D01*
X135101227Y-71770196D01*
X135077429Y-71764235D01*
X135054329Y-71755970D01*
X135032151Y-71745480D01*
X135011107Y-71732867D01*
X134991402Y-71718253D01*
X134973223Y-71701777D01*
X134956747Y-71683598D01*
X134942133Y-71663893D01*
X134929520Y-71642849D01*
X134919030Y-71620671D01*
X134910765Y-71597571D01*
X134904804Y-71573773D01*
X134901204Y-71549504D01*
X134900000Y-71525000D01*
X134900000Y-69375000D01*
X134901204Y-69350496D01*
X134904804Y-69326227D01*
X134910765Y-69302429D01*
X134919030Y-69279329D01*
X134929520Y-69257151D01*
X134942133Y-69236107D01*
X134956747Y-69216402D01*
X134973223Y-69198223D01*
X134991402Y-69181747D01*
X135011107Y-69167133D01*
X135032151Y-69154520D01*
X135054329Y-69144030D01*
X135077429Y-69135765D01*
X135101227Y-69129804D01*
X135125496Y-69126204D01*
X135150000Y-69125000D01*
X136075000Y-69125000D01*
X136099504Y-69126204D01*
X136099504Y-69126204D01*
G37*
D14*
G04 #@! TD*
G04 #@! TO.P,C14,2*
G04 #@! TO.N,/GND*
X135612500Y-70450000D03*
D13*
G04 #@! TO.N,/48v*
G04 #@! TO.C,C14*
G36*
X139074504Y-69126204D02*
X139098773Y-69129804D01*
X139122571Y-69135765D01*
X139145671Y-69144030D01*
X139167849Y-69154520D01*
X139188893Y-69167133D01*
X139208598Y-69181747D01*
X139226777Y-69198223D01*
X139243253Y-69216402D01*
X139257867Y-69236107D01*
X139270480Y-69257151D01*
X139280970Y-69279329D01*
X139289235Y-69302429D01*
X139295196Y-69326227D01*
X139298796Y-69350496D01*
X139300000Y-69375000D01*
X139300000Y-71525000D01*
X139298796Y-71549504D01*
X139295196Y-71573773D01*
X139289235Y-71597571D01*
X139280970Y-71620671D01*
X139270480Y-71642849D01*
X139257867Y-71663893D01*
X139243253Y-71683598D01*
X139226777Y-71701777D01*
X139208598Y-71718253D01*
X139188893Y-71732867D01*
X139167849Y-71745480D01*
X139145671Y-71755970D01*
X139122571Y-71764235D01*
X139098773Y-71770196D01*
X139074504Y-71773796D01*
X139050000Y-71775000D01*
X138125000Y-71775000D01*
X138100496Y-71773796D01*
X138076227Y-71770196D01*
X138052429Y-71764235D01*
X138029329Y-71755970D01*
X138007151Y-71745480D01*
X137986107Y-71732867D01*
X137966402Y-71718253D01*
X137948223Y-71701777D01*
X137931747Y-71683598D01*
X137917133Y-71663893D01*
X137904520Y-71642849D01*
X137894030Y-71620671D01*
X137885765Y-71597571D01*
X137879804Y-71573773D01*
X137876204Y-71549504D01*
X137875000Y-71525000D01*
X137875000Y-69375000D01*
X137876204Y-69350496D01*
X137879804Y-69326227D01*
X137885765Y-69302429D01*
X137894030Y-69279329D01*
X137904520Y-69257151D01*
X137917133Y-69236107D01*
X137931747Y-69216402D01*
X137948223Y-69198223D01*
X137966402Y-69181747D01*
X137986107Y-69167133D01*
X138007151Y-69154520D01*
X138029329Y-69144030D01*
X138052429Y-69135765D01*
X138076227Y-69129804D01*
X138100496Y-69126204D01*
X138125000Y-69125000D01*
X139050000Y-69125000D01*
X139074504Y-69126204D01*
X139074504Y-69126204D01*
G37*
D14*
G04 #@! TD*
G04 #@! TO.P,C14,1*
G04 #@! TO.N,/48v*
X138587500Y-70450000D03*
D13*
G04 #@! TO.N,/GND*
G04 #@! TO.C,C15*
G36*
X177114504Y-103182204D02*
X177138773Y-103185804D01*
X177162571Y-103191765D01*
X177185671Y-103200030D01*
X177207849Y-103210520D01*
X177228893Y-103223133D01*
X177248598Y-103237747D01*
X177266777Y-103254223D01*
X177283253Y-103272402D01*
X177297867Y-103292107D01*
X177310480Y-103313151D01*
X177320970Y-103335329D01*
X177329235Y-103358429D01*
X177335196Y-103382227D01*
X177338796Y-103406496D01*
X177340000Y-103431000D01*
X177340000Y-104356000D01*
X177338796Y-104380504D01*
X177335196Y-104404773D01*
X177329235Y-104428571D01*
X177320970Y-104451671D01*
X177310480Y-104473849D01*
X177297867Y-104494893D01*
X177283253Y-104514598D01*
X177266777Y-104532777D01*
X177248598Y-104549253D01*
X177228893Y-104563867D01*
X177207849Y-104576480D01*
X177185671Y-104586970D01*
X177162571Y-104595235D01*
X177138773Y-104601196D01*
X177114504Y-104604796D01*
X177090000Y-104606000D01*
X174940000Y-104606000D01*
X174915496Y-104604796D01*
X174891227Y-104601196D01*
X174867429Y-104595235D01*
X174844329Y-104586970D01*
X174822151Y-104576480D01*
X174801107Y-104563867D01*
X174781402Y-104549253D01*
X174763223Y-104532777D01*
X174746747Y-104514598D01*
X174732133Y-104494893D01*
X174719520Y-104473849D01*
X174709030Y-104451671D01*
X174700765Y-104428571D01*
X174694804Y-104404773D01*
X174691204Y-104380504D01*
X174690000Y-104356000D01*
X174690000Y-103431000D01*
X174691204Y-103406496D01*
X174694804Y-103382227D01*
X174700765Y-103358429D01*
X174709030Y-103335329D01*
X174719520Y-103313151D01*
X174732133Y-103292107D01*
X174746747Y-103272402D01*
X174763223Y-103254223D01*
X174781402Y-103237747D01*
X174801107Y-103223133D01*
X174822151Y-103210520D01*
X174844329Y-103200030D01*
X174867429Y-103191765D01*
X174891227Y-103185804D01*
X174915496Y-103182204D01*
X174940000Y-103181000D01*
X177090000Y-103181000D01*
X177114504Y-103182204D01*
X177114504Y-103182204D01*
G37*
D14*
G04 #@! TD*
G04 #@! TO.P,C15,2*
G04 #@! TO.N,/GND*
X176015000Y-103893500D03*
D13*
G04 #@! TO.N,/48v*
G04 #@! TO.C,C15*
G36*
X177114504Y-100207204D02*
X177138773Y-100210804D01*
X177162571Y-100216765D01*
X177185671Y-100225030D01*
X177207849Y-100235520D01*
X177228893Y-100248133D01*
X177248598Y-100262747D01*
X177266777Y-100279223D01*
X177283253Y-100297402D01*
X177297867Y-100317107D01*
X177310480Y-100338151D01*
X177320970Y-100360329D01*
X177329235Y-100383429D01*
X177335196Y-100407227D01*
X177338796Y-100431496D01*
X177340000Y-100456000D01*
X177340000Y-101381000D01*
X177338796Y-101405504D01*
X177335196Y-101429773D01*
X177329235Y-101453571D01*
X177320970Y-101476671D01*
X177310480Y-101498849D01*
X177297867Y-101519893D01*
X177283253Y-101539598D01*
X177266777Y-101557777D01*
X177248598Y-101574253D01*
X177228893Y-101588867D01*
X177207849Y-101601480D01*
X177185671Y-101611970D01*
X177162571Y-101620235D01*
X177138773Y-101626196D01*
X177114504Y-101629796D01*
X177090000Y-101631000D01*
X174940000Y-101631000D01*
X174915496Y-101629796D01*
X174891227Y-101626196D01*
X174867429Y-101620235D01*
X174844329Y-101611970D01*
X174822151Y-101601480D01*
X174801107Y-101588867D01*
X174781402Y-101574253D01*
X174763223Y-101557777D01*
X174746747Y-101539598D01*
X174732133Y-101519893D01*
X174719520Y-101498849D01*
X174709030Y-101476671D01*
X174700765Y-101453571D01*
X174694804Y-101429773D01*
X174691204Y-101405504D01*
X174690000Y-101381000D01*
X174690000Y-100456000D01*
X174691204Y-100431496D01*
X174694804Y-100407227D01*
X174700765Y-100383429D01*
X174709030Y-100360329D01*
X174719520Y-100338151D01*
X174732133Y-100317107D01*
X174746747Y-100297402D01*
X174763223Y-100279223D01*
X174781402Y-100262747D01*
X174801107Y-100248133D01*
X174822151Y-100235520D01*
X174844329Y-100225030D01*
X174867429Y-100216765D01*
X174891227Y-100210804D01*
X174915496Y-100207204D01*
X174940000Y-100206000D01*
X177090000Y-100206000D01*
X177114504Y-100207204D01*
X177114504Y-100207204D01*
G37*
D14*
G04 #@! TD*
G04 #@! TO.P,C15,1*
G04 #@! TO.N,/48v*
X176015000Y-100918500D03*
D13*
G04 #@! TO.N,/48v*
G04 #@! TO.C,C16*
G36*
X139074504Y-64101204D02*
X139098773Y-64104804D01*
X139122571Y-64110765D01*
X139145671Y-64119030D01*
X139167849Y-64129520D01*
X139188893Y-64142133D01*
X139208598Y-64156747D01*
X139226777Y-64173223D01*
X139243253Y-64191402D01*
X139257867Y-64211107D01*
X139270480Y-64232151D01*
X139280970Y-64254329D01*
X139289235Y-64277429D01*
X139295196Y-64301227D01*
X139298796Y-64325496D01*
X139300000Y-64350000D01*
X139300000Y-65600000D01*
X139298796Y-65624504D01*
X139295196Y-65648773D01*
X139289235Y-65672571D01*
X139280970Y-65695671D01*
X139270480Y-65717849D01*
X139257867Y-65738893D01*
X139243253Y-65758598D01*
X139226777Y-65776777D01*
X139208598Y-65793253D01*
X139188893Y-65807867D01*
X139167849Y-65820480D01*
X139145671Y-65830970D01*
X139122571Y-65839235D01*
X139098773Y-65845196D01*
X139074504Y-65848796D01*
X139050000Y-65850000D01*
X138125000Y-65850000D01*
X138100496Y-65848796D01*
X138076227Y-65845196D01*
X138052429Y-65839235D01*
X138029329Y-65830970D01*
X138007151Y-65820480D01*
X137986107Y-65807867D01*
X137966402Y-65793253D01*
X137948223Y-65776777D01*
X137931747Y-65758598D01*
X137917133Y-65738893D01*
X137904520Y-65717849D01*
X137894030Y-65695671D01*
X137885765Y-65672571D01*
X137879804Y-65648773D01*
X137876204Y-65624504D01*
X137875000Y-65600000D01*
X137875000Y-64350000D01*
X137876204Y-64325496D01*
X137879804Y-64301227D01*
X137885765Y-64277429D01*
X137894030Y-64254329D01*
X137904520Y-64232151D01*
X137917133Y-64211107D01*
X137931747Y-64191402D01*
X137948223Y-64173223D01*
X137966402Y-64156747D01*
X137986107Y-64142133D01*
X138007151Y-64129520D01*
X138029329Y-64119030D01*
X138052429Y-64110765D01*
X138076227Y-64104804D01*
X138100496Y-64101204D01*
X138125000Y-64100000D01*
X139050000Y-64100000D01*
X139074504Y-64101204D01*
X139074504Y-64101204D01*
G37*
D14*
G04 #@! TD*
G04 #@! TO.P,C16,1*
G04 #@! TO.N,/48v*
X138587500Y-64975000D03*
D13*
G04 #@! TO.N,/GND*
G04 #@! TO.C,C16*
G36*
X136099504Y-64101204D02*
X136123773Y-64104804D01*
X136147571Y-64110765D01*
X136170671Y-64119030D01*
X136192849Y-64129520D01*
X136213893Y-64142133D01*
X136233598Y-64156747D01*
X136251777Y-64173223D01*
X136268253Y-64191402D01*
X136282867Y-64211107D01*
X136295480Y-64232151D01*
X136305970Y-64254329D01*
X136314235Y-64277429D01*
X136320196Y-64301227D01*
X136323796Y-64325496D01*
X136325000Y-64350000D01*
X136325000Y-65600000D01*
X136323796Y-65624504D01*
X136320196Y-65648773D01*
X136314235Y-65672571D01*
X136305970Y-65695671D01*
X136295480Y-65717849D01*
X136282867Y-65738893D01*
X136268253Y-65758598D01*
X136251777Y-65776777D01*
X136233598Y-65793253D01*
X136213893Y-65807867D01*
X136192849Y-65820480D01*
X136170671Y-65830970D01*
X136147571Y-65839235D01*
X136123773Y-65845196D01*
X136099504Y-65848796D01*
X136075000Y-65850000D01*
X135150000Y-65850000D01*
X135125496Y-65848796D01*
X135101227Y-65845196D01*
X135077429Y-65839235D01*
X135054329Y-65830970D01*
X135032151Y-65820480D01*
X135011107Y-65807867D01*
X134991402Y-65793253D01*
X134973223Y-65776777D01*
X134956747Y-65758598D01*
X134942133Y-65738893D01*
X134929520Y-65717849D01*
X134919030Y-65695671D01*
X134910765Y-65672571D01*
X134904804Y-65648773D01*
X134901204Y-65624504D01*
X134900000Y-65600000D01*
X134900000Y-64350000D01*
X134901204Y-64325496D01*
X134904804Y-64301227D01*
X134910765Y-64277429D01*
X134919030Y-64254329D01*
X134929520Y-64232151D01*
X134942133Y-64211107D01*
X134956747Y-64191402D01*
X134973223Y-64173223D01*
X134991402Y-64156747D01*
X135011107Y-64142133D01*
X135032151Y-64129520D01*
X135054329Y-64119030D01*
X135077429Y-64110765D01*
X135101227Y-64104804D01*
X135125496Y-64101204D01*
X135150000Y-64100000D01*
X136075000Y-64100000D01*
X136099504Y-64101204D01*
X136099504Y-64101204D01*
G37*
D14*
G04 #@! TD*
G04 #@! TO.P,C16,2*
G04 #@! TO.N,/GND*
X135612500Y-64975000D03*
D13*
G04 #@! TO.N,/GND*
G04 #@! TO.C,C17*
G36*
X184245505Y-117986704D02*
X184269773Y-117990304D01*
X184293572Y-117996265D01*
X184316671Y-118004530D01*
X184338850Y-118015020D01*
X184359893Y-118027632D01*
X184379599Y-118042247D01*
X184397777Y-118058723D01*
X184414253Y-118076901D01*
X184428868Y-118096607D01*
X184441480Y-118117650D01*
X184451970Y-118139829D01*
X184460235Y-118162928D01*
X184466196Y-118186727D01*
X184469796Y-118210995D01*
X184471000Y-118235499D01*
X184471000Y-119135501D01*
X184469796Y-119160005D01*
X184466196Y-119184273D01*
X184460235Y-119208072D01*
X184451970Y-119231171D01*
X184441480Y-119253350D01*
X184428868Y-119274393D01*
X184414253Y-119294099D01*
X184397777Y-119312277D01*
X184379599Y-119328753D01*
X184359893Y-119343368D01*
X184338850Y-119355980D01*
X184316671Y-119366470D01*
X184293572Y-119374735D01*
X184269773Y-119380696D01*
X184245505Y-119384296D01*
X184221001Y-119385500D01*
X183570999Y-119385500D01*
X183546495Y-119384296D01*
X183522227Y-119380696D01*
X183498428Y-119374735D01*
X183475329Y-119366470D01*
X183453150Y-119355980D01*
X183432107Y-119343368D01*
X183412401Y-119328753D01*
X183394223Y-119312277D01*
X183377747Y-119294099D01*
X183363132Y-119274393D01*
X183350520Y-119253350D01*
X183340030Y-119231171D01*
X183331765Y-119208072D01*
X183325804Y-119184273D01*
X183322204Y-119160005D01*
X183321000Y-119135501D01*
X183321000Y-118235499D01*
X183322204Y-118210995D01*
X183325804Y-118186727D01*
X183331765Y-118162928D01*
X183340030Y-118139829D01*
X183350520Y-118117650D01*
X183363132Y-118096607D01*
X183377747Y-118076901D01*
X183394223Y-118058723D01*
X183412401Y-118042247D01*
X183432107Y-118027632D01*
X183453150Y-118015020D01*
X183475329Y-118004530D01*
X183498428Y-117996265D01*
X183522227Y-117990304D01*
X183546495Y-117986704D01*
X183570999Y-117985500D01*
X184221001Y-117985500D01*
X184245505Y-117986704D01*
X184245505Y-117986704D01*
G37*
D15*
G04 #@! TD*
G04 #@! TO.P,C17,1*
G04 #@! TO.N,/GND*
X183896000Y-118685500D03*
D13*
G04 #@! TO.N,/5v*
G04 #@! TO.C,C17*
G36*
X186295505Y-117986704D02*
X186319773Y-117990304D01*
X186343572Y-117996265D01*
X186366671Y-118004530D01*
X186388850Y-118015020D01*
X186409893Y-118027632D01*
X186429599Y-118042247D01*
X186447777Y-118058723D01*
X186464253Y-118076901D01*
X186478868Y-118096607D01*
X186491480Y-118117650D01*
X186501970Y-118139829D01*
X186510235Y-118162928D01*
X186516196Y-118186727D01*
X186519796Y-118210995D01*
X186521000Y-118235499D01*
X186521000Y-119135501D01*
X186519796Y-119160005D01*
X186516196Y-119184273D01*
X186510235Y-119208072D01*
X186501970Y-119231171D01*
X186491480Y-119253350D01*
X186478868Y-119274393D01*
X186464253Y-119294099D01*
X186447777Y-119312277D01*
X186429599Y-119328753D01*
X186409893Y-119343368D01*
X186388850Y-119355980D01*
X186366671Y-119366470D01*
X186343572Y-119374735D01*
X186319773Y-119380696D01*
X186295505Y-119384296D01*
X186271001Y-119385500D01*
X185620999Y-119385500D01*
X185596495Y-119384296D01*
X185572227Y-119380696D01*
X185548428Y-119374735D01*
X185525329Y-119366470D01*
X185503150Y-119355980D01*
X185482107Y-119343368D01*
X185462401Y-119328753D01*
X185444223Y-119312277D01*
X185427747Y-119294099D01*
X185413132Y-119274393D01*
X185400520Y-119253350D01*
X185390030Y-119231171D01*
X185381765Y-119208072D01*
X185375804Y-119184273D01*
X185372204Y-119160005D01*
X185371000Y-119135501D01*
X185371000Y-118235499D01*
X185372204Y-118210995D01*
X185375804Y-118186727D01*
X185381765Y-118162928D01*
X185390030Y-118139829D01*
X185400520Y-118117650D01*
X185413132Y-118096607D01*
X185427747Y-118076901D01*
X185444223Y-118058723D01*
X185462401Y-118042247D01*
X185482107Y-118027632D01*
X185503150Y-118015020D01*
X185525329Y-118004530D01*
X185548428Y-117996265D01*
X185572227Y-117990304D01*
X185596495Y-117986704D01*
X185620999Y-117985500D01*
X186271001Y-117985500D01*
X186295505Y-117986704D01*
X186295505Y-117986704D01*
G37*
D15*
G04 #@! TD*
G04 #@! TO.P,C17,2*
G04 #@! TO.N,/5v*
X185946000Y-118685500D03*
D13*
G04 #@! TO.N,/48v*
G04 #@! TO.C,C18*
G36*
X183668504Y-100246204D02*
X183692773Y-100249804D01*
X183716571Y-100255765D01*
X183739671Y-100264030D01*
X183761849Y-100274520D01*
X183782893Y-100287133D01*
X183802598Y-100301747D01*
X183820777Y-100318223D01*
X183837253Y-100336402D01*
X183851867Y-100356107D01*
X183864480Y-100377151D01*
X183874970Y-100399329D01*
X183883235Y-100422429D01*
X183889196Y-100446227D01*
X183892796Y-100470496D01*
X183894000Y-100495000D01*
X183894000Y-101420000D01*
X183892796Y-101444504D01*
X183889196Y-101468773D01*
X183883235Y-101492571D01*
X183874970Y-101515671D01*
X183864480Y-101537849D01*
X183851867Y-101558893D01*
X183837253Y-101578598D01*
X183820777Y-101596777D01*
X183802598Y-101613253D01*
X183782893Y-101627867D01*
X183761849Y-101640480D01*
X183739671Y-101650970D01*
X183716571Y-101659235D01*
X183692773Y-101665196D01*
X183668504Y-101668796D01*
X183644000Y-101670000D01*
X181494000Y-101670000D01*
X181469496Y-101668796D01*
X181445227Y-101665196D01*
X181421429Y-101659235D01*
X181398329Y-101650970D01*
X181376151Y-101640480D01*
X181355107Y-101627867D01*
X181335402Y-101613253D01*
X181317223Y-101596777D01*
X181300747Y-101578598D01*
X181286133Y-101558893D01*
X181273520Y-101537849D01*
X181263030Y-101515671D01*
X181254765Y-101492571D01*
X181248804Y-101468773D01*
X181245204Y-101444504D01*
X181244000Y-101420000D01*
X181244000Y-100495000D01*
X181245204Y-100470496D01*
X181248804Y-100446227D01*
X181254765Y-100422429D01*
X181263030Y-100399329D01*
X181273520Y-100377151D01*
X181286133Y-100356107D01*
X181300747Y-100336402D01*
X181317223Y-100318223D01*
X181335402Y-100301747D01*
X181355107Y-100287133D01*
X181376151Y-100274520D01*
X181398329Y-100264030D01*
X181421429Y-100255765D01*
X181445227Y-100249804D01*
X181469496Y-100246204D01*
X181494000Y-100245000D01*
X183644000Y-100245000D01*
X183668504Y-100246204D01*
X183668504Y-100246204D01*
G37*
D14*
G04 #@! TD*
G04 #@! TO.P,C18,1*
G04 #@! TO.N,/48v*
X182569000Y-100957500D03*
D13*
G04 #@! TO.N,/GND*
G04 #@! TO.C,C18*
G36*
X183668504Y-103221204D02*
X183692773Y-103224804D01*
X183716571Y-103230765D01*
X183739671Y-103239030D01*
X183761849Y-103249520D01*
X183782893Y-103262133D01*
X183802598Y-103276747D01*
X183820777Y-103293223D01*
X183837253Y-103311402D01*
X183851867Y-103331107D01*
X183864480Y-103352151D01*
X183874970Y-103374329D01*
X183883235Y-103397429D01*
X183889196Y-103421227D01*
X183892796Y-103445496D01*
X183894000Y-103470000D01*
X183894000Y-104395000D01*
X183892796Y-104419504D01*
X183889196Y-104443773D01*
X183883235Y-104467571D01*
X183874970Y-104490671D01*
X183864480Y-104512849D01*
X183851867Y-104533893D01*
X183837253Y-104553598D01*
X183820777Y-104571777D01*
X183802598Y-104588253D01*
X183782893Y-104602867D01*
X183761849Y-104615480D01*
X183739671Y-104625970D01*
X183716571Y-104634235D01*
X183692773Y-104640196D01*
X183668504Y-104643796D01*
X183644000Y-104645000D01*
X181494000Y-104645000D01*
X181469496Y-104643796D01*
X181445227Y-104640196D01*
X181421429Y-104634235D01*
X181398329Y-104625970D01*
X181376151Y-104615480D01*
X181355107Y-104602867D01*
X181335402Y-104588253D01*
X181317223Y-104571777D01*
X181300747Y-104553598D01*
X181286133Y-104533893D01*
X181273520Y-104512849D01*
X181263030Y-104490671D01*
X181254765Y-104467571D01*
X181248804Y-104443773D01*
X181245204Y-104419504D01*
X181244000Y-104395000D01*
X181244000Y-103470000D01*
X181245204Y-103445496D01*
X181248804Y-103421227D01*
X181254765Y-103397429D01*
X181263030Y-103374329D01*
X181273520Y-103352151D01*
X181286133Y-103331107D01*
X181300747Y-103311402D01*
X181317223Y-103293223D01*
X181335402Y-103276747D01*
X181355107Y-103262133D01*
X181376151Y-103249520D01*
X181398329Y-103239030D01*
X181421429Y-103230765D01*
X181445227Y-103224804D01*
X181469496Y-103221204D01*
X181494000Y-103220000D01*
X183644000Y-103220000D01*
X183668504Y-103221204D01*
X183668504Y-103221204D01*
G37*
D14*
G04 #@! TD*
G04 #@! TO.P,C18,2*
G04 #@! TO.N,/GND*
X182569000Y-103932500D03*
D13*
G04 #@! TO.N,/48v*
G04 #@! TO.C,C19*
G36*
X139049504Y-74826204D02*
X139073773Y-74829804D01*
X139097571Y-74835765D01*
X139120671Y-74844030D01*
X139142849Y-74854520D01*
X139163893Y-74867133D01*
X139183598Y-74881747D01*
X139201777Y-74898223D01*
X139218253Y-74916402D01*
X139232867Y-74936107D01*
X139245480Y-74957151D01*
X139255970Y-74979329D01*
X139264235Y-75002429D01*
X139270196Y-75026227D01*
X139273796Y-75050496D01*
X139275000Y-75075000D01*
X139275000Y-77225000D01*
X139273796Y-77249504D01*
X139270196Y-77273773D01*
X139264235Y-77297571D01*
X139255970Y-77320671D01*
X139245480Y-77342849D01*
X139232867Y-77363893D01*
X139218253Y-77383598D01*
X139201777Y-77401777D01*
X139183598Y-77418253D01*
X139163893Y-77432867D01*
X139142849Y-77445480D01*
X139120671Y-77455970D01*
X139097571Y-77464235D01*
X139073773Y-77470196D01*
X139049504Y-77473796D01*
X139025000Y-77475000D01*
X138100000Y-77475000D01*
X138075496Y-77473796D01*
X138051227Y-77470196D01*
X138027429Y-77464235D01*
X138004329Y-77455970D01*
X137982151Y-77445480D01*
X137961107Y-77432867D01*
X137941402Y-77418253D01*
X137923223Y-77401777D01*
X137906747Y-77383598D01*
X137892133Y-77363893D01*
X137879520Y-77342849D01*
X137869030Y-77320671D01*
X137860765Y-77297571D01*
X137854804Y-77273773D01*
X137851204Y-77249504D01*
X137850000Y-77225000D01*
X137850000Y-75075000D01*
X137851204Y-75050496D01*
X137854804Y-75026227D01*
X137860765Y-75002429D01*
X137869030Y-74979329D01*
X137879520Y-74957151D01*
X137892133Y-74936107D01*
X137906747Y-74916402D01*
X137923223Y-74898223D01*
X137941402Y-74881747D01*
X137961107Y-74867133D01*
X137982151Y-74854520D01*
X138004329Y-74844030D01*
X138027429Y-74835765D01*
X138051227Y-74829804D01*
X138075496Y-74826204D01*
X138100000Y-74825000D01*
X139025000Y-74825000D01*
X139049504Y-74826204D01*
X139049504Y-74826204D01*
G37*
D14*
G04 #@! TD*
G04 #@! TO.P,C19,1*
G04 #@! TO.N,/48v*
X138562500Y-76150000D03*
D13*
G04 #@! TO.N,/GND*
G04 #@! TO.C,C19*
G36*
X136074504Y-74826204D02*
X136098773Y-74829804D01*
X136122571Y-74835765D01*
X136145671Y-74844030D01*
X136167849Y-74854520D01*
X136188893Y-74867133D01*
X136208598Y-74881747D01*
X136226777Y-74898223D01*
X136243253Y-74916402D01*
X136257867Y-74936107D01*
X136270480Y-74957151D01*
X136280970Y-74979329D01*
X136289235Y-75002429D01*
X136295196Y-75026227D01*
X136298796Y-75050496D01*
X136300000Y-75075000D01*
X136300000Y-77225000D01*
X136298796Y-77249504D01*
X136295196Y-77273773D01*
X136289235Y-77297571D01*
X136280970Y-77320671D01*
X136270480Y-77342849D01*
X136257867Y-77363893D01*
X136243253Y-77383598D01*
X136226777Y-77401777D01*
X136208598Y-77418253D01*
X136188893Y-77432867D01*
X136167849Y-77445480D01*
X136145671Y-77455970D01*
X136122571Y-77464235D01*
X136098773Y-77470196D01*
X136074504Y-77473796D01*
X136050000Y-77475000D01*
X135125000Y-77475000D01*
X135100496Y-77473796D01*
X135076227Y-77470196D01*
X135052429Y-77464235D01*
X135029329Y-77455970D01*
X135007151Y-77445480D01*
X134986107Y-77432867D01*
X134966402Y-77418253D01*
X134948223Y-77401777D01*
X134931747Y-77383598D01*
X134917133Y-77363893D01*
X134904520Y-77342849D01*
X134894030Y-77320671D01*
X134885765Y-77297571D01*
X134879804Y-77273773D01*
X134876204Y-77249504D01*
X134875000Y-77225000D01*
X134875000Y-75075000D01*
X134876204Y-75050496D01*
X134879804Y-75026227D01*
X134885765Y-75002429D01*
X134894030Y-74979329D01*
X134904520Y-74957151D01*
X134917133Y-74936107D01*
X134931747Y-74916402D01*
X134948223Y-74898223D01*
X134966402Y-74881747D01*
X134986107Y-74867133D01*
X135007151Y-74854520D01*
X135029329Y-74844030D01*
X135052429Y-74835765D01*
X135076227Y-74829804D01*
X135100496Y-74826204D01*
X135125000Y-74825000D01*
X136050000Y-74825000D01*
X136074504Y-74826204D01*
X136074504Y-74826204D01*
G37*
D14*
G04 #@! TD*
G04 #@! TO.P,C19,2*
G04 #@! TO.N,/GND*
X135587500Y-76150000D03*
D13*
G04 #@! TO.N,/GND*
G04 #@! TO.C,C20*
G36*
X170714504Y-103182204D02*
X170738773Y-103185804D01*
X170762571Y-103191765D01*
X170785671Y-103200030D01*
X170807849Y-103210520D01*
X170828893Y-103223133D01*
X170848598Y-103237747D01*
X170866777Y-103254223D01*
X170883253Y-103272402D01*
X170897867Y-103292107D01*
X170910480Y-103313151D01*
X170920970Y-103335329D01*
X170929235Y-103358429D01*
X170935196Y-103382227D01*
X170938796Y-103406496D01*
X170940000Y-103431000D01*
X170940000Y-104356000D01*
X170938796Y-104380504D01*
X170935196Y-104404773D01*
X170929235Y-104428571D01*
X170920970Y-104451671D01*
X170910480Y-104473849D01*
X170897867Y-104494893D01*
X170883253Y-104514598D01*
X170866777Y-104532777D01*
X170848598Y-104549253D01*
X170828893Y-104563867D01*
X170807849Y-104576480D01*
X170785671Y-104586970D01*
X170762571Y-104595235D01*
X170738773Y-104601196D01*
X170714504Y-104604796D01*
X170690000Y-104606000D01*
X169440000Y-104606000D01*
X169415496Y-104604796D01*
X169391227Y-104601196D01*
X169367429Y-104595235D01*
X169344329Y-104586970D01*
X169322151Y-104576480D01*
X169301107Y-104563867D01*
X169281402Y-104549253D01*
X169263223Y-104532777D01*
X169246747Y-104514598D01*
X169232133Y-104494893D01*
X169219520Y-104473849D01*
X169209030Y-104451671D01*
X169200765Y-104428571D01*
X169194804Y-104404773D01*
X169191204Y-104380504D01*
X169190000Y-104356000D01*
X169190000Y-103431000D01*
X169191204Y-103406496D01*
X169194804Y-103382227D01*
X169200765Y-103358429D01*
X169209030Y-103335329D01*
X169219520Y-103313151D01*
X169232133Y-103292107D01*
X169246747Y-103272402D01*
X169263223Y-103254223D01*
X169281402Y-103237747D01*
X169301107Y-103223133D01*
X169322151Y-103210520D01*
X169344329Y-103200030D01*
X169367429Y-103191765D01*
X169391227Y-103185804D01*
X169415496Y-103182204D01*
X169440000Y-103181000D01*
X170690000Y-103181000D01*
X170714504Y-103182204D01*
X170714504Y-103182204D01*
G37*
D14*
G04 #@! TD*
G04 #@! TO.P,C20,2*
G04 #@! TO.N,/GND*
X170065000Y-103893500D03*
D13*
G04 #@! TO.N,/48v*
G04 #@! TO.C,C20*
G36*
X170714504Y-100207204D02*
X170738773Y-100210804D01*
X170762571Y-100216765D01*
X170785671Y-100225030D01*
X170807849Y-100235520D01*
X170828893Y-100248133D01*
X170848598Y-100262747D01*
X170866777Y-100279223D01*
X170883253Y-100297402D01*
X170897867Y-100317107D01*
X170910480Y-100338151D01*
X170920970Y-100360329D01*
X170929235Y-100383429D01*
X170935196Y-100407227D01*
X170938796Y-100431496D01*
X170940000Y-100456000D01*
X170940000Y-101381000D01*
X170938796Y-101405504D01*
X170935196Y-101429773D01*
X170929235Y-101453571D01*
X170920970Y-101476671D01*
X170910480Y-101498849D01*
X170897867Y-101519893D01*
X170883253Y-101539598D01*
X170866777Y-101557777D01*
X170848598Y-101574253D01*
X170828893Y-101588867D01*
X170807849Y-101601480D01*
X170785671Y-101611970D01*
X170762571Y-101620235D01*
X170738773Y-101626196D01*
X170714504Y-101629796D01*
X170690000Y-101631000D01*
X169440000Y-101631000D01*
X169415496Y-101629796D01*
X169391227Y-101626196D01*
X169367429Y-101620235D01*
X169344329Y-101611970D01*
X169322151Y-101601480D01*
X169301107Y-101588867D01*
X169281402Y-101574253D01*
X169263223Y-101557777D01*
X169246747Y-101539598D01*
X169232133Y-101519893D01*
X169219520Y-101498849D01*
X169209030Y-101476671D01*
X169200765Y-101453571D01*
X169194804Y-101429773D01*
X169191204Y-101405504D01*
X169190000Y-101381000D01*
X169190000Y-100456000D01*
X169191204Y-100431496D01*
X169194804Y-100407227D01*
X169200765Y-100383429D01*
X169209030Y-100360329D01*
X169219520Y-100338151D01*
X169232133Y-100317107D01*
X169246747Y-100297402D01*
X169263223Y-100279223D01*
X169281402Y-100262747D01*
X169301107Y-100248133D01*
X169322151Y-100235520D01*
X169344329Y-100225030D01*
X169367429Y-100216765D01*
X169391227Y-100210804D01*
X169415496Y-100207204D01*
X169440000Y-100206000D01*
X170690000Y-100206000D01*
X170714504Y-100207204D01*
X170714504Y-100207204D01*
G37*
D14*
G04 #@! TD*
G04 #@! TO.P,C20,1*
G04 #@! TO.N,/48v*
X170065000Y-100918500D03*
D13*
G04 #@! TO.N,/5v*
G04 #@! TO.C,C21*
G36*
X172515505Y-117986704D02*
X172539773Y-117990304D01*
X172563572Y-117996265D01*
X172586671Y-118004530D01*
X172608850Y-118015020D01*
X172629893Y-118027632D01*
X172649599Y-118042247D01*
X172667777Y-118058723D01*
X172684253Y-118076901D01*
X172698868Y-118096607D01*
X172711480Y-118117650D01*
X172721970Y-118139829D01*
X172730235Y-118162928D01*
X172736196Y-118186727D01*
X172739796Y-118210995D01*
X172741000Y-118235499D01*
X172741000Y-119135501D01*
X172739796Y-119160005D01*
X172736196Y-119184273D01*
X172730235Y-119208072D01*
X172721970Y-119231171D01*
X172711480Y-119253350D01*
X172698868Y-119274393D01*
X172684253Y-119294099D01*
X172667777Y-119312277D01*
X172649599Y-119328753D01*
X172629893Y-119343368D01*
X172608850Y-119355980D01*
X172586671Y-119366470D01*
X172563572Y-119374735D01*
X172539773Y-119380696D01*
X172515505Y-119384296D01*
X172491001Y-119385500D01*
X171840999Y-119385500D01*
X171816495Y-119384296D01*
X171792227Y-119380696D01*
X171768428Y-119374735D01*
X171745329Y-119366470D01*
X171723150Y-119355980D01*
X171702107Y-119343368D01*
X171682401Y-119328753D01*
X171664223Y-119312277D01*
X171647747Y-119294099D01*
X171633132Y-119274393D01*
X171620520Y-119253350D01*
X171610030Y-119231171D01*
X171601765Y-119208072D01*
X171595804Y-119184273D01*
X171592204Y-119160005D01*
X171591000Y-119135501D01*
X171591000Y-118235499D01*
X171592204Y-118210995D01*
X171595804Y-118186727D01*
X171601765Y-118162928D01*
X171610030Y-118139829D01*
X171620520Y-118117650D01*
X171633132Y-118096607D01*
X171647747Y-118076901D01*
X171664223Y-118058723D01*
X171682401Y-118042247D01*
X171702107Y-118027632D01*
X171723150Y-118015020D01*
X171745329Y-118004530D01*
X171768428Y-117996265D01*
X171792227Y-117990304D01*
X171816495Y-117986704D01*
X171840999Y-117985500D01*
X172491001Y-117985500D01*
X172515505Y-117986704D01*
X172515505Y-117986704D01*
G37*
D15*
G04 #@! TD*
G04 #@! TO.P,C21,2*
G04 #@! TO.N,/5v*
X172166000Y-118685500D03*
D13*
G04 #@! TO.N,/GND*
G04 #@! TO.C,C21*
G36*
X170465505Y-117986704D02*
X170489773Y-117990304D01*
X170513572Y-117996265D01*
X170536671Y-118004530D01*
X170558850Y-118015020D01*
X170579893Y-118027632D01*
X170599599Y-118042247D01*
X170617777Y-118058723D01*
X170634253Y-118076901D01*
X170648868Y-118096607D01*
X170661480Y-118117650D01*
X170671970Y-118139829D01*
X170680235Y-118162928D01*
X170686196Y-118186727D01*
X170689796Y-118210995D01*
X170691000Y-118235499D01*
X170691000Y-119135501D01*
X170689796Y-119160005D01*
X170686196Y-119184273D01*
X170680235Y-119208072D01*
X170671970Y-119231171D01*
X170661480Y-119253350D01*
X170648868Y-119274393D01*
X170634253Y-119294099D01*
X170617777Y-119312277D01*
X170599599Y-119328753D01*
X170579893Y-119343368D01*
X170558850Y-119355980D01*
X170536671Y-119366470D01*
X170513572Y-119374735D01*
X170489773Y-119380696D01*
X170465505Y-119384296D01*
X170441001Y-119385500D01*
X169790999Y-119385500D01*
X169766495Y-119384296D01*
X169742227Y-119380696D01*
X169718428Y-119374735D01*
X169695329Y-119366470D01*
X169673150Y-119355980D01*
X169652107Y-119343368D01*
X169632401Y-119328753D01*
X169614223Y-119312277D01*
X169597747Y-119294099D01*
X169583132Y-119274393D01*
X169570520Y-119253350D01*
X169560030Y-119231171D01*
X169551765Y-119208072D01*
X169545804Y-119184273D01*
X169542204Y-119160005D01*
X169541000Y-119135501D01*
X169541000Y-118235499D01*
X169542204Y-118210995D01*
X169545804Y-118186727D01*
X169551765Y-118162928D01*
X169560030Y-118139829D01*
X169570520Y-118117650D01*
X169583132Y-118096607D01*
X169597747Y-118076901D01*
X169614223Y-118058723D01*
X169632401Y-118042247D01*
X169652107Y-118027632D01*
X169673150Y-118015020D01*
X169695329Y-118004530D01*
X169718428Y-117996265D01*
X169742227Y-117990304D01*
X169766495Y-117986704D01*
X169790999Y-117985500D01*
X170441001Y-117985500D01*
X170465505Y-117986704D01*
X170465505Y-117986704D01*
G37*
D15*
G04 #@! TD*
G04 #@! TO.P,C21,1*
G04 #@! TO.N,/GND*
X170116000Y-118685500D03*
D13*
G04 #@! TO.N,/GND*
G04 #@! TO.C,C22*
G36*
X112006504Y-70636204D02*
X112030773Y-70639804D01*
X112054571Y-70645765D01*
X112077671Y-70654030D01*
X112099849Y-70664520D01*
X112120893Y-70677133D01*
X112140598Y-70691747D01*
X112158777Y-70708223D01*
X112175253Y-70726402D01*
X112189867Y-70746107D01*
X112202480Y-70767151D01*
X112212970Y-70789329D01*
X112221235Y-70812429D01*
X112227196Y-70836227D01*
X112230796Y-70860496D01*
X112232000Y-70885000D01*
X112232000Y-71810000D01*
X112230796Y-71834504D01*
X112227196Y-71858773D01*
X112221235Y-71882571D01*
X112212970Y-71905671D01*
X112202480Y-71927849D01*
X112189867Y-71948893D01*
X112175253Y-71968598D01*
X112158777Y-71986777D01*
X112140598Y-72003253D01*
X112120893Y-72017867D01*
X112099849Y-72030480D01*
X112077671Y-72040970D01*
X112054571Y-72049235D01*
X112030773Y-72055196D01*
X112006504Y-72058796D01*
X111982000Y-72060000D01*
X109832000Y-72060000D01*
X109807496Y-72058796D01*
X109783227Y-72055196D01*
X109759429Y-72049235D01*
X109736329Y-72040970D01*
X109714151Y-72030480D01*
X109693107Y-72017867D01*
X109673402Y-72003253D01*
X109655223Y-71986777D01*
X109638747Y-71968598D01*
X109624133Y-71948893D01*
X109611520Y-71927849D01*
X109601030Y-71905671D01*
X109592765Y-71882571D01*
X109586804Y-71858773D01*
X109583204Y-71834504D01*
X109582000Y-71810000D01*
X109582000Y-70885000D01*
X109583204Y-70860496D01*
X109586804Y-70836227D01*
X109592765Y-70812429D01*
X109601030Y-70789329D01*
X109611520Y-70767151D01*
X109624133Y-70746107D01*
X109638747Y-70726402D01*
X109655223Y-70708223D01*
X109673402Y-70691747D01*
X109693107Y-70677133D01*
X109714151Y-70664520D01*
X109736329Y-70654030D01*
X109759429Y-70645765D01*
X109783227Y-70639804D01*
X109807496Y-70636204D01*
X109832000Y-70635000D01*
X111982000Y-70635000D01*
X112006504Y-70636204D01*
X112006504Y-70636204D01*
G37*
D14*
G04 #@! TD*
G04 #@! TO.P,C22,2*
G04 #@! TO.N,/GND*
X110907000Y-71347500D03*
D13*
G04 #@! TO.N,/48v*
G04 #@! TO.C,C22*
G36*
X112006504Y-73611204D02*
X112030773Y-73614804D01*
X112054571Y-73620765D01*
X112077671Y-73629030D01*
X112099849Y-73639520D01*
X112120893Y-73652133D01*
X112140598Y-73666747D01*
X112158777Y-73683223D01*
X112175253Y-73701402D01*
X112189867Y-73721107D01*
X112202480Y-73742151D01*
X112212970Y-73764329D01*
X112221235Y-73787429D01*
X112227196Y-73811227D01*
X112230796Y-73835496D01*
X112232000Y-73860000D01*
X112232000Y-74785000D01*
X112230796Y-74809504D01*
X112227196Y-74833773D01*
X112221235Y-74857571D01*
X112212970Y-74880671D01*
X112202480Y-74902849D01*
X112189867Y-74923893D01*
X112175253Y-74943598D01*
X112158777Y-74961777D01*
X112140598Y-74978253D01*
X112120893Y-74992867D01*
X112099849Y-75005480D01*
X112077671Y-75015970D01*
X112054571Y-75024235D01*
X112030773Y-75030196D01*
X112006504Y-75033796D01*
X111982000Y-75035000D01*
X109832000Y-75035000D01*
X109807496Y-75033796D01*
X109783227Y-75030196D01*
X109759429Y-75024235D01*
X109736329Y-75015970D01*
X109714151Y-75005480D01*
X109693107Y-74992867D01*
X109673402Y-74978253D01*
X109655223Y-74961777D01*
X109638747Y-74943598D01*
X109624133Y-74923893D01*
X109611520Y-74902849D01*
X109601030Y-74880671D01*
X109592765Y-74857571D01*
X109586804Y-74833773D01*
X109583204Y-74809504D01*
X109582000Y-74785000D01*
X109582000Y-73860000D01*
X109583204Y-73835496D01*
X109586804Y-73811227D01*
X109592765Y-73787429D01*
X109601030Y-73764329D01*
X109611520Y-73742151D01*
X109624133Y-73721107D01*
X109638747Y-73701402D01*
X109655223Y-73683223D01*
X109673402Y-73666747D01*
X109693107Y-73652133D01*
X109714151Y-73639520D01*
X109736329Y-73629030D01*
X109759429Y-73620765D01*
X109783227Y-73614804D01*
X109807496Y-73611204D01*
X109832000Y-73610000D01*
X111982000Y-73610000D01*
X112006504Y-73611204D01*
X112006504Y-73611204D01*
G37*
D14*
G04 #@! TD*
G04 #@! TO.P,C22,1*
G04 #@! TO.N,/48v*
X110907000Y-74322500D03*
D13*
G04 #@! TO.N,/GND*
G04 #@! TO.C,C23*
G36*
X106061504Y-70636204D02*
X106085773Y-70639804D01*
X106109571Y-70645765D01*
X106132671Y-70654030D01*
X106154849Y-70664520D01*
X106175893Y-70677133D01*
X106195598Y-70691747D01*
X106213777Y-70708223D01*
X106230253Y-70726402D01*
X106244867Y-70746107D01*
X106257480Y-70767151D01*
X106267970Y-70789329D01*
X106276235Y-70812429D01*
X106282196Y-70836227D01*
X106285796Y-70860496D01*
X106287000Y-70885000D01*
X106287000Y-71810000D01*
X106285796Y-71834504D01*
X106282196Y-71858773D01*
X106276235Y-71882571D01*
X106267970Y-71905671D01*
X106257480Y-71927849D01*
X106244867Y-71948893D01*
X106230253Y-71968598D01*
X106213777Y-71986777D01*
X106195598Y-72003253D01*
X106175893Y-72017867D01*
X106154849Y-72030480D01*
X106132671Y-72040970D01*
X106109571Y-72049235D01*
X106085773Y-72055196D01*
X106061504Y-72058796D01*
X106037000Y-72060000D01*
X103887000Y-72060000D01*
X103862496Y-72058796D01*
X103838227Y-72055196D01*
X103814429Y-72049235D01*
X103791329Y-72040970D01*
X103769151Y-72030480D01*
X103748107Y-72017867D01*
X103728402Y-72003253D01*
X103710223Y-71986777D01*
X103693747Y-71968598D01*
X103679133Y-71948893D01*
X103666520Y-71927849D01*
X103656030Y-71905671D01*
X103647765Y-71882571D01*
X103641804Y-71858773D01*
X103638204Y-71834504D01*
X103637000Y-71810000D01*
X103637000Y-70885000D01*
X103638204Y-70860496D01*
X103641804Y-70836227D01*
X103647765Y-70812429D01*
X103656030Y-70789329D01*
X103666520Y-70767151D01*
X103679133Y-70746107D01*
X103693747Y-70726402D01*
X103710223Y-70708223D01*
X103728402Y-70691747D01*
X103748107Y-70677133D01*
X103769151Y-70664520D01*
X103791329Y-70654030D01*
X103814429Y-70645765D01*
X103838227Y-70639804D01*
X103862496Y-70636204D01*
X103887000Y-70635000D01*
X106037000Y-70635000D01*
X106061504Y-70636204D01*
X106061504Y-70636204D01*
G37*
D14*
G04 #@! TD*
G04 #@! TO.P,C23,2*
G04 #@! TO.N,/GND*
X104962000Y-71347500D03*
D13*
G04 #@! TO.N,/48v*
G04 #@! TO.C,C23*
G36*
X106061504Y-73611204D02*
X106085773Y-73614804D01*
X106109571Y-73620765D01*
X106132671Y-73629030D01*
X106154849Y-73639520D01*
X106175893Y-73652133D01*
X106195598Y-73666747D01*
X106213777Y-73683223D01*
X106230253Y-73701402D01*
X106244867Y-73721107D01*
X106257480Y-73742151D01*
X106267970Y-73764329D01*
X106276235Y-73787429D01*
X106282196Y-73811227D01*
X106285796Y-73835496D01*
X106287000Y-73860000D01*
X106287000Y-74785000D01*
X106285796Y-74809504D01*
X106282196Y-74833773D01*
X106276235Y-74857571D01*
X106267970Y-74880671D01*
X106257480Y-74902849D01*
X106244867Y-74923893D01*
X106230253Y-74943598D01*
X106213777Y-74961777D01*
X106195598Y-74978253D01*
X106175893Y-74992867D01*
X106154849Y-75005480D01*
X106132671Y-75015970D01*
X106109571Y-75024235D01*
X106085773Y-75030196D01*
X106061504Y-75033796D01*
X106037000Y-75035000D01*
X103887000Y-75035000D01*
X103862496Y-75033796D01*
X103838227Y-75030196D01*
X103814429Y-75024235D01*
X103791329Y-75015970D01*
X103769151Y-75005480D01*
X103748107Y-74992867D01*
X103728402Y-74978253D01*
X103710223Y-74961777D01*
X103693747Y-74943598D01*
X103679133Y-74923893D01*
X103666520Y-74902849D01*
X103656030Y-74880671D01*
X103647765Y-74857571D01*
X103641804Y-74833773D01*
X103638204Y-74809504D01*
X103637000Y-74785000D01*
X103637000Y-73860000D01*
X103638204Y-73835496D01*
X103641804Y-73811227D01*
X103647765Y-73787429D01*
X103656030Y-73764329D01*
X103666520Y-73742151D01*
X103679133Y-73721107D01*
X103693747Y-73701402D01*
X103710223Y-73683223D01*
X103728402Y-73666747D01*
X103748107Y-73652133D01*
X103769151Y-73639520D01*
X103791329Y-73629030D01*
X103814429Y-73620765D01*
X103838227Y-73614804D01*
X103862496Y-73611204D01*
X103887000Y-73610000D01*
X106037000Y-73610000D01*
X106061504Y-73611204D01*
X106061504Y-73611204D01*
G37*
D14*
G04 #@! TD*
G04 #@! TO.P,C23,1*
G04 #@! TO.N,/48v*
X104962000Y-74322500D03*
D13*
G04 #@! TO.N,/48v*
G04 #@! TO.C,C24*
G36*
X100126504Y-73611204D02*
X100150773Y-73614804D01*
X100174571Y-73620765D01*
X100197671Y-73629030D01*
X100219849Y-73639520D01*
X100240893Y-73652133D01*
X100260598Y-73666747D01*
X100278777Y-73683223D01*
X100295253Y-73701402D01*
X100309867Y-73721107D01*
X100322480Y-73742151D01*
X100332970Y-73764329D01*
X100341235Y-73787429D01*
X100347196Y-73811227D01*
X100350796Y-73835496D01*
X100352000Y-73860000D01*
X100352000Y-74785000D01*
X100350796Y-74809504D01*
X100347196Y-74833773D01*
X100341235Y-74857571D01*
X100332970Y-74880671D01*
X100322480Y-74902849D01*
X100309867Y-74923893D01*
X100295253Y-74943598D01*
X100278777Y-74961777D01*
X100260598Y-74978253D01*
X100240893Y-74992867D01*
X100219849Y-75005480D01*
X100197671Y-75015970D01*
X100174571Y-75024235D01*
X100150773Y-75030196D01*
X100126504Y-75033796D01*
X100102000Y-75035000D01*
X98852000Y-75035000D01*
X98827496Y-75033796D01*
X98803227Y-75030196D01*
X98779429Y-75024235D01*
X98756329Y-75015970D01*
X98734151Y-75005480D01*
X98713107Y-74992867D01*
X98693402Y-74978253D01*
X98675223Y-74961777D01*
X98658747Y-74943598D01*
X98644133Y-74923893D01*
X98631520Y-74902849D01*
X98621030Y-74880671D01*
X98612765Y-74857571D01*
X98606804Y-74833773D01*
X98603204Y-74809504D01*
X98602000Y-74785000D01*
X98602000Y-73860000D01*
X98603204Y-73835496D01*
X98606804Y-73811227D01*
X98612765Y-73787429D01*
X98621030Y-73764329D01*
X98631520Y-73742151D01*
X98644133Y-73721107D01*
X98658747Y-73701402D01*
X98675223Y-73683223D01*
X98693402Y-73666747D01*
X98713107Y-73652133D01*
X98734151Y-73639520D01*
X98756329Y-73629030D01*
X98779429Y-73620765D01*
X98803227Y-73614804D01*
X98827496Y-73611204D01*
X98852000Y-73610000D01*
X100102000Y-73610000D01*
X100126504Y-73611204D01*
X100126504Y-73611204D01*
G37*
D14*
G04 #@! TD*
G04 #@! TO.P,C24,1*
G04 #@! TO.N,/48v*
X99477000Y-74322500D03*
D13*
G04 #@! TO.N,/GND*
G04 #@! TO.C,C24*
G36*
X100126504Y-70636204D02*
X100150773Y-70639804D01*
X100174571Y-70645765D01*
X100197671Y-70654030D01*
X100219849Y-70664520D01*
X100240893Y-70677133D01*
X100260598Y-70691747D01*
X100278777Y-70708223D01*
X100295253Y-70726402D01*
X100309867Y-70746107D01*
X100322480Y-70767151D01*
X100332970Y-70789329D01*
X100341235Y-70812429D01*
X100347196Y-70836227D01*
X100350796Y-70860496D01*
X100352000Y-70885000D01*
X100352000Y-71810000D01*
X100350796Y-71834504D01*
X100347196Y-71858773D01*
X100341235Y-71882571D01*
X100332970Y-71905671D01*
X100322480Y-71927849D01*
X100309867Y-71948893D01*
X100295253Y-71968598D01*
X100278777Y-71986777D01*
X100260598Y-72003253D01*
X100240893Y-72017867D01*
X100219849Y-72030480D01*
X100197671Y-72040970D01*
X100174571Y-72049235D01*
X100150773Y-72055196D01*
X100126504Y-72058796D01*
X100102000Y-72060000D01*
X98852000Y-72060000D01*
X98827496Y-72058796D01*
X98803227Y-72055196D01*
X98779429Y-72049235D01*
X98756329Y-72040970D01*
X98734151Y-72030480D01*
X98713107Y-72017867D01*
X98693402Y-72003253D01*
X98675223Y-71986777D01*
X98658747Y-71968598D01*
X98644133Y-71948893D01*
X98631520Y-71927849D01*
X98621030Y-71905671D01*
X98612765Y-71882571D01*
X98606804Y-71858773D01*
X98603204Y-71834504D01*
X98602000Y-71810000D01*
X98602000Y-70885000D01*
X98603204Y-70860496D01*
X98606804Y-70836227D01*
X98612765Y-70812429D01*
X98621030Y-70789329D01*
X98631520Y-70767151D01*
X98644133Y-70746107D01*
X98658747Y-70726402D01*
X98675223Y-70708223D01*
X98693402Y-70691747D01*
X98713107Y-70677133D01*
X98734151Y-70664520D01*
X98756329Y-70654030D01*
X98779429Y-70645765D01*
X98803227Y-70639804D01*
X98827496Y-70636204D01*
X98852000Y-70635000D01*
X100102000Y-70635000D01*
X100126504Y-70636204D01*
X100126504Y-70636204D01*
G37*
D14*
G04 #@! TD*
G04 #@! TO.P,C24,2*
G04 #@! TO.N,/GND*
X99477000Y-71347500D03*
D16*
G04 #@! TO.P,D1,2*
G04 #@! TO.N,/mosfets/HS_A_GATE*
X194056000Y-96742000D03*
D17*
G04 #@! TO.P,D1,1*
G04 #@! TO.N,/gatedrivers/HO_A*
X194056000Y-99117000D03*
G04 #@! TD*
G04 #@! TO.P,D2,1*
G04 #@! TO.N,/gatedrivers/LO_A*
X195580000Y-84131000D03*
D16*
G04 #@! TO.P,D2,2*
G04 #@! TO.N,Net-(D2-Pad2)*
X195580000Y-81756000D03*
G04 #@! TD*
D18*
G04 #@! TO.P,D3,1*
G04 #@! TO.N,/mosfets/HS_A_GATE*
X188214000Y-89791000D03*
G04 #@! TO.P,D3,2*
G04 #@! TO.N,/gatedrivers/PHASEA_SOURCE*
X188214000Y-84391000D03*
G04 #@! TD*
G04 #@! TO.P,D4,2*
G04 #@! TO.N,/GND*
X190250000Y-70925000D03*
G04 #@! TO.P,D4,1*
G04 #@! TO.N,Net-(D2-Pad2)*
X190250000Y-76325000D03*
G04 #@! TD*
D17*
G04 #@! TO.P,D5,1*
G04 #@! TO.N,/gatedrivers/HO_B*
X146812000Y-104959000D03*
D16*
G04 #@! TO.P,D5,2*
G04 #@! TO.N,Net-(D5-Pad2)*
X146812000Y-102584000D03*
G04 #@! TD*
G04 #@! TO.P,D6,2*
G04 #@! TO.N,Net-(D6-Pad2)*
X158623000Y-101314000D03*
D17*
G04 #@! TO.P,D6,1*
G04 #@! TO.N,/gatedrivers/LO_B*
X158623000Y-103689000D03*
G04 #@! TD*
D19*
G04 #@! TO.P,D7,1*
G04 #@! TO.N,Net-(D5-Pad2)*
X160307000Y-92171000D03*
G04 #@! TO.P,D7,2*
G04 #@! TO.N,/gatedrivers/PHASEB_SOURCE*
X154907000Y-92171000D03*
G04 #@! TD*
G04 #@! TO.P,D8,2*
G04 #@! TO.N,/GND*
X155796000Y-78963000D03*
G04 #@! TO.P,D8,1*
G04 #@! TO.N,Net-(D6-Pad2)*
X161196000Y-78963000D03*
G04 #@! TD*
D16*
G04 #@! TO.P,D9,2*
G04 #@! TO.N,Net-(D11-Pad1)*
X107675000Y-103025000D03*
D17*
G04 #@! TO.P,D9,1*
G04 #@! TO.N,/gatedrivers/HO_C*
X107675000Y-105400000D03*
G04 #@! TD*
G04 #@! TO.P,D10,1*
G04 #@! TO.N,/gatedrivers/LO_C*
X133858000Y-96704000D03*
D16*
G04 #@! TO.P,D10,2*
G04 #@! TO.N,Net-(D10-Pad2)*
X133858000Y-94329000D03*
G04 #@! TD*
D19*
G04 #@! TO.P,D11,1*
G04 #@! TO.N,Net-(D11-Pad1)*
X117188000Y-96616000D03*
G04 #@! TO.P,D11,2*
G04 #@! TO.N,/gatedrivers/PHASEC_SOURCE*
X122588000Y-96616000D03*
G04 #@! TD*
D18*
G04 #@! TO.P,D12,2*
G04 #@! TO.N,/GND*
X129794000Y-79311000D03*
G04 #@! TO.P,D12,1*
G04 #@! TO.N,Net-(D10-Pad2)*
X129794000Y-84711000D03*
G04 #@! TD*
D20*
G04 #@! TO.P,J1,1*
G04 #@! TO.N,/48v*
X70325000Y-51850000D03*
X74125000Y-51850000D03*
X70325000Y-64350000D03*
X74125000Y-64350000D03*
G04 #@! TD*
G04 #@! TO.P,J2,1*
G04 #@! TO.N,/GND*
X92850000Y-64350000D03*
X89050000Y-64350000D03*
X92850000Y-51850000D03*
X89050000Y-51850000D03*
G04 #@! TD*
D21*
G04 #@! TO.P,J3,1*
G04 #@! TO.N,/48v*
X88138000Y-108966000D03*
D22*
G04 #@! TO.P,J3,2*
G04 #@! TO.N,/5v*
X85598000Y-108966000D03*
G04 #@! TO.P,J3,3*
G04 #@! TO.N,/12v*
X88138000Y-111506000D03*
G04 #@! TO.P,J3,4*
G04 #@! TO.N,/GND*
X85598000Y-111506000D03*
G04 #@! TO.P,J3,5*
G04 #@! TO.N,/PHASEA_FB*
X88138000Y-114046000D03*
G04 #@! TO.P,J3,6*
G04 #@! TO.N,/PHASEB_FB*
X85598000Y-114046000D03*
G04 #@! TO.P,J3,7*
G04 #@! TO.N,Net-(J3-Pad7)*
X88138000Y-116586000D03*
G04 #@! TO.P,J3,8*
G04 #@! TO.N,Net-(J3-Pad8)*
X85598000Y-116586000D03*
G04 #@! TO.P,J3,9*
G04 #@! TO.N,/LS_C_TTL_PWM*
X88138000Y-119126000D03*
G04 #@! TO.P,J3,10*
G04 #@! TO.N,/HS_C_TTL_PWM*
X85598000Y-119126000D03*
G04 #@! TO.P,J3,11*
G04 #@! TO.N,/LS_B_TTL_PWM*
X88138000Y-121666000D03*
G04 #@! TO.P,J3,12*
G04 #@! TO.N,/HS_B_TTL_PWM*
X85598000Y-121666000D03*
G04 #@! TO.P,J3,13*
G04 #@! TO.N,/LS_A_TTL_PWM*
X88138000Y-124206000D03*
G04 #@! TO.P,J3,14*
G04 #@! TO.N,/HS_A_TTL_PWM*
X85598000Y-124206000D03*
G04 #@! TD*
D20*
G04 #@! TO.P,J4,1*
G04 #@! TO.N,/PHASE_A*
X180975000Y-44880000D03*
X184975000Y-44880000D03*
G04 #@! TD*
G04 #@! TO.P,J5,1*
G04 #@! TO.N,/PHASE_B*
X160337000Y-44880000D03*
X156337000Y-44880000D03*
G04 #@! TD*
G04 #@! TO.P,J6,1*
G04 #@! TO.N,/PHASE_C*
X130810000Y-44880000D03*
X134810000Y-44880000D03*
G04 #@! TD*
D23*
G04 #@! TO.P,M1,4*
G04 #@! TO.N,/48v*
X176276000Y-92716000D03*
D24*
G04 #@! TO.P,M1,7*
G04 #@! TO.N,/gatedrivers/PHASEA_SOURCE*
X172466000Y-83566000D03*
G04 #@! TO.P,M1,6*
X173736000Y-83566000D03*
G04 #@! TO.P,M1,5*
X175006000Y-83566000D03*
G04 #@! TO.P,M1,3*
X177546000Y-83566000D03*
G04 #@! TO.P,M1,2*
X178816000Y-83566000D03*
G04 #@! TO.P,M1,1*
G04 #@! TO.N,/mosfets/HS_A_GATE*
X180086000Y-83566000D03*
G04 #@! TD*
D25*
G04 #@! TO.P,M2,4*
G04 #@! TO.N,/gatedrivers/PHASEA_SOURCE*
X172901000Y-70454000D03*
D26*
G04 #@! TO.P,M2,7*
G04 #@! TO.N,/GND*
X182051000Y-66644000D03*
G04 #@! TO.P,M2,6*
X182051000Y-67914000D03*
G04 #@! TO.P,M2,5*
X182051000Y-69184000D03*
G04 #@! TO.P,M2,3*
X182051000Y-71724000D03*
G04 #@! TO.P,M2,2*
X182051000Y-72994000D03*
G04 #@! TO.P,M2,1*
G04 #@! TO.N,Net-(D2-Pad2)*
X182051000Y-74264000D03*
G04 #@! TD*
D24*
G04 #@! TO.P,M3,1*
G04 #@! TO.N,Net-(D5-Pad2)*
X148844000Y-83729000D03*
G04 #@! TO.P,M3,2*
G04 #@! TO.N,/gatedrivers/PHASEB_SOURCE*
X147574000Y-83729000D03*
G04 #@! TO.P,M3,3*
X146304000Y-83729000D03*
G04 #@! TO.P,M3,5*
X143764000Y-83729000D03*
G04 #@! TO.P,M3,6*
X142494000Y-83729000D03*
G04 #@! TO.P,M3,7*
X141224000Y-83729000D03*
D23*
G04 #@! TO.P,M3,4*
G04 #@! TO.N,/48v*
X145034000Y-92879000D03*
G04 #@! TD*
D25*
G04 #@! TO.P,M4,4*
G04 #@! TO.N,/gatedrivers/PHASEB_SOURCE*
X146673000Y-70435000D03*
D26*
G04 #@! TO.P,M4,7*
G04 #@! TO.N,/GND*
X155823000Y-66625000D03*
G04 #@! TO.P,M4,6*
X155823000Y-67895000D03*
G04 #@! TO.P,M4,5*
X155823000Y-69165000D03*
G04 #@! TO.P,M4,3*
X155823000Y-71705000D03*
G04 #@! TO.P,M4,2*
X155823000Y-72975000D03*
G04 #@! TO.P,M4,1*
G04 #@! TO.N,Net-(D6-Pad2)*
X155823000Y-74245000D03*
G04 #@! TD*
G04 #@! TO.P,M5,1*
G04 #@! TO.N,Net-(D11-Pad1)*
X117475000Y-89285000D03*
G04 #@! TO.P,M5,2*
G04 #@! TO.N,/gatedrivers/PHASEC_SOURCE*
X117475000Y-88015000D03*
G04 #@! TO.P,M5,3*
X117475000Y-86745000D03*
G04 #@! TO.P,M5,5*
X117475000Y-84205000D03*
G04 #@! TO.P,M5,6*
X117475000Y-82935000D03*
G04 #@! TO.P,M5,7*
X117475000Y-81665000D03*
D25*
G04 #@! TO.P,M5,4*
G04 #@! TO.N,/48v*
X108325000Y-85475000D03*
G04 #@! TD*
D26*
G04 #@! TO.P,M6,1*
G04 #@! TO.N,Net-(D10-Pad2)*
X130235000Y-74264000D03*
G04 #@! TO.P,M6,2*
G04 #@! TO.N,/GND*
X130235000Y-72994000D03*
G04 #@! TO.P,M6,3*
X130235000Y-71724000D03*
G04 #@! TO.P,M6,5*
X130235000Y-69184000D03*
G04 #@! TO.P,M6,6*
X130235000Y-67914000D03*
G04 #@! TO.P,M6,7*
X130235000Y-66644000D03*
D25*
G04 #@! TO.P,M6,4*
G04 #@! TO.N,/gatedrivers/PHASEC_SOURCE*
X121085000Y-70454000D03*
G04 #@! TD*
D13*
G04 #@! TO.N,/gatedrivers/HO_A*
G04 #@! TO.C,R1*
G36*
X189790505Y-101001204D02*
X189814773Y-101004804D01*
X189838572Y-101010765D01*
X189861671Y-101019030D01*
X189883850Y-101029520D01*
X189904893Y-101042132D01*
X189924599Y-101056747D01*
X189942777Y-101073223D01*
X189959253Y-101091401D01*
X189973868Y-101111107D01*
X189986480Y-101132150D01*
X189996970Y-101154329D01*
X190005235Y-101177428D01*
X190011196Y-101201227D01*
X190014796Y-101225495D01*
X190016000Y-101249999D01*
X190016000Y-102275001D01*
X190014796Y-102299505D01*
X190011196Y-102323773D01*
X190005235Y-102347572D01*
X189996970Y-102370671D01*
X189986480Y-102392850D01*
X189973868Y-102413893D01*
X189959253Y-102433599D01*
X189942777Y-102451777D01*
X189924599Y-102468253D01*
X189904893Y-102482868D01*
X189883850Y-102495480D01*
X189861671Y-102505970D01*
X189838572Y-102514235D01*
X189814773Y-102520196D01*
X189790505Y-102523796D01*
X189766001Y-102525000D01*
X186915999Y-102525000D01*
X186891495Y-102523796D01*
X186867227Y-102520196D01*
X186843428Y-102514235D01*
X186820329Y-102505970D01*
X186798150Y-102495480D01*
X186777107Y-102482868D01*
X186757401Y-102468253D01*
X186739223Y-102451777D01*
X186722747Y-102433599D01*
X186708132Y-102413893D01*
X186695520Y-102392850D01*
X186685030Y-102370671D01*
X186676765Y-102347572D01*
X186670804Y-102323773D01*
X186667204Y-102299505D01*
X186666000Y-102275001D01*
X186666000Y-101249999D01*
X186667204Y-101225495D01*
X186670804Y-101201227D01*
X186676765Y-101177428D01*
X186685030Y-101154329D01*
X186695520Y-101132150D01*
X186708132Y-101111107D01*
X186722747Y-101091401D01*
X186739223Y-101073223D01*
X186757401Y-101056747D01*
X186777107Y-101042132D01*
X186798150Y-101029520D01*
X186820329Y-101019030D01*
X186843428Y-101010765D01*
X186867227Y-101004804D01*
X186891495Y-101001204D01*
X186915999Y-101000000D01*
X189766001Y-101000000D01*
X189790505Y-101001204D01*
X189790505Y-101001204D01*
G37*
D27*
G04 #@! TD*
G04 #@! TO.P,R1,2*
G04 #@! TO.N,/gatedrivers/HO_A*
X188341000Y-101762500D03*
D13*
G04 #@! TO.N,/mosfets/HS_A_GATE*
G04 #@! TO.C,R1*
G36*
X189790505Y-95026204D02*
X189814773Y-95029804D01*
X189838572Y-95035765D01*
X189861671Y-95044030D01*
X189883850Y-95054520D01*
X189904893Y-95067132D01*
X189924599Y-95081747D01*
X189942777Y-95098223D01*
X189959253Y-95116401D01*
X189973868Y-95136107D01*
X189986480Y-95157150D01*
X189996970Y-95179329D01*
X190005235Y-95202428D01*
X190011196Y-95226227D01*
X190014796Y-95250495D01*
X190016000Y-95274999D01*
X190016000Y-96300001D01*
X190014796Y-96324505D01*
X190011196Y-96348773D01*
X190005235Y-96372572D01*
X189996970Y-96395671D01*
X189986480Y-96417850D01*
X189973868Y-96438893D01*
X189959253Y-96458599D01*
X189942777Y-96476777D01*
X189924599Y-96493253D01*
X189904893Y-96507868D01*
X189883850Y-96520480D01*
X189861671Y-96530970D01*
X189838572Y-96539235D01*
X189814773Y-96545196D01*
X189790505Y-96548796D01*
X189766001Y-96550000D01*
X186915999Y-96550000D01*
X186891495Y-96548796D01*
X186867227Y-96545196D01*
X186843428Y-96539235D01*
X186820329Y-96530970D01*
X186798150Y-96520480D01*
X186777107Y-96507868D01*
X186757401Y-96493253D01*
X186739223Y-96476777D01*
X186722747Y-96458599D01*
X186708132Y-96438893D01*
X186695520Y-96417850D01*
X186685030Y-96395671D01*
X186676765Y-96372572D01*
X186670804Y-96348773D01*
X186667204Y-96324505D01*
X186666000Y-96300001D01*
X186666000Y-95274999D01*
X186667204Y-95250495D01*
X186670804Y-95226227D01*
X186676765Y-95202428D01*
X186685030Y-95179329D01*
X186695520Y-95157150D01*
X186708132Y-95136107D01*
X186722747Y-95116401D01*
X186739223Y-95098223D01*
X186757401Y-95081747D01*
X186777107Y-95067132D01*
X186798150Y-95054520D01*
X186820329Y-95044030D01*
X186843428Y-95035765D01*
X186867227Y-95029804D01*
X186891495Y-95026204D01*
X186915999Y-95025000D01*
X189766001Y-95025000D01*
X189790505Y-95026204D01*
X189790505Y-95026204D01*
G37*
D27*
G04 #@! TD*
G04 #@! TO.P,R1,1*
G04 #@! TO.N,/mosfets/HS_A_GATE*
X188341000Y-95787500D03*
D13*
G04 #@! TO.N,Net-(D2-Pad2)*
G04 #@! TO.C,R2*
G36*
X202109505Y-83342204D02*
X202133773Y-83345804D01*
X202157572Y-83351765D01*
X202180671Y-83360030D01*
X202202850Y-83370520D01*
X202223893Y-83383132D01*
X202243599Y-83397747D01*
X202261777Y-83414223D01*
X202278253Y-83432401D01*
X202292868Y-83452107D01*
X202305480Y-83473150D01*
X202315970Y-83495329D01*
X202324235Y-83518428D01*
X202330196Y-83542227D01*
X202333796Y-83566495D01*
X202335000Y-83590999D01*
X202335000Y-84616001D01*
X202333796Y-84640505D01*
X202330196Y-84664773D01*
X202324235Y-84688572D01*
X202315970Y-84711671D01*
X202305480Y-84733850D01*
X202292868Y-84754893D01*
X202278253Y-84774599D01*
X202261777Y-84792777D01*
X202243599Y-84809253D01*
X202223893Y-84823868D01*
X202202850Y-84836480D01*
X202180671Y-84846970D01*
X202157572Y-84855235D01*
X202133773Y-84861196D01*
X202109505Y-84864796D01*
X202085001Y-84866000D01*
X199234999Y-84866000D01*
X199210495Y-84864796D01*
X199186227Y-84861196D01*
X199162428Y-84855235D01*
X199139329Y-84846970D01*
X199117150Y-84836480D01*
X199096107Y-84823868D01*
X199076401Y-84809253D01*
X199058223Y-84792777D01*
X199041747Y-84774599D01*
X199027132Y-84754893D01*
X199014520Y-84733850D01*
X199004030Y-84711671D01*
X198995765Y-84688572D01*
X198989804Y-84664773D01*
X198986204Y-84640505D01*
X198985000Y-84616001D01*
X198985000Y-83590999D01*
X198986204Y-83566495D01*
X198989804Y-83542227D01*
X198995765Y-83518428D01*
X199004030Y-83495329D01*
X199014520Y-83473150D01*
X199027132Y-83452107D01*
X199041747Y-83432401D01*
X199058223Y-83414223D01*
X199076401Y-83397747D01*
X199096107Y-83383132D01*
X199117150Y-83370520D01*
X199139329Y-83360030D01*
X199162428Y-83351765D01*
X199186227Y-83345804D01*
X199210495Y-83342204D01*
X199234999Y-83341000D01*
X202085001Y-83341000D01*
X202109505Y-83342204D01*
X202109505Y-83342204D01*
G37*
D27*
G04 #@! TD*
G04 #@! TO.P,R2,1*
G04 #@! TO.N,Net-(D2-Pad2)*
X200660000Y-84103500D03*
D13*
G04 #@! TO.N,/gatedrivers/LO_A*
G04 #@! TO.C,R2*
G36*
X202109505Y-89317204D02*
X202133773Y-89320804D01*
X202157572Y-89326765D01*
X202180671Y-89335030D01*
X202202850Y-89345520D01*
X202223893Y-89358132D01*
X202243599Y-89372747D01*
X202261777Y-89389223D01*
X202278253Y-89407401D01*
X202292868Y-89427107D01*
X202305480Y-89448150D01*
X202315970Y-89470329D01*
X202324235Y-89493428D01*
X202330196Y-89517227D01*
X202333796Y-89541495D01*
X202335000Y-89565999D01*
X202335000Y-90591001D01*
X202333796Y-90615505D01*
X202330196Y-90639773D01*
X202324235Y-90663572D01*
X202315970Y-90686671D01*
X202305480Y-90708850D01*
X202292868Y-90729893D01*
X202278253Y-90749599D01*
X202261777Y-90767777D01*
X202243599Y-90784253D01*
X202223893Y-90798868D01*
X202202850Y-90811480D01*
X202180671Y-90821970D01*
X202157572Y-90830235D01*
X202133773Y-90836196D01*
X202109505Y-90839796D01*
X202085001Y-90841000D01*
X199234999Y-90841000D01*
X199210495Y-90839796D01*
X199186227Y-90836196D01*
X199162428Y-90830235D01*
X199139329Y-90821970D01*
X199117150Y-90811480D01*
X199096107Y-90798868D01*
X199076401Y-90784253D01*
X199058223Y-90767777D01*
X199041747Y-90749599D01*
X199027132Y-90729893D01*
X199014520Y-90708850D01*
X199004030Y-90686671D01*
X198995765Y-90663572D01*
X198989804Y-90639773D01*
X198986204Y-90615505D01*
X198985000Y-90591001D01*
X198985000Y-89565999D01*
X198986204Y-89541495D01*
X198989804Y-89517227D01*
X198995765Y-89493428D01*
X199004030Y-89470329D01*
X199014520Y-89448150D01*
X199027132Y-89427107D01*
X199041747Y-89407401D01*
X199058223Y-89389223D01*
X199076401Y-89372747D01*
X199096107Y-89358132D01*
X199117150Y-89345520D01*
X199139329Y-89335030D01*
X199162428Y-89326765D01*
X199186227Y-89320804D01*
X199210495Y-89317204D01*
X199234999Y-89316000D01*
X202085001Y-89316000D01*
X202109505Y-89317204D01*
X202109505Y-89317204D01*
G37*
D27*
G04 #@! TD*
G04 #@! TO.P,R2,2*
G04 #@! TO.N,/gatedrivers/LO_A*
X200660000Y-90078500D03*
D13*
G04 #@! TO.N,/mosfets/HS_A_GATE*
G04 #@! TO.C,R3*
G36*
X194705504Y-90788204D02*
X194729773Y-90791804D01*
X194753571Y-90797765D01*
X194776671Y-90806030D01*
X194798849Y-90816520D01*
X194819893Y-90829133D01*
X194839598Y-90843747D01*
X194857777Y-90860223D01*
X194874253Y-90878402D01*
X194888867Y-90898107D01*
X194901480Y-90919151D01*
X194911970Y-90941329D01*
X194920235Y-90964429D01*
X194926196Y-90988227D01*
X194929796Y-91012496D01*
X194931000Y-91037000D01*
X194931000Y-91962000D01*
X194929796Y-91986504D01*
X194926196Y-92010773D01*
X194920235Y-92034571D01*
X194911970Y-92057671D01*
X194901480Y-92079849D01*
X194888867Y-92100893D01*
X194874253Y-92120598D01*
X194857777Y-92138777D01*
X194839598Y-92155253D01*
X194819893Y-92169867D01*
X194798849Y-92182480D01*
X194776671Y-92192970D01*
X194753571Y-92201235D01*
X194729773Y-92207196D01*
X194705504Y-92210796D01*
X194681000Y-92212000D01*
X193431000Y-92212000D01*
X193406496Y-92210796D01*
X193382227Y-92207196D01*
X193358429Y-92201235D01*
X193335329Y-92192970D01*
X193313151Y-92182480D01*
X193292107Y-92169867D01*
X193272402Y-92155253D01*
X193254223Y-92138777D01*
X193237747Y-92120598D01*
X193223133Y-92100893D01*
X193210520Y-92079849D01*
X193200030Y-92057671D01*
X193191765Y-92034571D01*
X193185804Y-92010773D01*
X193182204Y-91986504D01*
X193181000Y-91962000D01*
X193181000Y-91037000D01*
X193182204Y-91012496D01*
X193185804Y-90988227D01*
X193191765Y-90964429D01*
X193200030Y-90941329D01*
X193210520Y-90919151D01*
X193223133Y-90898107D01*
X193237747Y-90878402D01*
X193254223Y-90860223D01*
X193272402Y-90843747D01*
X193292107Y-90829133D01*
X193313151Y-90816520D01*
X193335329Y-90806030D01*
X193358429Y-90797765D01*
X193382227Y-90791804D01*
X193406496Y-90788204D01*
X193431000Y-90787000D01*
X194681000Y-90787000D01*
X194705504Y-90788204D01*
X194705504Y-90788204D01*
G37*
D14*
G04 #@! TD*
G04 #@! TO.P,R3,2*
G04 #@! TO.N,/mosfets/HS_A_GATE*
X194056000Y-91499500D03*
D13*
G04 #@! TO.N,/gatedrivers/PHASEA_SOURCE*
G04 #@! TO.C,R3*
G36*
X194705504Y-87813204D02*
X194729773Y-87816804D01*
X194753571Y-87822765D01*
X194776671Y-87831030D01*
X194798849Y-87841520D01*
X194819893Y-87854133D01*
X194839598Y-87868747D01*
X194857777Y-87885223D01*
X194874253Y-87903402D01*
X194888867Y-87923107D01*
X194901480Y-87944151D01*
X194911970Y-87966329D01*
X194920235Y-87989429D01*
X194926196Y-88013227D01*
X194929796Y-88037496D01*
X194931000Y-88062000D01*
X194931000Y-88987000D01*
X194929796Y-89011504D01*
X194926196Y-89035773D01*
X194920235Y-89059571D01*
X194911970Y-89082671D01*
X194901480Y-89104849D01*
X194888867Y-89125893D01*
X194874253Y-89145598D01*
X194857777Y-89163777D01*
X194839598Y-89180253D01*
X194819893Y-89194867D01*
X194798849Y-89207480D01*
X194776671Y-89217970D01*
X194753571Y-89226235D01*
X194729773Y-89232196D01*
X194705504Y-89235796D01*
X194681000Y-89237000D01*
X193431000Y-89237000D01*
X193406496Y-89235796D01*
X193382227Y-89232196D01*
X193358429Y-89226235D01*
X193335329Y-89217970D01*
X193313151Y-89207480D01*
X193292107Y-89194867D01*
X193272402Y-89180253D01*
X193254223Y-89163777D01*
X193237747Y-89145598D01*
X193223133Y-89125893D01*
X193210520Y-89104849D01*
X193200030Y-89082671D01*
X193191765Y-89059571D01*
X193185804Y-89035773D01*
X193182204Y-89011504D01*
X193181000Y-88987000D01*
X193181000Y-88062000D01*
X193182204Y-88037496D01*
X193185804Y-88013227D01*
X193191765Y-87989429D01*
X193200030Y-87966329D01*
X193210520Y-87944151D01*
X193223133Y-87923107D01*
X193237747Y-87903402D01*
X193254223Y-87885223D01*
X193272402Y-87868747D01*
X193292107Y-87854133D01*
X193313151Y-87841520D01*
X193335329Y-87831030D01*
X193358429Y-87822765D01*
X193382227Y-87816804D01*
X193406496Y-87813204D01*
X193431000Y-87812000D01*
X194681000Y-87812000D01*
X194705504Y-87813204D01*
X194705504Y-87813204D01*
G37*
D14*
G04 #@! TD*
G04 #@! TO.P,R3,1*
G04 #@! TO.N,/gatedrivers/PHASEA_SOURCE*
X194056000Y-88524500D03*
D13*
G04 #@! TO.N,/GND*
G04 #@! TO.C,R4*
G36*
X196737504Y-73747204D02*
X196761773Y-73750804D01*
X196785571Y-73756765D01*
X196808671Y-73765030D01*
X196830849Y-73775520D01*
X196851893Y-73788133D01*
X196871598Y-73802747D01*
X196889777Y-73819223D01*
X196906253Y-73837402D01*
X196920867Y-73857107D01*
X196933480Y-73878151D01*
X196943970Y-73900329D01*
X196952235Y-73923429D01*
X196958196Y-73947227D01*
X196961796Y-73971496D01*
X196963000Y-73996000D01*
X196963000Y-74921000D01*
X196961796Y-74945504D01*
X196958196Y-74969773D01*
X196952235Y-74993571D01*
X196943970Y-75016671D01*
X196933480Y-75038849D01*
X196920867Y-75059893D01*
X196906253Y-75079598D01*
X196889777Y-75097777D01*
X196871598Y-75114253D01*
X196851893Y-75128867D01*
X196830849Y-75141480D01*
X196808671Y-75151970D01*
X196785571Y-75160235D01*
X196761773Y-75166196D01*
X196737504Y-75169796D01*
X196713000Y-75171000D01*
X195463000Y-75171000D01*
X195438496Y-75169796D01*
X195414227Y-75166196D01*
X195390429Y-75160235D01*
X195367329Y-75151970D01*
X195345151Y-75141480D01*
X195324107Y-75128867D01*
X195304402Y-75114253D01*
X195286223Y-75097777D01*
X195269747Y-75079598D01*
X195255133Y-75059893D01*
X195242520Y-75038849D01*
X195232030Y-75016671D01*
X195223765Y-74993571D01*
X195217804Y-74969773D01*
X195214204Y-74945504D01*
X195213000Y-74921000D01*
X195213000Y-73996000D01*
X195214204Y-73971496D01*
X195217804Y-73947227D01*
X195223765Y-73923429D01*
X195232030Y-73900329D01*
X195242520Y-73878151D01*
X195255133Y-73857107D01*
X195269747Y-73837402D01*
X195286223Y-73819223D01*
X195304402Y-73802747D01*
X195324107Y-73788133D01*
X195345151Y-73775520D01*
X195367329Y-73765030D01*
X195390429Y-73756765D01*
X195414227Y-73750804D01*
X195438496Y-73747204D01*
X195463000Y-73746000D01*
X196713000Y-73746000D01*
X196737504Y-73747204D01*
X196737504Y-73747204D01*
G37*
D14*
G04 #@! TD*
G04 #@! TO.P,R4,1*
G04 #@! TO.N,/GND*
X196088000Y-74458500D03*
D13*
G04 #@! TO.N,Net-(D2-Pad2)*
G04 #@! TO.C,R4*
G36*
X196737504Y-76722204D02*
X196761773Y-76725804D01*
X196785571Y-76731765D01*
X196808671Y-76740030D01*
X196830849Y-76750520D01*
X196851893Y-76763133D01*
X196871598Y-76777747D01*
X196889777Y-76794223D01*
X196906253Y-76812402D01*
X196920867Y-76832107D01*
X196933480Y-76853151D01*
X196943970Y-76875329D01*
X196952235Y-76898429D01*
X196958196Y-76922227D01*
X196961796Y-76946496D01*
X196963000Y-76971000D01*
X196963000Y-77896000D01*
X196961796Y-77920504D01*
X196958196Y-77944773D01*
X196952235Y-77968571D01*
X196943970Y-77991671D01*
X196933480Y-78013849D01*
X196920867Y-78034893D01*
X196906253Y-78054598D01*
X196889777Y-78072777D01*
X196871598Y-78089253D01*
X196851893Y-78103867D01*
X196830849Y-78116480D01*
X196808671Y-78126970D01*
X196785571Y-78135235D01*
X196761773Y-78141196D01*
X196737504Y-78144796D01*
X196713000Y-78146000D01*
X195463000Y-78146000D01*
X195438496Y-78144796D01*
X195414227Y-78141196D01*
X195390429Y-78135235D01*
X195367329Y-78126970D01*
X195345151Y-78116480D01*
X195324107Y-78103867D01*
X195304402Y-78089253D01*
X195286223Y-78072777D01*
X195269747Y-78054598D01*
X195255133Y-78034893D01*
X195242520Y-78013849D01*
X195232030Y-77991671D01*
X195223765Y-77968571D01*
X195217804Y-77944773D01*
X195214204Y-77920504D01*
X195213000Y-77896000D01*
X195213000Y-76971000D01*
X195214204Y-76946496D01*
X195217804Y-76922227D01*
X195223765Y-76898429D01*
X195232030Y-76875329D01*
X195242520Y-76853151D01*
X195255133Y-76832107D01*
X195269747Y-76812402D01*
X195286223Y-76794223D01*
X195304402Y-76777747D01*
X195324107Y-76763133D01*
X195345151Y-76750520D01*
X195367329Y-76740030D01*
X195390429Y-76731765D01*
X195414227Y-76725804D01*
X195438496Y-76722204D01*
X195463000Y-76721000D01*
X196713000Y-76721000D01*
X196737504Y-76722204D01*
X196737504Y-76722204D01*
G37*
D14*
G04 #@! TD*
G04 #@! TO.P,R4,2*
G04 #@! TO.N,Net-(D2-Pad2)*
X196088000Y-77433500D03*
D13*
G04 #@! TO.N,/gatedrivers/PHASEA_SOURCE*
G04 #@! TO.C,R5*
G36*
X172645505Y-51756204D02*
X172669773Y-51759804D01*
X172693572Y-51765765D01*
X172716671Y-51774030D01*
X172738850Y-51784520D01*
X172759893Y-51797132D01*
X172779599Y-51811747D01*
X172797777Y-51828223D01*
X172814253Y-51846401D01*
X172828868Y-51866107D01*
X172841480Y-51887150D01*
X172851970Y-51909329D01*
X172860235Y-51932428D01*
X172866196Y-51956227D01*
X172869796Y-51980495D01*
X172871000Y-52004999D01*
X172871000Y-53030001D01*
X172869796Y-53054505D01*
X172866196Y-53078773D01*
X172860235Y-53102572D01*
X172851970Y-53125671D01*
X172841480Y-53147850D01*
X172828868Y-53168893D01*
X172814253Y-53188599D01*
X172797777Y-53206777D01*
X172779599Y-53223253D01*
X172759893Y-53237868D01*
X172738850Y-53250480D01*
X172716671Y-53260970D01*
X172693572Y-53269235D01*
X172669773Y-53275196D01*
X172645505Y-53278796D01*
X172621001Y-53280000D01*
X169770999Y-53280000D01*
X169746495Y-53278796D01*
X169722227Y-53275196D01*
X169698428Y-53269235D01*
X169675329Y-53260970D01*
X169653150Y-53250480D01*
X169632107Y-53237868D01*
X169612401Y-53223253D01*
X169594223Y-53206777D01*
X169577747Y-53188599D01*
X169563132Y-53168893D01*
X169550520Y-53147850D01*
X169540030Y-53125671D01*
X169531765Y-53102572D01*
X169525804Y-53078773D01*
X169522204Y-53054505D01*
X169521000Y-53030001D01*
X169521000Y-52004999D01*
X169522204Y-51980495D01*
X169525804Y-51956227D01*
X169531765Y-51932428D01*
X169540030Y-51909329D01*
X169550520Y-51887150D01*
X169563132Y-51866107D01*
X169577747Y-51846401D01*
X169594223Y-51828223D01*
X169612401Y-51811747D01*
X169632107Y-51797132D01*
X169653150Y-51784520D01*
X169675329Y-51774030D01*
X169698428Y-51765765D01*
X169722227Y-51759804D01*
X169746495Y-51756204D01*
X169770999Y-51755000D01*
X172621001Y-51755000D01*
X172645505Y-51756204D01*
X172645505Y-51756204D01*
G37*
D27*
G04 #@! TD*
G04 #@! TO.P,R5,2*
G04 #@! TO.N,/gatedrivers/PHASEA_SOURCE*
X171196000Y-52517500D03*
D13*
G04 #@! TO.N,/PHASE_A*
G04 #@! TO.C,R5*
G36*
X172645505Y-45781204D02*
X172669773Y-45784804D01*
X172693572Y-45790765D01*
X172716671Y-45799030D01*
X172738850Y-45809520D01*
X172759893Y-45822132D01*
X172779599Y-45836747D01*
X172797777Y-45853223D01*
X172814253Y-45871401D01*
X172828868Y-45891107D01*
X172841480Y-45912150D01*
X172851970Y-45934329D01*
X172860235Y-45957428D01*
X172866196Y-45981227D01*
X172869796Y-46005495D01*
X172871000Y-46029999D01*
X172871000Y-47055001D01*
X172869796Y-47079505D01*
X172866196Y-47103773D01*
X172860235Y-47127572D01*
X172851970Y-47150671D01*
X172841480Y-47172850D01*
X172828868Y-47193893D01*
X172814253Y-47213599D01*
X172797777Y-47231777D01*
X172779599Y-47248253D01*
X172759893Y-47262868D01*
X172738850Y-47275480D01*
X172716671Y-47285970D01*
X172693572Y-47294235D01*
X172669773Y-47300196D01*
X172645505Y-47303796D01*
X172621001Y-47305000D01*
X169770999Y-47305000D01*
X169746495Y-47303796D01*
X169722227Y-47300196D01*
X169698428Y-47294235D01*
X169675329Y-47285970D01*
X169653150Y-47275480D01*
X169632107Y-47262868D01*
X169612401Y-47248253D01*
X169594223Y-47231777D01*
X169577747Y-47213599D01*
X169563132Y-47193893D01*
X169550520Y-47172850D01*
X169540030Y-47150671D01*
X169531765Y-47127572D01*
X169525804Y-47103773D01*
X169522204Y-47079505D01*
X169521000Y-47055001D01*
X169521000Y-46029999D01*
X169522204Y-46005495D01*
X169525804Y-45981227D01*
X169531765Y-45957428D01*
X169540030Y-45934329D01*
X169550520Y-45912150D01*
X169563132Y-45891107D01*
X169577747Y-45871401D01*
X169594223Y-45853223D01*
X169612401Y-45836747D01*
X169632107Y-45822132D01*
X169653150Y-45809520D01*
X169675329Y-45799030D01*
X169698428Y-45790765D01*
X169722227Y-45784804D01*
X169746495Y-45781204D01*
X169770999Y-45780000D01*
X172621001Y-45780000D01*
X172645505Y-45781204D01*
X172645505Y-45781204D01*
G37*
D27*
G04 #@! TD*
G04 #@! TO.P,R5,1*
G04 #@! TO.N,/PHASE_A*
X171196000Y-46542500D03*
D13*
G04 #@! TO.N,/gatedrivers/HO_B*
G04 #@! TO.C,R6*
G36*
X154611505Y-106081204D02*
X154635773Y-106084804D01*
X154659572Y-106090765D01*
X154682671Y-106099030D01*
X154704850Y-106109520D01*
X154725893Y-106122132D01*
X154745599Y-106136747D01*
X154763777Y-106153223D01*
X154780253Y-106171401D01*
X154794868Y-106191107D01*
X154807480Y-106212150D01*
X154817970Y-106234329D01*
X154826235Y-106257428D01*
X154832196Y-106281227D01*
X154835796Y-106305495D01*
X154837000Y-106329999D01*
X154837000Y-107355001D01*
X154835796Y-107379505D01*
X154832196Y-107403773D01*
X154826235Y-107427572D01*
X154817970Y-107450671D01*
X154807480Y-107472850D01*
X154794868Y-107493893D01*
X154780253Y-107513599D01*
X154763777Y-107531777D01*
X154745599Y-107548253D01*
X154725893Y-107562868D01*
X154704850Y-107575480D01*
X154682671Y-107585970D01*
X154659572Y-107594235D01*
X154635773Y-107600196D01*
X154611505Y-107603796D01*
X154587001Y-107605000D01*
X151736999Y-107605000D01*
X151712495Y-107603796D01*
X151688227Y-107600196D01*
X151664428Y-107594235D01*
X151641329Y-107585970D01*
X151619150Y-107575480D01*
X151598107Y-107562868D01*
X151578401Y-107548253D01*
X151560223Y-107531777D01*
X151543747Y-107513599D01*
X151529132Y-107493893D01*
X151516520Y-107472850D01*
X151506030Y-107450671D01*
X151497765Y-107427572D01*
X151491804Y-107403773D01*
X151488204Y-107379505D01*
X151487000Y-107355001D01*
X151487000Y-106329999D01*
X151488204Y-106305495D01*
X151491804Y-106281227D01*
X151497765Y-106257428D01*
X151506030Y-106234329D01*
X151516520Y-106212150D01*
X151529132Y-106191107D01*
X151543747Y-106171401D01*
X151560223Y-106153223D01*
X151578401Y-106136747D01*
X151598107Y-106122132D01*
X151619150Y-106109520D01*
X151641329Y-106099030D01*
X151664428Y-106090765D01*
X151688227Y-106084804D01*
X151712495Y-106081204D01*
X151736999Y-106080000D01*
X154587001Y-106080000D01*
X154611505Y-106081204D01*
X154611505Y-106081204D01*
G37*
D27*
G04 #@! TD*
G04 #@! TO.P,R6,2*
G04 #@! TO.N,/gatedrivers/HO_B*
X153162000Y-106842500D03*
D13*
G04 #@! TO.N,Net-(D5-Pad2)*
G04 #@! TO.C,R6*
G36*
X154611505Y-100106204D02*
X154635773Y-100109804D01*
X154659572Y-100115765D01*
X154682671Y-100124030D01*
X154704850Y-100134520D01*
X154725893Y-100147132D01*
X154745599Y-100161747D01*
X154763777Y-100178223D01*
X154780253Y-100196401D01*
X154794868Y-100216107D01*
X154807480Y-100237150D01*
X154817970Y-100259329D01*
X154826235Y-100282428D01*
X154832196Y-100306227D01*
X154835796Y-100330495D01*
X154837000Y-100354999D01*
X154837000Y-101380001D01*
X154835796Y-101404505D01*
X154832196Y-101428773D01*
X154826235Y-101452572D01*
X154817970Y-101475671D01*
X154807480Y-101497850D01*
X154794868Y-101518893D01*
X154780253Y-101538599D01*
X154763777Y-101556777D01*
X154745599Y-101573253D01*
X154725893Y-101587868D01*
X154704850Y-101600480D01*
X154682671Y-101610970D01*
X154659572Y-101619235D01*
X154635773Y-101625196D01*
X154611505Y-101628796D01*
X154587001Y-101630000D01*
X151736999Y-101630000D01*
X151712495Y-101628796D01*
X151688227Y-101625196D01*
X151664428Y-101619235D01*
X151641329Y-101610970D01*
X151619150Y-101600480D01*
X151598107Y-101587868D01*
X151578401Y-101573253D01*
X151560223Y-101556777D01*
X151543747Y-101538599D01*
X151529132Y-101518893D01*
X151516520Y-101497850D01*
X151506030Y-101475671D01*
X151497765Y-101452572D01*
X151491804Y-101428773D01*
X151488204Y-101404505D01*
X151487000Y-101380001D01*
X151487000Y-100354999D01*
X151488204Y-100330495D01*
X151491804Y-100306227D01*
X151497765Y-100282428D01*
X151506030Y-100259329D01*
X151516520Y-100237150D01*
X151529132Y-100216107D01*
X151543747Y-100196401D01*
X151560223Y-100178223D01*
X151578401Y-100161747D01*
X151598107Y-100147132D01*
X151619150Y-100134520D01*
X151641329Y-100124030D01*
X151664428Y-100115765D01*
X151688227Y-100109804D01*
X151712495Y-100106204D01*
X151736999Y-100105000D01*
X154587001Y-100105000D01*
X154611505Y-100106204D01*
X154611505Y-100106204D01*
G37*
D27*
G04 #@! TD*
G04 #@! TO.P,R6,1*
G04 #@! TO.N,Net-(D5-Pad2)*
X153162000Y-100867500D03*
D13*
G04 #@! TO.N,/gatedrivers/LO_B*
G04 #@! TO.C,R7*
G36*
X165152505Y-103795204D02*
X165176773Y-103798804D01*
X165200572Y-103804765D01*
X165223671Y-103813030D01*
X165245850Y-103823520D01*
X165266893Y-103836132D01*
X165286599Y-103850747D01*
X165304777Y-103867223D01*
X165321253Y-103885401D01*
X165335868Y-103905107D01*
X165348480Y-103926150D01*
X165358970Y-103948329D01*
X165367235Y-103971428D01*
X165373196Y-103995227D01*
X165376796Y-104019495D01*
X165378000Y-104043999D01*
X165378000Y-105069001D01*
X165376796Y-105093505D01*
X165373196Y-105117773D01*
X165367235Y-105141572D01*
X165358970Y-105164671D01*
X165348480Y-105186850D01*
X165335868Y-105207893D01*
X165321253Y-105227599D01*
X165304777Y-105245777D01*
X165286599Y-105262253D01*
X165266893Y-105276868D01*
X165245850Y-105289480D01*
X165223671Y-105299970D01*
X165200572Y-105308235D01*
X165176773Y-105314196D01*
X165152505Y-105317796D01*
X165128001Y-105319000D01*
X162277999Y-105319000D01*
X162253495Y-105317796D01*
X162229227Y-105314196D01*
X162205428Y-105308235D01*
X162182329Y-105299970D01*
X162160150Y-105289480D01*
X162139107Y-105276868D01*
X162119401Y-105262253D01*
X162101223Y-105245777D01*
X162084747Y-105227599D01*
X162070132Y-105207893D01*
X162057520Y-105186850D01*
X162047030Y-105164671D01*
X162038765Y-105141572D01*
X162032804Y-105117773D01*
X162029204Y-105093505D01*
X162028000Y-105069001D01*
X162028000Y-104043999D01*
X162029204Y-104019495D01*
X162032804Y-103995227D01*
X162038765Y-103971428D01*
X162047030Y-103948329D01*
X162057520Y-103926150D01*
X162070132Y-103905107D01*
X162084747Y-103885401D01*
X162101223Y-103867223D01*
X162119401Y-103850747D01*
X162139107Y-103836132D01*
X162160150Y-103823520D01*
X162182329Y-103813030D01*
X162205428Y-103804765D01*
X162229227Y-103798804D01*
X162253495Y-103795204D01*
X162277999Y-103794000D01*
X165128001Y-103794000D01*
X165152505Y-103795204D01*
X165152505Y-103795204D01*
G37*
D27*
G04 #@! TD*
G04 #@! TO.P,R7,2*
G04 #@! TO.N,/gatedrivers/LO_B*
X163703000Y-104556500D03*
D13*
G04 #@! TO.N,Net-(D6-Pad2)*
G04 #@! TO.C,R7*
G36*
X165152505Y-97820204D02*
X165176773Y-97823804D01*
X165200572Y-97829765D01*
X165223671Y-97838030D01*
X165245850Y-97848520D01*
X165266893Y-97861132D01*
X165286599Y-97875747D01*
X165304777Y-97892223D01*
X165321253Y-97910401D01*
X165335868Y-97930107D01*
X165348480Y-97951150D01*
X165358970Y-97973329D01*
X165367235Y-97996428D01*
X165373196Y-98020227D01*
X165376796Y-98044495D01*
X165378000Y-98068999D01*
X165378000Y-99094001D01*
X165376796Y-99118505D01*
X165373196Y-99142773D01*
X165367235Y-99166572D01*
X165358970Y-99189671D01*
X165348480Y-99211850D01*
X165335868Y-99232893D01*
X165321253Y-99252599D01*
X165304777Y-99270777D01*
X165286599Y-99287253D01*
X165266893Y-99301868D01*
X165245850Y-99314480D01*
X165223671Y-99324970D01*
X165200572Y-99333235D01*
X165176773Y-99339196D01*
X165152505Y-99342796D01*
X165128001Y-99344000D01*
X162277999Y-99344000D01*
X162253495Y-99342796D01*
X162229227Y-99339196D01*
X162205428Y-99333235D01*
X162182329Y-99324970D01*
X162160150Y-99314480D01*
X162139107Y-99301868D01*
X162119401Y-99287253D01*
X162101223Y-99270777D01*
X162084747Y-99252599D01*
X162070132Y-99232893D01*
X162057520Y-99211850D01*
X162047030Y-99189671D01*
X162038765Y-99166572D01*
X162032804Y-99142773D01*
X162029204Y-99118505D01*
X162028000Y-99094001D01*
X162028000Y-98068999D01*
X162029204Y-98044495D01*
X162032804Y-98020227D01*
X162038765Y-97996428D01*
X162047030Y-97973329D01*
X162057520Y-97951150D01*
X162070132Y-97930107D01*
X162084747Y-97910401D01*
X162101223Y-97892223D01*
X162119401Y-97875747D01*
X162139107Y-97861132D01*
X162160150Y-97848520D01*
X162182329Y-97838030D01*
X162205428Y-97829765D01*
X162229227Y-97823804D01*
X162253495Y-97820204D01*
X162277999Y-97819000D01*
X165128001Y-97819000D01*
X165152505Y-97820204D01*
X165152505Y-97820204D01*
G37*
D27*
G04 #@! TD*
G04 #@! TO.P,R7,1*
G04 #@! TO.N,Net-(D6-Pad2)*
X163703000Y-98581500D03*
D13*
G04 #@! TO.N,Net-(D5-Pad2)*
G04 #@! TO.C,R8*
G36*
X156533504Y-85201204D02*
X156557773Y-85204804D01*
X156581571Y-85210765D01*
X156604671Y-85219030D01*
X156626849Y-85229520D01*
X156647893Y-85242133D01*
X156667598Y-85256747D01*
X156685777Y-85273223D01*
X156702253Y-85291402D01*
X156716867Y-85311107D01*
X156729480Y-85332151D01*
X156739970Y-85354329D01*
X156748235Y-85377429D01*
X156754196Y-85401227D01*
X156757796Y-85425496D01*
X156759000Y-85450000D01*
X156759000Y-86700000D01*
X156757796Y-86724504D01*
X156754196Y-86748773D01*
X156748235Y-86772571D01*
X156739970Y-86795671D01*
X156729480Y-86817849D01*
X156716867Y-86838893D01*
X156702253Y-86858598D01*
X156685777Y-86876777D01*
X156667598Y-86893253D01*
X156647893Y-86907867D01*
X156626849Y-86920480D01*
X156604671Y-86930970D01*
X156581571Y-86939235D01*
X156557773Y-86945196D01*
X156533504Y-86948796D01*
X156509000Y-86950000D01*
X155584000Y-86950000D01*
X155559496Y-86948796D01*
X155535227Y-86945196D01*
X155511429Y-86939235D01*
X155488329Y-86930970D01*
X155466151Y-86920480D01*
X155445107Y-86907867D01*
X155425402Y-86893253D01*
X155407223Y-86876777D01*
X155390747Y-86858598D01*
X155376133Y-86838893D01*
X155363520Y-86817849D01*
X155353030Y-86795671D01*
X155344765Y-86772571D01*
X155338804Y-86748773D01*
X155335204Y-86724504D01*
X155334000Y-86700000D01*
X155334000Y-85450000D01*
X155335204Y-85425496D01*
X155338804Y-85401227D01*
X155344765Y-85377429D01*
X155353030Y-85354329D01*
X155363520Y-85332151D01*
X155376133Y-85311107D01*
X155390747Y-85291402D01*
X155407223Y-85273223D01*
X155425402Y-85256747D01*
X155445107Y-85242133D01*
X155466151Y-85229520D01*
X155488329Y-85219030D01*
X155511429Y-85210765D01*
X155535227Y-85204804D01*
X155559496Y-85201204D01*
X155584000Y-85200000D01*
X156509000Y-85200000D01*
X156533504Y-85201204D01*
X156533504Y-85201204D01*
G37*
D14*
G04 #@! TD*
G04 #@! TO.P,R8,2*
G04 #@! TO.N,Net-(D5-Pad2)*
X156046500Y-86075000D03*
D13*
G04 #@! TO.N,/gatedrivers/PHASEB_SOURCE*
G04 #@! TO.C,R8*
G36*
X153558504Y-85201204D02*
X153582773Y-85204804D01*
X153606571Y-85210765D01*
X153629671Y-85219030D01*
X153651849Y-85229520D01*
X153672893Y-85242133D01*
X153692598Y-85256747D01*
X153710777Y-85273223D01*
X153727253Y-85291402D01*
X153741867Y-85311107D01*
X153754480Y-85332151D01*
X153764970Y-85354329D01*
X153773235Y-85377429D01*
X153779196Y-85401227D01*
X153782796Y-85425496D01*
X153784000Y-85450000D01*
X153784000Y-86700000D01*
X153782796Y-86724504D01*
X153779196Y-86748773D01*
X153773235Y-86772571D01*
X153764970Y-86795671D01*
X153754480Y-86817849D01*
X153741867Y-86838893D01*
X153727253Y-86858598D01*
X153710777Y-86876777D01*
X153692598Y-86893253D01*
X153672893Y-86907867D01*
X153651849Y-86920480D01*
X153629671Y-86930970D01*
X153606571Y-86939235D01*
X153582773Y-86945196D01*
X153558504Y-86948796D01*
X153534000Y-86950000D01*
X152609000Y-86950000D01*
X152584496Y-86948796D01*
X152560227Y-86945196D01*
X152536429Y-86939235D01*
X152513329Y-86930970D01*
X152491151Y-86920480D01*
X152470107Y-86907867D01*
X152450402Y-86893253D01*
X152432223Y-86876777D01*
X152415747Y-86858598D01*
X152401133Y-86838893D01*
X152388520Y-86817849D01*
X152378030Y-86795671D01*
X152369765Y-86772571D01*
X152363804Y-86748773D01*
X152360204Y-86724504D01*
X152359000Y-86700000D01*
X152359000Y-85450000D01*
X152360204Y-85425496D01*
X152363804Y-85401227D01*
X152369765Y-85377429D01*
X152378030Y-85354329D01*
X152388520Y-85332151D01*
X152401133Y-85311107D01*
X152415747Y-85291402D01*
X152432223Y-85273223D01*
X152450402Y-85256747D01*
X152470107Y-85242133D01*
X152491151Y-85229520D01*
X152513329Y-85219030D01*
X152536429Y-85210765D01*
X152560227Y-85204804D01*
X152584496Y-85201204D01*
X152609000Y-85200000D01*
X153534000Y-85200000D01*
X153558504Y-85201204D01*
X153558504Y-85201204D01*
G37*
D14*
G04 #@! TD*
G04 #@! TO.P,R8,1*
G04 #@! TO.N,/gatedrivers/PHASEB_SOURCE*
X153071500Y-86075000D03*
D13*
G04 #@! TO.N,Net-(D6-Pad2)*
G04 #@! TO.C,R9*
G36*
X163264504Y-83550204D02*
X163288773Y-83553804D01*
X163312571Y-83559765D01*
X163335671Y-83568030D01*
X163357849Y-83578520D01*
X163378893Y-83591133D01*
X163398598Y-83605747D01*
X163416777Y-83622223D01*
X163433253Y-83640402D01*
X163447867Y-83660107D01*
X163460480Y-83681151D01*
X163470970Y-83703329D01*
X163479235Y-83726429D01*
X163485196Y-83750227D01*
X163488796Y-83774496D01*
X163490000Y-83799000D01*
X163490000Y-85049000D01*
X163488796Y-85073504D01*
X163485196Y-85097773D01*
X163479235Y-85121571D01*
X163470970Y-85144671D01*
X163460480Y-85166849D01*
X163447867Y-85187893D01*
X163433253Y-85207598D01*
X163416777Y-85225777D01*
X163398598Y-85242253D01*
X163378893Y-85256867D01*
X163357849Y-85269480D01*
X163335671Y-85279970D01*
X163312571Y-85288235D01*
X163288773Y-85294196D01*
X163264504Y-85297796D01*
X163240000Y-85299000D01*
X162315000Y-85299000D01*
X162290496Y-85297796D01*
X162266227Y-85294196D01*
X162242429Y-85288235D01*
X162219329Y-85279970D01*
X162197151Y-85269480D01*
X162176107Y-85256867D01*
X162156402Y-85242253D01*
X162138223Y-85225777D01*
X162121747Y-85207598D01*
X162107133Y-85187893D01*
X162094520Y-85166849D01*
X162084030Y-85144671D01*
X162075765Y-85121571D01*
X162069804Y-85097773D01*
X162066204Y-85073504D01*
X162065000Y-85049000D01*
X162065000Y-83799000D01*
X162066204Y-83774496D01*
X162069804Y-83750227D01*
X162075765Y-83726429D01*
X162084030Y-83703329D01*
X162094520Y-83681151D01*
X162107133Y-83660107D01*
X162121747Y-83640402D01*
X162138223Y-83622223D01*
X162156402Y-83605747D01*
X162176107Y-83591133D01*
X162197151Y-83578520D01*
X162219329Y-83568030D01*
X162242429Y-83559765D01*
X162266227Y-83553804D01*
X162290496Y-83550204D01*
X162315000Y-83549000D01*
X163240000Y-83549000D01*
X163264504Y-83550204D01*
X163264504Y-83550204D01*
G37*
D14*
G04 #@! TD*
G04 #@! TO.P,R9,2*
G04 #@! TO.N,Net-(D6-Pad2)*
X162777500Y-84424000D03*
D13*
G04 #@! TO.N,/GND*
G04 #@! TO.C,R9*
G36*
X160289504Y-83550204D02*
X160313773Y-83553804D01*
X160337571Y-83559765D01*
X160360671Y-83568030D01*
X160382849Y-83578520D01*
X160403893Y-83591133D01*
X160423598Y-83605747D01*
X160441777Y-83622223D01*
X160458253Y-83640402D01*
X160472867Y-83660107D01*
X160485480Y-83681151D01*
X160495970Y-83703329D01*
X160504235Y-83726429D01*
X160510196Y-83750227D01*
X160513796Y-83774496D01*
X160515000Y-83799000D01*
X160515000Y-85049000D01*
X160513796Y-85073504D01*
X160510196Y-85097773D01*
X160504235Y-85121571D01*
X160495970Y-85144671D01*
X160485480Y-85166849D01*
X160472867Y-85187893D01*
X160458253Y-85207598D01*
X160441777Y-85225777D01*
X160423598Y-85242253D01*
X160403893Y-85256867D01*
X160382849Y-85269480D01*
X160360671Y-85279970D01*
X160337571Y-85288235D01*
X160313773Y-85294196D01*
X160289504Y-85297796D01*
X160265000Y-85299000D01*
X159340000Y-85299000D01*
X159315496Y-85297796D01*
X159291227Y-85294196D01*
X159267429Y-85288235D01*
X159244329Y-85279970D01*
X159222151Y-85269480D01*
X159201107Y-85256867D01*
X159181402Y-85242253D01*
X159163223Y-85225777D01*
X159146747Y-85207598D01*
X159132133Y-85187893D01*
X159119520Y-85166849D01*
X159109030Y-85144671D01*
X159100765Y-85121571D01*
X159094804Y-85097773D01*
X159091204Y-85073504D01*
X159090000Y-85049000D01*
X159090000Y-83799000D01*
X159091204Y-83774496D01*
X159094804Y-83750227D01*
X159100765Y-83726429D01*
X159109030Y-83703329D01*
X159119520Y-83681151D01*
X159132133Y-83660107D01*
X159146747Y-83640402D01*
X159163223Y-83622223D01*
X159181402Y-83605747D01*
X159201107Y-83591133D01*
X159222151Y-83578520D01*
X159244329Y-83568030D01*
X159267429Y-83559765D01*
X159291227Y-83553804D01*
X159315496Y-83550204D01*
X159340000Y-83549000D01*
X160265000Y-83549000D01*
X160289504Y-83550204D01*
X160289504Y-83550204D01*
G37*
D14*
G04 #@! TD*
G04 #@! TO.P,R9,1*
G04 #@! TO.N,/GND*
X159802500Y-84424000D03*
D13*
G04 #@! TO.N,/PHASE_B*
G04 #@! TO.C,R10*
G36*
X147499505Y-45466704D02*
X147523773Y-45470304D01*
X147547572Y-45476265D01*
X147570671Y-45484530D01*
X147592850Y-45495020D01*
X147613893Y-45507632D01*
X147633599Y-45522247D01*
X147651777Y-45538723D01*
X147668253Y-45556901D01*
X147682868Y-45576607D01*
X147695480Y-45597650D01*
X147705970Y-45619829D01*
X147714235Y-45642928D01*
X147720196Y-45666727D01*
X147723796Y-45690995D01*
X147725000Y-45715499D01*
X147725000Y-46740501D01*
X147723796Y-46765005D01*
X147720196Y-46789273D01*
X147714235Y-46813072D01*
X147705970Y-46836171D01*
X147695480Y-46858350D01*
X147682868Y-46879393D01*
X147668253Y-46899099D01*
X147651777Y-46917277D01*
X147633599Y-46933753D01*
X147613893Y-46948368D01*
X147592850Y-46960980D01*
X147570671Y-46971470D01*
X147547572Y-46979735D01*
X147523773Y-46985696D01*
X147499505Y-46989296D01*
X147475001Y-46990500D01*
X144624999Y-46990500D01*
X144600495Y-46989296D01*
X144576227Y-46985696D01*
X144552428Y-46979735D01*
X144529329Y-46971470D01*
X144507150Y-46960980D01*
X144486107Y-46948368D01*
X144466401Y-46933753D01*
X144448223Y-46917277D01*
X144431747Y-46899099D01*
X144417132Y-46879393D01*
X144404520Y-46858350D01*
X144394030Y-46836171D01*
X144385765Y-46813072D01*
X144379804Y-46789273D01*
X144376204Y-46765005D01*
X144375000Y-46740501D01*
X144375000Y-45715499D01*
X144376204Y-45690995D01*
X144379804Y-45666727D01*
X144385765Y-45642928D01*
X144394030Y-45619829D01*
X144404520Y-45597650D01*
X144417132Y-45576607D01*
X144431747Y-45556901D01*
X144448223Y-45538723D01*
X144466401Y-45522247D01*
X144486107Y-45507632D01*
X144507150Y-45495020D01*
X144529329Y-45484530D01*
X144552428Y-45476265D01*
X144576227Y-45470304D01*
X144600495Y-45466704D01*
X144624999Y-45465500D01*
X147475001Y-45465500D01*
X147499505Y-45466704D01*
X147499505Y-45466704D01*
G37*
D27*
G04 #@! TD*
G04 #@! TO.P,R10,1*
G04 #@! TO.N,/PHASE_B*
X146050000Y-46228000D03*
D13*
G04 #@! TO.N,/gatedrivers/PHASEB_SOURCE*
G04 #@! TO.C,R10*
G36*
X147499505Y-51441704D02*
X147523773Y-51445304D01*
X147547572Y-51451265D01*
X147570671Y-51459530D01*
X147592850Y-51470020D01*
X147613893Y-51482632D01*
X147633599Y-51497247D01*
X147651777Y-51513723D01*
X147668253Y-51531901D01*
X147682868Y-51551607D01*
X147695480Y-51572650D01*
X147705970Y-51594829D01*
X147714235Y-51617928D01*
X147720196Y-51641727D01*
X147723796Y-51665995D01*
X147725000Y-51690499D01*
X147725000Y-52715501D01*
X147723796Y-52740005D01*
X147720196Y-52764273D01*
X147714235Y-52788072D01*
X147705970Y-52811171D01*
X147695480Y-52833350D01*
X147682868Y-52854393D01*
X147668253Y-52874099D01*
X147651777Y-52892277D01*
X147633599Y-52908753D01*
X147613893Y-52923368D01*
X147592850Y-52935980D01*
X147570671Y-52946470D01*
X147547572Y-52954735D01*
X147523773Y-52960696D01*
X147499505Y-52964296D01*
X147475001Y-52965500D01*
X144624999Y-52965500D01*
X144600495Y-52964296D01*
X144576227Y-52960696D01*
X144552428Y-52954735D01*
X144529329Y-52946470D01*
X144507150Y-52935980D01*
X144486107Y-52923368D01*
X144466401Y-52908753D01*
X144448223Y-52892277D01*
X144431747Y-52874099D01*
X144417132Y-52854393D01*
X144404520Y-52833350D01*
X144394030Y-52811171D01*
X144385765Y-52788072D01*
X144379804Y-52764273D01*
X144376204Y-52740005D01*
X144375000Y-52715501D01*
X144375000Y-51690499D01*
X144376204Y-51665995D01*
X144379804Y-51641727D01*
X144385765Y-51617928D01*
X144394030Y-51594829D01*
X144404520Y-51572650D01*
X144417132Y-51551607D01*
X144431747Y-51531901D01*
X144448223Y-51513723D01*
X144466401Y-51497247D01*
X144486107Y-51482632D01*
X144507150Y-51470020D01*
X144529329Y-51459530D01*
X144552428Y-51451265D01*
X144576227Y-51445304D01*
X144600495Y-51441704D01*
X144624999Y-51440500D01*
X147475001Y-51440500D01*
X147499505Y-51441704D01*
X147499505Y-51441704D01*
G37*
D27*
G04 #@! TD*
G04 #@! TO.P,R10,2*
G04 #@! TO.N,/gatedrivers/PHASEB_SOURCE*
X146050000Y-52203000D03*
D13*
G04 #@! TO.N,Net-(D11-Pad1)*
G04 #@! TO.C,R11*
G36*
X116124505Y-102276204D02*
X116148773Y-102279804D01*
X116172572Y-102285765D01*
X116195671Y-102294030D01*
X116217850Y-102304520D01*
X116238893Y-102317132D01*
X116258599Y-102331747D01*
X116276777Y-102348223D01*
X116293253Y-102366401D01*
X116307868Y-102386107D01*
X116320480Y-102407150D01*
X116330970Y-102429329D01*
X116339235Y-102452428D01*
X116345196Y-102476227D01*
X116348796Y-102500495D01*
X116350000Y-102524999D01*
X116350000Y-103550001D01*
X116348796Y-103574505D01*
X116345196Y-103598773D01*
X116339235Y-103622572D01*
X116330970Y-103645671D01*
X116320480Y-103667850D01*
X116307868Y-103688893D01*
X116293253Y-103708599D01*
X116276777Y-103726777D01*
X116258599Y-103743253D01*
X116238893Y-103757868D01*
X116217850Y-103770480D01*
X116195671Y-103780970D01*
X116172572Y-103789235D01*
X116148773Y-103795196D01*
X116124505Y-103798796D01*
X116100001Y-103800000D01*
X113249999Y-103800000D01*
X113225495Y-103798796D01*
X113201227Y-103795196D01*
X113177428Y-103789235D01*
X113154329Y-103780970D01*
X113132150Y-103770480D01*
X113111107Y-103757868D01*
X113091401Y-103743253D01*
X113073223Y-103726777D01*
X113056747Y-103708599D01*
X113042132Y-103688893D01*
X113029520Y-103667850D01*
X113019030Y-103645671D01*
X113010765Y-103622572D01*
X113004804Y-103598773D01*
X113001204Y-103574505D01*
X113000000Y-103550001D01*
X113000000Y-102524999D01*
X113001204Y-102500495D01*
X113004804Y-102476227D01*
X113010765Y-102452428D01*
X113019030Y-102429329D01*
X113029520Y-102407150D01*
X113042132Y-102386107D01*
X113056747Y-102366401D01*
X113073223Y-102348223D01*
X113091401Y-102331747D01*
X113111107Y-102317132D01*
X113132150Y-102304520D01*
X113154329Y-102294030D01*
X113177428Y-102285765D01*
X113201227Y-102279804D01*
X113225495Y-102276204D01*
X113249999Y-102275000D01*
X116100001Y-102275000D01*
X116124505Y-102276204D01*
X116124505Y-102276204D01*
G37*
D27*
G04 #@! TD*
G04 #@! TO.P,R11,1*
G04 #@! TO.N,Net-(D11-Pad1)*
X114675000Y-103037500D03*
D13*
G04 #@! TO.N,/gatedrivers/HO_C*
G04 #@! TO.C,R11*
G36*
X116124505Y-108251204D02*
X116148773Y-108254804D01*
X116172572Y-108260765D01*
X116195671Y-108269030D01*
X116217850Y-108279520D01*
X116238893Y-108292132D01*
X116258599Y-108306747D01*
X116276777Y-108323223D01*
X116293253Y-108341401D01*
X116307868Y-108361107D01*
X116320480Y-108382150D01*
X116330970Y-108404329D01*
X116339235Y-108427428D01*
X116345196Y-108451227D01*
X116348796Y-108475495D01*
X116350000Y-108499999D01*
X116350000Y-109525001D01*
X116348796Y-109549505D01*
X116345196Y-109573773D01*
X116339235Y-109597572D01*
X116330970Y-109620671D01*
X116320480Y-109642850D01*
X116307868Y-109663893D01*
X116293253Y-109683599D01*
X116276777Y-109701777D01*
X116258599Y-109718253D01*
X116238893Y-109732868D01*
X116217850Y-109745480D01*
X116195671Y-109755970D01*
X116172572Y-109764235D01*
X116148773Y-109770196D01*
X116124505Y-109773796D01*
X116100001Y-109775000D01*
X113249999Y-109775000D01*
X113225495Y-109773796D01*
X113201227Y-109770196D01*
X113177428Y-109764235D01*
X113154329Y-109755970D01*
X113132150Y-109745480D01*
X113111107Y-109732868D01*
X113091401Y-109718253D01*
X113073223Y-109701777D01*
X113056747Y-109683599D01*
X113042132Y-109663893D01*
X113029520Y-109642850D01*
X113019030Y-109620671D01*
X113010765Y-109597572D01*
X113004804Y-109573773D01*
X113001204Y-109549505D01*
X113000000Y-109525001D01*
X113000000Y-108499999D01*
X113001204Y-108475495D01*
X113004804Y-108451227D01*
X113010765Y-108427428D01*
X113019030Y-108404329D01*
X113029520Y-108382150D01*
X113042132Y-108361107D01*
X113056747Y-108341401D01*
X113073223Y-108323223D01*
X113091401Y-108306747D01*
X113111107Y-108292132D01*
X113132150Y-108279520D01*
X113154329Y-108269030D01*
X113177428Y-108260765D01*
X113201227Y-108254804D01*
X113225495Y-108251204D01*
X113249999Y-108250000D01*
X116100001Y-108250000D01*
X116124505Y-108251204D01*
X116124505Y-108251204D01*
G37*
D27*
G04 #@! TD*
G04 #@! TO.P,R11,2*
G04 #@! TO.N,/gatedrivers/HO_C*
X114675000Y-109012500D03*
D13*
G04 #@! TO.N,Net-(D10-Pad2)*
G04 #@! TO.C,R12*
G36*
X130227505Y-90581204D02*
X130251773Y-90584804D01*
X130275572Y-90590765D01*
X130298671Y-90599030D01*
X130320850Y-90609520D01*
X130341893Y-90622132D01*
X130361599Y-90636747D01*
X130379777Y-90653223D01*
X130396253Y-90671401D01*
X130410868Y-90691107D01*
X130423480Y-90712150D01*
X130433970Y-90734329D01*
X130442235Y-90757428D01*
X130448196Y-90781227D01*
X130451796Y-90805495D01*
X130453000Y-90829999D01*
X130453000Y-91855001D01*
X130451796Y-91879505D01*
X130448196Y-91903773D01*
X130442235Y-91927572D01*
X130433970Y-91950671D01*
X130423480Y-91972850D01*
X130410868Y-91993893D01*
X130396253Y-92013599D01*
X130379777Y-92031777D01*
X130361599Y-92048253D01*
X130341893Y-92062868D01*
X130320850Y-92075480D01*
X130298671Y-92085970D01*
X130275572Y-92094235D01*
X130251773Y-92100196D01*
X130227505Y-92103796D01*
X130203001Y-92105000D01*
X127352999Y-92105000D01*
X127328495Y-92103796D01*
X127304227Y-92100196D01*
X127280428Y-92094235D01*
X127257329Y-92085970D01*
X127235150Y-92075480D01*
X127214107Y-92062868D01*
X127194401Y-92048253D01*
X127176223Y-92031777D01*
X127159747Y-92013599D01*
X127145132Y-91993893D01*
X127132520Y-91972850D01*
X127122030Y-91950671D01*
X127113765Y-91927572D01*
X127107804Y-91903773D01*
X127104204Y-91879505D01*
X127103000Y-91855001D01*
X127103000Y-90829999D01*
X127104204Y-90805495D01*
X127107804Y-90781227D01*
X127113765Y-90757428D01*
X127122030Y-90734329D01*
X127132520Y-90712150D01*
X127145132Y-90691107D01*
X127159747Y-90671401D01*
X127176223Y-90653223D01*
X127194401Y-90636747D01*
X127214107Y-90622132D01*
X127235150Y-90609520D01*
X127257329Y-90599030D01*
X127280428Y-90590765D01*
X127304227Y-90584804D01*
X127328495Y-90581204D01*
X127352999Y-90580000D01*
X130203001Y-90580000D01*
X130227505Y-90581204D01*
X130227505Y-90581204D01*
G37*
D27*
G04 #@! TD*
G04 #@! TO.P,R12,1*
G04 #@! TO.N,Net-(D10-Pad2)*
X128778000Y-91342500D03*
D13*
G04 #@! TO.N,/gatedrivers/LO_C*
G04 #@! TO.C,R12*
G36*
X130227505Y-96556204D02*
X130251773Y-96559804D01*
X130275572Y-96565765D01*
X130298671Y-96574030D01*
X130320850Y-96584520D01*
X130341893Y-96597132D01*
X130361599Y-96611747D01*
X130379777Y-96628223D01*
X130396253Y-96646401D01*
X130410868Y-96666107D01*
X130423480Y-96687150D01*
X130433970Y-96709329D01*
X130442235Y-96732428D01*
X130448196Y-96756227D01*
X130451796Y-96780495D01*
X130453000Y-96804999D01*
X130453000Y-97830001D01*
X130451796Y-97854505D01*
X130448196Y-97878773D01*
X130442235Y-97902572D01*
X130433970Y-97925671D01*
X130423480Y-97947850D01*
X130410868Y-97968893D01*
X130396253Y-97988599D01*
X130379777Y-98006777D01*
X130361599Y-98023253D01*
X130341893Y-98037868D01*
X130320850Y-98050480D01*
X130298671Y-98060970D01*
X130275572Y-98069235D01*
X130251773Y-98075196D01*
X130227505Y-98078796D01*
X130203001Y-98080000D01*
X127352999Y-98080000D01*
X127328495Y-98078796D01*
X127304227Y-98075196D01*
X127280428Y-98069235D01*
X127257329Y-98060970D01*
X127235150Y-98050480D01*
X127214107Y-98037868D01*
X127194401Y-98023253D01*
X127176223Y-98006777D01*
X127159747Y-97988599D01*
X127145132Y-97968893D01*
X127132520Y-97947850D01*
X127122030Y-97925671D01*
X127113765Y-97902572D01*
X127107804Y-97878773D01*
X127104204Y-97854505D01*
X127103000Y-97830001D01*
X127103000Y-96804999D01*
X127104204Y-96780495D01*
X127107804Y-96756227D01*
X127113765Y-96732428D01*
X127122030Y-96709329D01*
X127132520Y-96687150D01*
X127145132Y-96666107D01*
X127159747Y-96646401D01*
X127176223Y-96628223D01*
X127194401Y-96611747D01*
X127214107Y-96597132D01*
X127235150Y-96584520D01*
X127257329Y-96574030D01*
X127280428Y-96565765D01*
X127304227Y-96559804D01*
X127328495Y-96556204D01*
X127352999Y-96555000D01*
X130203001Y-96555000D01*
X130227505Y-96556204D01*
X130227505Y-96556204D01*
G37*
D27*
G04 #@! TD*
G04 #@! TO.P,R12,2*
G04 #@! TO.N,/gatedrivers/LO_C*
X128778000Y-97317500D03*
D13*
G04 #@! TO.N,/gatedrivers/PHASEC_SOURCE*
G04 #@! TO.C,R13*
G36*
X123624504Y-100901204D02*
X123648773Y-100904804D01*
X123672571Y-100910765D01*
X123695671Y-100919030D01*
X123717849Y-100929520D01*
X123738893Y-100942133D01*
X123758598Y-100956747D01*
X123776777Y-100973223D01*
X123793253Y-100991402D01*
X123807867Y-101011107D01*
X123820480Y-101032151D01*
X123830970Y-101054329D01*
X123839235Y-101077429D01*
X123845196Y-101101227D01*
X123848796Y-101125496D01*
X123850000Y-101150000D01*
X123850000Y-102400000D01*
X123848796Y-102424504D01*
X123845196Y-102448773D01*
X123839235Y-102472571D01*
X123830970Y-102495671D01*
X123820480Y-102517849D01*
X123807867Y-102538893D01*
X123793253Y-102558598D01*
X123776777Y-102576777D01*
X123758598Y-102593253D01*
X123738893Y-102607867D01*
X123717849Y-102620480D01*
X123695671Y-102630970D01*
X123672571Y-102639235D01*
X123648773Y-102645196D01*
X123624504Y-102648796D01*
X123600000Y-102650000D01*
X122675000Y-102650000D01*
X122650496Y-102648796D01*
X122626227Y-102645196D01*
X122602429Y-102639235D01*
X122579329Y-102630970D01*
X122557151Y-102620480D01*
X122536107Y-102607867D01*
X122516402Y-102593253D01*
X122498223Y-102576777D01*
X122481747Y-102558598D01*
X122467133Y-102538893D01*
X122454520Y-102517849D01*
X122444030Y-102495671D01*
X122435765Y-102472571D01*
X122429804Y-102448773D01*
X122426204Y-102424504D01*
X122425000Y-102400000D01*
X122425000Y-101150000D01*
X122426204Y-101125496D01*
X122429804Y-101101227D01*
X122435765Y-101077429D01*
X122444030Y-101054329D01*
X122454520Y-101032151D01*
X122467133Y-101011107D01*
X122481747Y-100991402D01*
X122498223Y-100973223D01*
X122516402Y-100956747D01*
X122536107Y-100942133D01*
X122557151Y-100929520D01*
X122579329Y-100919030D01*
X122602429Y-100910765D01*
X122626227Y-100904804D01*
X122650496Y-100901204D01*
X122675000Y-100900000D01*
X123600000Y-100900000D01*
X123624504Y-100901204D01*
X123624504Y-100901204D01*
G37*
D14*
G04 #@! TD*
G04 #@! TO.P,R13,1*
G04 #@! TO.N,/gatedrivers/PHASEC_SOURCE*
X123137500Y-101775000D03*
D13*
G04 #@! TO.N,Net-(D11-Pad1)*
G04 #@! TO.C,R13*
G36*
X120649504Y-100901204D02*
X120673773Y-100904804D01*
X120697571Y-100910765D01*
X120720671Y-100919030D01*
X120742849Y-100929520D01*
X120763893Y-100942133D01*
X120783598Y-100956747D01*
X120801777Y-100973223D01*
X120818253Y-100991402D01*
X120832867Y-101011107D01*
X120845480Y-101032151D01*
X120855970Y-101054329D01*
X120864235Y-101077429D01*
X120870196Y-101101227D01*
X120873796Y-101125496D01*
X120875000Y-101150000D01*
X120875000Y-102400000D01*
X120873796Y-102424504D01*
X120870196Y-102448773D01*
X120864235Y-102472571D01*
X120855970Y-102495671D01*
X120845480Y-102517849D01*
X120832867Y-102538893D01*
X120818253Y-102558598D01*
X120801777Y-102576777D01*
X120783598Y-102593253D01*
X120763893Y-102607867D01*
X120742849Y-102620480D01*
X120720671Y-102630970D01*
X120697571Y-102639235D01*
X120673773Y-102645196D01*
X120649504Y-102648796D01*
X120625000Y-102650000D01*
X119700000Y-102650000D01*
X119675496Y-102648796D01*
X119651227Y-102645196D01*
X119627429Y-102639235D01*
X119604329Y-102630970D01*
X119582151Y-102620480D01*
X119561107Y-102607867D01*
X119541402Y-102593253D01*
X119523223Y-102576777D01*
X119506747Y-102558598D01*
X119492133Y-102538893D01*
X119479520Y-102517849D01*
X119469030Y-102495671D01*
X119460765Y-102472571D01*
X119454804Y-102448773D01*
X119451204Y-102424504D01*
X119450000Y-102400000D01*
X119450000Y-101150000D01*
X119451204Y-101125496D01*
X119454804Y-101101227D01*
X119460765Y-101077429D01*
X119469030Y-101054329D01*
X119479520Y-101032151D01*
X119492133Y-101011107D01*
X119506747Y-100991402D01*
X119523223Y-100973223D01*
X119541402Y-100956747D01*
X119561107Y-100942133D01*
X119582151Y-100929520D01*
X119604329Y-100919030D01*
X119627429Y-100910765D01*
X119651227Y-100904804D01*
X119675496Y-100901204D01*
X119700000Y-100900000D01*
X120625000Y-100900000D01*
X120649504Y-100901204D01*
X120649504Y-100901204D01*
G37*
D14*
G04 #@! TD*
G04 #@! TO.P,R13,2*
G04 #@! TO.N,Net-(D11-Pad1)*
X120162500Y-101775000D03*
D13*
G04 #@! TO.N,/GND*
G04 #@! TO.C,R14*
G36*
X134507504Y-81590204D02*
X134531773Y-81593804D01*
X134555571Y-81599765D01*
X134578671Y-81608030D01*
X134600849Y-81618520D01*
X134621893Y-81631133D01*
X134641598Y-81645747D01*
X134659777Y-81662223D01*
X134676253Y-81680402D01*
X134690867Y-81700107D01*
X134703480Y-81721151D01*
X134713970Y-81743329D01*
X134722235Y-81766429D01*
X134728196Y-81790227D01*
X134731796Y-81814496D01*
X134733000Y-81839000D01*
X134733000Y-82764000D01*
X134731796Y-82788504D01*
X134728196Y-82812773D01*
X134722235Y-82836571D01*
X134713970Y-82859671D01*
X134703480Y-82881849D01*
X134690867Y-82902893D01*
X134676253Y-82922598D01*
X134659777Y-82940777D01*
X134641598Y-82957253D01*
X134621893Y-82971867D01*
X134600849Y-82984480D01*
X134578671Y-82994970D01*
X134555571Y-83003235D01*
X134531773Y-83009196D01*
X134507504Y-83012796D01*
X134483000Y-83014000D01*
X133233000Y-83014000D01*
X133208496Y-83012796D01*
X133184227Y-83009196D01*
X133160429Y-83003235D01*
X133137329Y-82994970D01*
X133115151Y-82984480D01*
X133094107Y-82971867D01*
X133074402Y-82957253D01*
X133056223Y-82940777D01*
X133039747Y-82922598D01*
X133025133Y-82902893D01*
X133012520Y-82881849D01*
X133002030Y-82859671D01*
X132993765Y-82836571D01*
X132987804Y-82812773D01*
X132984204Y-82788504D01*
X132983000Y-82764000D01*
X132983000Y-81839000D01*
X132984204Y-81814496D01*
X132987804Y-81790227D01*
X132993765Y-81766429D01*
X133002030Y-81743329D01*
X133012520Y-81721151D01*
X133025133Y-81700107D01*
X133039747Y-81680402D01*
X133056223Y-81662223D01*
X133074402Y-81645747D01*
X133094107Y-81631133D01*
X133115151Y-81618520D01*
X133137329Y-81608030D01*
X133160429Y-81599765D01*
X133184227Y-81593804D01*
X133208496Y-81590204D01*
X133233000Y-81589000D01*
X134483000Y-81589000D01*
X134507504Y-81590204D01*
X134507504Y-81590204D01*
G37*
D14*
G04 #@! TD*
G04 #@! TO.P,R14,1*
G04 #@! TO.N,/GND*
X133858000Y-82301500D03*
D13*
G04 #@! TO.N,Net-(D10-Pad2)*
G04 #@! TO.C,R14*
G36*
X134507504Y-84565204D02*
X134531773Y-84568804D01*
X134555571Y-84574765D01*
X134578671Y-84583030D01*
X134600849Y-84593520D01*
X134621893Y-84606133D01*
X134641598Y-84620747D01*
X134659777Y-84637223D01*
X134676253Y-84655402D01*
X134690867Y-84675107D01*
X134703480Y-84696151D01*
X134713970Y-84718329D01*
X134722235Y-84741429D01*
X134728196Y-84765227D01*
X134731796Y-84789496D01*
X134733000Y-84814000D01*
X134733000Y-85739000D01*
X134731796Y-85763504D01*
X134728196Y-85787773D01*
X134722235Y-85811571D01*
X134713970Y-85834671D01*
X134703480Y-85856849D01*
X134690867Y-85877893D01*
X134676253Y-85897598D01*
X134659777Y-85915777D01*
X134641598Y-85932253D01*
X134621893Y-85946867D01*
X134600849Y-85959480D01*
X134578671Y-85969970D01*
X134555571Y-85978235D01*
X134531773Y-85984196D01*
X134507504Y-85987796D01*
X134483000Y-85989000D01*
X133233000Y-85989000D01*
X133208496Y-85987796D01*
X133184227Y-85984196D01*
X133160429Y-85978235D01*
X133137329Y-85969970D01*
X133115151Y-85959480D01*
X133094107Y-85946867D01*
X133074402Y-85932253D01*
X133056223Y-85915777D01*
X133039747Y-85897598D01*
X133025133Y-85877893D01*
X133012520Y-85856849D01*
X133002030Y-85834671D01*
X132993765Y-85811571D01*
X132987804Y-85787773D01*
X132984204Y-85763504D01*
X132983000Y-85739000D01*
X132983000Y-84814000D01*
X132984204Y-84789496D01*
X132987804Y-84765227D01*
X132993765Y-84741429D01*
X133002030Y-84718329D01*
X133012520Y-84696151D01*
X133025133Y-84675107D01*
X133039747Y-84655402D01*
X133056223Y-84637223D01*
X133074402Y-84620747D01*
X133094107Y-84606133D01*
X133115151Y-84593520D01*
X133137329Y-84583030D01*
X133160429Y-84574765D01*
X133184227Y-84568804D01*
X133208496Y-84565204D01*
X133233000Y-84564000D01*
X134483000Y-84564000D01*
X134507504Y-84565204D01*
X134507504Y-84565204D01*
G37*
D14*
G04 #@! TD*
G04 #@! TO.P,R14,2*
G04 #@! TO.N,Net-(D10-Pad2)*
X133858000Y-85276500D03*
D13*
G04 #@! TO.N,/PHASE_C*
G04 #@! TO.C,R15*
G36*
X122099505Y-45466704D02*
X122123773Y-45470304D01*
X122147572Y-45476265D01*
X122170671Y-45484530D01*
X122192850Y-45495020D01*
X122213893Y-45507632D01*
X122233599Y-45522247D01*
X122251777Y-45538723D01*
X122268253Y-45556901D01*
X122282868Y-45576607D01*
X122295480Y-45597650D01*
X122305970Y-45619829D01*
X122314235Y-45642928D01*
X122320196Y-45666727D01*
X122323796Y-45690995D01*
X122325000Y-45715499D01*
X122325000Y-46740501D01*
X122323796Y-46765005D01*
X122320196Y-46789273D01*
X122314235Y-46813072D01*
X122305970Y-46836171D01*
X122295480Y-46858350D01*
X122282868Y-46879393D01*
X122268253Y-46899099D01*
X122251777Y-46917277D01*
X122233599Y-46933753D01*
X122213893Y-46948368D01*
X122192850Y-46960980D01*
X122170671Y-46971470D01*
X122147572Y-46979735D01*
X122123773Y-46985696D01*
X122099505Y-46989296D01*
X122075001Y-46990500D01*
X119224999Y-46990500D01*
X119200495Y-46989296D01*
X119176227Y-46985696D01*
X119152428Y-46979735D01*
X119129329Y-46971470D01*
X119107150Y-46960980D01*
X119086107Y-46948368D01*
X119066401Y-46933753D01*
X119048223Y-46917277D01*
X119031747Y-46899099D01*
X119017132Y-46879393D01*
X119004520Y-46858350D01*
X118994030Y-46836171D01*
X118985765Y-46813072D01*
X118979804Y-46789273D01*
X118976204Y-46765005D01*
X118975000Y-46740501D01*
X118975000Y-45715499D01*
X118976204Y-45690995D01*
X118979804Y-45666727D01*
X118985765Y-45642928D01*
X118994030Y-45619829D01*
X119004520Y-45597650D01*
X119017132Y-45576607D01*
X119031747Y-45556901D01*
X119048223Y-45538723D01*
X119066401Y-45522247D01*
X119086107Y-45507632D01*
X119107150Y-45495020D01*
X119129329Y-45484530D01*
X119152428Y-45476265D01*
X119176227Y-45470304D01*
X119200495Y-45466704D01*
X119224999Y-45465500D01*
X122075001Y-45465500D01*
X122099505Y-45466704D01*
X122099505Y-45466704D01*
G37*
D27*
G04 #@! TD*
G04 #@! TO.P,R15,1*
G04 #@! TO.N,/PHASE_C*
X120650000Y-46228000D03*
D13*
G04 #@! TO.N,/gatedrivers/PHASEC_SOURCE*
G04 #@! TO.C,R15*
G36*
X122099505Y-51441704D02*
X122123773Y-51445304D01*
X122147572Y-51451265D01*
X122170671Y-51459530D01*
X122192850Y-51470020D01*
X122213893Y-51482632D01*
X122233599Y-51497247D01*
X122251777Y-51513723D01*
X122268253Y-51531901D01*
X122282868Y-51551607D01*
X122295480Y-51572650D01*
X122305970Y-51594829D01*
X122314235Y-51617928D01*
X122320196Y-51641727D01*
X122323796Y-51665995D01*
X122325000Y-51690499D01*
X122325000Y-52715501D01*
X122323796Y-52740005D01*
X122320196Y-52764273D01*
X122314235Y-52788072D01*
X122305970Y-52811171D01*
X122295480Y-52833350D01*
X122282868Y-52854393D01*
X122268253Y-52874099D01*
X122251777Y-52892277D01*
X122233599Y-52908753D01*
X122213893Y-52923368D01*
X122192850Y-52935980D01*
X122170671Y-52946470D01*
X122147572Y-52954735D01*
X122123773Y-52960696D01*
X122099505Y-52964296D01*
X122075001Y-52965500D01*
X119224999Y-52965500D01*
X119200495Y-52964296D01*
X119176227Y-52960696D01*
X119152428Y-52954735D01*
X119129329Y-52946470D01*
X119107150Y-52935980D01*
X119086107Y-52923368D01*
X119066401Y-52908753D01*
X119048223Y-52892277D01*
X119031747Y-52874099D01*
X119017132Y-52854393D01*
X119004520Y-52833350D01*
X118994030Y-52811171D01*
X118985765Y-52788072D01*
X118979804Y-52764273D01*
X118976204Y-52740005D01*
X118975000Y-52715501D01*
X118975000Y-51690499D01*
X118976204Y-51665995D01*
X118979804Y-51641727D01*
X118985765Y-51617928D01*
X118994030Y-51594829D01*
X119004520Y-51572650D01*
X119017132Y-51551607D01*
X119031747Y-51531901D01*
X119048223Y-51513723D01*
X119066401Y-51497247D01*
X119086107Y-51482632D01*
X119107150Y-51470020D01*
X119129329Y-51459530D01*
X119152428Y-51451265D01*
X119176227Y-51445304D01*
X119200495Y-51441704D01*
X119224999Y-51440500D01*
X122075001Y-51440500D01*
X122099505Y-51441704D01*
X122099505Y-51441704D01*
G37*
D27*
G04 #@! TD*
G04 #@! TO.P,R15,2*
G04 #@! TO.N,/gatedrivers/PHASEC_SOURCE*
X120650000Y-52203000D03*
D28*
G04 #@! TO.P,U1,8*
G04 #@! TO.N,/gatedrivers/LO_A*
X196453000Y-107060000D03*
G04 #@! TO.P,U1,7*
G04 #@! TO.N,/GND*
X196453000Y-108330000D03*
G04 #@! TO.P,U1,6*
G04 #@! TO.N,/LS_A_TTL_PWM*
X196453000Y-109600000D03*
G04 #@! TO.P,U1,5*
G04 #@! TO.N,/HS_A_TTL_PWM*
X196453000Y-110870000D03*
G04 #@! TO.P,U1,4*
G04 #@! TO.N,/gatedrivers/PHASEA_SOURCE*
X191053000Y-110870000D03*
G04 #@! TO.P,U1,3*
G04 #@! TO.N,/gatedrivers/HO_A*
X191053000Y-109600000D03*
G04 #@! TO.P,U1,2*
G04 #@! TO.N,Net-(C8-Pad1)*
X191053000Y-108330000D03*
G04 #@! TO.P,U1,1*
G04 #@! TO.N,/12v*
X191053000Y-107060000D03*
G04 #@! TD*
G04 #@! TO.P,U2,1*
G04 #@! TO.N,/12v*
X156050000Y-111665500D03*
G04 #@! TO.P,U2,2*
G04 #@! TO.N,Net-(C9-Pad1)*
X156050000Y-112935500D03*
G04 #@! TO.P,U2,3*
G04 #@! TO.N,/gatedrivers/HO_B*
X156050000Y-114205500D03*
G04 #@! TO.P,U2,4*
G04 #@! TO.N,/gatedrivers/PHASEB_SOURCE*
X156050000Y-115475500D03*
G04 #@! TO.P,U2,5*
G04 #@! TO.N,/HS_B_TTL_PWM*
X161450000Y-115475500D03*
G04 #@! TO.P,U2,6*
G04 #@! TO.N,/LS_B_TTL_PWM*
X161450000Y-114205500D03*
G04 #@! TO.P,U2,7*
G04 #@! TO.N,/GND*
X161450000Y-112935500D03*
G04 #@! TO.P,U2,8*
G04 #@! TO.N,/gatedrivers/LO_B*
X161450000Y-111665500D03*
G04 #@! TD*
G04 #@! TO.P,U3,1*
G04 #@! TO.N,/12v*
X127017800Y-107131600D03*
G04 #@! TO.P,U3,2*
G04 #@! TO.N,Net-(C10-Pad1)*
X127017800Y-108401600D03*
G04 #@! TO.P,U3,3*
G04 #@! TO.N,/gatedrivers/HO_C*
X127017800Y-109671600D03*
G04 #@! TO.P,U3,4*
G04 #@! TO.N,/gatedrivers/PHASEC_SOURCE*
X127017800Y-110941600D03*
G04 #@! TO.P,U3,5*
G04 #@! TO.N,/HS_C_TTL_PWM*
X132417800Y-110941600D03*
G04 #@! TO.P,U3,6*
G04 #@! TO.N,/LS_C_TTL_PWM*
X132417800Y-109671600D03*
G04 #@! TO.P,U3,7*
G04 #@! TO.N,/GND*
X132417800Y-108401600D03*
G04 #@! TO.P,U3,8*
G04 #@! TO.N,/gatedrivers/LO_C*
X132417800Y-107131600D03*
G04 #@! TD*
G04 #@! TO.P,U4,1*
G04 #@! TO.N,/PHASE_A*
X182221000Y-123130500D03*
G04 #@! TO.P,U4,2*
G04 #@! TO.N,/GND*
X182221000Y-124400500D03*
G04 #@! TO.P,U4,3*
X182221000Y-125670500D03*
G04 #@! TO.P,U4,4*
G04 #@! TO.N,Net-(U4-Pad4)*
X182221000Y-126940500D03*
G04 #@! TO.P,U4,5*
G04 #@! TO.N,/PHASEA_FB*
X187621000Y-126940500D03*
G04 #@! TO.P,U4,6*
G04 #@! TO.N,/5v*
X187621000Y-125670500D03*
G04 #@! TO.P,U4,7*
X187621000Y-124400500D03*
G04 #@! TO.P,U4,8*
G04 #@! TO.N,/gatedrivers/PHASEA_SOURCE*
X187621000Y-123130500D03*
G04 #@! TD*
G04 #@! TO.P,U5,8*
G04 #@! TO.N,/gatedrivers/PHASEB_SOURCE*
X173841000Y-123130500D03*
G04 #@! TO.P,U5,7*
G04 #@! TO.N,/5v*
X173841000Y-124400500D03*
G04 #@! TO.P,U5,6*
X173841000Y-125670500D03*
G04 #@! TO.P,U5,5*
G04 #@! TO.N,/PHASEB_FB*
X173841000Y-126940500D03*
G04 #@! TO.P,U5,4*
G04 #@! TO.N,Net-(U5-Pad4)*
X168441000Y-126940500D03*
G04 #@! TO.P,U5,3*
G04 #@! TO.N,/GND*
X168441000Y-125670500D03*
G04 #@! TO.P,U5,2*
X168441000Y-124400500D03*
G04 #@! TO.P,U5,1*
G04 #@! TO.N,/PHASE_B*
X168441000Y-123130500D03*
G04 #@! TD*
D29*
G04 #@! TO.N,/48v*
X171450000Y-88646000D03*
X104140000Y-80518000D03*
X106840000Y-80518000D03*
X109540000Y-80518000D03*
X112240000Y-80518000D03*
X104140000Y-82518000D03*
X106840000Y-82518000D03*
X109540000Y-82518000D03*
X112240000Y-82518000D03*
X104140000Y-84518000D03*
X106840000Y-84518000D03*
X109540000Y-84518000D03*
X112240000Y-84518000D03*
X104140000Y-86518000D03*
X106840000Y-86518000D03*
X109540000Y-86518000D03*
X112240000Y-86518000D03*
X104140000Y-88518000D03*
X106840000Y-88518000D03*
X109540000Y-88518000D03*
X112240000Y-88518000D03*
X104140000Y-90518000D03*
X106840000Y-90518000D03*
X109540000Y-90518000D03*
X112240000Y-90518000D03*
X140101000Y-88646000D03*
X142101000Y-88646000D03*
X144101000Y-88646000D03*
X146101000Y-88646000D03*
X148101000Y-88646000D03*
X150101000Y-88646000D03*
X140101000Y-91346000D03*
X142101000Y-91346000D03*
X144101000Y-91346000D03*
X146101000Y-91346000D03*
X148101000Y-91346000D03*
X150101000Y-91346000D03*
X140101000Y-94046000D03*
X142101000Y-94046000D03*
X144101000Y-94046000D03*
X146101000Y-94046000D03*
X148101000Y-94046000D03*
X150101000Y-94046000D03*
X140101000Y-96746000D03*
X142101000Y-96746000D03*
X144101000Y-96746000D03*
X146101000Y-96746000D03*
X148101000Y-96746000D03*
X150101000Y-96746000D03*
X173350000Y-88646000D03*
X175250000Y-88646000D03*
X177150000Y-88646000D03*
X179050000Y-88646000D03*
X180950000Y-88646000D03*
X171450000Y-91346000D03*
X173350000Y-91346000D03*
X175250000Y-91346000D03*
X177150000Y-91346000D03*
X179050000Y-91346000D03*
X180950000Y-91346000D03*
X171450000Y-94046000D03*
X173350000Y-94046000D03*
X175250000Y-94046000D03*
X177150000Y-94046000D03*
X179050000Y-94046000D03*
X180950000Y-94046000D03*
X171450000Y-96746000D03*
X173350000Y-96746000D03*
X175250000Y-96746000D03*
X177150000Y-96746000D03*
X179050000Y-96746000D03*
X180950000Y-96746000D03*
X74168000Y-67135682D03*
X76200000Y-66294000D03*
X77041682Y-64262000D03*
X76200000Y-62230000D03*
X74168000Y-61388318D03*
X72136000Y-62230000D03*
X70117473Y-61420845D03*
X68118000Y-62276000D03*
X67308845Y-64294527D03*
X68164000Y-66294000D03*
X70182527Y-67103155D03*
X72182000Y-66248000D03*
X72250000Y-49784000D03*
X70198083Y-48894235D03*
X68118000Y-49716000D03*
X67228235Y-51767917D03*
X68050000Y-53848000D03*
X70101917Y-54737765D03*
X71380200Y-51748118D03*
X72154000Y-53752000D03*
X74118118Y-54621800D03*
X76122000Y-53848000D03*
X76991800Y-51883882D03*
X76218000Y-49880000D03*
X74253882Y-49010200D03*
X65024000Y-102870000D03*
X69024000Y-102870000D03*
X73024000Y-102870000D03*
X77024000Y-102870000D03*
X81024000Y-102870000D03*
X65024000Y-98870000D03*
X69024000Y-98870000D03*
X73024000Y-98870000D03*
X77024000Y-98870000D03*
X81024000Y-98870000D03*
X65024000Y-94870000D03*
X69024000Y-94870000D03*
X73024000Y-94870000D03*
X77024000Y-94870000D03*
X81024000Y-94870000D03*
X65024000Y-90870000D03*
X69024000Y-90870000D03*
X73024000Y-90870000D03*
X77024000Y-90870000D03*
X81024000Y-90870000D03*
X65024000Y-86870000D03*
X69024000Y-86870000D03*
X73024000Y-86870000D03*
X77024000Y-86870000D03*
X81024000Y-86870000D03*
G04 #@! TO.N,/GND*
X129794000Y-77470000D03*
X135587500Y-76150000D03*
X135612500Y-70450000D03*
X135612500Y-64975000D03*
X110907000Y-71347500D03*
X104962000Y-71347500D03*
X166116000Y-77978000D03*
X155702000Y-77470000D03*
X196088000Y-73406000D03*
X190246000Y-68834000D03*
D30*
X199136000Y-72390000D03*
D29*
X180594000Y-65278000D03*
X182394000Y-65278000D03*
X184194000Y-65278000D03*
X185994000Y-65278000D03*
X180594000Y-66778000D03*
X182394000Y-66778000D03*
X184194000Y-66778000D03*
X185994000Y-66778000D03*
X180594000Y-68278000D03*
X182394000Y-68278000D03*
X184194000Y-68278000D03*
X185994000Y-68278000D03*
X180594000Y-69778000D03*
X182394000Y-69778000D03*
X184194000Y-69778000D03*
X185994000Y-69778000D03*
X180594000Y-71278000D03*
X182394000Y-71278000D03*
X184194000Y-71278000D03*
X185994000Y-71278000D03*
X180594000Y-72778000D03*
X182394000Y-72778000D03*
X184194000Y-72778000D03*
X185994000Y-72778000D03*
X153924000Y-65532000D03*
X155724000Y-65532000D03*
X157524000Y-65532000D03*
X159324000Y-65532000D03*
X153924000Y-67032000D03*
X155724000Y-67032000D03*
X157524000Y-67032000D03*
X159324000Y-67032000D03*
X153924000Y-68532000D03*
X155724000Y-68532000D03*
X157524000Y-68532000D03*
X159324000Y-68532000D03*
X153924000Y-70032000D03*
X155724000Y-70032000D03*
X157524000Y-70032000D03*
X159324000Y-70032000D03*
X153924000Y-71532000D03*
X155724000Y-71532000D03*
X157524000Y-71532000D03*
X159324000Y-71532000D03*
X153924000Y-73032000D03*
X155724000Y-73032000D03*
X157524000Y-73032000D03*
X159324000Y-73032000D03*
X127762000Y-65786000D03*
X129562000Y-65786000D03*
X131362000Y-65786000D03*
X133162000Y-65786000D03*
X127762000Y-67186000D03*
X129562000Y-67186000D03*
X131362000Y-67186000D03*
X133162000Y-67186000D03*
X127762000Y-68586000D03*
X129562000Y-68586000D03*
X131362000Y-68586000D03*
X133162000Y-68586000D03*
X127762000Y-69986000D03*
X129562000Y-69986000D03*
X131362000Y-69986000D03*
X133162000Y-69986000D03*
X127762000Y-71386000D03*
X129562000Y-71386000D03*
X131362000Y-71386000D03*
X133162000Y-71386000D03*
X127762000Y-72786000D03*
X129562000Y-72786000D03*
X131362000Y-72786000D03*
X133162000Y-72786000D03*
X159512000Y-121920000D03*
X164592000Y-114046000D03*
X165100000Y-117602000D03*
X90932000Y-49784000D03*
X88900000Y-48942318D03*
X86868000Y-49784000D03*
X86026318Y-51816000D03*
X86868000Y-53848000D03*
X88900000Y-54689682D03*
X90932000Y-53848000D03*
X92964000Y-54689682D03*
X94996000Y-53848000D03*
X95837682Y-51816000D03*
X94996000Y-49784000D03*
X92964000Y-48942318D03*
X90932000Y-62230000D03*
X92964000Y-67135682D03*
X94996000Y-66294000D03*
X95837682Y-64262000D03*
X94996000Y-62230000D03*
X92964000Y-61388318D03*
X88900000Y-61388318D03*
X86868000Y-62230000D03*
X86026318Y-64262000D03*
X86868000Y-66294000D03*
X88900000Y-67135682D03*
X90932000Y-66294000D03*
X100584000Y-38862000D03*
X98584000Y-39862000D03*
X100584000Y-42862000D03*
X98584000Y-43862000D03*
X100584000Y-46862000D03*
X98584000Y-47862000D03*
X100584000Y-50862000D03*
X98584000Y-51862000D03*
X100584000Y-54862000D03*
X98584000Y-55862000D03*
X100584000Y-58862000D03*
X98584000Y-59862000D03*
X100584000Y-62862000D03*
X98584000Y-63862000D03*
X100584000Y-66862000D03*
X98584000Y-67862000D03*
X100584000Y-70862000D03*
X98584000Y-71862000D03*
X101092000Y-76962000D03*
X98584000Y-77978000D03*
G04 #@! TO.N,/12v*
X140970000Y-119920500D03*
X155956000Y-119920499D03*
G04 #@! TO.N,/5v*
X172166000Y-123200500D03*
X185946000Y-123200500D03*
G04 #@! TO.N,/gatedrivers/PHASEA_SOURCE*
X185166000Y-105156000D03*
X187706000Y-120142000D03*
X168656000Y-50800000D03*
X170156000Y-50800000D03*
X171656000Y-50800000D03*
X173156000Y-50800000D03*
X168656000Y-52300000D03*
X170156000Y-52300000D03*
X171656000Y-52300000D03*
X173156000Y-52300000D03*
X168656000Y-53800000D03*
X170156000Y-53800000D03*
X171656000Y-53800000D03*
X173156000Y-53800000D03*
G04 #@! TO.N,/gatedrivers/PHASEB_SOURCE*
X143764000Y-50546000D03*
X145264000Y-50546000D03*
X146764000Y-50546000D03*
X148264000Y-50546000D03*
X143764000Y-52046000D03*
X145264000Y-52046000D03*
X146764000Y-52046000D03*
X148264000Y-52046000D03*
X143764000Y-53546000D03*
X145264000Y-53546000D03*
X146764000Y-53546000D03*
X148264000Y-53546000D03*
G04 #@! TO.N,/gatedrivers/PHASEC_SOURCE*
X118618000Y-50800000D03*
X120118000Y-50800000D03*
X121618000Y-50800000D03*
X123118000Y-50800000D03*
X118618000Y-52300000D03*
X120118000Y-52300000D03*
X121618000Y-52300000D03*
X123118000Y-52300000D03*
X118618000Y-53800000D03*
X120118000Y-53800000D03*
X121618000Y-53800000D03*
X123118000Y-53800000D03*
G04 #@! TO.N,/gatedrivers/HO_A*
X188976000Y-109728000D03*
X188214000Y-107188000D03*
G04 #@! TO.N,/gatedrivers/HO_B*
X153416000Y-114300000D03*
X153416000Y-111506000D03*
G04 #@! TO.N,/PHASEB_FB*
X168656000Y-133350000D03*
X173736000Y-128270000D03*
G04 #@! TO.N,/LS_C_TTL_PWM*
X130810000Y-109728000D03*
G04 #@! TO.N,/HS_C_TTL_PWM*
X130810000Y-110998000D03*
G04 #@! TO.N,/LS_B_TTL_PWM*
X159766000Y-114300000D03*
G04 #@! TO.N,/HS_B_TTL_PWM*
X159766000Y-115570000D03*
G04 #@! TO.N,/LS_A_TTL_PWM*
X194818000Y-109728000D03*
G04 #@! TO.N,/HS_A_TTL_PWM*
X194818000Y-110998000D03*
G04 #@! TO.N,/PHASE_A*
X180340000Y-117602000D03*
X180340000Y-113284000D03*
X168910000Y-48006000D03*
X170410000Y-48006000D03*
X171910000Y-48006000D03*
X173410000Y-48006000D03*
X168910000Y-46506000D03*
X170410000Y-46506000D03*
X171910000Y-46506000D03*
X173410000Y-46506000D03*
X168910000Y-45006000D03*
X170410000Y-45006000D03*
X171910000Y-45006000D03*
X173410000Y-45006000D03*
X187960000Y-42164000D03*
X185960000Y-42164000D03*
X183960000Y-42164000D03*
X181960000Y-42164000D03*
X179960000Y-42164000D03*
X177960000Y-42164000D03*
X187960000Y-44064000D03*
X177960000Y-44064000D03*
X187960000Y-45964000D03*
X177960000Y-45964000D03*
X187960000Y-47864000D03*
X185960000Y-47864000D03*
X183960000Y-47864000D03*
X181960000Y-47864000D03*
X179960000Y-47864000D03*
X177960000Y-47864000D03*
G04 #@! TO.N,/PHASE_B*
X166370000Y-116586000D03*
X166370000Y-113538000D03*
X143764000Y-47498000D03*
X145264000Y-47498000D03*
X146764000Y-47498000D03*
X148264000Y-47498000D03*
X143764000Y-45998000D03*
X145264000Y-45998000D03*
X146764000Y-45998000D03*
X148264000Y-45998000D03*
X143764000Y-44498000D03*
X145264000Y-44498000D03*
X146764000Y-44498000D03*
X148264000Y-44498000D03*
X163068000Y-42164000D03*
X161068000Y-42164000D03*
X159068000Y-42164000D03*
X157068000Y-42164000D03*
X155068000Y-42164000D03*
X153068000Y-42164000D03*
X163068000Y-44064000D03*
X153068000Y-44064000D03*
X163068000Y-45964000D03*
X153068000Y-45964000D03*
X163068000Y-47864000D03*
X161068000Y-47864000D03*
X159068000Y-47864000D03*
X157068000Y-47864000D03*
X155068000Y-47864000D03*
X153068000Y-47864000D03*
G04 #@! TO.N,/PHASE_C*
X118364000Y-47244000D03*
X119864000Y-47244000D03*
X121364000Y-47244000D03*
X122864000Y-47244000D03*
X118364000Y-45744000D03*
X119864000Y-45744000D03*
X121364000Y-45744000D03*
X122864000Y-45744000D03*
X118364000Y-44244000D03*
X119864000Y-44244000D03*
X121364000Y-44244000D03*
X122864000Y-44244000D03*
X137668000Y-42164000D03*
X135668000Y-42164000D03*
X133668000Y-42164000D03*
X131668000Y-42164000D03*
X129668000Y-42164000D03*
X127668000Y-42164000D03*
X137668000Y-44014000D03*
X127668000Y-44014000D03*
X137668000Y-45864000D03*
X127668000Y-45864000D03*
X137668000Y-47714000D03*
X135668000Y-47714000D03*
X133668000Y-47714000D03*
X131668000Y-47714000D03*
X129668000Y-47714000D03*
X127668000Y-47714000D03*
G04 #@! TD*
D31*
G04 #@! TO.N,/48v*
X104962000Y-82112000D02*
X108325000Y-85475000D01*
X104962000Y-74322500D02*
X104962000Y-82112000D01*
X110907000Y-82893000D02*
X108325000Y-85475000D01*
X110907000Y-74322500D02*
X110907000Y-82893000D01*
X100452000Y-74322500D02*
X104962000Y-74322500D01*
X99477000Y-74322500D02*
X100452000Y-74322500D01*
X138587500Y-65950000D02*
X138587500Y-70450000D01*
X138587500Y-64975000D02*
X138587500Y-65950000D01*
X138587500Y-76125000D02*
X138562500Y-76150000D01*
X138587500Y-70450000D02*
X138587500Y-76125000D01*
X144334000Y-92879000D02*
X145034000Y-92879000D01*
X138562500Y-87107500D02*
X138577000Y-87122000D01*
X138562500Y-76150000D02*
X138562500Y-87107500D01*
X138577000Y-87122000D02*
X140101000Y-88646000D01*
D32*
X88138000Y-99568000D02*
X90170000Y-97536000D01*
X88138000Y-108966000D02*
X88138000Y-99568000D01*
D31*
X176015000Y-93902000D02*
X177165000Y-92752000D01*
X170065000Y-100918500D02*
X176015000Y-100918500D01*
X176054000Y-100957500D02*
X176015000Y-100918500D01*
X182569000Y-100957500D02*
X176054000Y-100957500D01*
X176015000Y-92977000D02*
X176276000Y-92716000D01*
X176015000Y-100918500D02*
X176015000Y-92977000D01*
X140101000Y-88646000D02*
X144334000Y-92879000D01*
G04 #@! TO.N,/GND*
X130867500Y-79311000D02*
X129794000Y-79311000D01*
X133858000Y-82301500D02*
X130867500Y-79311000D01*
X129794000Y-79311000D02*
X129794000Y-77470000D01*
X159608000Y-84424000D02*
X159802500Y-84424000D01*
X155796000Y-78963000D02*
X155796000Y-80621000D01*
X156269500Y-81085500D02*
X159608000Y-84424000D01*
X156260500Y-81085500D02*
X156269500Y-81085500D01*
X155796000Y-80621000D02*
X156260500Y-81085500D01*
X155796000Y-78963000D02*
X155796000Y-77564000D01*
X155796000Y-77564000D02*
X155702000Y-77470000D01*
X196088000Y-74458500D02*
X196088000Y-73406000D01*
X190250000Y-70925000D02*
X190250000Y-68838000D01*
X190250000Y-68838000D02*
X190246000Y-68834000D01*
D33*
X217575000Y-87200000D02*
X202765000Y-72390000D01*
X202765000Y-72390000D02*
X199136000Y-72390000D01*
X86026000Y-85892000D02*
X90170000Y-90036000D01*
X86026000Y-76200000D02*
X86026000Y-85892000D01*
D32*
X85598000Y-111506000D02*
X84074000Y-111506000D01*
X130612400Y-108401600D02*
X132417800Y-108401600D01*
X129540000Y-109474000D02*
X130612400Y-108401600D01*
X129540000Y-112740000D02*
X129540000Y-109474000D01*
X130800000Y-114800000D02*
X130800000Y-114000000D01*
X130800000Y-114000000D02*
X129540000Y-112740000D01*
X194692000Y-108330000D02*
X196453000Y-108330000D01*
X193802000Y-109220000D02*
X194692000Y-108330000D01*
X194778000Y-115061000D02*
X193802000Y-114085000D01*
X193802000Y-114085000D02*
X193802000Y-109220000D01*
D31*
X176054000Y-103932500D02*
X176015000Y-103893500D01*
X182569000Y-103932500D02*
X176054000Y-103932500D01*
X176015000Y-103893500D02*
X170065000Y-103893500D01*
D32*
X184912000Y-116586000D02*
X193253000Y-116586000D01*
X193253000Y-116586000D02*
X194778000Y-115061000D01*
X183896000Y-118685500D02*
X183896000Y-117602000D01*
X183896000Y-117602000D02*
X184912000Y-116586000D01*
X182221000Y-125670500D02*
X182221000Y-124400500D01*
X183896000Y-119485500D02*
X183896000Y-118685500D01*
X183896000Y-123200500D02*
X183896000Y-119485500D01*
X182696000Y-124400500D02*
X183896000Y-123200500D01*
X182221000Y-124400500D02*
X182696000Y-124400500D01*
X168441000Y-125670500D02*
X168441000Y-124400500D01*
X170116000Y-119485500D02*
X170116000Y-118685500D01*
X168916000Y-124400500D02*
X170116000Y-123200500D01*
X170116000Y-123200500D02*
X170116000Y-119485500D01*
X168441000Y-124400500D02*
X168916000Y-124400500D01*
X170116000Y-118685500D02*
X170116000Y-117158000D01*
X170116000Y-117158000D02*
X170942000Y-116332000D01*
X182626000Y-116332000D02*
X183896000Y-117602000D01*
X170942000Y-116332000D02*
X182626000Y-116332000D01*
X159512000Y-119929500D02*
X159521000Y-119920500D01*
X159512000Y-121920000D02*
X159512000Y-119929500D01*
D31*
X167894000Y-79756000D02*
X166116000Y-77978000D01*
X167894000Y-103124000D02*
X167894000Y-79756000D01*
X170065000Y-103893500D02*
X168663500Y-103893500D01*
X168663500Y-103893500D02*
X167894000Y-103124000D01*
D32*
X163262500Y-125670500D02*
X159512000Y-121920000D01*
X168441000Y-125670500D02*
X163262500Y-125670500D01*
X146000000Y-119076000D02*
X146000000Y-128220000D01*
X130800000Y-114800000D02*
X141724000Y-114800000D01*
X141724000Y-114800000D02*
X146000000Y-119076000D01*
X89662000Y-134620000D02*
X121925000Y-134620000D01*
X121925000Y-134620000D02*
X128325000Y-128220000D01*
X82296000Y-127254000D02*
X89662000Y-134620000D01*
X84074000Y-111506000D02*
X82296000Y-113284000D01*
X82296000Y-113284000D02*
X82296000Y-127254000D01*
X161450000Y-112935500D02*
X163481500Y-112935500D01*
X163481500Y-112935500D02*
X164592000Y-114046000D01*
X162781500Y-119920500D02*
X159521000Y-119920500D01*
X165100000Y-117602000D02*
X162781500Y-119920500D01*
X84074000Y-111506000D02*
X83566000Y-110998000D01*
X84702000Y-95504000D02*
X90170000Y-90036000D01*
X83566000Y-96640000D02*
X84702000Y-95504000D01*
X83566000Y-110998000D02*
X83566000Y-96640000D01*
G04 #@! TO.N,/12v*
X88138000Y-111506000D02*
X103886000Y-111506000D01*
X107180000Y-114800000D02*
X128750000Y-114800000D01*
X103886000Y-111506000D02*
X107180000Y-114800000D01*
X128524000Y-107608800D02*
X128524000Y-114574000D01*
X128524000Y-114574000D02*
X128750000Y-114800000D01*
X127017800Y-107131600D02*
X128046800Y-107131600D01*
X128046800Y-107131600D02*
X128524000Y-107608800D01*
X128750000Y-114800000D02*
X133870500Y-119920500D01*
X157471000Y-119920500D02*
X157471000Y-115579000D01*
X157471000Y-115579000D02*
X157480000Y-115570000D01*
X156525000Y-111665500D02*
X156050000Y-111665500D01*
X157480000Y-112620500D02*
X156525000Y-111665500D01*
X157480000Y-115570000D02*
X157480000Y-112620500D01*
X133870500Y-119920500D02*
X140970000Y-119920500D01*
X191528000Y-107060000D02*
X191053000Y-107060000D01*
X192728000Y-108260000D02*
X191528000Y-107060000D01*
X192728000Y-115061000D02*
X192728000Y-108260000D01*
X157471000Y-119920500D02*
X157471000Y-118881000D01*
X157471000Y-118881000D02*
X158750000Y-117602000D01*
X158750000Y-117602000D02*
X163322000Y-117602000D01*
X165863000Y-115061000D02*
X192728000Y-115061000D01*
X163322000Y-117602000D02*
X165863000Y-115061000D01*
X157470999Y-119920499D02*
X157471000Y-119920500D01*
X155956000Y-119920499D02*
X157470999Y-119920499D01*
G04 #@! TO.N,/5v*
X173841000Y-125670500D02*
X173841000Y-124400500D01*
X187621000Y-125670500D02*
X187621000Y-124400500D01*
X187146000Y-124400500D02*
X187621000Y-124400500D01*
X185946000Y-123200500D02*
X187146000Y-124400500D01*
X185946000Y-118685500D02*
X185946000Y-123200500D01*
X173366000Y-124400500D02*
X173841000Y-124400500D01*
X172166000Y-123200500D02*
X173366000Y-124400500D01*
X172166000Y-118685500D02*
X172166000Y-123200500D01*
D31*
G04 #@! TO.N,Net-(C8-Pad1)*
X185534500Y-108330000D02*
X185498000Y-108366500D01*
X191053000Y-108330000D02*
X185534500Y-108330000D01*
G04 #@! TO.N,/gatedrivers/PHASEA_SOURCE*
X190581500Y-111341500D02*
X191053000Y-110870000D01*
X185498000Y-111341500D02*
X190581500Y-111341500D01*
X189922500Y-84391000D02*
X188214000Y-84391000D01*
X194056000Y-88524500D02*
X189922500Y-84391000D01*
X188214000Y-82133000D02*
X185329000Y-79248000D01*
X188214000Y-84391000D02*
X188214000Y-82133000D01*
X185329000Y-79248000D02*
X178562000Y-79248000D01*
X185498000Y-111341500D02*
X183477500Y-111341500D01*
X183477500Y-111341500D02*
X182880000Y-110744000D01*
X182880000Y-107696000D02*
X182880000Y-107442000D01*
X182880000Y-110744000D02*
X182880000Y-107696000D01*
X182880000Y-107442000D02*
X185166000Y-105156000D01*
X185166000Y-105156000D02*
X185166000Y-89154000D01*
X185166000Y-89154000D02*
X182880000Y-86868000D01*
X182880000Y-86868000D02*
X178816000Y-86868000D01*
X185166000Y-105156000D02*
X185166000Y-105156000D01*
X187706000Y-123045500D02*
X187621000Y-123130500D01*
X187706000Y-120142000D02*
X187706000Y-123045500D01*
G04 #@! TO.N,Net-(C9-Pad1)*
X156013500Y-112972000D02*
X156050000Y-112935500D01*
X149860000Y-112972000D02*
X156013500Y-112972000D01*
G04 #@! TO.N,/gatedrivers/PHASEB_SOURCE*
X155578500Y-115947000D02*
X156050000Y-115475500D01*
X149860000Y-115947000D02*
X155578500Y-115947000D01*
X153071500Y-90335500D02*
X154907000Y-92171000D01*
X153071500Y-86075000D02*
X153071500Y-90335500D01*
X144272000Y-110359000D02*
X149860000Y-115947000D01*
X154907000Y-92171000D02*
X154907000Y-95283000D01*
X154907000Y-95283000D02*
X150622000Y-99568000D01*
X144272000Y-101346000D02*
X144272000Y-110359000D01*
X150622000Y-99568000D02*
X146050000Y-99568000D01*
X146050000Y-99568000D02*
X144272000Y-101346000D01*
X152259000Y-86075000D02*
X152228000Y-86106000D01*
X153071500Y-86075000D02*
X152259000Y-86075000D01*
X177800000Y-124460000D02*
X176470500Y-123130500D01*
X159766000Y-130556000D02*
X175006000Y-130556000D01*
X175006000Y-130556000D02*
X177800000Y-127762000D01*
X176470500Y-123130500D02*
X173841000Y-123130500D01*
X149860000Y-120650000D02*
X159766000Y-130556000D01*
X149860000Y-115947000D02*
X149860000Y-120650000D01*
X177800000Y-127762000D02*
X177800000Y-124460000D01*
G04 #@! TO.N,Net-(C10-Pad1)*
X121101600Y-108401600D02*
X120904000Y-108204000D01*
X127017800Y-108401600D02*
X121101600Y-108401600D01*
G04 #@! TO.N,/gatedrivers/PHASEC_SOURCE*
X121141400Y-110941600D02*
X120904000Y-111179000D01*
X127017800Y-110941600D02*
X121141400Y-110941600D01*
X120904000Y-111179000D02*
X108131000Y-111179000D01*
X108131000Y-111179000D02*
X104902000Y-107950000D01*
X104902000Y-107950000D02*
X104902000Y-102108000D01*
X104902000Y-102108000D02*
X114046000Y-92964000D01*
X114667000Y-88015000D02*
X117475000Y-88015000D01*
X114046000Y-88636000D02*
X114667000Y-88015000D01*
X114046000Y-92964000D02*
X114046000Y-88636000D01*
X123137500Y-97165500D02*
X122588000Y-96616000D01*
X123137500Y-101775000D02*
X123137500Y-97165500D01*
X122588000Y-96616000D02*
X122588000Y-87978000D01*
G04 #@! TO.N,/mosfets/HS_A_GATE*
X188341000Y-89918000D02*
X188214000Y-89791000D01*
X188341000Y-95787500D02*
X188341000Y-89918000D01*
X189295500Y-96742000D02*
X188341000Y-95787500D01*
X194056000Y-96742000D02*
X189295500Y-96742000D01*
X189922500Y-91499500D02*
X188214000Y-89791000D01*
X194056000Y-91499500D02*
X189922500Y-91499500D01*
X182589000Y-83566000D02*
X180086000Y-83566000D01*
X188214000Y-89791000D02*
X188214000Y-89191000D01*
X188214000Y-89191000D02*
X182589000Y-83566000D01*
G04 #@! TO.N,/gatedrivers/HO_A*
X190986500Y-99117000D02*
X194056000Y-99117000D01*
X188341000Y-101762500D02*
X190986500Y-99117000D01*
X191053000Y-109600000D02*
X189104000Y-109600000D01*
X189104000Y-109600000D02*
X188976000Y-109728000D01*
X188214000Y-101889500D02*
X188341000Y-101762500D01*
X188214000Y-107188000D02*
X188214000Y-101889500D01*
G04 #@! TO.N,/gatedrivers/LO_A*
X196928000Y-107060000D02*
X196453000Y-107060000D01*
X200660000Y-103328000D02*
X196928000Y-107060000D01*
X200660000Y-90078500D02*
X200660000Y-103328000D01*
X195199000Y-84617500D02*
X195199000Y-84131000D01*
X200660000Y-89661000D02*
X200660000Y-90078500D01*
X195580000Y-84581000D02*
X200660000Y-89661000D01*
X195580000Y-84131000D02*
X195580000Y-84581000D01*
G04 #@! TO.N,Net-(D2-Pad2)*
X200660000Y-84103500D02*
X198312500Y-81756000D01*
X182051000Y-75172000D02*
X182051000Y-74264000D01*
X183204000Y-76325000D02*
X182051000Y-75172000D01*
X190250000Y-76325000D02*
X183204000Y-76325000D01*
X198312500Y-81756000D02*
X195580000Y-81756000D01*
X195580000Y-77941500D02*
X196088000Y-77433500D01*
X195580000Y-81756000D02*
X195580000Y-77941500D01*
X194979500Y-76325000D02*
X196088000Y-77433500D01*
X190250000Y-76325000D02*
X194979500Y-76325000D01*
G04 #@! TO.N,/gatedrivers/HO_B*
X146812000Y-105409000D02*
X146812000Y-104959000D01*
X148245500Y-106842500D02*
X146812000Y-105409000D01*
X153162000Y-106842500D02*
X148245500Y-106842500D01*
X156050000Y-114205500D02*
X153510500Y-114205500D01*
X153510500Y-114205500D02*
X153416000Y-114300000D01*
X153416000Y-107096500D02*
X153162000Y-106842500D01*
X153416000Y-111506000D02*
X153416000Y-107096500D01*
G04 #@! TO.N,Net-(D5-Pad2)*
X151445500Y-102584000D02*
X153162000Y-100867500D01*
X146812000Y-102584000D02*
X151445500Y-102584000D01*
X153162000Y-98716000D02*
X159707000Y-92171000D01*
X159707000Y-92171000D02*
X160307000Y-92171000D01*
X153162000Y-100867500D02*
X153162000Y-98716000D01*
X160307000Y-89523000D02*
X160307000Y-90513000D01*
X156859000Y-86075000D02*
X160307000Y-89523000D01*
X160307000Y-90513000D02*
X160307000Y-92171000D01*
X156046500Y-86075000D02*
X156859000Y-86075000D01*
X153700500Y-83729000D02*
X156046500Y-86075000D01*
X148844000Y-83729000D02*
X153700500Y-83729000D01*
G04 #@! TO.N,Net-(D6-Pad2)*
X160970500Y-101314000D02*
X163703000Y-98581500D01*
X158623000Y-101314000D02*
X160970500Y-101314000D01*
X163703000Y-85349500D02*
X162777500Y-84424000D01*
X163703000Y-98581500D02*
X163703000Y-85349500D01*
X162777500Y-80544500D02*
X161196000Y-78963000D01*
X162777500Y-84424000D02*
X162777500Y-80544500D01*
X161196000Y-78963000D02*
X161196000Y-77122000D01*
X161196000Y-76810000D02*
X161196000Y-77122000D01*
X158631000Y-74245000D02*
X161196000Y-76810000D01*
X155823000Y-74245000D02*
X158631000Y-74245000D01*
G04 #@! TO.N,/gatedrivers/LO_B*
X159881000Y-103689000D02*
X158623000Y-103689000D01*
X161450000Y-105258000D02*
X159881000Y-103689000D01*
X161450000Y-111665500D02*
X161450000Y-105258000D01*
X161928000Y-104556500D02*
X163703000Y-104556500D01*
X161450000Y-105034500D02*
X161928000Y-104556500D01*
X161450000Y-105258000D02*
X161450000Y-105034500D01*
G04 #@! TO.N,Net-(D11-Pad1)*
X117475000Y-96329000D02*
X117188000Y-96616000D01*
X117475000Y-89285000D02*
X117475000Y-96329000D01*
X117188000Y-100524500D02*
X114675000Y-103037500D01*
X117188000Y-96616000D02*
X117188000Y-100524500D01*
X107687500Y-103037500D02*
X107675000Y-103025000D01*
X114675000Y-103037500D02*
X107687500Y-103037500D01*
X118438500Y-101775000D02*
X117188000Y-100524500D01*
X120162500Y-101775000D02*
X118438500Y-101775000D01*
G04 #@! TO.N,/gatedrivers/HO_C*
X107675000Y-105850000D02*
X107675000Y-105400000D01*
X110837500Y-109012500D02*
X107675000Y-105850000D01*
X114675000Y-109012500D02*
X110837500Y-109012500D01*
X114675000Y-109012500D02*
X118156500Y-109012500D01*
X118815600Y-109671600D02*
X127017800Y-109671600D01*
X118156500Y-109012500D02*
X118815600Y-109671600D01*
G04 #@! TO.N,/gatedrivers/LO_C*
X132417800Y-100957300D02*
X128778000Y-97317500D01*
X132417800Y-107131600D02*
X132417800Y-100957300D01*
X133244500Y-97317500D02*
X133858000Y-96704000D01*
X128778000Y-97317500D02*
X133244500Y-97317500D01*
G04 #@! TO.N,Net-(D10-Pad2)*
X128778000Y-91342500D02*
X128778000Y-89154000D01*
X129794000Y-88138000D02*
X129794000Y-84711000D01*
X128778000Y-89154000D02*
X129794000Y-88138000D01*
X130359500Y-85276500D02*
X129794000Y-84711000D01*
X133858000Y-85276500D02*
X130359500Y-85276500D01*
X131764500Y-94329000D02*
X128778000Y-91342500D01*
X133858000Y-94329000D02*
X131764500Y-94329000D01*
X129698000Y-74264000D02*
X130235000Y-74264000D01*
X127508000Y-76454000D02*
X129698000Y-74264000D01*
X127508000Y-81825000D02*
X127508000Y-76454000D01*
X129794000Y-84711000D02*
X129794000Y-84111000D01*
X129794000Y-84111000D02*
X127508000Y-81825000D01*
D32*
G04 #@! TO.N,/PHASEA_FB*
X104140000Y-114046000D02*
X88138000Y-114046000D01*
X108204000Y-118110000D02*
X104140000Y-114046000D01*
X187621000Y-128863000D02*
X184404000Y-132080000D01*
X187621000Y-126940500D02*
X187621000Y-128863000D01*
X143256000Y-132080000D02*
X129286000Y-118110000D01*
X184404000Y-132080000D02*
X143256000Y-132080000D01*
X129286000Y-118110000D02*
X108204000Y-118110000D01*
G04 #@! TO.N,/PHASEB_FB*
X86960999Y-115408999D02*
X103724999Y-115408999D01*
X85598000Y-114046000D02*
X86960999Y-115408999D01*
X103724999Y-115408999D02*
X107696000Y-119380000D01*
X107696000Y-119380000D02*
X128524000Y-119380000D01*
X128524000Y-119380000D02*
X142494000Y-133350000D01*
X142494000Y-133350000D02*
X168656000Y-133350000D01*
X173736000Y-127045500D02*
X173841000Y-126940500D01*
X173736000Y-128270000D02*
X173736000Y-127045500D01*
G04 #@! TO.N,/LS_C_TTL_PWM*
X132361400Y-109728000D02*
X132417800Y-109671600D01*
X130810000Y-109728000D02*
X132361400Y-109728000D01*
G04 #@! TO.N,/HS_C_TTL_PWM*
X132361400Y-110998000D02*
X132417800Y-110941600D01*
X130810000Y-110998000D02*
X132361400Y-110998000D01*
G04 #@! TO.N,/LS_B_TTL_PWM*
X161355500Y-114300000D02*
X161450000Y-114205500D01*
X159766000Y-114300000D02*
X161355500Y-114300000D01*
G04 #@! TO.N,/HS_B_TTL_PWM*
X161355500Y-115570000D02*
X161450000Y-115475500D01*
X159766000Y-115570000D02*
X161355500Y-115570000D01*
G04 #@! TO.N,/LS_A_TTL_PWM*
X196325000Y-109728000D02*
X196453000Y-109600000D01*
X194818000Y-109728000D02*
X196325000Y-109728000D01*
G04 #@! TO.N,/HS_A_TTL_PWM*
X196325000Y-110998000D02*
X196453000Y-110870000D01*
X194818000Y-110998000D02*
X196325000Y-110998000D01*
D34*
G04 #@! TO.N,/PHASE_A*
X182221000Y-123130500D02*
X182221000Y-119483000D01*
X182221000Y-119483000D02*
X180340000Y-117602000D01*
X180340000Y-113284000D02*
X180340000Y-109728000D01*
X180340000Y-109728000D02*
X176276000Y-105664000D01*
X176276000Y-105664000D02*
X169164000Y-105664000D01*
X169164000Y-105664000D02*
X167132000Y-103632000D01*
X167132000Y-103632000D02*
X167132000Y-101600000D01*
X167132000Y-101600000D02*
X167132000Y-80264000D01*
X167132000Y-80264000D02*
X165100000Y-78232000D01*
X165100000Y-78232000D02*
X165100000Y-76708000D01*
X165100000Y-76708000D02*
X165100000Y-56134000D01*
X165100000Y-56134000D02*
X165100000Y-49530000D01*
X165100000Y-49530000D02*
X165862000Y-48768000D01*
G04 #@! TO.N,/PHASE_B*
X168441000Y-123130500D02*
X168441000Y-118657000D01*
X168441000Y-118657000D02*
X166370000Y-116586000D01*
X166370000Y-113538000D02*
X166370000Y-80264000D01*
X166370000Y-80264000D02*
X164592000Y-78486000D01*
X164592000Y-78486000D02*
X164338000Y-78232000D01*
X164338000Y-78232000D02*
X164338000Y-55118000D01*
X164338000Y-55118000D02*
X164338000Y-48768000D01*
X164338000Y-48768000D02*
X164084000Y-48514000D01*
G04 #@! TD*
D32*
G04 #@! TO.N,/gatedrivers/PHASEC_SOURCE*
G36*
X126365000Y-88519000D02*
X120296094Y-88519000D01*
X120226185Y-88433815D01*
X120129494Y-88354463D01*
X120019180Y-88295498D01*
X119899482Y-88259188D01*
X119775000Y-88246928D01*
X115175000Y-88246928D01*
X115050518Y-88259188D01*
X114930820Y-88295498D01*
X114820506Y-88354463D01*
X114723815Y-88433815D01*
X114653906Y-88519000D01*
X114173000Y-88519000D01*
X114173000Y-50165000D01*
X126365000Y-50165000D01*
X126365000Y-88519000D01*
X126365000Y-88519000D01*
G37*
X126365000Y-88519000D02*
X120296094Y-88519000D01*
X120226185Y-88433815D01*
X120129494Y-88354463D01*
X120019180Y-88295498D01*
X119899482Y-88259188D01*
X119775000Y-88246928D01*
X115175000Y-88246928D01*
X115050518Y-88259188D01*
X114930820Y-88295498D01*
X114820506Y-88354463D01*
X114723815Y-88433815D01*
X114653906Y-88519000D01*
X114173000Y-88519000D01*
X114173000Y-50165000D01*
X126365000Y-50165000D01*
X126365000Y-88519000D01*
G04 #@! TO.N,/gatedrivers/PHASEB_SOURCE*
G36*
X152527000Y-82840000D02*
X149891440Y-82840000D01*
X149891440Y-81429000D01*
X149842157Y-81181235D01*
X149701809Y-80971191D01*
X149491765Y-80830843D01*
X149244000Y-80781560D01*
X148444000Y-80781560D01*
X148196235Y-80830843D01*
X147986191Y-80971191D01*
X147845843Y-81181235D01*
X147796560Y-81429000D01*
X147796560Y-86029000D01*
X147845843Y-86276765D01*
X147986191Y-86486809D01*
X148196235Y-86627157D01*
X148444000Y-86676440D01*
X149244000Y-86676440D01*
X149491765Y-86627157D01*
X149701809Y-86486809D01*
X149842157Y-86276765D01*
X149891440Y-86029000D01*
X149891440Y-84618000D01*
X152527000Y-84618000D01*
X152527000Y-87249000D01*
X140081000Y-87249000D01*
X140081000Y-49911000D01*
X152527000Y-49911000D01*
X152527000Y-82840000D01*
X152527000Y-82840000D01*
G37*
X152527000Y-82840000D02*
X149891440Y-82840000D01*
X149891440Y-81429000D01*
X149842157Y-81181235D01*
X149701809Y-80971191D01*
X149491765Y-80830843D01*
X149244000Y-80781560D01*
X148444000Y-80781560D01*
X148196235Y-80830843D01*
X147986191Y-80971191D01*
X147845843Y-81181235D01*
X147796560Y-81429000D01*
X147796560Y-86029000D01*
X147845843Y-86276765D01*
X147986191Y-86486809D01*
X148196235Y-86627157D01*
X148444000Y-86676440D01*
X149244000Y-86676440D01*
X149491765Y-86627157D01*
X149701809Y-86486809D01*
X149842157Y-86276765D01*
X149891440Y-86029000D01*
X149891440Y-84618000D01*
X152527000Y-84618000D01*
X152527000Y-87249000D01*
X140081000Y-87249000D01*
X140081000Y-49911000D01*
X152527000Y-49911000D01*
X152527000Y-82840000D01*
G04 #@! TO.N,/gatedrivers/PHASEA_SOURCE*
G36*
X179197000Y-65930150D02*
X179152843Y-65996235D01*
X179103560Y-66244000D01*
X179103560Y-67044000D01*
X179150304Y-67279000D01*
X179103560Y-67514000D01*
X179103560Y-68314000D01*
X179150304Y-68549000D01*
X179103560Y-68784000D01*
X179103560Y-69584000D01*
X179152843Y-69831765D01*
X179197000Y-69897850D01*
X179197000Y-71010150D01*
X179152843Y-71076235D01*
X179103560Y-71324000D01*
X179103560Y-72124000D01*
X179150304Y-72359000D01*
X179103560Y-72594000D01*
X179103560Y-73394000D01*
X179150304Y-73629000D01*
X179103560Y-73864000D01*
X179103560Y-74664000D01*
X179152843Y-74911765D01*
X179197000Y-74977850D01*
X179197000Y-80854871D01*
X179087843Y-81018235D01*
X179038560Y-81266000D01*
X179038560Y-85866000D01*
X179087843Y-86113765D01*
X179197000Y-86277129D01*
X179197000Y-87249000D01*
X168783000Y-87249000D01*
X168783000Y-79843555D01*
X168800416Y-79756000D01*
X168747328Y-79489111D01*
X168731419Y-79409130D01*
X168534933Y-79115067D01*
X168460707Y-79065471D01*
X167513000Y-78117765D01*
X167513000Y-49911000D01*
X179197000Y-49911000D01*
X179197000Y-65930150D01*
X179197000Y-65930150D01*
G37*
X179197000Y-65930150D02*
X179152843Y-65996235D01*
X179103560Y-66244000D01*
X179103560Y-67044000D01*
X179150304Y-67279000D01*
X179103560Y-67514000D01*
X179103560Y-68314000D01*
X179150304Y-68549000D01*
X179103560Y-68784000D01*
X179103560Y-69584000D01*
X179152843Y-69831765D01*
X179197000Y-69897850D01*
X179197000Y-71010150D01*
X179152843Y-71076235D01*
X179103560Y-71324000D01*
X179103560Y-72124000D01*
X179150304Y-72359000D01*
X179103560Y-72594000D01*
X179103560Y-73394000D01*
X179150304Y-73629000D01*
X179103560Y-73864000D01*
X179103560Y-74664000D01*
X179152843Y-74911765D01*
X179197000Y-74977850D01*
X179197000Y-80854871D01*
X179087843Y-81018235D01*
X179038560Y-81266000D01*
X179038560Y-85866000D01*
X179087843Y-86113765D01*
X179197000Y-86277129D01*
X179197000Y-87249000D01*
X168783000Y-87249000D01*
X168783000Y-79843555D01*
X168800416Y-79756000D01*
X168747328Y-79489111D01*
X168731419Y-79409130D01*
X168534933Y-79115067D01*
X168460707Y-79065471D01*
X167513000Y-78117765D01*
X167513000Y-49911000D01*
X179197000Y-49911000D01*
X179197000Y-65930150D01*
G04 #@! TO.N,/PHASE_C*
G36*
X138811000Y-48641000D02*
X114173000Y-48641000D01*
X114173000Y-37032000D01*
X138811000Y-37032000D01*
X138811000Y-48641000D01*
X138811000Y-48641000D01*
G37*
X138811000Y-48641000D02*
X114173000Y-48641000D01*
X114173000Y-37032000D01*
X138811000Y-37032000D01*
X138811000Y-48641000D01*
G04 #@! TO.N,/PHASE_B*
G36*
X164465000Y-48641000D02*
X140081000Y-48641000D01*
X140081000Y-37032000D01*
X164465000Y-37032000D01*
X164465000Y-48641000D01*
X164465000Y-48641000D01*
G37*
X164465000Y-48641000D02*
X140081000Y-48641000D01*
X140081000Y-37032000D01*
X164465000Y-37032000D01*
X164465000Y-48641000D01*
G04 #@! TO.N,/PHASE_A*
G36*
X189103000Y-48895000D02*
X165735000Y-48895000D01*
X165735000Y-37032000D01*
X189103000Y-37032000D01*
X189103000Y-48895000D01*
X189103000Y-48895000D01*
G37*
X189103000Y-48895000D02*
X165735000Y-48895000D01*
X165735000Y-37032000D01*
X189103000Y-37032000D01*
X189103000Y-48895000D01*
G04 #@! TO.N,/GND*
G36*
X133731000Y-73533000D02*
X133077541Y-73533000D01*
X132992809Y-73406191D01*
X132782765Y-73265843D01*
X132535000Y-73216560D01*
X127935000Y-73216560D01*
X127687235Y-73265843D01*
X127477191Y-73406191D01*
X127392459Y-73533000D01*
X127127000Y-73533000D01*
X127127000Y-65151000D01*
X133731000Y-65151000D01*
X133731000Y-73533000D01*
X133731000Y-73533000D01*
G37*
X133731000Y-73533000D02*
X133077541Y-73533000D01*
X132992809Y-73406191D01*
X132782765Y-73265843D01*
X132535000Y-73216560D01*
X127935000Y-73216560D01*
X127687235Y-73265843D01*
X127477191Y-73406191D01*
X127392459Y-73533000D01*
X127127000Y-73533000D01*
X127127000Y-65151000D01*
X133731000Y-65151000D01*
X133731000Y-73533000D01*
G36*
X160401000Y-73533000D02*
X159165573Y-73533000D01*
X158977870Y-73407581D01*
X158718556Y-73356000D01*
X158718555Y-73356000D01*
X158631000Y-73338584D01*
X158543445Y-73356000D01*
X158534129Y-73356000D01*
X158370765Y-73246843D01*
X158123000Y-73197560D01*
X153523000Y-73197560D01*
X153289000Y-73244105D01*
X153289000Y-64897000D01*
X160401000Y-64897000D01*
X160401000Y-73533000D01*
X160401000Y-73533000D01*
G37*
X160401000Y-73533000D02*
X159165573Y-73533000D01*
X158977870Y-73407581D01*
X158718556Y-73356000D01*
X158718555Y-73356000D01*
X158631000Y-73338584D01*
X158543445Y-73356000D01*
X158534129Y-73356000D01*
X158370765Y-73246843D01*
X158123000Y-73197560D01*
X153523000Y-73197560D01*
X153289000Y-73244105D01*
X153289000Y-64897000D01*
X160401000Y-64897000D01*
X160401000Y-73533000D01*
G36*
X186817000Y-73533000D02*
X184893541Y-73533000D01*
X184808809Y-73406191D01*
X184598765Y-73265843D01*
X184351000Y-73216560D01*
X179959000Y-73216560D01*
X179959000Y-64643000D01*
X186817000Y-64643000D01*
X186817000Y-73533000D01*
X186817000Y-73533000D01*
G37*
X186817000Y-73533000D02*
X184893541Y-73533000D01*
X184808809Y-73406191D01*
X184598765Y-73265843D01*
X184351000Y-73216560D01*
X179959000Y-73216560D01*
X179959000Y-64643000D01*
X186817000Y-64643000D01*
X186817000Y-73533000D01*
G04 #@! TO.N,/48v*
G36*
X82931000Y-80010394D02*
X82931000Y-96218783D01*
X82848213Y-96342683D01*
X82789073Y-96640000D01*
X82804001Y-96715048D01*
X82804000Y-104521000D01*
X63194000Y-104521000D01*
X63194000Y-39411248D01*
X63261388Y-38833249D01*
X63445766Y-38325295D01*
X63742057Y-37873376D01*
X64134364Y-37501742D01*
X64601641Y-37230325D01*
X65128132Y-37070866D01*
X65563619Y-37032000D01*
X82681126Y-37032000D01*
X82931000Y-80010394D01*
X82931000Y-80010394D01*
G37*
X82931000Y-80010394D02*
X82931000Y-96218783D01*
X82848213Y-96342683D01*
X82789073Y-96640000D01*
X82804001Y-96715048D01*
X82804000Y-104521000D01*
X63194000Y-104521000D01*
X63194000Y-39411248D01*
X63261388Y-38833249D01*
X63445766Y-38325295D01*
X63742057Y-37873376D01*
X64134364Y-37501742D01*
X64601641Y-37230325D01*
X65128132Y-37070866D01*
X65563619Y-37032000D01*
X82681126Y-37032000D01*
X82931000Y-80010394D01*
G04 #@! TO.N,/GND*
G36*
X102489000Y-73433500D02*
X100875624Y-73433500D01*
X100736586Y-73225414D01*
X100445435Y-73030874D01*
X100102000Y-72962560D01*
X98852000Y-72962560D01*
X98508565Y-73030874D01*
X98217414Y-73225414D01*
X98022874Y-73516565D01*
X97954560Y-73860000D01*
X97954560Y-74785000D01*
X98022874Y-75128435D01*
X98217414Y-75419586D01*
X98508565Y-75614126D01*
X98852000Y-75682440D01*
X100102000Y-75682440D01*
X100445435Y-75614126D01*
X100736586Y-75419586D01*
X100875624Y-75211500D01*
X102489000Y-75211500D01*
X102489000Y-78867000D01*
X83947000Y-78867000D01*
X83947000Y-37032000D01*
X102489000Y-37032000D01*
X102489000Y-73433500D01*
X102489000Y-73433500D01*
G37*
X102489000Y-73433500D02*
X100875624Y-73433500D01*
X100736586Y-73225414D01*
X100445435Y-73030874D01*
X100102000Y-72962560D01*
X98852000Y-72962560D01*
X98508565Y-73030874D01*
X98217414Y-73225414D01*
X98022874Y-73516565D01*
X97954560Y-73860000D01*
X97954560Y-74785000D01*
X98022874Y-75128435D01*
X98217414Y-75419586D01*
X98508565Y-75614126D01*
X98852000Y-75682440D01*
X100102000Y-75682440D01*
X100445435Y-75614126D01*
X100736586Y-75419586D01*
X100875624Y-75211500D01*
X102489000Y-75211500D01*
X102489000Y-78867000D01*
X83947000Y-78867000D01*
X83947000Y-37032000D01*
X102489000Y-37032000D01*
X102489000Y-73433500D01*
G04 #@! TD*
M02*
