M48
;DRILL file {KiCad 5.0.2+dfsg1-1} date Fri 25 Oct 2019 04:42:09 PM CDT
;FORMAT={-:-/ absolute / inch / decimal}
FMAT,2
INCH,TZ
T1C0.0157
T2C0.0315
T3C0.0394
T4C0.0400
T5C0.0630
T6C0.0669
T7C0.2087
%
G90
G05
T1
X2.56Y-3.4201
X2.56Y-3.5776
X2.56Y-3.735
X2.56Y-3.8925
X2.56Y-4.05
X2.6468Y-2.0381
X2.65Y-2.5313
X2.6791Y-2.12
X2.6818Y-1.9573
X2.6818Y-2.4518
X2.6836Y-2.61
X2.7175Y-3.4201
X2.7175Y-3.5776
X2.7175Y-3.735
X2.7175Y-3.8925
X2.7175Y-4.05
X2.7599Y-2.155
X2.7605Y-2.4181
X2.7631Y-2.6419
X2.7637Y-1.925
X2.8102Y-2.0373
X2.84Y-2.45
X2.8407Y-2.1162
X2.8418Y-2.6082
X2.8445Y-1.96
X2.875Y-3.4201
X2.875Y-3.5776
X2.875Y-3.735
X2.875Y-3.8925
X2.875Y-4.05
X2.918Y-2.1505
X2.92Y-2.4169
X2.92Y-2.6431
X2.9234Y-1.9295
X2.9969Y-2.12
X3.Y-2.45
X3.Y-2.61
X3.0007Y-1.9638
X3.0312Y-2.0427
X3.0324Y-3.4201
X3.0324Y-3.5776
X3.0324Y-3.735
X3.0324Y-3.8925
X3.0324Y-4.05
X3.0331Y-2.53
X3.1899Y-3.4201
X3.1899Y-3.5776
X3.1899Y-3.735
X3.1899Y-3.8925
X3.1899Y-4.05
X3.3869Y-2.04
X3.3869Y-2.53
X3.42Y-1.96
X3.42Y-2.12
X3.42Y-2.45
X3.42Y-2.61
X3.5Y-1.9269
X3.5Y-2.1531
X3.5Y-2.4169
X3.5Y-2.6431
X3.58Y-1.96
X3.58Y-2.12
X3.58Y-2.45
X3.58Y-2.61
X3.66Y-1.9269
X3.66Y-2.1531
X3.66Y-2.4169
X3.66Y-2.6431
X3.74Y-1.96
X3.74Y-2.12
X3.74Y-2.45
X3.74Y-2.61
X3.7731Y-2.04
X3.7731Y-2.53
X3.8813Y-1.5694
X3.8813Y-1.7269
X3.8813Y-1.8843
X3.8813Y-2.0418
X3.8813Y-2.1993
X3.8813Y-2.3568
X3.8813Y-2.5143
X3.8813Y-2.6717
X3.8813Y-2.8292
X3.8813Y-3.07
X3.96Y-1.53
X3.96Y-1.6875
X3.96Y-1.845
X3.96Y-2.0024
X3.96Y-2.1599
X3.96Y-2.3174
X3.96Y-2.4749
X3.96Y-2.6324
X3.96Y-2.7898
X3.98Y-3.03
X4.1Y-3.17
X4.1Y-3.2487
X4.1Y-3.3275
X4.1Y-3.4062
X4.1Y-3.485
X4.1Y-3.5637
X4.1324Y-2.809
X4.2063Y-3.17
X4.2063Y-3.2487
X4.2063Y-3.3275
X4.2063Y-3.4062
X4.2063Y-3.485
X4.2063Y-3.5637
X4.3126Y-3.17
X4.3126Y-3.2487
X4.3126Y-3.3275
X4.3126Y-3.4062
X4.3126Y-3.485
X4.3126Y-3.5637
X4.3664Y-2.809
X4.4189Y-3.17
X4.4189Y-3.2487
X4.4189Y-3.3275
X4.4189Y-3.4062
X4.4189Y-3.485
X4.4189Y-3.5637
X4.66Y-1.7419
X4.66Y-1.8009
X4.66Y-1.86
X4.67Y-2.
X4.67Y-2.0591
X4.67Y-2.1181
X4.7191Y-1.7419
X4.7191Y-1.8009
X4.7191Y-1.86
X4.7291Y-2.
X4.7291Y-2.0591
X4.7291Y-2.1181
X4.7781Y-1.7419
X4.7781Y-1.8009
X4.7781Y-1.86
X4.7881Y-2.
X4.7881Y-2.0591
X4.7881Y-2.1181
X4.8372Y-1.7419
X4.8372Y-1.8009
X4.8372Y-1.86
X4.8472Y-2.
X4.8472Y-2.0591
X4.8472Y-2.1181
X5.0263Y-1.66
X5.0263Y-1.7328
X5.0263Y-1.8057
X5.0263Y-1.8785
X5.03Y-2.59
X5.03Y-2.6451
X5.03Y-2.7002
X5.03Y-2.7554
X5.03Y-2.8105
X5.03Y-2.8656
X5.1009Y-2.59
X5.1009Y-2.6451
X5.1009Y-2.7002
X5.1009Y-2.7554
X5.1009Y-2.8105
X5.1009Y-2.8656
X5.105Y-1.66
X5.105Y-1.8785
X5.11Y-3.05
X5.15Y-4.32
X5.15Y-4.37
X5.1717Y-2.59
X5.1717Y-2.6451
X5.1717Y-2.7002
X5.1717Y-2.7554
X5.1717Y-2.8105
X5.1717Y-2.8656
X5.1838Y-1.66
X5.1838Y-1.8785
X5.2426Y-2.59
X5.2426Y-2.6451
X5.2426Y-2.7002
X5.2426Y-2.7554
X5.2426Y-2.8105
X5.2426Y-2.8656
X5.2625Y-1.66
X5.2625Y-1.8785
X5.3381Y-2.998
X5.3391Y-2.5581
X5.3391Y-2.7736
X5.3413Y-1.66
X5.3413Y-1.8785
X5.42Y-1.66
X5.42Y-1.7328
X5.42Y-1.8057
X5.42Y-1.8785
X5.5158Y-3.49
X5.5158Y-3.5963
X5.5158Y-3.7026
X5.5158Y-3.8089
X5.55Y-4.7213
X5.5945Y-3.49
X5.5945Y-3.5963
X5.5945Y-3.7026
X5.5945Y-3.8089
X5.66Y-1.7519
X5.66Y-1.8109
X5.66Y-1.87
X5.66Y-1.99
X5.66Y-2.0491
X5.66Y-2.1081
X5.6733Y-3.49
X5.6733Y-3.5963
X5.6733Y-3.7026
X5.6733Y-3.8089
X5.7191Y-1.7519
X5.7191Y-1.8109
X5.7191Y-1.87
X5.7191Y-1.99
X5.7191Y-2.0491
X5.7191Y-2.1081
X5.752Y-3.49
X5.752Y-3.5963
X5.752Y-3.7026
X5.752Y-3.8089
X5.7781Y-1.7519
X5.7781Y-1.8109
X5.7781Y-1.87
X5.7781Y-1.99
X5.7781Y-2.0491
X5.7781Y-2.1081
X5.8307Y-3.49
X5.8307Y-3.5963
X5.8307Y-3.7026
X5.8307Y-3.8089
X5.8372Y-1.7519
X5.8372Y-1.8109
X5.8372Y-1.87
X5.8372Y-1.99
X5.8372Y-2.0491
X5.8372Y-2.1081
X5.9095Y-3.49
X5.9095Y-3.5963
X5.9095Y-3.7026
X5.9095Y-3.8089
X6.0263Y-1.66
X6.0263Y-1.7348
X6.0263Y-1.8096
X6.0263Y-1.8844
X6.04Y-4.39
X6.04Y-4.5
X6.06Y-2.58
X6.06Y-2.6391
X6.06Y-2.6981
X6.06Y-2.7572
X6.06Y-2.8162
X6.06Y-2.8753
X6.105Y-1.66
X6.105Y-1.8844
X6.13Y-3.05
X6.1309Y-2.58
X6.1309Y-2.6391
X6.1309Y-2.6981
X6.1309Y-2.7572
X6.1309Y-2.8162
X6.1309Y-2.8753
X6.14Y-4.7213
X6.1838Y-1.66
X6.1838Y-1.8844
X6.2017Y-2.58
X6.2017Y-2.6391
X6.2017Y-2.6981
X6.2017Y-2.7572
X6.2017Y-2.8162
X6.2017Y-2.8753
X6.2625Y-1.66
X6.2625Y-1.8844
X6.2726Y-2.58
X6.2726Y-2.6391
X6.2726Y-2.6981
X6.2726Y-2.7572
X6.2726Y-2.8162
X6.2726Y-2.8753
X6.28Y-4.8
X6.29Y-4.5
X6.29Y-4.55
X6.3413Y-1.66
X6.3413Y-1.8844
X6.42Y-1.66
X6.42Y-1.7348
X6.42Y-1.8096
X6.42Y-1.8844
X6.48Y-4.49
X6.5Y-4.63
X6.54Y-3.07
X6.55Y-4.47
X6.55Y-4.59
X6.64Y-2.
X6.64Y-2.0591
X6.64Y-2.1181
X6.64Y-5.25
X6.65Y-1.7719
X6.65Y-1.8309
X6.65Y-1.89
X6.6991Y-2.
X6.6991Y-2.0591
X6.6991Y-2.1181
X6.7091Y-1.7719
X6.7091Y-1.8309
X6.7091Y-1.89
X6.75Y-3.49
X6.75Y-3.5963
X6.75Y-3.7026
X6.75Y-3.8089
X6.7581Y-2.
X6.7581Y-2.0591
X6.7581Y-2.1181
X6.7681Y-1.7719
X6.7681Y-1.8309
X6.7681Y-1.89
X6.7782Y-4.8504
X6.8172Y-2.
X6.8172Y-2.0591
X6.8172Y-2.1181
X6.8248Y-3.49
X6.8248Y-3.5963
X6.8248Y-3.7026
X6.8248Y-3.8089
X6.8272Y-1.7719
X6.8272Y-1.8309
X6.8272Y-1.89
X6.84Y-5.05
X6.8996Y-3.49
X6.8996Y-3.5963
X6.8996Y-3.7026
X6.8996Y-3.8089
X6.9744Y-3.49
X6.9744Y-3.5963
X6.9744Y-3.7026
X6.9744Y-3.8089
X7.0063Y-1.66
X7.0063Y-1.7348
X7.0063Y-1.8096
X7.0063Y-1.8844
X7.0492Y-3.49
X7.0492Y-3.5963
X7.0492Y-3.7026
X7.0492Y-3.8089
X7.085Y-1.66
X7.085Y-1.8844
X7.1Y-4.46
X7.1Y-4.63
X7.11Y-2.57
X7.11Y-2.6291
X7.11Y-2.6881
X7.11Y-2.7472
X7.11Y-2.8062
X7.11Y-2.8653
X7.124Y-3.49
X7.124Y-3.5963
X7.124Y-3.7026
X7.124Y-3.8089
X7.1638Y-1.66
X7.1638Y-1.8844
X7.1809Y-2.57
X7.1809Y-2.6291
X7.1809Y-2.6881
X7.1809Y-2.7472
X7.1809Y-2.8062
X7.1809Y-2.8653
X7.2425Y-1.66
X7.2425Y-1.8844
X7.2517Y-2.57
X7.2517Y-2.6291
X7.2517Y-2.6881
X7.2517Y-2.7472
X7.2517Y-2.8062
X7.2517Y-2.8653
X7.29Y-4.14
X7.3207Y-4.8504
X7.3213Y-1.66
X7.3213Y-1.8844
X7.3226Y-2.57
X7.3226Y-2.6291
X7.3226Y-2.6881
X7.3226Y-2.7472
X7.3226Y-2.8062
X7.3226Y-2.8653
X7.39Y-4.73
X7.4Y-1.66
X7.4Y-1.7348
X7.4Y-1.8096
X7.4Y-1.8844
X7.41Y-4.22
X7.44Y-4.32
X7.49Y-2.71
X7.67Y-4.32
X7.67Y-4.37
X7.72Y-2.89
T2
X8.3691Y-3.4331
X8.5659Y-3.4331
X4.8553Y-5.048
X5.0522Y-5.048
X3.19Y-3.
X3.3869Y-3.
X5.5512Y-5.048
X5.748Y-5.048
T3
X8.1624Y-2.7342
X8.4577Y-2.7342
X3.37Y-4.29
X3.37Y-4.39
X3.37Y-4.49
X3.37Y-4.59
X3.37Y-4.69
X3.37Y-4.79
X3.37Y-4.89
X3.47Y-4.29
X3.47Y-4.39
X3.47Y-4.49
X3.47Y-4.59
X3.47Y-4.69
X3.47Y-4.79
X3.47Y-4.89
X3.55Y-3.5447
X3.55Y-3.84
X8.1624Y-4.1299
X8.4577Y-4.1299
T4
X7.84Y-2.85
T5
X6.155Y-1.7669
X6.3125Y-1.7669
X5.15Y-1.7669
X5.3075Y-1.7669
X7.125Y-1.7669
X7.2825Y-1.7669
T6
X2.7687Y-2.0413
X2.7687Y-2.5335
X2.9183Y-2.0413
X2.9183Y-2.5335
X3.5059Y-2.0413
X3.5059Y-2.5335
X3.6555Y-2.0413
X3.6555Y-2.5335
T7
X4.25Y-2.2638
X7.85Y-2.2638
X4.25Y-5.0638
X7.85Y-5.0638
T0
M30
