G04 #@! TF.GenerationSoftware,KiCad,Pcbnew,5.0.2+dfsg1-1*
G04 #@! TF.CreationDate,2019-10-25T16:48:50-05:00*
G04 #@! TF.ProjectId,bldc_v1,626c6463-5f76-4312-9e6b-696361645f70,rev?*
G04 #@! TF.SameCoordinates,Original*
G04 #@! TF.FileFunction,Copper,L2,Bot*
G04 #@! TF.FilePolarity,Positive*
%FSLAX46Y46*%
G04 Gerber Fmt 4.6, Leading zero omitted, Abs format (unit mm)*
G04 Created by KiCad (PCBNEW 5.0.2+dfsg1-1) date Fri 25 Oct 2019 04:48:50 PM CDT*
%MOMM*%
%LPD*%
G01*
G04 APERTURE LIST*
G04 #@! TA.AperFunction,ComponentPad*
%ADD10C,2.000000*%
G04 #@! TD*
G04 #@! TA.AperFunction,ComponentPad*
%ADD11C,1.600000*%
G04 #@! TD*
G04 #@! TA.AperFunction,ComponentPad*
%ADD12C,3.000000*%
G04 #@! TD*
G04 #@! TA.AperFunction,ComponentPad*
%ADD13R,1.700000X1.700000*%
G04 #@! TD*
G04 #@! TA.AperFunction,ComponentPad*
%ADD14O,1.700000X1.700000*%
G04 #@! TD*
G04 #@! TA.AperFunction,ViaPad*
%ADD15C,0.800000*%
G04 #@! TD*
G04 #@! TA.AperFunction,ViaPad*
%ADD16C,1.524000*%
G04 #@! TD*
G04 #@! TA.AperFunction,Conductor*
%ADD17C,1.524000*%
G04 #@! TD*
G04 #@! TA.AperFunction,Conductor*
%ADD18C,0.254000*%
G04 #@! TD*
G04 #@! TA.AperFunction,Conductor*
%ADD19C,0.508000*%
G04 #@! TD*
G04 #@! TA.AperFunction,Conductor*
%ADD20C,0.250000*%
G04 #@! TD*
G04 APERTURE END LIST*
D10*
G04 #@! TO.P,C1,1*
G04 #@! TO.N,/48v*
X90170000Y-97536000D03*
G04 #@! TO.P,C1,2*
G04 #@! TO.N,/GND*
X90170000Y-90036000D03*
G04 #@! TD*
D11*
G04 #@! TO.P,C2,2*
G04 #@! TO.N,/GND*
X146000000Y-128220000D03*
G04 #@! TO.P,C2,1*
G04 #@! TO.N,/12v*
X141000000Y-128220000D03*
G04 #@! TD*
D10*
G04 #@! TO.P,C3,2*
G04 #@! TO.N,/GND*
X214825000Y-69448349D03*
G04 #@! TO.P,C3,1*
G04 #@! TO.N,/48v*
X207325000Y-69448349D03*
G04 #@! TD*
G04 #@! TO.P,C4,1*
G04 #@! TO.N,/48v*
X207325000Y-104900000D03*
G04 #@! TO.P,C4,2*
G04 #@! TO.N,/GND*
X214825000Y-104900000D03*
G04 #@! TD*
D11*
G04 #@! TO.P,C5,1*
G04 #@! TO.N,/5v*
X123325000Y-128220000D03*
G04 #@! TO.P,C5,2*
G04 #@! TO.N,/GND*
X128325000Y-128220000D03*
G04 #@! TD*
G04 #@! TO.P,C6,1*
G04 #@! TO.N,/48v*
X81026000Y-76200000D03*
G04 #@! TO.P,C6,2*
G04 #@! TO.N,/GND*
X86026000Y-76200000D03*
G04 #@! TD*
G04 #@! TO.P,C7,2*
G04 #@! TO.N,/GND*
X217575000Y-87200000D03*
G04 #@! TO.P,C7,1*
G04 #@! TO.N,/48v*
X212575000Y-87200000D03*
G04 #@! TD*
D12*
G04 #@! TO.P,J1,1*
G04 #@! TO.N,/48v*
X70325000Y-51850000D03*
X74125000Y-51850000D03*
X70325000Y-64350000D03*
X74125000Y-64350000D03*
G04 #@! TD*
G04 #@! TO.P,J2,1*
G04 #@! TO.N,/GND*
X92850000Y-64350000D03*
X89050000Y-64350000D03*
X92850000Y-51850000D03*
X89050000Y-51850000D03*
G04 #@! TD*
D13*
G04 #@! TO.P,J3,1*
G04 #@! TO.N,/48v*
X88138000Y-108966000D03*
D14*
G04 #@! TO.P,J3,2*
G04 #@! TO.N,/5v*
X85598000Y-108966000D03*
G04 #@! TO.P,J3,3*
G04 #@! TO.N,/12v*
X88138000Y-111506000D03*
G04 #@! TO.P,J3,4*
G04 #@! TO.N,/GND*
X85598000Y-111506000D03*
G04 #@! TO.P,J3,5*
G04 #@! TO.N,/PHASEA_FB*
X88138000Y-114046000D03*
G04 #@! TO.P,J3,6*
G04 #@! TO.N,/PHASEB_FB*
X85598000Y-114046000D03*
G04 #@! TO.P,J3,7*
G04 #@! TO.N,Net-(J3-Pad7)*
X88138000Y-116586000D03*
G04 #@! TO.P,J3,8*
G04 #@! TO.N,Net-(J3-Pad8)*
X85598000Y-116586000D03*
G04 #@! TO.P,J3,9*
G04 #@! TO.N,/LS_C_TTL_PWM*
X88138000Y-119126000D03*
G04 #@! TO.P,J3,10*
G04 #@! TO.N,/HS_C_TTL_PWM*
X85598000Y-119126000D03*
G04 #@! TO.P,J3,11*
G04 #@! TO.N,/LS_B_TTL_PWM*
X88138000Y-121666000D03*
G04 #@! TO.P,J3,12*
G04 #@! TO.N,/HS_B_TTL_PWM*
X85598000Y-121666000D03*
G04 #@! TO.P,J3,13*
G04 #@! TO.N,/LS_A_TTL_PWM*
X88138000Y-124206000D03*
G04 #@! TO.P,J3,14*
G04 #@! TO.N,/HS_A_TTL_PWM*
X85598000Y-124206000D03*
G04 #@! TD*
D12*
G04 #@! TO.P,J4,1*
G04 #@! TO.N,/PHASE_A*
X180975000Y-44880000D03*
X184975000Y-44880000D03*
G04 #@! TD*
G04 #@! TO.P,J5,1*
G04 #@! TO.N,/PHASE_B*
X160337000Y-44880000D03*
X156337000Y-44880000D03*
G04 #@! TD*
G04 #@! TO.P,J6,1*
G04 #@! TO.N,/PHASE_C*
X130810000Y-44880000D03*
X134810000Y-44880000D03*
G04 #@! TD*
D15*
G04 #@! TO.N,/48v*
X171450000Y-88646000D03*
X104140000Y-80518000D03*
X106840000Y-80518000D03*
X109540000Y-80518000D03*
X112240000Y-80518000D03*
X104140000Y-82518000D03*
X106840000Y-82518000D03*
X109540000Y-82518000D03*
X112240000Y-82518000D03*
X104140000Y-84518000D03*
X106840000Y-84518000D03*
X109540000Y-84518000D03*
X112240000Y-84518000D03*
X104140000Y-86518000D03*
X106840000Y-86518000D03*
X109540000Y-86518000D03*
X112240000Y-86518000D03*
X104140000Y-88518000D03*
X106840000Y-88518000D03*
X109540000Y-88518000D03*
X112240000Y-88518000D03*
X104140000Y-90518000D03*
X106840000Y-90518000D03*
X109540000Y-90518000D03*
X112240000Y-90518000D03*
X140101000Y-88646000D03*
X142101000Y-88646000D03*
X144101000Y-88646000D03*
X146101000Y-88646000D03*
X148101000Y-88646000D03*
X150101000Y-88646000D03*
X140101000Y-91346000D03*
X142101000Y-91346000D03*
X144101000Y-91346000D03*
X146101000Y-91346000D03*
X148101000Y-91346000D03*
X150101000Y-91346000D03*
X140101000Y-94046000D03*
X142101000Y-94046000D03*
X144101000Y-94046000D03*
X146101000Y-94046000D03*
X148101000Y-94046000D03*
X150101000Y-94046000D03*
X140101000Y-96746000D03*
X142101000Y-96746000D03*
X144101000Y-96746000D03*
X146101000Y-96746000D03*
X148101000Y-96746000D03*
X150101000Y-96746000D03*
X173350000Y-88646000D03*
X175250000Y-88646000D03*
X177150000Y-88646000D03*
X179050000Y-88646000D03*
X180950000Y-88646000D03*
X171450000Y-91346000D03*
X173350000Y-91346000D03*
X175250000Y-91346000D03*
X177150000Y-91346000D03*
X179050000Y-91346000D03*
X180950000Y-91346000D03*
X171450000Y-94046000D03*
X173350000Y-94046000D03*
X175250000Y-94046000D03*
X177150000Y-94046000D03*
X179050000Y-94046000D03*
X180950000Y-94046000D03*
X171450000Y-96746000D03*
X173350000Y-96746000D03*
X175250000Y-96746000D03*
X177150000Y-96746000D03*
X179050000Y-96746000D03*
X180950000Y-96746000D03*
X74168000Y-67135682D03*
X76200000Y-66294000D03*
X77041682Y-64262000D03*
X76200000Y-62230000D03*
X74168000Y-61388318D03*
X72136000Y-62230000D03*
X70117473Y-61420845D03*
X68118000Y-62276000D03*
X67308845Y-64294527D03*
X68164000Y-66294000D03*
X70182527Y-67103155D03*
X72182000Y-66248000D03*
X72250000Y-49784000D03*
X70198083Y-48894235D03*
X68118000Y-49716000D03*
X67228235Y-51767917D03*
X68050000Y-53848000D03*
X70101917Y-54737765D03*
X71380200Y-51748118D03*
X72154000Y-53752000D03*
X74118118Y-54621800D03*
X76122000Y-53848000D03*
X76991800Y-51883882D03*
X76218000Y-49880000D03*
X74253882Y-49010200D03*
X65024000Y-102870000D03*
X69024000Y-102870000D03*
X73024000Y-102870000D03*
X77024000Y-102870000D03*
X81024000Y-102870000D03*
X65024000Y-98870000D03*
X69024000Y-98870000D03*
X73024000Y-98870000D03*
X77024000Y-98870000D03*
X81024000Y-98870000D03*
X65024000Y-94870000D03*
X69024000Y-94870000D03*
X73024000Y-94870000D03*
X77024000Y-94870000D03*
X81024000Y-94870000D03*
X65024000Y-90870000D03*
X69024000Y-90870000D03*
X73024000Y-90870000D03*
X77024000Y-90870000D03*
X81024000Y-90870000D03*
X65024000Y-86870000D03*
X69024000Y-86870000D03*
X73024000Y-86870000D03*
X77024000Y-86870000D03*
X81024000Y-86870000D03*
G04 #@! TO.N,/GND*
X129794000Y-77470000D03*
X135587500Y-76150000D03*
X135612500Y-70450000D03*
X135612500Y-64975000D03*
X110907000Y-71347500D03*
X104962000Y-71347500D03*
X166116000Y-77978000D03*
X155702000Y-77470000D03*
X196088000Y-73406000D03*
X190246000Y-68834000D03*
D16*
X199136000Y-72390000D03*
D15*
X180594000Y-65278000D03*
X182394000Y-65278000D03*
X184194000Y-65278000D03*
X185994000Y-65278000D03*
X180594000Y-66778000D03*
X182394000Y-66778000D03*
X184194000Y-66778000D03*
X185994000Y-66778000D03*
X180594000Y-68278000D03*
X182394000Y-68278000D03*
X184194000Y-68278000D03*
X185994000Y-68278000D03*
X180594000Y-69778000D03*
X182394000Y-69778000D03*
X184194000Y-69778000D03*
X185994000Y-69778000D03*
X180594000Y-71278000D03*
X182394000Y-71278000D03*
X184194000Y-71278000D03*
X185994000Y-71278000D03*
X180594000Y-72778000D03*
X182394000Y-72778000D03*
X184194000Y-72778000D03*
X185994000Y-72778000D03*
X153924000Y-65532000D03*
X155724000Y-65532000D03*
X157524000Y-65532000D03*
X159324000Y-65532000D03*
X153924000Y-67032000D03*
X155724000Y-67032000D03*
X157524000Y-67032000D03*
X159324000Y-67032000D03*
X153924000Y-68532000D03*
X155724000Y-68532000D03*
X157524000Y-68532000D03*
X159324000Y-68532000D03*
X153924000Y-70032000D03*
X155724000Y-70032000D03*
X157524000Y-70032000D03*
X159324000Y-70032000D03*
X153924000Y-71532000D03*
X155724000Y-71532000D03*
X157524000Y-71532000D03*
X159324000Y-71532000D03*
X153924000Y-73032000D03*
X155724000Y-73032000D03*
X157524000Y-73032000D03*
X159324000Y-73032000D03*
X127762000Y-65786000D03*
X129562000Y-65786000D03*
X131362000Y-65786000D03*
X133162000Y-65786000D03*
X127762000Y-67186000D03*
X129562000Y-67186000D03*
X131362000Y-67186000D03*
X133162000Y-67186000D03*
X127762000Y-68586000D03*
X129562000Y-68586000D03*
X131362000Y-68586000D03*
X133162000Y-68586000D03*
X127762000Y-69986000D03*
X129562000Y-69986000D03*
X131362000Y-69986000D03*
X133162000Y-69986000D03*
X127762000Y-71386000D03*
X129562000Y-71386000D03*
X131362000Y-71386000D03*
X133162000Y-71386000D03*
X127762000Y-72786000D03*
X129562000Y-72786000D03*
X131362000Y-72786000D03*
X133162000Y-72786000D03*
X159512000Y-121920000D03*
X164592000Y-114046000D03*
X165100000Y-117602000D03*
X90932000Y-49784000D03*
X88900000Y-48942318D03*
X86868000Y-49784000D03*
X86026318Y-51816000D03*
X86868000Y-53848000D03*
X88900000Y-54689682D03*
X90932000Y-53848000D03*
X92964000Y-54689682D03*
X94996000Y-53848000D03*
X95837682Y-51816000D03*
X94996000Y-49784000D03*
X92964000Y-48942318D03*
X90932000Y-62230000D03*
X92964000Y-67135682D03*
X94996000Y-66294000D03*
X95837682Y-64262000D03*
X94996000Y-62230000D03*
X92964000Y-61388318D03*
X88900000Y-61388318D03*
X86868000Y-62230000D03*
X86026318Y-64262000D03*
X86868000Y-66294000D03*
X88900000Y-67135682D03*
X90932000Y-66294000D03*
X100584000Y-38862000D03*
X98584000Y-39862000D03*
X100584000Y-42862000D03*
X98584000Y-43862000D03*
X100584000Y-46862000D03*
X98584000Y-47862000D03*
X100584000Y-50862000D03*
X98584000Y-51862000D03*
X100584000Y-54862000D03*
X98584000Y-55862000D03*
X100584000Y-58862000D03*
X98584000Y-59862000D03*
X100584000Y-62862000D03*
X98584000Y-63862000D03*
X100584000Y-66862000D03*
X98584000Y-67862000D03*
X100584000Y-70862000D03*
X98584000Y-71862000D03*
X101092000Y-76962000D03*
X98584000Y-77978000D03*
G04 #@! TO.N,/12v*
X140970000Y-119920500D03*
X155956000Y-119920499D03*
G04 #@! TO.N,/5v*
X172166000Y-123200500D03*
X185946000Y-123200500D03*
G04 #@! TO.N,/gatedrivers/PHASEA_SOURCE*
X185166000Y-105156000D03*
X187706000Y-120142000D03*
X168656000Y-50800000D03*
X170156000Y-50800000D03*
X171656000Y-50800000D03*
X173156000Y-50800000D03*
X168656000Y-52300000D03*
X170156000Y-52300000D03*
X171656000Y-52300000D03*
X173156000Y-52300000D03*
X168656000Y-53800000D03*
X170156000Y-53800000D03*
X171656000Y-53800000D03*
X173156000Y-53800000D03*
G04 #@! TO.N,/gatedrivers/PHASEB_SOURCE*
X143764000Y-50546000D03*
X145264000Y-50546000D03*
X146764000Y-50546000D03*
X148264000Y-50546000D03*
X143764000Y-52046000D03*
X145264000Y-52046000D03*
X146764000Y-52046000D03*
X148264000Y-52046000D03*
X143764000Y-53546000D03*
X145264000Y-53546000D03*
X146764000Y-53546000D03*
X148264000Y-53546000D03*
G04 #@! TO.N,/gatedrivers/PHASEC_SOURCE*
X118618000Y-50800000D03*
X120118000Y-50800000D03*
X121618000Y-50800000D03*
X123118000Y-50800000D03*
X118618000Y-52300000D03*
X120118000Y-52300000D03*
X121618000Y-52300000D03*
X123118000Y-52300000D03*
X118618000Y-53800000D03*
X120118000Y-53800000D03*
X121618000Y-53800000D03*
X123118000Y-53800000D03*
G04 #@! TO.N,/gatedrivers/HO_A*
X188976000Y-109728000D03*
X188214000Y-107188000D03*
G04 #@! TO.N,/gatedrivers/HO_B*
X153416000Y-114300000D03*
X153416000Y-111506000D03*
G04 #@! TO.N,/PHASEB_FB*
X168656000Y-133350000D03*
X173736000Y-128270000D03*
G04 #@! TO.N,/LS_C_TTL_PWM*
X130810000Y-109728000D03*
G04 #@! TO.N,/HS_C_TTL_PWM*
X130810000Y-110998000D03*
G04 #@! TO.N,/LS_B_TTL_PWM*
X159766000Y-114300000D03*
G04 #@! TO.N,/HS_B_TTL_PWM*
X159766000Y-115570000D03*
G04 #@! TO.N,/LS_A_TTL_PWM*
X194818000Y-109728000D03*
G04 #@! TO.N,/HS_A_TTL_PWM*
X194818000Y-110998000D03*
G04 #@! TO.N,/PHASE_A*
X180340000Y-117602000D03*
X180340000Y-113284000D03*
X168910000Y-48006000D03*
X170410000Y-48006000D03*
X171910000Y-48006000D03*
X173410000Y-48006000D03*
X168910000Y-46506000D03*
X170410000Y-46506000D03*
X171910000Y-46506000D03*
X173410000Y-46506000D03*
X168910000Y-45006000D03*
X170410000Y-45006000D03*
X171910000Y-45006000D03*
X173410000Y-45006000D03*
X187960000Y-42164000D03*
X185960000Y-42164000D03*
X183960000Y-42164000D03*
X181960000Y-42164000D03*
X179960000Y-42164000D03*
X177960000Y-42164000D03*
X187960000Y-44064000D03*
X177960000Y-44064000D03*
X187960000Y-45964000D03*
X177960000Y-45964000D03*
X187960000Y-47864000D03*
X185960000Y-47864000D03*
X183960000Y-47864000D03*
X181960000Y-47864000D03*
X179960000Y-47864000D03*
X177960000Y-47864000D03*
G04 #@! TO.N,/PHASE_B*
X166370000Y-116586000D03*
X166370000Y-113538000D03*
X143764000Y-47498000D03*
X145264000Y-47498000D03*
X146764000Y-47498000D03*
X148264000Y-47498000D03*
X143764000Y-45998000D03*
X145264000Y-45998000D03*
X146764000Y-45998000D03*
X148264000Y-45998000D03*
X143764000Y-44498000D03*
X145264000Y-44498000D03*
X146764000Y-44498000D03*
X148264000Y-44498000D03*
X163068000Y-42164000D03*
X161068000Y-42164000D03*
X159068000Y-42164000D03*
X157068000Y-42164000D03*
X155068000Y-42164000D03*
X153068000Y-42164000D03*
X163068000Y-44064000D03*
X153068000Y-44064000D03*
X163068000Y-45964000D03*
X153068000Y-45964000D03*
X163068000Y-47864000D03*
X161068000Y-47864000D03*
X159068000Y-47864000D03*
X157068000Y-47864000D03*
X155068000Y-47864000D03*
X153068000Y-47864000D03*
G04 #@! TO.N,/PHASE_C*
X118364000Y-47244000D03*
X119864000Y-47244000D03*
X121364000Y-47244000D03*
X122864000Y-47244000D03*
X118364000Y-45744000D03*
X119864000Y-45744000D03*
X121364000Y-45744000D03*
X122864000Y-45744000D03*
X118364000Y-44244000D03*
X119864000Y-44244000D03*
X121364000Y-44244000D03*
X122864000Y-44244000D03*
X137668000Y-42164000D03*
X135668000Y-42164000D03*
X133668000Y-42164000D03*
X131668000Y-42164000D03*
X129668000Y-42164000D03*
X127668000Y-42164000D03*
X137668000Y-44014000D03*
X127668000Y-44014000D03*
X137668000Y-45864000D03*
X127668000Y-45864000D03*
X137668000Y-47714000D03*
X135668000Y-47714000D03*
X133668000Y-47714000D03*
X131668000Y-47714000D03*
X129668000Y-47714000D03*
X127668000Y-47714000D03*
G04 #@! TD*
D17*
G04 #@! TO.N,/48v*
X205910787Y-104900000D02*
X204642787Y-103632000D01*
X207325000Y-104900000D02*
X205910787Y-104900000D01*
X204642787Y-103632000D02*
X198374000Y-103632000D01*
X212575000Y-87200000D02*
X199722000Y-87200000D01*
X207325000Y-70862562D02*
X207264000Y-70923562D01*
X207325000Y-69448349D02*
X207325000Y-70862562D01*
X207264000Y-70923562D02*
X207264000Y-76454000D01*
X207264000Y-76454000D02*
X202692000Y-81026000D01*
X202692000Y-81026000D02*
X199390000Y-81026000D01*
G04 #@! TO.N,/GND*
X214825000Y-69448349D02*
X210654651Y-65278000D01*
X210654651Y-65278000D02*
X199644000Y-65278000D01*
X217575000Y-102150000D02*
X214825000Y-104900000D01*
X217575000Y-87200000D02*
X217575000Y-102150000D01*
D18*
X146000000Y-128220000D02*
X153212000Y-128220000D01*
X153212000Y-128220000D02*
X159512000Y-121920000D01*
X164592000Y-114046000D02*
X165100000Y-114554000D01*
X165100000Y-114554000D02*
X165100000Y-117602000D01*
X130153000Y-130048000D02*
X128325000Y-128220000D01*
X146000000Y-128220000D02*
X144172000Y-130048000D01*
X144172000Y-130048000D02*
X130153000Y-130048000D01*
G04 #@! TO.N,/12v*
X141000000Y-128220000D02*
X141000000Y-119950500D01*
X141000000Y-119950500D02*
X140970000Y-119920500D01*
X140970000Y-119920500D02*
X141535686Y-119920499D01*
X141535686Y-119920499D02*
X155956000Y-119920499D01*
G04 #@! TO.N,/5v*
X85598000Y-108966000D02*
X80772000Y-108966000D01*
X80772000Y-108966000D02*
X78232000Y-111506000D01*
X78232000Y-111506000D02*
X78232000Y-131064000D01*
X78232000Y-131064000D02*
X81788000Y-134620000D01*
X116925000Y-134620000D02*
X123325000Y-128220000D01*
X81788000Y-134620000D02*
X116925000Y-134620000D01*
X172166000Y-123200500D02*
X185946000Y-123200500D01*
X164302500Y-131064000D02*
X172166000Y-123200500D01*
X123325000Y-128220000D02*
X126169000Y-131064000D01*
X126169000Y-131064000D02*
X164302500Y-131064000D01*
D19*
G04 #@! TO.N,/gatedrivers/PHASEA_SOURCE*
X196088000Y-106172000D02*
X196088000Y-111760000D01*
X195072000Y-105156000D02*
X196088000Y-106172000D01*
X185166000Y-105156000D02*
X195072000Y-105156000D01*
X196088000Y-111760000D02*
X187706000Y-120142000D01*
G04 #@! TO.N,/gatedrivers/HO_A*
X188976000Y-109728000D02*
X188976000Y-107950000D01*
X188976000Y-107950000D02*
X188214000Y-107188000D01*
G04 #@! TO.N,/gatedrivers/HO_B*
X153416000Y-114300000D02*
X153416000Y-111506000D01*
D18*
G04 #@! TO.N,/PHASEB_FB*
X168656000Y-133350000D02*
X173736000Y-128270000D01*
G04 #@! TO.N,/LS_C_TTL_PWM*
X88138000Y-119126000D02*
X121412000Y-119126000D01*
X121412000Y-119126000D02*
X130810000Y-109728000D01*
G04 #@! TO.N,/HS_C_TTL_PWM*
X121504999Y-120303001D02*
X130810000Y-110998000D01*
X85598000Y-119126000D02*
X86775001Y-120303001D01*
X86775001Y-120303001D02*
X121504999Y-120303001D01*
G04 #@! TO.N,/LS_B_TTL_PWM*
X133858000Y-121666000D02*
X138430000Y-117094000D01*
X139700000Y-117094000D02*
X156972000Y-117094000D01*
X156972000Y-117094000D02*
X159766000Y-114300000D01*
X88138000Y-121666000D02*
X133858000Y-121666000D01*
X139700000Y-117094000D02*
X138430000Y-117094000D01*
G04 #@! TO.N,/HS_B_TTL_PWM*
X86775001Y-122843001D02*
X85598000Y-121666000D01*
X134204999Y-122843001D02*
X86775001Y-122843001D01*
X139192000Y-117856000D02*
X134204999Y-122843001D01*
X159766000Y-115570000D02*
X157480000Y-117856000D01*
X157480000Y-117856000D02*
X139192000Y-117856000D01*
G04 #@! TO.N,/LS_A_TTL_PWM*
X185928000Y-118618000D02*
X194818000Y-109728000D01*
X134366000Y-124206000D02*
X88138000Y-124206000D01*
X185928000Y-118618000D02*
X139954000Y-118618000D01*
X139954000Y-118618000D02*
X134366000Y-124206000D01*
G04 #@! TO.N,/HS_A_TTL_PWM*
X85598000Y-124206000D02*
X86868000Y-125476000D01*
X86868000Y-125476000D02*
X134366000Y-125476000D01*
X134366000Y-125476000D02*
X140648501Y-119193499D01*
X140648501Y-119193499D02*
X186622501Y-119193499D01*
X186622501Y-119193499D02*
X194818000Y-110998000D01*
D20*
G04 #@! TO.N,/PHASE_A*
X180340000Y-117602000D02*
X180340000Y-113284000D01*
G04 #@! TO.N,/PHASE_B*
X166370000Y-116586000D02*
X166370000Y-113538000D01*
G04 #@! TD*
D18*
G04 #@! TO.N,/48v*
G36*
X82931002Y-80010738D02*
X82940952Y-80059282D01*
X82968721Y-80100323D01*
X83010082Y-80127613D01*
X83058000Y-80137000D01*
X200215830Y-80137000D01*
X200278669Y-104267234D01*
X195207682Y-104276573D01*
X195159556Y-104267000D01*
X195159555Y-104267000D01*
X195072000Y-104249584D01*
X194984445Y-104267000D01*
X185724350Y-104267000D01*
X185371874Y-104121000D01*
X184960126Y-104121000D01*
X184579720Y-104278569D01*
X184562111Y-104296178D01*
X63194000Y-104519692D01*
X63194000Y-89710778D01*
X88535000Y-89710778D01*
X88535000Y-90361222D01*
X88783914Y-90962153D01*
X89243847Y-91422086D01*
X89844778Y-91671000D01*
X90495222Y-91671000D01*
X91096153Y-91422086D01*
X91556086Y-90962153D01*
X91805000Y-90361222D01*
X91805000Y-89710778D01*
X91556086Y-89109847D01*
X91096153Y-88649914D01*
X90495222Y-88401000D01*
X89844778Y-88401000D01*
X89243847Y-88649914D01*
X88783914Y-89109847D01*
X88535000Y-89710778D01*
X63194000Y-89710778D01*
X63194000Y-39411248D01*
X63261388Y-38833249D01*
X63445766Y-38325295D01*
X63742057Y-37873376D01*
X64134364Y-37501742D01*
X64601641Y-37230325D01*
X65128132Y-37070866D01*
X65563619Y-37032000D01*
X82681126Y-37032000D01*
X82931002Y-80010738D01*
X82931002Y-80010738D01*
G37*
X82931002Y-80010738D02*
X82940952Y-80059282D01*
X82968721Y-80100323D01*
X83010082Y-80127613D01*
X83058000Y-80137000D01*
X200215830Y-80137000D01*
X200278669Y-104267234D01*
X195207682Y-104276573D01*
X195159556Y-104267000D01*
X195159555Y-104267000D01*
X195072000Y-104249584D01*
X194984445Y-104267000D01*
X185724350Y-104267000D01*
X185371874Y-104121000D01*
X184960126Y-104121000D01*
X184579720Y-104278569D01*
X184562111Y-104296178D01*
X63194000Y-104519692D01*
X63194000Y-89710778D01*
X88535000Y-89710778D01*
X88535000Y-90361222D01*
X88783914Y-90962153D01*
X89243847Y-91422086D01*
X89844778Y-91671000D01*
X90495222Y-91671000D01*
X91096153Y-91422086D01*
X91556086Y-90962153D01*
X91805000Y-90361222D01*
X91805000Y-89710778D01*
X91556086Y-89109847D01*
X91096153Y-88649914D01*
X90495222Y-88401000D01*
X89844778Y-88401000D01*
X89243847Y-88649914D01*
X88783914Y-89109847D01*
X88535000Y-89710778D01*
X63194000Y-89710778D01*
X63194000Y-39411248D01*
X63261388Y-38833249D01*
X63445766Y-38325295D01*
X63742057Y-37873376D01*
X64134364Y-37501742D01*
X64601641Y-37230325D01*
X65128132Y-37070866D01*
X65563619Y-37032000D01*
X82681126Y-37032000D01*
X82931002Y-80010738D01*
G04 #@! TO.N,/PHASE_C*
G36*
X138811000Y-48641000D02*
X117983000Y-48641000D01*
X117983000Y-37032000D01*
X138811000Y-37032000D01*
X138811000Y-48641000D01*
X138811000Y-48641000D01*
G37*
X138811000Y-48641000D02*
X117983000Y-48641000D01*
X117983000Y-37032000D01*
X138811000Y-37032000D01*
X138811000Y-48641000D01*
G04 #@! TO.N,/PHASE_B*
G36*
X164465000Y-48641000D02*
X140081000Y-48641000D01*
X140081000Y-37032000D01*
X164465000Y-37032000D01*
X164465000Y-48641000D01*
X164465000Y-48641000D01*
G37*
X164465000Y-48641000D02*
X140081000Y-48641000D01*
X140081000Y-37032000D01*
X164465000Y-37032000D01*
X164465000Y-48641000D01*
G04 #@! TO.N,/PHASE_A*
G36*
X189103000Y-48895000D02*
X165735000Y-48895000D01*
X165735000Y-37032000D01*
X189103000Y-37032000D01*
X189103000Y-48895000D01*
X189103000Y-48895000D01*
G37*
X189103000Y-48895000D02*
X165735000Y-48895000D01*
X165735000Y-37032000D01*
X189103000Y-37032000D01*
X189103000Y-48895000D01*
G04 #@! TO.N,/gatedrivers/PHASEC_SOURCE*
G36*
X124079000Y-54483000D02*
X117983000Y-54483000D01*
X117983000Y-50165000D01*
X124079000Y-50165000D01*
X124079000Y-54483000D01*
X124079000Y-54483000D01*
G37*
X124079000Y-54483000D02*
X117983000Y-54483000D01*
X117983000Y-50165000D01*
X124079000Y-50165000D01*
X124079000Y-54483000D01*
G04 #@! TO.N,/gatedrivers/PHASEB_SOURCE*
G36*
X148971000Y-54483000D02*
X143129000Y-54483000D01*
X143129000Y-49911000D01*
X148971000Y-49911000D01*
X148971000Y-54483000D01*
X148971000Y-54483000D01*
G37*
X148971000Y-54483000D02*
X143129000Y-54483000D01*
X143129000Y-49911000D01*
X148971000Y-49911000D01*
X148971000Y-54483000D01*
G04 #@! TO.N,/gatedrivers/PHASEA_SOURCE*
G36*
X174371000Y-54483000D02*
X168021000Y-54483000D01*
X168021000Y-50165000D01*
X174371000Y-50165000D01*
X174371000Y-54483000D01*
X174371000Y-54483000D01*
G37*
X174371000Y-54483000D02*
X168021000Y-54483000D01*
X168021000Y-50165000D01*
X174371000Y-50165000D01*
X174371000Y-54483000D01*
G04 #@! TO.N,/GND*
G36*
X117221000Y-55372000D02*
X117230667Y-55420601D01*
X117258197Y-55461803D01*
X117299399Y-55489333D01*
X117348000Y-55499000D01*
X192704944Y-55499000D01*
X195972810Y-62537481D01*
X196002045Y-62577491D01*
X196052165Y-62605839D01*
X200279000Y-63849026D01*
X200279000Y-78867000D01*
X83947000Y-78867000D01*
X83947000Y-56846573D01*
X104665000Y-56846573D01*
X104665000Y-58153427D01*
X105165111Y-59360803D01*
X106089197Y-60284889D01*
X107296573Y-60785000D01*
X108603427Y-60785000D01*
X109810803Y-60284889D01*
X110734889Y-59360803D01*
X111235000Y-58153427D01*
X111235000Y-56846573D01*
X110734889Y-55639197D01*
X109810803Y-54715111D01*
X108603427Y-54215000D01*
X107296573Y-54215000D01*
X106089197Y-54715111D01*
X105165111Y-55639197D01*
X104665000Y-56846573D01*
X83947000Y-56846573D01*
X83947000Y-37032000D01*
X117221000Y-37032000D01*
X117221000Y-55372000D01*
X117221000Y-55372000D01*
G37*
X117221000Y-55372000D02*
X117230667Y-55420601D01*
X117258197Y-55461803D01*
X117299399Y-55489333D01*
X117348000Y-55499000D01*
X192704944Y-55499000D01*
X195972810Y-62537481D01*
X196002045Y-62577491D01*
X196052165Y-62605839D01*
X200279000Y-63849026D01*
X200279000Y-78867000D01*
X83947000Y-78867000D01*
X83947000Y-56846573D01*
X104665000Y-56846573D01*
X104665000Y-58153427D01*
X105165111Y-59360803D01*
X106089197Y-60284889D01*
X107296573Y-60785000D01*
X108603427Y-60785000D01*
X109810803Y-60284889D01*
X110734889Y-59360803D01*
X111235000Y-58153427D01*
X111235000Y-56846573D01*
X110734889Y-55639197D01*
X109810803Y-54715111D01*
X108603427Y-54215000D01*
X107296573Y-54215000D01*
X106089197Y-54715111D01*
X105165111Y-55639197D01*
X104665000Y-56846573D01*
X83947000Y-56846573D01*
X83947000Y-37032000D01*
X117221000Y-37032000D01*
X117221000Y-55372000D01*
G04 #@! TD*
M02*
