G04 #@! TF.GenerationSoftware,KiCad,Pcbnew,5.0.2+dfsg1-1*
G04 #@! TF.CreationDate,2019-10-25T16:48:50-05:00*
G04 #@! TF.ProjectId,bldc_v1,626c6463-5f76-4312-9e6b-696361645f70,rev?*
G04 #@! TF.SameCoordinates,Original*
G04 #@! TF.FileFunction,Soldermask,Top*
G04 #@! TF.FilePolarity,Negative*
%FSLAX46Y46*%
G04 Gerber Fmt 4.6, Leading zero omitted, Abs format (unit mm)*
G04 Created by KiCad (PCBNEW 5.0.2+dfsg1-1) date Fri 25 Oct 2019 04:48:50 PM CDT*
%MOMM*%
%LPD*%
G01*
G04 APERTURE LIST*
%ADD10C,0.304800*%
%ADD11C,0.100000*%
G04 APERTURE END LIST*
D10*
G04 #@! TO.C,REF\002A\002A*
X214795100Y-55732680D02*
X214574120Y-55641240D01*
X214574120Y-55641240D02*
X214304880Y-55641240D01*
X214304880Y-55641240D02*
X214073740Y-55811420D01*
X214073740Y-55811420D02*
X214073740Y-56052720D01*
X214073740Y-56052720D02*
X214353140Y-56271160D01*
X214353140Y-56271160D02*
X214614760Y-56372760D01*
X214614760Y-56372760D02*
X214734140Y-56662320D01*
X214734140Y-56662320D02*
X214594440Y-56852820D01*
X214594440Y-56852820D02*
X214284560Y-56901080D01*
X214284560Y-56901080D02*
X214053420Y-56862980D01*
X214053420Y-56862980D02*
X214063580Y-56852820D01*
X213273640Y-56222900D02*
X212963760Y-56233060D01*
X213553040Y-55631080D02*
X212943440Y-55651400D01*
X212943440Y-55651400D02*
X212953600Y-56873140D01*
X212953600Y-56873140D02*
X213525100Y-56890920D01*
X212384640Y-55742840D02*
X212173820Y-55651400D01*
X212173820Y-55651400D02*
X211924900Y-55702200D01*
X211924900Y-55702200D02*
X211673440Y-55991760D01*
X211673440Y-55991760D02*
X211594700Y-56393080D01*
X211594700Y-56393080D02*
X211693760Y-56692800D01*
X211693760Y-56692800D02*
X211973160Y-56862980D01*
X211973160Y-56862980D02*
X212234780Y-56901080D01*
X212234780Y-56901080D02*
X212384640Y-56781700D01*
X212384640Y-56781700D02*
X212394800Y-56771540D01*
X211074000Y-55631080D02*
X211074000Y-56873140D01*
X209793840Y-55620920D02*
X210212940Y-56890920D01*
X210212940Y-56890920D02*
X210634580Y-55631080D01*
X209252820Y-56222900D02*
X208915000Y-56250840D01*
X208915000Y-56250840D02*
X208915000Y-56233060D01*
X209443320Y-55631080D02*
X208843880Y-55631080D01*
X208843880Y-55631080D02*
X208813400Y-56873140D01*
X208813400Y-56873140D02*
X209433160Y-56890920D01*
X207573880Y-55651400D02*
X207573880Y-56890920D01*
X207573880Y-56890920D02*
X207893920Y-56890920D01*
X207893920Y-56890920D02*
X208163160Y-56713120D01*
X208163160Y-56713120D02*
X208274920Y-56311800D01*
X208274920Y-56311800D02*
X208234280Y-55981600D01*
X208234280Y-55981600D02*
X208114900Y-55742840D01*
X208114900Y-55742840D02*
X207944720Y-55651400D01*
X207944720Y-55651400D02*
X207645000Y-55641240D01*
X215282780Y-54041040D02*
X214924640Y-54051200D01*
X215483440Y-54742080D02*
X214873840Y-54721760D01*
X214873840Y-54721760D02*
X214853520Y-53502560D01*
X215473280Y-53472080D02*
X214873840Y-53482240D01*
X213583520Y-53482240D02*
X213995000Y-54701440D01*
X213995000Y-54701440D02*
X214434420Y-53482240D01*
X213174580Y-53502560D02*
X213164420Y-54701440D01*
X212364320Y-53502560D02*
X212374480Y-54691280D01*
X212374480Y-54691280D02*
X212384640Y-54691280D01*
X212034120Y-53482240D02*
X212704680Y-53492400D01*
X211584540Y-53431440D02*
X211584540Y-54691280D01*
X211074000Y-53533040D02*
X210863180Y-53441600D01*
X210863180Y-53441600D02*
X210593940Y-53472080D01*
X210593940Y-53472080D02*
X210383120Y-53591460D01*
X210383120Y-53591460D02*
X210314540Y-53802280D01*
X210314540Y-53802280D02*
X210413600Y-53992780D01*
X210413600Y-53992780D02*
X210614260Y-54081680D01*
X210614260Y-54081680D02*
X210835240Y-54152800D01*
X210835240Y-54152800D02*
X211002880Y-54302660D01*
X211002880Y-54302660D02*
X211033360Y-54500780D01*
X211033360Y-54500780D02*
X210863180Y-54701440D01*
X210863180Y-54701440D02*
X210624420Y-54721760D01*
X210624420Y-54721760D02*
X210355180Y-54681120D01*
X209064860Y-54711600D02*
X209064860Y-53543200D01*
X209064860Y-53543200D02*
X209753200Y-54721760D01*
X209753200Y-54721760D02*
X209753200Y-53482240D01*
X208513680Y-54742080D02*
X207914240Y-54711600D01*
X207914240Y-54711600D02*
X207893920Y-53482240D01*
X208302860Y-54051200D02*
X207904080Y-54041040D01*
X208473040Y-53472080D02*
X207924400Y-53472080D01*
X207373220Y-53533040D02*
X207164940Y-53472080D01*
X207164940Y-53472080D02*
X206855060Y-53482240D01*
X206855060Y-53482240D02*
X206623920Y-53710840D01*
X206623920Y-53710840D02*
X206644240Y-53921660D01*
X206644240Y-53921660D02*
X206872840Y-54041040D01*
X206872840Y-54041040D02*
X207203040Y-54173120D01*
X207203040Y-54173120D02*
X207335120Y-54381400D01*
X207335120Y-54381400D02*
X207284320Y-54653180D01*
X207284320Y-54653180D02*
X207053180Y-54762400D01*
X207053180Y-54762400D02*
X206712820Y-54701440D01*
X206712820Y-54701440D02*
X206644240Y-54681120D01*
X218053920Y-51483260D02*
X217784680Y-51330860D01*
X217784680Y-51330860D02*
X217553540Y-51351180D01*
X217553540Y-51351180D02*
X217314780Y-51551840D01*
X217314780Y-51551840D02*
X217223340Y-51970940D01*
X217223340Y-51970940D02*
X217274140Y-52372260D01*
X217274140Y-52372260D02*
X217523060Y-52572920D01*
X217523060Y-52572920D02*
X217815160Y-52572920D01*
X217815160Y-52572920D02*
X217992960Y-52461160D01*
X216705180Y-51323240D02*
X216705180Y-52552600D01*
X215874600Y-51361340D02*
X215905080Y-52583080D01*
X215534240Y-51361340D02*
X216225120Y-51351180D01*
X214584280Y-52232560D02*
X215115140Y-52232560D01*
X214454740Y-52593240D02*
X214873840Y-51361340D01*
X214873840Y-51361340D02*
X215275160Y-52583080D01*
X213814660Y-51341020D02*
X213834980Y-52583080D01*
X213504780Y-51330860D02*
X214155020Y-51330860D01*
X213113620Y-51391820D02*
X212885020Y-51323240D01*
X212885020Y-51323240D02*
X212524340Y-51381660D01*
X212524340Y-51381660D02*
X212384640Y-51633120D01*
X212384640Y-51633120D02*
X212443060Y-51821080D01*
X212443060Y-51821080D02*
X212742780Y-51981100D01*
X212742780Y-51981100D02*
X212994240Y-52092860D01*
X212994240Y-52092860D02*
X213103460Y-52362100D01*
X213103460Y-52362100D02*
X212953600Y-52532280D01*
X212953600Y-52532280D02*
X212704680Y-52611020D01*
X212704680Y-52611020D02*
X212394800Y-52572920D01*
X211465160Y-51341020D02*
X211714080Y-51412140D01*
X211714080Y-51412140D02*
X211853780Y-51633120D01*
X211853780Y-51633120D02*
X211914740Y-52001420D01*
X211914740Y-52001420D02*
X211843620Y-52382420D01*
X211843620Y-52382420D02*
X211724240Y-52542440D01*
X211724240Y-52542440D02*
X211533740Y-52593240D01*
X211533740Y-52593240D02*
X211312760Y-52583080D01*
X211312760Y-52583080D02*
X211104480Y-52321460D01*
X211104480Y-52321460D02*
X211033360Y-52001420D01*
X211033360Y-52001420D02*
X211104480Y-51582320D01*
X211104480Y-51582320D02*
X211254340Y-51391820D01*
X211254340Y-51391820D02*
X211434680Y-51381660D01*
X210195160Y-52031900D02*
X210553300Y-52572920D01*
X209844640Y-52572920D02*
X209844640Y-51351180D01*
X209844640Y-51351180D02*
X210284060Y-51341020D01*
X210284060Y-51341020D02*
X210474560Y-51452780D01*
X210474560Y-51452780D02*
X210563460Y-51711860D01*
X210563460Y-51711860D02*
X210474560Y-51902360D01*
X210474560Y-51902360D02*
X210304380Y-51991260D01*
X210304380Y-51991260D02*
X209903060Y-51991260D01*
X209903060Y-51991260D02*
X209913220Y-51991260D01*
X209034380Y-51732180D02*
X209044540Y-51341020D01*
X209044540Y-51341020D02*
X209064860Y-51341020D01*
X209024220Y-51711860D02*
X209044540Y-52583080D01*
X208724500Y-51330860D02*
X209395060Y-51330860D01*
X208373980Y-51462940D02*
X208135220Y-51351180D01*
X208135220Y-51351180D02*
X207914240Y-51351180D01*
X207914240Y-51351180D02*
X207662780Y-51501040D01*
X207662780Y-51501040D02*
X207563720Y-51871880D01*
X207563720Y-51871880D02*
X207584040Y-52232560D01*
X207584040Y-52232560D02*
X207744060Y-52481480D01*
X207744060Y-52481480D02*
X207954880Y-52583080D01*
X207954880Y-52583080D02*
X208302860Y-52501800D01*
X206474060Y-51341020D02*
X206463900Y-51330860D01*
X206463900Y-51330860D02*
X207032860Y-51330860D01*
X206514700Y-51943000D02*
X206865220Y-51943000D01*
X206463900Y-51330860D02*
X206463900Y-52593240D01*
X206463900Y-52593240D02*
X207032860Y-52593240D01*
X205442820Y-51313080D02*
X205435200Y-52583080D01*
X205435200Y-52583080D02*
X206024480Y-52583080D01*
X204703680Y-51943000D02*
X204325220Y-51932840D01*
X204284580Y-51323240D02*
X204274420Y-52583080D01*
X204274420Y-52583080D02*
X204863700Y-52583080D01*
X204924660Y-51323240D02*
X204284580Y-51323240D01*
X214784940Y-50502820D02*
X214795100Y-49311560D01*
X214795100Y-49311560D02*
X215513920Y-50512980D01*
X215513920Y-50512980D02*
X215503760Y-49281080D01*
X213824820Y-49260760D02*
X214053420Y-49331880D01*
X214053420Y-49331880D02*
X214223600Y-49542700D01*
X214223600Y-49542700D02*
X214233760Y-49883060D01*
X214233760Y-49883060D02*
X214223600Y-50182780D01*
X214223600Y-50182780D02*
X214114380Y-50401220D01*
X214114380Y-50401220D02*
X213883240Y-50512980D01*
X213883240Y-50512980D02*
X213674960Y-50492660D01*
X213674960Y-50492660D02*
X213504780Y-50352960D01*
X213504780Y-50352960D02*
X213393020Y-49921160D01*
X213393020Y-49921160D02*
X213393020Y-49601120D01*
X213393020Y-49601120D02*
X213504780Y-49392840D01*
X213504780Y-49392840D02*
X213713060Y-49270920D01*
X212854540Y-49242980D02*
X212844380Y-50502820D01*
X212044280Y-49281080D02*
X212064600Y-50492660D01*
X211683600Y-49253140D02*
X212384640Y-49253140D01*
X210563460Y-50540920D02*
X210553300Y-49301400D01*
X210553300Y-49301400D02*
X211264500Y-50502820D01*
X211264500Y-50502820D02*
X211264500Y-49270920D01*
X209974180Y-50530760D02*
X209433160Y-50512980D01*
X209433160Y-50512980D02*
X209443320Y-50512980D01*
X209875120Y-49852580D02*
X209453480Y-49862740D01*
X209453480Y-49862740D02*
X209473800Y-49862740D01*
X209423000Y-49260760D02*
X209933540Y-49260760D01*
X209412840Y-49260760D02*
X209412840Y-50492660D01*
X209412840Y-50492660D02*
X209423000Y-50492660D01*
X208612740Y-50523140D02*
X208605120Y-49270920D01*
X207624680Y-49260760D02*
X207655160Y-50492660D01*
X208295240Y-49253140D02*
X208932780Y-49242980D01*
X207284320Y-49260760D02*
X207965040Y-49253140D01*
X206324200Y-50172620D02*
X206923640Y-50182780D01*
X206204820Y-50523140D02*
X206613760Y-49253140D01*
X206613760Y-49253140D02*
X207043020Y-50523140D01*
X210423760Y-44282360D02*
X211134960Y-44792900D01*
X211594700Y-46672500D02*
X214332820Y-48524160D01*
X214332820Y-48524160D02*
X214353140Y-48524160D01*
X211312760Y-47053500D02*
X213243160Y-48503840D01*
X210723480Y-47513240D02*
X212095080Y-48524160D01*
X212095080Y-48524160D02*
X212123020Y-48524160D01*
X209534760Y-47584360D02*
X211053680Y-48602900D01*
X206303880Y-47962820D02*
X207424020Y-48554640D01*
X206514700Y-47434500D02*
X208894680Y-48572420D01*
X206733140Y-46873160D02*
X209933540Y-48524160D01*
X207043020Y-46413420D02*
X208663540Y-47203360D01*
X208663540Y-47203360D02*
X208694020Y-47203360D01*
X207324960Y-45864780D02*
X208612740Y-46593760D01*
X207523080Y-45374560D02*
X208594960Y-45963840D01*
X207703420Y-44874180D02*
X208445100Y-45272960D01*
X213194900Y-45252640D02*
X215452960Y-46593760D01*
X213525100Y-44643040D02*
X215173560Y-45933360D01*
X213774020Y-44183300D02*
X214614760Y-44813220D01*
X208564480Y-43243500D02*
X209384900Y-43723560D01*
X208843880Y-42763440D02*
X209763360Y-43393360D01*
X209763360Y-43393360D02*
X209763360Y-43373040D01*
X209024220Y-42252900D02*
X210042760Y-42943780D01*
X209354420Y-41612820D02*
X210624420Y-42402760D01*
X210624420Y-42402760D02*
X210654900Y-42402760D01*
X209715100Y-40982900D02*
X211533740Y-42123360D01*
X210063080Y-40342820D02*
X212272880Y-41793160D01*
X210324700Y-39814500D02*
X212933280Y-41564560D01*
X210723480Y-39154100D02*
X212653880Y-40553640D01*
X210985100Y-38544500D02*
X212023960Y-39283640D01*
X209964020Y-44564300D02*
X210294220Y-44714160D01*
X210294220Y-44714160D02*
X210654900Y-44594780D01*
X210654900Y-44594780D02*
X211134960Y-45123100D01*
X211134960Y-45123100D02*
X211312760Y-45354240D01*
X209555080Y-45072300D02*
X209555080Y-46014640D01*
X209555080Y-46014640D02*
X209684620Y-46852840D01*
X209684620Y-46852840D02*
X209964020Y-47083980D01*
X209964020Y-47083980D02*
X210063080Y-46774100D01*
X210063080Y-46774100D02*
X209933540Y-45374560D01*
X209933540Y-45374560D02*
X210372960Y-45582840D01*
X210372960Y-45582840D02*
X210345020Y-46192440D01*
X210345020Y-46192440D02*
X210774280Y-45653960D01*
X210774280Y-45653960D02*
X211002880Y-45783500D01*
X208612740Y-44643040D02*
X207982820Y-44363640D01*
X207982820Y-44363640D02*
X205922880Y-48524160D01*
X205922880Y-48524160D02*
X215983820Y-48602900D01*
X215983820Y-48602900D02*
X211942680Y-46393100D01*
X213164420Y-41564560D02*
X211284820Y-37833300D01*
X211284820Y-37833300D02*
X208313020Y-43624500D01*
X208313020Y-43624500D02*
X209174080Y-44053760D01*
X209174080Y-44053760D02*
X209204560Y-44053760D01*
X214233760Y-43903900D02*
X216034620Y-47683420D01*
X216034620Y-47683420D02*
X212684360Y-45864780D01*
X212684360Y-45864780D02*
X212752940Y-45834300D01*
X210853020Y-47203360D02*
X211152740Y-47383700D01*
X211152740Y-47383700D02*
X211183220Y-47383700D01*
X211383880Y-46672500D02*
X211642960Y-47023020D01*
X213273640Y-41612820D02*
X212323680Y-41894760D01*
X212323680Y-41894760D02*
X210423760Y-42562780D01*
X210423760Y-42562780D02*
X209194400Y-44074080D01*
X208694020Y-44632880D02*
X208584800Y-46314360D01*
X208584800Y-46314360D02*
X209082640Y-47983140D01*
X209082640Y-47983140D02*
X209453480Y-47564040D01*
X209453480Y-47564040D02*
X209224880Y-46692820D01*
X209224880Y-46692820D02*
X209224880Y-45633640D01*
X209224880Y-45633640D02*
X209303620Y-45092620D01*
X209303620Y-45092620D02*
X209354420Y-45044360D01*
X209354420Y-45044360D02*
X209603340Y-44714160D01*
X209603340Y-44714160D02*
X210444080Y-44084240D01*
X210444080Y-44084240D02*
X210672680Y-43934380D01*
X210672680Y-43934380D02*
X211533740Y-45024040D01*
X211533740Y-45024040D02*
X211383880Y-45534580D01*
X211383880Y-45534580D02*
X210372960Y-46804580D01*
X210372960Y-46804580D02*
X210212940Y-47584360D01*
X210212940Y-47584360D02*
X210444080Y-47894240D01*
X210444080Y-47894240D02*
X210753960Y-47233840D01*
X210753960Y-47233840D02*
X211264500Y-46723300D01*
X211264500Y-46723300D02*
X211874100Y-46192440D01*
X212732620Y-45753020D02*
X213243160Y-44922440D01*
X213243160Y-44922440D02*
X213573360Y-44383960D01*
X213573360Y-44383960D02*
X213852760Y-43954700D01*
X213852760Y-43954700D02*
X214182960Y-43822620D01*
D11*
G36*
X200177850Y-126022797D02*
X200177852Y-126022798D01*
X200177853Y-126022798D01*
X200359430Y-126098010D01*
X200669404Y-126226405D01*
X201111790Y-126521998D01*
X201488002Y-126898210D01*
X201783595Y-127340596D01*
X201987203Y-127832150D01*
X202091000Y-128353973D01*
X202091000Y-128886027D01*
X201987203Y-129407850D01*
X201783595Y-129899404D01*
X201488002Y-130341790D01*
X201111790Y-130718002D01*
X200669404Y-131013595D01*
X200359430Y-131141990D01*
X200177853Y-131217202D01*
X200177852Y-131217202D01*
X200177850Y-131217203D01*
X199656027Y-131321000D01*
X199123973Y-131321000D01*
X198602150Y-131217203D01*
X198602148Y-131217202D01*
X198602147Y-131217202D01*
X198420570Y-131141990D01*
X198110596Y-131013595D01*
X197668210Y-130718002D01*
X197291998Y-130341790D01*
X196996405Y-129899404D01*
X196792797Y-129407850D01*
X196689000Y-128886027D01*
X196689000Y-128353973D01*
X196792797Y-127832150D01*
X196996405Y-127340596D01*
X197291998Y-126898210D01*
X197668210Y-126521998D01*
X198110596Y-126226405D01*
X198420570Y-126098010D01*
X198602147Y-126022798D01*
X198602148Y-126022798D01*
X198602150Y-126022797D01*
X199123973Y-125919000D01*
X199656027Y-125919000D01*
X200177850Y-126022797D01*
X200177850Y-126022797D01*
G37*
G36*
X108737850Y-126022797D02*
X108737852Y-126022798D01*
X108737853Y-126022798D01*
X108919430Y-126098010D01*
X109229404Y-126226405D01*
X109671790Y-126521998D01*
X110048002Y-126898210D01*
X110343595Y-127340596D01*
X110547203Y-127832150D01*
X110651000Y-128353973D01*
X110651000Y-128886027D01*
X110547203Y-129407850D01*
X110343595Y-129899404D01*
X110048002Y-130341790D01*
X109671790Y-130718002D01*
X109229404Y-131013595D01*
X108919430Y-131141990D01*
X108737853Y-131217202D01*
X108737852Y-131217202D01*
X108737850Y-131217203D01*
X108216027Y-131321000D01*
X107683973Y-131321000D01*
X107162150Y-131217203D01*
X107162148Y-131217202D01*
X107162147Y-131217202D01*
X106980570Y-131141990D01*
X106670596Y-131013595D01*
X106228210Y-130718002D01*
X105851998Y-130341790D01*
X105556405Y-129899404D01*
X105352797Y-129407850D01*
X105249000Y-128886027D01*
X105249000Y-128353973D01*
X105352797Y-127832150D01*
X105556405Y-127340596D01*
X105851998Y-126898210D01*
X106228210Y-126521998D01*
X106670596Y-126226405D01*
X106980570Y-126098010D01*
X107162147Y-126022798D01*
X107162148Y-126022798D01*
X107162150Y-126022797D01*
X107683973Y-125919000D01*
X108216027Y-125919000D01*
X108737850Y-126022797D01*
X108737850Y-126022797D01*
G37*
G36*
X141248228Y-127401703D02*
X141403100Y-127465853D01*
X141542481Y-127558985D01*
X141661015Y-127677519D01*
X141754147Y-127816900D01*
X141818297Y-127971772D01*
X141851000Y-128136184D01*
X141851000Y-128303816D01*
X141818297Y-128468228D01*
X141754147Y-128623100D01*
X141661015Y-128762481D01*
X141542481Y-128881015D01*
X141403100Y-128974147D01*
X141248228Y-129038297D01*
X141083816Y-129071000D01*
X140916184Y-129071000D01*
X140751772Y-129038297D01*
X140596900Y-128974147D01*
X140457519Y-128881015D01*
X140338985Y-128762481D01*
X140245853Y-128623100D01*
X140181703Y-128468228D01*
X140149000Y-128303816D01*
X140149000Y-128136184D01*
X140181703Y-127971772D01*
X140245853Y-127816900D01*
X140338985Y-127677519D01*
X140457519Y-127558985D01*
X140596900Y-127465853D01*
X140751772Y-127401703D01*
X140916184Y-127369000D01*
X141083816Y-127369000D01*
X141248228Y-127401703D01*
X141248228Y-127401703D01*
G37*
G36*
X146248228Y-127401703D02*
X146403100Y-127465853D01*
X146542481Y-127558985D01*
X146661015Y-127677519D01*
X146754147Y-127816900D01*
X146818297Y-127971772D01*
X146851000Y-128136184D01*
X146851000Y-128303816D01*
X146818297Y-128468228D01*
X146754147Y-128623100D01*
X146661015Y-128762481D01*
X146542481Y-128881015D01*
X146403100Y-128974147D01*
X146248228Y-129038297D01*
X146083816Y-129071000D01*
X145916184Y-129071000D01*
X145751772Y-129038297D01*
X145596900Y-128974147D01*
X145457519Y-128881015D01*
X145338985Y-128762481D01*
X145245853Y-128623100D01*
X145181703Y-128468228D01*
X145149000Y-128303816D01*
X145149000Y-128136184D01*
X145181703Y-127971772D01*
X145245853Y-127816900D01*
X145338985Y-127677519D01*
X145457519Y-127558985D01*
X145596900Y-127465853D01*
X145751772Y-127401703D01*
X145916184Y-127369000D01*
X146083816Y-127369000D01*
X146248228Y-127401703D01*
X146248228Y-127401703D01*
G37*
G36*
X128573228Y-127401703D02*
X128728100Y-127465853D01*
X128867481Y-127558985D01*
X128986015Y-127677519D01*
X129079147Y-127816900D01*
X129143297Y-127971772D01*
X129176000Y-128136184D01*
X129176000Y-128303816D01*
X129143297Y-128468228D01*
X129079147Y-128623100D01*
X128986015Y-128762481D01*
X128867481Y-128881015D01*
X128728100Y-128974147D01*
X128573228Y-129038297D01*
X128408816Y-129071000D01*
X128241184Y-129071000D01*
X128076772Y-129038297D01*
X127921900Y-128974147D01*
X127782519Y-128881015D01*
X127663985Y-128762481D01*
X127570853Y-128623100D01*
X127506703Y-128468228D01*
X127474000Y-128303816D01*
X127474000Y-128136184D01*
X127506703Y-127971772D01*
X127570853Y-127816900D01*
X127663985Y-127677519D01*
X127782519Y-127558985D01*
X127921900Y-127465853D01*
X128076772Y-127401703D01*
X128241184Y-127369000D01*
X128408816Y-127369000D01*
X128573228Y-127401703D01*
X128573228Y-127401703D01*
G37*
G36*
X123573228Y-127401703D02*
X123728100Y-127465853D01*
X123867481Y-127558985D01*
X123986015Y-127677519D01*
X124079147Y-127816900D01*
X124143297Y-127971772D01*
X124176000Y-128136184D01*
X124176000Y-128303816D01*
X124143297Y-128468228D01*
X124079147Y-128623100D01*
X123986015Y-128762481D01*
X123867481Y-128881015D01*
X123728100Y-128974147D01*
X123573228Y-129038297D01*
X123408816Y-129071000D01*
X123241184Y-129071000D01*
X123076772Y-129038297D01*
X122921900Y-128974147D01*
X122782519Y-128881015D01*
X122663985Y-128762481D01*
X122570853Y-128623100D01*
X122506703Y-128468228D01*
X122474000Y-128303816D01*
X122474000Y-128136184D01*
X122506703Y-127971772D01*
X122570853Y-127816900D01*
X122663985Y-127677519D01*
X122782519Y-127558985D01*
X122921900Y-127465853D01*
X123076772Y-127401703D01*
X123241184Y-127369000D01*
X123408816Y-127369000D01*
X123573228Y-127401703D01*
X123573228Y-127401703D01*
G37*
G36*
X169267000Y-127291500D02*
X167615000Y-127291500D01*
X167615000Y-126589500D01*
X169267000Y-126589500D01*
X169267000Y-127291500D01*
X169267000Y-127291500D01*
G37*
G36*
X183047000Y-127291500D02*
X181395000Y-127291500D01*
X181395000Y-126589500D01*
X183047000Y-126589500D01*
X183047000Y-127291500D01*
X183047000Y-127291500D01*
G37*
G36*
X188447000Y-127291500D02*
X186795000Y-127291500D01*
X186795000Y-126589500D01*
X188447000Y-126589500D01*
X188447000Y-127291500D01*
X188447000Y-127291500D01*
G37*
G36*
X174667000Y-127291500D02*
X173015000Y-127291500D01*
X173015000Y-126589500D01*
X174667000Y-126589500D01*
X174667000Y-127291500D01*
X174667000Y-127291500D01*
G37*
G36*
X183047000Y-126021500D02*
X181395000Y-126021500D01*
X181395000Y-125319500D01*
X183047000Y-125319500D01*
X183047000Y-126021500D01*
X183047000Y-126021500D01*
G37*
G36*
X188447000Y-126021500D02*
X186795000Y-126021500D01*
X186795000Y-125319500D01*
X188447000Y-125319500D01*
X188447000Y-126021500D01*
X188447000Y-126021500D01*
G37*
G36*
X174667000Y-126021500D02*
X173015000Y-126021500D01*
X173015000Y-125319500D01*
X174667000Y-125319500D01*
X174667000Y-126021500D01*
X174667000Y-126021500D01*
G37*
G36*
X169267000Y-126021500D02*
X167615000Y-126021500D01*
X167615000Y-125319500D01*
X169267000Y-125319500D01*
X169267000Y-126021500D01*
X169267000Y-126021500D01*
G37*
G36*
X85708442Y-123311518D02*
X85774627Y-123318037D01*
X85887853Y-123352384D01*
X85944467Y-123369557D01*
X86083087Y-123443652D01*
X86100991Y-123453222D01*
X86135448Y-123481500D01*
X86238186Y-123565814D01*
X86321448Y-123667271D01*
X86350778Y-123703009D01*
X86350779Y-123703011D01*
X86434443Y-123859533D01*
X86434443Y-123859534D01*
X86485963Y-124029373D01*
X86503359Y-124206000D01*
X86485963Y-124382627D01*
X86451616Y-124495853D01*
X86434443Y-124552467D01*
X86360348Y-124691087D01*
X86350778Y-124708991D01*
X86321448Y-124744729D01*
X86238186Y-124846186D01*
X86136729Y-124929448D01*
X86100991Y-124958778D01*
X86100989Y-124958779D01*
X85944467Y-125042443D01*
X85887853Y-125059616D01*
X85774627Y-125093963D01*
X85708443Y-125100481D01*
X85642260Y-125107000D01*
X85553740Y-125107000D01*
X85487557Y-125100481D01*
X85421373Y-125093963D01*
X85308147Y-125059616D01*
X85251533Y-125042443D01*
X85095011Y-124958779D01*
X85095009Y-124958778D01*
X85059271Y-124929448D01*
X84957814Y-124846186D01*
X84874552Y-124744729D01*
X84845222Y-124708991D01*
X84835652Y-124691087D01*
X84761557Y-124552467D01*
X84744384Y-124495853D01*
X84710037Y-124382627D01*
X84692641Y-124206000D01*
X84710037Y-124029373D01*
X84761557Y-123859534D01*
X84761557Y-123859533D01*
X84845221Y-123703011D01*
X84845222Y-123703009D01*
X84874552Y-123667271D01*
X84957814Y-123565814D01*
X85060552Y-123481500D01*
X85095009Y-123453222D01*
X85112913Y-123443652D01*
X85251533Y-123369557D01*
X85308147Y-123352384D01*
X85421373Y-123318037D01*
X85487558Y-123311518D01*
X85553740Y-123305000D01*
X85642260Y-123305000D01*
X85708442Y-123311518D01*
X85708442Y-123311518D01*
G37*
G36*
X88248442Y-123311518D02*
X88314627Y-123318037D01*
X88427853Y-123352384D01*
X88484467Y-123369557D01*
X88623087Y-123443652D01*
X88640991Y-123453222D01*
X88675448Y-123481500D01*
X88778186Y-123565814D01*
X88861448Y-123667271D01*
X88890778Y-123703009D01*
X88890779Y-123703011D01*
X88974443Y-123859533D01*
X88974443Y-123859534D01*
X89025963Y-124029373D01*
X89043359Y-124206000D01*
X89025963Y-124382627D01*
X88991616Y-124495853D01*
X88974443Y-124552467D01*
X88900348Y-124691087D01*
X88890778Y-124708991D01*
X88861448Y-124744729D01*
X88778186Y-124846186D01*
X88676729Y-124929448D01*
X88640991Y-124958778D01*
X88640989Y-124958779D01*
X88484467Y-125042443D01*
X88427853Y-125059616D01*
X88314627Y-125093963D01*
X88248443Y-125100481D01*
X88182260Y-125107000D01*
X88093740Y-125107000D01*
X88027557Y-125100481D01*
X87961373Y-125093963D01*
X87848147Y-125059616D01*
X87791533Y-125042443D01*
X87635011Y-124958779D01*
X87635009Y-124958778D01*
X87599271Y-124929448D01*
X87497814Y-124846186D01*
X87414552Y-124744729D01*
X87385222Y-124708991D01*
X87375652Y-124691087D01*
X87301557Y-124552467D01*
X87284384Y-124495853D01*
X87250037Y-124382627D01*
X87232641Y-124206000D01*
X87250037Y-124029373D01*
X87301557Y-123859534D01*
X87301557Y-123859533D01*
X87385221Y-123703011D01*
X87385222Y-123703009D01*
X87414552Y-123667271D01*
X87497814Y-123565814D01*
X87600552Y-123481500D01*
X87635009Y-123453222D01*
X87652913Y-123443652D01*
X87791533Y-123369557D01*
X87848147Y-123352384D01*
X87961373Y-123318037D01*
X88027558Y-123311518D01*
X88093740Y-123305000D01*
X88182260Y-123305000D01*
X88248442Y-123311518D01*
X88248442Y-123311518D01*
G37*
G36*
X188447000Y-124751500D02*
X186795000Y-124751500D01*
X186795000Y-124049500D01*
X188447000Y-124049500D01*
X188447000Y-124751500D01*
X188447000Y-124751500D01*
G37*
G36*
X169267000Y-124751500D02*
X167615000Y-124751500D01*
X167615000Y-124049500D01*
X169267000Y-124049500D01*
X169267000Y-124751500D01*
X169267000Y-124751500D01*
G37*
G36*
X174667000Y-124751500D02*
X173015000Y-124751500D01*
X173015000Y-124049500D01*
X174667000Y-124049500D01*
X174667000Y-124751500D01*
X174667000Y-124751500D01*
G37*
G36*
X183047000Y-124751500D02*
X181395000Y-124751500D01*
X181395000Y-124049500D01*
X183047000Y-124049500D01*
X183047000Y-124751500D01*
X183047000Y-124751500D01*
G37*
G36*
X183047000Y-123481500D02*
X181395000Y-123481500D01*
X181395000Y-122779500D01*
X183047000Y-122779500D01*
X183047000Y-123481500D01*
X183047000Y-123481500D01*
G37*
G36*
X188447000Y-123481500D02*
X186795000Y-123481500D01*
X186795000Y-122779500D01*
X188447000Y-122779500D01*
X188447000Y-123481500D01*
X188447000Y-123481500D01*
G37*
G36*
X174667000Y-123481500D02*
X173015000Y-123481500D01*
X173015000Y-122779500D01*
X174667000Y-122779500D01*
X174667000Y-123481500D01*
X174667000Y-123481500D01*
G37*
G36*
X169267000Y-123481500D02*
X167615000Y-123481500D01*
X167615000Y-122779500D01*
X169267000Y-122779500D01*
X169267000Y-123481500D01*
X169267000Y-123481500D01*
G37*
G36*
X88248442Y-120771518D02*
X88314627Y-120778037D01*
X88427853Y-120812384D01*
X88484467Y-120829557D01*
X88623087Y-120903652D01*
X88640991Y-120913222D01*
X88676729Y-120942552D01*
X88778186Y-121025814D01*
X88861448Y-121127271D01*
X88890778Y-121163009D01*
X88890779Y-121163011D01*
X88974443Y-121319533D01*
X88974443Y-121319534D01*
X89025963Y-121489373D01*
X89043359Y-121666000D01*
X89025963Y-121842627D01*
X88991616Y-121955853D01*
X88974443Y-122012467D01*
X88900348Y-122151087D01*
X88890778Y-122168991D01*
X88861448Y-122204729D01*
X88778186Y-122306186D01*
X88676729Y-122389448D01*
X88640991Y-122418778D01*
X88640989Y-122418779D01*
X88484467Y-122502443D01*
X88427853Y-122519616D01*
X88314627Y-122553963D01*
X88248442Y-122560482D01*
X88182260Y-122567000D01*
X88093740Y-122567000D01*
X88027558Y-122560482D01*
X87961373Y-122553963D01*
X87848147Y-122519616D01*
X87791533Y-122502443D01*
X87635011Y-122418779D01*
X87635009Y-122418778D01*
X87599271Y-122389448D01*
X87497814Y-122306186D01*
X87414552Y-122204729D01*
X87385222Y-122168991D01*
X87375652Y-122151087D01*
X87301557Y-122012467D01*
X87284384Y-121955853D01*
X87250037Y-121842627D01*
X87232641Y-121666000D01*
X87250037Y-121489373D01*
X87301557Y-121319534D01*
X87301557Y-121319533D01*
X87385221Y-121163011D01*
X87385222Y-121163009D01*
X87414552Y-121127271D01*
X87497814Y-121025814D01*
X87599271Y-120942552D01*
X87635009Y-120913222D01*
X87652913Y-120903652D01*
X87791533Y-120829557D01*
X87848147Y-120812384D01*
X87961373Y-120778037D01*
X88027558Y-120771518D01*
X88093740Y-120765000D01*
X88182260Y-120765000D01*
X88248442Y-120771518D01*
X88248442Y-120771518D01*
G37*
G36*
X85708442Y-120771518D02*
X85774627Y-120778037D01*
X85887853Y-120812384D01*
X85944467Y-120829557D01*
X86083087Y-120903652D01*
X86100991Y-120913222D01*
X86136729Y-120942552D01*
X86238186Y-121025814D01*
X86321448Y-121127271D01*
X86350778Y-121163009D01*
X86350779Y-121163011D01*
X86434443Y-121319533D01*
X86434443Y-121319534D01*
X86485963Y-121489373D01*
X86503359Y-121666000D01*
X86485963Y-121842627D01*
X86451616Y-121955853D01*
X86434443Y-122012467D01*
X86360348Y-122151087D01*
X86350778Y-122168991D01*
X86321448Y-122204729D01*
X86238186Y-122306186D01*
X86136729Y-122389448D01*
X86100991Y-122418778D01*
X86100989Y-122418779D01*
X85944467Y-122502443D01*
X85887853Y-122519616D01*
X85774627Y-122553963D01*
X85708442Y-122560482D01*
X85642260Y-122567000D01*
X85553740Y-122567000D01*
X85487558Y-122560482D01*
X85421373Y-122553963D01*
X85308147Y-122519616D01*
X85251533Y-122502443D01*
X85095011Y-122418779D01*
X85095009Y-122418778D01*
X85059271Y-122389448D01*
X84957814Y-122306186D01*
X84874552Y-122204729D01*
X84845222Y-122168991D01*
X84835652Y-122151087D01*
X84761557Y-122012467D01*
X84744384Y-121955853D01*
X84710037Y-121842627D01*
X84692641Y-121666000D01*
X84710037Y-121489373D01*
X84761557Y-121319534D01*
X84761557Y-121319533D01*
X84845221Y-121163011D01*
X84845222Y-121163009D01*
X84874552Y-121127271D01*
X84957814Y-121025814D01*
X85059271Y-120942552D01*
X85095009Y-120913222D01*
X85112913Y-120903652D01*
X85251533Y-120829557D01*
X85308147Y-120812384D01*
X85421373Y-120778037D01*
X85487558Y-120771518D01*
X85553740Y-120765000D01*
X85642260Y-120765000D01*
X85708442Y-120771518D01*
X85708442Y-120771518D01*
G37*
G36*
X157934677Y-119173965D02*
X157972364Y-119185398D01*
X158007103Y-119203966D01*
X158037548Y-119228952D01*
X158062534Y-119259397D01*
X158081102Y-119294136D01*
X158092535Y-119331823D01*
X158097000Y-119377161D01*
X158097000Y-120463839D01*
X158092535Y-120509177D01*
X158081102Y-120546864D01*
X158062534Y-120581603D01*
X158037548Y-120612048D01*
X158007103Y-120637034D01*
X157972364Y-120655602D01*
X157934677Y-120667035D01*
X157889339Y-120671500D01*
X157052661Y-120671500D01*
X157007323Y-120667035D01*
X156969636Y-120655602D01*
X156934897Y-120637034D01*
X156904452Y-120612048D01*
X156879466Y-120581603D01*
X156860898Y-120546864D01*
X156849465Y-120509177D01*
X156845000Y-120463839D01*
X156845000Y-119377161D01*
X156849465Y-119331823D01*
X156860898Y-119294136D01*
X156879466Y-119259397D01*
X156904452Y-119228952D01*
X156934897Y-119203966D01*
X156969636Y-119185398D01*
X157007323Y-119173965D01*
X157052661Y-119169500D01*
X157889339Y-119169500D01*
X157934677Y-119173965D01*
X157934677Y-119173965D01*
G37*
G36*
X159984677Y-119173965D02*
X160022364Y-119185398D01*
X160057103Y-119203966D01*
X160087548Y-119228952D01*
X160112534Y-119259397D01*
X160131102Y-119294136D01*
X160142535Y-119331823D01*
X160147000Y-119377161D01*
X160147000Y-120463839D01*
X160142535Y-120509177D01*
X160131102Y-120546864D01*
X160112534Y-120581603D01*
X160087548Y-120612048D01*
X160057103Y-120637034D01*
X160022364Y-120655602D01*
X159984677Y-120667035D01*
X159939339Y-120671500D01*
X159102661Y-120671500D01*
X159057323Y-120667035D01*
X159019636Y-120655602D01*
X158984897Y-120637034D01*
X158954452Y-120612048D01*
X158929466Y-120581603D01*
X158910898Y-120546864D01*
X158899465Y-120509177D01*
X158895000Y-120463839D01*
X158895000Y-119377161D01*
X158899465Y-119331823D01*
X158910898Y-119294136D01*
X158929466Y-119259397D01*
X158954452Y-119228952D01*
X158984897Y-119203966D01*
X159019636Y-119185398D01*
X159057323Y-119173965D01*
X159102661Y-119169500D01*
X159939339Y-119169500D01*
X159984677Y-119173965D01*
X159984677Y-119173965D01*
G37*
G36*
X85708442Y-118231518D02*
X85774627Y-118238037D01*
X85887853Y-118272384D01*
X85944467Y-118289557D01*
X86083087Y-118363652D01*
X86100991Y-118373222D01*
X86136729Y-118402552D01*
X86238186Y-118485814D01*
X86321448Y-118587271D01*
X86350778Y-118623009D01*
X86350779Y-118623011D01*
X86434443Y-118779533D01*
X86434443Y-118779534D01*
X86485963Y-118949373D01*
X86503359Y-119126000D01*
X86485963Y-119302627D01*
X86463353Y-119377161D01*
X86434443Y-119472467D01*
X86360348Y-119611087D01*
X86350778Y-119628991D01*
X86321448Y-119664729D01*
X86238186Y-119766186D01*
X86136729Y-119849448D01*
X86100991Y-119878778D01*
X86100989Y-119878779D01*
X85944467Y-119962443D01*
X85887853Y-119979616D01*
X85774627Y-120013963D01*
X85708442Y-120020482D01*
X85642260Y-120027000D01*
X85553740Y-120027000D01*
X85487558Y-120020482D01*
X85421373Y-120013963D01*
X85308147Y-119979616D01*
X85251533Y-119962443D01*
X85095011Y-119878779D01*
X85095009Y-119878778D01*
X85059271Y-119849448D01*
X84957814Y-119766186D01*
X84874552Y-119664729D01*
X84845222Y-119628991D01*
X84835652Y-119611087D01*
X84761557Y-119472467D01*
X84732647Y-119377161D01*
X84710037Y-119302627D01*
X84692641Y-119126000D01*
X84710037Y-118949373D01*
X84761557Y-118779534D01*
X84761557Y-118779533D01*
X84845221Y-118623011D01*
X84845222Y-118623009D01*
X84874552Y-118587271D01*
X84957814Y-118485814D01*
X85059271Y-118402552D01*
X85095009Y-118373222D01*
X85112913Y-118363652D01*
X85251533Y-118289557D01*
X85308147Y-118272384D01*
X85421373Y-118238037D01*
X85487558Y-118231518D01*
X85553740Y-118225000D01*
X85642260Y-118225000D01*
X85708442Y-118231518D01*
X85708442Y-118231518D01*
G37*
G36*
X88248442Y-118231518D02*
X88314627Y-118238037D01*
X88427853Y-118272384D01*
X88484467Y-118289557D01*
X88623087Y-118363652D01*
X88640991Y-118373222D01*
X88676729Y-118402552D01*
X88778186Y-118485814D01*
X88861448Y-118587271D01*
X88890778Y-118623009D01*
X88890779Y-118623011D01*
X88974443Y-118779533D01*
X88974443Y-118779534D01*
X89025963Y-118949373D01*
X89043359Y-119126000D01*
X89025963Y-119302627D01*
X89003353Y-119377161D01*
X88974443Y-119472467D01*
X88900348Y-119611087D01*
X88890778Y-119628991D01*
X88861448Y-119664729D01*
X88778186Y-119766186D01*
X88676729Y-119849448D01*
X88640991Y-119878778D01*
X88640989Y-119878779D01*
X88484467Y-119962443D01*
X88427853Y-119979616D01*
X88314627Y-120013963D01*
X88248442Y-120020482D01*
X88182260Y-120027000D01*
X88093740Y-120027000D01*
X88027558Y-120020482D01*
X87961373Y-120013963D01*
X87848147Y-119979616D01*
X87791533Y-119962443D01*
X87635011Y-119878779D01*
X87635009Y-119878778D01*
X87599271Y-119849448D01*
X87497814Y-119766186D01*
X87414552Y-119664729D01*
X87385222Y-119628991D01*
X87375652Y-119611087D01*
X87301557Y-119472467D01*
X87272647Y-119377161D01*
X87250037Y-119302627D01*
X87232641Y-119126000D01*
X87250037Y-118949373D01*
X87301557Y-118779534D01*
X87301557Y-118779533D01*
X87385221Y-118623011D01*
X87385222Y-118623009D01*
X87414552Y-118587271D01*
X87497814Y-118485814D01*
X87599271Y-118402552D01*
X87635009Y-118373222D01*
X87652913Y-118363652D01*
X87791533Y-118289557D01*
X87848147Y-118272384D01*
X87961373Y-118238037D01*
X88027558Y-118231518D01*
X88093740Y-118225000D01*
X88182260Y-118225000D01*
X88248442Y-118231518D01*
X88248442Y-118231518D01*
G37*
G36*
X172629677Y-117938965D02*
X172667364Y-117950398D01*
X172702103Y-117968966D01*
X172732548Y-117993952D01*
X172757534Y-118024397D01*
X172776102Y-118059136D01*
X172787535Y-118096823D01*
X172792000Y-118142161D01*
X172792000Y-119228839D01*
X172787535Y-119274177D01*
X172776102Y-119311864D01*
X172757534Y-119346603D01*
X172732548Y-119377048D01*
X172702103Y-119402034D01*
X172667364Y-119420602D01*
X172629677Y-119432035D01*
X172584339Y-119436500D01*
X171747661Y-119436500D01*
X171702323Y-119432035D01*
X171664636Y-119420602D01*
X171629897Y-119402034D01*
X171599452Y-119377048D01*
X171574466Y-119346603D01*
X171555898Y-119311864D01*
X171544465Y-119274177D01*
X171540000Y-119228839D01*
X171540000Y-118142161D01*
X171544465Y-118096823D01*
X171555898Y-118059136D01*
X171574466Y-118024397D01*
X171599452Y-117993952D01*
X171629897Y-117968966D01*
X171664636Y-117950398D01*
X171702323Y-117938965D01*
X171747661Y-117934500D01*
X172584339Y-117934500D01*
X172629677Y-117938965D01*
X172629677Y-117938965D01*
G37*
G36*
X184359677Y-117938965D02*
X184397364Y-117950398D01*
X184432103Y-117968966D01*
X184462548Y-117993952D01*
X184487534Y-118024397D01*
X184506102Y-118059136D01*
X184517535Y-118096823D01*
X184522000Y-118142161D01*
X184522000Y-119228839D01*
X184517535Y-119274177D01*
X184506102Y-119311864D01*
X184487534Y-119346603D01*
X184462548Y-119377048D01*
X184432103Y-119402034D01*
X184397364Y-119420602D01*
X184359677Y-119432035D01*
X184314339Y-119436500D01*
X183477661Y-119436500D01*
X183432323Y-119432035D01*
X183394636Y-119420602D01*
X183359897Y-119402034D01*
X183329452Y-119377048D01*
X183304466Y-119346603D01*
X183285898Y-119311864D01*
X183274465Y-119274177D01*
X183270000Y-119228839D01*
X183270000Y-118142161D01*
X183274465Y-118096823D01*
X183285898Y-118059136D01*
X183304466Y-118024397D01*
X183329452Y-117993952D01*
X183359897Y-117968966D01*
X183394636Y-117950398D01*
X183432323Y-117938965D01*
X183477661Y-117934500D01*
X184314339Y-117934500D01*
X184359677Y-117938965D01*
X184359677Y-117938965D01*
G37*
G36*
X170579677Y-117938965D02*
X170617364Y-117950398D01*
X170652103Y-117968966D01*
X170682548Y-117993952D01*
X170707534Y-118024397D01*
X170726102Y-118059136D01*
X170737535Y-118096823D01*
X170742000Y-118142161D01*
X170742000Y-119228839D01*
X170737535Y-119274177D01*
X170726102Y-119311864D01*
X170707534Y-119346603D01*
X170682548Y-119377048D01*
X170652103Y-119402034D01*
X170617364Y-119420602D01*
X170579677Y-119432035D01*
X170534339Y-119436500D01*
X169697661Y-119436500D01*
X169652323Y-119432035D01*
X169614636Y-119420602D01*
X169579897Y-119402034D01*
X169549452Y-119377048D01*
X169524466Y-119346603D01*
X169505898Y-119311864D01*
X169494465Y-119274177D01*
X169490000Y-119228839D01*
X169490000Y-118142161D01*
X169494465Y-118096823D01*
X169505898Y-118059136D01*
X169524466Y-118024397D01*
X169549452Y-117993952D01*
X169579897Y-117968966D01*
X169614636Y-117950398D01*
X169652323Y-117938965D01*
X169697661Y-117934500D01*
X170534339Y-117934500D01*
X170579677Y-117938965D01*
X170579677Y-117938965D01*
G37*
G36*
X186409677Y-117938965D02*
X186447364Y-117950398D01*
X186482103Y-117968966D01*
X186512548Y-117993952D01*
X186537534Y-118024397D01*
X186556102Y-118059136D01*
X186567535Y-118096823D01*
X186572000Y-118142161D01*
X186572000Y-119228839D01*
X186567535Y-119274177D01*
X186556102Y-119311864D01*
X186537534Y-119346603D01*
X186512548Y-119377048D01*
X186482103Y-119402034D01*
X186447364Y-119420602D01*
X186409677Y-119432035D01*
X186364339Y-119436500D01*
X185527661Y-119436500D01*
X185482323Y-119432035D01*
X185444636Y-119420602D01*
X185409897Y-119402034D01*
X185379452Y-119377048D01*
X185354466Y-119346603D01*
X185335898Y-119311864D01*
X185324465Y-119274177D01*
X185320000Y-119228839D01*
X185320000Y-118142161D01*
X185324465Y-118096823D01*
X185335898Y-118059136D01*
X185354466Y-118024397D01*
X185379452Y-117993952D01*
X185409897Y-117968966D01*
X185444636Y-117950398D01*
X185482323Y-117938965D01*
X185527661Y-117934500D01*
X186364339Y-117934500D01*
X186409677Y-117938965D01*
X186409677Y-117938965D01*
G37*
G36*
X85703564Y-115691038D02*
X85774627Y-115698037D01*
X85853962Y-115722103D01*
X85944467Y-115749557D01*
X86061288Y-115812000D01*
X86100991Y-115833222D01*
X86136729Y-115862552D01*
X86238186Y-115945814D01*
X86321448Y-116047271D01*
X86350778Y-116083009D01*
X86350779Y-116083011D01*
X86434443Y-116239533D01*
X86434443Y-116239534D01*
X86485963Y-116409373D01*
X86503359Y-116586000D01*
X86485963Y-116762627D01*
X86451616Y-116875853D01*
X86434443Y-116932467D01*
X86360348Y-117071087D01*
X86350778Y-117088991D01*
X86321448Y-117124729D01*
X86238186Y-117226186D01*
X86136729Y-117309448D01*
X86100991Y-117338778D01*
X86100989Y-117338779D01*
X85944467Y-117422443D01*
X85887853Y-117439616D01*
X85774627Y-117473963D01*
X85708442Y-117480482D01*
X85642260Y-117487000D01*
X85553740Y-117487000D01*
X85487558Y-117480482D01*
X85421373Y-117473963D01*
X85308147Y-117439616D01*
X85251533Y-117422443D01*
X85095011Y-117338779D01*
X85095009Y-117338778D01*
X85059271Y-117309448D01*
X84957814Y-117226186D01*
X84874552Y-117124729D01*
X84845222Y-117088991D01*
X84835652Y-117071087D01*
X84761557Y-116932467D01*
X84744384Y-116875853D01*
X84710037Y-116762627D01*
X84692641Y-116586000D01*
X84710037Y-116409373D01*
X84761557Y-116239534D01*
X84761557Y-116239533D01*
X84845221Y-116083011D01*
X84845222Y-116083009D01*
X84874552Y-116047271D01*
X84957814Y-115945814D01*
X85059271Y-115862552D01*
X85095009Y-115833222D01*
X85134712Y-115812000D01*
X85251533Y-115749557D01*
X85342038Y-115722103D01*
X85421373Y-115698037D01*
X85492436Y-115691038D01*
X85553740Y-115685000D01*
X85642260Y-115685000D01*
X85703564Y-115691038D01*
X85703564Y-115691038D01*
G37*
G36*
X88243564Y-115691038D02*
X88314627Y-115698037D01*
X88393962Y-115722103D01*
X88484467Y-115749557D01*
X88601288Y-115812000D01*
X88640991Y-115833222D01*
X88676729Y-115862552D01*
X88778186Y-115945814D01*
X88861448Y-116047271D01*
X88890778Y-116083009D01*
X88890779Y-116083011D01*
X88974443Y-116239533D01*
X88974443Y-116239534D01*
X89025963Y-116409373D01*
X89043359Y-116586000D01*
X89025963Y-116762627D01*
X88991616Y-116875853D01*
X88974443Y-116932467D01*
X88900348Y-117071087D01*
X88890778Y-117088991D01*
X88861448Y-117124729D01*
X88778186Y-117226186D01*
X88676729Y-117309448D01*
X88640991Y-117338778D01*
X88640989Y-117338779D01*
X88484467Y-117422443D01*
X88427853Y-117439616D01*
X88314627Y-117473963D01*
X88248442Y-117480482D01*
X88182260Y-117487000D01*
X88093740Y-117487000D01*
X88027558Y-117480482D01*
X87961373Y-117473963D01*
X87848147Y-117439616D01*
X87791533Y-117422443D01*
X87635011Y-117338779D01*
X87635009Y-117338778D01*
X87599271Y-117309448D01*
X87497814Y-117226186D01*
X87414552Y-117124729D01*
X87385222Y-117088991D01*
X87375652Y-117071087D01*
X87301557Y-116932467D01*
X87284384Y-116875853D01*
X87250037Y-116762627D01*
X87232641Y-116586000D01*
X87250037Y-116409373D01*
X87301557Y-116239534D01*
X87301557Y-116239533D01*
X87385221Y-116083011D01*
X87385222Y-116083009D01*
X87414552Y-116047271D01*
X87497814Y-115945814D01*
X87599271Y-115862552D01*
X87635009Y-115833222D01*
X87674712Y-115812000D01*
X87791533Y-115749557D01*
X87882038Y-115722103D01*
X87961373Y-115698037D01*
X88032436Y-115691038D01*
X88093740Y-115685000D01*
X88182260Y-115685000D01*
X88243564Y-115691038D01*
X88243564Y-115691038D01*
G37*
G36*
X151085562Y-115187681D02*
X151120477Y-115198273D01*
X151152665Y-115215478D01*
X151180873Y-115238627D01*
X151204022Y-115266835D01*
X151221227Y-115299023D01*
X151231819Y-115333938D01*
X151236000Y-115376395D01*
X151236000Y-116517605D01*
X151231819Y-116560062D01*
X151221227Y-116594977D01*
X151204022Y-116627165D01*
X151180873Y-116655373D01*
X151152665Y-116678522D01*
X151120477Y-116695727D01*
X151085562Y-116706319D01*
X151043105Y-116710500D01*
X148676895Y-116710500D01*
X148634438Y-116706319D01*
X148599523Y-116695727D01*
X148567335Y-116678522D01*
X148539127Y-116655373D01*
X148515978Y-116627165D01*
X148498773Y-116594977D01*
X148488181Y-116560062D01*
X148484000Y-116517605D01*
X148484000Y-115376395D01*
X148488181Y-115333938D01*
X148498773Y-115299023D01*
X148515978Y-115266835D01*
X148539127Y-115238627D01*
X148567335Y-115215478D01*
X148599523Y-115198273D01*
X148634438Y-115187681D01*
X148676895Y-115183500D01*
X151043105Y-115183500D01*
X151085562Y-115187681D01*
X151085562Y-115187681D01*
G37*
G36*
X156876000Y-115826500D02*
X155224000Y-115826500D01*
X155224000Y-115124500D01*
X156876000Y-115124500D01*
X156876000Y-115826500D01*
X156876000Y-115826500D01*
G37*
G36*
X162276000Y-115826500D02*
X160624000Y-115826500D01*
X160624000Y-115124500D01*
X162276000Y-115124500D01*
X162276000Y-115826500D01*
X162276000Y-115826500D01*
G37*
G36*
X195241677Y-114314465D02*
X195279364Y-114325898D01*
X195314103Y-114344466D01*
X195344548Y-114369452D01*
X195369534Y-114399897D01*
X195388102Y-114434636D01*
X195399535Y-114472323D01*
X195404000Y-114517661D01*
X195404000Y-115604339D01*
X195399535Y-115649677D01*
X195388102Y-115687364D01*
X195369534Y-115722103D01*
X195344548Y-115752548D01*
X195314103Y-115777534D01*
X195279364Y-115796102D01*
X195241677Y-115807535D01*
X195196339Y-115812000D01*
X194359661Y-115812000D01*
X194314323Y-115807535D01*
X194276636Y-115796102D01*
X194241897Y-115777534D01*
X194211452Y-115752548D01*
X194186466Y-115722103D01*
X194167898Y-115687364D01*
X194156465Y-115649677D01*
X194152000Y-115604339D01*
X194152000Y-114517661D01*
X194156465Y-114472323D01*
X194167898Y-114434636D01*
X194186466Y-114399897D01*
X194211452Y-114369452D01*
X194241897Y-114344466D01*
X194276636Y-114325898D01*
X194314323Y-114314465D01*
X194359661Y-114310000D01*
X195196339Y-114310000D01*
X195241677Y-114314465D01*
X195241677Y-114314465D01*
G37*
G36*
X193191677Y-114314465D02*
X193229364Y-114325898D01*
X193264103Y-114344466D01*
X193294548Y-114369452D01*
X193319534Y-114399897D01*
X193338102Y-114434636D01*
X193349535Y-114472323D01*
X193354000Y-114517661D01*
X193354000Y-115604339D01*
X193349535Y-115649677D01*
X193338102Y-115687364D01*
X193319534Y-115722103D01*
X193294548Y-115752548D01*
X193264103Y-115777534D01*
X193229364Y-115796102D01*
X193191677Y-115807535D01*
X193146339Y-115812000D01*
X192309661Y-115812000D01*
X192264323Y-115807535D01*
X192226636Y-115796102D01*
X192191897Y-115777534D01*
X192161452Y-115752548D01*
X192136466Y-115722103D01*
X192117898Y-115687364D01*
X192106465Y-115649677D01*
X192102000Y-115604339D01*
X192102000Y-114517661D01*
X192106465Y-114472323D01*
X192117898Y-114434636D01*
X192136466Y-114399897D01*
X192161452Y-114369452D01*
X192191897Y-114344466D01*
X192226636Y-114325898D01*
X192264323Y-114314465D01*
X192309661Y-114310000D01*
X193146339Y-114310000D01*
X193191677Y-114314465D01*
X193191677Y-114314465D01*
G37*
G36*
X129213677Y-114053465D02*
X129251364Y-114064898D01*
X129286103Y-114083466D01*
X129316548Y-114108452D01*
X129341534Y-114138897D01*
X129360102Y-114173636D01*
X129371535Y-114211323D01*
X129376000Y-114256661D01*
X129376000Y-115343339D01*
X129371535Y-115388677D01*
X129360102Y-115426364D01*
X129341534Y-115461103D01*
X129316548Y-115491548D01*
X129286103Y-115516534D01*
X129251364Y-115535102D01*
X129213677Y-115546535D01*
X129168339Y-115551000D01*
X128331661Y-115551000D01*
X128286323Y-115546535D01*
X128248636Y-115535102D01*
X128213897Y-115516534D01*
X128183452Y-115491548D01*
X128158466Y-115461103D01*
X128139898Y-115426364D01*
X128128465Y-115388677D01*
X128124000Y-115343339D01*
X128124000Y-114256661D01*
X128128465Y-114211323D01*
X128139898Y-114173636D01*
X128158466Y-114138897D01*
X128183452Y-114108452D01*
X128213897Y-114083466D01*
X128248636Y-114064898D01*
X128286323Y-114053465D01*
X128331661Y-114049000D01*
X129168339Y-114049000D01*
X129213677Y-114053465D01*
X129213677Y-114053465D01*
G37*
G36*
X131263677Y-114053465D02*
X131301364Y-114064898D01*
X131336103Y-114083466D01*
X131366548Y-114108452D01*
X131391534Y-114138897D01*
X131410102Y-114173636D01*
X131421535Y-114211323D01*
X131426000Y-114256661D01*
X131426000Y-115343339D01*
X131421535Y-115388677D01*
X131410102Y-115426364D01*
X131391534Y-115461103D01*
X131366548Y-115491548D01*
X131336103Y-115516534D01*
X131301364Y-115535102D01*
X131263677Y-115546535D01*
X131218339Y-115551000D01*
X130381661Y-115551000D01*
X130336323Y-115546535D01*
X130298636Y-115535102D01*
X130263897Y-115516534D01*
X130233452Y-115491548D01*
X130208466Y-115461103D01*
X130189898Y-115426364D01*
X130178465Y-115388677D01*
X130174000Y-115343339D01*
X130174000Y-114256661D01*
X130178465Y-114211323D01*
X130189898Y-114173636D01*
X130208466Y-114138897D01*
X130233452Y-114108452D01*
X130263897Y-114083466D01*
X130298636Y-114064898D01*
X130336323Y-114053465D01*
X130381661Y-114049000D01*
X131218339Y-114049000D01*
X131263677Y-114053465D01*
X131263677Y-114053465D01*
G37*
G36*
X88248442Y-113151518D02*
X88314627Y-113158037D01*
X88427853Y-113192384D01*
X88484467Y-113209557D01*
X88623087Y-113283652D01*
X88640991Y-113293222D01*
X88676729Y-113322552D01*
X88778186Y-113405814D01*
X88861448Y-113507271D01*
X88890778Y-113543009D01*
X88890779Y-113543011D01*
X88974443Y-113699533D01*
X88980872Y-113720727D01*
X89025963Y-113869373D01*
X89043359Y-114046000D01*
X89025963Y-114222627D01*
X88999459Y-114310000D01*
X88974443Y-114392467D01*
X88931758Y-114472323D01*
X88890778Y-114548991D01*
X88884615Y-114556500D01*
X88778186Y-114686186D01*
X88676729Y-114769448D01*
X88640991Y-114798778D01*
X88640989Y-114798779D01*
X88484467Y-114882443D01*
X88427853Y-114899616D01*
X88314627Y-114933963D01*
X88248442Y-114940482D01*
X88182260Y-114947000D01*
X88093740Y-114947000D01*
X88027558Y-114940482D01*
X87961373Y-114933963D01*
X87848147Y-114899616D01*
X87791533Y-114882443D01*
X87635011Y-114798779D01*
X87635009Y-114798778D01*
X87599271Y-114769448D01*
X87497814Y-114686186D01*
X87391385Y-114556500D01*
X87385222Y-114548991D01*
X87344242Y-114472323D01*
X87301557Y-114392467D01*
X87276541Y-114310000D01*
X87250037Y-114222627D01*
X87232641Y-114046000D01*
X87250037Y-113869373D01*
X87295128Y-113720727D01*
X87301557Y-113699533D01*
X87385221Y-113543011D01*
X87385222Y-113543009D01*
X87414552Y-113507271D01*
X87497814Y-113405814D01*
X87599271Y-113322552D01*
X87635009Y-113293222D01*
X87652913Y-113283652D01*
X87791533Y-113209557D01*
X87848147Y-113192384D01*
X87961373Y-113158037D01*
X88027558Y-113151518D01*
X88093740Y-113145000D01*
X88182260Y-113145000D01*
X88248442Y-113151518D01*
X88248442Y-113151518D01*
G37*
G36*
X85708442Y-113151518D02*
X85774627Y-113158037D01*
X85887853Y-113192384D01*
X85944467Y-113209557D01*
X86083087Y-113283652D01*
X86100991Y-113293222D01*
X86136729Y-113322552D01*
X86238186Y-113405814D01*
X86321448Y-113507271D01*
X86350778Y-113543009D01*
X86350779Y-113543011D01*
X86434443Y-113699533D01*
X86440872Y-113720727D01*
X86485963Y-113869373D01*
X86503359Y-114046000D01*
X86485963Y-114222627D01*
X86459459Y-114310000D01*
X86434443Y-114392467D01*
X86391758Y-114472323D01*
X86350778Y-114548991D01*
X86344615Y-114556500D01*
X86238186Y-114686186D01*
X86136729Y-114769448D01*
X86100991Y-114798778D01*
X86100989Y-114798779D01*
X85944467Y-114882443D01*
X85887853Y-114899616D01*
X85774627Y-114933963D01*
X85708442Y-114940482D01*
X85642260Y-114947000D01*
X85553740Y-114947000D01*
X85487558Y-114940482D01*
X85421373Y-114933963D01*
X85308147Y-114899616D01*
X85251533Y-114882443D01*
X85095011Y-114798779D01*
X85095009Y-114798778D01*
X85059271Y-114769448D01*
X84957814Y-114686186D01*
X84851385Y-114556500D01*
X84845222Y-114548991D01*
X84804242Y-114472323D01*
X84761557Y-114392467D01*
X84736541Y-114310000D01*
X84710037Y-114222627D01*
X84692641Y-114046000D01*
X84710037Y-113869373D01*
X84755128Y-113720727D01*
X84761557Y-113699533D01*
X84845221Y-113543011D01*
X84845222Y-113543009D01*
X84874552Y-113507271D01*
X84957814Y-113405814D01*
X85059271Y-113322552D01*
X85095009Y-113293222D01*
X85112913Y-113283652D01*
X85251533Y-113209557D01*
X85308147Y-113192384D01*
X85421373Y-113158037D01*
X85487558Y-113151518D01*
X85553740Y-113145000D01*
X85642260Y-113145000D01*
X85708442Y-113151518D01*
X85708442Y-113151518D01*
G37*
G36*
X162276000Y-114556500D02*
X160624000Y-114556500D01*
X160624000Y-113854500D01*
X162276000Y-113854500D01*
X162276000Y-114556500D01*
X162276000Y-114556500D01*
G37*
G36*
X156876000Y-114556500D02*
X155224000Y-114556500D01*
X155224000Y-113854500D01*
X156876000Y-113854500D01*
X156876000Y-114556500D01*
X156876000Y-114556500D01*
G37*
G36*
X151085562Y-112212681D02*
X151120477Y-112223273D01*
X151152665Y-112240478D01*
X151180873Y-112263627D01*
X151204022Y-112291835D01*
X151221227Y-112324023D01*
X151231819Y-112358938D01*
X151236000Y-112401395D01*
X151236000Y-113542605D01*
X151231819Y-113585062D01*
X151221227Y-113619977D01*
X151204022Y-113652165D01*
X151180873Y-113680373D01*
X151152665Y-113703522D01*
X151120477Y-113720727D01*
X151085562Y-113731319D01*
X151043105Y-113735500D01*
X148676895Y-113735500D01*
X148634438Y-113731319D01*
X148599523Y-113720727D01*
X148567335Y-113703522D01*
X148539127Y-113680373D01*
X148515978Y-113652165D01*
X148498773Y-113619977D01*
X148488181Y-113585062D01*
X148484000Y-113542605D01*
X148484000Y-112401395D01*
X148488181Y-112358938D01*
X148498773Y-112324023D01*
X148515978Y-112291835D01*
X148539127Y-112263627D01*
X148567335Y-112240478D01*
X148599523Y-112223273D01*
X148634438Y-112212681D01*
X148676895Y-112208500D01*
X151043105Y-112208500D01*
X151085562Y-112212681D01*
X151085562Y-112212681D01*
G37*
G36*
X156876000Y-113286500D02*
X155224000Y-113286500D01*
X155224000Y-112584500D01*
X156876000Y-112584500D01*
X156876000Y-113286500D01*
X156876000Y-113286500D01*
G37*
G36*
X162276000Y-113286500D02*
X160624000Y-113286500D01*
X160624000Y-112584500D01*
X162276000Y-112584500D01*
X162276000Y-113286500D01*
X162276000Y-113286500D01*
G37*
G36*
X88248443Y-110611519D02*
X88314627Y-110618037D01*
X88427853Y-110652384D01*
X88484467Y-110669557D01*
X88594624Y-110728438D01*
X88640991Y-110753222D01*
X88662525Y-110770895D01*
X88778186Y-110865814D01*
X88861448Y-110967271D01*
X88890778Y-111003009D01*
X88890779Y-111003011D01*
X88974443Y-111159533D01*
X88974443Y-111159534D01*
X89025963Y-111329373D01*
X89043359Y-111506000D01*
X89025963Y-111682627D01*
X89012542Y-111726869D01*
X88974443Y-111852467D01*
X88919871Y-111954562D01*
X88890778Y-112008991D01*
X88876380Y-112026535D01*
X88778186Y-112146186D01*
X88697160Y-112212681D01*
X88640991Y-112258778D01*
X88640989Y-112258779D01*
X88484467Y-112342443D01*
X88430089Y-112358938D01*
X88314627Y-112393963D01*
X88248443Y-112400481D01*
X88182260Y-112407000D01*
X88093740Y-112407000D01*
X88027557Y-112400481D01*
X87961373Y-112393963D01*
X87845911Y-112358938D01*
X87791533Y-112342443D01*
X87635011Y-112258779D01*
X87635009Y-112258778D01*
X87578840Y-112212681D01*
X87497814Y-112146186D01*
X87399620Y-112026535D01*
X87385222Y-112008991D01*
X87356129Y-111954562D01*
X87301557Y-111852467D01*
X87263458Y-111726869D01*
X87250037Y-111682627D01*
X87232641Y-111506000D01*
X87250037Y-111329373D01*
X87301557Y-111159534D01*
X87301557Y-111159533D01*
X87385221Y-111003011D01*
X87385222Y-111003009D01*
X87414552Y-110967271D01*
X87497814Y-110865814D01*
X87613475Y-110770895D01*
X87635009Y-110753222D01*
X87681376Y-110728438D01*
X87791533Y-110669557D01*
X87848147Y-110652384D01*
X87961373Y-110618037D01*
X88027557Y-110611519D01*
X88093740Y-110605000D01*
X88182260Y-110605000D01*
X88248443Y-110611519D01*
X88248443Y-110611519D01*
G37*
G36*
X85708443Y-110611519D02*
X85774627Y-110618037D01*
X85887853Y-110652384D01*
X85944467Y-110669557D01*
X86054624Y-110728438D01*
X86100991Y-110753222D01*
X86122525Y-110770895D01*
X86238186Y-110865814D01*
X86321448Y-110967271D01*
X86350778Y-111003009D01*
X86350779Y-111003011D01*
X86434443Y-111159533D01*
X86434443Y-111159534D01*
X86485963Y-111329373D01*
X86503359Y-111506000D01*
X86485963Y-111682627D01*
X86472542Y-111726869D01*
X86434443Y-111852467D01*
X86379871Y-111954562D01*
X86350778Y-112008991D01*
X86336380Y-112026535D01*
X86238186Y-112146186D01*
X86157160Y-112212681D01*
X86100991Y-112258778D01*
X86100989Y-112258779D01*
X85944467Y-112342443D01*
X85890089Y-112358938D01*
X85774627Y-112393963D01*
X85708443Y-112400481D01*
X85642260Y-112407000D01*
X85553740Y-112407000D01*
X85487557Y-112400481D01*
X85421373Y-112393963D01*
X85305911Y-112358938D01*
X85251533Y-112342443D01*
X85095011Y-112258779D01*
X85095009Y-112258778D01*
X85038840Y-112212681D01*
X84957814Y-112146186D01*
X84859620Y-112026535D01*
X84845222Y-112008991D01*
X84816129Y-111954562D01*
X84761557Y-111852467D01*
X84723458Y-111726869D01*
X84710037Y-111682627D01*
X84692641Y-111506000D01*
X84710037Y-111329373D01*
X84761557Y-111159534D01*
X84761557Y-111159533D01*
X84845221Y-111003011D01*
X84845222Y-111003009D01*
X84874552Y-110967271D01*
X84957814Y-110865814D01*
X85073475Y-110770895D01*
X85095009Y-110753222D01*
X85141376Y-110728438D01*
X85251533Y-110669557D01*
X85308147Y-110652384D01*
X85421373Y-110618037D01*
X85487557Y-110611519D01*
X85553740Y-110605000D01*
X85642260Y-110605000D01*
X85708443Y-110611519D01*
X85708443Y-110611519D01*
G37*
G36*
X186723562Y-110582181D02*
X186758477Y-110592773D01*
X186790665Y-110609978D01*
X186818873Y-110633127D01*
X186842022Y-110661335D01*
X186859227Y-110693523D01*
X186869819Y-110728438D01*
X186874000Y-110770895D01*
X186874000Y-111912105D01*
X186869819Y-111954562D01*
X186859227Y-111989477D01*
X186842022Y-112021665D01*
X186818873Y-112049873D01*
X186790665Y-112073022D01*
X186758477Y-112090227D01*
X186723562Y-112100819D01*
X186681105Y-112105000D01*
X184314895Y-112105000D01*
X184272438Y-112100819D01*
X184237523Y-112090227D01*
X184205335Y-112073022D01*
X184177127Y-112049873D01*
X184153978Y-112021665D01*
X184136773Y-111989477D01*
X184126181Y-111954562D01*
X184122000Y-111912105D01*
X184122000Y-110770895D01*
X184126181Y-110728438D01*
X184136773Y-110693523D01*
X184153978Y-110661335D01*
X184177127Y-110633127D01*
X184205335Y-110609978D01*
X184237523Y-110592773D01*
X184272438Y-110582181D01*
X184314895Y-110578000D01*
X186681105Y-110578000D01*
X186723562Y-110582181D01*
X186723562Y-110582181D01*
G37*
G36*
X162276000Y-112016500D02*
X160624000Y-112016500D01*
X160624000Y-111314500D01*
X162276000Y-111314500D01*
X162276000Y-112016500D01*
X162276000Y-112016500D01*
G37*
G36*
X156876000Y-112016500D02*
X155224000Y-112016500D01*
X155224000Y-111314500D01*
X156876000Y-111314500D01*
X156876000Y-112016500D01*
X156876000Y-112016500D01*
G37*
G36*
X122129562Y-110419681D02*
X122164477Y-110430273D01*
X122196665Y-110447478D01*
X122224873Y-110470627D01*
X122248022Y-110498835D01*
X122265227Y-110531023D01*
X122275819Y-110565938D01*
X122280000Y-110608395D01*
X122280000Y-111749605D01*
X122275819Y-111792062D01*
X122265227Y-111826977D01*
X122248022Y-111859165D01*
X122224873Y-111887373D01*
X122196665Y-111910522D01*
X122164477Y-111927727D01*
X122129562Y-111938319D01*
X122087105Y-111942500D01*
X119720895Y-111942500D01*
X119678438Y-111938319D01*
X119643523Y-111927727D01*
X119611335Y-111910522D01*
X119583127Y-111887373D01*
X119559978Y-111859165D01*
X119542773Y-111826977D01*
X119532181Y-111792062D01*
X119528000Y-111749605D01*
X119528000Y-110608395D01*
X119532181Y-110565938D01*
X119542773Y-110531023D01*
X119559978Y-110498835D01*
X119583127Y-110470627D01*
X119611335Y-110447478D01*
X119643523Y-110430273D01*
X119678438Y-110419681D01*
X119720895Y-110415500D01*
X122087105Y-110415500D01*
X122129562Y-110419681D01*
X122129562Y-110419681D01*
G37*
G36*
X127843800Y-111292600D02*
X126191800Y-111292600D01*
X126191800Y-110590600D01*
X127843800Y-110590600D01*
X127843800Y-111292600D01*
X127843800Y-111292600D01*
G37*
G36*
X133243800Y-111292600D02*
X131591800Y-111292600D01*
X131591800Y-110590600D01*
X133243800Y-110590600D01*
X133243800Y-111292600D01*
X133243800Y-111292600D01*
G37*
G36*
X191879000Y-111221000D02*
X190227000Y-111221000D01*
X190227000Y-110519000D01*
X191879000Y-110519000D01*
X191879000Y-111221000D01*
X191879000Y-111221000D01*
G37*
G36*
X197279000Y-111221000D02*
X195627000Y-111221000D01*
X195627000Y-110519000D01*
X197279000Y-110519000D01*
X197279000Y-111221000D01*
X197279000Y-111221000D01*
G37*
G36*
X133243800Y-110022600D02*
X131591800Y-110022600D01*
X131591800Y-109320600D01*
X133243800Y-109320600D01*
X133243800Y-110022600D01*
X133243800Y-110022600D01*
G37*
G36*
X127843800Y-110022600D02*
X126191800Y-110022600D01*
X126191800Y-109320600D01*
X127843800Y-109320600D01*
X127843800Y-110022600D01*
X127843800Y-110022600D01*
G37*
G36*
X197279000Y-109951000D02*
X195627000Y-109951000D01*
X195627000Y-109249000D01*
X197279000Y-109249000D01*
X197279000Y-109951000D01*
X197279000Y-109951000D01*
G37*
G36*
X191879000Y-109951000D02*
X190227000Y-109951000D01*
X190227000Y-109249000D01*
X191879000Y-109249000D01*
X191879000Y-109951000D01*
X191879000Y-109951000D01*
G37*
G36*
X85708443Y-108071519D02*
X85774627Y-108078037D01*
X85887853Y-108112384D01*
X85944467Y-108129557D01*
X86074384Y-108199000D01*
X86100991Y-108213222D01*
X86121792Y-108230293D01*
X86238186Y-108325814D01*
X86321448Y-108427271D01*
X86350778Y-108463009D01*
X86350779Y-108463011D01*
X86434443Y-108619533D01*
X86434443Y-108619534D01*
X86485963Y-108789373D01*
X86503359Y-108966000D01*
X86485963Y-109142627D01*
X86453695Y-109249000D01*
X86434443Y-109312467D01*
X86360348Y-109451087D01*
X86350778Y-109468991D01*
X86321448Y-109504729D01*
X86238186Y-109606186D01*
X86136729Y-109689448D01*
X86100991Y-109718778D01*
X86100989Y-109718779D01*
X85944467Y-109802443D01*
X85914497Y-109811534D01*
X85774627Y-109853963D01*
X85708443Y-109860481D01*
X85642260Y-109867000D01*
X85553740Y-109867000D01*
X85487557Y-109860481D01*
X85421373Y-109853963D01*
X85281503Y-109811534D01*
X85251533Y-109802443D01*
X85095011Y-109718779D01*
X85095009Y-109718778D01*
X85059271Y-109689448D01*
X84957814Y-109606186D01*
X84874552Y-109504729D01*
X84845222Y-109468991D01*
X84835652Y-109451087D01*
X84761557Y-109312467D01*
X84742305Y-109249000D01*
X84710037Y-109142627D01*
X84692641Y-108966000D01*
X84710037Y-108789373D01*
X84761557Y-108619534D01*
X84761557Y-108619533D01*
X84845221Y-108463011D01*
X84845222Y-108463009D01*
X84874552Y-108427271D01*
X84957814Y-108325814D01*
X85074208Y-108230293D01*
X85095009Y-108213222D01*
X85121616Y-108199000D01*
X85251533Y-108129557D01*
X85308147Y-108112384D01*
X85421373Y-108078037D01*
X85487557Y-108071519D01*
X85553740Y-108065000D01*
X85642260Y-108065000D01*
X85708443Y-108071519D01*
X85708443Y-108071519D01*
G37*
G36*
X89039000Y-109867000D02*
X87237000Y-109867000D01*
X87237000Y-108065000D01*
X89039000Y-108065000D01*
X89039000Y-109867000D01*
X89039000Y-109867000D01*
G37*
G36*
X116253821Y-108203103D02*
X116287982Y-108213466D01*
X116319464Y-108230293D01*
X116347060Y-108252940D01*
X116369707Y-108280536D01*
X116386534Y-108312018D01*
X116396897Y-108346179D01*
X116401000Y-108387842D01*
X116401000Y-109637158D01*
X116396897Y-109678821D01*
X116386534Y-109712982D01*
X116369707Y-109744464D01*
X116347060Y-109772060D01*
X116319464Y-109794707D01*
X116287982Y-109811534D01*
X116253821Y-109821897D01*
X116212158Y-109826000D01*
X113137842Y-109826000D01*
X113096179Y-109821897D01*
X113062018Y-109811534D01*
X113030536Y-109794707D01*
X113002940Y-109772060D01*
X112980293Y-109744464D01*
X112963466Y-109712982D01*
X112953103Y-109678821D01*
X112949000Y-109637158D01*
X112949000Y-108387842D01*
X112953103Y-108346179D01*
X112963466Y-108312018D01*
X112980293Y-108280536D01*
X113002940Y-108252940D01*
X113030536Y-108230293D01*
X113062018Y-108213466D01*
X113096179Y-108203103D01*
X113137842Y-108199000D01*
X116212158Y-108199000D01*
X116253821Y-108203103D01*
X116253821Y-108203103D01*
G37*
G36*
X186723562Y-107607181D02*
X186758477Y-107617773D01*
X186790665Y-107634978D01*
X186818873Y-107658127D01*
X186842022Y-107686335D01*
X186859227Y-107718523D01*
X186869819Y-107753438D01*
X186874000Y-107795895D01*
X186874000Y-108937105D01*
X186869819Y-108979562D01*
X186859227Y-109014477D01*
X186842022Y-109046665D01*
X186818873Y-109074873D01*
X186790665Y-109098022D01*
X186758477Y-109115227D01*
X186723562Y-109125819D01*
X186681105Y-109130000D01*
X184314895Y-109130000D01*
X184272438Y-109125819D01*
X184237523Y-109115227D01*
X184205335Y-109098022D01*
X184177127Y-109074873D01*
X184153978Y-109046665D01*
X184136773Y-109014477D01*
X184126181Y-108979562D01*
X184122000Y-108937105D01*
X184122000Y-107795895D01*
X184126181Y-107753438D01*
X184136773Y-107718523D01*
X184153978Y-107686335D01*
X184177127Y-107658127D01*
X184205335Y-107634978D01*
X184237523Y-107617773D01*
X184272438Y-107607181D01*
X184314895Y-107603000D01*
X186681105Y-107603000D01*
X186723562Y-107607181D01*
X186723562Y-107607181D01*
G37*
G36*
X122129562Y-107444681D02*
X122164477Y-107455273D01*
X122196665Y-107472478D01*
X122224873Y-107495627D01*
X122248022Y-107523835D01*
X122265227Y-107556023D01*
X122275819Y-107590938D01*
X122280000Y-107633395D01*
X122280000Y-108774605D01*
X122275819Y-108817062D01*
X122265227Y-108851977D01*
X122248022Y-108884165D01*
X122224873Y-108912373D01*
X122196665Y-108935522D01*
X122164477Y-108952727D01*
X122129562Y-108963319D01*
X122087105Y-108967500D01*
X119720895Y-108967500D01*
X119678438Y-108963319D01*
X119643523Y-108952727D01*
X119611335Y-108935522D01*
X119583127Y-108912373D01*
X119559978Y-108884165D01*
X119542773Y-108851977D01*
X119532181Y-108817062D01*
X119528000Y-108774605D01*
X119528000Y-107633395D01*
X119532181Y-107590938D01*
X119542773Y-107556023D01*
X119559978Y-107523835D01*
X119583127Y-107495627D01*
X119611335Y-107472478D01*
X119643523Y-107455273D01*
X119678438Y-107444681D01*
X119720895Y-107440500D01*
X122087105Y-107440500D01*
X122129562Y-107444681D01*
X122129562Y-107444681D01*
G37*
G36*
X127843800Y-108752600D02*
X126191800Y-108752600D01*
X126191800Y-108050600D01*
X127843800Y-108050600D01*
X127843800Y-108752600D01*
X127843800Y-108752600D01*
G37*
G36*
X133243800Y-108752600D02*
X131591800Y-108752600D01*
X131591800Y-108050600D01*
X133243800Y-108050600D01*
X133243800Y-108752600D01*
X133243800Y-108752600D01*
G37*
G36*
X191879000Y-108681000D02*
X190227000Y-108681000D01*
X190227000Y-107979000D01*
X191879000Y-107979000D01*
X191879000Y-108681000D01*
X191879000Y-108681000D01*
G37*
G36*
X197279000Y-108681000D02*
X195627000Y-108681000D01*
X195627000Y-107979000D01*
X197279000Y-107979000D01*
X197279000Y-108681000D01*
X197279000Y-108681000D01*
G37*
G36*
X154740821Y-106033103D02*
X154774982Y-106043466D01*
X154806464Y-106060293D01*
X154834060Y-106082940D01*
X154856707Y-106110536D01*
X154873534Y-106142018D01*
X154883897Y-106176179D01*
X154888000Y-106217842D01*
X154888000Y-107467158D01*
X154883897Y-107508821D01*
X154873534Y-107542982D01*
X154856707Y-107574464D01*
X154834060Y-107602060D01*
X154806464Y-107624707D01*
X154774982Y-107641534D01*
X154740821Y-107651897D01*
X154699158Y-107656000D01*
X151624842Y-107656000D01*
X151583179Y-107651897D01*
X151549018Y-107641534D01*
X151517536Y-107624707D01*
X151489940Y-107602060D01*
X151467293Y-107574464D01*
X151450466Y-107542982D01*
X151440103Y-107508821D01*
X151436000Y-107467158D01*
X151436000Y-106217842D01*
X151440103Y-106176179D01*
X151450466Y-106142018D01*
X151467293Y-106110536D01*
X151489940Y-106082940D01*
X151517536Y-106060293D01*
X151549018Y-106043466D01*
X151583179Y-106033103D01*
X151624842Y-106029000D01*
X154699158Y-106029000D01*
X154740821Y-106033103D01*
X154740821Y-106033103D01*
G37*
G36*
X127843800Y-107482600D02*
X126191800Y-107482600D01*
X126191800Y-106780600D01*
X127843800Y-106780600D01*
X127843800Y-107482600D01*
X127843800Y-107482600D01*
G37*
G36*
X133243800Y-107482600D02*
X131591800Y-107482600D01*
X131591800Y-106780600D01*
X133243800Y-106780600D01*
X133243800Y-107482600D01*
X133243800Y-107482600D01*
G37*
G36*
X191879000Y-107411000D02*
X190227000Y-107411000D01*
X190227000Y-106709000D01*
X191879000Y-106709000D01*
X191879000Y-107411000D01*
X191879000Y-107411000D01*
G37*
G36*
X197279000Y-107411000D02*
X195627000Y-107411000D01*
X195627000Y-106709000D01*
X197279000Y-106709000D01*
X197279000Y-107411000D01*
X197279000Y-107411000D01*
G37*
G36*
X108476000Y-106651000D02*
X106874000Y-106651000D01*
X106874000Y-104149000D01*
X108476000Y-104149000D01*
X108476000Y-106651000D01*
X108476000Y-106651000D01*
G37*
G36*
X147613000Y-106210000D02*
X146011000Y-106210000D01*
X146011000Y-103708000D01*
X147613000Y-103708000D01*
X147613000Y-106210000D01*
X147613000Y-106210000D01*
G37*
G36*
X215131565Y-103889389D02*
X215322834Y-103968615D01*
X215494976Y-104083637D01*
X215641363Y-104230024D01*
X215756385Y-104402166D01*
X215835611Y-104593435D01*
X215876000Y-104796484D01*
X215876000Y-105003516D01*
X215835611Y-105206565D01*
X215756385Y-105397834D01*
X215641363Y-105569976D01*
X215494976Y-105716363D01*
X215322834Y-105831385D01*
X215131565Y-105910611D01*
X214928516Y-105951000D01*
X214721484Y-105951000D01*
X214518435Y-105910611D01*
X214327166Y-105831385D01*
X214155024Y-105716363D01*
X214008637Y-105569976D01*
X213893615Y-105397834D01*
X213814389Y-105206565D01*
X213774000Y-105003516D01*
X213774000Y-104796484D01*
X213814389Y-104593435D01*
X213893615Y-104402166D01*
X214008637Y-104230024D01*
X214155024Y-104083637D01*
X214327166Y-103968615D01*
X214518435Y-103889389D01*
X214721484Y-103849000D01*
X214928516Y-103849000D01*
X215131565Y-103889389D01*
X215131565Y-103889389D01*
G37*
G36*
X207631565Y-103889389D02*
X207822834Y-103968615D01*
X207994976Y-104083637D01*
X208141363Y-104230024D01*
X208256385Y-104402166D01*
X208335611Y-104593435D01*
X208376000Y-104796484D01*
X208376000Y-105003516D01*
X208335611Y-105206565D01*
X208256385Y-105397834D01*
X208141363Y-105569976D01*
X207994976Y-105716363D01*
X207822834Y-105831385D01*
X207631565Y-105910611D01*
X207428516Y-105951000D01*
X207221484Y-105951000D01*
X207018435Y-105910611D01*
X206827166Y-105831385D01*
X206655024Y-105716363D01*
X206508637Y-105569976D01*
X206393615Y-105397834D01*
X206314389Y-105206565D01*
X206274000Y-105003516D01*
X206274000Y-104796484D01*
X206314389Y-104593435D01*
X206393615Y-104402166D01*
X206508637Y-104230024D01*
X206655024Y-104083637D01*
X206827166Y-103968615D01*
X207018435Y-103889389D01*
X207221484Y-103849000D01*
X207428516Y-103849000D01*
X207631565Y-103889389D01*
X207631565Y-103889389D01*
G37*
G36*
X165281821Y-103747103D02*
X165315982Y-103757466D01*
X165347464Y-103774293D01*
X165375060Y-103796940D01*
X165397707Y-103824536D01*
X165414534Y-103856018D01*
X165424897Y-103890179D01*
X165429000Y-103931842D01*
X165429000Y-105181158D01*
X165424897Y-105222821D01*
X165414534Y-105256982D01*
X165397707Y-105288464D01*
X165375060Y-105316060D01*
X165347464Y-105338707D01*
X165315982Y-105355534D01*
X165281821Y-105365897D01*
X165240158Y-105370000D01*
X162165842Y-105370000D01*
X162124179Y-105365897D01*
X162090018Y-105355534D01*
X162058536Y-105338707D01*
X162030940Y-105316060D01*
X162008293Y-105288464D01*
X161991466Y-105256982D01*
X161981103Y-105222821D01*
X161977000Y-105181158D01*
X161977000Y-103931842D01*
X161981103Y-103890179D01*
X161991466Y-103856018D01*
X162008293Y-103824536D01*
X162030940Y-103796940D01*
X162058536Y-103774293D01*
X162090018Y-103757466D01*
X162124179Y-103747103D01*
X162165842Y-103743000D01*
X165240158Y-103743000D01*
X165281821Y-103747103D01*
X165281821Y-103747103D01*
G37*
G36*
X159424000Y-104940000D02*
X157822000Y-104940000D01*
X157822000Y-102438000D01*
X159424000Y-102438000D01*
X159424000Y-104940000D01*
X159424000Y-104940000D01*
G37*
G36*
X183794562Y-103173181D02*
X183829477Y-103183773D01*
X183861665Y-103200978D01*
X183889873Y-103224127D01*
X183913022Y-103252335D01*
X183930227Y-103284523D01*
X183940819Y-103319438D01*
X183945000Y-103361895D01*
X183945000Y-104503105D01*
X183940819Y-104545562D01*
X183930227Y-104580477D01*
X183913022Y-104612665D01*
X183889873Y-104640873D01*
X183861665Y-104664022D01*
X183829477Y-104681227D01*
X183794562Y-104691819D01*
X183752105Y-104696000D01*
X181385895Y-104696000D01*
X181343438Y-104691819D01*
X181308523Y-104681227D01*
X181276335Y-104664022D01*
X181248127Y-104640873D01*
X181224978Y-104612665D01*
X181207773Y-104580477D01*
X181197181Y-104545562D01*
X181193000Y-104503105D01*
X181193000Y-103361895D01*
X181197181Y-103319438D01*
X181207773Y-103284523D01*
X181224978Y-103252335D01*
X181248127Y-103224127D01*
X181276335Y-103200978D01*
X181308523Y-103183773D01*
X181343438Y-103173181D01*
X181385895Y-103169000D01*
X183752105Y-103169000D01*
X183794562Y-103173181D01*
X183794562Y-103173181D01*
G37*
G36*
X170840562Y-103134181D02*
X170875477Y-103144773D01*
X170907665Y-103161978D01*
X170935873Y-103185127D01*
X170959022Y-103213335D01*
X170976227Y-103245523D01*
X170986819Y-103280438D01*
X170991000Y-103322895D01*
X170991000Y-104464105D01*
X170986819Y-104506562D01*
X170976227Y-104541477D01*
X170959022Y-104573665D01*
X170935873Y-104601873D01*
X170907665Y-104625022D01*
X170875477Y-104642227D01*
X170840562Y-104652819D01*
X170798105Y-104657000D01*
X169331895Y-104657000D01*
X169289438Y-104652819D01*
X169254523Y-104642227D01*
X169222335Y-104625022D01*
X169194127Y-104601873D01*
X169170978Y-104573665D01*
X169153773Y-104541477D01*
X169143181Y-104506562D01*
X169139000Y-104464105D01*
X169139000Y-103322895D01*
X169143181Y-103280438D01*
X169153773Y-103245523D01*
X169170978Y-103213335D01*
X169194127Y-103185127D01*
X169222335Y-103161978D01*
X169254523Y-103144773D01*
X169289438Y-103134181D01*
X169331895Y-103130000D01*
X170798105Y-103130000D01*
X170840562Y-103134181D01*
X170840562Y-103134181D01*
G37*
G36*
X177240562Y-103134181D02*
X177275477Y-103144773D01*
X177307665Y-103161978D01*
X177335873Y-103185127D01*
X177359022Y-103213335D01*
X177376227Y-103245523D01*
X177386819Y-103280438D01*
X177391000Y-103322895D01*
X177391000Y-104464105D01*
X177386819Y-104506562D01*
X177376227Y-104541477D01*
X177359022Y-104573665D01*
X177335873Y-104601873D01*
X177307665Y-104625022D01*
X177275477Y-104642227D01*
X177240562Y-104652819D01*
X177198105Y-104657000D01*
X174831895Y-104657000D01*
X174789438Y-104652819D01*
X174754523Y-104642227D01*
X174722335Y-104625022D01*
X174694127Y-104601873D01*
X174670978Y-104573665D01*
X174653773Y-104541477D01*
X174643181Y-104506562D01*
X174639000Y-104464105D01*
X174639000Y-103322895D01*
X174643181Y-103280438D01*
X174653773Y-103245523D01*
X174670978Y-103213335D01*
X174694127Y-103185127D01*
X174722335Y-103161978D01*
X174754523Y-103144773D01*
X174789438Y-103134181D01*
X174831895Y-103130000D01*
X177198105Y-103130000D01*
X177240562Y-103134181D01*
X177240562Y-103134181D01*
G37*
G36*
X116253821Y-102228103D02*
X116287982Y-102238466D01*
X116319464Y-102255293D01*
X116347060Y-102277940D01*
X116369707Y-102305536D01*
X116386534Y-102337018D01*
X116396897Y-102371179D01*
X116401000Y-102412842D01*
X116401000Y-103662158D01*
X116396897Y-103703821D01*
X116386534Y-103737982D01*
X116369707Y-103769464D01*
X116347060Y-103797060D01*
X116319464Y-103819707D01*
X116287982Y-103836534D01*
X116253821Y-103846897D01*
X116212158Y-103851000D01*
X113137842Y-103851000D01*
X113096179Y-103846897D01*
X113062018Y-103836534D01*
X113030536Y-103819707D01*
X113002940Y-103797060D01*
X112980293Y-103769464D01*
X112963466Y-103737982D01*
X112953103Y-103703821D01*
X112949000Y-103662158D01*
X112949000Y-102412842D01*
X112953103Y-102371179D01*
X112963466Y-102337018D01*
X112980293Y-102305536D01*
X113002940Y-102277940D01*
X113030536Y-102255293D01*
X113062018Y-102238466D01*
X113096179Y-102228103D01*
X113137842Y-102224000D01*
X116212158Y-102224000D01*
X116253821Y-102228103D01*
X116253821Y-102228103D01*
G37*
G36*
X108476000Y-103601000D02*
X106874000Y-103601000D01*
X106874000Y-102449000D01*
X108476000Y-102449000D01*
X108476000Y-103601000D01*
X108476000Y-103601000D01*
G37*
G36*
X147613000Y-103160000D02*
X146011000Y-103160000D01*
X146011000Y-102008000D01*
X147613000Y-102008000D01*
X147613000Y-103160000D01*
X147613000Y-103160000D01*
G37*
G36*
X123750562Y-100853181D02*
X123785477Y-100863773D01*
X123817665Y-100880978D01*
X123845873Y-100904127D01*
X123869022Y-100932335D01*
X123886227Y-100964523D01*
X123896819Y-100999438D01*
X123901000Y-101041895D01*
X123901000Y-102508105D01*
X123896819Y-102550562D01*
X123886227Y-102585477D01*
X123869022Y-102617665D01*
X123845873Y-102645873D01*
X123817665Y-102669022D01*
X123785477Y-102686227D01*
X123750562Y-102696819D01*
X123708105Y-102701000D01*
X122566895Y-102701000D01*
X122524438Y-102696819D01*
X122489523Y-102686227D01*
X122457335Y-102669022D01*
X122429127Y-102645873D01*
X122405978Y-102617665D01*
X122388773Y-102585477D01*
X122378181Y-102550562D01*
X122374000Y-102508105D01*
X122374000Y-101041895D01*
X122378181Y-100999438D01*
X122388773Y-100964523D01*
X122405978Y-100932335D01*
X122429127Y-100904127D01*
X122457335Y-100880978D01*
X122489523Y-100863773D01*
X122524438Y-100853181D01*
X122566895Y-100849000D01*
X123708105Y-100849000D01*
X123750562Y-100853181D01*
X123750562Y-100853181D01*
G37*
G36*
X120775562Y-100853181D02*
X120810477Y-100863773D01*
X120842665Y-100880978D01*
X120870873Y-100904127D01*
X120894022Y-100932335D01*
X120911227Y-100964523D01*
X120921819Y-100999438D01*
X120926000Y-101041895D01*
X120926000Y-102508105D01*
X120921819Y-102550562D01*
X120911227Y-102585477D01*
X120894022Y-102617665D01*
X120870873Y-102645873D01*
X120842665Y-102669022D01*
X120810477Y-102686227D01*
X120775562Y-102696819D01*
X120733105Y-102701000D01*
X119591895Y-102701000D01*
X119549438Y-102696819D01*
X119514523Y-102686227D01*
X119482335Y-102669022D01*
X119454127Y-102645873D01*
X119430978Y-102617665D01*
X119413773Y-102585477D01*
X119403181Y-102550562D01*
X119399000Y-102508105D01*
X119399000Y-101041895D01*
X119403181Y-100999438D01*
X119413773Y-100964523D01*
X119430978Y-100932335D01*
X119454127Y-100904127D01*
X119482335Y-100880978D01*
X119514523Y-100863773D01*
X119549438Y-100853181D01*
X119591895Y-100849000D01*
X120733105Y-100849000D01*
X120775562Y-100853181D01*
X120775562Y-100853181D01*
G37*
G36*
X189919821Y-100953103D02*
X189953982Y-100963466D01*
X189985464Y-100980293D01*
X190013060Y-101002940D01*
X190035707Y-101030536D01*
X190052534Y-101062018D01*
X190062897Y-101096179D01*
X190067000Y-101137842D01*
X190067000Y-102387158D01*
X190062897Y-102428821D01*
X190052534Y-102462982D01*
X190035707Y-102494464D01*
X190013060Y-102522060D01*
X189985464Y-102544707D01*
X189953982Y-102561534D01*
X189919821Y-102571897D01*
X189878158Y-102576000D01*
X186803842Y-102576000D01*
X186762179Y-102571897D01*
X186728018Y-102561534D01*
X186696536Y-102544707D01*
X186668940Y-102522060D01*
X186646293Y-102494464D01*
X186629466Y-102462982D01*
X186619103Y-102428821D01*
X186615000Y-102387158D01*
X186615000Y-101137842D01*
X186619103Y-101096179D01*
X186629466Y-101062018D01*
X186646293Y-101030536D01*
X186668940Y-101002940D01*
X186696536Y-100980293D01*
X186728018Y-100963466D01*
X186762179Y-100953103D01*
X186803842Y-100949000D01*
X189878158Y-100949000D01*
X189919821Y-100953103D01*
X189919821Y-100953103D01*
G37*
G36*
X159424000Y-101890000D02*
X157822000Y-101890000D01*
X157822000Y-100738000D01*
X159424000Y-100738000D01*
X159424000Y-101890000D01*
X159424000Y-101890000D01*
G37*
G36*
X183794562Y-100198181D02*
X183829477Y-100208773D01*
X183861665Y-100225978D01*
X183889873Y-100249127D01*
X183913022Y-100277335D01*
X183930227Y-100309523D01*
X183940819Y-100344438D01*
X183945000Y-100386895D01*
X183945000Y-101528105D01*
X183940819Y-101570562D01*
X183930227Y-101605477D01*
X183913022Y-101637665D01*
X183889873Y-101665873D01*
X183861665Y-101689022D01*
X183829477Y-101706227D01*
X183794562Y-101716819D01*
X183752105Y-101721000D01*
X181385895Y-101721000D01*
X181343438Y-101716819D01*
X181308523Y-101706227D01*
X181276335Y-101689022D01*
X181248127Y-101665873D01*
X181224978Y-101637665D01*
X181207773Y-101605477D01*
X181197181Y-101570562D01*
X181193000Y-101528105D01*
X181193000Y-100386895D01*
X181197181Y-100344438D01*
X181207773Y-100309523D01*
X181224978Y-100277335D01*
X181248127Y-100249127D01*
X181276335Y-100225978D01*
X181308523Y-100208773D01*
X181343438Y-100198181D01*
X181385895Y-100194000D01*
X183752105Y-100194000D01*
X183794562Y-100198181D01*
X183794562Y-100198181D01*
G37*
G36*
X170840562Y-100159181D02*
X170875477Y-100169773D01*
X170907665Y-100186978D01*
X170935873Y-100210127D01*
X170959022Y-100238335D01*
X170976227Y-100270523D01*
X170986819Y-100305438D01*
X170991000Y-100347895D01*
X170991000Y-101489105D01*
X170986819Y-101531562D01*
X170976227Y-101566477D01*
X170959022Y-101598665D01*
X170935873Y-101626873D01*
X170907665Y-101650022D01*
X170875477Y-101667227D01*
X170840562Y-101677819D01*
X170798105Y-101682000D01*
X169331895Y-101682000D01*
X169289438Y-101677819D01*
X169254523Y-101667227D01*
X169222335Y-101650022D01*
X169194127Y-101626873D01*
X169170978Y-101598665D01*
X169153773Y-101566477D01*
X169143181Y-101531562D01*
X169139000Y-101489105D01*
X169139000Y-100347895D01*
X169143181Y-100305438D01*
X169153773Y-100270523D01*
X169170978Y-100238335D01*
X169194127Y-100210127D01*
X169222335Y-100186978D01*
X169254523Y-100169773D01*
X169289438Y-100159181D01*
X169331895Y-100155000D01*
X170798105Y-100155000D01*
X170840562Y-100159181D01*
X170840562Y-100159181D01*
G37*
G36*
X177240562Y-100159181D02*
X177275477Y-100169773D01*
X177307665Y-100186978D01*
X177335873Y-100210127D01*
X177359022Y-100238335D01*
X177376227Y-100270523D01*
X177386819Y-100305438D01*
X177391000Y-100347895D01*
X177391000Y-101489105D01*
X177386819Y-101531562D01*
X177376227Y-101566477D01*
X177359022Y-101598665D01*
X177335873Y-101626873D01*
X177307665Y-101650022D01*
X177275477Y-101667227D01*
X177240562Y-101677819D01*
X177198105Y-101682000D01*
X174831895Y-101682000D01*
X174789438Y-101677819D01*
X174754523Y-101667227D01*
X174722335Y-101650022D01*
X174694127Y-101626873D01*
X174670978Y-101598665D01*
X174653773Y-101566477D01*
X174643181Y-101531562D01*
X174639000Y-101489105D01*
X174639000Y-100347895D01*
X174643181Y-100305438D01*
X174653773Y-100270523D01*
X174670978Y-100238335D01*
X174694127Y-100210127D01*
X174722335Y-100186978D01*
X174754523Y-100169773D01*
X174789438Y-100159181D01*
X174831895Y-100155000D01*
X177198105Y-100155000D01*
X177240562Y-100159181D01*
X177240562Y-100159181D01*
G37*
G36*
X154740821Y-100058103D02*
X154774982Y-100068466D01*
X154806464Y-100085293D01*
X154834060Y-100107940D01*
X154856707Y-100135536D01*
X154873534Y-100167018D01*
X154883897Y-100201179D01*
X154888000Y-100242842D01*
X154888000Y-101492158D01*
X154883897Y-101533821D01*
X154873534Y-101567982D01*
X154856707Y-101599464D01*
X154834060Y-101627060D01*
X154806464Y-101649707D01*
X154774982Y-101666534D01*
X154740821Y-101676897D01*
X154699158Y-101681000D01*
X151624842Y-101681000D01*
X151583179Y-101676897D01*
X151549018Y-101666534D01*
X151517536Y-101649707D01*
X151489940Y-101627060D01*
X151467293Y-101599464D01*
X151450466Y-101567982D01*
X151440103Y-101533821D01*
X151436000Y-101492158D01*
X151436000Y-100242842D01*
X151440103Y-100201179D01*
X151450466Y-100167018D01*
X151467293Y-100135536D01*
X151489940Y-100107940D01*
X151517536Y-100085293D01*
X151549018Y-100068466D01*
X151583179Y-100058103D01*
X151624842Y-100054000D01*
X154699158Y-100054000D01*
X154740821Y-100058103D01*
X154740821Y-100058103D01*
G37*
G36*
X194857000Y-100368000D02*
X193255000Y-100368000D01*
X193255000Y-97866000D01*
X194857000Y-97866000D01*
X194857000Y-100368000D01*
X194857000Y-100368000D01*
G37*
G36*
X165281821Y-97772103D02*
X165315982Y-97782466D01*
X165347464Y-97799293D01*
X165375060Y-97821940D01*
X165397707Y-97849536D01*
X165414534Y-97881018D01*
X165424897Y-97915179D01*
X165429000Y-97956842D01*
X165429000Y-99206158D01*
X165424897Y-99247821D01*
X165414534Y-99281982D01*
X165397707Y-99313464D01*
X165375060Y-99341060D01*
X165347464Y-99363707D01*
X165315982Y-99380534D01*
X165281821Y-99390897D01*
X165240158Y-99395000D01*
X162165842Y-99395000D01*
X162124179Y-99390897D01*
X162090018Y-99380534D01*
X162058536Y-99363707D01*
X162030940Y-99341060D01*
X162008293Y-99313464D01*
X161991466Y-99281982D01*
X161981103Y-99247821D01*
X161977000Y-99206158D01*
X161977000Y-97956842D01*
X161981103Y-97915179D01*
X161991466Y-97881018D01*
X162008293Y-97849536D01*
X162030940Y-97821940D01*
X162058536Y-97799293D01*
X162090018Y-97782466D01*
X162124179Y-97772103D01*
X162165842Y-97768000D01*
X165240158Y-97768000D01*
X165281821Y-97772103D01*
X165281821Y-97772103D01*
G37*
G36*
X90476565Y-96525389D02*
X90667834Y-96604615D01*
X90839976Y-96719637D01*
X90986363Y-96866024D01*
X91101385Y-97038166D01*
X91180611Y-97229435D01*
X91221000Y-97432484D01*
X91221000Y-97639516D01*
X91180611Y-97842565D01*
X91101385Y-98033834D01*
X90986363Y-98205976D01*
X90839976Y-98352363D01*
X90667834Y-98467385D01*
X90476565Y-98546611D01*
X90273516Y-98587000D01*
X90066484Y-98587000D01*
X89863435Y-98546611D01*
X89672166Y-98467385D01*
X89500024Y-98352363D01*
X89353637Y-98205976D01*
X89238615Y-98033834D01*
X89159389Y-97842565D01*
X89119000Y-97639516D01*
X89119000Y-97432484D01*
X89159389Y-97229435D01*
X89238615Y-97038166D01*
X89353637Y-96866024D01*
X89500024Y-96719637D01*
X89672166Y-96604615D01*
X89863435Y-96525389D01*
X90066484Y-96485000D01*
X90273516Y-96485000D01*
X90476565Y-96525389D01*
X90476565Y-96525389D01*
G37*
G36*
X130356821Y-96508103D02*
X130390982Y-96518466D01*
X130422464Y-96535293D01*
X130450060Y-96557940D01*
X130472707Y-96585536D01*
X130489534Y-96617018D01*
X130499897Y-96651179D01*
X130504000Y-96692842D01*
X130504000Y-97942158D01*
X130499897Y-97983821D01*
X130489534Y-98017982D01*
X130472707Y-98049464D01*
X130450060Y-98077060D01*
X130422464Y-98099707D01*
X130390982Y-98116534D01*
X130356821Y-98126897D01*
X130315158Y-98131000D01*
X127240842Y-98131000D01*
X127199179Y-98126897D01*
X127165018Y-98116534D01*
X127133536Y-98099707D01*
X127105940Y-98077060D01*
X127083293Y-98049464D01*
X127066466Y-98017982D01*
X127056103Y-97983821D01*
X127052000Y-97942158D01*
X127052000Y-96692842D01*
X127056103Y-96651179D01*
X127066466Y-96617018D01*
X127083293Y-96585536D01*
X127105940Y-96557940D01*
X127133536Y-96535293D01*
X127165018Y-96518466D01*
X127199179Y-96508103D01*
X127240842Y-96504000D01*
X130315158Y-96504000D01*
X130356821Y-96508103D01*
X130356821Y-96508103D01*
G37*
G36*
X134659000Y-97955000D02*
X133057000Y-97955000D01*
X133057000Y-95453000D01*
X134659000Y-95453000D01*
X134659000Y-97955000D01*
X134659000Y-97955000D01*
G37*
G36*
X124389000Y-97817000D02*
X120787000Y-97817000D01*
X120787000Y-95415000D01*
X124389000Y-95415000D01*
X124389000Y-97817000D01*
X124389000Y-97817000D01*
G37*
G36*
X118989000Y-97817000D02*
X115387000Y-97817000D01*
X115387000Y-95415000D01*
X118989000Y-95415000D01*
X118989000Y-97817000D01*
X118989000Y-97817000D01*
G37*
G36*
X150485000Y-97630000D02*
X139583000Y-97630000D01*
X139583000Y-88128000D01*
X150485000Y-88128000D01*
X150485000Y-97630000D01*
X150485000Y-97630000D01*
G37*
G36*
X181727000Y-97467000D02*
X170825000Y-97467000D01*
X170825000Y-87965000D01*
X181727000Y-87965000D01*
X181727000Y-97467000D01*
X181727000Y-97467000D01*
G37*
G36*
X194857000Y-97318000D02*
X193255000Y-97318000D01*
X193255000Y-96166000D01*
X194857000Y-96166000D01*
X194857000Y-97318000D01*
X194857000Y-97318000D01*
G37*
G36*
X189919821Y-94978103D02*
X189953982Y-94988466D01*
X189985464Y-95005293D01*
X190013060Y-95027940D01*
X190035707Y-95055536D01*
X190052534Y-95087018D01*
X190062897Y-95121179D01*
X190067000Y-95162842D01*
X190067000Y-96412158D01*
X190062897Y-96453821D01*
X190052534Y-96487982D01*
X190035707Y-96519464D01*
X190013060Y-96547060D01*
X189985464Y-96569707D01*
X189953982Y-96586534D01*
X189919821Y-96596897D01*
X189878158Y-96601000D01*
X186803842Y-96601000D01*
X186762179Y-96596897D01*
X186728018Y-96586534D01*
X186696536Y-96569707D01*
X186668940Y-96547060D01*
X186646293Y-96519464D01*
X186629466Y-96487982D01*
X186619103Y-96453821D01*
X186615000Y-96412158D01*
X186615000Y-95162842D01*
X186619103Y-95121179D01*
X186629466Y-95087018D01*
X186646293Y-95055536D01*
X186668940Y-95027940D01*
X186696536Y-95005293D01*
X186728018Y-94988466D01*
X186762179Y-94978103D01*
X186803842Y-94974000D01*
X189878158Y-94974000D01*
X189919821Y-94978103D01*
X189919821Y-94978103D01*
G37*
G36*
X134659000Y-94905000D02*
X133057000Y-94905000D01*
X133057000Y-93753000D01*
X134659000Y-93753000D01*
X134659000Y-94905000D01*
X134659000Y-94905000D01*
G37*
G36*
X162108000Y-93372000D02*
X158506000Y-93372000D01*
X158506000Y-90970000D01*
X162108000Y-90970000D01*
X162108000Y-93372000D01*
X162108000Y-93372000D01*
G37*
G36*
X156708000Y-93372000D02*
X153106000Y-93372000D01*
X153106000Y-90970000D01*
X156708000Y-90970000D01*
X156708000Y-93372000D01*
X156708000Y-93372000D01*
G37*
G36*
X194831562Y-90740181D02*
X194866477Y-90750773D01*
X194898665Y-90767978D01*
X194926873Y-90791127D01*
X194950022Y-90819335D01*
X194967227Y-90851523D01*
X194977819Y-90886438D01*
X194982000Y-90928895D01*
X194982000Y-92070105D01*
X194977819Y-92112562D01*
X194967227Y-92147477D01*
X194950022Y-92179665D01*
X194926873Y-92207873D01*
X194898665Y-92231022D01*
X194866477Y-92248227D01*
X194831562Y-92258819D01*
X194789105Y-92263000D01*
X193322895Y-92263000D01*
X193280438Y-92258819D01*
X193245523Y-92248227D01*
X193213335Y-92231022D01*
X193185127Y-92207873D01*
X193161978Y-92179665D01*
X193144773Y-92147477D01*
X193134181Y-92112562D01*
X193130000Y-92070105D01*
X193130000Y-90928895D01*
X193134181Y-90886438D01*
X193144773Y-90851523D01*
X193161978Y-90819335D01*
X193185127Y-90791127D01*
X193213335Y-90767978D01*
X193245523Y-90750773D01*
X193280438Y-90740181D01*
X193322895Y-90736000D01*
X194789105Y-90736000D01*
X194831562Y-90740181D01*
X194831562Y-90740181D01*
G37*
G36*
X130356821Y-90533103D02*
X130390982Y-90543466D01*
X130422464Y-90560293D01*
X130450060Y-90582940D01*
X130472707Y-90610536D01*
X130489534Y-90642018D01*
X130499897Y-90676179D01*
X130504000Y-90717842D01*
X130504000Y-91967158D01*
X130499897Y-92008821D01*
X130489534Y-92042982D01*
X130472707Y-92074464D01*
X130450060Y-92102060D01*
X130422464Y-92124707D01*
X130390982Y-92141534D01*
X130356821Y-92151897D01*
X130315158Y-92156000D01*
X127240842Y-92156000D01*
X127199179Y-92151897D01*
X127165018Y-92141534D01*
X127133536Y-92124707D01*
X127105940Y-92102060D01*
X127083293Y-92074464D01*
X127066466Y-92042982D01*
X127056103Y-92008821D01*
X127052000Y-91967158D01*
X127052000Y-90717842D01*
X127056103Y-90676179D01*
X127066466Y-90642018D01*
X127083293Y-90610536D01*
X127105940Y-90582940D01*
X127133536Y-90560293D01*
X127165018Y-90543466D01*
X127199179Y-90533103D01*
X127240842Y-90529000D01*
X130315158Y-90529000D01*
X130356821Y-90533103D01*
X130356821Y-90533103D01*
G37*
G36*
X189415000Y-91592000D02*
X187013000Y-91592000D01*
X187013000Y-87990000D01*
X189415000Y-87990000D01*
X189415000Y-91592000D01*
X189415000Y-91592000D01*
G37*
G36*
X90476565Y-89025389D02*
X90667834Y-89104615D01*
X90839976Y-89219637D01*
X90986363Y-89366024D01*
X91101385Y-89538166D01*
X91180611Y-89729435D01*
X91221000Y-89932484D01*
X91221000Y-90139516D01*
X91180611Y-90342565D01*
X91101385Y-90533834D01*
X90986363Y-90705976D01*
X90839976Y-90852363D01*
X90667834Y-90967385D01*
X90476565Y-91046611D01*
X90273516Y-91087000D01*
X90066484Y-91087000D01*
X89863435Y-91046611D01*
X89672166Y-90967385D01*
X89500024Y-90852363D01*
X89353637Y-90705976D01*
X89238615Y-90533834D01*
X89159389Y-90342565D01*
X89119000Y-90139516D01*
X89119000Y-89932484D01*
X89159389Y-89729435D01*
X89238615Y-89538166D01*
X89353637Y-89366024D01*
X89500024Y-89219637D01*
X89672166Y-89104615D01*
X89863435Y-89025389D01*
X90066484Y-88985000D01*
X90273516Y-88985000D01*
X90476565Y-89025389D01*
X90476565Y-89025389D01*
G37*
G36*
X113076000Y-90926000D02*
X103574000Y-90926000D01*
X103574000Y-80024000D01*
X113076000Y-80024000D01*
X113076000Y-90926000D01*
X113076000Y-90926000D01*
G37*
G36*
X202238821Y-89269103D02*
X202272982Y-89279466D01*
X202304464Y-89296293D01*
X202332060Y-89318940D01*
X202354707Y-89346536D01*
X202371534Y-89378018D01*
X202381897Y-89412179D01*
X202386000Y-89453842D01*
X202386000Y-90703158D01*
X202381897Y-90744821D01*
X202371534Y-90778982D01*
X202354707Y-90810464D01*
X202332060Y-90838060D01*
X202304464Y-90860707D01*
X202272982Y-90877534D01*
X202238821Y-90887897D01*
X202197158Y-90892000D01*
X199122842Y-90892000D01*
X199081179Y-90887897D01*
X199047018Y-90877534D01*
X199015536Y-90860707D01*
X198987940Y-90838060D01*
X198965293Y-90810464D01*
X198948466Y-90778982D01*
X198938103Y-90744821D01*
X198934000Y-90703158D01*
X198934000Y-89453842D01*
X198938103Y-89412179D01*
X198948466Y-89378018D01*
X198965293Y-89346536D01*
X198987940Y-89318940D01*
X199015536Y-89296293D01*
X199047018Y-89279466D01*
X199081179Y-89269103D01*
X199122842Y-89265000D01*
X202197158Y-89265000D01*
X202238821Y-89269103D01*
X202238821Y-89269103D01*
G37*
G36*
X119826000Y-89736000D02*
X115124000Y-89736000D01*
X115124000Y-88834000D01*
X119826000Y-88834000D01*
X119826000Y-89736000D01*
X119826000Y-89736000D01*
G37*
G36*
X194831562Y-87765181D02*
X194866477Y-87775773D01*
X194898665Y-87792978D01*
X194926873Y-87816127D01*
X194950022Y-87844335D01*
X194967227Y-87876523D01*
X194977819Y-87911438D01*
X194982000Y-87953895D01*
X194982000Y-89095105D01*
X194977819Y-89137562D01*
X194967227Y-89172477D01*
X194950022Y-89204665D01*
X194926873Y-89232873D01*
X194898665Y-89256022D01*
X194866477Y-89273227D01*
X194831562Y-89283819D01*
X194789105Y-89288000D01*
X193322895Y-89288000D01*
X193280438Y-89283819D01*
X193245523Y-89273227D01*
X193213335Y-89256022D01*
X193185127Y-89232873D01*
X193161978Y-89204665D01*
X193144773Y-89172477D01*
X193134181Y-89137562D01*
X193130000Y-89095105D01*
X193130000Y-87953895D01*
X193134181Y-87911438D01*
X193144773Y-87876523D01*
X193161978Y-87844335D01*
X193185127Y-87816127D01*
X193213335Y-87792978D01*
X193245523Y-87775773D01*
X193280438Y-87765181D01*
X193322895Y-87761000D01*
X194789105Y-87761000D01*
X194831562Y-87765181D01*
X194831562Y-87765181D01*
G37*
G36*
X119826000Y-88466000D02*
X115124000Y-88466000D01*
X115124000Y-87564000D01*
X119826000Y-87564000D01*
X119826000Y-88466000D01*
X119826000Y-88466000D01*
G37*
G36*
X217823228Y-86381703D02*
X217978100Y-86445853D01*
X218117481Y-86538985D01*
X218236015Y-86657519D01*
X218329147Y-86796900D01*
X218393297Y-86951772D01*
X218426000Y-87116184D01*
X218426000Y-87283816D01*
X218393297Y-87448228D01*
X218329147Y-87603100D01*
X218236015Y-87742481D01*
X218117481Y-87861015D01*
X217978100Y-87954147D01*
X217823228Y-88018297D01*
X217658816Y-88051000D01*
X217491184Y-88051000D01*
X217326772Y-88018297D01*
X217171900Y-87954147D01*
X217032519Y-87861015D01*
X216913985Y-87742481D01*
X216820853Y-87603100D01*
X216756703Y-87448228D01*
X216724000Y-87283816D01*
X216724000Y-87116184D01*
X216756703Y-86951772D01*
X216820853Y-86796900D01*
X216913985Y-86657519D01*
X217032519Y-86538985D01*
X217171900Y-86445853D01*
X217326772Y-86381703D01*
X217491184Y-86349000D01*
X217658816Y-86349000D01*
X217823228Y-86381703D01*
X217823228Y-86381703D01*
G37*
G36*
X212823228Y-86381703D02*
X212978100Y-86445853D01*
X213117481Y-86538985D01*
X213236015Y-86657519D01*
X213329147Y-86796900D01*
X213393297Y-86951772D01*
X213426000Y-87116184D01*
X213426000Y-87283816D01*
X213393297Y-87448228D01*
X213329147Y-87603100D01*
X213236015Y-87742481D01*
X213117481Y-87861015D01*
X212978100Y-87954147D01*
X212823228Y-88018297D01*
X212658816Y-88051000D01*
X212491184Y-88051000D01*
X212326772Y-88018297D01*
X212171900Y-87954147D01*
X212032519Y-87861015D01*
X211913985Y-87742481D01*
X211820853Y-87603100D01*
X211756703Y-87448228D01*
X211724000Y-87283816D01*
X211724000Y-87116184D01*
X211756703Y-86951772D01*
X211820853Y-86796900D01*
X211913985Y-86657519D01*
X212032519Y-86538985D01*
X212171900Y-86445853D01*
X212326772Y-86381703D01*
X212491184Y-86349000D01*
X212658816Y-86349000D01*
X212823228Y-86381703D01*
X212823228Y-86381703D01*
G37*
G36*
X119826000Y-87196000D02*
X115124000Y-87196000D01*
X115124000Y-86294000D01*
X119826000Y-86294000D01*
X119826000Y-87196000D01*
X119826000Y-87196000D01*
G37*
G36*
X156659562Y-85153181D02*
X156694477Y-85163773D01*
X156726665Y-85180978D01*
X156754873Y-85204127D01*
X156778022Y-85232335D01*
X156795227Y-85264523D01*
X156805819Y-85299438D01*
X156810000Y-85341895D01*
X156810000Y-86808105D01*
X156805819Y-86850562D01*
X156795227Y-86885477D01*
X156778022Y-86917665D01*
X156754873Y-86945873D01*
X156726665Y-86969022D01*
X156694477Y-86986227D01*
X156659562Y-86996819D01*
X156617105Y-87001000D01*
X155475895Y-87001000D01*
X155433438Y-86996819D01*
X155398523Y-86986227D01*
X155366335Y-86969022D01*
X155338127Y-86945873D01*
X155314978Y-86917665D01*
X155297773Y-86885477D01*
X155287181Y-86850562D01*
X155283000Y-86808105D01*
X155283000Y-85341895D01*
X155287181Y-85299438D01*
X155297773Y-85264523D01*
X155314978Y-85232335D01*
X155338127Y-85204127D01*
X155366335Y-85180978D01*
X155398523Y-85163773D01*
X155433438Y-85153181D01*
X155475895Y-85149000D01*
X156617105Y-85149000D01*
X156659562Y-85153181D01*
X156659562Y-85153181D01*
G37*
G36*
X153684562Y-85153181D02*
X153719477Y-85163773D01*
X153751665Y-85180978D01*
X153779873Y-85204127D01*
X153803022Y-85232335D01*
X153820227Y-85264523D01*
X153830819Y-85299438D01*
X153835000Y-85341895D01*
X153835000Y-86808105D01*
X153830819Y-86850562D01*
X153820227Y-86885477D01*
X153803022Y-86917665D01*
X153779873Y-86945873D01*
X153751665Y-86969022D01*
X153719477Y-86986227D01*
X153684562Y-86996819D01*
X153642105Y-87001000D01*
X152500895Y-87001000D01*
X152458438Y-86996819D01*
X152423523Y-86986227D01*
X152391335Y-86969022D01*
X152363127Y-86945873D01*
X152339978Y-86917665D01*
X152322773Y-86885477D01*
X152312181Y-86850562D01*
X152308000Y-86808105D01*
X152308000Y-85341895D01*
X152312181Y-85299438D01*
X152322773Y-85264523D01*
X152339978Y-85232335D01*
X152363127Y-85204127D01*
X152391335Y-85180978D01*
X152423523Y-85163773D01*
X152458438Y-85153181D01*
X152500895Y-85149000D01*
X153642105Y-85149000D01*
X153684562Y-85153181D01*
X153684562Y-85153181D01*
G37*
G36*
X130995000Y-86512000D02*
X128593000Y-86512000D01*
X128593000Y-82910000D01*
X130995000Y-82910000D01*
X130995000Y-86512000D01*
X130995000Y-86512000D01*
G37*
G36*
X189415000Y-86192000D02*
X187013000Y-86192000D01*
X187013000Y-82590000D01*
X189415000Y-82590000D01*
X189415000Y-86192000D01*
X189415000Y-86192000D01*
G37*
G36*
X148025000Y-86080000D02*
X147123000Y-86080000D01*
X147123000Y-81378000D01*
X148025000Y-81378000D01*
X148025000Y-86080000D01*
X148025000Y-86080000D01*
G37*
G36*
X146755000Y-86080000D02*
X145853000Y-86080000D01*
X145853000Y-81378000D01*
X146755000Y-81378000D01*
X146755000Y-86080000D01*
X146755000Y-86080000D01*
G37*
G36*
X144215000Y-86080000D02*
X143313000Y-86080000D01*
X143313000Y-81378000D01*
X144215000Y-81378000D01*
X144215000Y-86080000D01*
X144215000Y-86080000D01*
G37*
G36*
X142945000Y-86080000D02*
X142043000Y-86080000D01*
X142043000Y-81378000D01*
X142945000Y-81378000D01*
X142945000Y-86080000D01*
X142945000Y-86080000D01*
G37*
G36*
X149295000Y-86080000D02*
X148393000Y-86080000D01*
X148393000Y-81378000D01*
X149295000Y-81378000D01*
X149295000Y-86080000D01*
X149295000Y-86080000D01*
G37*
G36*
X141675000Y-86080000D02*
X140773000Y-86080000D01*
X140773000Y-81378000D01*
X141675000Y-81378000D01*
X141675000Y-86080000D01*
X141675000Y-86080000D01*
G37*
G36*
X134633562Y-84517181D02*
X134668477Y-84527773D01*
X134700665Y-84544978D01*
X134728873Y-84568127D01*
X134752022Y-84596335D01*
X134769227Y-84628523D01*
X134779819Y-84663438D01*
X134784000Y-84705895D01*
X134784000Y-85847105D01*
X134779819Y-85889562D01*
X134769227Y-85924477D01*
X134752022Y-85956665D01*
X134728873Y-85984873D01*
X134700665Y-86008022D01*
X134668477Y-86025227D01*
X134633562Y-86035819D01*
X134591105Y-86040000D01*
X133124895Y-86040000D01*
X133082438Y-86035819D01*
X133047523Y-86025227D01*
X133015335Y-86008022D01*
X132987127Y-85984873D01*
X132963978Y-85956665D01*
X132946773Y-85924477D01*
X132936181Y-85889562D01*
X132932000Y-85847105D01*
X132932000Y-84705895D01*
X132936181Y-84663438D01*
X132946773Y-84628523D01*
X132963978Y-84596335D01*
X132987127Y-84568127D01*
X133015335Y-84544978D01*
X133047523Y-84527773D01*
X133082438Y-84517181D01*
X133124895Y-84513000D01*
X134591105Y-84513000D01*
X134633562Y-84517181D01*
X134633562Y-84517181D01*
G37*
G36*
X179267000Y-85917000D02*
X178365000Y-85917000D01*
X178365000Y-81215000D01*
X179267000Y-81215000D01*
X179267000Y-85917000D01*
X179267000Y-85917000D01*
G37*
G36*
X177997000Y-85917000D02*
X177095000Y-85917000D01*
X177095000Y-81215000D01*
X177997000Y-81215000D01*
X177997000Y-85917000D01*
X177997000Y-85917000D01*
G37*
G36*
X174187000Y-85917000D02*
X173285000Y-85917000D01*
X173285000Y-81215000D01*
X174187000Y-81215000D01*
X174187000Y-85917000D01*
X174187000Y-85917000D01*
G37*
G36*
X172917000Y-85917000D02*
X172015000Y-85917000D01*
X172015000Y-81215000D01*
X172917000Y-81215000D01*
X172917000Y-85917000D01*
X172917000Y-85917000D01*
G37*
G36*
X180537000Y-85917000D02*
X179635000Y-85917000D01*
X179635000Y-81215000D01*
X180537000Y-81215000D01*
X180537000Y-85917000D01*
X180537000Y-85917000D01*
G37*
G36*
X175457000Y-85917000D02*
X174555000Y-85917000D01*
X174555000Y-81215000D01*
X175457000Y-81215000D01*
X175457000Y-85917000D01*
X175457000Y-85917000D01*
G37*
G36*
X196381000Y-85382000D02*
X194779000Y-85382000D01*
X194779000Y-82880000D01*
X196381000Y-82880000D01*
X196381000Y-85382000D01*
X196381000Y-85382000D01*
G37*
G36*
X163390562Y-83502181D02*
X163425477Y-83512773D01*
X163457665Y-83529978D01*
X163485873Y-83553127D01*
X163509022Y-83581335D01*
X163526227Y-83613523D01*
X163536819Y-83648438D01*
X163541000Y-83690895D01*
X163541000Y-85157105D01*
X163536819Y-85199562D01*
X163526227Y-85234477D01*
X163509022Y-85266665D01*
X163485873Y-85294873D01*
X163457665Y-85318022D01*
X163425477Y-85335227D01*
X163390562Y-85345819D01*
X163348105Y-85350000D01*
X162206895Y-85350000D01*
X162164438Y-85345819D01*
X162129523Y-85335227D01*
X162097335Y-85318022D01*
X162069127Y-85294873D01*
X162045978Y-85266665D01*
X162028773Y-85234477D01*
X162018181Y-85199562D01*
X162014000Y-85157105D01*
X162014000Y-83690895D01*
X162018181Y-83648438D01*
X162028773Y-83613523D01*
X162045978Y-83581335D01*
X162069127Y-83553127D01*
X162097335Y-83529978D01*
X162129523Y-83512773D01*
X162164438Y-83502181D01*
X162206895Y-83498000D01*
X163348105Y-83498000D01*
X163390562Y-83502181D01*
X163390562Y-83502181D01*
G37*
G36*
X160415562Y-83502181D02*
X160450477Y-83512773D01*
X160482665Y-83529978D01*
X160510873Y-83553127D01*
X160534022Y-83581335D01*
X160551227Y-83613523D01*
X160561819Y-83648438D01*
X160566000Y-83690895D01*
X160566000Y-85157105D01*
X160561819Y-85199562D01*
X160551227Y-85234477D01*
X160534022Y-85266665D01*
X160510873Y-85294873D01*
X160482665Y-85318022D01*
X160450477Y-85335227D01*
X160415562Y-85345819D01*
X160373105Y-85350000D01*
X159231895Y-85350000D01*
X159189438Y-85345819D01*
X159154523Y-85335227D01*
X159122335Y-85318022D01*
X159094127Y-85294873D01*
X159070978Y-85266665D01*
X159053773Y-85234477D01*
X159043181Y-85199562D01*
X159039000Y-85157105D01*
X159039000Y-83690895D01*
X159043181Y-83648438D01*
X159053773Y-83613523D01*
X159070978Y-83581335D01*
X159094127Y-83553127D01*
X159122335Y-83529978D01*
X159154523Y-83512773D01*
X159189438Y-83502181D01*
X159231895Y-83498000D01*
X160373105Y-83498000D01*
X160415562Y-83502181D01*
X160415562Y-83502181D01*
G37*
G36*
X202238821Y-83294103D02*
X202272982Y-83304466D01*
X202304464Y-83321293D01*
X202332060Y-83343940D01*
X202354707Y-83371536D01*
X202371534Y-83403018D01*
X202381897Y-83437179D01*
X202386000Y-83478842D01*
X202386000Y-84728158D01*
X202381897Y-84769821D01*
X202371534Y-84803982D01*
X202354707Y-84835464D01*
X202332060Y-84863060D01*
X202304464Y-84885707D01*
X202272982Y-84902534D01*
X202238821Y-84912897D01*
X202197158Y-84917000D01*
X199122842Y-84917000D01*
X199081179Y-84912897D01*
X199047018Y-84902534D01*
X199015536Y-84885707D01*
X198987940Y-84863060D01*
X198965293Y-84835464D01*
X198948466Y-84803982D01*
X198938103Y-84769821D01*
X198934000Y-84728158D01*
X198934000Y-83478842D01*
X198938103Y-83437179D01*
X198948466Y-83403018D01*
X198965293Y-83371536D01*
X198987940Y-83343940D01*
X199015536Y-83321293D01*
X199047018Y-83304466D01*
X199081179Y-83294103D01*
X199122842Y-83290000D01*
X202197158Y-83290000D01*
X202238821Y-83294103D01*
X202238821Y-83294103D01*
G37*
G36*
X119826000Y-84656000D02*
X115124000Y-84656000D01*
X115124000Y-83754000D01*
X119826000Y-83754000D01*
X119826000Y-84656000D01*
X119826000Y-84656000D01*
G37*
G36*
X119826000Y-83386000D02*
X115124000Y-83386000D01*
X115124000Y-82484000D01*
X119826000Y-82484000D01*
X119826000Y-83386000D01*
X119826000Y-83386000D01*
G37*
G36*
X134633562Y-81542181D02*
X134668477Y-81552773D01*
X134700665Y-81569978D01*
X134728873Y-81593127D01*
X134752022Y-81621335D01*
X134769227Y-81653523D01*
X134779819Y-81688438D01*
X134784000Y-81730895D01*
X134784000Y-82872105D01*
X134779819Y-82914562D01*
X134769227Y-82949477D01*
X134752022Y-82981665D01*
X134728873Y-83009873D01*
X134700665Y-83033022D01*
X134668477Y-83050227D01*
X134633562Y-83060819D01*
X134591105Y-83065000D01*
X133124895Y-83065000D01*
X133082438Y-83060819D01*
X133047523Y-83050227D01*
X133015335Y-83033022D01*
X132987127Y-83009873D01*
X132963978Y-82981665D01*
X132946773Y-82949477D01*
X132936181Y-82914562D01*
X132932000Y-82872105D01*
X132932000Y-81730895D01*
X132936181Y-81688438D01*
X132946773Y-81653523D01*
X132963978Y-81621335D01*
X132987127Y-81593127D01*
X133015335Y-81569978D01*
X133047523Y-81552773D01*
X133082438Y-81542181D01*
X133124895Y-81538000D01*
X134591105Y-81538000D01*
X134633562Y-81542181D01*
X134633562Y-81542181D01*
G37*
G36*
X196381000Y-82332000D02*
X194779000Y-82332000D01*
X194779000Y-81180000D01*
X196381000Y-81180000D01*
X196381000Y-82332000D01*
X196381000Y-82332000D01*
G37*
G36*
X119826000Y-82116000D02*
X115124000Y-82116000D01*
X115124000Y-81214000D01*
X119826000Y-81214000D01*
X119826000Y-82116000D01*
X119826000Y-82116000D01*
G37*
G36*
X130995000Y-81112000D02*
X128593000Y-81112000D01*
X128593000Y-77510000D01*
X130995000Y-77510000D01*
X130995000Y-81112000D01*
X130995000Y-81112000D01*
G37*
G36*
X162997000Y-80164000D02*
X159395000Y-80164000D01*
X159395000Y-77762000D01*
X162997000Y-77762000D01*
X162997000Y-80164000D01*
X162997000Y-80164000D01*
G37*
G36*
X157597000Y-80164000D02*
X153995000Y-80164000D01*
X153995000Y-77762000D01*
X157597000Y-77762000D01*
X157597000Y-80164000D01*
X157597000Y-80164000D01*
G37*
G36*
X196863562Y-76674181D02*
X196898477Y-76684773D01*
X196930665Y-76701978D01*
X196958873Y-76725127D01*
X196982022Y-76753335D01*
X196999227Y-76785523D01*
X197009819Y-76820438D01*
X197014000Y-76862895D01*
X197014000Y-78004105D01*
X197009819Y-78046562D01*
X196999227Y-78081477D01*
X196982022Y-78113665D01*
X196958873Y-78141873D01*
X196930665Y-78165022D01*
X196898477Y-78182227D01*
X196863562Y-78192819D01*
X196821105Y-78197000D01*
X195354895Y-78197000D01*
X195312438Y-78192819D01*
X195277523Y-78182227D01*
X195245335Y-78165022D01*
X195217127Y-78141873D01*
X195193978Y-78113665D01*
X195176773Y-78081477D01*
X195166181Y-78046562D01*
X195162000Y-78004105D01*
X195162000Y-76862895D01*
X195166181Y-76820438D01*
X195176773Y-76785523D01*
X195193978Y-76753335D01*
X195217127Y-76725127D01*
X195245335Y-76701978D01*
X195277523Y-76684773D01*
X195312438Y-76674181D01*
X195354895Y-76670000D01*
X196821105Y-76670000D01*
X196863562Y-76674181D01*
X196863562Y-76674181D01*
G37*
G36*
X191451000Y-78126000D02*
X189049000Y-78126000D01*
X189049000Y-74524000D01*
X191451000Y-74524000D01*
X191451000Y-78126000D01*
X191451000Y-78126000D01*
G37*
G36*
X136200562Y-74778181D02*
X136235477Y-74788773D01*
X136267665Y-74805978D01*
X136295873Y-74829127D01*
X136319022Y-74857335D01*
X136336227Y-74889523D01*
X136346819Y-74924438D01*
X136351000Y-74966895D01*
X136351000Y-77333105D01*
X136346819Y-77375562D01*
X136336227Y-77410477D01*
X136319022Y-77442665D01*
X136295873Y-77470873D01*
X136267665Y-77494022D01*
X136235477Y-77511227D01*
X136200562Y-77521819D01*
X136158105Y-77526000D01*
X135016895Y-77526000D01*
X134974438Y-77521819D01*
X134939523Y-77511227D01*
X134907335Y-77494022D01*
X134879127Y-77470873D01*
X134855978Y-77442665D01*
X134838773Y-77410477D01*
X134828181Y-77375562D01*
X134824000Y-77333105D01*
X134824000Y-74966895D01*
X134828181Y-74924438D01*
X134838773Y-74889523D01*
X134855978Y-74857335D01*
X134879127Y-74829127D01*
X134907335Y-74805978D01*
X134939523Y-74788773D01*
X134974438Y-74778181D01*
X135016895Y-74774000D01*
X136158105Y-74774000D01*
X136200562Y-74778181D01*
X136200562Y-74778181D01*
G37*
G36*
X139175562Y-74778181D02*
X139210477Y-74788773D01*
X139242665Y-74805978D01*
X139270873Y-74829127D01*
X139294022Y-74857335D01*
X139311227Y-74889523D01*
X139321819Y-74924438D01*
X139326000Y-74966895D01*
X139326000Y-77333105D01*
X139321819Y-77375562D01*
X139311227Y-77410477D01*
X139294022Y-77442665D01*
X139270873Y-77470873D01*
X139242665Y-77494022D01*
X139210477Y-77511227D01*
X139175562Y-77521819D01*
X139133105Y-77526000D01*
X137991895Y-77526000D01*
X137949438Y-77521819D01*
X137914523Y-77511227D01*
X137882335Y-77494022D01*
X137854127Y-77470873D01*
X137830978Y-77442665D01*
X137813773Y-77410477D01*
X137803181Y-77375562D01*
X137799000Y-77333105D01*
X137799000Y-74966895D01*
X137803181Y-74924438D01*
X137813773Y-74889523D01*
X137830978Y-74857335D01*
X137854127Y-74829127D01*
X137882335Y-74805978D01*
X137914523Y-74788773D01*
X137949438Y-74778181D01*
X137991895Y-74774000D01*
X139133105Y-74774000D01*
X139175562Y-74778181D01*
X139175562Y-74778181D01*
G37*
G36*
X86274228Y-75381703D02*
X86429100Y-75445853D01*
X86568481Y-75538985D01*
X86687015Y-75657519D01*
X86780147Y-75796900D01*
X86844297Y-75951772D01*
X86877000Y-76116184D01*
X86877000Y-76283816D01*
X86844297Y-76448228D01*
X86780147Y-76603100D01*
X86687015Y-76742481D01*
X86568481Y-76861015D01*
X86429100Y-76954147D01*
X86274228Y-77018297D01*
X86109816Y-77051000D01*
X85942184Y-77051000D01*
X85777772Y-77018297D01*
X85622900Y-76954147D01*
X85483519Y-76861015D01*
X85364985Y-76742481D01*
X85271853Y-76603100D01*
X85207703Y-76448228D01*
X85175000Y-76283816D01*
X85175000Y-76116184D01*
X85207703Y-75951772D01*
X85271853Y-75796900D01*
X85364985Y-75657519D01*
X85483519Y-75538985D01*
X85622900Y-75445853D01*
X85777772Y-75381703D01*
X85942184Y-75349000D01*
X86109816Y-75349000D01*
X86274228Y-75381703D01*
X86274228Y-75381703D01*
G37*
G36*
X81274228Y-75381703D02*
X81429100Y-75445853D01*
X81568481Y-75538985D01*
X81687015Y-75657519D01*
X81780147Y-75796900D01*
X81844297Y-75951772D01*
X81877000Y-76116184D01*
X81877000Y-76283816D01*
X81844297Y-76448228D01*
X81780147Y-76603100D01*
X81687015Y-76742481D01*
X81568481Y-76861015D01*
X81429100Y-76954147D01*
X81274228Y-77018297D01*
X81109816Y-77051000D01*
X80942184Y-77051000D01*
X80777772Y-77018297D01*
X80622900Y-76954147D01*
X80483519Y-76861015D01*
X80364985Y-76742481D01*
X80271853Y-76603100D01*
X80207703Y-76448228D01*
X80175000Y-76283816D01*
X80175000Y-76116184D01*
X80207703Y-75951772D01*
X80271853Y-75796900D01*
X80364985Y-75657519D01*
X80483519Y-75538985D01*
X80622900Y-75445853D01*
X80777772Y-75381703D01*
X80942184Y-75349000D01*
X81109816Y-75349000D01*
X81274228Y-75381703D01*
X81274228Y-75381703D01*
G37*
G36*
X177652000Y-75905000D02*
X168150000Y-75905000D01*
X168150000Y-65003000D01*
X177652000Y-65003000D01*
X177652000Y-75905000D01*
X177652000Y-75905000D01*
G37*
G36*
X125836000Y-75905000D02*
X116334000Y-75905000D01*
X116334000Y-65003000D01*
X125836000Y-65003000D01*
X125836000Y-75905000D01*
X125836000Y-75905000D01*
G37*
G36*
X151424000Y-75886000D02*
X141922000Y-75886000D01*
X141922000Y-64984000D01*
X151424000Y-64984000D01*
X151424000Y-75886000D01*
X151424000Y-75886000D01*
G37*
G36*
X196863562Y-73699181D02*
X196898477Y-73709773D01*
X196930665Y-73726978D01*
X196958873Y-73750127D01*
X196982022Y-73778335D01*
X196999227Y-73810523D01*
X197009819Y-73845438D01*
X197014000Y-73887895D01*
X197014000Y-75029105D01*
X197009819Y-75071562D01*
X196999227Y-75106477D01*
X196982022Y-75138665D01*
X196958873Y-75166873D01*
X196930665Y-75190022D01*
X196898477Y-75207227D01*
X196863562Y-75217819D01*
X196821105Y-75222000D01*
X195354895Y-75222000D01*
X195312438Y-75217819D01*
X195277523Y-75207227D01*
X195245335Y-75190022D01*
X195217127Y-75166873D01*
X195193978Y-75138665D01*
X195176773Y-75106477D01*
X195166181Y-75071562D01*
X195162000Y-75029105D01*
X195162000Y-73887895D01*
X195166181Y-73845438D01*
X195176773Y-73810523D01*
X195193978Y-73778335D01*
X195217127Y-73750127D01*
X195245335Y-73726978D01*
X195277523Y-73709773D01*
X195312438Y-73699181D01*
X195354895Y-73695000D01*
X196821105Y-73695000D01*
X196863562Y-73699181D01*
X196863562Y-73699181D01*
G37*
G36*
X106187562Y-73563181D02*
X106222477Y-73573773D01*
X106254665Y-73590978D01*
X106282873Y-73614127D01*
X106306022Y-73642335D01*
X106323227Y-73674523D01*
X106333819Y-73709438D01*
X106338000Y-73751895D01*
X106338000Y-74893105D01*
X106333819Y-74935562D01*
X106323227Y-74970477D01*
X106306022Y-75002665D01*
X106282873Y-75030873D01*
X106254665Y-75054022D01*
X106222477Y-75071227D01*
X106187562Y-75081819D01*
X106145105Y-75086000D01*
X103778895Y-75086000D01*
X103736438Y-75081819D01*
X103701523Y-75071227D01*
X103669335Y-75054022D01*
X103641127Y-75030873D01*
X103617978Y-75002665D01*
X103600773Y-74970477D01*
X103590181Y-74935562D01*
X103586000Y-74893105D01*
X103586000Y-73751895D01*
X103590181Y-73709438D01*
X103600773Y-73674523D01*
X103617978Y-73642335D01*
X103641127Y-73614127D01*
X103669335Y-73590978D01*
X103701523Y-73573773D01*
X103736438Y-73563181D01*
X103778895Y-73559000D01*
X106145105Y-73559000D01*
X106187562Y-73563181D01*
X106187562Y-73563181D01*
G37*
G36*
X100252562Y-73563181D02*
X100287477Y-73573773D01*
X100319665Y-73590978D01*
X100347873Y-73614127D01*
X100371022Y-73642335D01*
X100388227Y-73674523D01*
X100398819Y-73709438D01*
X100403000Y-73751895D01*
X100403000Y-74893105D01*
X100398819Y-74935562D01*
X100388227Y-74970477D01*
X100371022Y-75002665D01*
X100347873Y-75030873D01*
X100319665Y-75054022D01*
X100287477Y-75071227D01*
X100252562Y-75081819D01*
X100210105Y-75086000D01*
X98743895Y-75086000D01*
X98701438Y-75081819D01*
X98666523Y-75071227D01*
X98634335Y-75054022D01*
X98606127Y-75030873D01*
X98582978Y-75002665D01*
X98565773Y-74970477D01*
X98555181Y-74935562D01*
X98551000Y-74893105D01*
X98551000Y-73751895D01*
X98555181Y-73709438D01*
X98565773Y-73674523D01*
X98582978Y-73642335D01*
X98606127Y-73614127D01*
X98634335Y-73590978D01*
X98666523Y-73573773D01*
X98701438Y-73563181D01*
X98743895Y-73559000D01*
X100210105Y-73559000D01*
X100252562Y-73563181D01*
X100252562Y-73563181D01*
G37*
G36*
X112132562Y-73563181D02*
X112167477Y-73573773D01*
X112199665Y-73590978D01*
X112227873Y-73614127D01*
X112251022Y-73642335D01*
X112268227Y-73674523D01*
X112278819Y-73709438D01*
X112283000Y-73751895D01*
X112283000Y-74893105D01*
X112278819Y-74935562D01*
X112268227Y-74970477D01*
X112251022Y-75002665D01*
X112227873Y-75030873D01*
X112199665Y-75054022D01*
X112167477Y-75071227D01*
X112132562Y-75081819D01*
X112090105Y-75086000D01*
X109723895Y-75086000D01*
X109681438Y-75081819D01*
X109646523Y-75071227D01*
X109614335Y-75054022D01*
X109586127Y-75030873D01*
X109562978Y-75002665D01*
X109545773Y-74970477D01*
X109535181Y-74935562D01*
X109531000Y-74893105D01*
X109531000Y-73751895D01*
X109535181Y-73709438D01*
X109545773Y-73674523D01*
X109562978Y-73642335D01*
X109586127Y-73614127D01*
X109614335Y-73590978D01*
X109646523Y-73573773D01*
X109681438Y-73563181D01*
X109723895Y-73559000D01*
X112090105Y-73559000D01*
X112132562Y-73563181D01*
X112132562Y-73563181D01*
G37*
G36*
X184402000Y-74715000D02*
X179700000Y-74715000D01*
X179700000Y-73813000D01*
X184402000Y-73813000D01*
X184402000Y-74715000D01*
X184402000Y-74715000D01*
G37*
G36*
X132586000Y-74715000D02*
X127884000Y-74715000D01*
X127884000Y-73813000D01*
X132586000Y-73813000D01*
X132586000Y-74715000D01*
X132586000Y-74715000D01*
G37*
G36*
X158174000Y-74696000D02*
X153472000Y-74696000D01*
X153472000Y-73794000D01*
X158174000Y-73794000D01*
X158174000Y-74696000D01*
X158174000Y-74696000D01*
G37*
G36*
X184402000Y-73445000D02*
X179700000Y-73445000D01*
X179700000Y-72543000D01*
X184402000Y-72543000D01*
X184402000Y-73445000D01*
X184402000Y-73445000D01*
G37*
G36*
X132586000Y-73445000D02*
X127884000Y-73445000D01*
X127884000Y-72543000D01*
X132586000Y-72543000D01*
X132586000Y-73445000D01*
X132586000Y-73445000D01*
G37*
G36*
X158174000Y-73426000D02*
X153472000Y-73426000D01*
X153472000Y-72524000D01*
X158174000Y-72524000D01*
X158174000Y-73426000D01*
X158174000Y-73426000D01*
G37*
G36*
X191451000Y-72726000D02*
X189049000Y-72726000D01*
X189049000Y-69124000D01*
X191451000Y-69124000D01*
X191451000Y-72726000D01*
X191451000Y-72726000D01*
G37*
G36*
X184402000Y-72175000D02*
X179700000Y-72175000D01*
X179700000Y-71273000D01*
X184402000Y-71273000D01*
X184402000Y-72175000D01*
X184402000Y-72175000D01*
G37*
G36*
X132586000Y-72175000D02*
X127884000Y-72175000D01*
X127884000Y-71273000D01*
X132586000Y-71273000D01*
X132586000Y-72175000D01*
X132586000Y-72175000D01*
G37*
G36*
X158174000Y-72156000D02*
X153472000Y-72156000D01*
X153472000Y-71254000D01*
X158174000Y-71254000D01*
X158174000Y-72156000D01*
X158174000Y-72156000D01*
G37*
G36*
X106187562Y-70588181D02*
X106222477Y-70598773D01*
X106254665Y-70615978D01*
X106282873Y-70639127D01*
X106306022Y-70667335D01*
X106323227Y-70699523D01*
X106333819Y-70734438D01*
X106338000Y-70776895D01*
X106338000Y-71918105D01*
X106333819Y-71960562D01*
X106323227Y-71995477D01*
X106306022Y-72027665D01*
X106282873Y-72055873D01*
X106254665Y-72079022D01*
X106222477Y-72096227D01*
X106187562Y-72106819D01*
X106145105Y-72111000D01*
X103778895Y-72111000D01*
X103736438Y-72106819D01*
X103701523Y-72096227D01*
X103669335Y-72079022D01*
X103641127Y-72055873D01*
X103617978Y-72027665D01*
X103600773Y-71995477D01*
X103590181Y-71960562D01*
X103586000Y-71918105D01*
X103586000Y-70776895D01*
X103590181Y-70734438D01*
X103600773Y-70699523D01*
X103617978Y-70667335D01*
X103641127Y-70639127D01*
X103669335Y-70615978D01*
X103701523Y-70598773D01*
X103736438Y-70588181D01*
X103778895Y-70584000D01*
X106145105Y-70584000D01*
X106187562Y-70588181D01*
X106187562Y-70588181D01*
G37*
G36*
X112132562Y-70588181D02*
X112167477Y-70598773D01*
X112199665Y-70615978D01*
X112227873Y-70639127D01*
X112251022Y-70667335D01*
X112268227Y-70699523D01*
X112278819Y-70734438D01*
X112283000Y-70776895D01*
X112283000Y-71918105D01*
X112278819Y-71960562D01*
X112268227Y-71995477D01*
X112251022Y-72027665D01*
X112227873Y-72055873D01*
X112199665Y-72079022D01*
X112167477Y-72096227D01*
X112132562Y-72106819D01*
X112090105Y-72111000D01*
X109723895Y-72111000D01*
X109681438Y-72106819D01*
X109646523Y-72096227D01*
X109614335Y-72079022D01*
X109586127Y-72055873D01*
X109562978Y-72027665D01*
X109545773Y-71995477D01*
X109535181Y-71960562D01*
X109531000Y-71918105D01*
X109531000Y-70776895D01*
X109535181Y-70734438D01*
X109545773Y-70699523D01*
X109562978Y-70667335D01*
X109586127Y-70639127D01*
X109614335Y-70615978D01*
X109646523Y-70598773D01*
X109681438Y-70588181D01*
X109723895Y-70584000D01*
X112090105Y-70584000D01*
X112132562Y-70588181D01*
X112132562Y-70588181D01*
G37*
G36*
X100252562Y-70588181D02*
X100287477Y-70598773D01*
X100319665Y-70615978D01*
X100347873Y-70639127D01*
X100371022Y-70667335D01*
X100388227Y-70699523D01*
X100398819Y-70734438D01*
X100403000Y-70776895D01*
X100403000Y-71918105D01*
X100398819Y-71960562D01*
X100388227Y-71995477D01*
X100371022Y-72027665D01*
X100347873Y-72055873D01*
X100319665Y-72079022D01*
X100287477Y-72096227D01*
X100252562Y-72106819D01*
X100210105Y-72111000D01*
X98743895Y-72111000D01*
X98701438Y-72106819D01*
X98666523Y-72096227D01*
X98634335Y-72079022D01*
X98606127Y-72055873D01*
X98582978Y-72027665D01*
X98565773Y-71995477D01*
X98555181Y-71960562D01*
X98551000Y-71918105D01*
X98551000Y-70776895D01*
X98555181Y-70734438D01*
X98565773Y-70699523D01*
X98582978Y-70667335D01*
X98606127Y-70639127D01*
X98634335Y-70615978D01*
X98666523Y-70598773D01*
X98701438Y-70588181D01*
X98743895Y-70584000D01*
X100210105Y-70584000D01*
X100252562Y-70588181D01*
X100252562Y-70588181D01*
G37*
G36*
X139200562Y-69078181D02*
X139235477Y-69088773D01*
X139267665Y-69105978D01*
X139295873Y-69129127D01*
X139319022Y-69157335D01*
X139336227Y-69189523D01*
X139346819Y-69224438D01*
X139351000Y-69266895D01*
X139351000Y-71633105D01*
X139346819Y-71675562D01*
X139336227Y-71710477D01*
X139319022Y-71742665D01*
X139295873Y-71770873D01*
X139267665Y-71794022D01*
X139235477Y-71811227D01*
X139200562Y-71821819D01*
X139158105Y-71826000D01*
X138016895Y-71826000D01*
X137974438Y-71821819D01*
X137939523Y-71811227D01*
X137907335Y-71794022D01*
X137879127Y-71770873D01*
X137855978Y-71742665D01*
X137838773Y-71710477D01*
X137828181Y-71675562D01*
X137824000Y-71633105D01*
X137824000Y-69266895D01*
X137828181Y-69224438D01*
X137838773Y-69189523D01*
X137855978Y-69157335D01*
X137879127Y-69129127D01*
X137907335Y-69105978D01*
X137939523Y-69088773D01*
X137974438Y-69078181D01*
X138016895Y-69074000D01*
X139158105Y-69074000D01*
X139200562Y-69078181D01*
X139200562Y-69078181D01*
G37*
G36*
X136225562Y-69078181D02*
X136260477Y-69088773D01*
X136292665Y-69105978D01*
X136320873Y-69129127D01*
X136344022Y-69157335D01*
X136361227Y-69189523D01*
X136371819Y-69224438D01*
X136376000Y-69266895D01*
X136376000Y-71633105D01*
X136371819Y-71675562D01*
X136361227Y-71710477D01*
X136344022Y-71742665D01*
X136320873Y-71770873D01*
X136292665Y-71794022D01*
X136260477Y-71811227D01*
X136225562Y-71821819D01*
X136183105Y-71826000D01*
X135041895Y-71826000D01*
X134999438Y-71821819D01*
X134964523Y-71811227D01*
X134932335Y-71794022D01*
X134904127Y-71770873D01*
X134880978Y-71742665D01*
X134863773Y-71710477D01*
X134853181Y-71675562D01*
X134849000Y-71633105D01*
X134849000Y-69266895D01*
X134853181Y-69224438D01*
X134863773Y-69189523D01*
X134880978Y-69157335D01*
X134904127Y-69129127D01*
X134932335Y-69105978D01*
X134964523Y-69088773D01*
X134999438Y-69078181D01*
X135041895Y-69074000D01*
X136183105Y-69074000D01*
X136225562Y-69078181D01*
X136225562Y-69078181D01*
G37*
G36*
X207631565Y-68437738D02*
X207822834Y-68516964D01*
X207994976Y-68631986D01*
X208141363Y-68778373D01*
X208256385Y-68950515D01*
X208335611Y-69141784D01*
X208376000Y-69344833D01*
X208376000Y-69551865D01*
X208335611Y-69754914D01*
X208256385Y-69946183D01*
X208141363Y-70118325D01*
X207994976Y-70264712D01*
X207822834Y-70379734D01*
X207631565Y-70458960D01*
X207428516Y-70499349D01*
X207221484Y-70499349D01*
X207018435Y-70458960D01*
X206827166Y-70379734D01*
X206655024Y-70264712D01*
X206508637Y-70118325D01*
X206393615Y-69946183D01*
X206314389Y-69754914D01*
X206274000Y-69551865D01*
X206274000Y-69344833D01*
X206314389Y-69141784D01*
X206393615Y-68950515D01*
X206508637Y-68778373D01*
X206655024Y-68631986D01*
X206827166Y-68516964D01*
X207018435Y-68437738D01*
X207221484Y-68397349D01*
X207428516Y-68397349D01*
X207631565Y-68437738D01*
X207631565Y-68437738D01*
G37*
G36*
X215131565Y-68437738D02*
X215322834Y-68516964D01*
X215494976Y-68631986D01*
X215641363Y-68778373D01*
X215756385Y-68950515D01*
X215835611Y-69141784D01*
X215876000Y-69344833D01*
X215876000Y-69551865D01*
X215835611Y-69754914D01*
X215756385Y-69946183D01*
X215641363Y-70118325D01*
X215494976Y-70264712D01*
X215322834Y-70379734D01*
X215131565Y-70458960D01*
X214928516Y-70499349D01*
X214721484Y-70499349D01*
X214518435Y-70458960D01*
X214327166Y-70379734D01*
X214155024Y-70264712D01*
X214008637Y-70118325D01*
X213893615Y-69946183D01*
X213814389Y-69754914D01*
X213774000Y-69551865D01*
X213774000Y-69344833D01*
X213814389Y-69141784D01*
X213893615Y-68950515D01*
X214008637Y-68778373D01*
X214155024Y-68631986D01*
X214327166Y-68516964D01*
X214518435Y-68437738D01*
X214721484Y-68397349D01*
X214928516Y-68397349D01*
X215131565Y-68437738D01*
X215131565Y-68437738D01*
G37*
G36*
X184402000Y-69635000D02*
X179700000Y-69635000D01*
X179700000Y-68733000D01*
X184402000Y-68733000D01*
X184402000Y-69635000D01*
X184402000Y-69635000D01*
G37*
G36*
X132586000Y-69635000D02*
X127884000Y-69635000D01*
X127884000Y-68733000D01*
X132586000Y-68733000D01*
X132586000Y-69635000D01*
X132586000Y-69635000D01*
G37*
G36*
X158174000Y-69616000D02*
X153472000Y-69616000D01*
X153472000Y-68714000D01*
X158174000Y-68714000D01*
X158174000Y-69616000D01*
X158174000Y-69616000D01*
G37*
G36*
X184402000Y-68365000D02*
X179700000Y-68365000D01*
X179700000Y-67463000D01*
X184402000Y-67463000D01*
X184402000Y-68365000D01*
X184402000Y-68365000D01*
G37*
G36*
X132586000Y-68365000D02*
X127884000Y-68365000D01*
X127884000Y-67463000D01*
X132586000Y-67463000D01*
X132586000Y-68365000D01*
X132586000Y-68365000D01*
G37*
G36*
X158174000Y-68346000D02*
X153472000Y-68346000D01*
X153472000Y-67444000D01*
X158174000Y-67444000D01*
X158174000Y-68346000D01*
X158174000Y-68346000D01*
G37*
G36*
X184402000Y-67095000D02*
X179700000Y-67095000D01*
X179700000Y-66193000D01*
X184402000Y-66193000D01*
X184402000Y-67095000D01*
X184402000Y-67095000D01*
G37*
G36*
X132586000Y-67095000D02*
X127884000Y-67095000D01*
X127884000Y-66193000D01*
X132586000Y-66193000D01*
X132586000Y-67095000D01*
X132586000Y-67095000D01*
G37*
G36*
X158174000Y-67076000D02*
X153472000Y-67076000D01*
X153472000Y-66174000D01*
X158174000Y-66174000D01*
X158174000Y-67076000D01*
X158174000Y-67076000D01*
G37*
G36*
X74477527Y-62838736D02*
X74577410Y-62858604D01*
X74859674Y-62975521D01*
X75113705Y-63145259D01*
X75329741Y-63361295D01*
X75499479Y-63615326D01*
X75616396Y-63897590D01*
X75616396Y-63897591D01*
X75669493Y-64164523D01*
X75676000Y-64197240D01*
X75676000Y-64502760D01*
X75616396Y-64802410D01*
X75499479Y-65084674D01*
X75329741Y-65338705D01*
X75113705Y-65554741D01*
X74859674Y-65724479D01*
X74577410Y-65841396D01*
X74477527Y-65861264D01*
X74277762Y-65901000D01*
X73972238Y-65901000D01*
X73772473Y-65861264D01*
X73672590Y-65841396D01*
X73390326Y-65724479D01*
X73136295Y-65554741D01*
X72920259Y-65338705D01*
X72750521Y-65084674D01*
X72633604Y-64802410D01*
X72574000Y-64502760D01*
X72574000Y-64197240D01*
X72580508Y-64164523D01*
X72633604Y-63897591D01*
X72633604Y-63897590D01*
X72750521Y-63615326D01*
X72920259Y-63361295D01*
X73136295Y-63145259D01*
X73390326Y-62975521D01*
X73672590Y-62858604D01*
X73772473Y-62838736D01*
X73972238Y-62799000D01*
X74277762Y-62799000D01*
X74477527Y-62838736D01*
X74477527Y-62838736D01*
G37*
G36*
X93202527Y-62838736D02*
X93302410Y-62858604D01*
X93584674Y-62975521D01*
X93838705Y-63145259D01*
X94054741Y-63361295D01*
X94224479Y-63615326D01*
X94341396Y-63897590D01*
X94341396Y-63897591D01*
X94394493Y-64164523D01*
X94401000Y-64197240D01*
X94401000Y-64502760D01*
X94341396Y-64802410D01*
X94224479Y-65084674D01*
X94054741Y-65338705D01*
X93838705Y-65554741D01*
X93584674Y-65724479D01*
X93302410Y-65841396D01*
X93202527Y-65861264D01*
X93002762Y-65901000D01*
X92697238Y-65901000D01*
X92497473Y-65861264D01*
X92397590Y-65841396D01*
X92115326Y-65724479D01*
X91861295Y-65554741D01*
X91645259Y-65338705D01*
X91475521Y-65084674D01*
X91358604Y-64802410D01*
X91299000Y-64502760D01*
X91299000Y-64197240D01*
X91305508Y-64164523D01*
X91358604Y-63897591D01*
X91358604Y-63897590D01*
X91475521Y-63615326D01*
X91645259Y-63361295D01*
X91861295Y-63145259D01*
X92115326Y-62975521D01*
X92397590Y-62858604D01*
X92497473Y-62838736D01*
X92697238Y-62799000D01*
X93002762Y-62799000D01*
X93202527Y-62838736D01*
X93202527Y-62838736D01*
G37*
G36*
X89402527Y-62838736D02*
X89502410Y-62858604D01*
X89784674Y-62975521D01*
X90038705Y-63145259D01*
X90254741Y-63361295D01*
X90424479Y-63615326D01*
X90541396Y-63897590D01*
X90541396Y-63897591D01*
X90594493Y-64164523D01*
X90601000Y-64197240D01*
X90601000Y-64502760D01*
X90541396Y-64802410D01*
X90424479Y-65084674D01*
X90254741Y-65338705D01*
X90038705Y-65554741D01*
X89784674Y-65724479D01*
X89502410Y-65841396D01*
X89402527Y-65861264D01*
X89202762Y-65901000D01*
X88897238Y-65901000D01*
X88697473Y-65861264D01*
X88597590Y-65841396D01*
X88315326Y-65724479D01*
X88061295Y-65554741D01*
X87845259Y-65338705D01*
X87675521Y-65084674D01*
X87558604Y-64802410D01*
X87499000Y-64502760D01*
X87499000Y-64197240D01*
X87505508Y-64164523D01*
X87558604Y-63897591D01*
X87558604Y-63897590D01*
X87675521Y-63615326D01*
X87845259Y-63361295D01*
X88061295Y-63145259D01*
X88315326Y-62975521D01*
X88597590Y-62858604D01*
X88697473Y-62838736D01*
X88897238Y-62799000D01*
X89202762Y-62799000D01*
X89402527Y-62838736D01*
X89402527Y-62838736D01*
G37*
G36*
X136225562Y-64053181D02*
X136260477Y-64063773D01*
X136292665Y-64080978D01*
X136320873Y-64104127D01*
X136344022Y-64132335D01*
X136361227Y-64164523D01*
X136371819Y-64199438D01*
X136376000Y-64241895D01*
X136376000Y-65708105D01*
X136371819Y-65750562D01*
X136361227Y-65785477D01*
X136344022Y-65817665D01*
X136320873Y-65845873D01*
X136292665Y-65869022D01*
X136260477Y-65886227D01*
X136225562Y-65896819D01*
X136183105Y-65901000D01*
X135041895Y-65901000D01*
X134999438Y-65896819D01*
X134964523Y-65886227D01*
X134932335Y-65869022D01*
X134904127Y-65845873D01*
X134880978Y-65817665D01*
X134863773Y-65785477D01*
X134853181Y-65750562D01*
X134849000Y-65708105D01*
X134849000Y-64241895D01*
X134853181Y-64199438D01*
X134863773Y-64164523D01*
X134880978Y-64132335D01*
X134904127Y-64104127D01*
X134932335Y-64080978D01*
X134964523Y-64063773D01*
X134999438Y-64053181D01*
X135041895Y-64049000D01*
X136183105Y-64049000D01*
X136225562Y-64053181D01*
X136225562Y-64053181D01*
G37*
G36*
X70677527Y-62838736D02*
X70777410Y-62858604D01*
X71059674Y-62975521D01*
X71313705Y-63145259D01*
X71529741Y-63361295D01*
X71699479Y-63615326D01*
X71816396Y-63897590D01*
X71816396Y-63897591D01*
X71869493Y-64164523D01*
X71876000Y-64197240D01*
X71876000Y-64502760D01*
X71816396Y-64802410D01*
X71699479Y-65084674D01*
X71529741Y-65338705D01*
X71313705Y-65554741D01*
X71059674Y-65724479D01*
X70777410Y-65841396D01*
X70677527Y-65861264D01*
X70477762Y-65901000D01*
X70172238Y-65901000D01*
X69972473Y-65861264D01*
X69872590Y-65841396D01*
X69590326Y-65724479D01*
X69336295Y-65554741D01*
X69120259Y-65338705D01*
X68950521Y-65084674D01*
X68833604Y-64802410D01*
X68774000Y-64502760D01*
X68774000Y-64197240D01*
X68780508Y-64164523D01*
X68833604Y-63897591D01*
X68833604Y-63897590D01*
X68950521Y-63615326D01*
X69120259Y-63361295D01*
X69336295Y-63145259D01*
X69590326Y-62975521D01*
X69872590Y-62858604D01*
X69972473Y-62838736D01*
X70172238Y-62799000D01*
X70477762Y-62799000D01*
X70677527Y-62838736D01*
X70677527Y-62838736D01*
G37*
G36*
X139200562Y-64053181D02*
X139235477Y-64063773D01*
X139267665Y-64080978D01*
X139295873Y-64104127D01*
X139319022Y-64132335D01*
X139336227Y-64164523D01*
X139346819Y-64199438D01*
X139351000Y-64241895D01*
X139351000Y-65708105D01*
X139346819Y-65750562D01*
X139336227Y-65785477D01*
X139319022Y-65817665D01*
X139295873Y-65845873D01*
X139267665Y-65869022D01*
X139235477Y-65886227D01*
X139200562Y-65896819D01*
X139158105Y-65901000D01*
X138016895Y-65901000D01*
X137974438Y-65896819D01*
X137939523Y-65886227D01*
X137907335Y-65869022D01*
X137879127Y-65845873D01*
X137855978Y-65817665D01*
X137838773Y-65785477D01*
X137828181Y-65750562D01*
X137824000Y-65708105D01*
X137824000Y-64241895D01*
X137828181Y-64199438D01*
X137838773Y-64164523D01*
X137855978Y-64132335D01*
X137879127Y-64104127D01*
X137907335Y-64080978D01*
X137939523Y-64063773D01*
X137974438Y-64053181D01*
X138016895Y-64049000D01*
X139158105Y-64049000D01*
X139200562Y-64053181D01*
X139200562Y-64053181D01*
G37*
G36*
X200177850Y-54902797D02*
X200177852Y-54902798D01*
X200177853Y-54902798D01*
X200359430Y-54978010D01*
X200669404Y-55106405D01*
X201111790Y-55401998D01*
X201488002Y-55778210D01*
X201783595Y-56220596D01*
X201987203Y-56712150D01*
X202091000Y-57233973D01*
X202091000Y-57766027D01*
X201987203Y-58287850D01*
X201783595Y-58779404D01*
X201488002Y-59221790D01*
X201111790Y-59598002D01*
X200669404Y-59893595D01*
X200359430Y-60021990D01*
X200177853Y-60097202D01*
X200177852Y-60097202D01*
X200177850Y-60097203D01*
X199656027Y-60201000D01*
X199123973Y-60201000D01*
X198602150Y-60097203D01*
X198602148Y-60097202D01*
X198602147Y-60097202D01*
X198420570Y-60021990D01*
X198110596Y-59893595D01*
X197668210Y-59598002D01*
X197291998Y-59221790D01*
X196996405Y-58779404D01*
X196792797Y-58287850D01*
X196689000Y-57766027D01*
X196689000Y-57233973D01*
X196792797Y-56712150D01*
X196996405Y-56220596D01*
X197291998Y-55778210D01*
X197668210Y-55401998D01*
X198110596Y-55106405D01*
X198420570Y-54978010D01*
X198602147Y-54902798D01*
X198602148Y-54902798D01*
X198602150Y-54902797D01*
X199123973Y-54799000D01*
X199656027Y-54799000D01*
X200177850Y-54902797D01*
X200177850Y-54902797D01*
G37*
G36*
X108737850Y-54902797D02*
X108737852Y-54902798D01*
X108737853Y-54902798D01*
X108919430Y-54978010D01*
X109229404Y-55106405D01*
X109671790Y-55401998D01*
X110048002Y-55778210D01*
X110343595Y-56220596D01*
X110547203Y-56712150D01*
X110651000Y-57233973D01*
X110651000Y-57766027D01*
X110547203Y-58287850D01*
X110343595Y-58779404D01*
X110048002Y-59221790D01*
X109671790Y-59598002D01*
X109229404Y-59893595D01*
X108919430Y-60021990D01*
X108737853Y-60097202D01*
X108737852Y-60097202D01*
X108737850Y-60097203D01*
X108216027Y-60201000D01*
X107683973Y-60201000D01*
X107162150Y-60097203D01*
X107162148Y-60097202D01*
X107162147Y-60097202D01*
X106980570Y-60021990D01*
X106670596Y-59893595D01*
X106228210Y-59598002D01*
X105851998Y-59221790D01*
X105556405Y-58779404D01*
X105352797Y-58287850D01*
X105249000Y-57766027D01*
X105249000Y-57233973D01*
X105352797Y-56712150D01*
X105556405Y-56220596D01*
X105851998Y-55778210D01*
X106228210Y-55401998D01*
X106670596Y-55106405D01*
X106980570Y-54978010D01*
X107162147Y-54902798D01*
X107162148Y-54902798D01*
X107162150Y-54902797D01*
X107683973Y-54799000D01*
X108216027Y-54799000D01*
X108737850Y-54902797D01*
X108737850Y-54902797D01*
G37*
G36*
X93202527Y-50338736D02*
X93302410Y-50358604D01*
X93584674Y-50475521D01*
X93838705Y-50645259D01*
X94054741Y-50861295D01*
X94224479Y-51115326D01*
X94341396Y-51397590D01*
X94341396Y-51397591D01*
X94382491Y-51604186D01*
X94401000Y-51697240D01*
X94401000Y-52002760D01*
X94341396Y-52302410D01*
X94224479Y-52584674D01*
X94054741Y-52838705D01*
X93838705Y-53054741D01*
X93584674Y-53224479D01*
X93302410Y-53341396D01*
X93202527Y-53361264D01*
X93002762Y-53401000D01*
X92697238Y-53401000D01*
X92497473Y-53361264D01*
X92397590Y-53341396D01*
X92115326Y-53224479D01*
X91861295Y-53054741D01*
X91645259Y-52838705D01*
X91475521Y-52584674D01*
X91358604Y-52302410D01*
X91299000Y-52002760D01*
X91299000Y-51697240D01*
X91317510Y-51604186D01*
X91358604Y-51397591D01*
X91358604Y-51397590D01*
X91475521Y-51115326D01*
X91645259Y-50861295D01*
X91861295Y-50645259D01*
X92115326Y-50475521D01*
X92397590Y-50358604D01*
X92497473Y-50338736D01*
X92697238Y-50299000D01*
X93002762Y-50299000D01*
X93202527Y-50338736D01*
X93202527Y-50338736D01*
G37*
G36*
X89402527Y-50338736D02*
X89502410Y-50358604D01*
X89784674Y-50475521D01*
X90038705Y-50645259D01*
X90254741Y-50861295D01*
X90424479Y-51115326D01*
X90541396Y-51397590D01*
X90541396Y-51397591D01*
X90582491Y-51604186D01*
X90601000Y-51697240D01*
X90601000Y-52002760D01*
X90541396Y-52302410D01*
X90424479Y-52584674D01*
X90254741Y-52838705D01*
X90038705Y-53054741D01*
X89784674Y-53224479D01*
X89502410Y-53341396D01*
X89402527Y-53361264D01*
X89202762Y-53401000D01*
X88897238Y-53401000D01*
X88697473Y-53361264D01*
X88597590Y-53341396D01*
X88315326Y-53224479D01*
X88061295Y-53054741D01*
X87845259Y-52838705D01*
X87675521Y-52584674D01*
X87558604Y-52302410D01*
X87499000Y-52002760D01*
X87499000Y-51697240D01*
X87517510Y-51604186D01*
X87558604Y-51397591D01*
X87558604Y-51397590D01*
X87675521Y-51115326D01*
X87845259Y-50861295D01*
X88061295Y-50645259D01*
X88315326Y-50475521D01*
X88597590Y-50358604D01*
X88697473Y-50338736D01*
X88897238Y-50299000D01*
X89202762Y-50299000D01*
X89402527Y-50338736D01*
X89402527Y-50338736D01*
G37*
G36*
X74477527Y-50338736D02*
X74577410Y-50358604D01*
X74859674Y-50475521D01*
X75113705Y-50645259D01*
X75329741Y-50861295D01*
X75499479Y-51115326D01*
X75616396Y-51397590D01*
X75616396Y-51397591D01*
X75657491Y-51604186D01*
X75676000Y-51697240D01*
X75676000Y-52002760D01*
X75616396Y-52302410D01*
X75499479Y-52584674D01*
X75329741Y-52838705D01*
X75113705Y-53054741D01*
X74859674Y-53224479D01*
X74577410Y-53341396D01*
X74477527Y-53361264D01*
X74277762Y-53401000D01*
X73972238Y-53401000D01*
X73772473Y-53361264D01*
X73672590Y-53341396D01*
X73390326Y-53224479D01*
X73136295Y-53054741D01*
X72920259Y-52838705D01*
X72750521Y-52584674D01*
X72633604Y-52302410D01*
X72574000Y-52002760D01*
X72574000Y-51697240D01*
X72592510Y-51604186D01*
X72633604Y-51397591D01*
X72633604Y-51397590D01*
X72750521Y-51115326D01*
X72920259Y-50861295D01*
X73136295Y-50645259D01*
X73390326Y-50475521D01*
X73672590Y-50358604D01*
X73772473Y-50338736D01*
X73972238Y-50299000D01*
X74277762Y-50299000D01*
X74477527Y-50338736D01*
X74477527Y-50338736D01*
G37*
G36*
X70677527Y-50338736D02*
X70777410Y-50358604D01*
X71059674Y-50475521D01*
X71313705Y-50645259D01*
X71529741Y-50861295D01*
X71699479Y-51115326D01*
X71816396Y-51397590D01*
X71816396Y-51397591D01*
X71857491Y-51604186D01*
X71876000Y-51697240D01*
X71876000Y-52002760D01*
X71816396Y-52302410D01*
X71699479Y-52584674D01*
X71529741Y-52838705D01*
X71313705Y-53054741D01*
X71059674Y-53224479D01*
X70777410Y-53341396D01*
X70677527Y-53361264D01*
X70477762Y-53401000D01*
X70172238Y-53401000D01*
X69972473Y-53361264D01*
X69872590Y-53341396D01*
X69590326Y-53224479D01*
X69336295Y-53054741D01*
X69120259Y-52838705D01*
X68950521Y-52584674D01*
X68833604Y-52302410D01*
X68774000Y-52002760D01*
X68774000Y-51697240D01*
X68792510Y-51604186D01*
X68833604Y-51397591D01*
X68833604Y-51397590D01*
X68950521Y-51115326D01*
X69120259Y-50861295D01*
X69336295Y-50645259D01*
X69590326Y-50475521D01*
X69872590Y-50358604D01*
X69972473Y-50338736D01*
X70172238Y-50299000D01*
X70477762Y-50299000D01*
X70677527Y-50338736D01*
X70677527Y-50338736D01*
G37*
G36*
X172774821Y-51708103D02*
X172808982Y-51718466D01*
X172840464Y-51735293D01*
X172868060Y-51757940D01*
X172890707Y-51785536D01*
X172907534Y-51817018D01*
X172917897Y-51851179D01*
X172922000Y-51892842D01*
X172922000Y-53142158D01*
X172917897Y-53183821D01*
X172907534Y-53217982D01*
X172890707Y-53249464D01*
X172868060Y-53277060D01*
X172840464Y-53299707D01*
X172808982Y-53316534D01*
X172774821Y-53326897D01*
X172733158Y-53331000D01*
X169658842Y-53331000D01*
X169617179Y-53326897D01*
X169583018Y-53316534D01*
X169551536Y-53299707D01*
X169523940Y-53277060D01*
X169501293Y-53249464D01*
X169484466Y-53217982D01*
X169474103Y-53183821D01*
X169470000Y-53142158D01*
X169470000Y-51892842D01*
X169474103Y-51851179D01*
X169484466Y-51817018D01*
X169501293Y-51785536D01*
X169523940Y-51757940D01*
X169551536Y-51735293D01*
X169583018Y-51718466D01*
X169617179Y-51708103D01*
X169658842Y-51704000D01*
X172733158Y-51704000D01*
X172774821Y-51708103D01*
X172774821Y-51708103D01*
G37*
G36*
X147628821Y-51393603D02*
X147662982Y-51403966D01*
X147694464Y-51420793D01*
X147722060Y-51443440D01*
X147744707Y-51471036D01*
X147761534Y-51502518D01*
X147771897Y-51536679D01*
X147776000Y-51578342D01*
X147776000Y-52827658D01*
X147771897Y-52869321D01*
X147761534Y-52903482D01*
X147744707Y-52934964D01*
X147722060Y-52962560D01*
X147694464Y-52985207D01*
X147662982Y-53002034D01*
X147628821Y-53012397D01*
X147587158Y-53016500D01*
X144512842Y-53016500D01*
X144471179Y-53012397D01*
X144437018Y-53002034D01*
X144405536Y-52985207D01*
X144377940Y-52962560D01*
X144355293Y-52934964D01*
X144338466Y-52903482D01*
X144328103Y-52869321D01*
X144324000Y-52827658D01*
X144324000Y-51578342D01*
X144328103Y-51536679D01*
X144338466Y-51502518D01*
X144355293Y-51471036D01*
X144377940Y-51443440D01*
X144405536Y-51420793D01*
X144437018Y-51403966D01*
X144471179Y-51393603D01*
X144512842Y-51389500D01*
X147587158Y-51389500D01*
X147628821Y-51393603D01*
X147628821Y-51393603D01*
G37*
G36*
X122228821Y-51393603D02*
X122262982Y-51403966D01*
X122294464Y-51420793D01*
X122322060Y-51443440D01*
X122344707Y-51471036D01*
X122361534Y-51502518D01*
X122371897Y-51536679D01*
X122376000Y-51578342D01*
X122376000Y-52827658D01*
X122371897Y-52869321D01*
X122361534Y-52903482D01*
X122344707Y-52934964D01*
X122322060Y-52962560D01*
X122294464Y-52985207D01*
X122262982Y-53002034D01*
X122228821Y-53012397D01*
X122187158Y-53016500D01*
X119112842Y-53016500D01*
X119071179Y-53012397D01*
X119037018Y-53002034D01*
X119005536Y-52985207D01*
X118977940Y-52962560D01*
X118955293Y-52934964D01*
X118938466Y-52903482D01*
X118928103Y-52869321D01*
X118924000Y-52827658D01*
X118924000Y-51578342D01*
X118928103Y-51536679D01*
X118938466Y-51502518D01*
X118955293Y-51471036D01*
X118977940Y-51443440D01*
X119005536Y-51420793D01*
X119037018Y-51403966D01*
X119071179Y-51393603D01*
X119112842Y-51389500D01*
X122187158Y-51389500D01*
X122228821Y-51393603D01*
X122228821Y-51393603D01*
G37*
G36*
X172774821Y-45733103D02*
X172808982Y-45743466D01*
X172840464Y-45760293D01*
X172868060Y-45782940D01*
X172890707Y-45810536D01*
X172907534Y-45842018D01*
X172917897Y-45876179D01*
X172922000Y-45917842D01*
X172922000Y-47167158D01*
X172917897Y-47208821D01*
X172907534Y-47242982D01*
X172890707Y-47274464D01*
X172868060Y-47302060D01*
X172840464Y-47324707D01*
X172808982Y-47341534D01*
X172774821Y-47351897D01*
X172733158Y-47356000D01*
X169658842Y-47356000D01*
X169617179Y-47351897D01*
X169583018Y-47341534D01*
X169551536Y-47324707D01*
X169523940Y-47302060D01*
X169501293Y-47274464D01*
X169484466Y-47242982D01*
X169474103Y-47208821D01*
X169470000Y-47167158D01*
X169470000Y-45917842D01*
X169474103Y-45876179D01*
X169484466Y-45842018D01*
X169501293Y-45810536D01*
X169523940Y-45782940D01*
X169551536Y-45760293D01*
X169583018Y-45743466D01*
X169617179Y-45733103D01*
X169658842Y-45729000D01*
X172733158Y-45729000D01*
X172774821Y-45733103D01*
X172774821Y-45733103D01*
G37*
G36*
X147628821Y-45418603D02*
X147662982Y-45428966D01*
X147694464Y-45445793D01*
X147722060Y-45468440D01*
X147744707Y-45496036D01*
X147761534Y-45527518D01*
X147771897Y-45561679D01*
X147776000Y-45603342D01*
X147776000Y-46852658D01*
X147771897Y-46894321D01*
X147761534Y-46928482D01*
X147744707Y-46959964D01*
X147722060Y-46987560D01*
X147694464Y-47010207D01*
X147662982Y-47027034D01*
X147628821Y-47037397D01*
X147587158Y-47041500D01*
X144512842Y-47041500D01*
X144471179Y-47037397D01*
X144437018Y-47027034D01*
X144405536Y-47010207D01*
X144377940Y-46987560D01*
X144355293Y-46959964D01*
X144338466Y-46928482D01*
X144328103Y-46894321D01*
X144324000Y-46852658D01*
X144324000Y-45603342D01*
X144328103Y-45561679D01*
X144338466Y-45527518D01*
X144355293Y-45496036D01*
X144377940Y-45468440D01*
X144405536Y-45445793D01*
X144437018Y-45428966D01*
X144471179Y-45418603D01*
X144512842Y-45414500D01*
X147587158Y-45414500D01*
X147628821Y-45418603D01*
X147628821Y-45418603D01*
G37*
G36*
X122228821Y-45418603D02*
X122262982Y-45428966D01*
X122294464Y-45445793D01*
X122322060Y-45468440D01*
X122344707Y-45496036D01*
X122361534Y-45527518D01*
X122371897Y-45561679D01*
X122376000Y-45603342D01*
X122376000Y-46852658D01*
X122371897Y-46894321D01*
X122361534Y-46928482D01*
X122344707Y-46959964D01*
X122322060Y-46987560D01*
X122294464Y-47010207D01*
X122262982Y-47027034D01*
X122228821Y-47037397D01*
X122187158Y-47041500D01*
X119112842Y-47041500D01*
X119071179Y-47037397D01*
X119037018Y-47027034D01*
X119005536Y-47010207D01*
X118977940Y-46987560D01*
X118955293Y-46959964D01*
X118938466Y-46928482D01*
X118928103Y-46894321D01*
X118924000Y-46852658D01*
X118924000Y-45603342D01*
X118928103Y-45561679D01*
X118938466Y-45527518D01*
X118955293Y-45496036D01*
X118977940Y-45468440D01*
X119005536Y-45445793D01*
X119037018Y-45428966D01*
X119071179Y-45418603D01*
X119112842Y-45414500D01*
X122187158Y-45414500D01*
X122228821Y-45418603D01*
X122228821Y-45418603D01*
G37*
G36*
X156689527Y-43368736D02*
X156789410Y-43388604D01*
X157071674Y-43505521D01*
X157325705Y-43675259D01*
X157541741Y-43891295D01*
X157711479Y-44145326D01*
X157828396Y-44427590D01*
X157888000Y-44727240D01*
X157888000Y-45032760D01*
X157828396Y-45332410D01*
X157711479Y-45614674D01*
X157541741Y-45868705D01*
X157325705Y-46084741D01*
X157071674Y-46254479D01*
X156789410Y-46371396D01*
X156689527Y-46391264D01*
X156489762Y-46431000D01*
X156184238Y-46431000D01*
X155984473Y-46391264D01*
X155884590Y-46371396D01*
X155602326Y-46254479D01*
X155348295Y-46084741D01*
X155132259Y-45868705D01*
X154962521Y-45614674D01*
X154845604Y-45332410D01*
X154786000Y-45032760D01*
X154786000Y-44727240D01*
X154845604Y-44427590D01*
X154962521Y-44145326D01*
X155132259Y-43891295D01*
X155348295Y-43675259D01*
X155602326Y-43505521D01*
X155884590Y-43388604D01*
X155984473Y-43368736D01*
X156184238Y-43329000D01*
X156489762Y-43329000D01*
X156689527Y-43368736D01*
X156689527Y-43368736D01*
G37*
G36*
X181327527Y-43368736D02*
X181427410Y-43388604D01*
X181709674Y-43505521D01*
X181963705Y-43675259D01*
X182179741Y-43891295D01*
X182349479Y-44145326D01*
X182466396Y-44427590D01*
X182526000Y-44727240D01*
X182526000Y-45032760D01*
X182466396Y-45332410D01*
X182349479Y-45614674D01*
X182179741Y-45868705D01*
X181963705Y-46084741D01*
X181709674Y-46254479D01*
X181427410Y-46371396D01*
X181327527Y-46391264D01*
X181127762Y-46431000D01*
X180822238Y-46431000D01*
X180622473Y-46391264D01*
X180522590Y-46371396D01*
X180240326Y-46254479D01*
X179986295Y-46084741D01*
X179770259Y-45868705D01*
X179600521Y-45614674D01*
X179483604Y-45332410D01*
X179424000Y-45032760D01*
X179424000Y-44727240D01*
X179483604Y-44427590D01*
X179600521Y-44145326D01*
X179770259Y-43891295D01*
X179986295Y-43675259D01*
X180240326Y-43505521D01*
X180522590Y-43388604D01*
X180622473Y-43368736D01*
X180822238Y-43329000D01*
X181127762Y-43329000D01*
X181327527Y-43368736D01*
X181327527Y-43368736D01*
G37*
G36*
X185327527Y-43368736D02*
X185427410Y-43388604D01*
X185709674Y-43505521D01*
X185963705Y-43675259D01*
X186179741Y-43891295D01*
X186349479Y-44145326D01*
X186466396Y-44427590D01*
X186526000Y-44727240D01*
X186526000Y-45032760D01*
X186466396Y-45332410D01*
X186349479Y-45614674D01*
X186179741Y-45868705D01*
X185963705Y-46084741D01*
X185709674Y-46254479D01*
X185427410Y-46371396D01*
X185327527Y-46391264D01*
X185127762Y-46431000D01*
X184822238Y-46431000D01*
X184622473Y-46391264D01*
X184522590Y-46371396D01*
X184240326Y-46254479D01*
X183986295Y-46084741D01*
X183770259Y-45868705D01*
X183600521Y-45614674D01*
X183483604Y-45332410D01*
X183424000Y-45032760D01*
X183424000Y-44727240D01*
X183483604Y-44427590D01*
X183600521Y-44145326D01*
X183770259Y-43891295D01*
X183986295Y-43675259D01*
X184240326Y-43505521D01*
X184522590Y-43388604D01*
X184622473Y-43368736D01*
X184822238Y-43329000D01*
X185127762Y-43329000D01*
X185327527Y-43368736D01*
X185327527Y-43368736D01*
G37*
G36*
X160689527Y-43368736D02*
X160789410Y-43388604D01*
X161071674Y-43505521D01*
X161325705Y-43675259D01*
X161541741Y-43891295D01*
X161711479Y-44145326D01*
X161828396Y-44427590D01*
X161888000Y-44727240D01*
X161888000Y-45032760D01*
X161828396Y-45332410D01*
X161711479Y-45614674D01*
X161541741Y-45868705D01*
X161325705Y-46084741D01*
X161071674Y-46254479D01*
X160789410Y-46371396D01*
X160689527Y-46391264D01*
X160489762Y-46431000D01*
X160184238Y-46431000D01*
X159984473Y-46391264D01*
X159884590Y-46371396D01*
X159602326Y-46254479D01*
X159348295Y-46084741D01*
X159132259Y-45868705D01*
X158962521Y-45614674D01*
X158845604Y-45332410D01*
X158786000Y-45032760D01*
X158786000Y-44727240D01*
X158845604Y-44427590D01*
X158962521Y-44145326D01*
X159132259Y-43891295D01*
X159348295Y-43675259D01*
X159602326Y-43505521D01*
X159884590Y-43388604D01*
X159984473Y-43368736D01*
X160184238Y-43329000D01*
X160489762Y-43329000D01*
X160689527Y-43368736D01*
X160689527Y-43368736D01*
G37*
G36*
X131162527Y-43368736D02*
X131262410Y-43388604D01*
X131544674Y-43505521D01*
X131798705Y-43675259D01*
X132014741Y-43891295D01*
X132184479Y-44145326D01*
X132301396Y-44427590D01*
X132361000Y-44727240D01*
X132361000Y-45032760D01*
X132301396Y-45332410D01*
X132184479Y-45614674D01*
X132014741Y-45868705D01*
X131798705Y-46084741D01*
X131544674Y-46254479D01*
X131262410Y-46371396D01*
X131162527Y-46391264D01*
X130962762Y-46431000D01*
X130657238Y-46431000D01*
X130457473Y-46391264D01*
X130357590Y-46371396D01*
X130075326Y-46254479D01*
X129821295Y-46084741D01*
X129605259Y-45868705D01*
X129435521Y-45614674D01*
X129318604Y-45332410D01*
X129259000Y-45032760D01*
X129259000Y-44727240D01*
X129318604Y-44427590D01*
X129435521Y-44145326D01*
X129605259Y-43891295D01*
X129821295Y-43675259D01*
X130075326Y-43505521D01*
X130357590Y-43388604D01*
X130457473Y-43368736D01*
X130657238Y-43329000D01*
X130962762Y-43329000D01*
X131162527Y-43368736D01*
X131162527Y-43368736D01*
G37*
G36*
X135162527Y-43368736D02*
X135262410Y-43388604D01*
X135544674Y-43505521D01*
X135798705Y-43675259D01*
X136014741Y-43891295D01*
X136184479Y-44145326D01*
X136301396Y-44427590D01*
X136361000Y-44727240D01*
X136361000Y-45032760D01*
X136301396Y-45332410D01*
X136184479Y-45614674D01*
X136014741Y-45868705D01*
X135798705Y-46084741D01*
X135544674Y-46254479D01*
X135262410Y-46371396D01*
X135162527Y-46391264D01*
X134962762Y-46431000D01*
X134657238Y-46431000D01*
X134457473Y-46391264D01*
X134357590Y-46371396D01*
X134075326Y-46254479D01*
X133821295Y-46084741D01*
X133605259Y-45868705D01*
X133435521Y-45614674D01*
X133318604Y-45332410D01*
X133259000Y-45032760D01*
X133259000Y-44727240D01*
X133318604Y-44427590D01*
X133435521Y-44145326D01*
X133605259Y-43891295D01*
X133821295Y-43675259D01*
X134075326Y-43505521D01*
X134357590Y-43388604D01*
X134457473Y-43368736D01*
X134657238Y-43329000D01*
X134962762Y-43329000D01*
X135162527Y-43368736D01*
X135162527Y-43368736D01*
G37*
M02*
