G04 #@! TF.GenerationSoftware,KiCad,Pcbnew,5.0.2+dfsg1-1*
G04 #@! TF.CreationDate,2019-10-25T16:48:50-05:00*
G04 #@! TF.ProjectId,bldc_v1,626c6463-5f76-4312-9e6b-696361645f70,rev?*
G04 #@! TF.SameCoordinates,Original*
G04 #@! TF.FileFunction,Soldermask,Bot*
G04 #@! TF.FilePolarity,Negative*
%FSLAX46Y46*%
G04 Gerber Fmt 4.6, Leading zero omitted, Abs format (unit mm)*
G04 Created by KiCad (PCBNEW 5.0.2+dfsg1-1) date Fri 25 Oct 2019 04:48:50 PM CDT*
%MOMM*%
%LPD*%
G01*
G04 APERTURE LIST*
%ADD10C,0.100000*%
G04 APERTURE END LIST*
D10*
G36*
X200177850Y-126022797D02*
X200177852Y-126022798D01*
X200177853Y-126022798D01*
X200359430Y-126098010D01*
X200669404Y-126226405D01*
X201111790Y-126521998D01*
X201488002Y-126898210D01*
X201783595Y-127340596D01*
X201987203Y-127832150D01*
X202091000Y-128353973D01*
X202091000Y-128886027D01*
X201987203Y-129407850D01*
X201783595Y-129899404D01*
X201488002Y-130341790D01*
X201111790Y-130718002D01*
X200669404Y-131013595D01*
X200359430Y-131141990D01*
X200177853Y-131217202D01*
X200177852Y-131217202D01*
X200177850Y-131217203D01*
X199656027Y-131321000D01*
X199123973Y-131321000D01*
X198602150Y-131217203D01*
X198602148Y-131217202D01*
X198602147Y-131217202D01*
X198420570Y-131141990D01*
X198110596Y-131013595D01*
X197668210Y-130718002D01*
X197291998Y-130341790D01*
X196996405Y-129899404D01*
X196792797Y-129407850D01*
X196689000Y-128886027D01*
X196689000Y-128353973D01*
X196792797Y-127832150D01*
X196996405Y-127340596D01*
X197291998Y-126898210D01*
X197668210Y-126521998D01*
X198110596Y-126226405D01*
X198420570Y-126098010D01*
X198602147Y-126022798D01*
X198602148Y-126022798D01*
X198602150Y-126022797D01*
X199123973Y-125919000D01*
X199656027Y-125919000D01*
X200177850Y-126022797D01*
X200177850Y-126022797D01*
G37*
G36*
X108737850Y-126022797D02*
X108737852Y-126022798D01*
X108737853Y-126022798D01*
X108919430Y-126098010D01*
X109229404Y-126226405D01*
X109671790Y-126521998D01*
X110048002Y-126898210D01*
X110343595Y-127340596D01*
X110547203Y-127832150D01*
X110651000Y-128353973D01*
X110651000Y-128886027D01*
X110547203Y-129407850D01*
X110343595Y-129899404D01*
X110048002Y-130341790D01*
X109671790Y-130718002D01*
X109229404Y-131013595D01*
X108919430Y-131141990D01*
X108737853Y-131217202D01*
X108737852Y-131217202D01*
X108737850Y-131217203D01*
X108216027Y-131321000D01*
X107683973Y-131321000D01*
X107162150Y-131217203D01*
X107162148Y-131217202D01*
X107162147Y-131217202D01*
X106980570Y-131141990D01*
X106670596Y-131013595D01*
X106228210Y-130718002D01*
X105851998Y-130341790D01*
X105556405Y-129899404D01*
X105352797Y-129407850D01*
X105249000Y-128886027D01*
X105249000Y-128353973D01*
X105352797Y-127832150D01*
X105556405Y-127340596D01*
X105851998Y-126898210D01*
X106228210Y-126521998D01*
X106670596Y-126226405D01*
X106980570Y-126098010D01*
X107162147Y-126022798D01*
X107162148Y-126022798D01*
X107162150Y-126022797D01*
X107683973Y-125919000D01*
X108216027Y-125919000D01*
X108737850Y-126022797D01*
X108737850Y-126022797D01*
G37*
G36*
X146248228Y-127401703D02*
X146403100Y-127465853D01*
X146542481Y-127558985D01*
X146661015Y-127677519D01*
X146754147Y-127816900D01*
X146818297Y-127971772D01*
X146851000Y-128136184D01*
X146851000Y-128303816D01*
X146818297Y-128468228D01*
X146754147Y-128623100D01*
X146661015Y-128762481D01*
X146542481Y-128881015D01*
X146403100Y-128974147D01*
X146248228Y-129038297D01*
X146083816Y-129071000D01*
X145916184Y-129071000D01*
X145751772Y-129038297D01*
X145596900Y-128974147D01*
X145457519Y-128881015D01*
X145338985Y-128762481D01*
X145245853Y-128623100D01*
X145181703Y-128468228D01*
X145149000Y-128303816D01*
X145149000Y-128136184D01*
X145181703Y-127971772D01*
X145245853Y-127816900D01*
X145338985Y-127677519D01*
X145457519Y-127558985D01*
X145596900Y-127465853D01*
X145751772Y-127401703D01*
X145916184Y-127369000D01*
X146083816Y-127369000D01*
X146248228Y-127401703D01*
X146248228Y-127401703D01*
G37*
G36*
X123573228Y-127401703D02*
X123728100Y-127465853D01*
X123867481Y-127558985D01*
X123986015Y-127677519D01*
X124079147Y-127816900D01*
X124143297Y-127971772D01*
X124176000Y-128136184D01*
X124176000Y-128303816D01*
X124143297Y-128468228D01*
X124079147Y-128623100D01*
X123986015Y-128762481D01*
X123867481Y-128881015D01*
X123728100Y-128974147D01*
X123573228Y-129038297D01*
X123408816Y-129071000D01*
X123241184Y-129071000D01*
X123076772Y-129038297D01*
X122921900Y-128974147D01*
X122782519Y-128881015D01*
X122663985Y-128762481D01*
X122570853Y-128623100D01*
X122506703Y-128468228D01*
X122474000Y-128303816D01*
X122474000Y-128136184D01*
X122506703Y-127971772D01*
X122570853Y-127816900D01*
X122663985Y-127677519D01*
X122782519Y-127558985D01*
X122921900Y-127465853D01*
X123076772Y-127401703D01*
X123241184Y-127369000D01*
X123408816Y-127369000D01*
X123573228Y-127401703D01*
X123573228Y-127401703D01*
G37*
G36*
X141248228Y-127401703D02*
X141403100Y-127465853D01*
X141542481Y-127558985D01*
X141661015Y-127677519D01*
X141754147Y-127816900D01*
X141818297Y-127971772D01*
X141851000Y-128136184D01*
X141851000Y-128303816D01*
X141818297Y-128468228D01*
X141754147Y-128623100D01*
X141661015Y-128762481D01*
X141542481Y-128881015D01*
X141403100Y-128974147D01*
X141248228Y-129038297D01*
X141083816Y-129071000D01*
X140916184Y-129071000D01*
X140751772Y-129038297D01*
X140596900Y-128974147D01*
X140457519Y-128881015D01*
X140338985Y-128762481D01*
X140245853Y-128623100D01*
X140181703Y-128468228D01*
X140149000Y-128303816D01*
X140149000Y-128136184D01*
X140181703Y-127971772D01*
X140245853Y-127816900D01*
X140338985Y-127677519D01*
X140457519Y-127558985D01*
X140596900Y-127465853D01*
X140751772Y-127401703D01*
X140916184Y-127369000D01*
X141083816Y-127369000D01*
X141248228Y-127401703D01*
X141248228Y-127401703D01*
G37*
G36*
X128573228Y-127401703D02*
X128728100Y-127465853D01*
X128867481Y-127558985D01*
X128986015Y-127677519D01*
X129079147Y-127816900D01*
X129143297Y-127971772D01*
X129176000Y-128136184D01*
X129176000Y-128303816D01*
X129143297Y-128468228D01*
X129079147Y-128623100D01*
X128986015Y-128762481D01*
X128867481Y-128881015D01*
X128728100Y-128974147D01*
X128573228Y-129038297D01*
X128408816Y-129071000D01*
X128241184Y-129071000D01*
X128076772Y-129038297D01*
X127921900Y-128974147D01*
X127782519Y-128881015D01*
X127663985Y-128762481D01*
X127570853Y-128623100D01*
X127506703Y-128468228D01*
X127474000Y-128303816D01*
X127474000Y-128136184D01*
X127506703Y-127971772D01*
X127570853Y-127816900D01*
X127663985Y-127677519D01*
X127782519Y-127558985D01*
X127921900Y-127465853D01*
X128076772Y-127401703D01*
X128241184Y-127369000D01*
X128408816Y-127369000D01*
X128573228Y-127401703D01*
X128573228Y-127401703D01*
G37*
G36*
X85708442Y-123311518D02*
X85774627Y-123318037D01*
X85887853Y-123352384D01*
X85944467Y-123369557D01*
X86083087Y-123443652D01*
X86100991Y-123453222D01*
X86136729Y-123482552D01*
X86238186Y-123565814D01*
X86321448Y-123667271D01*
X86350778Y-123703009D01*
X86350779Y-123703011D01*
X86434443Y-123859533D01*
X86434443Y-123859534D01*
X86485963Y-124029373D01*
X86503359Y-124206000D01*
X86485963Y-124382627D01*
X86451616Y-124495853D01*
X86434443Y-124552467D01*
X86360348Y-124691087D01*
X86350778Y-124708991D01*
X86321448Y-124744729D01*
X86238186Y-124846186D01*
X86136729Y-124929448D01*
X86100991Y-124958778D01*
X86100989Y-124958779D01*
X85944467Y-125042443D01*
X85887853Y-125059616D01*
X85774627Y-125093963D01*
X85708443Y-125100481D01*
X85642260Y-125107000D01*
X85553740Y-125107000D01*
X85487557Y-125100481D01*
X85421373Y-125093963D01*
X85308147Y-125059616D01*
X85251533Y-125042443D01*
X85095011Y-124958779D01*
X85095009Y-124958778D01*
X85059271Y-124929448D01*
X84957814Y-124846186D01*
X84874552Y-124744729D01*
X84845222Y-124708991D01*
X84835652Y-124691087D01*
X84761557Y-124552467D01*
X84744384Y-124495853D01*
X84710037Y-124382627D01*
X84692641Y-124206000D01*
X84710037Y-124029373D01*
X84761557Y-123859534D01*
X84761557Y-123859533D01*
X84845221Y-123703011D01*
X84845222Y-123703009D01*
X84874552Y-123667271D01*
X84957814Y-123565814D01*
X85059271Y-123482552D01*
X85095009Y-123453222D01*
X85112913Y-123443652D01*
X85251533Y-123369557D01*
X85308147Y-123352384D01*
X85421373Y-123318037D01*
X85487558Y-123311518D01*
X85553740Y-123305000D01*
X85642260Y-123305000D01*
X85708442Y-123311518D01*
X85708442Y-123311518D01*
G37*
G36*
X88248442Y-123311518D02*
X88314627Y-123318037D01*
X88427853Y-123352384D01*
X88484467Y-123369557D01*
X88623087Y-123443652D01*
X88640991Y-123453222D01*
X88676729Y-123482552D01*
X88778186Y-123565814D01*
X88861448Y-123667271D01*
X88890778Y-123703009D01*
X88890779Y-123703011D01*
X88974443Y-123859533D01*
X88974443Y-123859534D01*
X89025963Y-124029373D01*
X89043359Y-124206000D01*
X89025963Y-124382627D01*
X88991616Y-124495853D01*
X88974443Y-124552467D01*
X88900348Y-124691087D01*
X88890778Y-124708991D01*
X88861448Y-124744729D01*
X88778186Y-124846186D01*
X88676729Y-124929448D01*
X88640991Y-124958778D01*
X88640989Y-124958779D01*
X88484467Y-125042443D01*
X88427853Y-125059616D01*
X88314627Y-125093963D01*
X88248443Y-125100481D01*
X88182260Y-125107000D01*
X88093740Y-125107000D01*
X88027557Y-125100481D01*
X87961373Y-125093963D01*
X87848147Y-125059616D01*
X87791533Y-125042443D01*
X87635011Y-124958779D01*
X87635009Y-124958778D01*
X87599271Y-124929448D01*
X87497814Y-124846186D01*
X87414552Y-124744729D01*
X87385222Y-124708991D01*
X87375652Y-124691087D01*
X87301557Y-124552467D01*
X87284384Y-124495853D01*
X87250037Y-124382627D01*
X87232641Y-124206000D01*
X87250037Y-124029373D01*
X87301557Y-123859534D01*
X87301557Y-123859533D01*
X87385221Y-123703011D01*
X87385222Y-123703009D01*
X87414552Y-123667271D01*
X87497814Y-123565814D01*
X87599271Y-123482552D01*
X87635009Y-123453222D01*
X87652913Y-123443652D01*
X87791533Y-123369557D01*
X87848147Y-123352384D01*
X87961373Y-123318037D01*
X88027558Y-123311518D01*
X88093740Y-123305000D01*
X88182260Y-123305000D01*
X88248442Y-123311518D01*
X88248442Y-123311518D01*
G37*
G36*
X85708442Y-120771518D02*
X85774627Y-120778037D01*
X85887853Y-120812384D01*
X85944467Y-120829557D01*
X86083087Y-120903652D01*
X86100991Y-120913222D01*
X86136729Y-120942552D01*
X86238186Y-121025814D01*
X86321448Y-121127271D01*
X86350778Y-121163009D01*
X86350779Y-121163011D01*
X86434443Y-121319533D01*
X86434443Y-121319534D01*
X86485963Y-121489373D01*
X86503359Y-121666000D01*
X86485963Y-121842627D01*
X86451616Y-121955853D01*
X86434443Y-122012467D01*
X86360348Y-122151087D01*
X86350778Y-122168991D01*
X86321448Y-122204729D01*
X86238186Y-122306186D01*
X86136729Y-122389448D01*
X86100991Y-122418778D01*
X86100989Y-122418779D01*
X85944467Y-122502443D01*
X85887853Y-122519616D01*
X85774627Y-122553963D01*
X85708442Y-122560482D01*
X85642260Y-122567000D01*
X85553740Y-122567000D01*
X85487558Y-122560482D01*
X85421373Y-122553963D01*
X85308147Y-122519616D01*
X85251533Y-122502443D01*
X85095011Y-122418779D01*
X85095009Y-122418778D01*
X85059271Y-122389448D01*
X84957814Y-122306186D01*
X84874552Y-122204729D01*
X84845222Y-122168991D01*
X84835652Y-122151087D01*
X84761557Y-122012467D01*
X84744384Y-121955853D01*
X84710037Y-121842627D01*
X84692641Y-121666000D01*
X84710037Y-121489373D01*
X84761557Y-121319534D01*
X84761557Y-121319533D01*
X84845221Y-121163011D01*
X84845222Y-121163009D01*
X84874552Y-121127271D01*
X84957814Y-121025814D01*
X85059271Y-120942552D01*
X85095009Y-120913222D01*
X85112913Y-120903652D01*
X85251533Y-120829557D01*
X85308147Y-120812384D01*
X85421373Y-120778037D01*
X85487558Y-120771518D01*
X85553740Y-120765000D01*
X85642260Y-120765000D01*
X85708442Y-120771518D01*
X85708442Y-120771518D01*
G37*
G36*
X88248442Y-120771518D02*
X88314627Y-120778037D01*
X88427853Y-120812384D01*
X88484467Y-120829557D01*
X88623087Y-120903652D01*
X88640991Y-120913222D01*
X88676729Y-120942552D01*
X88778186Y-121025814D01*
X88861448Y-121127271D01*
X88890778Y-121163009D01*
X88890779Y-121163011D01*
X88974443Y-121319533D01*
X88974443Y-121319534D01*
X89025963Y-121489373D01*
X89043359Y-121666000D01*
X89025963Y-121842627D01*
X88991616Y-121955853D01*
X88974443Y-122012467D01*
X88900348Y-122151087D01*
X88890778Y-122168991D01*
X88861448Y-122204729D01*
X88778186Y-122306186D01*
X88676729Y-122389448D01*
X88640991Y-122418778D01*
X88640989Y-122418779D01*
X88484467Y-122502443D01*
X88427853Y-122519616D01*
X88314627Y-122553963D01*
X88248442Y-122560482D01*
X88182260Y-122567000D01*
X88093740Y-122567000D01*
X88027558Y-122560482D01*
X87961373Y-122553963D01*
X87848147Y-122519616D01*
X87791533Y-122502443D01*
X87635011Y-122418779D01*
X87635009Y-122418778D01*
X87599271Y-122389448D01*
X87497814Y-122306186D01*
X87414552Y-122204729D01*
X87385222Y-122168991D01*
X87375652Y-122151087D01*
X87301557Y-122012467D01*
X87284384Y-121955853D01*
X87250037Y-121842627D01*
X87232641Y-121666000D01*
X87250037Y-121489373D01*
X87301557Y-121319534D01*
X87301557Y-121319533D01*
X87385221Y-121163011D01*
X87385222Y-121163009D01*
X87414552Y-121127271D01*
X87497814Y-121025814D01*
X87599271Y-120942552D01*
X87635009Y-120913222D01*
X87652913Y-120903652D01*
X87791533Y-120829557D01*
X87848147Y-120812384D01*
X87961373Y-120778037D01*
X88027558Y-120771518D01*
X88093740Y-120765000D01*
X88182260Y-120765000D01*
X88248442Y-120771518D01*
X88248442Y-120771518D01*
G37*
G36*
X85708442Y-118231518D02*
X85774627Y-118238037D01*
X85887853Y-118272384D01*
X85944467Y-118289557D01*
X86083087Y-118363652D01*
X86100991Y-118373222D01*
X86136729Y-118402552D01*
X86238186Y-118485814D01*
X86321448Y-118587271D01*
X86350778Y-118623009D01*
X86350779Y-118623011D01*
X86434443Y-118779533D01*
X86434443Y-118779534D01*
X86485963Y-118949373D01*
X86503359Y-119126000D01*
X86485963Y-119302627D01*
X86451616Y-119415853D01*
X86434443Y-119472467D01*
X86360348Y-119611087D01*
X86350778Y-119628991D01*
X86321448Y-119664729D01*
X86238186Y-119766186D01*
X86136729Y-119849448D01*
X86100991Y-119878778D01*
X86100989Y-119878779D01*
X85944467Y-119962443D01*
X85887853Y-119979616D01*
X85774627Y-120013963D01*
X85708442Y-120020482D01*
X85642260Y-120027000D01*
X85553740Y-120027000D01*
X85487558Y-120020482D01*
X85421373Y-120013963D01*
X85308147Y-119979616D01*
X85251533Y-119962443D01*
X85095011Y-119878779D01*
X85095009Y-119878778D01*
X85059271Y-119849448D01*
X84957814Y-119766186D01*
X84874552Y-119664729D01*
X84845222Y-119628991D01*
X84835652Y-119611087D01*
X84761557Y-119472467D01*
X84744384Y-119415853D01*
X84710037Y-119302627D01*
X84692641Y-119126000D01*
X84710037Y-118949373D01*
X84761557Y-118779534D01*
X84761557Y-118779533D01*
X84845221Y-118623011D01*
X84845222Y-118623009D01*
X84874552Y-118587271D01*
X84957814Y-118485814D01*
X85059271Y-118402552D01*
X85095009Y-118373222D01*
X85112913Y-118363652D01*
X85251533Y-118289557D01*
X85308147Y-118272384D01*
X85421373Y-118238037D01*
X85487558Y-118231518D01*
X85553740Y-118225000D01*
X85642260Y-118225000D01*
X85708442Y-118231518D01*
X85708442Y-118231518D01*
G37*
G36*
X88248442Y-118231518D02*
X88314627Y-118238037D01*
X88427853Y-118272384D01*
X88484467Y-118289557D01*
X88623087Y-118363652D01*
X88640991Y-118373222D01*
X88676729Y-118402552D01*
X88778186Y-118485814D01*
X88861448Y-118587271D01*
X88890778Y-118623009D01*
X88890779Y-118623011D01*
X88974443Y-118779533D01*
X88974443Y-118779534D01*
X89025963Y-118949373D01*
X89043359Y-119126000D01*
X89025963Y-119302627D01*
X88991616Y-119415853D01*
X88974443Y-119472467D01*
X88900348Y-119611087D01*
X88890778Y-119628991D01*
X88861448Y-119664729D01*
X88778186Y-119766186D01*
X88676729Y-119849448D01*
X88640991Y-119878778D01*
X88640989Y-119878779D01*
X88484467Y-119962443D01*
X88427853Y-119979616D01*
X88314627Y-120013963D01*
X88248442Y-120020482D01*
X88182260Y-120027000D01*
X88093740Y-120027000D01*
X88027558Y-120020482D01*
X87961373Y-120013963D01*
X87848147Y-119979616D01*
X87791533Y-119962443D01*
X87635011Y-119878779D01*
X87635009Y-119878778D01*
X87599271Y-119849448D01*
X87497814Y-119766186D01*
X87414552Y-119664729D01*
X87385222Y-119628991D01*
X87375652Y-119611087D01*
X87301557Y-119472467D01*
X87284384Y-119415853D01*
X87250037Y-119302627D01*
X87232641Y-119126000D01*
X87250037Y-118949373D01*
X87301557Y-118779534D01*
X87301557Y-118779533D01*
X87385221Y-118623011D01*
X87385222Y-118623009D01*
X87414552Y-118587271D01*
X87497814Y-118485814D01*
X87599271Y-118402552D01*
X87635009Y-118373222D01*
X87652913Y-118363652D01*
X87791533Y-118289557D01*
X87848147Y-118272384D01*
X87961373Y-118238037D01*
X88027558Y-118231518D01*
X88093740Y-118225000D01*
X88182260Y-118225000D01*
X88248442Y-118231518D01*
X88248442Y-118231518D01*
G37*
G36*
X85708443Y-115691519D02*
X85774627Y-115698037D01*
X85887853Y-115732384D01*
X85944467Y-115749557D01*
X86083087Y-115823652D01*
X86100991Y-115833222D01*
X86136729Y-115862552D01*
X86238186Y-115945814D01*
X86321448Y-116047271D01*
X86350778Y-116083009D01*
X86350779Y-116083011D01*
X86434443Y-116239533D01*
X86434443Y-116239534D01*
X86485963Y-116409373D01*
X86503359Y-116586000D01*
X86485963Y-116762627D01*
X86451616Y-116875853D01*
X86434443Y-116932467D01*
X86360348Y-117071087D01*
X86350778Y-117088991D01*
X86321448Y-117124729D01*
X86238186Y-117226186D01*
X86136729Y-117309448D01*
X86100991Y-117338778D01*
X86100989Y-117338779D01*
X85944467Y-117422443D01*
X85887853Y-117439616D01*
X85774627Y-117473963D01*
X85708442Y-117480482D01*
X85642260Y-117487000D01*
X85553740Y-117487000D01*
X85487558Y-117480482D01*
X85421373Y-117473963D01*
X85308147Y-117439616D01*
X85251533Y-117422443D01*
X85095011Y-117338779D01*
X85095009Y-117338778D01*
X85059271Y-117309448D01*
X84957814Y-117226186D01*
X84874552Y-117124729D01*
X84845222Y-117088991D01*
X84835652Y-117071087D01*
X84761557Y-116932467D01*
X84744384Y-116875853D01*
X84710037Y-116762627D01*
X84692641Y-116586000D01*
X84710037Y-116409373D01*
X84761557Y-116239534D01*
X84761557Y-116239533D01*
X84845221Y-116083011D01*
X84845222Y-116083009D01*
X84874552Y-116047271D01*
X84957814Y-115945814D01*
X85059271Y-115862552D01*
X85095009Y-115833222D01*
X85112913Y-115823652D01*
X85251533Y-115749557D01*
X85308147Y-115732384D01*
X85421373Y-115698037D01*
X85487557Y-115691519D01*
X85553740Y-115685000D01*
X85642260Y-115685000D01*
X85708443Y-115691519D01*
X85708443Y-115691519D01*
G37*
G36*
X88248443Y-115691519D02*
X88314627Y-115698037D01*
X88427853Y-115732384D01*
X88484467Y-115749557D01*
X88623087Y-115823652D01*
X88640991Y-115833222D01*
X88676729Y-115862552D01*
X88778186Y-115945814D01*
X88861448Y-116047271D01*
X88890778Y-116083009D01*
X88890779Y-116083011D01*
X88974443Y-116239533D01*
X88974443Y-116239534D01*
X89025963Y-116409373D01*
X89043359Y-116586000D01*
X89025963Y-116762627D01*
X88991616Y-116875853D01*
X88974443Y-116932467D01*
X88900348Y-117071087D01*
X88890778Y-117088991D01*
X88861448Y-117124729D01*
X88778186Y-117226186D01*
X88676729Y-117309448D01*
X88640991Y-117338778D01*
X88640989Y-117338779D01*
X88484467Y-117422443D01*
X88427853Y-117439616D01*
X88314627Y-117473963D01*
X88248442Y-117480482D01*
X88182260Y-117487000D01*
X88093740Y-117487000D01*
X88027558Y-117480482D01*
X87961373Y-117473963D01*
X87848147Y-117439616D01*
X87791533Y-117422443D01*
X87635011Y-117338779D01*
X87635009Y-117338778D01*
X87599271Y-117309448D01*
X87497814Y-117226186D01*
X87414552Y-117124729D01*
X87385222Y-117088991D01*
X87375652Y-117071087D01*
X87301557Y-116932467D01*
X87284384Y-116875853D01*
X87250037Y-116762627D01*
X87232641Y-116586000D01*
X87250037Y-116409373D01*
X87301557Y-116239534D01*
X87301557Y-116239533D01*
X87385221Y-116083011D01*
X87385222Y-116083009D01*
X87414552Y-116047271D01*
X87497814Y-115945814D01*
X87599271Y-115862552D01*
X87635009Y-115833222D01*
X87652913Y-115823652D01*
X87791533Y-115749557D01*
X87848147Y-115732384D01*
X87961373Y-115698037D01*
X88027557Y-115691519D01*
X88093740Y-115685000D01*
X88182260Y-115685000D01*
X88248443Y-115691519D01*
X88248443Y-115691519D01*
G37*
G36*
X88248442Y-113151518D02*
X88314627Y-113158037D01*
X88427853Y-113192384D01*
X88484467Y-113209557D01*
X88623087Y-113283652D01*
X88640991Y-113293222D01*
X88676729Y-113322552D01*
X88778186Y-113405814D01*
X88861448Y-113507271D01*
X88890778Y-113543009D01*
X88890779Y-113543011D01*
X88974443Y-113699533D01*
X88974443Y-113699534D01*
X89025963Y-113869373D01*
X89043359Y-114046000D01*
X89025963Y-114222627D01*
X88991616Y-114335853D01*
X88974443Y-114392467D01*
X88900348Y-114531087D01*
X88890778Y-114548991D01*
X88861448Y-114584729D01*
X88778186Y-114686186D01*
X88676729Y-114769448D01*
X88640991Y-114798778D01*
X88640989Y-114798779D01*
X88484467Y-114882443D01*
X88427853Y-114899616D01*
X88314627Y-114933963D01*
X88248442Y-114940482D01*
X88182260Y-114947000D01*
X88093740Y-114947000D01*
X88027558Y-114940482D01*
X87961373Y-114933963D01*
X87848147Y-114899616D01*
X87791533Y-114882443D01*
X87635011Y-114798779D01*
X87635009Y-114798778D01*
X87599271Y-114769448D01*
X87497814Y-114686186D01*
X87414552Y-114584729D01*
X87385222Y-114548991D01*
X87375652Y-114531087D01*
X87301557Y-114392467D01*
X87284384Y-114335853D01*
X87250037Y-114222627D01*
X87232641Y-114046000D01*
X87250037Y-113869373D01*
X87301557Y-113699534D01*
X87301557Y-113699533D01*
X87385221Y-113543011D01*
X87385222Y-113543009D01*
X87414552Y-113507271D01*
X87497814Y-113405814D01*
X87599271Y-113322552D01*
X87635009Y-113293222D01*
X87652913Y-113283652D01*
X87791533Y-113209557D01*
X87848147Y-113192384D01*
X87961373Y-113158037D01*
X88027558Y-113151518D01*
X88093740Y-113145000D01*
X88182260Y-113145000D01*
X88248442Y-113151518D01*
X88248442Y-113151518D01*
G37*
G36*
X85708442Y-113151518D02*
X85774627Y-113158037D01*
X85887853Y-113192384D01*
X85944467Y-113209557D01*
X86083087Y-113283652D01*
X86100991Y-113293222D01*
X86136729Y-113322552D01*
X86238186Y-113405814D01*
X86321448Y-113507271D01*
X86350778Y-113543009D01*
X86350779Y-113543011D01*
X86434443Y-113699533D01*
X86434443Y-113699534D01*
X86485963Y-113869373D01*
X86503359Y-114046000D01*
X86485963Y-114222627D01*
X86451616Y-114335853D01*
X86434443Y-114392467D01*
X86360348Y-114531087D01*
X86350778Y-114548991D01*
X86321448Y-114584729D01*
X86238186Y-114686186D01*
X86136729Y-114769448D01*
X86100991Y-114798778D01*
X86100989Y-114798779D01*
X85944467Y-114882443D01*
X85887853Y-114899616D01*
X85774627Y-114933963D01*
X85708442Y-114940482D01*
X85642260Y-114947000D01*
X85553740Y-114947000D01*
X85487558Y-114940482D01*
X85421373Y-114933963D01*
X85308147Y-114899616D01*
X85251533Y-114882443D01*
X85095011Y-114798779D01*
X85095009Y-114798778D01*
X85059271Y-114769448D01*
X84957814Y-114686186D01*
X84874552Y-114584729D01*
X84845222Y-114548991D01*
X84835652Y-114531087D01*
X84761557Y-114392467D01*
X84744384Y-114335853D01*
X84710037Y-114222627D01*
X84692641Y-114046000D01*
X84710037Y-113869373D01*
X84761557Y-113699534D01*
X84761557Y-113699533D01*
X84845221Y-113543011D01*
X84845222Y-113543009D01*
X84874552Y-113507271D01*
X84957814Y-113405814D01*
X85059271Y-113322552D01*
X85095009Y-113293222D01*
X85112913Y-113283652D01*
X85251533Y-113209557D01*
X85308147Y-113192384D01*
X85421373Y-113158037D01*
X85487558Y-113151518D01*
X85553740Y-113145000D01*
X85642260Y-113145000D01*
X85708442Y-113151518D01*
X85708442Y-113151518D01*
G37*
G36*
X88248443Y-110611519D02*
X88314627Y-110618037D01*
X88427853Y-110652384D01*
X88484467Y-110669557D01*
X88623087Y-110743652D01*
X88640991Y-110753222D01*
X88676729Y-110782552D01*
X88778186Y-110865814D01*
X88861448Y-110967271D01*
X88890778Y-111003009D01*
X88890779Y-111003011D01*
X88974443Y-111159533D01*
X88974443Y-111159534D01*
X89025963Y-111329373D01*
X89043359Y-111506000D01*
X89025963Y-111682627D01*
X88991616Y-111795853D01*
X88974443Y-111852467D01*
X88900348Y-111991087D01*
X88890778Y-112008991D01*
X88861448Y-112044729D01*
X88778186Y-112146186D01*
X88676729Y-112229448D01*
X88640991Y-112258778D01*
X88640989Y-112258779D01*
X88484467Y-112342443D01*
X88427853Y-112359616D01*
X88314627Y-112393963D01*
X88248443Y-112400481D01*
X88182260Y-112407000D01*
X88093740Y-112407000D01*
X88027557Y-112400481D01*
X87961373Y-112393963D01*
X87848147Y-112359616D01*
X87791533Y-112342443D01*
X87635011Y-112258779D01*
X87635009Y-112258778D01*
X87599271Y-112229448D01*
X87497814Y-112146186D01*
X87414552Y-112044729D01*
X87385222Y-112008991D01*
X87375652Y-111991087D01*
X87301557Y-111852467D01*
X87284384Y-111795853D01*
X87250037Y-111682627D01*
X87232641Y-111506000D01*
X87250037Y-111329373D01*
X87301557Y-111159534D01*
X87301557Y-111159533D01*
X87385221Y-111003011D01*
X87385222Y-111003009D01*
X87414552Y-110967271D01*
X87497814Y-110865814D01*
X87599271Y-110782552D01*
X87635009Y-110753222D01*
X87652913Y-110743652D01*
X87791533Y-110669557D01*
X87848147Y-110652384D01*
X87961373Y-110618037D01*
X88027557Y-110611519D01*
X88093740Y-110605000D01*
X88182260Y-110605000D01*
X88248443Y-110611519D01*
X88248443Y-110611519D01*
G37*
G36*
X85708443Y-110611519D02*
X85774627Y-110618037D01*
X85887853Y-110652384D01*
X85944467Y-110669557D01*
X86083087Y-110743652D01*
X86100991Y-110753222D01*
X86136729Y-110782552D01*
X86238186Y-110865814D01*
X86321448Y-110967271D01*
X86350778Y-111003009D01*
X86350779Y-111003011D01*
X86434443Y-111159533D01*
X86434443Y-111159534D01*
X86485963Y-111329373D01*
X86503359Y-111506000D01*
X86485963Y-111682627D01*
X86451616Y-111795853D01*
X86434443Y-111852467D01*
X86360348Y-111991087D01*
X86350778Y-112008991D01*
X86321448Y-112044729D01*
X86238186Y-112146186D01*
X86136729Y-112229448D01*
X86100991Y-112258778D01*
X86100989Y-112258779D01*
X85944467Y-112342443D01*
X85887853Y-112359616D01*
X85774627Y-112393963D01*
X85708443Y-112400481D01*
X85642260Y-112407000D01*
X85553740Y-112407000D01*
X85487557Y-112400481D01*
X85421373Y-112393963D01*
X85308147Y-112359616D01*
X85251533Y-112342443D01*
X85095011Y-112258779D01*
X85095009Y-112258778D01*
X85059271Y-112229448D01*
X84957814Y-112146186D01*
X84874552Y-112044729D01*
X84845222Y-112008991D01*
X84835652Y-111991087D01*
X84761557Y-111852467D01*
X84744384Y-111795853D01*
X84710037Y-111682627D01*
X84692641Y-111506000D01*
X84710037Y-111329373D01*
X84761557Y-111159534D01*
X84761557Y-111159533D01*
X84845221Y-111003011D01*
X84845222Y-111003009D01*
X84874552Y-110967271D01*
X84957814Y-110865814D01*
X85059271Y-110782552D01*
X85095009Y-110753222D01*
X85112913Y-110743652D01*
X85251533Y-110669557D01*
X85308147Y-110652384D01*
X85421373Y-110618037D01*
X85487557Y-110611519D01*
X85553740Y-110605000D01*
X85642260Y-110605000D01*
X85708443Y-110611519D01*
X85708443Y-110611519D01*
G37*
G36*
X85708443Y-108071519D02*
X85774627Y-108078037D01*
X85887853Y-108112384D01*
X85944467Y-108129557D01*
X86083087Y-108203652D01*
X86100991Y-108213222D01*
X86136729Y-108242552D01*
X86238186Y-108325814D01*
X86321448Y-108427271D01*
X86350778Y-108463009D01*
X86350779Y-108463011D01*
X86434443Y-108619533D01*
X86434443Y-108619534D01*
X86485963Y-108789373D01*
X86503359Y-108966000D01*
X86485963Y-109142627D01*
X86451616Y-109255853D01*
X86434443Y-109312467D01*
X86360348Y-109451087D01*
X86350778Y-109468991D01*
X86321448Y-109504729D01*
X86238186Y-109606186D01*
X86136729Y-109689448D01*
X86100991Y-109718778D01*
X86100989Y-109718779D01*
X85944467Y-109802443D01*
X85887853Y-109819616D01*
X85774627Y-109853963D01*
X85708443Y-109860481D01*
X85642260Y-109867000D01*
X85553740Y-109867000D01*
X85487557Y-109860481D01*
X85421373Y-109853963D01*
X85308147Y-109819616D01*
X85251533Y-109802443D01*
X85095011Y-109718779D01*
X85095009Y-109718778D01*
X85059271Y-109689448D01*
X84957814Y-109606186D01*
X84874552Y-109504729D01*
X84845222Y-109468991D01*
X84835652Y-109451087D01*
X84761557Y-109312467D01*
X84744384Y-109255853D01*
X84710037Y-109142627D01*
X84692641Y-108966000D01*
X84710037Y-108789373D01*
X84761557Y-108619534D01*
X84761557Y-108619533D01*
X84845221Y-108463011D01*
X84845222Y-108463009D01*
X84874552Y-108427271D01*
X84957814Y-108325814D01*
X85059271Y-108242552D01*
X85095009Y-108213222D01*
X85112913Y-108203652D01*
X85251533Y-108129557D01*
X85308147Y-108112384D01*
X85421373Y-108078037D01*
X85487557Y-108071519D01*
X85553740Y-108065000D01*
X85642260Y-108065000D01*
X85708443Y-108071519D01*
X85708443Y-108071519D01*
G37*
G36*
X89039000Y-109867000D02*
X87237000Y-109867000D01*
X87237000Y-108065000D01*
X89039000Y-108065000D01*
X89039000Y-109867000D01*
X89039000Y-109867000D01*
G37*
G36*
X207631565Y-103889389D02*
X207822834Y-103968615D01*
X207994976Y-104083637D01*
X208141363Y-104230024D01*
X208256385Y-104402166D01*
X208335611Y-104593435D01*
X208376000Y-104796484D01*
X208376000Y-105003516D01*
X208335611Y-105206565D01*
X208256385Y-105397834D01*
X208141363Y-105569976D01*
X207994976Y-105716363D01*
X207822834Y-105831385D01*
X207631565Y-105910611D01*
X207428516Y-105951000D01*
X207221484Y-105951000D01*
X207018435Y-105910611D01*
X206827166Y-105831385D01*
X206655024Y-105716363D01*
X206508637Y-105569976D01*
X206393615Y-105397834D01*
X206314389Y-105206565D01*
X206274000Y-105003516D01*
X206274000Y-104796484D01*
X206314389Y-104593435D01*
X206393615Y-104402166D01*
X206508637Y-104230024D01*
X206655024Y-104083637D01*
X206827166Y-103968615D01*
X207018435Y-103889389D01*
X207221484Y-103849000D01*
X207428516Y-103849000D01*
X207631565Y-103889389D01*
X207631565Y-103889389D01*
G37*
G36*
X215131565Y-103889389D02*
X215322834Y-103968615D01*
X215494976Y-104083637D01*
X215641363Y-104230024D01*
X215756385Y-104402166D01*
X215835611Y-104593435D01*
X215876000Y-104796484D01*
X215876000Y-105003516D01*
X215835611Y-105206565D01*
X215756385Y-105397834D01*
X215641363Y-105569976D01*
X215494976Y-105716363D01*
X215322834Y-105831385D01*
X215131565Y-105910611D01*
X214928516Y-105951000D01*
X214721484Y-105951000D01*
X214518435Y-105910611D01*
X214327166Y-105831385D01*
X214155024Y-105716363D01*
X214008637Y-105569976D01*
X213893615Y-105397834D01*
X213814389Y-105206565D01*
X213774000Y-105003516D01*
X213774000Y-104796484D01*
X213814389Y-104593435D01*
X213893615Y-104402166D01*
X214008637Y-104230024D01*
X214155024Y-104083637D01*
X214327166Y-103968615D01*
X214518435Y-103889389D01*
X214721484Y-103849000D01*
X214928516Y-103849000D01*
X215131565Y-103889389D01*
X215131565Y-103889389D01*
G37*
G36*
X90476565Y-96525389D02*
X90667834Y-96604615D01*
X90839976Y-96719637D01*
X90986363Y-96866024D01*
X91101385Y-97038166D01*
X91180611Y-97229435D01*
X91221000Y-97432484D01*
X91221000Y-97639516D01*
X91180611Y-97842565D01*
X91101385Y-98033834D01*
X90986363Y-98205976D01*
X90839976Y-98352363D01*
X90667834Y-98467385D01*
X90476565Y-98546611D01*
X90273516Y-98587000D01*
X90066484Y-98587000D01*
X89863435Y-98546611D01*
X89672166Y-98467385D01*
X89500024Y-98352363D01*
X89353637Y-98205976D01*
X89238615Y-98033834D01*
X89159389Y-97842565D01*
X89119000Y-97639516D01*
X89119000Y-97432484D01*
X89159389Y-97229435D01*
X89238615Y-97038166D01*
X89353637Y-96866024D01*
X89500024Y-96719637D01*
X89672166Y-96604615D01*
X89863435Y-96525389D01*
X90066484Y-96485000D01*
X90273516Y-96485000D01*
X90476565Y-96525389D01*
X90476565Y-96525389D01*
G37*
G36*
X90476565Y-89025389D02*
X90667834Y-89104615D01*
X90839976Y-89219637D01*
X90986363Y-89366024D01*
X91101385Y-89538166D01*
X91180611Y-89729435D01*
X91221000Y-89932484D01*
X91221000Y-90139516D01*
X91180611Y-90342565D01*
X91101385Y-90533834D01*
X90986363Y-90705976D01*
X90839976Y-90852363D01*
X90667834Y-90967385D01*
X90476565Y-91046611D01*
X90273516Y-91087000D01*
X90066484Y-91087000D01*
X89863435Y-91046611D01*
X89672166Y-90967385D01*
X89500024Y-90852363D01*
X89353637Y-90705976D01*
X89238615Y-90533834D01*
X89159389Y-90342565D01*
X89119000Y-90139516D01*
X89119000Y-89932484D01*
X89159389Y-89729435D01*
X89238615Y-89538166D01*
X89353637Y-89366024D01*
X89500024Y-89219637D01*
X89672166Y-89104615D01*
X89863435Y-89025389D01*
X90066484Y-88985000D01*
X90273516Y-88985000D01*
X90476565Y-89025389D01*
X90476565Y-89025389D01*
G37*
G36*
X212823228Y-86381703D02*
X212978100Y-86445853D01*
X213117481Y-86538985D01*
X213236015Y-86657519D01*
X213329147Y-86796900D01*
X213393297Y-86951772D01*
X213426000Y-87116184D01*
X213426000Y-87283816D01*
X213393297Y-87448228D01*
X213329147Y-87603100D01*
X213236015Y-87742481D01*
X213117481Y-87861015D01*
X212978100Y-87954147D01*
X212823228Y-88018297D01*
X212658816Y-88051000D01*
X212491184Y-88051000D01*
X212326772Y-88018297D01*
X212171900Y-87954147D01*
X212032519Y-87861015D01*
X211913985Y-87742481D01*
X211820853Y-87603100D01*
X211756703Y-87448228D01*
X211724000Y-87283816D01*
X211724000Y-87116184D01*
X211756703Y-86951772D01*
X211820853Y-86796900D01*
X211913985Y-86657519D01*
X212032519Y-86538985D01*
X212171900Y-86445853D01*
X212326772Y-86381703D01*
X212491184Y-86349000D01*
X212658816Y-86349000D01*
X212823228Y-86381703D01*
X212823228Y-86381703D01*
G37*
G36*
X217823228Y-86381703D02*
X217978100Y-86445853D01*
X218117481Y-86538985D01*
X218236015Y-86657519D01*
X218329147Y-86796900D01*
X218393297Y-86951772D01*
X218426000Y-87116184D01*
X218426000Y-87283816D01*
X218393297Y-87448228D01*
X218329147Y-87603100D01*
X218236015Y-87742481D01*
X218117481Y-87861015D01*
X217978100Y-87954147D01*
X217823228Y-88018297D01*
X217658816Y-88051000D01*
X217491184Y-88051000D01*
X217326772Y-88018297D01*
X217171900Y-87954147D01*
X217032519Y-87861015D01*
X216913985Y-87742481D01*
X216820853Y-87603100D01*
X216756703Y-87448228D01*
X216724000Y-87283816D01*
X216724000Y-87116184D01*
X216756703Y-86951772D01*
X216820853Y-86796900D01*
X216913985Y-86657519D01*
X217032519Y-86538985D01*
X217171900Y-86445853D01*
X217326772Y-86381703D01*
X217491184Y-86349000D01*
X217658816Y-86349000D01*
X217823228Y-86381703D01*
X217823228Y-86381703D01*
G37*
G36*
X86274228Y-75381703D02*
X86429100Y-75445853D01*
X86568481Y-75538985D01*
X86687015Y-75657519D01*
X86780147Y-75796900D01*
X86844297Y-75951772D01*
X86877000Y-76116184D01*
X86877000Y-76283816D01*
X86844297Y-76448228D01*
X86780147Y-76603100D01*
X86687015Y-76742481D01*
X86568481Y-76861015D01*
X86429100Y-76954147D01*
X86274228Y-77018297D01*
X86109816Y-77051000D01*
X85942184Y-77051000D01*
X85777772Y-77018297D01*
X85622900Y-76954147D01*
X85483519Y-76861015D01*
X85364985Y-76742481D01*
X85271853Y-76603100D01*
X85207703Y-76448228D01*
X85175000Y-76283816D01*
X85175000Y-76116184D01*
X85207703Y-75951772D01*
X85271853Y-75796900D01*
X85364985Y-75657519D01*
X85483519Y-75538985D01*
X85622900Y-75445853D01*
X85777772Y-75381703D01*
X85942184Y-75349000D01*
X86109816Y-75349000D01*
X86274228Y-75381703D01*
X86274228Y-75381703D01*
G37*
G36*
X81274228Y-75381703D02*
X81429100Y-75445853D01*
X81568481Y-75538985D01*
X81687015Y-75657519D01*
X81780147Y-75796900D01*
X81844297Y-75951772D01*
X81877000Y-76116184D01*
X81877000Y-76283816D01*
X81844297Y-76448228D01*
X81780147Y-76603100D01*
X81687015Y-76742481D01*
X81568481Y-76861015D01*
X81429100Y-76954147D01*
X81274228Y-77018297D01*
X81109816Y-77051000D01*
X80942184Y-77051000D01*
X80777772Y-77018297D01*
X80622900Y-76954147D01*
X80483519Y-76861015D01*
X80364985Y-76742481D01*
X80271853Y-76603100D01*
X80207703Y-76448228D01*
X80175000Y-76283816D01*
X80175000Y-76116184D01*
X80207703Y-75951772D01*
X80271853Y-75796900D01*
X80364985Y-75657519D01*
X80483519Y-75538985D01*
X80622900Y-75445853D01*
X80777772Y-75381703D01*
X80942184Y-75349000D01*
X81109816Y-75349000D01*
X81274228Y-75381703D01*
X81274228Y-75381703D01*
G37*
G36*
X215131565Y-68437738D02*
X215322834Y-68516964D01*
X215494976Y-68631986D01*
X215641363Y-68778373D01*
X215756385Y-68950515D01*
X215835611Y-69141784D01*
X215876000Y-69344833D01*
X215876000Y-69551865D01*
X215835611Y-69754914D01*
X215756385Y-69946183D01*
X215641363Y-70118325D01*
X215494976Y-70264712D01*
X215322834Y-70379734D01*
X215131565Y-70458960D01*
X214928516Y-70499349D01*
X214721484Y-70499349D01*
X214518435Y-70458960D01*
X214327166Y-70379734D01*
X214155024Y-70264712D01*
X214008637Y-70118325D01*
X213893615Y-69946183D01*
X213814389Y-69754914D01*
X213774000Y-69551865D01*
X213774000Y-69344833D01*
X213814389Y-69141784D01*
X213893615Y-68950515D01*
X214008637Y-68778373D01*
X214155024Y-68631986D01*
X214327166Y-68516964D01*
X214518435Y-68437738D01*
X214721484Y-68397349D01*
X214928516Y-68397349D01*
X215131565Y-68437738D01*
X215131565Y-68437738D01*
G37*
G36*
X207631565Y-68437738D02*
X207822834Y-68516964D01*
X207994976Y-68631986D01*
X208141363Y-68778373D01*
X208256385Y-68950515D01*
X208335611Y-69141784D01*
X208376000Y-69344833D01*
X208376000Y-69551865D01*
X208335611Y-69754914D01*
X208256385Y-69946183D01*
X208141363Y-70118325D01*
X207994976Y-70264712D01*
X207822834Y-70379734D01*
X207631565Y-70458960D01*
X207428516Y-70499349D01*
X207221484Y-70499349D01*
X207018435Y-70458960D01*
X206827166Y-70379734D01*
X206655024Y-70264712D01*
X206508637Y-70118325D01*
X206393615Y-69946183D01*
X206314389Y-69754914D01*
X206274000Y-69551865D01*
X206274000Y-69344833D01*
X206314389Y-69141784D01*
X206393615Y-68950515D01*
X206508637Y-68778373D01*
X206655024Y-68631986D01*
X206827166Y-68516964D01*
X207018435Y-68437738D01*
X207221484Y-68397349D01*
X207428516Y-68397349D01*
X207631565Y-68437738D01*
X207631565Y-68437738D01*
G37*
G36*
X70677527Y-62838736D02*
X70777410Y-62858604D01*
X71059674Y-62975521D01*
X71313705Y-63145259D01*
X71529741Y-63361295D01*
X71699479Y-63615326D01*
X71816396Y-63897590D01*
X71876000Y-64197240D01*
X71876000Y-64502760D01*
X71816396Y-64802410D01*
X71699479Y-65084674D01*
X71529741Y-65338705D01*
X71313705Y-65554741D01*
X71059674Y-65724479D01*
X70777410Y-65841396D01*
X70677527Y-65861264D01*
X70477762Y-65901000D01*
X70172238Y-65901000D01*
X69972473Y-65861264D01*
X69872590Y-65841396D01*
X69590326Y-65724479D01*
X69336295Y-65554741D01*
X69120259Y-65338705D01*
X68950521Y-65084674D01*
X68833604Y-64802410D01*
X68774000Y-64502760D01*
X68774000Y-64197240D01*
X68833604Y-63897590D01*
X68950521Y-63615326D01*
X69120259Y-63361295D01*
X69336295Y-63145259D01*
X69590326Y-62975521D01*
X69872590Y-62858604D01*
X69972473Y-62838736D01*
X70172238Y-62799000D01*
X70477762Y-62799000D01*
X70677527Y-62838736D01*
X70677527Y-62838736D01*
G37*
G36*
X93202527Y-62838736D02*
X93302410Y-62858604D01*
X93584674Y-62975521D01*
X93838705Y-63145259D01*
X94054741Y-63361295D01*
X94224479Y-63615326D01*
X94341396Y-63897590D01*
X94401000Y-64197240D01*
X94401000Y-64502760D01*
X94341396Y-64802410D01*
X94224479Y-65084674D01*
X94054741Y-65338705D01*
X93838705Y-65554741D01*
X93584674Y-65724479D01*
X93302410Y-65841396D01*
X93202527Y-65861264D01*
X93002762Y-65901000D01*
X92697238Y-65901000D01*
X92497473Y-65861264D01*
X92397590Y-65841396D01*
X92115326Y-65724479D01*
X91861295Y-65554741D01*
X91645259Y-65338705D01*
X91475521Y-65084674D01*
X91358604Y-64802410D01*
X91299000Y-64502760D01*
X91299000Y-64197240D01*
X91358604Y-63897590D01*
X91475521Y-63615326D01*
X91645259Y-63361295D01*
X91861295Y-63145259D01*
X92115326Y-62975521D01*
X92397590Y-62858604D01*
X92497473Y-62838736D01*
X92697238Y-62799000D01*
X93002762Y-62799000D01*
X93202527Y-62838736D01*
X93202527Y-62838736D01*
G37*
G36*
X89402527Y-62838736D02*
X89502410Y-62858604D01*
X89784674Y-62975521D01*
X90038705Y-63145259D01*
X90254741Y-63361295D01*
X90424479Y-63615326D01*
X90541396Y-63897590D01*
X90601000Y-64197240D01*
X90601000Y-64502760D01*
X90541396Y-64802410D01*
X90424479Y-65084674D01*
X90254741Y-65338705D01*
X90038705Y-65554741D01*
X89784674Y-65724479D01*
X89502410Y-65841396D01*
X89402527Y-65861264D01*
X89202762Y-65901000D01*
X88897238Y-65901000D01*
X88697473Y-65861264D01*
X88597590Y-65841396D01*
X88315326Y-65724479D01*
X88061295Y-65554741D01*
X87845259Y-65338705D01*
X87675521Y-65084674D01*
X87558604Y-64802410D01*
X87499000Y-64502760D01*
X87499000Y-64197240D01*
X87558604Y-63897590D01*
X87675521Y-63615326D01*
X87845259Y-63361295D01*
X88061295Y-63145259D01*
X88315326Y-62975521D01*
X88597590Y-62858604D01*
X88697473Y-62838736D01*
X88897238Y-62799000D01*
X89202762Y-62799000D01*
X89402527Y-62838736D01*
X89402527Y-62838736D01*
G37*
G36*
X74477527Y-62838736D02*
X74577410Y-62858604D01*
X74859674Y-62975521D01*
X75113705Y-63145259D01*
X75329741Y-63361295D01*
X75499479Y-63615326D01*
X75616396Y-63897590D01*
X75676000Y-64197240D01*
X75676000Y-64502760D01*
X75616396Y-64802410D01*
X75499479Y-65084674D01*
X75329741Y-65338705D01*
X75113705Y-65554741D01*
X74859674Y-65724479D01*
X74577410Y-65841396D01*
X74477527Y-65861264D01*
X74277762Y-65901000D01*
X73972238Y-65901000D01*
X73772473Y-65861264D01*
X73672590Y-65841396D01*
X73390326Y-65724479D01*
X73136295Y-65554741D01*
X72920259Y-65338705D01*
X72750521Y-65084674D01*
X72633604Y-64802410D01*
X72574000Y-64502760D01*
X72574000Y-64197240D01*
X72633604Y-63897590D01*
X72750521Y-63615326D01*
X72920259Y-63361295D01*
X73136295Y-63145259D01*
X73390326Y-62975521D01*
X73672590Y-62858604D01*
X73772473Y-62838736D01*
X73972238Y-62799000D01*
X74277762Y-62799000D01*
X74477527Y-62838736D01*
X74477527Y-62838736D01*
G37*
G36*
X200177850Y-54902797D02*
X200177852Y-54902798D01*
X200177853Y-54902798D01*
X200359430Y-54978010D01*
X200669404Y-55106405D01*
X201111790Y-55401998D01*
X201488002Y-55778210D01*
X201783595Y-56220596D01*
X201987203Y-56712150D01*
X202091000Y-57233973D01*
X202091000Y-57766027D01*
X201987203Y-58287850D01*
X201783595Y-58779404D01*
X201488002Y-59221790D01*
X201111790Y-59598002D01*
X200669404Y-59893595D01*
X200359430Y-60021990D01*
X200177853Y-60097202D01*
X200177852Y-60097202D01*
X200177850Y-60097203D01*
X199656027Y-60201000D01*
X199123973Y-60201000D01*
X198602150Y-60097203D01*
X198602148Y-60097202D01*
X198602147Y-60097202D01*
X198420570Y-60021990D01*
X198110596Y-59893595D01*
X197668210Y-59598002D01*
X197291998Y-59221790D01*
X196996405Y-58779404D01*
X196792797Y-58287850D01*
X196689000Y-57766027D01*
X196689000Y-57233973D01*
X196792797Y-56712150D01*
X196996405Y-56220596D01*
X197291998Y-55778210D01*
X197668210Y-55401998D01*
X198110596Y-55106405D01*
X198420570Y-54978010D01*
X198602147Y-54902798D01*
X198602148Y-54902798D01*
X198602150Y-54902797D01*
X199123973Y-54799000D01*
X199656027Y-54799000D01*
X200177850Y-54902797D01*
X200177850Y-54902797D01*
G37*
G36*
X108737850Y-54902797D02*
X108737852Y-54902798D01*
X108737853Y-54902798D01*
X108919430Y-54978010D01*
X109229404Y-55106405D01*
X109671790Y-55401998D01*
X110048002Y-55778210D01*
X110343595Y-56220596D01*
X110547203Y-56712150D01*
X110651000Y-57233973D01*
X110651000Y-57766027D01*
X110547203Y-58287850D01*
X110343595Y-58779404D01*
X110048002Y-59221790D01*
X109671790Y-59598002D01*
X109229404Y-59893595D01*
X108919430Y-60021990D01*
X108737853Y-60097202D01*
X108737852Y-60097202D01*
X108737850Y-60097203D01*
X108216027Y-60201000D01*
X107683973Y-60201000D01*
X107162150Y-60097203D01*
X107162148Y-60097202D01*
X107162147Y-60097202D01*
X106980570Y-60021990D01*
X106670596Y-59893595D01*
X106228210Y-59598002D01*
X105851998Y-59221790D01*
X105556405Y-58779404D01*
X105352797Y-58287850D01*
X105249000Y-57766027D01*
X105249000Y-57233973D01*
X105352797Y-56712150D01*
X105556405Y-56220596D01*
X105851998Y-55778210D01*
X106228210Y-55401998D01*
X106670596Y-55106405D01*
X106980570Y-54978010D01*
X107162147Y-54902798D01*
X107162148Y-54902798D01*
X107162150Y-54902797D01*
X107683973Y-54799000D01*
X108216027Y-54799000D01*
X108737850Y-54902797D01*
X108737850Y-54902797D01*
G37*
G36*
X74477527Y-50338736D02*
X74577410Y-50358604D01*
X74859674Y-50475521D01*
X75113705Y-50645259D01*
X75329741Y-50861295D01*
X75499479Y-51115326D01*
X75616396Y-51397590D01*
X75676000Y-51697240D01*
X75676000Y-52002760D01*
X75616396Y-52302410D01*
X75499479Y-52584674D01*
X75329741Y-52838705D01*
X75113705Y-53054741D01*
X74859674Y-53224479D01*
X74577410Y-53341396D01*
X74477527Y-53361264D01*
X74277762Y-53401000D01*
X73972238Y-53401000D01*
X73772473Y-53361264D01*
X73672590Y-53341396D01*
X73390326Y-53224479D01*
X73136295Y-53054741D01*
X72920259Y-52838705D01*
X72750521Y-52584674D01*
X72633604Y-52302410D01*
X72574000Y-52002760D01*
X72574000Y-51697240D01*
X72633604Y-51397590D01*
X72750521Y-51115326D01*
X72920259Y-50861295D01*
X73136295Y-50645259D01*
X73390326Y-50475521D01*
X73672590Y-50358604D01*
X73772473Y-50338736D01*
X73972238Y-50299000D01*
X74277762Y-50299000D01*
X74477527Y-50338736D01*
X74477527Y-50338736D01*
G37*
G36*
X70677527Y-50338736D02*
X70777410Y-50358604D01*
X71059674Y-50475521D01*
X71313705Y-50645259D01*
X71529741Y-50861295D01*
X71699479Y-51115326D01*
X71816396Y-51397590D01*
X71876000Y-51697240D01*
X71876000Y-52002760D01*
X71816396Y-52302410D01*
X71699479Y-52584674D01*
X71529741Y-52838705D01*
X71313705Y-53054741D01*
X71059674Y-53224479D01*
X70777410Y-53341396D01*
X70677527Y-53361264D01*
X70477762Y-53401000D01*
X70172238Y-53401000D01*
X69972473Y-53361264D01*
X69872590Y-53341396D01*
X69590326Y-53224479D01*
X69336295Y-53054741D01*
X69120259Y-52838705D01*
X68950521Y-52584674D01*
X68833604Y-52302410D01*
X68774000Y-52002760D01*
X68774000Y-51697240D01*
X68833604Y-51397590D01*
X68950521Y-51115326D01*
X69120259Y-50861295D01*
X69336295Y-50645259D01*
X69590326Y-50475521D01*
X69872590Y-50358604D01*
X69972473Y-50338736D01*
X70172238Y-50299000D01*
X70477762Y-50299000D01*
X70677527Y-50338736D01*
X70677527Y-50338736D01*
G37*
G36*
X93202527Y-50338736D02*
X93302410Y-50358604D01*
X93584674Y-50475521D01*
X93838705Y-50645259D01*
X94054741Y-50861295D01*
X94224479Y-51115326D01*
X94341396Y-51397590D01*
X94401000Y-51697240D01*
X94401000Y-52002760D01*
X94341396Y-52302410D01*
X94224479Y-52584674D01*
X94054741Y-52838705D01*
X93838705Y-53054741D01*
X93584674Y-53224479D01*
X93302410Y-53341396D01*
X93202527Y-53361264D01*
X93002762Y-53401000D01*
X92697238Y-53401000D01*
X92497473Y-53361264D01*
X92397590Y-53341396D01*
X92115326Y-53224479D01*
X91861295Y-53054741D01*
X91645259Y-52838705D01*
X91475521Y-52584674D01*
X91358604Y-52302410D01*
X91299000Y-52002760D01*
X91299000Y-51697240D01*
X91358604Y-51397590D01*
X91475521Y-51115326D01*
X91645259Y-50861295D01*
X91861295Y-50645259D01*
X92115326Y-50475521D01*
X92397590Y-50358604D01*
X92497473Y-50338736D01*
X92697238Y-50299000D01*
X93002762Y-50299000D01*
X93202527Y-50338736D01*
X93202527Y-50338736D01*
G37*
G36*
X89402527Y-50338736D02*
X89502410Y-50358604D01*
X89784674Y-50475521D01*
X90038705Y-50645259D01*
X90254741Y-50861295D01*
X90424479Y-51115326D01*
X90541396Y-51397590D01*
X90601000Y-51697240D01*
X90601000Y-52002760D01*
X90541396Y-52302410D01*
X90424479Y-52584674D01*
X90254741Y-52838705D01*
X90038705Y-53054741D01*
X89784674Y-53224479D01*
X89502410Y-53341396D01*
X89402527Y-53361264D01*
X89202762Y-53401000D01*
X88897238Y-53401000D01*
X88697473Y-53361264D01*
X88597590Y-53341396D01*
X88315326Y-53224479D01*
X88061295Y-53054741D01*
X87845259Y-52838705D01*
X87675521Y-52584674D01*
X87558604Y-52302410D01*
X87499000Y-52002760D01*
X87499000Y-51697240D01*
X87558604Y-51397590D01*
X87675521Y-51115326D01*
X87845259Y-50861295D01*
X88061295Y-50645259D01*
X88315326Y-50475521D01*
X88597590Y-50358604D01*
X88697473Y-50338736D01*
X88897238Y-50299000D01*
X89202762Y-50299000D01*
X89402527Y-50338736D01*
X89402527Y-50338736D01*
G37*
G36*
X185327527Y-43368736D02*
X185427410Y-43388604D01*
X185709674Y-43505521D01*
X185963705Y-43675259D01*
X186179741Y-43891295D01*
X186349479Y-44145326D01*
X186466396Y-44427590D01*
X186526000Y-44727240D01*
X186526000Y-45032760D01*
X186466396Y-45332410D01*
X186349479Y-45614674D01*
X186179741Y-45868705D01*
X185963705Y-46084741D01*
X185709674Y-46254479D01*
X185427410Y-46371396D01*
X185327527Y-46391264D01*
X185127762Y-46431000D01*
X184822238Y-46431000D01*
X184622473Y-46391264D01*
X184522590Y-46371396D01*
X184240326Y-46254479D01*
X183986295Y-46084741D01*
X183770259Y-45868705D01*
X183600521Y-45614674D01*
X183483604Y-45332410D01*
X183424000Y-45032760D01*
X183424000Y-44727240D01*
X183483604Y-44427590D01*
X183600521Y-44145326D01*
X183770259Y-43891295D01*
X183986295Y-43675259D01*
X184240326Y-43505521D01*
X184522590Y-43388604D01*
X184622473Y-43368736D01*
X184822238Y-43329000D01*
X185127762Y-43329000D01*
X185327527Y-43368736D01*
X185327527Y-43368736D01*
G37*
G36*
X131162527Y-43368736D02*
X131262410Y-43388604D01*
X131544674Y-43505521D01*
X131798705Y-43675259D01*
X132014741Y-43891295D01*
X132184479Y-44145326D01*
X132301396Y-44427590D01*
X132361000Y-44727240D01*
X132361000Y-45032760D01*
X132301396Y-45332410D01*
X132184479Y-45614674D01*
X132014741Y-45868705D01*
X131798705Y-46084741D01*
X131544674Y-46254479D01*
X131262410Y-46371396D01*
X131162527Y-46391264D01*
X130962762Y-46431000D01*
X130657238Y-46431000D01*
X130457473Y-46391264D01*
X130357590Y-46371396D01*
X130075326Y-46254479D01*
X129821295Y-46084741D01*
X129605259Y-45868705D01*
X129435521Y-45614674D01*
X129318604Y-45332410D01*
X129259000Y-45032760D01*
X129259000Y-44727240D01*
X129318604Y-44427590D01*
X129435521Y-44145326D01*
X129605259Y-43891295D01*
X129821295Y-43675259D01*
X130075326Y-43505521D01*
X130357590Y-43388604D01*
X130457473Y-43368736D01*
X130657238Y-43329000D01*
X130962762Y-43329000D01*
X131162527Y-43368736D01*
X131162527Y-43368736D01*
G37*
G36*
X135162527Y-43368736D02*
X135262410Y-43388604D01*
X135544674Y-43505521D01*
X135798705Y-43675259D01*
X136014741Y-43891295D01*
X136184479Y-44145326D01*
X136301396Y-44427590D01*
X136361000Y-44727240D01*
X136361000Y-45032760D01*
X136301396Y-45332410D01*
X136184479Y-45614674D01*
X136014741Y-45868705D01*
X135798705Y-46084741D01*
X135544674Y-46254479D01*
X135262410Y-46371396D01*
X135162527Y-46391264D01*
X134962762Y-46431000D01*
X134657238Y-46431000D01*
X134457473Y-46391264D01*
X134357590Y-46371396D01*
X134075326Y-46254479D01*
X133821295Y-46084741D01*
X133605259Y-45868705D01*
X133435521Y-45614674D01*
X133318604Y-45332410D01*
X133259000Y-45032760D01*
X133259000Y-44727240D01*
X133318604Y-44427590D01*
X133435521Y-44145326D01*
X133605259Y-43891295D01*
X133821295Y-43675259D01*
X134075326Y-43505521D01*
X134357590Y-43388604D01*
X134457473Y-43368736D01*
X134657238Y-43329000D01*
X134962762Y-43329000D01*
X135162527Y-43368736D01*
X135162527Y-43368736D01*
G37*
G36*
X156689527Y-43368736D02*
X156789410Y-43388604D01*
X157071674Y-43505521D01*
X157325705Y-43675259D01*
X157541741Y-43891295D01*
X157711479Y-44145326D01*
X157828396Y-44427590D01*
X157888000Y-44727240D01*
X157888000Y-45032760D01*
X157828396Y-45332410D01*
X157711479Y-45614674D01*
X157541741Y-45868705D01*
X157325705Y-46084741D01*
X157071674Y-46254479D01*
X156789410Y-46371396D01*
X156689527Y-46391264D01*
X156489762Y-46431000D01*
X156184238Y-46431000D01*
X155984473Y-46391264D01*
X155884590Y-46371396D01*
X155602326Y-46254479D01*
X155348295Y-46084741D01*
X155132259Y-45868705D01*
X154962521Y-45614674D01*
X154845604Y-45332410D01*
X154786000Y-45032760D01*
X154786000Y-44727240D01*
X154845604Y-44427590D01*
X154962521Y-44145326D01*
X155132259Y-43891295D01*
X155348295Y-43675259D01*
X155602326Y-43505521D01*
X155884590Y-43388604D01*
X155984473Y-43368736D01*
X156184238Y-43329000D01*
X156489762Y-43329000D01*
X156689527Y-43368736D01*
X156689527Y-43368736D01*
G37*
G36*
X160689527Y-43368736D02*
X160789410Y-43388604D01*
X161071674Y-43505521D01*
X161325705Y-43675259D01*
X161541741Y-43891295D01*
X161711479Y-44145326D01*
X161828396Y-44427590D01*
X161888000Y-44727240D01*
X161888000Y-45032760D01*
X161828396Y-45332410D01*
X161711479Y-45614674D01*
X161541741Y-45868705D01*
X161325705Y-46084741D01*
X161071674Y-46254479D01*
X160789410Y-46371396D01*
X160689527Y-46391264D01*
X160489762Y-46431000D01*
X160184238Y-46431000D01*
X159984473Y-46391264D01*
X159884590Y-46371396D01*
X159602326Y-46254479D01*
X159348295Y-46084741D01*
X159132259Y-45868705D01*
X158962521Y-45614674D01*
X158845604Y-45332410D01*
X158786000Y-45032760D01*
X158786000Y-44727240D01*
X158845604Y-44427590D01*
X158962521Y-44145326D01*
X159132259Y-43891295D01*
X159348295Y-43675259D01*
X159602326Y-43505521D01*
X159884590Y-43388604D01*
X159984473Y-43368736D01*
X160184238Y-43329000D01*
X160489762Y-43329000D01*
X160689527Y-43368736D01*
X160689527Y-43368736D01*
G37*
G36*
X181327527Y-43368736D02*
X181427410Y-43388604D01*
X181709674Y-43505521D01*
X181963705Y-43675259D01*
X182179741Y-43891295D01*
X182349479Y-44145326D01*
X182466396Y-44427590D01*
X182526000Y-44727240D01*
X182526000Y-45032760D01*
X182466396Y-45332410D01*
X182349479Y-45614674D01*
X182179741Y-45868705D01*
X181963705Y-46084741D01*
X181709674Y-46254479D01*
X181427410Y-46371396D01*
X181327527Y-46391264D01*
X181127762Y-46431000D01*
X180822238Y-46431000D01*
X180622473Y-46391264D01*
X180522590Y-46371396D01*
X180240326Y-46254479D01*
X179986295Y-46084741D01*
X179770259Y-45868705D01*
X179600521Y-45614674D01*
X179483604Y-45332410D01*
X179424000Y-45032760D01*
X179424000Y-44727240D01*
X179483604Y-44427590D01*
X179600521Y-44145326D01*
X179770259Y-43891295D01*
X179986295Y-43675259D01*
X180240326Y-43505521D01*
X180522590Y-43388604D01*
X180622473Y-43368736D01*
X180822238Y-43329000D01*
X181127762Y-43329000D01*
X181327527Y-43368736D01*
X181327527Y-43368736D01*
G37*
M02*
