M48
;DRILL file {KiCad 5.0.0-fee4fd1~65~ubuntu17.10.1} date Thu Mar 21 21:57:42 2019
;FORMAT={-:-/ absolute / inch / decimal}
FMAT,2
INCH,TZ
T1C0.0197
T2C0.0299
T3C0.0315
T4C0.0394
T5C0.0512
T6C0.1260
%
G90
G05
M72
T1
X6.31Y-3.395
X6.435Y-3.445
X6.58Y-2.3
X6.835Y-3.72
T2
X6.73Y-3.26
X6.73Y-3.36
X6.73Y-3.46
X6.73Y-3.56
X6.83Y-3.31
X6.83Y-3.41
X6.83Y-3.51
X6.83Y-3.61
T3
X5.446Y-4.0108
X5.546Y-4.0108
X5.646Y-4.0108
X5.746Y-4.0108
X5.8058Y-2.1108
X5.846Y-4.0108
X5.9058Y-2.1108
X5.946Y-4.0108
X6.0058Y-2.1108
X6.046Y-4.0108
X6.1058Y-2.1108
X6.146Y-4.0108
X6.2058Y-2.1108
X6.246Y-4.0108
X6.3058Y-2.1108
X6.346Y-4.0108
X6.4058Y-2.1108
X6.5058Y-2.1108
X6.5058Y-4.0108
X6.6058Y-4.0108
X6.7058Y-2.1108
X6.7058Y-4.0108
X6.8058Y-2.1108
X6.8058Y-4.0108
X6.9058Y-2.1108
X6.9058Y-4.0108
X7.0058Y-2.1108
X7.0058Y-4.0108
X7.1058Y-2.1108
X7.1058Y-4.0108
X7.2058Y-2.1108
X7.2058Y-4.0108
T4
X6.475Y-2.6681
X6.475Y-2.865
X5.84Y-2.6681
X5.84Y-2.865
X5.5Y-3.145
X5.5Y-3.245
X5.5Y-3.345
X5.5Y-3.445
X5.5Y-3.545
X5.5Y-3.645
T5
X7.215Y-2.5081
X7.215Y-2.705
T6
X7.08Y-3.21
X7.08Y-3.66
T0
M30
