G04 #@! TF.GenerationSoftware,KiCad,Pcbnew,5.0.0-fee4fd1~65~ubuntu17.10.1*
G04 #@! TF.CreationDate,2019-03-23T08:09:03-05:00*
G04 #@! TF.ProjectId,Operator,4F70657261746F722E6B696361645F70,1*
G04 #@! TF.SameCoordinates,Original*
G04 #@! TF.FileFunction,Copper,L2,Bot,Signal*
G04 #@! TF.FilePolarity,Positive*
%FSLAX46Y46*%
G04 Gerber Fmt 4.6, Leading zero omitted, Abs format (unit mm)*
G04 Created by KiCad (PCBNEW 5.0.0-fee4fd1~65~ubuntu17.10.1) date Sat Mar 23 08:09:03 2019*
%MOMM*%
%LPD*%
G01*
G04 APERTURE LIST*
G04 #@! TA.AperFunction,ComponentPad*
%ADD10O,1.600000X1.600000*%
G04 #@! TD*
G04 #@! TA.AperFunction,ComponentPad*
%ADD11R,1.600000X1.600000*%
G04 #@! TD*
G04 #@! TA.AperFunction,ComponentPad*
%ADD12R,2.000000X2.000000*%
G04 #@! TD*
G04 #@! TA.AperFunction,ComponentPad*
%ADD13C,2.000000*%
G04 #@! TD*
G04 #@! TA.AperFunction,ComponentPad*
%ADD14R,1.500000X1.500000*%
G04 #@! TD*
G04 #@! TA.AperFunction,ComponentPad*
%ADD15C,1.500000*%
G04 #@! TD*
G04 #@! TA.AperFunction,ComponentPad*
%ADD16R,2.600000X2.600000*%
G04 #@! TD*
G04 #@! TA.AperFunction,ComponentPad*
%ADD17C,2.600000*%
G04 #@! TD*
G04 #@! TA.AperFunction,ComponentPad*
%ADD18R,1.700000X1.700000*%
G04 #@! TD*
G04 #@! TA.AperFunction,ComponentPad*
%ADD19O,1.700000X1.700000*%
G04 #@! TD*
G04 #@! TA.AperFunction,ViaPad*
%ADD20C,0.900000*%
G04 #@! TD*
G04 #@! TA.AperFunction,Conductor*
%ADD21C,0.500000*%
G04 #@! TD*
G04 #@! TA.AperFunction,Conductor*
%ADD22C,0.254000*%
G04 #@! TD*
G04 APERTURE END LIST*
D10*
G04 #@! TO.P,A1,32*
G04 #@! TO.N,N/C*
X138328001Y-101875001D03*
G04 #@! TO.P,A1,31*
X140868001Y-101875001D03*
D11*
G04 #@! TO.P,A1,1*
X147468001Y-53615001D03*
D10*
G04 #@! TO.P,A1,17*
G04 #@! TO.N,/TransEnable_TTL*
X177948001Y-101875001D03*
G04 #@! TO.P,A1,2*
G04 #@! TO.N,N/C*
X150008001Y-53615001D03*
G04 #@! TO.P,A1,18*
G04 #@! TO.N,/D3*
X175408001Y-101875001D03*
G04 #@! TO.P,A1,3*
G04 #@! TO.N,N/C*
X152548001Y-53615001D03*
G04 #@! TO.P,A1,19*
X172868001Y-101875001D03*
G04 #@! TO.P,A1,4*
X155088001Y-53615001D03*
G04 #@! TO.P,A1,20*
G04 #@! TO.N,/D5*
X170328001Y-101875001D03*
G04 #@! TO.P,A1,5*
G04 #@! TO.N,/5v*
X157628001Y-53615001D03*
G04 #@! TO.P,A1,21*
G04 #@! TO.N,N/C*
X167788001Y-101875001D03*
G04 #@! TO.P,A1,6*
G04 #@! TO.N,/GND*
X160168001Y-53615001D03*
G04 #@! TO.P,A1,22*
G04 #@! TO.N,N/C*
X165248001Y-101875001D03*
G04 #@! TO.P,A1,7*
G04 #@! TO.N,/GND*
X162708001Y-53615001D03*
G04 #@! TO.P,A1,23*
G04 #@! TO.N,N/C*
X161188001Y-101875001D03*
G04 #@! TO.P,A1,8*
X165248001Y-53615001D03*
G04 #@! TO.P,A1,24*
X158648001Y-101875001D03*
G04 #@! TO.P,A1,9*
G04 #@! TO.N,/A0*
X170328001Y-53615001D03*
G04 #@! TO.P,A1,25*
G04 #@! TO.N,N/C*
X156108001Y-101875001D03*
G04 #@! TO.P,A1,10*
X172868001Y-53615001D03*
G04 #@! TO.P,A1,26*
X153568001Y-101875001D03*
G04 #@! TO.P,A1,11*
X175408001Y-53615001D03*
G04 #@! TO.P,A1,27*
X151028001Y-101875001D03*
G04 #@! TO.P,A1,12*
X177948001Y-53615001D03*
G04 #@! TO.P,A1,28*
X148488001Y-101875001D03*
G04 #@! TO.P,A1,13*
G04 #@! TO.N,/A4*
X180488001Y-53615001D03*
G04 #@! TO.P,A1,29*
G04 #@! TO.N,/GND*
X145948001Y-101875001D03*
G04 #@! TO.P,A1,14*
G04 #@! TO.N,/A5*
X183028001Y-53615001D03*
G04 #@! TO.P,A1,30*
G04 #@! TO.N,N/C*
X143408001Y-101875001D03*
G04 #@! TO.P,A1,15*
G04 #@! TO.N,/USART_RX*
X183028001Y-101875001D03*
G04 #@! TO.P,A1,16*
G04 #@! TO.N,/USART_TX*
X180488001Y-101875001D03*
G04 #@! TD*
D12*
G04 #@! TO.P,C1,1*
G04 #@! TO.N,/5v*
X148336000Y-72771000D03*
D13*
G04 #@! TO.P,C1,2*
G04 #@! TO.N,/GND*
X148336000Y-67771000D03*
G04 #@! TD*
G04 #@! TO.P,C2,2*
G04 #@! TO.N,/GND*
X164465000Y-67771000D03*
D12*
G04 #@! TO.P,C2,1*
G04 #@! TO.N,/5v*
X164465000Y-72771000D03*
G04 #@! TD*
D14*
G04 #@! TO.P,J1,1*
G04 #@! TO.N,/-RX*
X173482000Y-91694000D03*
D15*
G04 #@! TO.P,J1,2*
G04 #@! TO.N,/+RX*
X170942000Y-90424000D03*
G04 #@! TO.P,J1,3*
G04 #@! TO.N,/5v*
X173482000Y-89154000D03*
G04 #@! TO.P,J1,4*
G04 #@! TO.N,N/C*
X170942000Y-87884000D03*
G04 #@! TO.P,J1,5*
G04 #@! TO.N,/TransEnable_TTL*
X173482000Y-86614000D03*
G04 #@! TO.P,J1,6*
G04 #@! TO.N,/GND*
X170942000Y-85344000D03*
G04 #@! TO.P,J1,7*
G04 #@! TO.N,/+Tx*
X173482000Y-84074000D03*
G04 #@! TO.P,J1,8*
G04 #@! TO.N,/-TX*
X170942000Y-82804000D03*
G04 #@! TD*
D16*
G04 #@! TO.P,J2,1*
G04 #@! TO.N,/5v*
X183261000Y-68707000D03*
D17*
G04 #@! TO.P,J2,2*
G04 #@! TO.N,/A0*
X183261000Y-63707000D03*
G04 #@! TD*
D18*
G04 #@! TO.P,J3,1*
G04 #@! TO.N,/GND*
X139700000Y-79883000D03*
D19*
G04 #@! TO.P,J3,2*
G04 #@! TO.N,/5v*
X139700000Y-82423000D03*
G04 #@! TO.P,J3,3*
G04 #@! TO.N,/A5*
X139700000Y-84963000D03*
G04 #@! TO.P,J3,4*
G04 #@! TO.N,/A4*
X139700000Y-87503000D03*
G04 #@! TO.P,J3,5*
G04 #@! TO.N,/D5*
X139700000Y-90043000D03*
G04 #@! TO.P,J3,6*
G04 #@! TO.N,/D3*
X139700000Y-92583000D03*
G04 #@! TD*
D20*
G04 #@! TO.N,/GND*
X167132000Y-58420000D03*
X173609000Y-94488000D03*
G04 #@! TO.N,/USART_RX*
X163449000Y-87503000D03*
G04 #@! TO.N,/USART_TX*
X160274000Y-86233000D03*
G04 #@! TD*
D21*
G04 #@! TO.N,/5v*
X175133000Y-81939000D02*
X165965000Y-72771000D01*
X165965000Y-72771000D02*
X164465000Y-72771000D01*
X175133000Y-87503000D02*
X175133000Y-81939000D01*
X173482000Y-89154000D02*
X175133000Y-87503000D01*
G04 #@! TO.N,/USART_RX*
X163449000Y-87503000D02*
X173101000Y-97155000D01*
X178308000Y-97155000D02*
X183028001Y-101875001D01*
X173101000Y-97155000D02*
X178308000Y-97155000D01*
G04 #@! TO.N,/USART_TX*
X177038000Y-98425000D02*
X180488001Y-101875001D01*
X160274000Y-86233000D02*
X172466000Y-98425000D01*
X172466000Y-98425000D02*
X177038000Y-98425000D01*
G04 #@! TO.N,/D3*
X164465000Y-92583000D02*
X139700000Y-92583000D01*
X171450000Y-99568000D02*
X164465000Y-92583000D01*
X175408001Y-101875001D02*
X173101000Y-99568000D01*
X173101000Y-99568000D02*
X171450000Y-99568000D01*
G04 #@! TO.N,/A4*
X180488001Y-53615001D02*
X172000002Y-62103000D01*
X164465000Y-62738000D02*
X139700000Y-87503000D01*
X171365002Y-62738000D02*
X172000002Y-62103000D01*
X164465000Y-62738000D02*
X171365002Y-62738000D01*
G04 #@! TO.N,/A5*
X183028001Y-52483631D02*
X182360370Y-51816000D01*
X183028001Y-53615001D02*
X183028001Y-52483631D01*
X182360370Y-51816000D02*
X169418000Y-51816000D01*
X169418000Y-51816000D02*
X162941000Y-58293000D01*
X162941000Y-61722000D02*
X139700000Y-84963000D01*
X162941000Y-58293000D02*
X162941000Y-61722000D01*
G04 #@! TD*
D22*
G04 #@! TO.N,/GND*
G36*
X168853845Y-51128576D02*
X168853844Y-51128577D01*
X168779951Y-51177951D01*
X168730577Y-51251844D01*
X166654091Y-53328330D01*
X166599741Y-53055092D01*
X166282578Y-52580424D01*
X165807910Y-52263261D01*
X165389334Y-52180001D01*
X165106668Y-52180001D01*
X164688092Y-52263261D01*
X164213424Y-52580424D01*
X163957054Y-52964109D01*
X163860390Y-52759867D01*
X163445424Y-52383960D01*
X163057040Y-52223097D01*
X162835001Y-52345086D01*
X162835001Y-53488001D01*
X162855001Y-53488001D01*
X162855001Y-53742001D01*
X162835001Y-53742001D01*
X162835001Y-54884916D01*
X163057040Y-55006905D01*
X163445424Y-54846042D01*
X163860390Y-54470135D01*
X163957054Y-54265893D01*
X164213424Y-54649578D01*
X164688092Y-54966741D01*
X164961330Y-55021091D01*
X162376847Y-57605575D01*
X162302951Y-57654951D01*
X162107348Y-57947691D01*
X162056000Y-58205836D01*
X162056000Y-58205839D01*
X162038663Y-58293000D01*
X162056000Y-58380161D01*
X162056001Y-61355420D01*
X149983440Y-73427982D01*
X149983440Y-71771000D01*
X149934157Y-71523235D01*
X149793809Y-71313191D01*
X149583765Y-71172843D01*
X149336000Y-71123560D01*
X147336000Y-71123560D01*
X147088235Y-71172843D01*
X146878191Y-71313191D01*
X146737843Y-71523235D01*
X146688560Y-71771000D01*
X146688560Y-73771000D01*
X146737843Y-74018765D01*
X146878191Y-74228809D01*
X147088235Y-74369157D01*
X147336000Y-74418440D01*
X148992982Y-74418440D01*
X141176651Y-82234771D01*
X141098839Y-81843582D01*
X140770625Y-81352375D01*
X140748967Y-81337904D01*
X140909698Y-81271327D01*
X141088327Y-81092699D01*
X141185000Y-80859310D01*
X141185000Y-80168750D01*
X141026250Y-80010000D01*
X139827000Y-80010000D01*
X139827000Y-80030000D01*
X139573000Y-80030000D01*
X139573000Y-80010000D01*
X138373750Y-80010000D01*
X138215000Y-80168750D01*
X138215000Y-80859310D01*
X138311673Y-81092699D01*
X138490302Y-81271327D01*
X138651033Y-81337904D01*
X138629375Y-81352375D01*
X138301161Y-81843582D01*
X138185908Y-82423000D01*
X138301161Y-83002418D01*
X138629375Y-83493625D01*
X138927761Y-83693000D01*
X138629375Y-83892375D01*
X138301161Y-84383582D01*
X138185908Y-84963000D01*
X138301161Y-85542418D01*
X138629375Y-86033625D01*
X138927761Y-86233000D01*
X138629375Y-86432375D01*
X138301161Y-86923582D01*
X138185908Y-87503000D01*
X138301161Y-88082418D01*
X138629375Y-88573625D01*
X138927761Y-88773000D01*
X138629375Y-88972375D01*
X138301161Y-89463582D01*
X138185908Y-90043000D01*
X138301161Y-90622418D01*
X138629375Y-91113625D01*
X138927761Y-91313000D01*
X138629375Y-91512375D01*
X138301161Y-92003582D01*
X138185908Y-92583000D01*
X138301161Y-93162418D01*
X138629375Y-93653625D01*
X139120582Y-93981839D01*
X139553744Y-94068000D01*
X139846256Y-94068000D01*
X140279418Y-93981839D01*
X140770625Y-93653625D01*
X140894656Y-93468000D01*
X164098422Y-93468000D01*
X170762577Y-100132156D01*
X170811951Y-100206049D01*
X170885844Y-100255423D01*
X170885845Y-100255424D01*
X171104690Y-100401652D01*
X171362835Y-100453000D01*
X171362839Y-100453000D01*
X171450000Y-100470337D01*
X171537161Y-100453000D01*
X172661318Y-100453000D01*
X172308092Y-100523261D01*
X171833424Y-100840424D01*
X171598001Y-101192759D01*
X171362578Y-100840424D01*
X170887910Y-100523261D01*
X170469334Y-100440001D01*
X170186668Y-100440001D01*
X169768092Y-100523261D01*
X169293424Y-100840424D01*
X169058001Y-101192759D01*
X168822578Y-100840424D01*
X168347910Y-100523261D01*
X167929334Y-100440001D01*
X167646668Y-100440001D01*
X167228092Y-100523261D01*
X166753424Y-100840424D01*
X166518001Y-101192759D01*
X166282578Y-100840424D01*
X165807910Y-100523261D01*
X165389334Y-100440001D01*
X165106668Y-100440001D01*
X164688092Y-100523261D01*
X164213424Y-100840424D01*
X163896261Y-101315092D01*
X163784888Y-101875001D01*
X163896261Y-102434910D01*
X164213424Y-102909578D01*
X164688092Y-103226741D01*
X165106668Y-103310001D01*
X165389334Y-103310001D01*
X165807910Y-103226741D01*
X166282578Y-102909578D01*
X166518001Y-102557243D01*
X166753424Y-102909578D01*
X167228092Y-103226741D01*
X167646668Y-103310001D01*
X167929334Y-103310001D01*
X168347910Y-103226741D01*
X168822578Y-102909578D01*
X169058001Y-102557243D01*
X169293424Y-102909578D01*
X169768092Y-103226741D01*
X170186668Y-103310001D01*
X170469334Y-103310001D01*
X170887910Y-103226741D01*
X171362578Y-102909578D01*
X171598001Y-102557243D01*
X171833424Y-102909578D01*
X172308092Y-103226741D01*
X172726668Y-103310001D01*
X173009334Y-103310001D01*
X173427910Y-103226741D01*
X173902578Y-102909578D01*
X174138001Y-102557243D01*
X174373424Y-102909578D01*
X174848092Y-103226741D01*
X175266668Y-103310001D01*
X175549334Y-103310001D01*
X175967910Y-103226741D01*
X176442578Y-102909578D01*
X176678001Y-102557243D01*
X176913424Y-102909578D01*
X177388092Y-103226741D01*
X177806668Y-103310001D01*
X178089334Y-103310001D01*
X178507910Y-103226741D01*
X178982578Y-102909578D01*
X179218001Y-102557243D01*
X179453424Y-102909578D01*
X179928092Y-103226741D01*
X180346668Y-103310001D01*
X180629334Y-103310001D01*
X181047910Y-103226741D01*
X181522578Y-102909578D01*
X181758001Y-102557243D01*
X181993424Y-102909578D01*
X182468092Y-103226741D01*
X182886668Y-103310001D01*
X183169334Y-103310001D01*
X183587910Y-103226741D01*
X184062578Y-102909578D01*
X184379741Y-102434910D01*
X184491114Y-101875001D01*
X184379741Y-101315092D01*
X184062578Y-100840424D01*
X183587910Y-100523261D01*
X183169334Y-100440001D01*
X182886668Y-100440001D01*
X182851563Y-100446984D01*
X178995425Y-96590847D01*
X178946049Y-96516951D01*
X178653310Y-96321348D01*
X178395165Y-96270000D01*
X178395161Y-96270000D01*
X178308000Y-96252663D01*
X178220839Y-96270000D01*
X173467579Y-96270000D01*
X164534000Y-87336422D01*
X164534000Y-87287180D01*
X164368818Y-86888397D01*
X164063603Y-86583182D01*
X163664820Y-86418000D01*
X163233180Y-86418000D01*
X162834397Y-86583182D01*
X162529182Y-86888397D01*
X162427194Y-87134616D01*
X161359000Y-86066422D01*
X161359000Y-86017180D01*
X161193818Y-85618397D01*
X160888603Y-85313182D01*
X160489820Y-85148000D01*
X160058180Y-85148000D01*
X159659397Y-85313182D01*
X159354182Y-85618397D01*
X159189000Y-86017180D01*
X159189000Y-86448820D01*
X159354182Y-86847603D01*
X159659397Y-87152818D01*
X160058180Y-87318000D01*
X160107422Y-87318000D01*
X164471347Y-91681925D01*
X164465000Y-91680663D01*
X164377839Y-91698000D01*
X140894656Y-91698000D01*
X140770625Y-91512375D01*
X140472239Y-91313000D01*
X140770625Y-91113625D01*
X141098839Y-90622418D01*
X141214092Y-90043000D01*
X141098839Y-89463582D01*
X140770625Y-88972375D01*
X140472239Y-88773000D01*
X140770625Y-88573625D01*
X141098839Y-88082418D01*
X141214092Y-87503000D01*
X141170538Y-87284040D01*
X143315407Y-85139171D01*
X169544799Y-85139171D01*
X169572770Y-85689448D01*
X169729540Y-86067923D01*
X169970483Y-86135912D01*
X170762395Y-85344000D01*
X171121605Y-85344000D01*
X171913517Y-86135912D01*
X172154460Y-86067923D01*
X172339201Y-85548829D01*
X172311230Y-84998552D01*
X172154460Y-84620077D01*
X171913517Y-84552088D01*
X171121605Y-85344000D01*
X170762395Y-85344000D01*
X169970483Y-84552088D01*
X169729540Y-84620077D01*
X169544799Y-85139171D01*
X143315407Y-85139171D01*
X145926072Y-82528506D01*
X169557000Y-82528506D01*
X169557000Y-83079494D01*
X169767853Y-83588540D01*
X170157460Y-83978147D01*
X170372930Y-84067397D01*
X170218077Y-84131540D01*
X170150088Y-84372483D01*
X170942000Y-85164395D01*
X171733912Y-84372483D01*
X171665923Y-84131540D01*
X171499342Y-84072255D01*
X171726540Y-83978147D01*
X172116147Y-83588540D01*
X172327000Y-83079494D01*
X172327000Y-82528506D01*
X172116147Y-82019460D01*
X171726540Y-81629853D01*
X171217494Y-81419000D01*
X170666506Y-81419000D01*
X170157460Y-81629853D01*
X169767853Y-82019460D01*
X169557000Y-82528506D01*
X145926072Y-82528506D01*
X156683578Y-71771000D01*
X162817560Y-71771000D01*
X162817560Y-73771000D01*
X162866843Y-74018765D01*
X163007191Y-74228809D01*
X163217235Y-74369157D01*
X163465000Y-74418440D01*
X165465000Y-74418440D01*
X165712765Y-74369157D01*
X165922809Y-74228809D01*
X166022313Y-74079891D01*
X174248001Y-82305580D01*
X174248001Y-82892174D01*
X173757494Y-82689000D01*
X173206506Y-82689000D01*
X172697460Y-82899853D01*
X172307853Y-83289460D01*
X172097000Y-83798506D01*
X172097000Y-84349494D01*
X172307853Y-84858540D01*
X172697460Y-85248147D01*
X172928870Y-85344000D01*
X172697460Y-85439853D01*
X172307853Y-85829460D01*
X172097000Y-86338506D01*
X172097000Y-86889494D01*
X172307853Y-87398540D01*
X172697460Y-87788147D01*
X172928870Y-87884000D01*
X172697460Y-87979853D01*
X172307853Y-88369460D01*
X172097000Y-88878506D01*
X172097000Y-89429494D01*
X172307853Y-89938540D01*
X172676844Y-90307531D01*
X172484235Y-90345843D01*
X172327000Y-90450905D01*
X172327000Y-90148506D01*
X172116147Y-89639460D01*
X171726540Y-89249853D01*
X171495130Y-89154000D01*
X171726540Y-89058147D01*
X172116147Y-88668540D01*
X172327000Y-88159494D01*
X172327000Y-87608506D01*
X172116147Y-87099460D01*
X171726540Y-86709853D01*
X171511070Y-86620603D01*
X171665923Y-86556460D01*
X171733912Y-86315517D01*
X170942000Y-85523605D01*
X170150088Y-86315517D01*
X170218077Y-86556460D01*
X170384658Y-86615745D01*
X170157460Y-86709853D01*
X169767853Y-87099460D01*
X169557000Y-87608506D01*
X169557000Y-88159494D01*
X169767853Y-88668540D01*
X170157460Y-89058147D01*
X170388870Y-89154000D01*
X170157460Y-89249853D01*
X169767853Y-89639460D01*
X169557000Y-90148506D01*
X169557000Y-90699494D01*
X169767853Y-91208540D01*
X170157460Y-91598147D01*
X170666506Y-91809000D01*
X171217494Y-91809000D01*
X171726540Y-91598147D01*
X172084560Y-91240127D01*
X172084560Y-92444000D01*
X172133843Y-92691765D01*
X172274191Y-92901809D01*
X172484235Y-93042157D01*
X172732000Y-93091440D01*
X174232000Y-93091440D01*
X174479765Y-93042157D01*
X174689809Y-92901809D01*
X174830157Y-92691765D01*
X174864436Y-92519431D01*
X177597000Y-92519431D01*
X177597000Y-93408569D01*
X177937259Y-94230026D01*
X178565974Y-94858741D01*
X179387431Y-95199000D01*
X180276569Y-95199000D01*
X181098026Y-94858741D01*
X181726741Y-94230026D01*
X182067000Y-93408569D01*
X182067000Y-92519431D01*
X181726741Y-91697974D01*
X181098026Y-91069259D01*
X180276569Y-90729000D01*
X179387431Y-90729000D01*
X178565974Y-91069259D01*
X177937259Y-91697974D01*
X177597000Y-92519431D01*
X174864436Y-92519431D01*
X174879440Y-92444000D01*
X174879440Y-90944000D01*
X174830157Y-90696235D01*
X174689809Y-90486191D01*
X174479765Y-90345843D01*
X174287156Y-90307531D01*
X174656147Y-89938540D01*
X174867000Y-89429494D01*
X174867000Y-89020578D01*
X175697156Y-88190423D01*
X175771049Y-88141049D01*
X175820425Y-88067154D01*
X175966652Y-87848310D01*
X175978619Y-87788147D01*
X176018000Y-87590165D01*
X176018000Y-87590161D01*
X176035337Y-87503000D01*
X176018000Y-87415839D01*
X176018000Y-82026161D01*
X176035337Y-81939000D01*
X176018000Y-81851839D01*
X176018000Y-81851835D01*
X175966652Y-81593690D01*
X175820424Y-81374845D01*
X175820423Y-81374844D01*
X175771049Y-81300951D01*
X175697156Y-81251577D01*
X175535010Y-81089431D01*
X177597000Y-81089431D01*
X177597000Y-81978569D01*
X177937259Y-82800026D01*
X178565974Y-83428741D01*
X179387431Y-83769000D01*
X180276569Y-83769000D01*
X181098026Y-83428741D01*
X181726741Y-82800026D01*
X182067000Y-81978569D01*
X182067000Y-81089431D01*
X181726741Y-80267974D01*
X181098026Y-79639259D01*
X180276569Y-79299000D01*
X179387431Y-79299000D01*
X178565974Y-79639259D01*
X177937259Y-80267974D01*
X177597000Y-81089431D01*
X175535010Y-81089431D01*
X166652425Y-72206847D01*
X166603049Y-72132951D01*
X166310310Y-71937348D01*
X166112440Y-71897989D01*
X166112440Y-71771000D01*
X166063157Y-71523235D01*
X165922809Y-71313191D01*
X165712765Y-71172843D01*
X165465000Y-71123560D01*
X163465000Y-71123560D01*
X163217235Y-71172843D01*
X163007191Y-71313191D01*
X162866843Y-71523235D01*
X162817560Y-71771000D01*
X156683578Y-71771000D01*
X159531046Y-68923532D01*
X163492073Y-68923532D01*
X163590736Y-69190387D01*
X164200461Y-69416908D01*
X164850460Y-69392856D01*
X165339264Y-69190387D01*
X165437927Y-68923532D01*
X164465000Y-67950605D01*
X163492073Y-68923532D01*
X159531046Y-68923532D01*
X160948117Y-67506461D01*
X162819092Y-67506461D01*
X162843144Y-68156460D01*
X163045613Y-68645264D01*
X163312468Y-68743927D01*
X164285395Y-67771000D01*
X164644605Y-67771000D01*
X165617532Y-68743927D01*
X165884387Y-68645264D01*
X166110908Y-68035539D01*
X166087651Y-67407000D01*
X181313560Y-67407000D01*
X181313560Y-70007000D01*
X181362843Y-70254765D01*
X181503191Y-70464809D01*
X181713235Y-70605157D01*
X181961000Y-70654440D01*
X184561000Y-70654440D01*
X184808765Y-70605157D01*
X185018809Y-70464809D01*
X185159157Y-70254765D01*
X185208440Y-70007000D01*
X185208440Y-67407000D01*
X185159157Y-67159235D01*
X185018809Y-66949191D01*
X184808765Y-66808843D01*
X184561000Y-66759560D01*
X181961000Y-66759560D01*
X181713235Y-66808843D01*
X181503191Y-66949191D01*
X181362843Y-67159235D01*
X181313560Y-67407000D01*
X166087651Y-67407000D01*
X166086856Y-67385540D01*
X165884387Y-66896736D01*
X165617532Y-66798073D01*
X164644605Y-67771000D01*
X164285395Y-67771000D01*
X163312468Y-66798073D01*
X163045613Y-66896736D01*
X162819092Y-67506461D01*
X160948117Y-67506461D01*
X161836110Y-66618468D01*
X163492073Y-66618468D01*
X164465000Y-67591395D01*
X165437927Y-66618468D01*
X165339264Y-66351613D01*
X164729539Y-66125092D01*
X164079540Y-66149144D01*
X163590736Y-66351613D01*
X163492073Y-66618468D01*
X161836110Y-66618468D01*
X164831579Y-63623000D01*
X171277841Y-63623000D01*
X171365002Y-63640337D01*
X171452163Y-63623000D01*
X171452167Y-63623000D01*
X171710312Y-63571652D01*
X172003051Y-63376049D01*
X172039095Y-63322105D01*
X181326000Y-63322105D01*
X181326000Y-64091895D01*
X181620586Y-64803090D01*
X182164910Y-65347414D01*
X182876105Y-65642000D01*
X183645895Y-65642000D01*
X184357090Y-65347414D01*
X184901414Y-64803090D01*
X185196000Y-64091895D01*
X185196000Y-63322105D01*
X184901414Y-62610910D01*
X184357090Y-62066586D01*
X183645895Y-61772000D01*
X182876105Y-61772000D01*
X182164910Y-62066586D01*
X181620586Y-62610910D01*
X181326000Y-63322105D01*
X172039095Y-63322105D01*
X172052427Y-63302154D01*
X172687426Y-62667155D01*
X172687428Y-62667152D01*
X180311563Y-55043018D01*
X180346668Y-55050001D01*
X180629334Y-55050001D01*
X181047910Y-54966741D01*
X181522578Y-54649578D01*
X181758001Y-54297243D01*
X181993424Y-54649578D01*
X182468092Y-54966741D01*
X182886668Y-55050001D01*
X183169334Y-55050001D01*
X183587910Y-54966741D01*
X184062578Y-54649578D01*
X184379741Y-54174910D01*
X184491114Y-53615001D01*
X184379741Y-53055092D01*
X184062578Y-52580424D01*
X183928857Y-52491075D01*
X183930338Y-52483631D01*
X183913001Y-52396470D01*
X183913001Y-52396466D01*
X183861653Y-52138321D01*
X183841352Y-52107939D01*
X183715425Y-51919476D01*
X183715424Y-51919475D01*
X183666050Y-51845582D01*
X183592157Y-51796208D01*
X183047795Y-51251847D01*
X182998419Y-51177951D01*
X182735091Y-51002000D01*
X184108752Y-51002000D01*
X184686751Y-51069388D01*
X185194705Y-51253766D01*
X185646624Y-51550057D01*
X186018258Y-51942364D01*
X186289675Y-52409641D01*
X186449134Y-52936132D01*
X186488001Y-53371630D01*
X186488000Y-101431752D01*
X186420612Y-102009751D01*
X186236234Y-102517705D01*
X185939941Y-102969625D01*
X185547636Y-103341259D01*
X185080354Y-103612677D01*
X184553867Y-103772134D01*
X184118381Y-103811000D01*
X136439248Y-103811000D01*
X135861249Y-103743612D01*
X135353295Y-103559234D01*
X134901375Y-103262941D01*
X134529741Y-102870636D01*
X134258323Y-102403354D01*
X134098866Y-101876867D01*
X134098700Y-101875001D01*
X136864888Y-101875001D01*
X136976261Y-102434910D01*
X137293424Y-102909578D01*
X137768092Y-103226741D01*
X138186668Y-103310001D01*
X138469334Y-103310001D01*
X138887910Y-103226741D01*
X139362578Y-102909578D01*
X139598001Y-102557243D01*
X139833424Y-102909578D01*
X140308092Y-103226741D01*
X140726668Y-103310001D01*
X141009334Y-103310001D01*
X141427910Y-103226741D01*
X141902578Y-102909578D01*
X142138001Y-102557243D01*
X142373424Y-102909578D01*
X142848092Y-103226741D01*
X143266668Y-103310001D01*
X143549334Y-103310001D01*
X143967910Y-103226741D01*
X144442578Y-102909578D01*
X144698948Y-102525893D01*
X144795612Y-102730135D01*
X145210578Y-103106042D01*
X145598962Y-103266905D01*
X145821001Y-103144916D01*
X145821001Y-102002001D01*
X145801001Y-102002001D01*
X145801001Y-101748001D01*
X145821001Y-101748001D01*
X145821001Y-100605086D01*
X146075001Y-100605086D01*
X146075001Y-101748001D01*
X146095001Y-101748001D01*
X146095001Y-102002001D01*
X146075001Y-102002001D01*
X146075001Y-103144916D01*
X146297040Y-103266905D01*
X146685424Y-103106042D01*
X147100390Y-102730135D01*
X147197054Y-102525893D01*
X147453424Y-102909578D01*
X147928092Y-103226741D01*
X148346668Y-103310001D01*
X148629334Y-103310001D01*
X149047910Y-103226741D01*
X149522578Y-102909578D01*
X149758001Y-102557243D01*
X149993424Y-102909578D01*
X150468092Y-103226741D01*
X150886668Y-103310001D01*
X151169334Y-103310001D01*
X151587910Y-103226741D01*
X152062578Y-102909578D01*
X152298001Y-102557243D01*
X152533424Y-102909578D01*
X153008092Y-103226741D01*
X153426668Y-103310001D01*
X153709334Y-103310001D01*
X154127910Y-103226741D01*
X154602578Y-102909578D01*
X154838001Y-102557243D01*
X155073424Y-102909578D01*
X155548092Y-103226741D01*
X155966668Y-103310001D01*
X156249334Y-103310001D01*
X156667910Y-103226741D01*
X157142578Y-102909578D01*
X157378001Y-102557243D01*
X157613424Y-102909578D01*
X158088092Y-103226741D01*
X158506668Y-103310001D01*
X158789334Y-103310001D01*
X159207910Y-103226741D01*
X159682578Y-102909578D01*
X159918001Y-102557243D01*
X160153424Y-102909578D01*
X160628092Y-103226741D01*
X161046668Y-103310001D01*
X161329334Y-103310001D01*
X161747910Y-103226741D01*
X162222578Y-102909578D01*
X162539741Y-102434910D01*
X162651114Y-101875001D01*
X162539741Y-101315092D01*
X162222578Y-100840424D01*
X161747910Y-100523261D01*
X161329334Y-100440001D01*
X161046668Y-100440001D01*
X160628092Y-100523261D01*
X160153424Y-100840424D01*
X159918001Y-101192759D01*
X159682578Y-100840424D01*
X159207910Y-100523261D01*
X158789334Y-100440001D01*
X158506668Y-100440001D01*
X158088092Y-100523261D01*
X157613424Y-100840424D01*
X157378001Y-101192759D01*
X157142578Y-100840424D01*
X156667910Y-100523261D01*
X156249334Y-100440001D01*
X155966668Y-100440001D01*
X155548092Y-100523261D01*
X155073424Y-100840424D01*
X154838001Y-101192759D01*
X154602578Y-100840424D01*
X154127910Y-100523261D01*
X153709334Y-100440001D01*
X153426668Y-100440001D01*
X153008092Y-100523261D01*
X152533424Y-100840424D01*
X152298001Y-101192759D01*
X152062578Y-100840424D01*
X151587910Y-100523261D01*
X151169334Y-100440001D01*
X150886668Y-100440001D01*
X150468092Y-100523261D01*
X149993424Y-100840424D01*
X149758001Y-101192759D01*
X149522578Y-100840424D01*
X149047910Y-100523261D01*
X148629334Y-100440001D01*
X148346668Y-100440001D01*
X147928092Y-100523261D01*
X147453424Y-100840424D01*
X147197054Y-101224109D01*
X147100390Y-101019867D01*
X146685424Y-100643960D01*
X146297040Y-100483097D01*
X146075001Y-100605086D01*
X145821001Y-100605086D01*
X145598962Y-100483097D01*
X145210578Y-100643960D01*
X144795612Y-101019867D01*
X144698948Y-101224109D01*
X144442578Y-100840424D01*
X143967910Y-100523261D01*
X143549334Y-100440001D01*
X143266668Y-100440001D01*
X142848092Y-100523261D01*
X142373424Y-100840424D01*
X142138001Y-101192759D01*
X141902578Y-100840424D01*
X141427910Y-100523261D01*
X141009334Y-100440001D01*
X140726668Y-100440001D01*
X140308092Y-100523261D01*
X139833424Y-100840424D01*
X139598001Y-101192759D01*
X139362578Y-100840424D01*
X138887910Y-100523261D01*
X138469334Y-100440001D01*
X138186668Y-100440001D01*
X137768092Y-100523261D01*
X137293424Y-100840424D01*
X136976261Y-101315092D01*
X136864888Y-101875001D01*
X134098700Y-101875001D01*
X134060000Y-101441381D01*
X134060000Y-78906690D01*
X138215000Y-78906690D01*
X138215000Y-79597250D01*
X138373750Y-79756000D01*
X139573000Y-79756000D01*
X139573000Y-78556750D01*
X139827000Y-78556750D01*
X139827000Y-79756000D01*
X141026250Y-79756000D01*
X141185000Y-79597250D01*
X141185000Y-78906690D01*
X141088327Y-78673301D01*
X140909698Y-78494673D01*
X140676309Y-78398000D01*
X139985750Y-78398000D01*
X139827000Y-78556750D01*
X139573000Y-78556750D01*
X139414250Y-78398000D01*
X138723691Y-78398000D01*
X138490302Y-78494673D01*
X138311673Y-78673301D01*
X138215000Y-78906690D01*
X134060000Y-78906690D01*
X134060000Y-68923532D01*
X147363073Y-68923532D01*
X147461736Y-69190387D01*
X148071461Y-69416908D01*
X148721460Y-69392856D01*
X149210264Y-69190387D01*
X149308927Y-68923532D01*
X148336000Y-67950605D01*
X147363073Y-68923532D01*
X134060000Y-68923532D01*
X134060000Y-67506461D01*
X146690092Y-67506461D01*
X146714144Y-68156460D01*
X146916613Y-68645264D01*
X147183468Y-68743927D01*
X148156395Y-67771000D01*
X148515605Y-67771000D01*
X149488532Y-68743927D01*
X149755387Y-68645264D01*
X149981908Y-68035539D01*
X149957856Y-67385540D01*
X149755387Y-66896736D01*
X149488532Y-66798073D01*
X148515605Y-67771000D01*
X148156395Y-67771000D01*
X147183468Y-66798073D01*
X146916613Y-66896736D01*
X146690092Y-67506461D01*
X134060000Y-67506461D01*
X134060000Y-66618468D01*
X147363073Y-66618468D01*
X148336000Y-67591395D01*
X149308927Y-66618468D01*
X149210264Y-66351613D01*
X148600539Y-66125092D01*
X147950540Y-66149144D01*
X147461736Y-66351613D01*
X147363073Y-66618468D01*
X134060000Y-66618468D01*
X134060000Y-53381248D01*
X134126017Y-52815001D01*
X146020561Y-52815001D01*
X146020561Y-54415001D01*
X146069844Y-54662766D01*
X146210192Y-54872810D01*
X146420236Y-55013158D01*
X146668001Y-55062441D01*
X148268001Y-55062441D01*
X148515766Y-55013158D01*
X148725810Y-54872810D01*
X148866158Y-54662766D01*
X148892786Y-54528895D01*
X148973424Y-54649578D01*
X149448092Y-54966741D01*
X149866668Y-55050001D01*
X150149334Y-55050001D01*
X150567910Y-54966741D01*
X151042578Y-54649578D01*
X151278001Y-54297243D01*
X151513424Y-54649578D01*
X151988092Y-54966741D01*
X152406668Y-55050001D01*
X152689334Y-55050001D01*
X153107910Y-54966741D01*
X153582578Y-54649578D01*
X153818001Y-54297243D01*
X154053424Y-54649578D01*
X154528092Y-54966741D01*
X154946668Y-55050001D01*
X155229334Y-55050001D01*
X155647910Y-54966741D01*
X156122578Y-54649578D01*
X156358001Y-54297243D01*
X156593424Y-54649578D01*
X157068092Y-54966741D01*
X157486668Y-55050001D01*
X157769334Y-55050001D01*
X158187910Y-54966741D01*
X158662578Y-54649578D01*
X158918948Y-54265893D01*
X159015612Y-54470135D01*
X159430578Y-54846042D01*
X159818962Y-55006905D01*
X160041001Y-54884916D01*
X160041001Y-53742001D01*
X160295001Y-53742001D01*
X160295001Y-54884916D01*
X160517040Y-55006905D01*
X160905424Y-54846042D01*
X161320390Y-54470135D01*
X161438001Y-54221634D01*
X161555612Y-54470135D01*
X161970578Y-54846042D01*
X162358962Y-55006905D01*
X162581001Y-54884916D01*
X162581001Y-53742001D01*
X160295001Y-53742001D01*
X160041001Y-53742001D01*
X160021001Y-53742001D01*
X160021001Y-53488001D01*
X160041001Y-53488001D01*
X160041001Y-52345086D01*
X160295001Y-52345086D01*
X160295001Y-53488001D01*
X162581001Y-53488001D01*
X162581001Y-52345086D01*
X162358962Y-52223097D01*
X161970578Y-52383960D01*
X161555612Y-52759867D01*
X161438001Y-53008368D01*
X161320390Y-52759867D01*
X160905424Y-52383960D01*
X160517040Y-52223097D01*
X160295001Y-52345086D01*
X160041001Y-52345086D01*
X159818962Y-52223097D01*
X159430578Y-52383960D01*
X159015612Y-52759867D01*
X158918948Y-52964109D01*
X158662578Y-52580424D01*
X158187910Y-52263261D01*
X157769334Y-52180001D01*
X157486668Y-52180001D01*
X157068092Y-52263261D01*
X156593424Y-52580424D01*
X156358001Y-52932759D01*
X156122578Y-52580424D01*
X155647910Y-52263261D01*
X155229334Y-52180001D01*
X154946668Y-52180001D01*
X154528092Y-52263261D01*
X154053424Y-52580424D01*
X153818001Y-52932759D01*
X153582578Y-52580424D01*
X153107910Y-52263261D01*
X152689334Y-52180001D01*
X152406668Y-52180001D01*
X151988092Y-52263261D01*
X151513424Y-52580424D01*
X151278001Y-52932759D01*
X151042578Y-52580424D01*
X150567910Y-52263261D01*
X150149334Y-52180001D01*
X149866668Y-52180001D01*
X149448092Y-52263261D01*
X148973424Y-52580424D01*
X148892786Y-52701107D01*
X148866158Y-52567236D01*
X148725810Y-52357192D01*
X148515766Y-52216844D01*
X148268001Y-52167561D01*
X146668001Y-52167561D01*
X146420236Y-52216844D01*
X146210192Y-52357192D01*
X146069844Y-52567236D01*
X146020561Y-52815001D01*
X134126017Y-52815001D01*
X134127388Y-52803249D01*
X134311766Y-52295295D01*
X134608057Y-51843376D01*
X135000364Y-51471742D01*
X135467641Y-51200325D01*
X135994132Y-51040866D01*
X136429619Y-51002000D01*
X169043279Y-51002000D01*
X168853845Y-51128576D01*
X168853845Y-51128576D01*
G37*
X168853845Y-51128576D02*
X168853844Y-51128577D01*
X168779951Y-51177951D01*
X168730577Y-51251844D01*
X166654091Y-53328330D01*
X166599741Y-53055092D01*
X166282578Y-52580424D01*
X165807910Y-52263261D01*
X165389334Y-52180001D01*
X165106668Y-52180001D01*
X164688092Y-52263261D01*
X164213424Y-52580424D01*
X163957054Y-52964109D01*
X163860390Y-52759867D01*
X163445424Y-52383960D01*
X163057040Y-52223097D01*
X162835001Y-52345086D01*
X162835001Y-53488001D01*
X162855001Y-53488001D01*
X162855001Y-53742001D01*
X162835001Y-53742001D01*
X162835001Y-54884916D01*
X163057040Y-55006905D01*
X163445424Y-54846042D01*
X163860390Y-54470135D01*
X163957054Y-54265893D01*
X164213424Y-54649578D01*
X164688092Y-54966741D01*
X164961330Y-55021091D01*
X162376847Y-57605575D01*
X162302951Y-57654951D01*
X162107348Y-57947691D01*
X162056000Y-58205836D01*
X162056000Y-58205839D01*
X162038663Y-58293000D01*
X162056000Y-58380161D01*
X162056001Y-61355420D01*
X149983440Y-73427982D01*
X149983440Y-71771000D01*
X149934157Y-71523235D01*
X149793809Y-71313191D01*
X149583765Y-71172843D01*
X149336000Y-71123560D01*
X147336000Y-71123560D01*
X147088235Y-71172843D01*
X146878191Y-71313191D01*
X146737843Y-71523235D01*
X146688560Y-71771000D01*
X146688560Y-73771000D01*
X146737843Y-74018765D01*
X146878191Y-74228809D01*
X147088235Y-74369157D01*
X147336000Y-74418440D01*
X148992982Y-74418440D01*
X141176651Y-82234771D01*
X141098839Y-81843582D01*
X140770625Y-81352375D01*
X140748967Y-81337904D01*
X140909698Y-81271327D01*
X141088327Y-81092699D01*
X141185000Y-80859310D01*
X141185000Y-80168750D01*
X141026250Y-80010000D01*
X139827000Y-80010000D01*
X139827000Y-80030000D01*
X139573000Y-80030000D01*
X139573000Y-80010000D01*
X138373750Y-80010000D01*
X138215000Y-80168750D01*
X138215000Y-80859310D01*
X138311673Y-81092699D01*
X138490302Y-81271327D01*
X138651033Y-81337904D01*
X138629375Y-81352375D01*
X138301161Y-81843582D01*
X138185908Y-82423000D01*
X138301161Y-83002418D01*
X138629375Y-83493625D01*
X138927761Y-83693000D01*
X138629375Y-83892375D01*
X138301161Y-84383582D01*
X138185908Y-84963000D01*
X138301161Y-85542418D01*
X138629375Y-86033625D01*
X138927761Y-86233000D01*
X138629375Y-86432375D01*
X138301161Y-86923582D01*
X138185908Y-87503000D01*
X138301161Y-88082418D01*
X138629375Y-88573625D01*
X138927761Y-88773000D01*
X138629375Y-88972375D01*
X138301161Y-89463582D01*
X138185908Y-90043000D01*
X138301161Y-90622418D01*
X138629375Y-91113625D01*
X138927761Y-91313000D01*
X138629375Y-91512375D01*
X138301161Y-92003582D01*
X138185908Y-92583000D01*
X138301161Y-93162418D01*
X138629375Y-93653625D01*
X139120582Y-93981839D01*
X139553744Y-94068000D01*
X139846256Y-94068000D01*
X140279418Y-93981839D01*
X140770625Y-93653625D01*
X140894656Y-93468000D01*
X164098422Y-93468000D01*
X170762577Y-100132156D01*
X170811951Y-100206049D01*
X170885844Y-100255423D01*
X170885845Y-100255424D01*
X171104690Y-100401652D01*
X171362835Y-100453000D01*
X171362839Y-100453000D01*
X171450000Y-100470337D01*
X171537161Y-100453000D01*
X172661318Y-100453000D01*
X172308092Y-100523261D01*
X171833424Y-100840424D01*
X171598001Y-101192759D01*
X171362578Y-100840424D01*
X170887910Y-100523261D01*
X170469334Y-100440001D01*
X170186668Y-100440001D01*
X169768092Y-100523261D01*
X169293424Y-100840424D01*
X169058001Y-101192759D01*
X168822578Y-100840424D01*
X168347910Y-100523261D01*
X167929334Y-100440001D01*
X167646668Y-100440001D01*
X167228092Y-100523261D01*
X166753424Y-100840424D01*
X166518001Y-101192759D01*
X166282578Y-100840424D01*
X165807910Y-100523261D01*
X165389334Y-100440001D01*
X165106668Y-100440001D01*
X164688092Y-100523261D01*
X164213424Y-100840424D01*
X163896261Y-101315092D01*
X163784888Y-101875001D01*
X163896261Y-102434910D01*
X164213424Y-102909578D01*
X164688092Y-103226741D01*
X165106668Y-103310001D01*
X165389334Y-103310001D01*
X165807910Y-103226741D01*
X166282578Y-102909578D01*
X166518001Y-102557243D01*
X166753424Y-102909578D01*
X167228092Y-103226741D01*
X167646668Y-103310001D01*
X167929334Y-103310001D01*
X168347910Y-103226741D01*
X168822578Y-102909578D01*
X169058001Y-102557243D01*
X169293424Y-102909578D01*
X169768092Y-103226741D01*
X170186668Y-103310001D01*
X170469334Y-103310001D01*
X170887910Y-103226741D01*
X171362578Y-102909578D01*
X171598001Y-102557243D01*
X171833424Y-102909578D01*
X172308092Y-103226741D01*
X172726668Y-103310001D01*
X173009334Y-103310001D01*
X173427910Y-103226741D01*
X173902578Y-102909578D01*
X174138001Y-102557243D01*
X174373424Y-102909578D01*
X174848092Y-103226741D01*
X175266668Y-103310001D01*
X175549334Y-103310001D01*
X175967910Y-103226741D01*
X176442578Y-102909578D01*
X176678001Y-102557243D01*
X176913424Y-102909578D01*
X177388092Y-103226741D01*
X177806668Y-103310001D01*
X178089334Y-103310001D01*
X178507910Y-103226741D01*
X178982578Y-102909578D01*
X179218001Y-102557243D01*
X179453424Y-102909578D01*
X179928092Y-103226741D01*
X180346668Y-103310001D01*
X180629334Y-103310001D01*
X181047910Y-103226741D01*
X181522578Y-102909578D01*
X181758001Y-102557243D01*
X181993424Y-102909578D01*
X182468092Y-103226741D01*
X182886668Y-103310001D01*
X183169334Y-103310001D01*
X183587910Y-103226741D01*
X184062578Y-102909578D01*
X184379741Y-102434910D01*
X184491114Y-101875001D01*
X184379741Y-101315092D01*
X184062578Y-100840424D01*
X183587910Y-100523261D01*
X183169334Y-100440001D01*
X182886668Y-100440001D01*
X182851563Y-100446984D01*
X178995425Y-96590847D01*
X178946049Y-96516951D01*
X178653310Y-96321348D01*
X178395165Y-96270000D01*
X178395161Y-96270000D01*
X178308000Y-96252663D01*
X178220839Y-96270000D01*
X173467579Y-96270000D01*
X164534000Y-87336422D01*
X164534000Y-87287180D01*
X164368818Y-86888397D01*
X164063603Y-86583182D01*
X163664820Y-86418000D01*
X163233180Y-86418000D01*
X162834397Y-86583182D01*
X162529182Y-86888397D01*
X162427194Y-87134616D01*
X161359000Y-86066422D01*
X161359000Y-86017180D01*
X161193818Y-85618397D01*
X160888603Y-85313182D01*
X160489820Y-85148000D01*
X160058180Y-85148000D01*
X159659397Y-85313182D01*
X159354182Y-85618397D01*
X159189000Y-86017180D01*
X159189000Y-86448820D01*
X159354182Y-86847603D01*
X159659397Y-87152818D01*
X160058180Y-87318000D01*
X160107422Y-87318000D01*
X164471347Y-91681925D01*
X164465000Y-91680663D01*
X164377839Y-91698000D01*
X140894656Y-91698000D01*
X140770625Y-91512375D01*
X140472239Y-91313000D01*
X140770625Y-91113625D01*
X141098839Y-90622418D01*
X141214092Y-90043000D01*
X141098839Y-89463582D01*
X140770625Y-88972375D01*
X140472239Y-88773000D01*
X140770625Y-88573625D01*
X141098839Y-88082418D01*
X141214092Y-87503000D01*
X141170538Y-87284040D01*
X143315407Y-85139171D01*
X169544799Y-85139171D01*
X169572770Y-85689448D01*
X169729540Y-86067923D01*
X169970483Y-86135912D01*
X170762395Y-85344000D01*
X171121605Y-85344000D01*
X171913517Y-86135912D01*
X172154460Y-86067923D01*
X172339201Y-85548829D01*
X172311230Y-84998552D01*
X172154460Y-84620077D01*
X171913517Y-84552088D01*
X171121605Y-85344000D01*
X170762395Y-85344000D01*
X169970483Y-84552088D01*
X169729540Y-84620077D01*
X169544799Y-85139171D01*
X143315407Y-85139171D01*
X145926072Y-82528506D01*
X169557000Y-82528506D01*
X169557000Y-83079494D01*
X169767853Y-83588540D01*
X170157460Y-83978147D01*
X170372930Y-84067397D01*
X170218077Y-84131540D01*
X170150088Y-84372483D01*
X170942000Y-85164395D01*
X171733912Y-84372483D01*
X171665923Y-84131540D01*
X171499342Y-84072255D01*
X171726540Y-83978147D01*
X172116147Y-83588540D01*
X172327000Y-83079494D01*
X172327000Y-82528506D01*
X172116147Y-82019460D01*
X171726540Y-81629853D01*
X171217494Y-81419000D01*
X170666506Y-81419000D01*
X170157460Y-81629853D01*
X169767853Y-82019460D01*
X169557000Y-82528506D01*
X145926072Y-82528506D01*
X156683578Y-71771000D01*
X162817560Y-71771000D01*
X162817560Y-73771000D01*
X162866843Y-74018765D01*
X163007191Y-74228809D01*
X163217235Y-74369157D01*
X163465000Y-74418440D01*
X165465000Y-74418440D01*
X165712765Y-74369157D01*
X165922809Y-74228809D01*
X166022313Y-74079891D01*
X174248001Y-82305580D01*
X174248001Y-82892174D01*
X173757494Y-82689000D01*
X173206506Y-82689000D01*
X172697460Y-82899853D01*
X172307853Y-83289460D01*
X172097000Y-83798506D01*
X172097000Y-84349494D01*
X172307853Y-84858540D01*
X172697460Y-85248147D01*
X172928870Y-85344000D01*
X172697460Y-85439853D01*
X172307853Y-85829460D01*
X172097000Y-86338506D01*
X172097000Y-86889494D01*
X172307853Y-87398540D01*
X172697460Y-87788147D01*
X172928870Y-87884000D01*
X172697460Y-87979853D01*
X172307853Y-88369460D01*
X172097000Y-88878506D01*
X172097000Y-89429494D01*
X172307853Y-89938540D01*
X172676844Y-90307531D01*
X172484235Y-90345843D01*
X172327000Y-90450905D01*
X172327000Y-90148506D01*
X172116147Y-89639460D01*
X171726540Y-89249853D01*
X171495130Y-89154000D01*
X171726540Y-89058147D01*
X172116147Y-88668540D01*
X172327000Y-88159494D01*
X172327000Y-87608506D01*
X172116147Y-87099460D01*
X171726540Y-86709853D01*
X171511070Y-86620603D01*
X171665923Y-86556460D01*
X171733912Y-86315517D01*
X170942000Y-85523605D01*
X170150088Y-86315517D01*
X170218077Y-86556460D01*
X170384658Y-86615745D01*
X170157460Y-86709853D01*
X169767853Y-87099460D01*
X169557000Y-87608506D01*
X169557000Y-88159494D01*
X169767853Y-88668540D01*
X170157460Y-89058147D01*
X170388870Y-89154000D01*
X170157460Y-89249853D01*
X169767853Y-89639460D01*
X169557000Y-90148506D01*
X169557000Y-90699494D01*
X169767853Y-91208540D01*
X170157460Y-91598147D01*
X170666506Y-91809000D01*
X171217494Y-91809000D01*
X171726540Y-91598147D01*
X172084560Y-91240127D01*
X172084560Y-92444000D01*
X172133843Y-92691765D01*
X172274191Y-92901809D01*
X172484235Y-93042157D01*
X172732000Y-93091440D01*
X174232000Y-93091440D01*
X174479765Y-93042157D01*
X174689809Y-92901809D01*
X174830157Y-92691765D01*
X174864436Y-92519431D01*
X177597000Y-92519431D01*
X177597000Y-93408569D01*
X177937259Y-94230026D01*
X178565974Y-94858741D01*
X179387431Y-95199000D01*
X180276569Y-95199000D01*
X181098026Y-94858741D01*
X181726741Y-94230026D01*
X182067000Y-93408569D01*
X182067000Y-92519431D01*
X181726741Y-91697974D01*
X181098026Y-91069259D01*
X180276569Y-90729000D01*
X179387431Y-90729000D01*
X178565974Y-91069259D01*
X177937259Y-91697974D01*
X177597000Y-92519431D01*
X174864436Y-92519431D01*
X174879440Y-92444000D01*
X174879440Y-90944000D01*
X174830157Y-90696235D01*
X174689809Y-90486191D01*
X174479765Y-90345843D01*
X174287156Y-90307531D01*
X174656147Y-89938540D01*
X174867000Y-89429494D01*
X174867000Y-89020578D01*
X175697156Y-88190423D01*
X175771049Y-88141049D01*
X175820425Y-88067154D01*
X175966652Y-87848310D01*
X175978619Y-87788147D01*
X176018000Y-87590165D01*
X176018000Y-87590161D01*
X176035337Y-87503000D01*
X176018000Y-87415839D01*
X176018000Y-82026161D01*
X176035337Y-81939000D01*
X176018000Y-81851839D01*
X176018000Y-81851835D01*
X175966652Y-81593690D01*
X175820424Y-81374845D01*
X175820423Y-81374844D01*
X175771049Y-81300951D01*
X175697156Y-81251577D01*
X175535010Y-81089431D01*
X177597000Y-81089431D01*
X177597000Y-81978569D01*
X177937259Y-82800026D01*
X178565974Y-83428741D01*
X179387431Y-83769000D01*
X180276569Y-83769000D01*
X181098026Y-83428741D01*
X181726741Y-82800026D01*
X182067000Y-81978569D01*
X182067000Y-81089431D01*
X181726741Y-80267974D01*
X181098026Y-79639259D01*
X180276569Y-79299000D01*
X179387431Y-79299000D01*
X178565974Y-79639259D01*
X177937259Y-80267974D01*
X177597000Y-81089431D01*
X175535010Y-81089431D01*
X166652425Y-72206847D01*
X166603049Y-72132951D01*
X166310310Y-71937348D01*
X166112440Y-71897989D01*
X166112440Y-71771000D01*
X166063157Y-71523235D01*
X165922809Y-71313191D01*
X165712765Y-71172843D01*
X165465000Y-71123560D01*
X163465000Y-71123560D01*
X163217235Y-71172843D01*
X163007191Y-71313191D01*
X162866843Y-71523235D01*
X162817560Y-71771000D01*
X156683578Y-71771000D01*
X159531046Y-68923532D01*
X163492073Y-68923532D01*
X163590736Y-69190387D01*
X164200461Y-69416908D01*
X164850460Y-69392856D01*
X165339264Y-69190387D01*
X165437927Y-68923532D01*
X164465000Y-67950605D01*
X163492073Y-68923532D01*
X159531046Y-68923532D01*
X160948117Y-67506461D01*
X162819092Y-67506461D01*
X162843144Y-68156460D01*
X163045613Y-68645264D01*
X163312468Y-68743927D01*
X164285395Y-67771000D01*
X164644605Y-67771000D01*
X165617532Y-68743927D01*
X165884387Y-68645264D01*
X166110908Y-68035539D01*
X166087651Y-67407000D01*
X181313560Y-67407000D01*
X181313560Y-70007000D01*
X181362843Y-70254765D01*
X181503191Y-70464809D01*
X181713235Y-70605157D01*
X181961000Y-70654440D01*
X184561000Y-70654440D01*
X184808765Y-70605157D01*
X185018809Y-70464809D01*
X185159157Y-70254765D01*
X185208440Y-70007000D01*
X185208440Y-67407000D01*
X185159157Y-67159235D01*
X185018809Y-66949191D01*
X184808765Y-66808843D01*
X184561000Y-66759560D01*
X181961000Y-66759560D01*
X181713235Y-66808843D01*
X181503191Y-66949191D01*
X181362843Y-67159235D01*
X181313560Y-67407000D01*
X166087651Y-67407000D01*
X166086856Y-67385540D01*
X165884387Y-66896736D01*
X165617532Y-66798073D01*
X164644605Y-67771000D01*
X164285395Y-67771000D01*
X163312468Y-66798073D01*
X163045613Y-66896736D01*
X162819092Y-67506461D01*
X160948117Y-67506461D01*
X161836110Y-66618468D01*
X163492073Y-66618468D01*
X164465000Y-67591395D01*
X165437927Y-66618468D01*
X165339264Y-66351613D01*
X164729539Y-66125092D01*
X164079540Y-66149144D01*
X163590736Y-66351613D01*
X163492073Y-66618468D01*
X161836110Y-66618468D01*
X164831579Y-63623000D01*
X171277841Y-63623000D01*
X171365002Y-63640337D01*
X171452163Y-63623000D01*
X171452167Y-63623000D01*
X171710312Y-63571652D01*
X172003051Y-63376049D01*
X172039095Y-63322105D01*
X181326000Y-63322105D01*
X181326000Y-64091895D01*
X181620586Y-64803090D01*
X182164910Y-65347414D01*
X182876105Y-65642000D01*
X183645895Y-65642000D01*
X184357090Y-65347414D01*
X184901414Y-64803090D01*
X185196000Y-64091895D01*
X185196000Y-63322105D01*
X184901414Y-62610910D01*
X184357090Y-62066586D01*
X183645895Y-61772000D01*
X182876105Y-61772000D01*
X182164910Y-62066586D01*
X181620586Y-62610910D01*
X181326000Y-63322105D01*
X172039095Y-63322105D01*
X172052427Y-63302154D01*
X172687426Y-62667155D01*
X172687428Y-62667152D01*
X180311563Y-55043018D01*
X180346668Y-55050001D01*
X180629334Y-55050001D01*
X181047910Y-54966741D01*
X181522578Y-54649578D01*
X181758001Y-54297243D01*
X181993424Y-54649578D01*
X182468092Y-54966741D01*
X182886668Y-55050001D01*
X183169334Y-55050001D01*
X183587910Y-54966741D01*
X184062578Y-54649578D01*
X184379741Y-54174910D01*
X184491114Y-53615001D01*
X184379741Y-53055092D01*
X184062578Y-52580424D01*
X183928857Y-52491075D01*
X183930338Y-52483631D01*
X183913001Y-52396470D01*
X183913001Y-52396466D01*
X183861653Y-52138321D01*
X183841352Y-52107939D01*
X183715425Y-51919476D01*
X183715424Y-51919475D01*
X183666050Y-51845582D01*
X183592157Y-51796208D01*
X183047795Y-51251847D01*
X182998419Y-51177951D01*
X182735091Y-51002000D01*
X184108752Y-51002000D01*
X184686751Y-51069388D01*
X185194705Y-51253766D01*
X185646624Y-51550057D01*
X186018258Y-51942364D01*
X186289675Y-52409641D01*
X186449134Y-52936132D01*
X186488001Y-53371630D01*
X186488000Y-101431752D01*
X186420612Y-102009751D01*
X186236234Y-102517705D01*
X185939941Y-102969625D01*
X185547636Y-103341259D01*
X185080354Y-103612677D01*
X184553867Y-103772134D01*
X184118381Y-103811000D01*
X136439248Y-103811000D01*
X135861249Y-103743612D01*
X135353295Y-103559234D01*
X134901375Y-103262941D01*
X134529741Y-102870636D01*
X134258323Y-102403354D01*
X134098866Y-101876867D01*
X134098700Y-101875001D01*
X136864888Y-101875001D01*
X136976261Y-102434910D01*
X137293424Y-102909578D01*
X137768092Y-103226741D01*
X138186668Y-103310001D01*
X138469334Y-103310001D01*
X138887910Y-103226741D01*
X139362578Y-102909578D01*
X139598001Y-102557243D01*
X139833424Y-102909578D01*
X140308092Y-103226741D01*
X140726668Y-103310001D01*
X141009334Y-103310001D01*
X141427910Y-103226741D01*
X141902578Y-102909578D01*
X142138001Y-102557243D01*
X142373424Y-102909578D01*
X142848092Y-103226741D01*
X143266668Y-103310001D01*
X143549334Y-103310001D01*
X143967910Y-103226741D01*
X144442578Y-102909578D01*
X144698948Y-102525893D01*
X144795612Y-102730135D01*
X145210578Y-103106042D01*
X145598962Y-103266905D01*
X145821001Y-103144916D01*
X145821001Y-102002001D01*
X145801001Y-102002001D01*
X145801001Y-101748001D01*
X145821001Y-101748001D01*
X145821001Y-100605086D01*
X146075001Y-100605086D01*
X146075001Y-101748001D01*
X146095001Y-101748001D01*
X146095001Y-102002001D01*
X146075001Y-102002001D01*
X146075001Y-103144916D01*
X146297040Y-103266905D01*
X146685424Y-103106042D01*
X147100390Y-102730135D01*
X147197054Y-102525893D01*
X147453424Y-102909578D01*
X147928092Y-103226741D01*
X148346668Y-103310001D01*
X148629334Y-103310001D01*
X149047910Y-103226741D01*
X149522578Y-102909578D01*
X149758001Y-102557243D01*
X149993424Y-102909578D01*
X150468092Y-103226741D01*
X150886668Y-103310001D01*
X151169334Y-103310001D01*
X151587910Y-103226741D01*
X152062578Y-102909578D01*
X152298001Y-102557243D01*
X152533424Y-102909578D01*
X153008092Y-103226741D01*
X153426668Y-103310001D01*
X153709334Y-103310001D01*
X154127910Y-103226741D01*
X154602578Y-102909578D01*
X154838001Y-102557243D01*
X155073424Y-102909578D01*
X155548092Y-103226741D01*
X155966668Y-103310001D01*
X156249334Y-103310001D01*
X156667910Y-103226741D01*
X157142578Y-102909578D01*
X157378001Y-102557243D01*
X157613424Y-102909578D01*
X158088092Y-103226741D01*
X158506668Y-103310001D01*
X158789334Y-103310001D01*
X159207910Y-103226741D01*
X159682578Y-102909578D01*
X159918001Y-102557243D01*
X160153424Y-102909578D01*
X160628092Y-103226741D01*
X161046668Y-103310001D01*
X161329334Y-103310001D01*
X161747910Y-103226741D01*
X162222578Y-102909578D01*
X162539741Y-102434910D01*
X162651114Y-101875001D01*
X162539741Y-101315092D01*
X162222578Y-100840424D01*
X161747910Y-100523261D01*
X161329334Y-100440001D01*
X161046668Y-100440001D01*
X160628092Y-100523261D01*
X160153424Y-100840424D01*
X159918001Y-101192759D01*
X159682578Y-100840424D01*
X159207910Y-100523261D01*
X158789334Y-100440001D01*
X158506668Y-100440001D01*
X158088092Y-100523261D01*
X157613424Y-100840424D01*
X157378001Y-101192759D01*
X157142578Y-100840424D01*
X156667910Y-100523261D01*
X156249334Y-100440001D01*
X155966668Y-100440001D01*
X155548092Y-100523261D01*
X155073424Y-100840424D01*
X154838001Y-101192759D01*
X154602578Y-100840424D01*
X154127910Y-100523261D01*
X153709334Y-100440001D01*
X153426668Y-100440001D01*
X153008092Y-100523261D01*
X152533424Y-100840424D01*
X152298001Y-101192759D01*
X152062578Y-100840424D01*
X151587910Y-100523261D01*
X151169334Y-100440001D01*
X150886668Y-100440001D01*
X150468092Y-100523261D01*
X149993424Y-100840424D01*
X149758001Y-101192759D01*
X149522578Y-100840424D01*
X149047910Y-100523261D01*
X148629334Y-100440001D01*
X148346668Y-100440001D01*
X147928092Y-100523261D01*
X147453424Y-100840424D01*
X147197054Y-101224109D01*
X147100390Y-101019867D01*
X146685424Y-100643960D01*
X146297040Y-100483097D01*
X146075001Y-100605086D01*
X145821001Y-100605086D01*
X145598962Y-100483097D01*
X145210578Y-100643960D01*
X144795612Y-101019867D01*
X144698948Y-101224109D01*
X144442578Y-100840424D01*
X143967910Y-100523261D01*
X143549334Y-100440001D01*
X143266668Y-100440001D01*
X142848092Y-100523261D01*
X142373424Y-100840424D01*
X142138001Y-101192759D01*
X141902578Y-100840424D01*
X141427910Y-100523261D01*
X141009334Y-100440001D01*
X140726668Y-100440001D01*
X140308092Y-100523261D01*
X139833424Y-100840424D01*
X139598001Y-101192759D01*
X139362578Y-100840424D01*
X138887910Y-100523261D01*
X138469334Y-100440001D01*
X138186668Y-100440001D01*
X137768092Y-100523261D01*
X137293424Y-100840424D01*
X136976261Y-101315092D01*
X136864888Y-101875001D01*
X134098700Y-101875001D01*
X134060000Y-101441381D01*
X134060000Y-78906690D01*
X138215000Y-78906690D01*
X138215000Y-79597250D01*
X138373750Y-79756000D01*
X139573000Y-79756000D01*
X139573000Y-78556750D01*
X139827000Y-78556750D01*
X139827000Y-79756000D01*
X141026250Y-79756000D01*
X141185000Y-79597250D01*
X141185000Y-78906690D01*
X141088327Y-78673301D01*
X140909698Y-78494673D01*
X140676309Y-78398000D01*
X139985750Y-78398000D01*
X139827000Y-78556750D01*
X139573000Y-78556750D01*
X139414250Y-78398000D01*
X138723691Y-78398000D01*
X138490302Y-78494673D01*
X138311673Y-78673301D01*
X138215000Y-78906690D01*
X134060000Y-78906690D01*
X134060000Y-68923532D01*
X147363073Y-68923532D01*
X147461736Y-69190387D01*
X148071461Y-69416908D01*
X148721460Y-69392856D01*
X149210264Y-69190387D01*
X149308927Y-68923532D01*
X148336000Y-67950605D01*
X147363073Y-68923532D01*
X134060000Y-68923532D01*
X134060000Y-67506461D01*
X146690092Y-67506461D01*
X146714144Y-68156460D01*
X146916613Y-68645264D01*
X147183468Y-68743927D01*
X148156395Y-67771000D01*
X148515605Y-67771000D01*
X149488532Y-68743927D01*
X149755387Y-68645264D01*
X149981908Y-68035539D01*
X149957856Y-67385540D01*
X149755387Y-66896736D01*
X149488532Y-66798073D01*
X148515605Y-67771000D01*
X148156395Y-67771000D01*
X147183468Y-66798073D01*
X146916613Y-66896736D01*
X146690092Y-67506461D01*
X134060000Y-67506461D01*
X134060000Y-66618468D01*
X147363073Y-66618468D01*
X148336000Y-67591395D01*
X149308927Y-66618468D01*
X149210264Y-66351613D01*
X148600539Y-66125092D01*
X147950540Y-66149144D01*
X147461736Y-66351613D01*
X147363073Y-66618468D01*
X134060000Y-66618468D01*
X134060000Y-53381248D01*
X134126017Y-52815001D01*
X146020561Y-52815001D01*
X146020561Y-54415001D01*
X146069844Y-54662766D01*
X146210192Y-54872810D01*
X146420236Y-55013158D01*
X146668001Y-55062441D01*
X148268001Y-55062441D01*
X148515766Y-55013158D01*
X148725810Y-54872810D01*
X148866158Y-54662766D01*
X148892786Y-54528895D01*
X148973424Y-54649578D01*
X149448092Y-54966741D01*
X149866668Y-55050001D01*
X150149334Y-55050001D01*
X150567910Y-54966741D01*
X151042578Y-54649578D01*
X151278001Y-54297243D01*
X151513424Y-54649578D01*
X151988092Y-54966741D01*
X152406668Y-55050001D01*
X152689334Y-55050001D01*
X153107910Y-54966741D01*
X153582578Y-54649578D01*
X153818001Y-54297243D01*
X154053424Y-54649578D01*
X154528092Y-54966741D01*
X154946668Y-55050001D01*
X155229334Y-55050001D01*
X155647910Y-54966741D01*
X156122578Y-54649578D01*
X156358001Y-54297243D01*
X156593424Y-54649578D01*
X157068092Y-54966741D01*
X157486668Y-55050001D01*
X157769334Y-55050001D01*
X158187910Y-54966741D01*
X158662578Y-54649578D01*
X158918948Y-54265893D01*
X159015612Y-54470135D01*
X159430578Y-54846042D01*
X159818962Y-55006905D01*
X160041001Y-54884916D01*
X160041001Y-53742001D01*
X160295001Y-53742001D01*
X160295001Y-54884916D01*
X160517040Y-55006905D01*
X160905424Y-54846042D01*
X161320390Y-54470135D01*
X161438001Y-54221634D01*
X161555612Y-54470135D01*
X161970578Y-54846042D01*
X162358962Y-55006905D01*
X162581001Y-54884916D01*
X162581001Y-53742001D01*
X160295001Y-53742001D01*
X160041001Y-53742001D01*
X160021001Y-53742001D01*
X160021001Y-53488001D01*
X160041001Y-53488001D01*
X160041001Y-52345086D01*
X160295001Y-52345086D01*
X160295001Y-53488001D01*
X162581001Y-53488001D01*
X162581001Y-52345086D01*
X162358962Y-52223097D01*
X161970578Y-52383960D01*
X161555612Y-52759867D01*
X161438001Y-53008368D01*
X161320390Y-52759867D01*
X160905424Y-52383960D01*
X160517040Y-52223097D01*
X160295001Y-52345086D01*
X160041001Y-52345086D01*
X159818962Y-52223097D01*
X159430578Y-52383960D01*
X159015612Y-52759867D01*
X158918948Y-52964109D01*
X158662578Y-52580424D01*
X158187910Y-52263261D01*
X157769334Y-52180001D01*
X157486668Y-52180001D01*
X157068092Y-52263261D01*
X156593424Y-52580424D01*
X156358001Y-52932759D01*
X156122578Y-52580424D01*
X155647910Y-52263261D01*
X155229334Y-52180001D01*
X154946668Y-52180001D01*
X154528092Y-52263261D01*
X154053424Y-52580424D01*
X153818001Y-52932759D01*
X153582578Y-52580424D01*
X153107910Y-52263261D01*
X152689334Y-52180001D01*
X152406668Y-52180001D01*
X151988092Y-52263261D01*
X151513424Y-52580424D01*
X151278001Y-52932759D01*
X151042578Y-52580424D01*
X150567910Y-52263261D01*
X150149334Y-52180001D01*
X149866668Y-52180001D01*
X149448092Y-52263261D01*
X148973424Y-52580424D01*
X148892786Y-52701107D01*
X148866158Y-52567236D01*
X148725810Y-52357192D01*
X148515766Y-52216844D01*
X148268001Y-52167561D01*
X146668001Y-52167561D01*
X146420236Y-52216844D01*
X146210192Y-52357192D01*
X146069844Y-52567236D01*
X146020561Y-52815001D01*
X134126017Y-52815001D01*
X134127388Y-52803249D01*
X134311766Y-52295295D01*
X134608057Y-51843376D01*
X135000364Y-51471742D01*
X135467641Y-51200325D01*
X135994132Y-51040866D01*
X136429619Y-51002000D01*
X169043279Y-51002000D01*
X168853845Y-51128576D01*
G36*
X168976261Y-54174910D02*
X169293424Y-54649578D01*
X169768092Y-54966741D01*
X170186668Y-55050001D01*
X170469334Y-55050001D01*
X170887910Y-54966741D01*
X171362578Y-54649578D01*
X171598001Y-54297243D01*
X171833424Y-54649578D01*
X172308092Y-54966741D01*
X172726668Y-55050001D01*
X173009334Y-55050001D01*
X173427910Y-54966741D01*
X173902578Y-54649578D01*
X174138001Y-54297243D01*
X174373424Y-54649578D01*
X174848092Y-54966741D01*
X175266668Y-55050001D01*
X175549334Y-55050001D01*
X175967910Y-54966741D01*
X176442578Y-54649578D01*
X176678001Y-54297243D01*
X176913424Y-54649578D01*
X177388092Y-54966741D01*
X177802293Y-55049131D01*
X171435850Y-61415574D01*
X171435847Y-61415576D01*
X170998424Y-61853000D01*
X164552161Y-61853000D01*
X164465000Y-61835663D01*
X164377839Y-61853000D01*
X164377835Y-61853000D01*
X164119690Y-61904348D01*
X163900845Y-62050576D01*
X163900844Y-62050577D01*
X163826951Y-62099951D01*
X163777577Y-62173844D01*
X141176651Y-84774771D01*
X141170538Y-84744040D01*
X163505156Y-62409423D01*
X163579049Y-62360049D01*
X163774652Y-62067310D01*
X163826000Y-61809165D01*
X163826000Y-61809161D01*
X163843337Y-61722001D01*
X163826000Y-61634841D01*
X163826000Y-58659578D01*
X168865832Y-53619747D01*
X168976261Y-54174910D01*
X168976261Y-54174910D01*
G37*
X168976261Y-54174910D02*
X169293424Y-54649578D01*
X169768092Y-54966741D01*
X170186668Y-55050001D01*
X170469334Y-55050001D01*
X170887910Y-54966741D01*
X171362578Y-54649578D01*
X171598001Y-54297243D01*
X171833424Y-54649578D01*
X172308092Y-54966741D01*
X172726668Y-55050001D01*
X173009334Y-55050001D01*
X173427910Y-54966741D01*
X173902578Y-54649578D01*
X174138001Y-54297243D01*
X174373424Y-54649578D01*
X174848092Y-54966741D01*
X175266668Y-55050001D01*
X175549334Y-55050001D01*
X175967910Y-54966741D01*
X176442578Y-54649578D01*
X176678001Y-54297243D01*
X176913424Y-54649578D01*
X177388092Y-54966741D01*
X177802293Y-55049131D01*
X171435850Y-61415574D01*
X171435847Y-61415576D01*
X170998424Y-61853000D01*
X164552161Y-61853000D01*
X164465000Y-61835663D01*
X164377839Y-61853000D01*
X164377835Y-61853000D01*
X164119690Y-61904348D01*
X163900845Y-62050576D01*
X163900844Y-62050577D01*
X163826951Y-62099951D01*
X163777577Y-62173844D01*
X141176651Y-84774771D01*
X141170538Y-84744040D01*
X163505156Y-62409423D01*
X163579049Y-62360049D01*
X163774652Y-62067310D01*
X163826000Y-61809165D01*
X163826000Y-61809161D01*
X163843337Y-61722001D01*
X163826000Y-61634841D01*
X163826000Y-58659578D01*
X168865832Y-53619747D01*
X168976261Y-54174910D01*
G04 #@! TD*
M02*
