G04 #@! TF.GenerationSoftware,KiCad,Pcbnew,5.0.0-fee4fd1~65~ubuntu17.10.1*
G04 #@! TF.CreationDate,2019-04-16T21:57:56-05:00*
G04 #@! TF.ProjectId,Operator,4F70657261746F722E6B696361645F70,1*
G04 #@! TF.SameCoordinates,Original*
G04 #@! TF.FileFunction,Copper,L1,Top,Signal*
G04 #@! TF.FilePolarity,Positive*
%FSLAX46Y46*%
G04 Gerber Fmt 4.6, Leading zero omitted, Abs format (unit mm)*
G04 Created by KiCad (PCBNEW 5.0.0-fee4fd1~65~ubuntu17.10.1) date Tue Apr 16 21:57:56 2019*
%MOMM*%
%LPD*%
G01*
G04 APERTURE LIST*
G04 #@! TA.AperFunction,ComponentPad*
%ADD10O,1.600000X1.600000*%
G04 #@! TD*
G04 #@! TA.AperFunction,ComponentPad*
%ADD11R,1.600000X1.600000*%
G04 #@! TD*
G04 #@! TA.AperFunction,ComponentPad*
%ADD12R,2.000000X2.000000*%
G04 #@! TD*
G04 #@! TA.AperFunction,ComponentPad*
%ADD13C,2.000000*%
G04 #@! TD*
G04 #@! TA.AperFunction,ComponentPad*
%ADD14R,1.500000X1.500000*%
G04 #@! TD*
G04 #@! TA.AperFunction,ComponentPad*
%ADD15C,1.500000*%
G04 #@! TD*
G04 #@! TA.AperFunction,ComponentPad*
%ADD16R,2.600000X2.600000*%
G04 #@! TD*
G04 #@! TA.AperFunction,ComponentPad*
%ADD17C,2.600000*%
G04 #@! TD*
G04 #@! TA.AperFunction,Conductor*
%ADD18C,0.100000*%
G04 #@! TD*
G04 #@! TA.AperFunction,SMDPad,CuDef*
%ADD19C,1.325000*%
G04 #@! TD*
G04 #@! TA.AperFunction,SMDPad,CuDef*
%ADD20R,1.550000X0.600000*%
G04 #@! TD*
G04 #@! TA.AperFunction,ComponentPad*
%ADD21R,1.700000X1.700000*%
G04 #@! TD*
G04 #@! TA.AperFunction,ComponentPad*
%ADD22O,1.700000X1.700000*%
G04 #@! TD*
G04 #@! TA.AperFunction,SMDPad,CuDef*
%ADD23C,1.425000*%
G04 #@! TD*
G04 #@! TA.AperFunction,ViaPad*
%ADD24C,0.900000*%
G04 #@! TD*
G04 #@! TA.AperFunction,Conductor*
%ADD25C,0.500000*%
G04 #@! TD*
G04 #@! TA.AperFunction,Conductor*
%ADD26C,0.254000*%
G04 #@! TD*
G04 APERTURE END LIST*
D10*
G04 #@! TO.P,A1,32*
G04 #@! TO.N,N/C*
X138180000Y-53213000D03*
G04 #@! TO.P,A1,31*
X140720000Y-53213000D03*
D11*
G04 #@! TO.P,A1,1*
X147320000Y-101473000D03*
D10*
G04 #@! TO.P,A1,17*
G04 #@! TO.N,/TransEnable_TTL*
X177800000Y-53213000D03*
G04 #@! TO.P,A1,2*
G04 #@! TO.N,N/C*
X149860000Y-101473000D03*
G04 #@! TO.P,A1,18*
G04 #@! TO.N,/D3*
X175260000Y-53213000D03*
G04 #@! TO.P,A1,3*
G04 #@! TO.N,N/C*
X152400000Y-101473000D03*
G04 #@! TO.P,A1,19*
X172720000Y-53213000D03*
G04 #@! TO.P,A1,4*
X154940000Y-101473000D03*
G04 #@! TO.P,A1,20*
G04 #@! TO.N,/D5*
X170180000Y-53213000D03*
G04 #@! TO.P,A1,5*
G04 #@! TO.N,/5v*
X157480000Y-101473000D03*
G04 #@! TO.P,A1,21*
G04 #@! TO.N,N/C*
X167640000Y-53213000D03*
G04 #@! TO.P,A1,6*
G04 #@! TO.N,/GND*
X160020000Y-101473000D03*
G04 #@! TO.P,A1,22*
G04 #@! TO.N,N/C*
X165100000Y-53213000D03*
G04 #@! TO.P,A1,7*
G04 #@! TO.N,/GND*
X162560000Y-101473000D03*
G04 #@! TO.P,A1,23*
G04 #@! TO.N,N/C*
X161040000Y-53213000D03*
G04 #@! TO.P,A1,8*
X165100000Y-101473000D03*
G04 #@! TO.P,A1,24*
X158500000Y-53213000D03*
G04 #@! TO.P,A1,9*
G04 #@! TO.N,/A0*
X170180000Y-101473000D03*
G04 #@! TO.P,A1,25*
G04 #@! TO.N,N/C*
X155960000Y-53213000D03*
G04 #@! TO.P,A1,10*
X172720000Y-101473000D03*
G04 #@! TO.P,A1,26*
X153420000Y-53213000D03*
G04 #@! TO.P,A1,11*
X175260000Y-101473000D03*
G04 #@! TO.P,A1,27*
X150880000Y-53213000D03*
G04 #@! TO.P,A1,12*
X177800000Y-101473000D03*
G04 #@! TO.P,A1,28*
X148340000Y-53213000D03*
G04 #@! TO.P,A1,13*
G04 #@! TO.N,/A4*
X180340000Y-101473000D03*
G04 #@! TO.P,A1,29*
G04 #@! TO.N,/GND*
X145800000Y-53213000D03*
G04 #@! TO.P,A1,14*
G04 #@! TO.N,/A5*
X182880000Y-101473000D03*
G04 #@! TO.P,A1,30*
G04 #@! TO.N,N/C*
X143260000Y-53213000D03*
G04 #@! TO.P,A1,15*
G04 #@! TO.N,/USART_RX*
X182880000Y-53213000D03*
G04 #@! TO.P,A1,16*
G04 #@! TO.N,/USART_TX*
X180340000Y-53213000D03*
G04 #@! TD*
D12*
G04 #@! TO.P,C1,1*
G04 #@! TO.N,/5v*
X157734000Y-90297000D03*
D13*
G04 #@! TO.P,C1,2*
G04 #@! TO.N,/GND*
X157734000Y-85297000D03*
G04 #@! TD*
G04 #@! TO.P,C2,2*
G04 #@! TO.N,/GND*
X143637000Y-85297000D03*
D12*
G04 #@! TO.P,C2,1*
G04 #@! TO.N,/5v*
X143637000Y-90297000D03*
G04 #@! TD*
D14*
G04 #@! TO.P,J1,1*
G04 #@! TO.N,/-RX*
X173609000Y-75184000D03*
D15*
G04 #@! TO.P,J1,2*
G04 #@! TO.N,/+RX*
X171069000Y-73914000D03*
G04 #@! TO.P,J1,3*
G04 #@! TO.N,/5v*
X173609000Y-72644000D03*
G04 #@! TO.P,J1,4*
G04 #@! TO.N,N/C*
X171069000Y-71374000D03*
G04 #@! TO.P,J1,5*
G04 #@! TO.N,/TransEnable_TTL*
X173609000Y-70104000D03*
G04 #@! TO.P,J1,6*
G04 #@! TO.N,/GND*
X171069000Y-68834000D03*
G04 #@! TO.P,J1,7*
G04 #@! TO.N,/+Tx*
X173609000Y-67564000D03*
G04 #@! TO.P,J1,8*
G04 #@! TO.N,/-TX*
X171069000Y-66294000D03*
G04 #@! TD*
D16*
G04 #@! TO.P,J2,1*
G04 #@! TO.N,/5v*
X181229000Y-92583000D03*
D17*
G04 #@! TO.P,J2,2*
G04 #@! TO.N,/A0*
X181229000Y-87583000D03*
G04 #@! TD*
D18*
G04 #@! TO.N,/+RX*
G04 #@! TO.C,R1*
G36*
X146143505Y-72666204D02*
X146167773Y-72669804D01*
X146191572Y-72675765D01*
X146214671Y-72684030D01*
X146236850Y-72694520D01*
X146257893Y-72707132D01*
X146277599Y-72721747D01*
X146295777Y-72738223D01*
X146312253Y-72756401D01*
X146326868Y-72776107D01*
X146339480Y-72797150D01*
X146349970Y-72819329D01*
X146358235Y-72842428D01*
X146364196Y-72866227D01*
X146367796Y-72890495D01*
X146369000Y-72914999D01*
X146369000Y-73740001D01*
X146367796Y-73764505D01*
X146364196Y-73788773D01*
X146358235Y-73812572D01*
X146349970Y-73835671D01*
X146339480Y-73857850D01*
X146326868Y-73878893D01*
X146312253Y-73898599D01*
X146295777Y-73916777D01*
X146277599Y-73933253D01*
X146257893Y-73947868D01*
X146236850Y-73960480D01*
X146214671Y-73970970D01*
X146191572Y-73979235D01*
X146167773Y-73985196D01*
X146143505Y-73988796D01*
X146119001Y-73990000D01*
X145218999Y-73990000D01*
X145194495Y-73988796D01*
X145170227Y-73985196D01*
X145146428Y-73979235D01*
X145123329Y-73970970D01*
X145101150Y-73960480D01*
X145080107Y-73947868D01*
X145060401Y-73933253D01*
X145042223Y-73916777D01*
X145025747Y-73898599D01*
X145011132Y-73878893D01*
X144998520Y-73857850D01*
X144988030Y-73835671D01*
X144979765Y-73812572D01*
X144973804Y-73788773D01*
X144970204Y-73764505D01*
X144969000Y-73740001D01*
X144969000Y-72914999D01*
X144970204Y-72890495D01*
X144973804Y-72866227D01*
X144979765Y-72842428D01*
X144988030Y-72819329D01*
X144998520Y-72797150D01*
X145011132Y-72776107D01*
X145025747Y-72756401D01*
X145042223Y-72738223D01*
X145060401Y-72721747D01*
X145080107Y-72707132D01*
X145101150Y-72694520D01*
X145123329Y-72684030D01*
X145146428Y-72675765D01*
X145170227Y-72669804D01*
X145194495Y-72666204D01*
X145218999Y-72665000D01*
X146119001Y-72665000D01*
X146143505Y-72666204D01*
X146143505Y-72666204D01*
G37*
D19*
G04 #@! TD*
G04 #@! TO.P,R1,1*
G04 #@! TO.N,/+RX*
X145669000Y-73327500D03*
D18*
G04 #@! TO.N,/-RX*
G04 #@! TO.C,R1*
G36*
X146143505Y-70791204D02*
X146167773Y-70794804D01*
X146191572Y-70800765D01*
X146214671Y-70809030D01*
X146236850Y-70819520D01*
X146257893Y-70832132D01*
X146277599Y-70846747D01*
X146295777Y-70863223D01*
X146312253Y-70881401D01*
X146326868Y-70901107D01*
X146339480Y-70922150D01*
X146349970Y-70944329D01*
X146358235Y-70967428D01*
X146364196Y-70991227D01*
X146367796Y-71015495D01*
X146369000Y-71039999D01*
X146369000Y-71865001D01*
X146367796Y-71889505D01*
X146364196Y-71913773D01*
X146358235Y-71937572D01*
X146349970Y-71960671D01*
X146339480Y-71982850D01*
X146326868Y-72003893D01*
X146312253Y-72023599D01*
X146295777Y-72041777D01*
X146277599Y-72058253D01*
X146257893Y-72072868D01*
X146236850Y-72085480D01*
X146214671Y-72095970D01*
X146191572Y-72104235D01*
X146167773Y-72110196D01*
X146143505Y-72113796D01*
X146119001Y-72115000D01*
X145218999Y-72115000D01*
X145194495Y-72113796D01*
X145170227Y-72110196D01*
X145146428Y-72104235D01*
X145123329Y-72095970D01*
X145101150Y-72085480D01*
X145080107Y-72072868D01*
X145060401Y-72058253D01*
X145042223Y-72041777D01*
X145025747Y-72023599D01*
X145011132Y-72003893D01*
X144998520Y-71982850D01*
X144988030Y-71960671D01*
X144979765Y-71937572D01*
X144973804Y-71913773D01*
X144970204Y-71889505D01*
X144969000Y-71865001D01*
X144969000Y-71039999D01*
X144970204Y-71015495D01*
X144973804Y-70991227D01*
X144979765Y-70967428D01*
X144988030Y-70944329D01*
X144998520Y-70922150D01*
X145011132Y-70901107D01*
X145025747Y-70881401D01*
X145042223Y-70863223D01*
X145060401Y-70846747D01*
X145080107Y-70832132D01*
X145101150Y-70819520D01*
X145123329Y-70809030D01*
X145146428Y-70800765D01*
X145170227Y-70794804D01*
X145194495Y-70791204D01*
X145218999Y-70790000D01*
X146119001Y-70790000D01*
X146143505Y-70791204D01*
X146143505Y-70791204D01*
G37*
D19*
G04 #@! TD*
G04 #@! TO.P,R1,2*
G04 #@! TO.N,/-RX*
X145669000Y-71452500D03*
D18*
G04 #@! TO.N,/-TX*
G04 #@! TO.C,R2*
G36*
X146143505Y-65330204D02*
X146167773Y-65333804D01*
X146191572Y-65339765D01*
X146214671Y-65348030D01*
X146236850Y-65358520D01*
X146257893Y-65371132D01*
X146277599Y-65385747D01*
X146295777Y-65402223D01*
X146312253Y-65420401D01*
X146326868Y-65440107D01*
X146339480Y-65461150D01*
X146349970Y-65483329D01*
X146358235Y-65506428D01*
X146364196Y-65530227D01*
X146367796Y-65554495D01*
X146369000Y-65578999D01*
X146369000Y-66404001D01*
X146367796Y-66428505D01*
X146364196Y-66452773D01*
X146358235Y-66476572D01*
X146349970Y-66499671D01*
X146339480Y-66521850D01*
X146326868Y-66542893D01*
X146312253Y-66562599D01*
X146295777Y-66580777D01*
X146277599Y-66597253D01*
X146257893Y-66611868D01*
X146236850Y-66624480D01*
X146214671Y-66634970D01*
X146191572Y-66643235D01*
X146167773Y-66649196D01*
X146143505Y-66652796D01*
X146119001Y-66654000D01*
X145218999Y-66654000D01*
X145194495Y-66652796D01*
X145170227Y-66649196D01*
X145146428Y-66643235D01*
X145123329Y-66634970D01*
X145101150Y-66624480D01*
X145080107Y-66611868D01*
X145060401Y-66597253D01*
X145042223Y-66580777D01*
X145025747Y-66562599D01*
X145011132Y-66542893D01*
X144998520Y-66521850D01*
X144988030Y-66499671D01*
X144979765Y-66476572D01*
X144973804Y-66452773D01*
X144970204Y-66428505D01*
X144969000Y-66404001D01*
X144969000Y-65578999D01*
X144970204Y-65554495D01*
X144973804Y-65530227D01*
X144979765Y-65506428D01*
X144988030Y-65483329D01*
X144998520Y-65461150D01*
X145011132Y-65440107D01*
X145025747Y-65420401D01*
X145042223Y-65402223D01*
X145060401Y-65385747D01*
X145080107Y-65371132D01*
X145101150Y-65358520D01*
X145123329Y-65348030D01*
X145146428Y-65339765D01*
X145170227Y-65333804D01*
X145194495Y-65330204D01*
X145218999Y-65329000D01*
X146119001Y-65329000D01*
X146143505Y-65330204D01*
X146143505Y-65330204D01*
G37*
D19*
G04 #@! TD*
G04 #@! TO.P,R2,2*
G04 #@! TO.N,/-TX*
X145669000Y-65991500D03*
D18*
G04 #@! TO.N,/+Tx*
G04 #@! TO.C,R2*
G36*
X146143505Y-67205204D02*
X146167773Y-67208804D01*
X146191572Y-67214765D01*
X146214671Y-67223030D01*
X146236850Y-67233520D01*
X146257893Y-67246132D01*
X146277599Y-67260747D01*
X146295777Y-67277223D01*
X146312253Y-67295401D01*
X146326868Y-67315107D01*
X146339480Y-67336150D01*
X146349970Y-67358329D01*
X146358235Y-67381428D01*
X146364196Y-67405227D01*
X146367796Y-67429495D01*
X146369000Y-67453999D01*
X146369000Y-68279001D01*
X146367796Y-68303505D01*
X146364196Y-68327773D01*
X146358235Y-68351572D01*
X146349970Y-68374671D01*
X146339480Y-68396850D01*
X146326868Y-68417893D01*
X146312253Y-68437599D01*
X146295777Y-68455777D01*
X146277599Y-68472253D01*
X146257893Y-68486868D01*
X146236850Y-68499480D01*
X146214671Y-68509970D01*
X146191572Y-68518235D01*
X146167773Y-68524196D01*
X146143505Y-68527796D01*
X146119001Y-68529000D01*
X145218999Y-68529000D01*
X145194495Y-68527796D01*
X145170227Y-68524196D01*
X145146428Y-68518235D01*
X145123329Y-68509970D01*
X145101150Y-68499480D01*
X145080107Y-68486868D01*
X145060401Y-68472253D01*
X145042223Y-68455777D01*
X145025747Y-68437599D01*
X145011132Y-68417893D01*
X144998520Y-68396850D01*
X144988030Y-68374671D01*
X144979765Y-68351572D01*
X144973804Y-68327773D01*
X144970204Y-68303505D01*
X144969000Y-68279001D01*
X144969000Y-67453999D01*
X144970204Y-67429495D01*
X144973804Y-67405227D01*
X144979765Y-67381428D01*
X144988030Y-67358329D01*
X144998520Y-67336150D01*
X145011132Y-67315107D01*
X145025747Y-67295401D01*
X145042223Y-67277223D01*
X145060401Y-67260747D01*
X145080107Y-67246132D01*
X145101150Y-67233520D01*
X145123329Y-67223030D01*
X145146428Y-67214765D01*
X145170227Y-67208804D01*
X145194495Y-67205204D01*
X145218999Y-67204000D01*
X146119001Y-67204000D01*
X146143505Y-67205204D01*
X146143505Y-67205204D01*
G37*
D19*
G04 #@! TD*
G04 #@! TO.P,R2,1*
G04 #@! TO.N,/+Tx*
X145669000Y-67866500D03*
D18*
G04 #@! TO.N,/A0*
G04 #@! TO.C,R3*
G36*
X170654505Y-94588704D02*
X170678773Y-94592304D01*
X170702572Y-94598265D01*
X170725671Y-94606530D01*
X170747850Y-94617020D01*
X170768893Y-94629632D01*
X170788599Y-94644247D01*
X170806777Y-94660723D01*
X170823253Y-94678901D01*
X170837868Y-94698607D01*
X170850480Y-94719650D01*
X170860970Y-94741829D01*
X170869235Y-94764928D01*
X170875196Y-94788727D01*
X170878796Y-94812995D01*
X170880000Y-94837499D01*
X170880000Y-95662501D01*
X170878796Y-95687005D01*
X170875196Y-95711273D01*
X170869235Y-95735072D01*
X170860970Y-95758171D01*
X170850480Y-95780350D01*
X170837868Y-95801393D01*
X170823253Y-95821099D01*
X170806777Y-95839277D01*
X170788599Y-95855753D01*
X170768893Y-95870368D01*
X170747850Y-95882980D01*
X170725671Y-95893470D01*
X170702572Y-95901735D01*
X170678773Y-95907696D01*
X170654505Y-95911296D01*
X170630001Y-95912500D01*
X169729999Y-95912500D01*
X169705495Y-95911296D01*
X169681227Y-95907696D01*
X169657428Y-95901735D01*
X169634329Y-95893470D01*
X169612150Y-95882980D01*
X169591107Y-95870368D01*
X169571401Y-95855753D01*
X169553223Y-95839277D01*
X169536747Y-95821099D01*
X169522132Y-95801393D01*
X169509520Y-95780350D01*
X169499030Y-95758171D01*
X169490765Y-95735072D01*
X169484804Y-95711273D01*
X169481204Y-95687005D01*
X169480000Y-95662501D01*
X169480000Y-94837499D01*
X169481204Y-94812995D01*
X169484804Y-94788727D01*
X169490765Y-94764928D01*
X169499030Y-94741829D01*
X169509520Y-94719650D01*
X169522132Y-94698607D01*
X169536747Y-94678901D01*
X169553223Y-94660723D01*
X169571401Y-94644247D01*
X169591107Y-94629632D01*
X169612150Y-94617020D01*
X169634329Y-94606530D01*
X169657428Y-94598265D01*
X169681227Y-94592304D01*
X169705495Y-94588704D01*
X169729999Y-94587500D01*
X170630001Y-94587500D01*
X170654505Y-94588704D01*
X170654505Y-94588704D01*
G37*
D19*
G04 #@! TD*
G04 #@! TO.P,R3,1*
G04 #@! TO.N,/A0*
X170180000Y-95250000D03*
D18*
G04 #@! TO.N,/GND*
G04 #@! TO.C,R3*
G36*
X170654505Y-92713704D02*
X170678773Y-92717304D01*
X170702572Y-92723265D01*
X170725671Y-92731530D01*
X170747850Y-92742020D01*
X170768893Y-92754632D01*
X170788599Y-92769247D01*
X170806777Y-92785723D01*
X170823253Y-92803901D01*
X170837868Y-92823607D01*
X170850480Y-92844650D01*
X170860970Y-92866829D01*
X170869235Y-92889928D01*
X170875196Y-92913727D01*
X170878796Y-92937995D01*
X170880000Y-92962499D01*
X170880000Y-93787501D01*
X170878796Y-93812005D01*
X170875196Y-93836273D01*
X170869235Y-93860072D01*
X170860970Y-93883171D01*
X170850480Y-93905350D01*
X170837868Y-93926393D01*
X170823253Y-93946099D01*
X170806777Y-93964277D01*
X170788599Y-93980753D01*
X170768893Y-93995368D01*
X170747850Y-94007980D01*
X170725671Y-94018470D01*
X170702572Y-94026735D01*
X170678773Y-94032696D01*
X170654505Y-94036296D01*
X170630001Y-94037500D01*
X169729999Y-94037500D01*
X169705495Y-94036296D01*
X169681227Y-94032696D01*
X169657428Y-94026735D01*
X169634329Y-94018470D01*
X169612150Y-94007980D01*
X169591107Y-93995368D01*
X169571401Y-93980753D01*
X169553223Y-93964277D01*
X169536747Y-93946099D01*
X169522132Y-93926393D01*
X169509520Y-93905350D01*
X169499030Y-93883171D01*
X169490765Y-93860072D01*
X169484804Y-93836273D01*
X169481204Y-93812005D01*
X169480000Y-93787501D01*
X169480000Y-92962499D01*
X169481204Y-92937995D01*
X169484804Y-92913727D01*
X169490765Y-92889928D01*
X169499030Y-92866829D01*
X169509520Y-92844650D01*
X169522132Y-92823607D01*
X169536747Y-92803901D01*
X169553223Y-92785723D01*
X169571401Y-92769247D01*
X169591107Y-92754632D01*
X169612150Y-92742020D01*
X169634329Y-92731530D01*
X169657428Y-92723265D01*
X169681227Y-92717304D01*
X169705495Y-92713704D01*
X169729999Y-92712500D01*
X170630001Y-92712500D01*
X170654505Y-92713704D01*
X170654505Y-92713704D01*
G37*
D19*
G04 #@! TD*
G04 #@! TO.P,R3,2*
G04 #@! TO.N,/GND*
X170180000Y-93375000D03*
D20*
G04 #@! TO.P,U1,1*
G04 #@! TO.N,/5v*
X157005000Y-72263000D03*
G04 #@! TO.P,U1,2*
G04 #@! TO.N,/USART_RX*
X157005000Y-70993000D03*
G04 #@! TO.P,U1,3*
G04 #@! TO.N,/USART_TX*
X157005000Y-69723000D03*
G04 #@! TO.P,U1,4*
G04 #@! TO.N,/GND*
X157005000Y-68453000D03*
G04 #@! TO.P,U1,5*
G04 #@! TO.N,/-TX*
X151605000Y-68453000D03*
G04 #@! TO.P,U1,6*
G04 #@! TO.N,/+Tx*
X151605000Y-69723000D03*
G04 #@! TO.P,U1,7*
G04 #@! TO.N,/-RX*
X151605000Y-70993000D03*
G04 #@! TO.P,U1,8*
G04 #@! TO.N,/+RX*
X151605000Y-72263000D03*
G04 #@! TD*
D21*
G04 #@! TO.P,J3,1*
G04 #@! TO.N,/GND*
X138176000Y-78867000D03*
D22*
G04 #@! TO.P,J3,2*
G04 #@! TO.N,/5v*
X138176000Y-76327000D03*
G04 #@! TO.P,J3,3*
G04 #@! TO.N,/A5*
X138176000Y-73787000D03*
G04 #@! TO.P,J3,4*
G04 #@! TO.N,/A4*
X138176000Y-71247000D03*
G04 #@! TO.P,J3,5*
G04 #@! TO.N,/D5*
X138176000Y-68707000D03*
G04 #@! TO.P,J3,6*
G04 #@! TO.N,/D3*
X138176000Y-66167000D03*
G04 #@! TD*
D18*
G04 #@! TO.N,/5v*
G04 #@! TO.C,C3*
G36*
X167019504Y-71134204D02*
X167043773Y-71137804D01*
X167067571Y-71143765D01*
X167090671Y-71152030D01*
X167112849Y-71162520D01*
X167133893Y-71175133D01*
X167153598Y-71189747D01*
X167171777Y-71206223D01*
X167188253Y-71224402D01*
X167202867Y-71244107D01*
X167215480Y-71265151D01*
X167225970Y-71287329D01*
X167234235Y-71310429D01*
X167240196Y-71334227D01*
X167243796Y-71358496D01*
X167245000Y-71383000D01*
X167245000Y-72308000D01*
X167243796Y-72332504D01*
X167240196Y-72356773D01*
X167234235Y-72380571D01*
X167225970Y-72403671D01*
X167215480Y-72425849D01*
X167202867Y-72446893D01*
X167188253Y-72466598D01*
X167171777Y-72484777D01*
X167153598Y-72501253D01*
X167133893Y-72515867D01*
X167112849Y-72528480D01*
X167090671Y-72538970D01*
X167067571Y-72547235D01*
X167043773Y-72553196D01*
X167019504Y-72556796D01*
X166995000Y-72558000D01*
X165745000Y-72558000D01*
X165720496Y-72556796D01*
X165696227Y-72553196D01*
X165672429Y-72547235D01*
X165649329Y-72538970D01*
X165627151Y-72528480D01*
X165606107Y-72515867D01*
X165586402Y-72501253D01*
X165568223Y-72484777D01*
X165551747Y-72466598D01*
X165537133Y-72446893D01*
X165524520Y-72425849D01*
X165514030Y-72403671D01*
X165505765Y-72380571D01*
X165499804Y-72356773D01*
X165496204Y-72332504D01*
X165495000Y-72308000D01*
X165495000Y-71383000D01*
X165496204Y-71358496D01*
X165499804Y-71334227D01*
X165505765Y-71310429D01*
X165514030Y-71287329D01*
X165524520Y-71265151D01*
X165537133Y-71244107D01*
X165551747Y-71224402D01*
X165568223Y-71206223D01*
X165586402Y-71189747D01*
X165606107Y-71175133D01*
X165627151Y-71162520D01*
X165649329Y-71152030D01*
X165672429Y-71143765D01*
X165696227Y-71137804D01*
X165720496Y-71134204D01*
X165745000Y-71133000D01*
X166995000Y-71133000D01*
X167019504Y-71134204D01*
X167019504Y-71134204D01*
G37*
D23*
G04 #@! TD*
G04 #@! TO.P,C3,1*
G04 #@! TO.N,/5v*
X166370000Y-71845500D03*
D18*
G04 #@! TO.N,/GND*
G04 #@! TO.C,C3*
G36*
X167019504Y-68159204D02*
X167043773Y-68162804D01*
X167067571Y-68168765D01*
X167090671Y-68177030D01*
X167112849Y-68187520D01*
X167133893Y-68200133D01*
X167153598Y-68214747D01*
X167171777Y-68231223D01*
X167188253Y-68249402D01*
X167202867Y-68269107D01*
X167215480Y-68290151D01*
X167225970Y-68312329D01*
X167234235Y-68335429D01*
X167240196Y-68359227D01*
X167243796Y-68383496D01*
X167245000Y-68408000D01*
X167245000Y-69333000D01*
X167243796Y-69357504D01*
X167240196Y-69381773D01*
X167234235Y-69405571D01*
X167225970Y-69428671D01*
X167215480Y-69450849D01*
X167202867Y-69471893D01*
X167188253Y-69491598D01*
X167171777Y-69509777D01*
X167153598Y-69526253D01*
X167133893Y-69540867D01*
X167112849Y-69553480D01*
X167090671Y-69563970D01*
X167067571Y-69572235D01*
X167043773Y-69578196D01*
X167019504Y-69581796D01*
X166995000Y-69583000D01*
X165745000Y-69583000D01*
X165720496Y-69581796D01*
X165696227Y-69578196D01*
X165672429Y-69572235D01*
X165649329Y-69563970D01*
X165627151Y-69553480D01*
X165606107Y-69540867D01*
X165586402Y-69526253D01*
X165568223Y-69509777D01*
X165551747Y-69491598D01*
X165537133Y-69471893D01*
X165524520Y-69450849D01*
X165514030Y-69428671D01*
X165505765Y-69405571D01*
X165499804Y-69381773D01*
X165496204Y-69357504D01*
X165495000Y-69333000D01*
X165495000Y-68408000D01*
X165496204Y-68383496D01*
X165499804Y-68359227D01*
X165505765Y-68335429D01*
X165514030Y-68312329D01*
X165524520Y-68290151D01*
X165537133Y-68269107D01*
X165551747Y-68249402D01*
X165568223Y-68231223D01*
X165586402Y-68214747D01*
X165606107Y-68200133D01*
X165627151Y-68187520D01*
X165649329Y-68177030D01*
X165672429Y-68168765D01*
X165696227Y-68162804D01*
X165720496Y-68159204D01*
X165745000Y-68158000D01*
X166995000Y-68158000D01*
X167019504Y-68159204D01*
X167019504Y-68159204D01*
G37*
D23*
G04 #@! TD*
G04 #@! TO.P,C3,2*
G04 #@! TO.N,/GND*
X166370000Y-68870500D03*
D24*
G04 #@! TO.N,/GND*
X167132000Y-58420000D03*
X183769000Y-80010000D03*
X162941000Y-68961000D03*
X137541000Y-100203000D03*
X151511000Y-61976000D03*
X162814000Y-94107000D03*
G04 #@! TO.N,/USART_RX*
X163576000Y-70993000D03*
G04 #@! TO.N,/USART_TX*
X160401000Y-69723000D03*
G04 #@! TD*
D25*
G04 #@! TO.N,/TransEnable_TTL*
X173609000Y-70104000D02*
X175641000Y-68072000D01*
X175641000Y-68072000D02*
X175641000Y-58547000D01*
X175641000Y-58547000D02*
X177800000Y-56388000D01*
X177800000Y-56388000D02*
X177800000Y-53213000D01*
G04 #@! TO.N,/5v*
X172859001Y-71894001D02*
X173609000Y-72644000D01*
X171645001Y-70173999D02*
X172859001Y-71387999D01*
X172859001Y-71387999D02*
X172859001Y-71894001D01*
X157005000Y-72263000D02*
X164513500Y-72263000D01*
X164931000Y-71845500D02*
X166370000Y-71845500D01*
X164513500Y-72263000D02*
X164931000Y-71845500D01*
X168041501Y-70173999D02*
X171645001Y-70173999D01*
X166370000Y-71845500D02*
X168041501Y-70173999D01*
X157480000Y-90551000D02*
X157734000Y-90297000D01*
X157480000Y-101473000D02*
X157480000Y-90551000D01*
X143637000Y-90297000D02*
X138938000Y-90297000D01*
X138938000Y-90297000D02*
X135382000Y-86741000D01*
X135382000Y-79121000D02*
X138176000Y-76327000D01*
X135382000Y-86741000D02*
X135382000Y-79121000D01*
G04 #@! TO.N,/GND*
X171032500Y-68870500D02*
X171069000Y-68834000D01*
X166370000Y-68870500D02*
X171032500Y-68870500D01*
G04 #@! TO.N,/A0*
X170180000Y-101473000D02*
X170180000Y-95250000D01*
X173562000Y-95250000D02*
X181229000Y-87583000D01*
X170180000Y-95250000D02*
X173562000Y-95250000D01*
G04 #@! TO.N,/USART_RX*
X157005000Y-70993000D02*
X161290000Y-70993000D01*
X161290000Y-70993000D02*
X163576000Y-70993000D01*
G04 #@! TO.N,/USART_TX*
X157005000Y-69723000D02*
X160401000Y-69723000D01*
G04 #@! TO.N,/-RX*
X146128500Y-70993000D02*
X145669000Y-71452500D01*
X151605000Y-70993000D02*
X146128500Y-70993000D01*
X173609000Y-74420002D02*
X173609000Y-75184000D01*
X171902997Y-72713999D02*
X173609000Y-74420002D01*
X170492999Y-72713999D02*
X171902997Y-72713999D01*
X155881998Y-73025000D02*
X170181998Y-73025000D01*
X153849998Y-70993000D02*
X155881998Y-73025000D01*
X170181998Y-73025000D02*
X170492999Y-72713999D01*
X151605000Y-70993000D02*
X153849998Y-70993000D01*
G04 #@! TO.N,/+RX*
X170008340Y-73914000D02*
X171069000Y-73914000D01*
X154531000Y-73914000D02*
X170008340Y-73914000D01*
X152880000Y-72263000D02*
X154531000Y-73914000D01*
X151605000Y-72263000D02*
X152880000Y-72263000D01*
X149049500Y-73327500D02*
X145669000Y-73327500D01*
X151605000Y-72263000D02*
X150114000Y-72263000D01*
X150114000Y-72263000D02*
X149049500Y-73327500D01*
G04 #@! TO.N,/+Tx*
X172548340Y-67564000D02*
X173609000Y-67564000D01*
X155039000Y-67564000D02*
X172548340Y-67564000D01*
X151605000Y-69723000D02*
X152880000Y-69723000D01*
X152880000Y-69723000D02*
X155039000Y-67564000D01*
X150330000Y-69723000D02*
X151605000Y-69723000D01*
X148325500Y-69723000D02*
X150330000Y-69723000D01*
X146469000Y-67866500D02*
X148325500Y-69723000D01*
X145669000Y-67866500D02*
X146469000Y-67866500D01*
G04 #@! TO.N,/-TX*
X152880000Y-68453000D02*
X155039000Y-66294000D01*
X170008340Y-66294000D02*
X171069000Y-66294000D01*
X155039000Y-66294000D02*
X170008340Y-66294000D01*
X151605000Y-68453000D02*
X152880000Y-68453000D01*
X148668500Y-65991500D02*
X145669000Y-65991500D01*
X151605000Y-68453000D02*
X151130000Y-68453000D01*
X151130000Y-68453000D02*
X148668500Y-65991500D01*
G04 #@! TO.N,/D3*
X138176000Y-66167000D02*
X148209000Y-56134000D01*
X172339000Y-56134000D02*
X175260000Y-53213000D01*
X148209000Y-56134000D02*
X172339000Y-56134000D01*
G04 #@! TD*
D26*
G04 #@! TO.N,/GND*
G36*
X184686751Y-51069388D02*
X185194705Y-51253766D01*
X185646624Y-51550057D01*
X186018258Y-51942364D01*
X186289675Y-52409641D01*
X186449134Y-52936132D01*
X186488001Y-53371630D01*
X186488000Y-101431752D01*
X186420612Y-102009751D01*
X186236234Y-102517705D01*
X185939941Y-102969625D01*
X185547636Y-103341259D01*
X185080354Y-103612677D01*
X184553867Y-103772134D01*
X184118381Y-103811000D01*
X136439248Y-103811000D01*
X135861249Y-103743612D01*
X135353295Y-103559234D01*
X134901375Y-103262941D01*
X134529741Y-102870636D01*
X134258323Y-102403354D01*
X134098866Y-101876867D01*
X134060000Y-101441381D01*
X134060000Y-100673000D01*
X145872560Y-100673000D01*
X145872560Y-102273000D01*
X145921843Y-102520765D01*
X146062191Y-102730809D01*
X146272235Y-102871157D01*
X146520000Y-102920440D01*
X148120000Y-102920440D01*
X148367765Y-102871157D01*
X148577809Y-102730809D01*
X148718157Y-102520765D01*
X148744785Y-102386894D01*
X148825423Y-102507577D01*
X149300091Y-102824740D01*
X149718667Y-102908000D01*
X150001333Y-102908000D01*
X150419909Y-102824740D01*
X150894577Y-102507577D01*
X151130000Y-102155242D01*
X151365423Y-102507577D01*
X151840091Y-102824740D01*
X152258667Y-102908000D01*
X152541333Y-102908000D01*
X152959909Y-102824740D01*
X153434577Y-102507577D01*
X153670000Y-102155242D01*
X153905423Y-102507577D01*
X154380091Y-102824740D01*
X154798667Y-102908000D01*
X155081333Y-102908000D01*
X155499909Y-102824740D01*
X155974577Y-102507577D01*
X156210000Y-102155242D01*
X156445423Y-102507577D01*
X156920091Y-102824740D01*
X157338667Y-102908000D01*
X157621333Y-102908000D01*
X158039909Y-102824740D01*
X158514577Y-102507577D01*
X158770947Y-102123892D01*
X158867611Y-102328134D01*
X159282577Y-102704041D01*
X159670961Y-102864904D01*
X159893000Y-102742915D01*
X159893000Y-101600000D01*
X160147000Y-101600000D01*
X160147000Y-102742915D01*
X160369039Y-102864904D01*
X160757423Y-102704041D01*
X161172389Y-102328134D01*
X161290000Y-102079633D01*
X161407611Y-102328134D01*
X161822577Y-102704041D01*
X162210961Y-102864904D01*
X162433000Y-102742915D01*
X162433000Y-101600000D01*
X160147000Y-101600000D01*
X159893000Y-101600000D01*
X159873000Y-101600000D01*
X159873000Y-101346000D01*
X159893000Y-101346000D01*
X159893000Y-100203085D01*
X160147000Y-100203085D01*
X160147000Y-101346000D01*
X162433000Y-101346000D01*
X162433000Y-100203085D01*
X162687000Y-100203085D01*
X162687000Y-101346000D01*
X162707000Y-101346000D01*
X162707000Y-101600000D01*
X162687000Y-101600000D01*
X162687000Y-102742915D01*
X162909039Y-102864904D01*
X163297423Y-102704041D01*
X163712389Y-102328134D01*
X163809053Y-102123892D01*
X164065423Y-102507577D01*
X164540091Y-102824740D01*
X164958667Y-102908000D01*
X165241333Y-102908000D01*
X165659909Y-102824740D01*
X166134577Y-102507577D01*
X166451740Y-102032909D01*
X166563113Y-101473000D01*
X168716887Y-101473000D01*
X168828260Y-102032909D01*
X169145423Y-102507577D01*
X169620091Y-102824740D01*
X170038667Y-102908000D01*
X170321333Y-102908000D01*
X170739909Y-102824740D01*
X171214577Y-102507577D01*
X171450000Y-102155242D01*
X171685423Y-102507577D01*
X172160091Y-102824740D01*
X172578667Y-102908000D01*
X172861333Y-102908000D01*
X173279909Y-102824740D01*
X173754577Y-102507577D01*
X173990000Y-102155242D01*
X174225423Y-102507577D01*
X174700091Y-102824740D01*
X175118667Y-102908000D01*
X175401333Y-102908000D01*
X175819909Y-102824740D01*
X176294577Y-102507577D01*
X176530000Y-102155242D01*
X176765423Y-102507577D01*
X177240091Y-102824740D01*
X177658667Y-102908000D01*
X177941333Y-102908000D01*
X178359909Y-102824740D01*
X178834577Y-102507577D01*
X179070000Y-102155242D01*
X179305423Y-102507577D01*
X179780091Y-102824740D01*
X180198667Y-102908000D01*
X180481333Y-102908000D01*
X180899909Y-102824740D01*
X181374577Y-102507577D01*
X181610000Y-102155242D01*
X181845423Y-102507577D01*
X182320091Y-102824740D01*
X182738667Y-102908000D01*
X183021333Y-102908000D01*
X183439909Y-102824740D01*
X183914577Y-102507577D01*
X184231740Y-102032909D01*
X184343113Y-101473000D01*
X184231740Y-100913091D01*
X183914577Y-100438423D01*
X183439909Y-100121260D01*
X183021333Y-100038000D01*
X182738667Y-100038000D01*
X182320091Y-100121260D01*
X181845423Y-100438423D01*
X181610000Y-100790758D01*
X181374577Y-100438423D01*
X180899909Y-100121260D01*
X180481333Y-100038000D01*
X180198667Y-100038000D01*
X179780091Y-100121260D01*
X179305423Y-100438423D01*
X179070000Y-100790758D01*
X178834577Y-100438423D01*
X178359909Y-100121260D01*
X177941333Y-100038000D01*
X177658667Y-100038000D01*
X177240091Y-100121260D01*
X176765423Y-100438423D01*
X176530000Y-100790758D01*
X176294577Y-100438423D01*
X175819909Y-100121260D01*
X175401333Y-100038000D01*
X175118667Y-100038000D01*
X174700091Y-100121260D01*
X174225423Y-100438423D01*
X173990000Y-100790758D01*
X173754577Y-100438423D01*
X173279909Y-100121260D01*
X172861333Y-100038000D01*
X172578667Y-100038000D01*
X172160091Y-100121260D01*
X171685423Y-100438423D01*
X171450000Y-100790758D01*
X171214577Y-100438423D01*
X171065000Y-100338479D01*
X171065000Y-96430446D01*
X171264586Y-96297086D01*
X171372889Y-96135000D01*
X173474839Y-96135000D01*
X173562000Y-96152337D01*
X173649161Y-96135000D01*
X173649165Y-96135000D01*
X173907310Y-96083652D01*
X174200049Y-95888049D01*
X174249425Y-95814153D01*
X178780578Y-91283000D01*
X179281560Y-91283000D01*
X179281560Y-93883000D01*
X179330843Y-94130765D01*
X179471191Y-94340809D01*
X179681235Y-94481157D01*
X179929000Y-94530440D01*
X182529000Y-94530440D01*
X182776765Y-94481157D01*
X182986809Y-94340809D01*
X183127157Y-94130765D01*
X183176440Y-93883000D01*
X183176440Y-91283000D01*
X183127157Y-91035235D01*
X182986809Y-90825191D01*
X182776765Y-90684843D01*
X182529000Y-90635560D01*
X179929000Y-90635560D01*
X179681235Y-90684843D01*
X179471191Y-90825191D01*
X179330843Y-91035235D01*
X179281560Y-91283000D01*
X178780578Y-91283000D01*
X180633015Y-89430564D01*
X180844105Y-89518000D01*
X181613895Y-89518000D01*
X182325090Y-89223414D01*
X182869414Y-88679090D01*
X183164000Y-87967895D01*
X183164000Y-87198105D01*
X182869414Y-86486910D01*
X182325090Y-85942586D01*
X181613895Y-85648000D01*
X180844105Y-85648000D01*
X180132910Y-85942586D01*
X179588586Y-86486910D01*
X179294000Y-87198105D01*
X179294000Y-87967895D01*
X179381436Y-88178985D01*
X173195422Y-94365000D01*
X171431664Y-94365000D01*
X171515000Y-94163809D01*
X171515000Y-93660750D01*
X171356250Y-93502000D01*
X170307000Y-93502000D01*
X170307000Y-93522000D01*
X170053000Y-93522000D01*
X170053000Y-93502000D01*
X169003750Y-93502000D01*
X168845000Y-93660750D01*
X168845000Y-94163809D01*
X168941673Y-94397198D01*
X168956014Y-94411539D01*
X168900873Y-94494064D01*
X168832560Y-94837499D01*
X168832560Y-95662501D01*
X168900873Y-96005936D01*
X169095414Y-96297086D01*
X169295001Y-96430446D01*
X169295000Y-100338479D01*
X169145423Y-100438423D01*
X168828260Y-100913091D01*
X168716887Y-101473000D01*
X166563113Y-101473000D01*
X166451740Y-100913091D01*
X166134577Y-100438423D01*
X165659909Y-100121260D01*
X165241333Y-100038000D01*
X164958667Y-100038000D01*
X164540091Y-100121260D01*
X164065423Y-100438423D01*
X163809053Y-100822108D01*
X163712389Y-100617866D01*
X163297423Y-100241959D01*
X162909039Y-100081096D01*
X162687000Y-100203085D01*
X162433000Y-100203085D01*
X162210961Y-100081096D01*
X161822577Y-100241959D01*
X161407611Y-100617866D01*
X161290000Y-100866367D01*
X161172389Y-100617866D01*
X160757423Y-100241959D01*
X160369039Y-100081096D01*
X160147000Y-100203085D01*
X159893000Y-100203085D01*
X159670961Y-100081096D01*
X159282577Y-100241959D01*
X158867611Y-100617866D01*
X158770947Y-100822108D01*
X158514577Y-100438423D01*
X158365000Y-100338479D01*
X158365000Y-92586191D01*
X168845000Y-92586191D01*
X168845000Y-93089250D01*
X169003750Y-93248000D01*
X170053000Y-93248000D01*
X170053000Y-92236250D01*
X170307000Y-92236250D01*
X170307000Y-93248000D01*
X171356250Y-93248000D01*
X171515000Y-93089250D01*
X171515000Y-92586191D01*
X171418327Y-92352802D01*
X171239699Y-92174173D01*
X171006310Y-92077500D01*
X170465750Y-92077500D01*
X170307000Y-92236250D01*
X170053000Y-92236250D01*
X169894250Y-92077500D01*
X169353690Y-92077500D01*
X169120301Y-92174173D01*
X168941673Y-92352802D01*
X168845000Y-92586191D01*
X158365000Y-92586191D01*
X158365000Y-91944440D01*
X158734000Y-91944440D01*
X158981765Y-91895157D01*
X159191809Y-91754809D01*
X159332157Y-91544765D01*
X159381440Y-91297000D01*
X159381440Y-89297000D01*
X159332157Y-89049235D01*
X159191809Y-88839191D01*
X158981765Y-88698843D01*
X158734000Y-88649560D01*
X156734000Y-88649560D01*
X156486235Y-88698843D01*
X156276191Y-88839191D01*
X156135843Y-89049235D01*
X156086560Y-89297000D01*
X156086560Y-91297000D01*
X156135843Y-91544765D01*
X156276191Y-91754809D01*
X156486235Y-91895157D01*
X156595001Y-91916792D01*
X156595000Y-100338479D01*
X156445423Y-100438423D01*
X156210000Y-100790758D01*
X155974577Y-100438423D01*
X155499909Y-100121260D01*
X155081333Y-100038000D01*
X154798667Y-100038000D01*
X154380091Y-100121260D01*
X153905423Y-100438423D01*
X153670000Y-100790758D01*
X153434577Y-100438423D01*
X152959909Y-100121260D01*
X152541333Y-100038000D01*
X152258667Y-100038000D01*
X151840091Y-100121260D01*
X151365423Y-100438423D01*
X151130000Y-100790758D01*
X150894577Y-100438423D01*
X150419909Y-100121260D01*
X150001333Y-100038000D01*
X149718667Y-100038000D01*
X149300091Y-100121260D01*
X148825423Y-100438423D01*
X148744785Y-100559106D01*
X148718157Y-100425235D01*
X148577809Y-100215191D01*
X148367765Y-100074843D01*
X148120000Y-100025560D01*
X146520000Y-100025560D01*
X146272235Y-100074843D01*
X146062191Y-100215191D01*
X145921843Y-100425235D01*
X145872560Y-100673000D01*
X134060000Y-100673000D01*
X134060000Y-79121000D01*
X134479663Y-79121000D01*
X134497001Y-79208165D01*
X134497000Y-86653839D01*
X134479663Y-86741000D01*
X134497000Y-86828161D01*
X134497000Y-86828164D01*
X134548348Y-87086309D01*
X134743951Y-87379049D01*
X134817847Y-87428425D01*
X138250577Y-90861156D01*
X138299951Y-90935049D01*
X138373844Y-90984423D01*
X138373845Y-90984424D01*
X138449889Y-91035235D01*
X138592690Y-91130652D01*
X138850835Y-91182000D01*
X138850839Y-91182000D01*
X138937999Y-91199337D01*
X139025159Y-91182000D01*
X141989560Y-91182000D01*
X141989560Y-91297000D01*
X142038843Y-91544765D01*
X142179191Y-91754809D01*
X142389235Y-91895157D01*
X142637000Y-91944440D01*
X144637000Y-91944440D01*
X144884765Y-91895157D01*
X145094809Y-91754809D01*
X145235157Y-91544765D01*
X145284440Y-91297000D01*
X145284440Y-89297000D01*
X145235157Y-89049235D01*
X145094809Y-88839191D01*
X144884765Y-88698843D01*
X144637000Y-88649560D01*
X142637000Y-88649560D01*
X142389235Y-88698843D01*
X142179191Y-88839191D01*
X142038843Y-89049235D01*
X141989560Y-89297000D01*
X141989560Y-89412000D01*
X139304579Y-89412000D01*
X136342111Y-86449532D01*
X142664073Y-86449532D01*
X142762736Y-86716387D01*
X143372461Y-86942908D01*
X144022460Y-86918856D01*
X144511264Y-86716387D01*
X144609927Y-86449532D01*
X156761073Y-86449532D01*
X156859736Y-86716387D01*
X157469461Y-86942908D01*
X158119460Y-86918856D01*
X158608264Y-86716387D01*
X158706927Y-86449532D01*
X157734000Y-85476605D01*
X156761073Y-86449532D01*
X144609927Y-86449532D01*
X143637000Y-85476605D01*
X142664073Y-86449532D01*
X136342111Y-86449532D01*
X136267000Y-86374422D01*
X136267000Y-85032461D01*
X141991092Y-85032461D01*
X142015144Y-85682460D01*
X142217613Y-86171264D01*
X142484468Y-86269927D01*
X143457395Y-85297000D01*
X143816605Y-85297000D01*
X144789532Y-86269927D01*
X145056387Y-86171264D01*
X145282908Y-85561539D01*
X145263331Y-85032461D01*
X156088092Y-85032461D01*
X156112144Y-85682460D01*
X156314613Y-86171264D01*
X156581468Y-86269927D01*
X157554395Y-85297000D01*
X157913605Y-85297000D01*
X158886532Y-86269927D01*
X159153387Y-86171264D01*
X159379908Y-85561539D01*
X159355856Y-84911540D01*
X159153387Y-84422736D01*
X158886532Y-84324073D01*
X157913605Y-85297000D01*
X157554395Y-85297000D01*
X156581468Y-84324073D01*
X156314613Y-84422736D01*
X156088092Y-85032461D01*
X145263331Y-85032461D01*
X145258856Y-84911540D01*
X145056387Y-84422736D01*
X144789532Y-84324073D01*
X143816605Y-85297000D01*
X143457395Y-85297000D01*
X142484468Y-84324073D01*
X142217613Y-84422736D01*
X141991092Y-85032461D01*
X136267000Y-85032461D01*
X136267000Y-84144468D01*
X142664073Y-84144468D01*
X143637000Y-85117395D01*
X144609927Y-84144468D01*
X156761073Y-84144468D01*
X157734000Y-85117395D01*
X158706927Y-84144468D01*
X158608264Y-83877613D01*
X157998539Y-83651092D01*
X157348540Y-83675144D01*
X156859736Y-83877613D01*
X156761073Y-84144468D01*
X144609927Y-84144468D01*
X144511264Y-83877613D01*
X143901539Y-83651092D01*
X143251540Y-83675144D01*
X142762736Y-83877613D01*
X142664073Y-84144468D01*
X136267000Y-84144468D01*
X136267000Y-79487578D01*
X136760576Y-78994002D01*
X136849748Y-78994002D01*
X136691000Y-79152750D01*
X136691000Y-79843310D01*
X136787673Y-80076699D01*
X136966302Y-80255327D01*
X137199691Y-80352000D01*
X137890250Y-80352000D01*
X138049000Y-80193250D01*
X138049000Y-78994000D01*
X138303000Y-78994000D01*
X138303000Y-80193250D01*
X138461750Y-80352000D01*
X139152309Y-80352000D01*
X139385698Y-80255327D01*
X139564327Y-80076699D01*
X139661000Y-79843310D01*
X139661000Y-79152750D01*
X139502250Y-78994000D01*
X138303000Y-78994000D01*
X138049000Y-78994000D01*
X138029000Y-78994000D01*
X138029000Y-78740000D01*
X138049000Y-78740000D01*
X138049000Y-78720000D01*
X138303000Y-78720000D01*
X138303000Y-78740000D01*
X139502250Y-78740000D01*
X139661000Y-78581250D01*
X139661000Y-77890690D01*
X139564327Y-77657301D01*
X139385698Y-77478673D01*
X139224967Y-77412096D01*
X139246625Y-77397625D01*
X139574839Y-76906418D01*
X139690092Y-76327000D01*
X139574839Y-75747582D01*
X139246625Y-75256375D01*
X138948239Y-75057000D01*
X139246625Y-74857625D01*
X139574839Y-74366418D01*
X139690092Y-73787000D01*
X139574839Y-73207582D01*
X139246625Y-72716375D01*
X138948239Y-72517000D01*
X139246625Y-72317625D01*
X139574839Y-71826418D01*
X139690092Y-71247000D01*
X139574839Y-70667582D01*
X139246625Y-70176375D01*
X138948239Y-69977000D01*
X139246625Y-69777625D01*
X139574839Y-69286418D01*
X139690092Y-68707000D01*
X139574839Y-68127582D01*
X139246625Y-67636375D01*
X138948239Y-67437000D01*
X139246625Y-67237625D01*
X139574839Y-66746418D01*
X139690092Y-66167000D01*
X139646538Y-65948040D01*
X148575579Y-57019000D01*
X172251839Y-57019000D01*
X172339000Y-57036337D01*
X172426161Y-57019000D01*
X172426165Y-57019000D01*
X172684310Y-56967652D01*
X172977049Y-56772049D01*
X173026425Y-56698153D01*
X175083562Y-54641017D01*
X175118667Y-54648000D01*
X175401333Y-54648000D01*
X175819909Y-54564740D01*
X176294577Y-54247577D01*
X176530000Y-53895242D01*
X176765423Y-54247577D01*
X176915001Y-54347522D01*
X176915000Y-56021421D01*
X175076845Y-57859577D01*
X175002952Y-57908951D01*
X174953578Y-57982844D01*
X174953576Y-57982846D01*
X174807348Y-58201691D01*
X174738663Y-58547000D01*
X174756001Y-58634165D01*
X174756000Y-66752313D01*
X174393540Y-66389853D01*
X173884494Y-66179000D01*
X173333506Y-66179000D01*
X172824460Y-66389853D01*
X172535313Y-66679000D01*
X172408641Y-66679000D01*
X172454000Y-66569494D01*
X172454000Y-66018506D01*
X172243147Y-65509460D01*
X171853540Y-65119853D01*
X171344494Y-64909000D01*
X170793506Y-64909000D01*
X170284460Y-65119853D01*
X169995313Y-65409000D01*
X155126159Y-65409000D01*
X155038999Y-65391663D01*
X154951840Y-65409000D01*
X154951835Y-65409000D01*
X154693690Y-65460348D01*
X154530586Y-65569331D01*
X154474845Y-65606576D01*
X154474844Y-65606577D01*
X154400951Y-65655951D01*
X154351577Y-65729844D01*
X152543367Y-67538055D01*
X152380000Y-67505560D01*
X151434139Y-67505560D01*
X149355925Y-65427347D01*
X149306549Y-65353451D01*
X149013810Y-65157848D01*
X148755665Y-65106500D01*
X148755661Y-65106500D01*
X148668500Y-65089163D01*
X148581339Y-65106500D01*
X146861889Y-65106500D01*
X146753586Y-64944414D01*
X146462436Y-64749873D01*
X146119001Y-64681560D01*
X145218999Y-64681560D01*
X144875564Y-64749873D01*
X144584414Y-64944414D01*
X144389873Y-65235564D01*
X144321560Y-65578999D01*
X144321560Y-66404001D01*
X144389873Y-66747436D01*
X144511191Y-66929000D01*
X144389873Y-67110564D01*
X144321560Y-67453999D01*
X144321560Y-68279001D01*
X144389873Y-68622436D01*
X144584414Y-68913586D01*
X144875564Y-69108127D01*
X145218999Y-69176440D01*
X146119001Y-69176440D01*
X146459611Y-69108689D01*
X147458921Y-70108000D01*
X146215659Y-70108000D01*
X146128499Y-70090663D01*
X146041339Y-70108000D01*
X146041335Y-70108000D01*
X145867589Y-70142560D01*
X145218999Y-70142560D01*
X144875564Y-70210873D01*
X144584414Y-70405414D01*
X144389873Y-70696564D01*
X144321560Y-71039999D01*
X144321560Y-71865001D01*
X144389873Y-72208436D01*
X144511191Y-72390000D01*
X144389873Y-72571564D01*
X144321560Y-72914999D01*
X144321560Y-73740001D01*
X144389873Y-74083436D01*
X144584414Y-74374586D01*
X144875564Y-74569127D01*
X145218999Y-74637440D01*
X146119001Y-74637440D01*
X146462436Y-74569127D01*
X146753586Y-74374586D01*
X146861889Y-74212500D01*
X148962339Y-74212500D01*
X149049500Y-74229837D01*
X149136661Y-74212500D01*
X149136665Y-74212500D01*
X149394810Y-74161152D01*
X149687549Y-73965549D01*
X149736925Y-73891653D01*
X150480579Y-73148000D01*
X150562544Y-73148000D01*
X150582235Y-73161157D01*
X150830000Y-73210440D01*
X152380000Y-73210440D01*
X152543367Y-73177945D01*
X153843577Y-74478156D01*
X153892951Y-74552049D01*
X153966844Y-74601423D01*
X153966845Y-74601424D01*
X154020747Y-74637440D01*
X154185690Y-74747652D01*
X154443835Y-74799000D01*
X154443839Y-74799000D01*
X154531000Y-74816337D01*
X154618161Y-74799000D01*
X169995313Y-74799000D01*
X170284460Y-75088147D01*
X170793506Y-75299000D01*
X171344494Y-75299000D01*
X171853540Y-75088147D01*
X172211560Y-74730127D01*
X172211560Y-75934000D01*
X172260843Y-76181765D01*
X172401191Y-76391809D01*
X172611235Y-76532157D01*
X172859000Y-76581440D01*
X174359000Y-76581440D01*
X174606765Y-76532157D01*
X174816809Y-76391809D01*
X174957157Y-76181765D01*
X174991436Y-76009431D01*
X177724000Y-76009431D01*
X177724000Y-76898569D01*
X178064259Y-77720026D01*
X178692974Y-78348741D01*
X179514431Y-78689000D01*
X180403569Y-78689000D01*
X181225026Y-78348741D01*
X181853741Y-77720026D01*
X182194000Y-76898569D01*
X182194000Y-76009431D01*
X181853741Y-75187974D01*
X181225026Y-74559259D01*
X180403569Y-74219000D01*
X179514431Y-74219000D01*
X178692974Y-74559259D01*
X178064259Y-75187974D01*
X177724000Y-76009431D01*
X174991436Y-76009431D01*
X175006440Y-75934000D01*
X175006440Y-74434000D01*
X174957157Y-74186235D01*
X174816809Y-73976191D01*
X174606765Y-73835843D01*
X174414156Y-73797531D01*
X174783147Y-73428540D01*
X174994000Y-72919494D01*
X174994000Y-72368506D01*
X174783147Y-71859460D01*
X174393540Y-71469853D01*
X174162130Y-71374000D01*
X174393540Y-71278147D01*
X174783147Y-70888540D01*
X174994000Y-70379494D01*
X174994000Y-69970578D01*
X176205156Y-68759423D01*
X176279049Y-68710049D01*
X176333091Y-68629171D01*
X176474652Y-68417310D01*
X176488331Y-68348540D01*
X176526000Y-68159165D01*
X176526000Y-68159161D01*
X176543337Y-68072000D01*
X176526000Y-67984839D01*
X176526000Y-64579431D01*
X177724000Y-64579431D01*
X177724000Y-65468569D01*
X178064259Y-66290026D01*
X178692974Y-66918741D01*
X179514431Y-67259000D01*
X180403569Y-67259000D01*
X181225026Y-66918741D01*
X181853741Y-66290026D01*
X182194000Y-65468569D01*
X182194000Y-64579431D01*
X181853741Y-63757974D01*
X181225026Y-63129259D01*
X180403569Y-62789000D01*
X179514431Y-62789000D01*
X178692974Y-63129259D01*
X178064259Y-63757974D01*
X177724000Y-64579431D01*
X176526000Y-64579431D01*
X176526000Y-58913578D01*
X178364156Y-57075423D01*
X178438049Y-57026049D01*
X178633652Y-56733310D01*
X178685000Y-56475165D01*
X178685000Y-56475160D01*
X178702337Y-56388001D01*
X178685000Y-56300841D01*
X178685000Y-54347521D01*
X178834577Y-54247577D01*
X179070000Y-53895242D01*
X179305423Y-54247577D01*
X179780091Y-54564740D01*
X180198667Y-54648000D01*
X180481333Y-54648000D01*
X180899909Y-54564740D01*
X181374577Y-54247577D01*
X181610000Y-53895242D01*
X181845423Y-54247577D01*
X182320091Y-54564740D01*
X182738667Y-54648000D01*
X183021333Y-54648000D01*
X183439909Y-54564740D01*
X183914577Y-54247577D01*
X184231740Y-53772909D01*
X184343113Y-53213000D01*
X184231740Y-52653091D01*
X183914577Y-52178423D01*
X183439909Y-51861260D01*
X183021333Y-51778000D01*
X182738667Y-51778000D01*
X182320091Y-51861260D01*
X181845423Y-52178423D01*
X181610000Y-52530758D01*
X181374577Y-52178423D01*
X180899909Y-51861260D01*
X180481333Y-51778000D01*
X180198667Y-51778000D01*
X179780091Y-51861260D01*
X179305423Y-52178423D01*
X179070000Y-52530758D01*
X178834577Y-52178423D01*
X178359909Y-51861260D01*
X177941333Y-51778000D01*
X177658667Y-51778000D01*
X177240091Y-51861260D01*
X176765423Y-52178423D01*
X176530000Y-52530758D01*
X176294577Y-52178423D01*
X175819909Y-51861260D01*
X175401333Y-51778000D01*
X175118667Y-51778000D01*
X174700091Y-51861260D01*
X174225423Y-52178423D01*
X173990000Y-52530758D01*
X173754577Y-52178423D01*
X173279909Y-51861260D01*
X172861333Y-51778000D01*
X172578667Y-51778000D01*
X172160091Y-51861260D01*
X171685423Y-52178423D01*
X171450000Y-52530758D01*
X171214577Y-52178423D01*
X170739909Y-51861260D01*
X170321333Y-51778000D01*
X170038667Y-51778000D01*
X169620091Y-51861260D01*
X169145423Y-52178423D01*
X168910000Y-52530758D01*
X168674577Y-52178423D01*
X168199909Y-51861260D01*
X167781333Y-51778000D01*
X167498667Y-51778000D01*
X167080091Y-51861260D01*
X166605423Y-52178423D01*
X166370000Y-52530758D01*
X166134577Y-52178423D01*
X165659909Y-51861260D01*
X165241333Y-51778000D01*
X164958667Y-51778000D01*
X164540091Y-51861260D01*
X164065423Y-52178423D01*
X163748260Y-52653091D01*
X163636887Y-53213000D01*
X163748260Y-53772909D01*
X164065423Y-54247577D01*
X164540091Y-54564740D01*
X164958667Y-54648000D01*
X165241333Y-54648000D01*
X165659909Y-54564740D01*
X166134577Y-54247577D01*
X166370000Y-53895242D01*
X166605423Y-54247577D01*
X167080091Y-54564740D01*
X167498667Y-54648000D01*
X167781333Y-54648000D01*
X168199909Y-54564740D01*
X168674577Y-54247577D01*
X168910000Y-53895242D01*
X169145423Y-54247577D01*
X169620091Y-54564740D01*
X170038667Y-54648000D01*
X170321333Y-54648000D01*
X170739909Y-54564740D01*
X171214577Y-54247577D01*
X171450000Y-53895242D01*
X171685423Y-54247577D01*
X172160091Y-54564740D01*
X172574292Y-54647130D01*
X171972422Y-55249000D01*
X148296161Y-55249000D01*
X148209000Y-55231663D01*
X148121839Y-55249000D01*
X148121835Y-55249000D01*
X147863690Y-55300348D01*
X147644845Y-55446576D01*
X147644844Y-55446577D01*
X147570951Y-55495951D01*
X147521577Y-55569844D01*
X138394960Y-64696462D01*
X138322256Y-64682000D01*
X138029744Y-64682000D01*
X137596582Y-64768161D01*
X137105375Y-65096375D01*
X136777161Y-65587582D01*
X136661908Y-66167000D01*
X136777161Y-66746418D01*
X137105375Y-67237625D01*
X137403761Y-67437000D01*
X137105375Y-67636375D01*
X136777161Y-68127582D01*
X136661908Y-68707000D01*
X136777161Y-69286418D01*
X137105375Y-69777625D01*
X137403761Y-69977000D01*
X137105375Y-70176375D01*
X136777161Y-70667582D01*
X136661908Y-71247000D01*
X136777161Y-71826418D01*
X137105375Y-72317625D01*
X137403761Y-72517000D01*
X137105375Y-72716375D01*
X136777161Y-73207582D01*
X136661908Y-73787000D01*
X136777161Y-74366418D01*
X137105375Y-74857625D01*
X137403761Y-75057000D01*
X137105375Y-75256375D01*
X136777161Y-75747582D01*
X136661908Y-76327000D01*
X136705462Y-76545960D01*
X134817845Y-78433577D01*
X134743952Y-78482951D01*
X134694578Y-78556844D01*
X134694576Y-78556846D01*
X134548348Y-78775691D01*
X134479663Y-79121000D01*
X134060000Y-79121000D01*
X134060000Y-53381248D01*
X134079615Y-53213000D01*
X136716887Y-53213000D01*
X136828260Y-53772909D01*
X137145423Y-54247577D01*
X137620091Y-54564740D01*
X138038667Y-54648000D01*
X138321333Y-54648000D01*
X138739909Y-54564740D01*
X139214577Y-54247577D01*
X139450000Y-53895242D01*
X139685423Y-54247577D01*
X140160091Y-54564740D01*
X140578667Y-54648000D01*
X140861333Y-54648000D01*
X141279909Y-54564740D01*
X141754577Y-54247577D01*
X141990000Y-53895242D01*
X142225423Y-54247577D01*
X142700091Y-54564740D01*
X143118667Y-54648000D01*
X143401333Y-54648000D01*
X143819909Y-54564740D01*
X144294577Y-54247577D01*
X144550947Y-53863892D01*
X144647611Y-54068134D01*
X145062577Y-54444041D01*
X145450961Y-54604904D01*
X145673000Y-54482915D01*
X145673000Y-53340000D01*
X145653000Y-53340000D01*
X145653000Y-53086000D01*
X145673000Y-53086000D01*
X145673000Y-51943085D01*
X145927000Y-51943085D01*
X145927000Y-53086000D01*
X145947000Y-53086000D01*
X145947000Y-53340000D01*
X145927000Y-53340000D01*
X145927000Y-54482915D01*
X146149039Y-54604904D01*
X146537423Y-54444041D01*
X146952389Y-54068134D01*
X147049053Y-53863892D01*
X147305423Y-54247577D01*
X147780091Y-54564740D01*
X148198667Y-54648000D01*
X148481333Y-54648000D01*
X148899909Y-54564740D01*
X149374577Y-54247577D01*
X149610000Y-53895242D01*
X149845423Y-54247577D01*
X150320091Y-54564740D01*
X150738667Y-54648000D01*
X151021333Y-54648000D01*
X151439909Y-54564740D01*
X151914577Y-54247577D01*
X152150000Y-53895242D01*
X152385423Y-54247577D01*
X152860091Y-54564740D01*
X153278667Y-54648000D01*
X153561333Y-54648000D01*
X153979909Y-54564740D01*
X154454577Y-54247577D01*
X154690000Y-53895242D01*
X154925423Y-54247577D01*
X155400091Y-54564740D01*
X155818667Y-54648000D01*
X156101333Y-54648000D01*
X156519909Y-54564740D01*
X156994577Y-54247577D01*
X157230000Y-53895242D01*
X157465423Y-54247577D01*
X157940091Y-54564740D01*
X158358667Y-54648000D01*
X158641333Y-54648000D01*
X159059909Y-54564740D01*
X159534577Y-54247577D01*
X159770000Y-53895242D01*
X160005423Y-54247577D01*
X160480091Y-54564740D01*
X160898667Y-54648000D01*
X161181333Y-54648000D01*
X161599909Y-54564740D01*
X162074577Y-54247577D01*
X162391740Y-53772909D01*
X162503113Y-53213000D01*
X162391740Y-52653091D01*
X162074577Y-52178423D01*
X161599909Y-51861260D01*
X161181333Y-51778000D01*
X160898667Y-51778000D01*
X160480091Y-51861260D01*
X160005423Y-52178423D01*
X159770000Y-52530758D01*
X159534577Y-52178423D01*
X159059909Y-51861260D01*
X158641333Y-51778000D01*
X158358667Y-51778000D01*
X157940091Y-51861260D01*
X157465423Y-52178423D01*
X157230000Y-52530758D01*
X156994577Y-52178423D01*
X156519909Y-51861260D01*
X156101333Y-51778000D01*
X155818667Y-51778000D01*
X155400091Y-51861260D01*
X154925423Y-52178423D01*
X154690000Y-52530758D01*
X154454577Y-52178423D01*
X153979909Y-51861260D01*
X153561333Y-51778000D01*
X153278667Y-51778000D01*
X152860091Y-51861260D01*
X152385423Y-52178423D01*
X152150000Y-52530758D01*
X151914577Y-52178423D01*
X151439909Y-51861260D01*
X151021333Y-51778000D01*
X150738667Y-51778000D01*
X150320091Y-51861260D01*
X149845423Y-52178423D01*
X149610000Y-52530758D01*
X149374577Y-52178423D01*
X148899909Y-51861260D01*
X148481333Y-51778000D01*
X148198667Y-51778000D01*
X147780091Y-51861260D01*
X147305423Y-52178423D01*
X147049053Y-52562108D01*
X146952389Y-52357866D01*
X146537423Y-51981959D01*
X146149039Y-51821096D01*
X145927000Y-51943085D01*
X145673000Y-51943085D01*
X145450961Y-51821096D01*
X145062577Y-51981959D01*
X144647611Y-52357866D01*
X144550947Y-52562108D01*
X144294577Y-52178423D01*
X143819909Y-51861260D01*
X143401333Y-51778000D01*
X143118667Y-51778000D01*
X142700091Y-51861260D01*
X142225423Y-52178423D01*
X141990000Y-52530758D01*
X141754577Y-52178423D01*
X141279909Y-51861260D01*
X140861333Y-51778000D01*
X140578667Y-51778000D01*
X140160091Y-51861260D01*
X139685423Y-52178423D01*
X139450000Y-52530758D01*
X139214577Y-52178423D01*
X138739909Y-51861260D01*
X138321333Y-51778000D01*
X138038667Y-51778000D01*
X137620091Y-51861260D01*
X137145423Y-52178423D01*
X136828260Y-52653091D01*
X136716887Y-53213000D01*
X134079615Y-53213000D01*
X134127388Y-52803249D01*
X134311766Y-52295295D01*
X134608057Y-51843376D01*
X135000364Y-51471742D01*
X135467641Y-51200325D01*
X135994132Y-51040866D01*
X136429619Y-51002000D01*
X184108752Y-51002000D01*
X184686751Y-51069388D01*
X184686751Y-51069388D01*
G37*
X184686751Y-51069388D02*
X185194705Y-51253766D01*
X185646624Y-51550057D01*
X186018258Y-51942364D01*
X186289675Y-52409641D01*
X186449134Y-52936132D01*
X186488001Y-53371630D01*
X186488000Y-101431752D01*
X186420612Y-102009751D01*
X186236234Y-102517705D01*
X185939941Y-102969625D01*
X185547636Y-103341259D01*
X185080354Y-103612677D01*
X184553867Y-103772134D01*
X184118381Y-103811000D01*
X136439248Y-103811000D01*
X135861249Y-103743612D01*
X135353295Y-103559234D01*
X134901375Y-103262941D01*
X134529741Y-102870636D01*
X134258323Y-102403354D01*
X134098866Y-101876867D01*
X134060000Y-101441381D01*
X134060000Y-100673000D01*
X145872560Y-100673000D01*
X145872560Y-102273000D01*
X145921843Y-102520765D01*
X146062191Y-102730809D01*
X146272235Y-102871157D01*
X146520000Y-102920440D01*
X148120000Y-102920440D01*
X148367765Y-102871157D01*
X148577809Y-102730809D01*
X148718157Y-102520765D01*
X148744785Y-102386894D01*
X148825423Y-102507577D01*
X149300091Y-102824740D01*
X149718667Y-102908000D01*
X150001333Y-102908000D01*
X150419909Y-102824740D01*
X150894577Y-102507577D01*
X151130000Y-102155242D01*
X151365423Y-102507577D01*
X151840091Y-102824740D01*
X152258667Y-102908000D01*
X152541333Y-102908000D01*
X152959909Y-102824740D01*
X153434577Y-102507577D01*
X153670000Y-102155242D01*
X153905423Y-102507577D01*
X154380091Y-102824740D01*
X154798667Y-102908000D01*
X155081333Y-102908000D01*
X155499909Y-102824740D01*
X155974577Y-102507577D01*
X156210000Y-102155242D01*
X156445423Y-102507577D01*
X156920091Y-102824740D01*
X157338667Y-102908000D01*
X157621333Y-102908000D01*
X158039909Y-102824740D01*
X158514577Y-102507577D01*
X158770947Y-102123892D01*
X158867611Y-102328134D01*
X159282577Y-102704041D01*
X159670961Y-102864904D01*
X159893000Y-102742915D01*
X159893000Y-101600000D01*
X160147000Y-101600000D01*
X160147000Y-102742915D01*
X160369039Y-102864904D01*
X160757423Y-102704041D01*
X161172389Y-102328134D01*
X161290000Y-102079633D01*
X161407611Y-102328134D01*
X161822577Y-102704041D01*
X162210961Y-102864904D01*
X162433000Y-102742915D01*
X162433000Y-101600000D01*
X160147000Y-101600000D01*
X159893000Y-101600000D01*
X159873000Y-101600000D01*
X159873000Y-101346000D01*
X159893000Y-101346000D01*
X159893000Y-100203085D01*
X160147000Y-100203085D01*
X160147000Y-101346000D01*
X162433000Y-101346000D01*
X162433000Y-100203085D01*
X162687000Y-100203085D01*
X162687000Y-101346000D01*
X162707000Y-101346000D01*
X162707000Y-101600000D01*
X162687000Y-101600000D01*
X162687000Y-102742915D01*
X162909039Y-102864904D01*
X163297423Y-102704041D01*
X163712389Y-102328134D01*
X163809053Y-102123892D01*
X164065423Y-102507577D01*
X164540091Y-102824740D01*
X164958667Y-102908000D01*
X165241333Y-102908000D01*
X165659909Y-102824740D01*
X166134577Y-102507577D01*
X166451740Y-102032909D01*
X166563113Y-101473000D01*
X168716887Y-101473000D01*
X168828260Y-102032909D01*
X169145423Y-102507577D01*
X169620091Y-102824740D01*
X170038667Y-102908000D01*
X170321333Y-102908000D01*
X170739909Y-102824740D01*
X171214577Y-102507577D01*
X171450000Y-102155242D01*
X171685423Y-102507577D01*
X172160091Y-102824740D01*
X172578667Y-102908000D01*
X172861333Y-102908000D01*
X173279909Y-102824740D01*
X173754577Y-102507577D01*
X173990000Y-102155242D01*
X174225423Y-102507577D01*
X174700091Y-102824740D01*
X175118667Y-102908000D01*
X175401333Y-102908000D01*
X175819909Y-102824740D01*
X176294577Y-102507577D01*
X176530000Y-102155242D01*
X176765423Y-102507577D01*
X177240091Y-102824740D01*
X177658667Y-102908000D01*
X177941333Y-102908000D01*
X178359909Y-102824740D01*
X178834577Y-102507577D01*
X179070000Y-102155242D01*
X179305423Y-102507577D01*
X179780091Y-102824740D01*
X180198667Y-102908000D01*
X180481333Y-102908000D01*
X180899909Y-102824740D01*
X181374577Y-102507577D01*
X181610000Y-102155242D01*
X181845423Y-102507577D01*
X182320091Y-102824740D01*
X182738667Y-102908000D01*
X183021333Y-102908000D01*
X183439909Y-102824740D01*
X183914577Y-102507577D01*
X184231740Y-102032909D01*
X184343113Y-101473000D01*
X184231740Y-100913091D01*
X183914577Y-100438423D01*
X183439909Y-100121260D01*
X183021333Y-100038000D01*
X182738667Y-100038000D01*
X182320091Y-100121260D01*
X181845423Y-100438423D01*
X181610000Y-100790758D01*
X181374577Y-100438423D01*
X180899909Y-100121260D01*
X180481333Y-100038000D01*
X180198667Y-100038000D01*
X179780091Y-100121260D01*
X179305423Y-100438423D01*
X179070000Y-100790758D01*
X178834577Y-100438423D01*
X178359909Y-100121260D01*
X177941333Y-100038000D01*
X177658667Y-100038000D01*
X177240091Y-100121260D01*
X176765423Y-100438423D01*
X176530000Y-100790758D01*
X176294577Y-100438423D01*
X175819909Y-100121260D01*
X175401333Y-100038000D01*
X175118667Y-100038000D01*
X174700091Y-100121260D01*
X174225423Y-100438423D01*
X173990000Y-100790758D01*
X173754577Y-100438423D01*
X173279909Y-100121260D01*
X172861333Y-100038000D01*
X172578667Y-100038000D01*
X172160091Y-100121260D01*
X171685423Y-100438423D01*
X171450000Y-100790758D01*
X171214577Y-100438423D01*
X171065000Y-100338479D01*
X171065000Y-96430446D01*
X171264586Y-96297086D01*
X171372889Y-96135000D01*
X173474839Y-96135000D01*
X173562000Y-96152337D01*
X173649161Y-96135000D01*
X173649165Y-96135000D01*
X173907310Y-96083652D01*
X174200049Y-95888049D01*
X174249425Y-95814153D01*
X178780578Y-91283000D01*
X179281560Y-91283000D01*
X179281560Y-93883000D01*
X179330843Y-94130765D01*
X179471191Y-94340809D01*
X179681235Y-94481157D01*
X179929000Y-94530440D01*
X182529000Y-94530440D01*
X182776765Y-94481157D01*
X182986809Y-94340809D01*
X183127157Y-94130765D01*
X183176440Y-93883000D01*
X183176440Y-91283000D01*
X183127157Y-91035235D01*
X182986809Y-90825191D01*
X182776765Y-90684843D01*
X182529000Y-90635560D01*
X179929000Y-90635560D01*
X179681235Y-90684843D01*
X179471191Y-90825191D01*
X179330843Y-91035235D01*
X179281560Y-91283000D01*
X178780578Y-91283000D01*
X180633015Y-89430564D01*
X180844105Y-89518000D01*
X181613895Y-89518000D01*
X182325090Y-89223414D01*
X182869414Y-88679090D01*
X183164000Y-87967895D01*
X183164000Y-87198105D01*
X182869414Y-86486910D01*
X182325090Y-85942586D01*
X181613895Y-85648000D01*
X180844105Y-85648000D01*
X180132910Y-85942586D01*
X179588586Y-86486910D01*
X179294000Y-87198105D01*
X179294000Y-87967895D01*
X179381436Y-88178985D01*
X173195422Y-94365000D01*
X171431664Y-94365000D01*
X171515000Y-94163809D01*
X171515000Y-93660750D01*
X171356250Y-93502000D01*
X170307000Y-93502000D01*
X170307000Y-93522000D01*
X170053000Y-93522000D01*
X170053000Y-93502000D01*
X169003750Y-93502000D01*
X168845000Y-93660750D01*
X168845000Y-94163809D01*
X168941673Y-94397198D01*
X168956014Y-94411539D01*
X168900873Y-94494064D01*
X168832560Y-94837499D01*
X168832560Y-95662501D01*
X168900873Y-96005936D01*
X169095414Y-96297086D01*
X169295001Y-96430446D01*
X169295000Y-100338479D01*
X169145423Y-100438423D01*
X168828260Y-100913091D01*
X168716887Y-101473000D01*
X166563113Y-101473000D01*
X166451740Y-100913091D01*
X166134577Y-100438423D01*
X165659909Y-100121260D01*
X165241333Y-100038000D01*
X164958667Y-100038000D01*
X164540091Y-100121260D01*
X164065423Y-100438423D01*
X163809053Y-100822108D01*
X163712389Y-100617866D01*
X163297423Y-100241959D01*
X162909039Y-100081096D01*
X162687000Y-100203085D01*
X162433000Y-100203085D01*
X162210961Y-100081096D01*
X161822577Y-100241959D01*
X161407611Y-100617866D01*
X161290000Y-100866367D01*
X161172389Y-100617866D01*
X160757423Y-100241959D01*
X160369039Y-100081096D01*
X160147000Y-100203085D01*
X159893000Y-100203085D01*
X159670961Y-100081096D01*
X159282577Y-100241959D01*
X158867611Y-100617866D01*
X158770947Y-100822108D01*
X158514577Y-100438423D01*
X158365000Y-100338479D01*
X158365000Y-92586191D01*
X168845000Y-92586191D01*
X168845000Y-93089250D01*
X169003750Y-93248000D01*
X170053000Y-93248000D01*
X170053000Y-92236250D01*
X170307000Y-92236250D01*
X170307000Y-93248000D01*
X171356250Y-93248000D01*
X171515000Y-93089250D01*
X171515000Y-92586191D01*
X171418327Y-92352802D01*
X171239699Y-92174173D01*
X171006310Y-92077500D01*
X170465750Y-92077500D01*
X170307000Y-92236250D01*
X170053000Y-92236250D01*
X169894250Y-92077500D01*
X169353690Y-92077500D01*
X169120301Y-92174173D01*
X168941673Y-92352802D01*
X168845000Y-92586191D01*
X158365000Y-92586191D01*
X158365000Y-91944440D01*
X158734000Y-91944440D01*
X158981765Y-91895157D01*
X159191809Y-91754809D01*
X159332157Y-91544765D01*
X159381440Y-91297000D01*
X159381440Y-89297000D01*
X159332157Y-89049235D01*
X159191809Y-88839191D01*
X158981765Y-88698843D01*
X158734000Y-88649560D01*
X156734000Y-88649560D01*
X156486235Y-88698843D01*
X156276191Y-88839191D01*
X156135843Y-89049235D01*
X156086560Y-89297000D01*
X156086560Y-91297000D01*
X156135843Y-91544765D01*
X156276191Y-91754809D01*
X156486235Y-91895157D01*
X156595001Y-91916792D01*
X156595000Y-100338479D01*
X156445423Y-100438423D01*
X156210000Y-100790758D01*
X155974577Y-100438423D01*
X155499909Y-100121260D01*
X155081333Y-100038000D01*
X154798667Y-100038000D01*
X154380091Y-100121260D01*
X153905423Y-100438423D01*
X153670000Y-100790758D01*
X153434577Y-100438423D01*
X152959909Y-100121260D01*
X152541333Y-100038000D01*
X152258667Y-100038000D01*
X151840091Y-100121260D01*
X151365423Y-100438423D01*
X151130000Y-100790758D01*
X150894577Y-100438423D01*
X150419909Y-100121260D01*
X150001333Y-100038000D01*
X149718667Y-100038000D01*
X149300091Y-100121260D01*
X148825423Y-100438423D01*
X148744785Y-100559106D01*
X148718157Y-100425235D01*
X148577809Y-100215191D01*
X148367765Y-100074843D01*
X148120000Y-100025560D01*
X146520000Y-100025560D01*
X146272235Y-100074843D01*
X146062191Y-100215191D01*
X145921843Y-100425235D01*
X145872560Y-100673000D01*
X134060000Y-100673000D01*
X134060000Y-79121000D01*
X134479663Y-79121000D01*
X134497001Y-79208165D01*
X134497000Y-86653839D01*
X134479663Y-86741000D01*
X134497000Y-86828161D01*
X134497000Y-86828164D01*
X134548348Y-87086309D01*
X134743951Y-87379049D01*
X134817847Y-87428425D01*
X138250577Y-90861156D01*
X138299951Y-90935049D01*
X138373844Y-90984423D01*
X138373845Y-90984424D01*
X138449889Y-91035235D01*
X138592690Y-91130652D01*
X138850835Y-91182000D01*
X138850839Y-91182000D01*
X138937999Y-91199337D01*
X139025159Y-91182000D01*
X141989560Y-91182000D01*
X141989560Y-91297000D01*
X142038843Y-91544765D01*
X142179191Y-91754809D01*
X142389235Y-91895157D01*
X142637000Y-91944440D01*
X144637000Y-91944440D01*
X144884765Y-91895157D01*
X145094809Y-91754809D01*
X145235157Y-91544765D01*
X145284440Y-91297000D01*
X145284440Y-89297000D01*
X145235157Y-89049235D01*
X145094809Y-88839191D01*
X144884765Y-88698843D01*
X144637000Y-88649560D01*
X142637000Y-88649560D01*
X142389235Y-88698843D01*
X142179191Y-88839191D01*
X142038843Y-89049235D01*
X141989560Y-89297000D01*
X141989560Y-89412000D01*
X139304579Y-89412000D01*
X136342111Y-86449532D01*
X142664073Y-86449532D01*
X142762736Y-86716387D01*
X143372461Y-86942908D01*
X144022460Y-86918856D01*
X144511264Y-86716387D01*
X144609927Y-86449532D01*
X156761073Y-86449532D01*
X156859736Y-86716387D01*
X157469461Y-86942908D01*
X158119460Y-86918856D01*
X158608264Y-86716387D01*
X158706927Y-86449532D01*
X157734000Y-85476605D01*
X156761073Y-86449532D01*
X144609927Y-86449532D01*
X143637000Y-85476605D01*
X142664073Y-86449532D01*
X136342111Y-86449532D01*
X136267000Y-86374422D01*
X136267000Y-85032461D01*
X141991092Y-85032461D01*
X142015144Y-85682460D01*
X142217613Y-86171264D01*
X142484468Y-86269927D01*
X143457395Y-85297000D01*
X143816605Y-85297000D01*
X144789532Y-86269927D01*
X145056387Y-86171264D01*
X145282908Y-85561539D01*
X145263331Y-85032461D01*
X156088092Y-85032461D01*
X156112144Y-85682460D01*
X156314613Y-86171264D01*
X156581468Y-86269927D01*
X157554395Y-85297000D01*
X157913605Y-85297000D01*
X158886532Y-86269927D01*
X159153387Y-86171264D01*
X159379908Y-85561539D01*
X159355856Y-84911540D01*
X159153387Y-84422736D01*
X158886532Y-84324073D01*
X157913605Y-85297000D01*
X157554395Y-85297000D01*
X156581468Y-84324073D01*
X156314613Y-84422736D01*
X156088092Y-85032461D01*
X145263331Y-85032461D01*
X145258856Y-84911540D01*
X145056387Y-84422736D01*
X144789532Y-84324073D01*
X143816605Y-85297000D01*
X143457395Y-85297000D01*
X142484468Y-84324073D01*
X142217613Y-84422736D01*
X141991092Y-85032461D01*
X136267000Y-85032461D01*
X136267000Y-84144468D01*
X142664073Y-84144468D01*
X143637000Y-85117395D01*
X144609927Y-84144468D01*
X156761073Y-84144468D01*
X157734000Y-85117395D01*
X158706927Y-84144468D01*
X158608264Y-83877613D01*
X157998539Y-83651092D01*
X157348540Y-83675144D01*
X156859736Y-83877613D01*
X156761073Y-84144468D01*
X144609927Y-84144468D01*
X144511264Y-83877613D01*
X143901539Y-83651092D01*
X143251540Y-83675144D01*
X142762736Y-83877613D01*
X142664073Y-84144468D01*
X136267000Y-84144468D01*
X136267000Y-79487578D01*
X136760576Y-78994002D01*
X136849748Y-78994002D01*
X136691000Y-79152750D01*
X136691000Y-79843310D01*
X136787673Y-80076699D01*
X136966302Y-80255327D01*
X137199691Y-80352000D01*
X137890250Y-80352000D01*
X138049000Y-80193250D01*
X138049000Y-78994000D01*
X138303000Y-78994000D01*
X138303000Y-80193250D01*
X138461750Y-80352000D01*
X139152309Y-80352000D01*
X139385698Y-80255327D01*
X139564327Y-80076699D01*
X139661000Y-79843310D01*
X139661000Y-79152750D01*
X139502250Y-78994000D01*
X138303000Y-78994000D01*
X138049000Y-78994000D01*
X138029000Y-78994000D01*
X138029000Y-78740000D01*
X138049000Y-78740000D01*
X138049000Y-78720000D01*
X138303000Y-78720000D01*
X138303000Y-78740000D01*
X139502250Y-78740000D01*
X139661000Y-78581250D01*
X139661000Y-77890690D01*
X139564327Y-77657301D01*
X139385698Y-77478673D01*
X139224967Y-77412096D01*
X139246625Y-77397625D01*
X139574839Y-76906418D01*
X139690092Y-76327000D01*
X139574839Y-75747582D01*
X139246625Y-75256375D01*
X138948239Y-75057000D01*
X139246625Y-74857625D01*
X139574839Y-74366418D01*
X139690092Y-73787000D01*
X139574839Y-73207582D01*
X139246625Y-72716375D01*
X138948239Y-72517000D01*
X139246625Y-72317625D01*
X139574839Y-71826418D01*
X139690092Y-71247000D01*
X139574839Y-70667582D01*
X139246625Y-70176375D01*
X138948239Y-69977000D01*
X139246625Y-69777625D01*
X139574839Y-69286418D01*
X139690092Y-68707000D01*
X139574839Y-68127582D01*
X139246625Y-67636375D01*
X138948239Y-67437000D01*
X139246625Y-67237625D01*
X139574839Y-66746418D01*
X139690092Y-66167000D01*
X139646538Y-65948040D01*
X148575579Y-57019000D01*
X172251839Y-57019000D01*
X172339000Y-57036337D01*
X172426161Y-57019000D01*
X172426165Y-57019000D01*
X172684310Y-56967652D01*
X172977049Y-56772049D01*
X173026425Y-56698153D01*
X175083562Y-54641017D01*
X175118667Y-54648000D01*
X175401333Y-54648000D01*
X175819909Y-54564740D01*
X176294577Y-54247577D01*
X176530000Y-53895242D01*
X176765423Y-54247577D01*
X176915001Y-54347522D01*
X176915000Y-56021421D01*
X175076845Y-57859577D01*
X175002952Y-57908951D01*
X174953578Y-57982844D01*
X174953576Y-57982846D01*
X174807348Y-58201691D01*
X174738663Y-58547000D01*
X174756001Y-58634165D01*
X174756000Y-66752313D01*
X174393540Y-66389853D01*
X173884494Y-66179000D01*
X173333506Y-66179000D01*
X172824460Y-66389853D01*
X172535313Y-66679000D01*
X172408641Y-66679000D01*
X172454000Y-66569494D01*
X172454000Y-66018506D01*
X172243147Y-65509460D01*
X171853540Y-65119853D01*
X171344494Y-64909000D01*
X170793506Y-64909000D01*
X170284460Y-65119853D01*
X169995313Y-65409000D01*
X155126159Y-65409000D01*
X155038999Y-65391663D01*
X154951840Y-65409000D01*
X154951835Y-65409000D01*
X154693690Y-65460348D01*
X154530586Y-65569331D01*
X154474845Y-65606576D01*
X154474844Y-65606577D01*
X154400951Y-65655951D01*
X154351577Y-65729844D01*
X152543367Y-67538055D01*
X152380000Y-67505560D01*
X151434139Y-67505560D01*
X149355925Y-65427347D01*
X149306549Y-65353451D01*
X149013810Y-65157848D01*
X148755665Y-65106500D01*
X148755661Y-65106500D01*
X148668500Y-65089163D01*
X148581339Y-65106500D01*
X146861889Y-65106500D01*
X146753586Y-64944414D01*
X146462436Y-64749873D01*
X146119001Y-64681560D01*
X145218999Y-64681560D01*
X144875564Y-64749873D01*
X144584414Y-64944414D01*
X144389873Y-65235564D01*
X144321560Y-65578999D01*
X144321560Y-66404001D01*
X144389873Y-66747436D01*
X144511191Y-66929000D01*
X144389873Y-67110564D01*
X144321560Y-67453999D01*
X144321560Y-68279001D01*
X144389873Y-68622436D01*
X144584414Y-68913586D01*
X144875564Y-69108127D01*
X145218999Y-69176440D01*
X146119001Y-69176440D01*
X146459611Y-69108689D01*
X147458921Y-70108000D01*
X146215659Y-70108000D01*
X146128499Y-70090663D01*
X146041339Y-70108000D01*
X146041335Y-70108000D01*
X145867589Y-70142560D01*
X145218999Y-70142560D01*
X144875564Y-70210873D01*
X144584414Y-70405414D01*
X144389873Y-70696564D01*
X144321560Y-71039999D01*
X144321560Y-71865001D01*
X144389873Y-72208436D01*
X144511191Y-72390000D01*
X144389873Y-72571564D01*
X144321560Y-72914999D01*
X144321560Y-73740001D01*
X144389873Y-74083436D01*
X144584414Y-74374586D01*
X144875564Y-74569127D01*
X145218999Y-74637440D01*
X146119001Y-74637440D01*
X146462436Y-74569127D01*
X146753586Y-74374586D01*
X146861889Y-74212500D01*
X148962339Y-74212500D01*
X149049500Y-74229837D01*
X149136661Y-74212500D01*
X149136665Y-74212500D01*
X149394810Y-74161152D01*
X149687549Y-73965549D01*
X149736925Y-73891653D01*
X150480579Y-73148000D01*
X150562544Y-73148000D01*
X150582235Y-73161157D01*
X150830000Y-73210440D01*
X152380000Y-73210440D01*
X152543367Y-73177945D01*
X153843577Y-74478156D01*
X153892951Y-74552049D01*
X153966844Y-74601423D01*
X153966845Y-74601424D01*
X154020747Y-74637440D01*
X154185690Y-74747652D01*
X154443835Y-74799000D01*
X154443839Y-74799000D01*
X154531000Y-74816337D01*
X154618161Y-74799000D01*
X169995313Y-74799000D01*
X170284460Y-75088147D01*
X170793506Y-75299000D01*
X171344494Y-75299000D01*
X171853540Y-75088147D01*
X172211560Y-74730127D01*
X172211560Y-75934000D01*
X172260843Y-76181765D01*
X172401191Y-76391809D01*
X172611235Y-76532157D01*
X172859000Y-76581440D01*
X174359000Y-76581440D01*
X174606765Y-76532157D01*
X174816809Y-76391809D01*
X174957157Y-76181765D01*
X174991436Y-76009431D01*
X177724000Y-76009431D01*
X177724000Y-76898569D01*
X178064259Y-77720026D01*
X178692974Y-78348741D01*
X179514431Y-78689000D01*
X180403569Y-78689000D01*
X181225026Y-78348741D01*
X181853741Y-77720026D01*
X182194000Y-76898569D01*
X182194000Y-76009431D01*
X181853741Y-75187974D01*
X181225026Y-74559259D01*
X180403569Y-74219000D01*
X179514431Y-74219000D01*
X178692974Y-74559259D01*
X178064259Y-75187974D01*
X177724000Y-76009431D01*
X174991436Y-76009431D01*
X175006440Y-75934000D01*
X175006440Y-74434000D01*
X174957157Y-74186235D01*
X174816809Y-73976191D01*
X174606765Y-73835843D01*
X174414156Y-73797531D01*
X174783147Y-73428540D01*
X174994000Y-72919494D01*
X174994000Y-72368506D01*
X174783147Y-71859460D01*
X174393540Y-71469853D01*
X174162130Y-71374000D01*
X174393540Y-71278147D01*
X174783147Y-70888540D01*
X174994000Y-70379494D01*
X174994000Y-69970578D01*
X176205156Y-68759423D01*
X176279049Y-68710049D01*
X176333091Y-68629171D01*
X176474652Y-68417310D01*
X176488331Y-68348540D01*
X176526000Y-68159165D01*
X176526000Y-68159161D01*
X176543337Y-68072000D01*
X176526000Y-67984839D01*
X176526000Y-64579431D01*
X177724000Y-64579431D01*
X177724000Y-65468569D01*
X178064259Y-66290026D01*
X178692974Y-66918741D01*
X179514431Y-67259000D01*
X180403569Y-67259000D01*
X181225026Y-66918741D01*
X181853741Y-66290026D01*
X182194000Y-65468569D01*
X182194000Y-64579431D01*
X181853741Y-63757974D01*
X181225026Y-63129259D01*
X180403569Y-62789000D01*
X179514431Y-62789000D01*
X178692974Y-63129259D01*
X178064259Y-63757974D01*
X177724000Y-64579431D01*
X176526000Y-64579431D01*
X176526000Y-58913578D01*
X178364156Y-57075423D01*
X178438049Y-57026049D01*
X178633652Y-56733310D01*
X178685000Y-56475165D01*
X178685000Y-56475160D01*
X178702337Y-56388001D01*
X178685000Y-56300841D01*
X178685000Y-54347521D01*
X178834577Y-54247577D01*
X179070000Y-53895242D01*
X179305423Y-54247577D01*
X179780091Y-54564740D01*
X180198667Y-54648000D01*
X180481333Y-54648000D01*
X180899909Y-54564740D01*
X181374577Y-54247577D01*
X181610000Y-53895242D01*
X181845423Y-54247577D01*
X182320091Y-54564740D01*
X182738667Y-54648000D01*
X183021333Y-54648000D01*
X183439909Y-54564740D01*
X183914577Y-54247577D01*
X184231740Y-53772909D01*
X184343113Y-53213000D01*
X184231740Y-52653091D01*
X183914577Y-52178423D01*
X183439909Y-51861260D01*
X183021333Y-51778000D01*
X182738667Y-51778000D01*
X182320091Y-51861260D01*
X181845423Y-52178423D01*
X181610000Y-52530758D01*
X181374577Y-52178423D01*
X180899909Y-51861260D01*
X180481333Y-51778000D01*
X180198667Y-51778000D01*
X179780091Y-51861260D01*
X179305423Y-52178423D01*
X179070000Y-52530758D01*
X178834577Y-52178423D01*
X178359909Y-51861260D01*
X177941333Y-51778000D01*
X177658667Y-51778000D01*
X177240091Y-51861260D01*
X176765423Y-52178423D01*
X176530000Y-52530758D01*
X176294577Y-52178423D01*
X175819909Y-51861260D01*
X175401333Y-51778000D01*
X175118667Y-51778000D01*
X174700091Y-51861260D01*
X174225423Y-52178423D01*
X173990000Y-52530758D01*
X173754577Y-52178423D01*
X173279909Y-51861260D01*
X172861333Y-51778000D01*
X172578667Y-51778000D01*
X172160091Y-51861260D01*
X171685423Y-52178423D01*
X171450000Y-52530758D01*
X171214577Y-52178423D01*
X170739909Y-51861260D01*
X170321333Y-51778000D01*
X170038667Y-51778000D01*
X169620091Y-51861260D01*
X169145423Y-52178423D01*
X168910000Y-52530758D01*
X168674577Y-52178423D01*
X168199909Y-51861260D01*
X167781333Y-51778000D01*
X167498667Y-51778000D01*
X167080091Y-51861260D01*
X166605423Y-52178423D01*
X166370000Y-52530758D01*
X166134577Y-52178423D01*
X165659909Y-51861260D01*
X165241333Y-51778000D01*
X164958667Y-51778000D01*
X164540091Y-51861260D01*
X164065423Y-52178423D01*
X163748260Y-52653091D01*
X163636887Y-53213000D01*
X163748260Y-53772909D01*
X164065423Y-54247577D01*
X164540091Y-54564740D01*
X164958667Y-54648000D01*
X165241333Y-54648000D01*
X165659909Y-54564740D01*
X166134577Y-54247577D01*
X166370000Y-53895242D01*
X166605423Y-54247577D01*
X167080091Y-54564740D01*
X167498667Y-54648000D01*
X167781333Y-54648000D01*
X168199909Y-54564740D01*
X168674577Y-54247577D01*
X168910000Y-53895242D01*
X169145423Y-54247577D01*
X169620091Y-54564740D01*
X170038667Y-54648000D01*
X170321333Y-54648000D01*
X170739909Y-54564740D01*
X171214577Y-54247577D01*
X171450000Y-53895242D01*
X171685423Y-54247577D01*
X172160091Y-54564740D01*
X172574292Y-54647130D01*
X171972422Y-55249000D01*
X148296161Y-55249000D01*
X148209000Y-55231663D01*
X148121839Y-55249000D01*
X148121835Y-55249000D01*
X147863690Y-55300348D01*
X147644845Y-55446576D01*
X147644844Y-55446577D01*
X147570951Y-55495951D01*
X147521577Y-55569844D01*
X138394960Y-64696462D01*
X138322256Y-64682000D01*
X138029744Y-64682000D01*
X137596582Y-64768161D01*
X137105375Y-65096375D01*
X136777161Y-65587582D01*
X136661908Y-66167000D01*
X136777161Y-66746418D01*
X137105375Y-67237625D01*
X137403761Y-67437000D01*
X137105375Y-67636375D01*
X136777161Y-68127582D01*
X136661908Y-68707000D01*
X136777161Y-69286418D01*
X137105375Y-69777625D01*
X137403761Y-69977000D01*
X137105375Y-70176375D01*
X136777161Y-70667582D01*
X136661908Y-71247000D01*
X136777161Y-71826418D01*
X137105375Y-72317625D01*
X137403761Y-72517000D01*
X137105375Y-72716375D01*
X136777161Y-73207582D01*
X136661908Y-73787000D01*
X136777161Y-74366418D01*
X137105375Y-74857625D01*
X137403761Y-75057000D01*
X137105375Y-75256375D01*
X136777161Y-75747582D01*
X136661908Y-76327000D01*
X136705462Y-76545960D01*
X134817845Y-78433577D01*
X134743952Y-78482951D01*
X134694578Y-78556844D01*
X134694576Y-78556846D01*
X134548348Y-78775691D01*
X134479663Y-79121000D01*
X134060000Y-79121000D01*
X134060000Y-53381248D01*
X134079615Y-53213000D01*
X136716887Y-53213000D01*
X136828260Y-53772909D01*
X137145423Y-54247577D01*
X137620091Y-54564740D01*
X138038667Y-54648000D01*
X138321333Y-54648000D01*
X138739909Y-54564740D01*
X139214577Y-54247577D01*
X139450000Y-53895242D01*
X139685423Y-54247577D01*
X140160091Y-54564740D01*
X140578667Y-54648000D01*
X140861333Y-54648000D01*
X141279909Y-54564740D01*
X141754577Y-54247577D01*
X141990000Y-53895242D01*
X142225423Y-54247577D01*
X142700091Y-54564740D01*
X143118667Y-54648000D01*
X143401333Y-54648000D01*
X143819909Y-54564740D01*
X144294577Y-54247577D01*
X144550947Y-53863892D01*
X144647611Y-54068134D01*
X145062577Y-54444041D01*
X145450961Y-54604904D01*
X145673000Y-54482915D01*
X145673000Y-53340000D01*
X145653000Y-53340000D01*
X145653000Y-53086000D01*
X145673000Y-53086000D01*
X145673000Y-51943085D01*
X145927000Y-51943085D01*
X145927000Y-53086000D01*
X145947000Y-53086000D01*
X145947000Y-53340000D01*
X145927000Y-53340000D01*
X145927000Y-54482915D01*
X146149039Y-54604904D01*
X146537423Y-54444041D01*
X146952389Y-54068134D01*
X147049053Y-53863892D01*
X147305423Y-54247577D01*
X147780091Y-54564740D01*
X148198667Y-54648000D01*
X148481333Y-54648000D01*
X148899909Y-54564740D01*
X149374577Y-54247577D01*
X149610000Y-53895242D01*
X149845423Y-54247577D01*
X150320091Y-54564740D01*
X150738667Y-54648000D01*
X151021333Y-54648000D01*
X151439909Y-54564740D01*
X151914577Y-54247577D01*
X152150000Y-53895242D01*
X152385423Y-54247577D01*
X152860091Y-54564740D01*
X153278667Y-54648000D01*
X153561333Y-54648000D01*
X153979909Y-54564740D01*
X154454577Y-54247577D01*
X154690000Y-53895242D01*
X154925423Y-54247577D01*
X155400091Y-54564740D01*
X155818667Y-54648000D01*
X156101333Y-54648000D01*
X156519909Y-54564740D01*
X156994577Y-54247577D01*
X157230000Y-53895242D01*
X157465423Y-54247577D01*
X157940091Y-54564740D01*
X158358667Y-54648000D01*
X158641333Y-54648000D01*
X159059909Y-54564740D01*
X159534577Y-54247577D01*
X159770000Y-53895242D01*
X160005423Y-54247577D01*
X160480091Y-54564740D01*
X160898667Y-54648000D01*
X161181333Y-54648000D01*
X161599909Y-54564740D01*
X162074577Y-54247577D01*
X162391740Y-53772909D01*
X162503113Y-53213000D01*
X162391740Y-52653091D01*
X162074577Y-52178423D01*
X161599909Y-51861260D01*
X161181333Y-51778000D01*
X160898667Y-51778000D01*
X160480091Y-51861260D01*
X160005423Y-52178423D01*
X159770000Y-52530758D01*
X159534577Y-52178423D01*
X159059909Y-51861260D01*
X158641333Y-51778000D01*
X158358667Y-51778000D01*
X157940091Y-51861260D01*
X157465423Y-52178423D01*
X157230000Y-52530758D01*
X156994577Y-52178423D01*
X156519909Y-51861260D01*
X156101333Y-51778000D01*
X155818667Y-51778000D01*
X155400091Y-51861260D01*
X154925423Y-52178423D01*
X154690000Y-52530758D01*
X154454577Y-52178423D01*
X153979909Y-51861260D01*
X153561333Y-51778000D01*
X153278667Y-51778000D01*
X152860091Y-51861260D01*
X152385423Y-52178423D01*
X152150000Y-52530758D01*
X151914577Y-52178423D01*
X151439909Y-51861260D01*
X151021333Y-51778000D01*
X150738667Y-51778000D01*
X150320091Y-51861260D01*
X149845423Y-52178423D01*
X149610000Y-52530758D01*
X149374577Y-52178423D01*
X148899909Y-51861260D01*
X148481333Y-51778000D01*
X148198667Y-51778000D01*
X147780091Y-51861260D01*
X147305423Y-52178423D01*
X147049053Y-52562108D01*
X146952389Y-52357866D01*
X146537423Y-51981959D01*
X146149039Y-51821096D01*
X145927000Y-51943085D01*
X145673000Y-51943085D01*
X145450961Y-51821096D01*
X145062577Y-51981959D01*
X144647611Y-52357866D01*
X144550947Y-52562108D01*
X144294577Y-52178423D01*
X143819909Y-51861260D01*
X143401333Y-51778000D01*
X143118667Y-51778000D01*
X142700091Y-51861260D01*
X142225423Y-52178423D01*
X141990000Y-52530758D01*
X141754577Y-52178423D01*
X141279909Y-51861260D01*
X140861333Y-51778000D01*
X140578667Y-51778000D01*
X140160091Y-51861260D01*
X139685423Y-52178423D01*
X139450000Y-52530758D01*
X139214577Y-52178423D01*
X138739909Y-51861260D01*
X138321333Y-51778000D01*
X138038667Y-51778000D01*
X137620091Y-51861260D01*
X137145423Y-52178423D01*
X136828260Y-52653091D01*
X136716887Y-53213000D01*
X134079615Y-53213000D01*
X134127388Y-52803249D01*
X134311766Y-52295295D01*
X134608057Y-51843376D01*
X135000364Y-51471742D01*
X135467641Y-51200325D01*
X135994132Y-51040866D01*
X136429619Y-51002000D01*
X184108752Y-51002000D01*
X184686751Y-51069388D01*
G36*
X164860000Y-68584750D02*
X165018750Y-68743500D01*
X166243000Y-68743500D01*
X166243000Y-68723500D01*
X166497000Y-68723500D01*
X166497000Y-68743500D01*
X167721250Y-68743500D01*
X167880000Y-68584750D01*
X167880000Y-68449000D01*
X169735920Y-68449000D01*
X169671799Y-68629171D01*
X169699770Y-69179448D01*
X169745148Y-69288999D01*
X168128660Y-69288999D01*
X168041500Y-69271662D01*
X167954340Y-69288999D01*
X167954336Y-69288999D01*
X167880000Y-69303785D01*
X167880000Y-69156250D01*
X167721250Y-68997500D01*
X166497000Y-68997500D01*
X166497000Y-70059250D01*
X166655750Y-70218000D01*
X166745921Y-70218000D01*
X166478362Y-70485560D01*
X165745000Y-70485560D01*
X165401565Y-70553874D01*
X165110414Y-70748414D01*
X164974505Y-70951817D01*
X164930999Y-70943163D01*
X164843839Y-70960500D01*
X164843835Y-70960500D01*
X164661000Y-70996868D01*
X164661000Y-70777180D01*
X164495818Y-70378397D01*
X164190603Y-70073182D01*
X163791820Y-69908000D01*
X163360180Y-69908000D01*
X162961397Y-70073182D01*
X162926579Y-70108000D01*
X161415923Y-70108000D01*
X161486000Y-69938820D01*
X161486000Y-69507180D01*
X161340640Y-69156250D01*
X164860000Y-69156250D01*
X164860000Y-69709309D01*
X164956673Y-69942698D01*
X165135301Y-70121327D01*
X165368690Y-70218000D01*
X166084250Y-70218000D01*
X166243000Y-70059250D01*
X166243000Y-68997500D01*
X165018750Y-68997500D01*
X164860000Y-69156250D01*
X161340640Y-69156250D01*
X161320818Y-69108397D01*
X161015603Y-68803182D01*
X160616820Y-68638000D01*
X160185180Y-68638000D01*
X159786397Y-68803182D01*
X159751579Y-68838000D01*
X158415000Y-68838000D01*
X158415000Y-68738750D01*
X158256250Y-68580000D01*
X157132000Y-68580000D01*
X157132000Y-68600000D01*
X156878000Y-68600000D01*
X156878000Y-68580000D01*
X155753750Y-68580000D01*
X155595000Y-68738750D01*
X155595000Y-68879310D01*
X155684768Y-69096028D01*
X155631843Y-69175235D01*
X155582560Y-69423000D01*
X155582560Y-70023000D01*
X155631843Y-70270765D01*
X155690132Y-70358000D01*
X155631843Y-70445235D01*
X155582560Y-70693000D01*
X155582560Y-71293000D01*
X155627498Y-71518922D01*
X154537423Y-70428847D01*
X154488047Y-70354951D01*
X154195308Y-70159348D01*
X153937163Y-70108000D01*
X153937159Y-70108000D01*
X153849998Y-70090663D01*
X153762837Y-70108000D01*
X153746578Y-70108000D01*
X155405579Y-68449000D01*
X164860000Y-68449000D01*
X164860000Y-68584750D01*
X164860000Y-68584750D01*
G37*
X164860000Y-68584750D02*
X165018750Y-68743500D01*
X166243000Y-68743500D01*
X166243000Y-68723500D01*
X166497000Y-68723500D01*
X166497000Y-68743500D01*
X167721250Y-68743500D01*
X167880000Y-68584750D01*
X167880000Y-68449000D01*
X169735920Y-68449000D01*
X169671799Y-68629171D01*
X169699770Y-69179448D01*
X169745148Y-69288999D01*
X168128660Y-69288999D01*
X168041500Y-69271662D01*
X167954340Y-69288999D01*
X167954336Y-69288999D01*
X167880000Y-69303785D01*
X167880000Y-69156250D01*
X167721250Y-68997500D01*
X166497000Y-68997500D01*
X166497000Y-70059250D01*
X166655750Y-70218000D01*
X166745921Y-70218000D01*
X166478362Y-70485560D01*
X165745000Y-70485560D01*
X165401565Y-70553874D01*
X165110414Y-70748414D01*
X164974505Y-70951817D01*
X164930999Y-70943163D01*
X164843839Y-70960500D01*
X164843835Y-70960500D01*
X164661000Y-70996868D01*
X164661000Y-70777180D01*
X164495818Y-70378397D01*
X164190603Y-70073182D01*
X163791820Y-69908000D01*
X163360180Y-69908000D01*
X162961397Y-70073182D01*
X162926579Y-70108000D01*
X161415923Y-70108000D01*
X161486000Y-69938820D01*
X161486000Y-69507180D01*
X161340640Y-69156250D01*
X164860000Y-69156250D01*
X164860000Y-69709309D01*
X164956673Y-69942698D01*
X165135301Y-70121327D01*
X165368690Y-70218000D01*
X166084250Y-70218000D01*
X166243000Y-70059250D01*
X166243000Y-68997500D01*
X165018750Y-68997500D01*
X164860000Y-69156250D01*
X161340640Y-69156250D01*
X161320818Y-69108397D01*
X161015603Y-68803182D01*
X160616820Y-68638000D01*
X160185180Y-68638000D01*
X159786397Y-68803182D01*
X159751579Y-68838000D01*
X158415000Y-68838000D01*
X158415000Y-68738750D01*
X158256250Y-68580000D01*
X157132000Y-68580000D01*
X157132000Y-68600000D01*
X156878000Y-68600000D01*
X156878000Y-68580000D01*
X155753750Y-68580000D01*
X155595000Y-68738750D01*
X155595000Y-68879310D01*
X155684768Y-69096028D01*
X155631843Y-69175235D01*
X155582560Y-69423000D01*
X155582560Y-70023000D01*
X155631843Y-70270765D01*
X155690132Y-70358000D01*
X155631843Y-70445235D01*
X155582560Y-70693000D01*
X155582560Y-71293000D01*
X155627498Y-71518922D01*
X154537423Y-70428847D01*
X154488047Y-70354951D01*
X154195308Y-70159348D01*
X153937163Y-70108000D01*
X153937159Y-70108000D01*
X153849998Y-70090663D01*
X153762837Y-70108000D01*
X153746578Y-70108000D01*
X155405579Y-68449000D01*
X164860000Y-68449000D01*
X164860000Y-68584750D01*
G36*
X171262748Y-68819858D02*
X171248605Y-68834000D01*
X171262748Y-68848143D01*
X171083143Y-69027748D01*
X171069000Y-69013605D01*
X171054858Y-69027748D01*
X170875253Y-68848143D01*
X170889395Y-68834000D01*
X170875253Y-68819858D01*
X171054858Y-68640253D01*
X171069000Y-68654395D01*
X171083143Y-68640253D01*
X171262748Y-68819858D01*
X171262748Y-68819858D01*
G37*
X171262748Y-68819858D02*
X171248605Y-68834000D01*
X171262748Y-68848143D01*
X171083143Y-69027748D01*
X171069000Y-69013605D01*
X171054858Y-69027748D01*
X170875253Y-68848143D01*
X170889395Y-68834000D01*
X170875253Y-68819858D01*
X171054858Y-68640253D01*
X171069000Y-68654395D01*
X171083143Y-68640253D01*
X171262748Y-68819858D01*
G04 #@! TD*
M02*
