G04 #@! TF.GenerationSoftware,KiCad,Pcbnew,5.0.0-fee4fd1~65~ubuntu17.10.1*
G04 #@! TF.CreationDate,2019-03-26T20:25:46-05:00*
G04 #@! TF.ProjectId,Operator,4F70657261746F722E6B696361645F70,1*
G04 #@! TF.SameCoordinates,Original*
G04 #@! TF.FileFunction,Legend,Top*
G04 #@! TF.FilePolarity,Positive*
%FSLAX46Y46*%
G04 Gerber Fmt 4.6, Leading zero omitted, Abs format (unit mm)*
G04 Created by KiCad (PCBNEW 5.0.0-fee4fd1~65~ubuntu17.10.1) date Tue Mar 26 20:25:46 2019*
%MOMM*%
%LPD*%
G01*
G04 APERTURE LIST*
%ADD10C,0.120000*%
%ADD11C,0.150000*%
G04 APERTURE END LIST*
D10*
G04 #@! TO.C,C3*
X164898000Y-86821983D02*
X164898000Y-86406017D01*
X166318000Y-86821983D02*
X166318000Y-86406017D01*
G04 #@! TO.C,A1*
X188238001Y-88925001D02*
X188238001Y-56155001D01*
X188238001Y-56155001D02*
X185698001Y-53615001D01*
X185698001Y-53615001D02*
X185698001Y-50945001D01*
X185698001Y-50945001D02*
X119398001Y-50945001D01*
X119398001Y-50945001D02*
X119398001Y-54125001D01*
X119398001Y-54125001D02*
X117498001Y-54125001D01*
X117498001Y-54125001D02*
X117498001Y-63265001D01*
X117498001Y-63265001D02*
X119398001Y-63265001D01*
X119398001Y-63265001D02*
X119398001Y-83335001D01*
X119398001Y-83335001D02*
X113048001Y-83335001D01*
X113048001Y-83335001D02*
X113048001Y-95015001D01*
X113048001Y-95015001D02*
X119398001Y-95015001D01*
X119398001Y-95015001D02*
X119398001Y-104545001D01*
X119398001Y-104545001D02*
X184048001Y-104545001D01*
X184048001Y-104545001D02*
X185698001Y-102895001D01*
X185698001Y-102895001D02*
X185698001Y-91465001D01*
X185698001Y-91465001D02*
X188238001Y-88925001D01*
G04 #@! TO.C,C1*
X153456000Y-70271000D02*
G75*
G03X153456000Y-70271000I-5120000J0D01*
G01*
X143256000Y-70271000D02*
X153416000Y-70271000D01*
X143256000Y-70231000D02*
X153416000Y-70231000D01*
X143256000Y-70191000D02*
X153416000Y-70191000D01*
X143257000Y-70151000D02*
X153415000Y-70151000D01*
X143258000Y-70111000D02*
X153414000Y-70111000D01*
X143259000Y-70071000D02*
X153413000Y-70071000D01*
X143261000Y-70031000D02*
X153411000Y-70031000D01*
X143263000Y-69991000D02*
X153409000Y-69991000D01*
X143266000Y-69951000D02*
X153406000Y-69951000D01*
X143268000Y-69911000D02*
X153404000Y-69911000D01*
X143271000Y-69871000D02*
X153401000Y-69871000D01*
X143274000Y-69831000D02*
X153398000Y-69831000D01*
X143278000Y-69791000D02*
X153394000Y-69791000D01*
X143282000Y-69751000D02*
X153390000Y-69751000D01*
X143286000Y-69711000D02*
X153386000Y-69711000D01*
X143291000Y-69671000D02*
X153381000Y-69671000D01*
X143296000Y-69631000D02*
X153376000Y-69631000D01*
X143301000Y-69591000D02*
X153371000Y-69591000D01*
X143306000Y-69550000D02*
X153366000Y-69550000D01*
X143312000Y-69510000D02*
X153360000Y-69510000D01*
X143318000Y-69470000D02*
X153354000Y-69470000D01*
X143325000Y-69430000D02*
X153347000Y-69430000D01*
X143332000Y-69390000D02*
X153340000Y-69390000D01*
X143339000Y-69350000D02*
X153333000Y-69350000D01*
X143346000Y-69310000D02*
X153326000Y-69310000D01*
X143354000Y-69270000D02*
X153318000Y-69270000D01*
X143362000Y-69230000D02*
X153310000Y-69230000D01*
X143371000Y-69190000D02*
X153301000Y-69190000D01*
X143380000Y-69150000D02*
X153292000Y-69150000D01*
X143389000Y-69110000D02*
X153283000Y-69110000D01*
X143398000Y-69070000D02*
X153274000Y-69070000D01*
X143408000Y-69030000D02*
X153264000Y-69030000D01*
X143418000Y-68990000D02*
X147095000Y-68990000D01*
X149577000Y-68990000D02*
X153254000Y-68990000D01*
X143429000Y-68950000D02*
X147095000Y-68950000D01*
X149577000Y-68950000D02*
X153243000Y-68950000D01*
X143439000Y-68910000D02*
X147095000Y-68910000D01*
X149577000Y-68910000D02*
X153233000Y-68910000D01*
X143451000Y-68870000D02*
X147095000Y-68870000D01*
X149577000Y-68870000D02*
X153221000Y-68870000D01*
X143462000Y-68830000D02*
X147095000Y-68830000D01*
X149577000Y-68830000D02*
X153210000Y-68830000D01*
X143474000Y-68790000D02*
X147095000Y-68790000D01*
X149577000Y-68790000D02*
X153198000Y-68790000D01*
X143486000Y-68750000D02*
X147095000Y-68750000D01*
X149577000Y-68750000D02*
X153186000Y-68750000D01*
X143499000Y-68710000D02*
X147095000Y-68710000D01*
X149577000Y-68710000D02*
X153173000Y-68710000D01*
X143512000Y-68670000D02*
X147095000Y-68670000D01*
X149577000Y-68670000D02*
X153160000Y-68670000D01*
X143525000Y-68630000D02*
X147095000Y-68630000D01*
X149577000Y-68630000D02*
X153147000Y-68630000D01*
X143539000Y-68590000D02*
X147095000Y-68590000D01*
X149577000Y-68590000D02*
X153133000Y-68590000D01*
X143553000Y-68550000D02*
X147095000Y-68550000D01*
X149577000Y-68550000D02*
X153119000Y-68550000D01*
X143568000Y-68510000D02*
X147095000Y-68510000D01*
X149577000Y-68510000D02*
X153104000Y-68510000D01*
X143582000Y-68470000D02*
X147095000Y-68470000D01*
X149577000Y-68470000D02*
X153090000Y-68470000D01*
X143598000Y-68430000D02*
X147095000Y-68430000D01*
X149577000Y-68430000D02*
X153074000Y-68430000D01*
X143613000Y-68390000D02*
X147095000Y-68390000D01*
X149577000Y-68390000D02*
X153059000Y-68390000D01*
X143629000Y-68350000D02*
X147095000Y-68350000D01*
X149577000Y-68350000D02*
X153043000Y-68350000D01*
X143646000Y-68310000D02*
X147095000Y-68310000D01*
X149577000Y-68310000D02*
X153026000Y-68310000D01*
X143662000Y-68270000D02*
X147095000Y-68270000D01*
X149577000Y-68270000D02*
X153010000Y-68270000D01*
X143679000Y-68230000D02*
X147095000Y-68230000D01*
X149577000Y-68230000D02*
X152993000Y-68230000D01*
X143697000Y-68190000D02*
X147095000Y-68190000D01*
X149577000Y-68190000D02*
X152975000Y-68190000D01*
X143715000Y-68150000D02*
X147095000Y-68150000D01*
X149577000Y-68150000D02*
X152957000Y-68150000D01*
X143733000Y-68110000D02*
X147095000Y-68110000D01*
X149577000Y-68110000D02*
X152939000Y-68110000D01*
X143752000Y-68070000D02*
X147095000Y-68070000D01*
X149577000Y-68070000D02*
X152920000Y-68070000D01*
X143772000Y-68030000D02*
X147095000Y-68030000D01*
X149577000Y-68030000D02*
X152900000Y-68030000D01*
X143791000Y-67990000D02*
X147095000Y-67990000D01*
X149577000Y-67990000D02*
X152881000Y-67990000D01*
X143811000Y-67950000D02*
X147095000Y-67950000D01*
X149577000Y-67950000D02*
X152861000Y-67950000D01*
X143832000Y-67910000D02*
X147095000Y-67910000D01*
X149577000Y-67910000D02*
X152840000Y-67910000D01*
X143853000Y-67870000D02*
X147095000Y-67870000D01*
X149577000Y-67870000D02*
X152819000Y-67870000D01*
X143874000Y-67830000D02*
X147095000Y-67830000D01*
X149577000Y-67830000D02*
X152798000Y-67830000D01*
X143896000Y-67790000D02*
X147095000Y-67790000D01*
X149577000Y-67790000D02*
X152776000Y-67790000D01*
X143919000Y-67750000D02*
X147095000Y-67750000D01*
X149577000Y-67750000D02*
X152753000Y-67750000D01*
X143941000Y-67710000D02*
X147095000Y-67710000D01*
X149577000Y-67710000D02*
X152731000Y-67710000D01*
X143965000Y-67670000D02*
X147095000Y-67670000D01*
X149577000Y-67670000D02*
X152707000Y-67670000D01*
X143989000Y-67630000D02*
X147095000Y-67630000D01*
X149577000Y-67630000D02*
X152683000Y-67630000D01*
X144013000Y-67590000D02*
X147095000Y-67590000D01*
X149577000Y-67590000D02*
X152659000Y-67590000D01*
X144038000Y-67550000D02*
X147095000Y-67550000D01*
X149577000Y-67550000D02*
X152634000Y-67550000D01*
X144063000Y-67510000D02*
X147095000Y-67510000D01*
X149577000Y-67510000D02*
X152609000Y-67510000D01*
X144089000Y-67470000D02*
X147095000Y-67470000D01*
X149577000Y-67470000D02*
X152583000Y-67470000D01*
X144115000Y-67430000D02*
X147095000Y-67430000D01*
X149577000Y-67430000D02*
X152557000Y-67430000D01*
X144142000Y-67390000D02*
X147095000Y-67390000D01*
X149577000Y-67390000D02*
X152530000Y-67390000D01*
X144170000Y-67350000D02*
X147095000Y-67350000D01*
X149577000Y-67350000D02*
X152502000Y-67350000D01*
X144198000Y-67310000D02*
X147095000Y-67310000D01*
X149577000Y-67310000D02*
X152474000Y-67310000D01*
X144226000Y-67270000D02*
X147095000Y-67270000D01*
X149577000Y-67270000D02*
X152446000Y-67270000D01*
X144256000Y-67230000D02*
X147095000Y-67230000D01*
X149577000Y-67230000D02*
X152416000Y-67230000D01*
X144286000Y-67190000D02*
X147095000Y-67190000D01*
X149577000Y-67190000D02*
X152386000Y-67190000D01*
X144316000Y-67150000D02*
X147095000Y-67150000D01*
X149577000Y-67150000D02*
X152356000Y-67150000D01*
X144347000Y-67110000D02*
X147095000Y-67110000D01*
X149577000Y-67110000D02*
X152325000Y-67110000D01*
X144379000Y-67070000D02*
X147095000Y-67070000D01*
X149577000Y-67070000D02*
X152293000Y-67070000D01*
X144411000Y-67030000D02*
X147095000Y-67030000D01*
X149577000Y-67030000D02*
X152261000Y-67030000D01*
X144444000Y-66990000D02*
X147095000Y-66990000D01*
X149577000Y-66990000D02*
X152228000Y-66990000D01*
X144478000Y-66950000D02*
X147095000Y-66950000D01*
X149577000Y-66950000D02*
X152194000Y-66950000D01*
X144512000Y-66910000D02*
X147095000Y-66910000D01*
X149577000Y-66910000D02*
X152160000Y-66910000D01*
X144547000Y-66870000D02*
X147095000Y-66870000D01*
X149577000Y-66870000D02*
X152125000Y-66870000D01*
X144583000Y-66830000D02*
X147095000Y-66830000D01*
X149577000Y-66830000D02*
X152089000Y-66830000D01*
X144620000Y-66790000D02*
X147095000Y-66790000D01*
X149577000Y-66790000D02*
X152052000Y-66790000D01*
X144657000Y-66750000D02*
X147095000Y-66750000D01*
X149577000Y-66750000D02*
X152015000Y-66750000D01*
X144696000Y-66710000D02*
X147095000Y-66710000D01*
X149577000Y-66710000D02*
X151976000Y-66710000D01*
X144735000Y-66670000D02*
X147095000Y-66670000D01*
X149577000Y-66670000D02*
X151937000Y-66670000D01*
X144775000Y-66630000D02*
X147095000Y-66630000D01*
X149577000Y-66630000D02*
X151897000Y-66630000D01*
X144816000Y-66590000D02*
X147095000Y-66590000D01*
X149577000Y-66590000D02*
X151856000Y-66590000D01*
X144858000Y-66550000D02*
X147095000Y-66550000D01*
X149577000Y-66550000D02*
X151814000Y-66550000D01*
X144900000Y-66510000D02*
X151772000Y-66510000D01*
X144944000Y-66470000D02*
X151728000Y-66470000D01*
X144989000Y-66430000D02*
X151683000Y-66430000D01*
X145035000Y-66390000D02*
X151637000Y-66390000D01*
X145082000Y-66350000D02*
X151590000Y-66350000D01*
X145130000Y-66310000D02*
X151542000Y-66310000D01*
X145180000Y-66270000D02*
X151492000Y-66270000D01*
X145230000Y-66230000D02*
X151442000Y-66230000D01*
X145282000Y-66190000D02*
X151390000Y-66190000D01*
X145336000Y-66150000D02*
X151336000Y-66150000D01*
X145391000Y-66110000D02*
X151281000Y-66110000D01*
X145447000Y-66070000D02*
X151225000Y-66070000D01*
X145506000Y-66030000D02*
X151166000Y-66030000D01*
X145566000Y-65990000D02*
X151106000Y-65990000D01*
X145627000Y-65950000D02*
X151045000Y-65950000D01*
X145691000Y-65910000D02*
X150981000Y-65910000D01*
X145757000Y-65870000D02*
X150915000Y-65870000D01*
X145826000Y-65830000D02*
X150846000Y-65830000D01*
X145897000Y-65790000D02*
X150775000Y-65790000D01*
X145971000Y-65750000D02*
X150701000Y-65750000D01*
X146047000Y-65710000D02*
X150625000Y-65710000D01*
X146127000Y-65670000D02*
X150545000Y-65670000D01*
X146211000Y-65630000D02*
X150461000Y-65630000D01*
X146299000Y-65590000D02*
X150373000Y-65590000D01*
X146392000Y-65550000D02*
X150280000Y-65550000D01*
X146490000Y-65510000D02*
X150182000Y-65510000D01*
X146594000Y-65470000D02*
X150078000Y-65470000D01*
X146706000Y-65430000D02*
X149966000Y-65430000D01*
X146826000Y-65390000D02*
X149846000Y-65390000D01*
X146958000Y-65350000D02*
X149714000Y-65350000D01*
X147106000Y-65310000D02*
X149566000Y-65310000D01*
X147274000Y-65270000D02*
X149398000Y-65270000D01*
X147474000Y-65230000D02*
X149198000Y-65230000D01*
X147737000Y-65190000D02*
X148935000Y-65190000D01*
X145461000Y-75750646D02*
X145461000Y-74750646D01*
X144961000Y-75250646D02*
X145961000Y-75250646D01*
G04 #@! TO.C,C2*
X161090000Y-75250646D02*
X162090000Y-75250646D01*
X161590000Y-75750646D02*
X161590000Y-74750646D01*
X163866000Y-65190000D02*
X165064000Y-65190000D01*
X163603000Y-65230000D02*
X165327000Y-65230000D01*
X163403000Y-65270000D02*
X165527000Y-65270000D01*
X163235000Y-65310000D02*
X165695000Y-65310000D01*
X163087000Y-65350000D02*
X165843000Y-65350000D01*
X162955000Y-65390000D02*
X165975000Y-65390000D01*
X162835000Y-65430000D02*
X166095000Y-65430000D01*
X162723000Y-65470000D02*
X166207000Y-65470000D01*
X162619000Y-65510000D02*
X166311000Y-65510000D01*
X162521000Y-65550000D02*
X166409000Y-65550000D01*
X162428000Y-65590000D02*
X166502000Y-65590000D01*
X162340000Y-65630000D02*
X166590000Y-65630000D01*
X162256000Y-65670000D02*
X166674000Y-65670000D01*
X162176000Y-65710000D02*
X166754000Y-65710000D01*
X162100000Y-65750000D02*
X166830000Y-65750000D01*
X162026000Y-65790000D02*
X166904000Y-65790000D01*
X161955000Y-65830000D02*
X166975000Y-65830000D01*
X161886000Y-65870000D02*
X167044000Y-65870000D01*
X161820000Y-65910000D02*
X167110000Y-65910000D01*
X161756000Y-65950000D02*
X167174000Y-65950000D01*
X161695000Y-65990000D02*
X167235000Y-65990000D01*
X161635000Y-66030000D02*
X167295000Y-66030000D01*
X161576000Y-66070000D02*
X167354000Y-66070000D01*
X161520000Y-66110000D02*
X167410000Y-66110000D01*
X161465000Y-66150000D02*
X167465000Y-66150000D01*
X161411000Y-66190000D02*
X167519000Y-66190000D01*
X161359000Y-66230000D02*
X167571000Y-66230000D01*
X161309000Y-66270000D02*
X167621000Y-66270000D01*
X161259000Y-66310000D02*
X167671000Y-66310000D01*
X161211000Y-66350000D02*
X167719000Y-66350000D01*
X161164000Y-66390000D02*
X167766000Y-66390000D01*
X161118000Y-66430000D02*
X167812000Y-66430000D01*
X161073000Y-66470000D02*
X167857000Y-66470000D01*
X161029000Y-66510000D02*
X167901000Y-66510000D01*
X165706000Y-66550000D02*
X167943000Y-66550000D01*
X160987000Y-66550000D02*
X163224000Y-66550000D01*
X165706000Y-66590000D02*
X167985000Y-66590000D01*
X160945000Y-66590000D02*
X163224000Y-66590000D01*
X165706000Y-66630000D02*
X168026000Y-66630000D01*
X160904000Y-66630000D02*
X163224000Y-66630000D01*
X165706000Y-66670000D02*
X168066000Y-66670000D01*
X160864000Y-66670000D02*
X163224000Y-66670000D01*
X165706000Y-66710000D02*
X168105000Y-66710000D01*
X160825000Y-66710000D02*
X163224000Y-66710000D01*
X165706000Y-66750000D02*
X168144000Y-66750000D01*
X160786000Y-66750000D02*
X163224000Y-66750000D01*
X165706000Y-66790000D02*
X168181000Y-66790000D01*
X160749000Y-66790000D02*
X163224000Y-66790000D01*
X165706000Y-66830000D02*
X168218000Y-66830000D01*
X160712000Y-66830000D02*
X163224000Y-66830000D01*
X165706000Y-66870000D02*
X168254000Y-66870000D01*
X160676000Y-66870000D02*
X163224000Y-66870000D01*
X165706000Y-66910000D02*
X168289000Y-66910000D01*
X160641000Y-66910000D02*
X163224000Y-66910000D01*
X165706000Y-66950000D02*
X168323000Y-66950000D01*
X160607000Y-66950000D02*
X163224000Y-66950000D01*
X165706000Y-66990000D02*
X168357000Y-66990000D01*
X160573000Y-66990000D02*
X163224000Y-66990000D01*
X165706000Y-67030000D02*
X168390000Y-67030000D01*
X160540000Y-67030000D02*
X163224000Y-67030000D01*
X165706000Y-67070000D02*
X168422000Y-67070000D01*
X160508000Y-67070000D02*
X163224000Y-67070000D01*
X165706000Y-67110000D02*
X168454000Y-67110000D01*
X160476000Y-67110000D02*
X163224000Y-67110000D01*
X165706000Y-67150000D02*
X168485000Y-67150000D01*
X160445000Y-67150000D02*
X163224000Y-67150000D01*
X165706000Y-67190000D02*
X168515000Y-67190000D01*
X160415000Y-67190000D02*
X163224000Y-67190000D01*
X165706000Y-67230000D02*
X168545000Y-67230000D01*
X160385000Y-67230000D02*
X163224000Y-67230000D01*
X165706000Y-67270000D02*
X168575000Y-67270000D01*
X160355000Y-67270000D02*
X163224000Y-67270000D01*
X165706000Y-67310000D02*
X168603000Y-67310000D01*
X160327000Y-67310000D02*
X163224000Y-67310000D01*
X165706000Y-67350000D02*
X168631000Y-67350000D01*
X160299000Y-67350000D02*
X163224000Y-67350000D01*
X165706000Y-67390000D02*
X168659000Y-67390000D01*
X160271000Y-67390000D02*
X163224000Y-67390000D01*
X165706000Y-67430000D02*
X168686000Y-67430000D01*
X160244000Y-67430000D02*
X163224000Y-67430000D01*
X165706000Y-67470000D02*
X168712000Y-67470000D01*
X160218000Y-67470000D02*
X163224000Y-67470000D01*
X165706000Y-67510000D02*
X168738000Y-67510000D01*
X160192000Y-67510000D02*
X163224000Y-67510000D01*
X165706000Y-67550000D02*
X168763000Y-67550000D01*
X160167000Y-67550000D02*
X163224000Y-67550000D01*
X165706000Y-67590000D02*
X168788000Y-67590000D01*
X160142000Y-67590000D02*
X163224000Y-67590000D01*
X165706000Y-67630000D02*
X168812000Y-67630000D01*
X160118000Y-67630000D02*
X163224000Y-67630000D01*
X165706000Y-67670000D02*
X168836000Y-67670000D01*
X160094000Y-67670000D02*
X163224000Y-67670000D01*
X165706000Y-67710000D02*
X168860000Y-67710000D01*
X160070000Y-67710000D02*
X163224000Y-67710000D01*
X165706000Y-67750000D02*
X168882000Y-67750000D01*
X160048000Y-67750000D02*
X163224000Y-67750000D01*
X165706000Y-67790000D02*
X168905000Y-67790000D01*
X160025000Y-67790000D02*
X163224000Y-67790000D01*
X165706000Y-67830000D02*
X168927000Y-67830000D01*
X160003000Y-67830000D02*
X163224000Y-67830000D01*
X165706000Y-67870000D02*
X168948000Y-67870000D01*
X159982000Y-67870000D02*
X163224000Y-67870000D01*
X165706000Y-67910000D02*
X168969000Y-67910000D01*
X159961000Y-67910000D02*
X163224000Y-67910000D01*
X165706000Y-67950000D02*
X168990000Y-67950000D01*
X159940000Y-67950000D02*
X163224000Y-67950000D01*
X165706000Y-67990000D02*
X169010000Y-67990000D01*
X159920000Y-67990000D02*
X163224000Y-67990000D01*
X165706000Y-68030000D02*
X169029000Y-68030000D01*
X159901000Y-68030000D02*
X163224000Y-68030000D01*
X165706000Y-68070000D02*
X169049000Y-68070000D01*
X159881000Y-68070000D02*
X163224000Y-68070000D01*
X165706000Y-68110000D02*
X169068000Y-68110000D01*
X159862000Y-68110000D02*
X163224000Y-68110000D01*
X165706000Y-68150000D02*
X169086000Y-68150000D01*
X159844000Y-68150000D02*
X163224000Y-68150000D01*
X165706000Y-68190000D02*
X169104000Y-68190000D01*
X159826000Y-68190000D02*
X163224000Y-68190000D01*
X165706000Y-68230000D02*
X169122000Y-68230000D01*
X159808000Y-68230000D02*
X163224000Y-68230000D01*
X165706000Y-68270000D02*
X169139000Y-68270000D01*
X159791000Y-68270000D02*
X163224000Y-68270000D01*
X165706000Y-68310000D02*
X169155000Y-68310000D01*
X159775000Y-68310000D02*
X163224000Y-68310000D01*
X165706000Y-68350000D02*
X169172000Y-68350000D01*
X159758000Y-68350000D02*
X163224000Y-68350000D01*
X165706000Y-68390000D02*
X169188000Y-68390000D01*
X159742000Y-68390000D02*
X163224000Y-68390000D01*
X165706000Y-68430000D02*
X169203000Y-68430000D01*
X159727000Y-68430000D02*
X163224000Y-68430000D01*
X165706000Y-68470000D02*
X169219000Y-68470000D01*
X159711000Y-68470000D02*
X163224000Y-68470000D01*
X165706000Y-68510000D02*
X169233000Y-68510000D01*
X159697000Y-68510000D02*
X163224000Y-68510000D01*
X165706000Y-68550000D02*
X169248000Y-68550000D01*
X159682000Y-68550000D02*
X163224000Y-68550000D01*
X165706000Y-68590000D02*
X169262000Y-68590000D01*
X159668000Y-68590000D02*
X163224000Y-68590000D01*
X165706000Y-68630000D02*
X169276000Y-68630000D01*
X159654000Y-68630000D02*
X163224000Y-68630000D01*
X165706000Y-68670000D02*
X169289000Y-68670000D01*
X159641000Y-68670000D02*
X163224000Y-68670000D01*
X165706000Y-68710000D02*
X169302000Y-68710000D01*
X159628000Y-68710000D02*
X163224000Y-68710000D01*
X165706000Y-68750000D02*
X169315000Y-68750000D01*
X159615000Y-68750000D02*
X163224000Y-68750000D01*
X165706000Y-68790000D02*
X169327000Y-68790000D01*
X159603000Y-68790000D02*
X163224000Y-68790000D01*
X165706000Y-68830000D02*
X169339000Y-68830000D01*
X159591000Y-68830000D02*
X163224000Y-68830000D01*
X165706000Y-68870000D02*
X169350000Y-68870000D01*
X159580000Y-68870000D02*
X163224000Y-68870000D01*
X165706000Y-68910000D02*
X169362000Y-68910000D01*
X159568000Y-68910000D02*
X163224000Y-68910000D01*
X165706000Y-68950000D02*
X169372000Y-68950000D01*
X159558000Y-68950000D02*
X163224000Y-68950000D01*
X165706000Y-68990000D02*
X169383000Y-68990000D01*
X159547000Y-68990000D02*
X163224000Y-68990000D01*
X159537000Y-69030000D02*
X169393000Y-69030000D01*
X159527000Y-69070000D02*
X169403000Y-69070000D01*
X159518000Y-69110000D02*
X169412000Y-69110000D01*
X159509000Y-69150000D02*
X169421000Y-69150000D01*
X159500000Y-69190000D02*
X169430000Y-69190000D01*
X159491000Y-69230000D02*
X169439000Y-69230000D01*
X159483000Y-69270000D02*
X169447000Y-69270000D01*
X159475000Y-69310000D02*
X169455000Y-69310000D01*
X159468000Y-69350000D02*
X169462000Y-69350000D01*
X159461000Y-69390000D02*
X169469000Y-69390000D01*
X159454000Y-69430000D02*
X169476000Y-69430000D01*
X159447000Y-69470000D02*
X169483000Y-69470000D01*
X159441000Y-69510000D02*
X169489000Y-69510000D01*
X159435000Y-69550000D02*
X169495000Y-69550000D01*
X159430000Y-69591000D02*
X169500000Y-69591000D01*
X159425000Y-69631000D02*
X169505000Y-69631000D01*
X159420000Y-69671000D02*
X169510000Y-69671000D01*
X159415000Y-69711000D02*
X169515000Y-69711000D01*
X159411000Y-69751000D02*
X169519000Y-69751000D01*
X159407000Y-69791000D02*
X169523000Y-69791000D01*
X159403000Y-69831000D02*
X169527000Y-69831000D01*
X159400000Y-69871000D02*
X169530000Y-69871000D01*
X159397000Y-69911000D02*
X169533000Y-69911000D01*
X159395000Y-69951000D02*
X169535000Y-69951000D01*
X159392000Y-69991000D02*
X169538000Y-69991000D01*
X159390000Y-70031000D02*
X169540000Y-70031000D01*
X159388000Y-70071000D02*
X169542000Y-70071000D01*
X159387000Y-70111000D02*
X169543000Y-70111000D01*
X159386000Y-70151000D02*
X169544000Y-70151000D01*
X159385000Y-70191000D02*
X169545000Y-70191000D01*
X159385000Y-70231000D02*
X169545000Y-70231000D01*
X159385000Y-70271000D02*
X169545000Y-70271000D01*
X169585000Y-70271000D02*
G75*
G03X169585000Y-70271000I-5120000J0D01*
G01*
G04 #@! TO.C,J1*
X173982000Y-95694000D02*
X173482000Y-95194000D01*
X172982000Y-95694000D02*
X173982000Y-95694000D01*
X173482000Y-95194000D02*
X172982000Y-95694000D01*
X187562000Y-95009000D02*
X187562000Y-79489000D01*
X169602000Y-79489000D02*
X187562000Y-79489000D01*
X169602000Y-79489000D02*
X169602000Y-95009000D01*
X169602000Y-95009000D02*
X187562000Y-95009000D01*
G04 #@! TO.C,J2*
X184795756Y-68023682D02*
G75*
G02X184941000Y-68707000I-1534756J-683318D01*
G01*
X182577958Y-67171574D02*
G75*
G02X183945000Y-67172000I683042J-1535426D01*
G01*
X181725574Y-69390042D02*
G75*
G02X181726000Y-68023000I1535426J683042D01*
G01*
X183944042Y-70242426D02*
G75*
G02X182577000Y-70242000I-683042J1535426D01*
G01*
X184941253Y-68678195D02*
G75*
G02X184796000Y-69391000I-1680253J-28805D01*
G01*
X184941000Y-63707000D02*
G75*
G03X184941000Y-63707000I-1680000J0D01*
G01*
X187361000Y-71267000D02*
X187361000Y-61147000D01*
X185861000Y-71267000D02*
X185861000Y-61147000D01*
X180960000Y-71267000D02*
X180960000Y-61147000D01*
X178000000Y-71267000D02*
X178000000Y-61147000D01*
X187921000Y-71267000D02*
X187921000Y-61147000D01*
X178000000Y-71267000D02*
X187921000Y-71267000D01*
X178000000Y-61147000D02*
X187921000Y-61147000D01*
X182192000Y-62432000D02*
X182238000Y-62479000D01*
X184500000Y-64741000D02*
X184535000Y-64776000D01*
X181986000Y-62637000D02*
X182022000Y-62672000D01*
X184284000Y-64934000D02*
X184330000Y-64981000D01*
X187421000Y-71507000D02*
X188161000Y-71507000D01*
X188161000Y-71507000D02*
X188161000Y-71007000D01*
G04 #@! TO.C,R1*
X144832000Y-89107983D02*
X144832000Y-88692017D01*
X146252000Y-89107983D02*
X146252000Y-88692017D01*
G04 #@! TO.C,R2*
X146252000Y-83646983D02*
X146252000Y-83231017D01*
X144832000Y-83646983D02*
X144832000Y-83231017D01*
G04 #@! TO.C,R3*
X171990483Y-60400000D02*
X171574517Y-60400000D01*
X171990483Y-58980000D02*
X171574517Y-58980000D01*
D11*
G04 #@! TO.C,U1*
X156253000Y-89443000D02*
X156253000Y-89393000D01*
X152103000Y-89443000D02*
X152103000Y-89298000D01*
X152103000Y-84293000D02*
X152103000Y-84438000D01*
X156253000Y-84293000D02*
X156253000Y-84438000D01*
X156253000Y-89443000D02*
X152103000Y-89443000D01*
X156253000Y-84293000D02*
X152103000Y-84293000D01*
X156253000Y-89393000D02*
X157653000Y-89393000D01*
D10*
G04 #@! TO.C,J3*
X138370000Y-93913000D02*
X141030000Y-93913000D01*
X138370000Y-81153000D02*
X138370000Y-93913000D01*
X141030000Y-81153000D02*
X141030000Y-93913000D01*
X138370000Y-81153000D02*
X141030000Y-81153000D01*
X138370000Y-79883000D02*
X138370000Y-78553000D01*
X138370000Y-78553000D02*
X139700000Y-78553000D01*
G04 #@! TO.C,C3*
D11*
X164314142Y-85637666D02*
X164361761Y-85685285D01*
X164409380Y-85828142D01*
X164409380Y-85923380D01*
X164361761Y-86066238D01*
X164266523Y-86161476D01*
X164171285Y-86209095D01*
X163980809Y-86256714D01*
X163837952Y-86256714D01*
X163647476Y-86209095D01*
X163552238Y-86161476D01*
X163457000Y-86066238D01*
X163409380Y-85923380D01*
X163409380Y-85828142D01*
X163457000Y-85685285D01*
X163504619Y-85637666D01*
X163409380Y-85304333D02*
X163409380Y-84685285D01*
X163790333Y-85018619D01*
X163790333Y-84875761D01*
X163837952Y-84780523D01*
X163885571Y-84732904D01*
X163980809Y-84685285D01*
X164218904Y-84685285D01*
X164314142Y-84732904D01*
X164361761Y-84780523D01*
X164409380Y-84875761D01*
X164409380Y-85161476D01*
X164361761Y-85256714D01*
X164314142Y-85304333D01*
G04 #@! TO.C,A1*
X148023715Y-49971667D02*
X148499905Y-49971667D01*
X147928477Y-50257381D02*
X148261810Y-49257381D01*
X148595143Y-50257381D01*
X149452286Y-50257381D02*
X148880858Y-50257381D01*
X149166572Y-50257381D02*
X149166572Y-49257381D01*
X149071334Y-49400239D01*
X148976096Y-49495477D01*
X148880858Y-49543096D01*
G04 #@! TO.C,C1*
X142443142Y-70437666D02*
X142490761Y-70485285D01*
X142538380Y-70628142D01*
X142538380Y-70723380D01*
X142490761Y-70866238D01*
X142395523Y-70961476D01*
X142300285Y-71009095D01*
X142109809Y-71056714D01*
X141966952Y-71056714D01*
X141776476Y-71009095D01*
X141681238Y-70961476D01*
X141586000Y-70866238D01*
X141538380Y-70723380D01*
X141538380Y-70628142D01*
X141586000Y-70485285D01*
X141633619Y-70437666D01*
X142538380Y-69485285D02*
X142538380Y-70056714D01*
X142538380Y-69771000D02*
X141538380Y-69771000D01*
X141681238Y-69866238D01*
X141776476Y-69961476D01*
X141824095Y-70056714D01*
G04 #@! TO.C,C2*
X158572142Y-70437666D02*
X158619761Y-70485285D01*
X158667380Y-70628142D01*
X158667380Y-70723380D01*
X158619761Y-70866238D01*
X158524523Y-70961476D01*
X158429285Y-71009095D01*
X158238809Y-71056714D01*
X158095952Y-71056714D01*
X157905476Y-71009095D01*
X157810238Y-70961476D01*
X157715000Y-70866238D01*
X157667380Y-70723380D01*
X157667380Y-70628142D01*
X157715000Y-70485285D01*
X157762619Y-70437666D01*
X157762619Y-70056714D02*
X157715000Y-70009095D01*
X157667380Y-69913857D01*
X157667380Y-69675761D01*
X157715000Y-69580523D01*
X157762619Y-69532904D01*
X157857857Y-69485285D01*
X157953095Y-69485285D01*
X158095952Y-69532904D01*
X158667380Y-70104333D01*
X158667380Y-69485285D01*
G04 #@! TO.C,J1*
X167934380Y-87582333D02*
X168648666Y-87582333D01*
X168791523Y-87629952D01*
X168886761Y-87725190D01*
X168934380Y-87868047D01*
X168934380Y-87963285D01*
X168934380Y-86582333D02*
X168934380Y-87153761D01*
X168934380Y-86868047D02*
X167934380Y-86868047D01*
X168077238Y-86963285D01*
X168172476Y-87058523D01*
X168220095Y-87153761D01*
G04 #@! TO.C,J2*
X176453380Y-66540333D02*
X177167666Y-66540333D01*
X177310523Y-66587952D01*
X177405761Y-66683190D01*
X177453380Y-66826047D01*
X177453380Y-66921285D01*
X176548619Y-66111761D02*
X176501000Y-66064142D01*
X176453380Y-65968904D01*
X176453380Y-65730809D01*
X176501000Y-65635571D01*
X176548619Y-65587952D01*
X176643857Y-65540333D01*
X176739095Y-65540333D01*
X176881952Y-65587952D01*
X177453380Y-66159380D01*
X177453380Y-65540333D01*
G04 #@! TO.C,R1*
X144344380Y-89066666D02*
X143868190Y-89400000D01*
X144344380Y-89638095D02*
X143344380Y-89638095D01*
X143344380Y-89257142D01*
X143392000Y-89161904D01*
X143439619Y-89114285D01*
X143534857Y-89066666D01*
X143677714Y-89066666D01*
X143772952Y-89114285D01*
X143820571Y-89161904D01*
X143868190Y-89257142D01*
X143868190Y-89638095D01*
X144344380Y-88114285D02*
X144344380Y-88685714D01*
X144344380Y-88400000D02*
X143344380Y-88400000D01*
X143487238Y-88495238D01*
X143582476Y-88590476D01*
X143630095Y-88685714D01*
G04 #@! TO.C,R2*
X144344380Y-83605666D02*
X143868190Y-83939000D01*
X144344380Y-84177095D02*
X143344380Y-84177095D01*
X143344380Y-83796142D01*
X143392000Y-83700904D01*
X143439619Y-83653285D01*
X143534857Y-83605666D01*
X143677714Y-83605666D01*
X143772952Y-83653285D01*
X143820571Y-83700904D01*
X143868190Y-83796142D01*
X143868190Y-84177095D01*
X143439619Y-83224714D02*
X143392000Y-83177095D01*
X143344380Y-83081857D01*
X143344380Y-82843761D01*
X143392000Y-82748523D01*
X143439619Y-82700904D01*
X143534857Y-82653285D01*
X143630095Y-82653285D01*
X143772952Y-82700904D01*
X144344380Y-83272333D01*
X144344380Y-82653285D01*
G04 #@! TO.C,R3*
X171615833Y-61792380D02*
X171282500Y-61316190D01*
X171044404Y-61792380D02*
X171044404Y-60792380D01*
X171425357Y-60792380D01*
X171520595Y-60840000D01*
X171568214Y-60887619D01*
X171615833Y-60982857D01*
X171615833Y-61125714D01*
X171568214Y-61220952D01*
X171520595Y-61268571D01*
X171425357Y-61316190D01*
X171044404Y-61316190D01*
X171949166Y-60792380D02*
X172568214Y-60792380D01*
X172234880Y-61173333D01*
X172377738Y-61173333D01*
X172472976Y-61220952D01*
X172520595Y-61268571D01*
X172568214Y-61363809D01*
X172568214Y-61601904D01*
X172520595Y-61697142D01*
X172472976Y-61744761D01*
X172377738Y-61792380D01*
X172092023Y-61792380D01*
X171996785Y-61744761D01*
X171949166Y-61697142D01*
G04 #@! TO.C,U1*
X153416095Y-89820380D02*
X153416095Y-90629904D01*
X153463714Y-90725142D01*
X153511333Y-90772761D01*
X153606571Y-90820380D01*
X153797047Y-90820380D01*
X153892285Y-90772761D01*
X153939904Y-90725142D01*
X153987523Y-90629904D01*
X153987523Y-89820380D01*
X154987523Y-90820380D02*
X154416095Y-90820380D01*
X154701809Y-90820380D02*
X154701809Y-89820380D01*
X154606571Y-89963238D01*
X154511333Y-90058476D01*
X154416095Y-90106095D01*
G04 #@! TO.C,J3*
X139366666Y-77005380D02*
X139366666Y-77719666D01*
X139319047Y-77862523D01*
X139223809Y-77957761D01*
X139080952Y-78005380D01*
X138985714Y-78005380D01*
X139747619Y-77005380D02*
X140366666Y-77005380D01*
X140033333Y-77386333D01*
X140176190Y-77386333D01*
X140271428Y-77433952D01*
X140319047Y-77481571D01*
X140366666Y-77576809D01*
X140366666Y-77814904D01*
X140319047Y-77910142D01*
X140271428Y-77957761D01*
X140176190Y-78005380D01*
X139890476Y-78005380D01*
X139795238Y-77957761D01*
X139747619Y-77910142D01*
G04 #@! TD*
M02*
