M48
;DRILL file {KiCad 5.0.0-fee4fd1~65~ubuntu17.10.1} date Tue Apr 16 21:58:08 2019
;FORMAT={-:-/ absolute / inch / decimal}
FMAT,2
INCH,TZ
T1C0.0197
T2C0.0299
T3C0.0315
T4C0.0394
T5C0.0512
T6C0.1260
%
G90
G05
M72
T1
X5.415Y-3.945
X5.965Y-2.44
X6.315Y-2.745
X6.41Y-3.705
X6.415Y-2.715
X6.44Y-2.795
X6.58Y-2.3
X7.235Y-3.15
T2
X6.735Y-2.61
X6.735Y-2.71
X6.735Y-2.81
X6.735Y-2.91
X6.835Y-2.66
X6.835Y-2.76
X6.835Y-2.86
X6.835Y-2.96
T3
X5.4402Y-2.095
X5.5402Y-2.095
X5.6402Y-2.095
X5.7402Y-2.095
X5.8Y-3.995
X5.8402Y-2.095
X5.9Y-3.995
X5.9402Y-2.095
X6.Y-3.995
X6.0402Y-2.095
X6.1Y-3.995
X6.1402Y-2.095
X6.2Y-3.995
X6.2402Y-2.095
X6.3Y-3.995
X6.3402Y-2.095
X6.4Y-3.995
X6.5Y-2.095
X6.5Y-3.995
X6.6Y-2.095
X6.7Y-2.095
X6.7Y-3.995
X6.8Y-2.095
X6.8Y-3.995
X6.9Y-2.095
X6.9Y-3.995
X7.Y-2.095
X7.Y-3.995
X7.1Y-2.095
X7.1Y-3.995
X7.2Y-2.095
X7.2Y-3.995
T4
X6.21Y-3.3581
X6.21Y-3.555
X5.44Y-2.605
X5.44Y-2.705
X5.44Y-2.805
X5.44Y-2.905
X5.44Y-3.005
X5.44Y-3.105
X5.655Y-3.3581
X5.655Y-3.555
T5
X7.135Y-3.4481
X7.135Y-3.645
T6
X7.085Y-2.56
X7.085Y-3.01
T0
M30
