G04 #@! TF.GenerationSoftware,KiCad,Pcbnew,5.0.0-fee4fd1~65~ubuntu17.10.1*
G04 #@! TF.CreationDate,2019-03-21T21:57:26-05:00*
G04 #@! TF.ProjectId,Operator,4F70657261746F722E6B696361645F70,1*
G04 #@! TF.SameCoordinates,Original*
G04 #@! TF.FileFunction,Soldermask,Top*
G04 #@! TF.FilePolarity,Negative*
%FSLAX46Y46*%
G04 Gerber Fmt 4.6, Leading zero omitted, Abs format (unit mm)*
G04 Created by KiCad (PCBNEW 5.0.0-fee4fd1~65~ubuntu17.10.1) date Thu Mar 21 21:57:26 2019*
%MOMM*%
%LPD*%
G01*
G04 APERTURE LIST*
%ADD10O,2.000000X2.000000*%
%ADD11R,2.000000X2.000000*%
%ADD12R,2.400000X2.400000*%
%ADD13C,2.400000*%
%ADD14C,3.600000*%
%ADD15R,1.900000X1.900000*%
%ADD16C,1.900000*%
%ADD17R,3.000000X3.000000*%
%ADD18C,3.000000*%
%ADD19C,0.100000*%
%ADD20C,1.725000*%
%ADD21R,1.950000X1.000000*%
%ADD22R,2.100000X2.100000*%
%ADD23O,2.100000X2.100000*%
G04 APERTURE END LIST*
D10*
G04 #@! TO.C,A1*
X138328001Y-101875001D03*
X140868001Y-101875001D03*
D11*
X147468001Y-53615001D03*
D10*
X177948001Y-101875001D03*
X150008001Y-53615001D03*
X175408001Y-101875001D03*
X152548001Y-53615001D03*
X172868001Y-101875001D03*
X155088001Y-53615001D03*
X170328001Y-101875001D03*
X157628001Y-53615001D03*
X167788001Y-101875001D03*
X160168001Y-53615001D03*
X165248001Y-101875001D03*
X162708001Y-53615001D03*
X161188001Y-101875001D03*
X165248001Y-53615001D03*
X158648001Y-101875001D03*
X170328001Y-53615001D03*
X156108001Y-101875001D03*
X172868001Y-53615001D03*
X153568001Y-101875001D03*
X175408001Y-53615001D03*
X151028001Y-101875001D03*
X177948001Y-53615001D03*
X148488001Y-101875001D03*
X180488001Y-53615001D03*
X145948001Y-101875001D03*
X183028001Y-53615001D03*
X143408001Y-101875001D03*
X183028001Y-101875001D03*
X180488001Y-101875001D03*
G04 #@! TD*
D12*
G04 #@! TO.C,C1*
X148336000Y-72771000D03*
D13*
X148336000Y-67771000D03*
G04 #@! TD*
G04 #@! TO.C,C2*
X164465000Y-67771000D03*
D12*
X164465000Y-72771000D03*
G04 #@! TD*
D14*
G04 #@! TO.C,J1*
X179832000Y-81534000D03*
X179832000Y-92964000D03*
D15*
X173482000Y-91694000D03*
D16*
X170942000Y-90424000D03*
X173482000Y-89154000D03*
X170942000Y-87884000D03*
X173482000Y-86614000D03*
X170942000Y-85344000D03*
X173482000Y-84074000D03*
X170942000Y-82804000D03*
G04 #@! TD*
D17*
G04 #@! TO.C,J2*
X183261000Y-68707000D03*
D18*
X183261000Y-63707000D03*
G04 #@! TD*
D19*
G04 #@! TO.C,R1*
G36*
X146148431Y-88976567D02*
X146180025Y-88981254D01*
X146211008Y-88989015D01*
X146241081Y-88999775D01*
X146269955Y-89013431D01*
X146297351Y-89029852D01*
X146323006Y-89048879D01*
X146346672Y-89070328D01*
X146368121Y-89093994D01*
X146387148Y-89119649D01*
X146403569Y-89147045D01*
X146417225Y-89175919D01*
X146427985Y-89205992D01*
X146435746Y-89236975D01*
X146440433Y-89268569D01*
X146442000Y-89300471D01*
X146442000Y-90374529D01*
X146440433Y-90406431D01*
X146435746Y-90438025D01*
X146427985Y-90469008D01*
X146417225Y-90499081D01*
X146403569Y-90527955D01*
X146387148Y-90555351D01*
X146368121Y-90581006D01*
X146346672Y-90604672D01*
X146323006Y-90626121D01*
X146297351Y-90645148D01*
X146269955Y-90661569D01*
X146241081Y-90675225D01*
X146211008Y-90685985D01*
X146180025Y-90693746D01*
X146148431Y-90698433D01*
X146116529Y-90700000D01*
X144967471Y-90700000D01*
X144935569Y-90698433D01*
X144903975Y-90693746D01*
X144872992Y-90685985D01*
X144842919Y-90675225D01*
X144814045Y-90661569D01*
X144786649Y-90645148D01*
X144760994Y-90626121D01*
X144737328Y-90604672D01*
X144715879Y-90581006D01*
X144696852Y-90555351D01*
X144680431Y-90527955D01*
X144666775Y-90499081D01*
X144656015Y-90469008D01*
X144648254Y-90438025D01*
X144643567Y-90406431D01*
X144642000Y-90374529D01*
X144642000Y-89300471D01*
X144643567Y-89268569D01*
X144648254Y-89236975D01*
X144656015Y-89205992D01*
X144666775Y-89175919D01*
X144680431Y-89147045D01*
X144696852Y-89119649D01*
X144715879Y-89093994D01*
X144737328Y-89070328D01*
X144760994Y-89048879D01*
X144786649Y-89029852D01*
X144814045Y-89013431D01*
X144842919Y-88999775D01*
X144872992Y-88989015D01*
X144903975Y-88981254D01*
X144935569Y-88976567D01*
X144967471Y-88975000D01*
X146116529Y-88975000D01*
X146148431Y-88976567D01*
X146148431Y-88976567D01*
G37*
D20*
X145542000Y-89837500D03*
D19*
G36*
X146148431Y-87101567D02*
X146180025Y-87106254D01*
X146211008Y-87114015D01*
X146241081Y-87124775D01*
X146269955Y-87138431D01*
X146297351Y-87154852D01*
X146323006Y-87173879D01*
X146346672Y-87195328D01*
X146368121Y-87218994D01*
X146387148Y-87244649D01*
X146403569Y-87272045D01*
X146417225Y-87300919D01*
X146427985Y-87330992D01*
X146435746Y-87361975D01*
X146440433Y-87393569D01*
X146442000Y-87425471D01*
X146442000Y-88499529D01*
X146440433Y-88531431D01*
X146435746Y-88563025D01*
X146427985Y-88594008D01*
X146417225Y-88624081D01*
X146403569Y-88652955D01*
X146387148Y-88680351D01*
X146368121Y-88706006D01*
X146346672Y-88729672D01*
X146323006Y-88751121D01*
X146297351Y-88770148D01*
X146269955Y-88786569D01*
X146241081Y-88800225D01*
X146211008Y-88810985D01*
X146180025Y-88818746D01*
X146148431Y-88823433D01*
X146116529Y-88825000D01*
X144967471Y-88825000D01*
X144935569Y-88823433D01*
X144903975Y-88818746D01*
X144872992Y-88810985D01*
X144842919Y-88800225D01*
X144814045Y-88786569D01*
X144786649Y-88770148D01*
X144760994Y-88751121D01*
X144737328Y-88729672D01*
X144715879Y-88706006D01*
X144696852Y-88680351D01*
X144680431Y-88652955D01*
X144666775Y-88624081D01*
X144656015Y-88594008D01*
X144648254Y-88563025D01*
X144643567Y-88531431D01*
X144642000Y-88499529D01*
X144642000Y-87425471D01*
X144643567Y-87393569D01*
X144648254Y-87361975D01*
X144656015Y-87330992D01*
X144666775Y-87300919D01*
X144680431Y-87272045D01*
X144696852Y-87244649D01*
X144715879Y-87218994D01*
X144737328Y-87195328D01*
X144760994Y-87173879D01*
X144786649Y-87154852D01*
X144814045Y-87138431D01*
X144842919Y-87124775D01*
X144872992Y-87114015D01*
X144903975Y-87106254D01*
X144935569Y-87101567D01*
X144967471Y-87100000D01*
X146116529Y-87100000D01*
X146148431Y-87101567D01*
X146148431Y-87101567D01*
G37*
D20*
X145542000Y-87962500D03*
G04 #@! TD*
D19*
G04 #@! TO.C,R2*
G36*
X146148431Y-81640567D02*
X146180025Y-81645254D01*
X146211008Y-81653015D01*
X146241081Y-81663775D01*
X146269955Y-81677431D01*
X146297351Y-81693852D01*
X146323006Y-81712879D01*
X146346672Y-81734328D01*
X146368121Y-81757994D01*
X146387148Y-81783649D01*
X146403569Y-81811045D01*
X146417225Y-81839919D01*
X146427985Y-81869992D01*
X146435746Y-81900975D01*
X146440433Y-81932569D01*
X146442000Y-81964471D01*
X146442000Y-83038529D01*
X146440433Y-83070431D01*
X146435746Y-83102025D01*
X146427985Y-83133008D01*
X146417225Y-83163081D01*
X146403569Y-83191955D01*
X146387148Y-83219351D01*
X146368121Y-83245006D01*
X146346672Y-83268672D01*
X146323006Y-83290121D01*
X146297351Y-83309148D01*
X146269955Y-83325569D01*
X146241081Y-83339225D01*
X146211008Y-83349985D01*
X146180025Y-83357746D01*
X146148431Y-83362433D01*
X146116529Y-83364000D01*
X144967471Y-83364000D01*
X144935569Y-83362433D01*
X144903975Y-83357746D01*
X144872992Y-83349985D01*
X144842919Y-83339225D01*
X144814045Y-83325569D01*
X144786649Y-83309148D01*
X144760994Y-83290121D01*
X144737328Y-83268672D01*
X144715879Y-83245006D01*
X144696852Y-83219351D01*
X144680431Y-83191955D01*
X144666775Y-83163081D01*
X144656015Y-83133008D01*
X144648254Y-83102025D01*
X144643567Y-83070431D01*
X144642000Y-83038529D01*
X144642000Y-81964471D01*
X144643567Y-81932569D01*
X144648254Y-81900975D01*
X144656015Y-81869992D01*
X144666775Y-81839919D01*
X144680431Y-81811045D01*
X144696852Y-81783649D01*
X144715879Y-81757994D01*
X144737328Y-81734328D01*
X144760994Y-81712879D01*
X144786649Y-81693852D01*
X144814045Y-81677431D01*
X144842919Y-81663775D01*
X144872992Y-81653015D01*
X144903975Y-81645254D01*
X144935569Y-81640567D01*
X144967471Y-81639000D01*
X146116529Y-81639000D01*
X146148431Y-81640567D01*
X146148431Y-81640567D01*
G37*
D20*
X145542000Y-82501500D03*
D19*
G36*
X146148431Y-83515567D02*
X146180025Y-83520254D01*
X146211008Y-83528015D01*
X146241081Y-83538775D01*
X146269955Y-83552431D01*
X146297351Y-83568852D01*
X146323006Y-83587879D01*
X146346672Y-83609328D01*
X146368121Y-83632994D01*
X146387148Y-83658649D01*
X146403569Y-83686045D01*
X146417225Y-83714919D01*
X146427985Y-83744992D01*
X146435746Y-83775975D01*
X146440433Y-83807569D01*
X146442000Y-83839471D01*
X146442000Y-84913529D01*
X146440433Y-84945431D01*
X146435746Y-84977025D01*
X146427985Y-85008008D01*
X146417225Y-85038081D01*
X146403569Y-85066955D01*
X146387148Y-85094351D01*
X146368121Y-85120006D01*
X146346672Y-85143672D01*
X146323006Y-85165121D01*
X146297351Y-85184148D01*
X146269955Y-85200569D01*
X146241081Y-85214225D01*
X146211008Y-85224985D01*
X146180025Y-85232746D01*
X146148431Y-85237433D01*
X146116529Y-85239000D01*
X144967471Y-85239000D01*
X144935569Y-85237433D01*
X144903975Y-85232746D01*
X144872992Y-85224985D01*
X144842919Y-85214225D01*
X144814045Y-85200569D01*
X144786649Y-85184148D01*
X144760994Y-85165121D01*
X144737328Y-85143672D01*
X144715879Y-85120006D01*
X144696852Y-85094351D01*
X144680431Y-85066955D01*
X144666775Y-85038081D01*
X144656015Y-85008008D01*
X144648254Y-84977025D01*
X144643567Y-84945431D01*
X144642000Y-84913529D01*
X144642000Y-83839471D01*
X144643567Y-83807569D01*
X144648254Y-83775975D01*
X144656015Y-83744992D01*
X144666775Y-83714919D01*
X144680431Y-83686045D01*
X144696852Y-83658649D01*
X144715879Y-83632994D01*
X144737328Y-83609328D01*
X144760994Y-83587879D01*
X144786649Y-83568852D01*
X144814045Y-83552431D01*
X144842919Y-83538775D01*
X144872992Y-83528015D01*
X144903975Y-83520254D01*
X144935569Y-83515567D01*
X144967471Y-83514000D01*
X146116529Y-83514000D01*
X146148431Y-83515567D01*
X146148431Y-83515567D01*
G37*
D20*
X145542000Y-84376500D03*
G04 #@! TD*
D19*
G04 #@! TO.C,R3*
G36*
X173288931Y-58791567D02*
X173320525Y-58796254D01*
X173351508Y-58804015D01*
X173381581Y-58814775D01*
X173410455Y-58828431D01*
X173437851Y-58844852D01*
X173463506Y-58863879D01*
X173487172Y-58885328D01*
X173508621Y-58908994D01*
X173527648Y-58934649D01*
X173544069Y-58962045D01*
X173557725Y-58990919D01*
X173568485Y-59020992D01*
X173576246Y-59051975D01*
X173580933Y-59083569D01*
X173582500Y-59115471D01*
X173582500Y-60264529D01*
X173580933Y-60296431D01*
X173576246Y-60328025D01*
X173568485Y-60359008D01*
X173557725Y-60389081D01*
X173544069Y-60417955D01*
X173527648Y-60445351D01*
X173508621Y-60471006D01*
X173487172Y-60494672D01*
X173463506Y-60516121D01*
X173437851Y-60535148D01*
X173410455Y-60551569D01*
X173381581Y-60565225D01*
X173351508Y-60575985D01*
X173320525Y-60583746D01*
X173288931Y-60588433D01*
X173257029Y-60590000D01*
X172182971Y-60590000D01*
X172151069Y-60588433D01*
X172119475Y-60583746D01*
X172088492Y-60575985D01*
X172058419Y-60565225D01*
X172029545Y-60551569D01*
X172002149Y-60535148D01*
X171976494Y-60516121D01*
X171952828Y-60494672D01*
X171931379Y-60471006D01*
X171912352Y-60445351D01*
X171895931Y-60417955D01*
X171882275Y-60389081D01*
X171871515Y-60359008D01*
X171863754Y-60328025D01*
X171859067Y-60296431D01*
X171857500Y-60264529D01*
X171857500Y-59115471D01*
X171859067Y-59083569D01*
X171863754Y-59051975D01*
X171871515Y-59020992D01*
X171882275Y-58990919D01*
X171895931Y-58962045D01*
X171912352Y-58934649D01*
X171931379Y-58908994D01*
X171952828Y-58885328D01*
X171976494Y-58863879D01*
X172002149Y-58844852D01*
X172029545Y-58828431D01*
X172058419Y-58814775D01*
X172088492Y-58804015D01*
X172119475Y-58796254D01*
X172151069Y-58791567D01*
X172182971Y-58790000D01*
X173257029Y-58790000D01*
X173288931Y-58791567D01*
X173288931Y-58791567D01*
G37*
D20*
X172720000Y-59690000D03*
D19*
G36*
X171413931Y-58791567D02*
X171445525Y-58796254D01*
X171476508Y-58804015D01*
X171506581Y-58814775D01*
X171535455Y-58828431D01*
X171562851Y-58844852D01*
X171588506Y-58863879D01*
X171612172Y-58885328D01*
X171633621Y-58908994D01*
X171652648Y-58934649D01*
X171669069Y-58962045D01*
X171682725Y-58990919D01*
X171693485Y-59020992D01*
X171701246Y-59051975D01*
X171705933Y-59083569D01*
X171707500Y-59115471D01*
X171707500Y-60264529D01*
X171705933Y-60296431D01*
X171701246Y-60328025D01*
X171693485Y-60359008D01*
X171682725Y-60389081D01*
X171669069Y-60417955D01*
X171652648Y-60445351D01*
X171633621Y-60471006D01*
X171612172Y-60494672D01*
X171588506Y-60516121D01*
X171562851Y-60535148D01*
X171535455Y-60551569D01*
X171506581Y-60565225D01*
X171476508Y-60575985D01*
X171445525Y-60583746D01*
X171413931Y-60588433D01*
X171382029Y-60590000D01*
X170307971Y-60590000D01*
X170276069Y-60588433D01*
X170244475Y-60583746D01*
X170213492Y-60575985D01*
X170183419Y-60565225D01*
X170154545Y-60551569D01*
X170127149Y-60535148D01*
X170101494Y-60516121D01*
X170077828Y-60494672D01*
X170056379Y-60471006D01*
X170037352Y-60445351D01*
X170020931Y-60417955D01*
X170007275Y-60389081D01*
X169996515Y-60359008D01*
X169988754Y-60328025D01*
X169984067Y-60296431D01*
X169982500Y-60264529D01*
X169982500Y-59115471D01*
X169984067Y-59083569D01*
X169988754Y-59051975D01*
X169996515Y-59020992D01*
X170007275Y-58990919D01*
X170020931Y-58962045D01*
X170037352Y-58934649D01*
X170056379Y-58908994D01*
X170077828Y-58885328D01*
X170101494Y-58863879D01*
X170127149Y-58844852D01*
X170154545Y-58828431D01*
X170183419Y-58814775D01*
X170213492Y-58804015D01*
X170244475Y-58796254D01*
X170276069Y-58791567D01*
X170307971Y-58790000D01*
X171382029Y-58790000D01*
X171413931Y-58791567D01*
X171413931Y-58791567D01*
G37*
D20*
X170845000Y-59690000D03*
G04 #@! TD*
D21*
G04 #@! TO.C,U1*
X156878000Y-88773000D03*
X156878000Y-87503000D03*
X156878000Y-86233000D03*
X156878000Y-84963000D03*
X151478000Y-84963000D03*
X151478000Y-86233000D03*
X151478000Y-87503000D03*
X151478000Y-88773000D03*
G04 #@! TD*
D22*
G04 #@! TO.C,J3*
X139700000Y-79883000D03*
D23*
X139700000Y-82423000D03*
X139700000Y-84963000D03*
X139700000Y-87503000D03*
X139700000Y-90043000D03*
X139700000Y-92583000D03*
G04 #@! TD*
M02*
