G04 #@! TF.GenerationSoftware,KiCad,Pcbnew,5.0.0-fee4fd1~65~ubuntu17.10.1*
G04 #@! TF.CreationDate,2019-02-19T07:35:12-06:00*
G04 #@! TF.ProjectId,control_v1,636F6E74726F6C5F76312E6B69636164,1*
G04 #@! TF.SameCoordinates,Original*
G04 #@! TF.FileFunction,Soldermask,Bot*
G04 #@! TF.FilePolarity,Negative*
%FSLAX46Y46*%
G04 Gerber Fmt 4.6, Leading zero omitted, Abs format (unit mm)*
G04 Created by KiCad (PCBNEW 5.0.0-fee4fd1~65~ubuntu17.10.1) date Tue Feb 19 07:35:12 2019*
%MOMM*%
%LPD*%
G01*
G04 APERTURE LIST*
%ADD10R,2.100000X2.100000*%
%ADD11O,2.100000X2.100000*%
%ADD12R,2.800000X2.800000*%
%ADD13C,2.800000*%
%ADD14R,2.600000X2.600000*%
%ADD15O,2.600000X2.600000*%
%ADD16R,3.000000X3.000000*%
%ADD17C,3.000000*%
%ADD18C,3.600000*%
%ADD19R,1.900000X1.900000*%
%ADD20C,1.900000*%
%ADD21C,9.600000*%
G04 APERTURE END LIST*
D10*
G04 #@! TO.C,J3*
X137160000Y-135890000D03*
D11*
X134620000Y-135890000D03*
X132080000Y-135890000D03*
X129540000Y-135890000D03*
X127000000Y-135890000D03*
X124460000Y-135890000D03*
G04 #@! TD*
D12*
G04 #@! TO.C,C2*
X111760000Y-119380000D03*
D13*
X119260000Y-119380000D03*
G04 #@! TD*
D14*
G04 #@! TO.C,D1*
X152400000Y-83820000D03*
D15*
X165100000Y-83820000D03*
G04 #@! TD*
G04 #@! TO.C,D2*
X147320000Y-102870000D03*
D14*
X160020000Y-102870000D03*
G04 #@! TD*
D10*
G04 #@! TO.C,J1*
X116840000Y-90170000D03*
D11*
X114300000Y-90170000D03*
X116840000Y-92710000D03*
X114300000Y-92710000D03*
X116840000Y-95250000D03*
X114300000Y-95250000D03*
X116840000Y-97790000D03*
X114300000Y-97790000D03*
X116840000Y-100330000D03*
X114300000Y-100330000D03*
X116840000Y-102870000D03*
X114300000Y-102870000D03*
X116840000Y-105410000D03*
X114300000Y-105410000D03*
G04 #@! TD*
D16*
G04 #@! TO.C,J2*
X147320000Y-139700000D03*
D17*
X152400000Y-139700000D03*
X157480000Y-139700000D03*
X162560000Y-139700000D03*
X167640000Y-139700000D03*
G04 #@! TD*
D18*
G04 #@! TO.C,J4*
X191770000Y-140970000D03*
X180340000Y-140970000D03*
D19*
X181610000Y-134620000D03*
D20*
X182880000Y-132080000D03*
X184150000Y-134620000D03*
X185420000Y-132080000D03*
X186690000Y-134620000D03*
X187960000Y-132080000D03*
X189230000Y-134620000D03*
X190500000Y-132080000D03*
G04 #@! TD*
D21*
G04 #@! TO.C,MK1*
X114300000Y-66040000D03*
G04 #@! TD*
G04 #@! TO.C,MK2*
X205740000Y-66040000D03*
G04 #@! TD*
G04 #@! TO.C,MK3*
X205740000Y-137160000D03*
G04 #@! TD*
G04 #@! TO.C,MK4*
X114300000Y-137160000D03*
G04 #@! TD*
M02*
