G04 #@! TF.GenerationSoftware,KiCad,Pcbnew,5.0.0-fee4fd1~65~ubuntu17.10.1*
G04 #@! TF.CreationDate,2019-02-19T07:35:12-06:00*
G04 #@! TF.ProjectId,control_v1,636F6E74726F6C5F76312E6B69636164,1*
G04 #@! TF.SameCoordinates,Original*
G04 #@! TF.FileFunction,Legend,Bot*
G04 #@! TF.FilePolarity,Positive*
%FSLAX46Y46*%
G04 Gerber Fmt 4.6, Leading zero omitted, Abs format (unit mm)*
G04 Created by KiCad (PCBNEW 5.0.0-fee4fd1~65~ubuntu17.10.1) date Tue Feb 19 07:35:12 2019*
%MOMM*%
%LPD*%
G01*
G04 APERTURE LIST*
%ADD10C,0.200000*%
%ADD11C,0.300000*%
%ADD12C,0.120000*%
%ADD13C,0.150000*%
G04 APERTURE END LIST*
D10*
X174822189Y-94050189D02*
G75*
G03X174822189Y-94050189I-16580189J0D01*
G01*
D11*
X169988000Y-89934000D02*
X168559428Y-89934000D01*
X170273714Y-90791142D02*
X169273714Y-87791142D01*
X168273714Y-90791142D01*
X166845142Y-90791142D02*
X167130857Y-90648285D01*
X167273714Y-90362571D01*
X167273714Y-87791142D01*
X164559428Y-90648285D02*
X164845142Y-90791142D01*
X165416571Y-90791142D01*
X165702285Y-90648285D01*
X165845142Y-90362571D01*
X165845142Y-89219714D01*
X165702285Y-88934000D01*
X165416571Y-88791142D01*
X164845142Y-88791142D01*
X164559428Y-88934000D01*
X164416571Y-89219714D01*
X164416571Y-89505428D01*
X165845142Y-89791142D01*
X163416571Y-90791142D02*
X161845142Y-88791142D01*
X163416571Y-88791142D02*
X161845142Y-90791142D01*
X158559428Y-90648285D02*
X158130857Y-90791142D01*
X157416571Y-90791142D01*
X157130857Y-90648285D01*
X156988000Y-90505428D01*
X156845142Y-90219714D01*
X156845142Y-89934000D01*
X156988000Y-89648285D01*
X157130857Y-89505428D01*
X157416571Y-89362571D01*
X157988000Y-89219714D01*
X158273714Y-89076857D01*
X158416571Y-88934000D01*
X158559428Y-88648285D01*
X158559428Y-88362571D01*
X158416571Y-88076857D01*
X158273714Y-87934000D01*
X157988000Y-87791142D01*
X157273714Y-87791142D01*
X156845142Y-87934000D01*
X155559428Y-90791142D02*
X155559428Y-88791142D01*
X155559428Y-87791142D02*
X155702285Y-87934000D01*
X155559428Y-88076857D01*
X155416571Y-87934000D01*
X155559428Y-87791142D01*
X155559428Y-88076857D01*
X154130857Y-90791142D02*
X154130857Y-88791142D01*
X154130857Y-89076857D02*
X153988000Y-88934000D01*
X153702285Y-88791142D01*
X153273714Y-88791142D01*
X152988000Y-88934000D01*
X152845142Y-89219714D01*
X152845142Y-90791142D01*
X152845142Y-89219714D02*
X152702285Y-88934000D01*
X152416571Y-88791142D01*
X151988000Y-88791142D01*
X151702285Y-88934000D01*
X151559428Y-89219714D01*
X151559428Y-90791142D01*
X149702285Y-90791142D02*
X149988000Y-90648285D01*
X150130857Y-90505428D01*
X150273714Y-90219714D01*
X150273714Y-89362571D01*
X150130857Y-89076857D01*
X149988000Y-88934000D01*
X149702285Y-88791142D01*
X149273714Y-88791142D01*
X148988000Y-88934000D01*
X148845142Y-89076857D01*
X148702285Y-89362571D01*
X148702285Y-90219714D01*
X148845142Y-90505428D01*
X148988000Y-90648285D01*
X149273714Y-90791142D01*
X149702285Y-90791142D01*
X147416571Y-88791142D02*
X147416571Y-90791142D01*
X147416571Y-89076857D02*
X147273714Y-88934000D01*
X146988000Y-88791142D01*
X146559428Y-88791142D01*
X146273714Y-88934000D01*
X146130857Y-89219714D01*
X146130857Y-90791142D01*
X169130857Y-92876857D02*
X168988000Y-92734000D01*
X168702285Y-92591142D01*
X167988000Y-92591142D01*
X167702285Y-92734000D01*
X167559428Y-92876857D01*
X167416571Y-93162571D01*
X167416571Y-93448285D01*
X167559428Y-93876857D01*
X169273714Y-95591142D01*
X167416571Y-95591142D01*
X163988000Y-92448285D02*
X166559428Y-96305428D01*
X163273714Y-92591142D02*
X161273714Y-92591142D01*
X162559428Y-95591142D01*
X157988000Y-92448285D02*
X160559428Y-96305428D01*
X157130857Y-92876857D02*
X156988000Y-92734000D01*
X156702285Y-92591142D01*
X155988000Y-92591142D01*
X155702285Y-92734000D01*
X155559428Y-92876857D01*
X155416571Y-93162571D01*
X155416571Y-93448285D01*
X155559428Y-93876857D01*
X157273714Y-95591142D01*
X155416571Y-95591142D01*
X153559428Y-92591142D02*
X153273714Y-92591142D01*
X152988000Y-92734000D01*
X152845142Y-92876857D01*
X152702285Y-93162571D01*
X152559428Y-93734000D01*
X152559428Y-94448285D01*
X152702285Y-95019714D01*
X152845142Y-95305428D01*
X152988000Y-95448285D01*
X153273714Y-95591142D01*
X153559428Y-95591142D01*
X153845142Y-95448285D01*
X153988000Y-95305428D01*
X154130857Y-95019714D01*
X154273714Y-94448285D01*
X154273714Y-93734000D01*
X154130857Y-93162571D01*
X153988000Y-92876857D01*
X153845142Y-92734000D01*
X153559428Y-92591142D01*
X149702285Y-95591142D02*
X151416571Y-95591142D01*
X150559428Y-95591142D02*
X150559428Y-92591142D01*
X150845142Y-93019714D01*
X151130857Y-93305428D01*
X151416571Y-93448285D01*
X148273714Y-95591142D02*
X147702285Y-95591142D01*
X147416571Y-95448285D01*
X147273714Y-95305428D01*
X146988000Y-94876857D01*
X146845142Y-94305428D01*
X146845142Y-93162571D01*
X146988000Y-92876857D01*
X147130857Y-92734000D01*
X147416571Y-92591142D01*
X147988000Y-92591142D01*
X148273714Y-92734000D01*
X148416571Y-92876857D01*
X148559428Y-93162571D01*
X148559428Y-93876857D01*
X148416571Y-94162571D01*
X148273714Y-94305428D01*
X147988000Y-94448285D01*
X147416571Y-94448285D01*
X147130857Y-94305428D01*
X146988000Y-94162571D01*
X146845142Y-93876857D01*
X162773714Y-100391142D02*
X163773714Y-98962571D01*
X164488000Y-100391142D02*
X164488000Y-97391142D01*
X163345142Y-97391142D01*
X163059428Y-97534000D01*
X162916571Y-97676857D01*
X162773714Y-97962571D01*
X162773714Y-98391142D01*
X162916571Y-98676857D01*
X163059428Y-98819714D01*
X163345142Y-98962571D01*
X164488000Y-98962571D01*
X160345142Y-100248285D02*
X160630857Y-100391142D01*
X161202285Y-100391142D01*
X161488000Y-100248285D01*
X161630857Y-99962571D01*
X161630857Y-98819714D01*
X161488000Y-98534000D01*
X161202285Y-98391142D01*
X160630857Y-98391142D01*
X160345142Y-98534000D01*
X160202285Y-98819714D01*
X160202285Y-99105428D01*
X161630857Y-99391142D01*
X159202285Y-98391142D02*
X158488000Y-100391142D01*
X157773714Y-98391142D01*
X156630857Y-100105428D02*
X156488000Y-100248285D01*
X156630857Y-100391142D01*
X156773714Y-100248285D01*
X156630857Y-100105428D01*
X156630857Y-100391142D01*
X151345142Y-100391142D02*
X153059428Y-100391142D01*
X152202285Y-100391142D02*
X152202285Y-97391142D01*
X152488000Y-97819714D01*
X152773714Y-98105428D01*
X153059428Y-98248285D01*
D12*
G04 #@! TO.C,J1*
X118170000Y-106740000D02*
X112970000Y-106740000D01*
X118170000Y-91440000D02*
X118170000Y-106740000D01*
X112970000Y-88840000D02*
X112970000Y-106740000D01*
X118170000Y-91440000D02*
X115570000Y-91440000D01*
X115570000Y-91440000D02*
X115570000Y-88840000D01*
X115570000Y-88840000D02*
X112970000Y-88840000D01*
X118170000Y-90170000D02*
X118170000Y-88840000D01*
X118170000Y-88840000D02*
X116840000Y-88840000D01*
D13*
X115903333Y-87292380D02*
X115903333Y-88006666D01*
X115950952Y-88149523D01*
X116046190Y-88244761D01*
X116189047Y-88292380D01*
X116284285Y-88292380D01*
X114903333Y-88292380D02*
X115474761Y-88292380D01*
X115189047Y-88292380D02*
X115189047Y-87292380D01*
X115284285Y-87435238D01*
X115379523Y-87530476D01*
X115474761Y-87578095D01*
G04 #@! TD*
M02*
