M48
;DRILL file {KiCad 5.0.0-fee4fd1~65~ubuntu17.10.1} date Tue Feb 19 07:40:52 2019
;FORMAT={-:-/ absolute / metric / decimal}
FMAT,2
METRIC,TZ
T1C0.500
T2C0.760
T3C1.000
T4C1.100
T5C1.200
T6C1.300
T7C5.300
T8C3.200
%
G90
G05
M71
T1
X111.37Y-78.74
X111.506Y-95.504
X114.3Y-87.376
X124.079Y-79.502
X127.381Y-88.9
X127.762Y-75.946
X127.762Y-96.012
X128.27Y-72.39
X129.286Y-80.01
X134.62Y-97.79
X139.446Y-63.246
X143.256Y-61.468
X144.272Y-82.042
X155.35Y-75.625
X157.07Y-112.335
X159.766Y-108.458
X163.195Y-128.778
X164.465Y-129.794
X167.132Y-105.029
X168.783Y-96.52
X170.815Y-77.597
X189.738Y-90.424
X190.754Y-59.944
X191.516Y-89.281
X201.422Y-100.838
X204.597Y-78.867
X209.55Y-118.618
T2
X181.61Y-134.62
X182.88Y-132.08
X184.15Y-134.62
X185.42Y-132.08
X186.69Y-134.62
X187.96Y-132.08
X189.23Y-134.62
X190.5Y-132.08
T3
X124.46Y-135.89
X127.Y-135.89
X129.54Y-135.89
X132.08Y-135.89
X134.62Y-135.89
X137.16Y-135.89
X114.3Y-90.17
X114.3Y-92.71
X114.3Y-95.25
X114.3Y-97.79
X114.3Y-100.33
X114.3Y-102.87
X114.3Y-105.41
X116.84Y-90.17
X116.84Y-92.71
X116.84Y-95.25
X116.84Y-97.79
X116.84Y-100.33
X116.84Y-102.87
X116.84Y-105.41
T4
X152.4Y-83.82
X165.1Y-83.82
X147.32Y-102.87
X160.02Y-102.87
T5
X111.76Y-119.38
X119.26Y-119.38
T6
X147.32Y-139.7
X152.4Y-139.7
X157.48Y-139.7
X162.56Y-139.7
X167.64Y-139.7
T7
X205.74Y-137.16
X205.74Y-66.04
X114.3Y-66.04
X114.3Y-137.16
T8
X180.34Y-140.97
X191.77Y-140.97
T0
M30
