M48
;DRILL file {KiCad 5.0.0-fee4fd1~65~ubuntu17.10.1} date Sat Mar  9 17:47:33 2019
;FORMAT={-:-/ absolute / inch / decimal}
FMAT,2
INCH,TZ
T1C0.0197
T2C0.0299
T3C0.0394
T4C0.0433
T5C0.0512
T6C0.2087
T7C0.1260
%
G90
G05
M72
T1
X4.375Y-3.55
X4.375Y-3.65
X4.485Y-3.315
X4.7Y-3.315
X4.885Y-3.13
X5.05Y-2.85
X5.09Y-3.15
X6.1161Y-2.9774
X6.1839Y-4.4226
X6.29Y-4.27
X6.425Y-5.07
X6.475Y-5.11
X6.488Y-2.997
X6.58Y-4.705
X6.645Y-3.8
X7.23Y-5.05
T2
X7.15Y-5.3
X7.2Y-5.2
X7.25Y-5.3
X7.3Y-5.2
X7.35Y-5.3
X7.4Y-5.2
X7.45Y-5.3
X7.5Y-5.2
T3
X7.985Y-3.76
X8.1819Y-3.76
X4.5Y-3.55
X4.5Y-3.65
X4.5Y-3.75
X4.5Y-3.85
X4.5Y-3.95
X4.5Y-4.05
X4.5Y-4.15
X4.6Y-3.55
X4.6Y-3.65
X4.6Y-3.75
X4.6Y-3.85
X4.6Y-3.95
X4.6Y-4.05
X4.6Y-4.15
X4.55Y-3.1
X4.7469Y-3.1
X7.95Y-4.95
X8.1469Y-4.95
X4.48Y-4.71
X4.6769Y-4.71
X4.9Y-5.35
X5.Y-5.35
X5.1Y-5.35
X5.2Y-5.35
X5.3Y-5.35
X5.4Y-5.35
X5.2Y-2.45
X5.2Y-2.55
X5.2Y-2.65
X5.2Y-2.75
X5.2Y-2.85
X5.2Y-2.95
X5.2Y-3.05
X5.2Y-3.15
X5.2Y-3.25
X5.2Y-3.35
X5.2Y-3.45
X5.2Y-3.55
X5.2Y-3.65
X5.2Y-3.75
X5.2Y-3.85
X5.2Y-3.95
X5.2Y-4.05
X5.2Y-4.15
X5.2Y-4.25
X5.2Y-4.35
X5.2Y-4.45
X5.2Y-4.55
X5.2Y-4.65
X5.2Y-4.75
X5.2Y-4.85
X5.3Y-2.45
X5.3Y-2.55
X5.3Y-2.65
X5.3Y-2.75
X5.3Y-2.85
X5.3Y-2.95
X5.3Y-3.05
X5.3Y-3.15
X5.3Y-3.25
X5.3Y-3.35
X5.3Y-3.45
X5.3Y-3.55
X5.3Y-3.65
X5.3Y-3.75
X5.3Y-3.85
X5.3Y-3.95
X5.3Y-4.05
X5.3Y-4.15
X5.3Y-4.25
X5.3Y-4.35
X5.3Y-4.45
X5.3Y-4.55
X5.3Y-4.65
X5.3Y-4.75
X5.3Y-4.85
X7.2Y-2.45
X7.2Y-2.55
X7.2Y-2.65
X7.2Y-2.75
X7.2Y-2.85
X7.2Y-2.95
X7.2Y-3.05
X7.2Y-3.15
X7.2Y-3.25
X7.2Y-3.35
X7.2Y-3.45
X7.2Y-3.55
X7.2Y-3.65
X7.2Y-3.75
X7.2Y-3.85
X7.2Y-3.95
X7.2Y-4.05
X7.2Y-4.15
X7.2Y-4.25
X7.2Y-4.35
X7.2Y-4.45
X7.2Y-4.55
X7.2Y-4.65
X7.2Y-4.75
X7.2Y-4.85
X7.3Y-2.45
X7.3Y-2.55
X7.3Y-2.65
X7.3Y-2.75
X7.3Y-2.85
X7.3Y-2.95
X7.3Y-3.05
X7.3Y-3.15
X7.3Y-3.25
X7.3Y-3.35
X7.3Y-3.45
X7.3Y-3.55
X7.3Y-3.65
X7.3Y-3.75
X7.3Y-3.85
X7.3Y-3.95
X7.3Y-4.05
X7.3Y-4.15
X7.3Y-4.25
X7.3Y-4.35
X7.3Y-4.45
X7.3Y-4.55
X7.3Y-4.65
X7.3Y-4.75
X7.3Y-4.85
T4
X5.997Y-3.306
X6.497Y-3.306
X5.8Y-4.05
X6.3Y-4.05
T5
X5.8Y-5.5
X6.Y-5.5
X6.2Y-5.5
X6.4Y-5.5
X6.6Y-5.5
T6
X4.5Y-2.6
X8.1Y-5.4
X8.1Y-2.6
X4.5Y-5.4
T7
X7.1Y-5.55
X7.55Y-5.55
T0
M30
