G04 #@! TF.GenerationSoftware,KiCad,Pcbnew,5.0.0-fee4fd1~65~ubuntu17.10.1*
G04 #@! TF.CreationDate,2019-04-27T11:50:21-05:00*
G04 #@! TF.ProjectId,control_v1,636F6E74726F6C5F76312E6B69636164,1*
G04 #@! TF.SameCoordinates,Original*
G04 #@! TF.FileFunction,Soldermask,Bot*
G04 #@! TF.FilePolarity,Negative*
%FSLAX46Y46*%
G04 Gerber Fmt 4.6, Leading zero omitted, Abs format (unit mm)*
G04 Created by KiCad (PCBNEW 5.0.0-fee4fd1~65~ubuntu17.10.1) date Sat Apr 27 11:50:21 2019*
%MOMM*%
%LPD*%
G01*
G04 APERTURE LIST*
%ADD10C,0.100000*%
%ADD11C,1.725000*%
%ADD12C,2.400000*%
%ADD13R,2.400000X2.400000*%
%ADD14C,2.100000*%
%ADD15O,2.600000X2.600000*%
%ADD16R,2.600000X2.600000*%
%ADD17O,2.100000X2.100000*%
%ADD18R,2.100000X2.100000*%
%ADD19C,3.000000*%
%ADD20R,3.000000X3.000000*%
%ADD21C,1.900000*%
%ADD22R,1.900000X1.900000*%
%ADD23C,3.600000*%
%ADD24C,9.600000*%
G04 APERTURE END LIST*
D10*
G04 #@! TO.C,R20*
G36*
X141744431Y-134483567D02*
X141776025Y-134488254D01*
X141807008Y-134496015D01*
X141837081Y-134506775D01*
X141865955Y-134520431D01*
X141893351Y-134536852D01*
X141919006Y-134555879D01*
X141942672Y-134577328D01*
X141964121Y-134600994D01*
X141983148Y-134626649D01*
X141999569Y-134654045D01*
X142013225Y-134682919D01*
X142023985Y-134712992D01*
X142031746Y-134743975D01*
X142036433Y-134775569D01*
X142038000Y-134807471D01*
X142038000Y-135956529D01*
X142036433Y-135988431D01*
X142031746Y-136020025D01*
X142023985Y-136051008D01*
X142013225Y-136081081D01*
X141999569Y-136109955D01*
X141983148Y-136137351D01*
X141964121Y-136163006D01*
X141942672Y-136186672D01*
X141919006Y-136208121D01*
X141893351Y-136227148D01*
X141865955Y-136243569D01*
X141837081Y-136257225D01*
X141807008Y-136267985D01*
X141776025Y-136275746D01*
X141744431Y-136280433D01*
X141712529Y-136282000D01*
X140638471Y-136282000D01*
X140606569Y-136280433D01*
X140574975Y-136275746D01*
X140543992Y-136267985D01*
X140513919Y-136257225D01*
X140485045Y-136243569D01*
X140457649Y-136227148D01*
X140431994Y-136208121D01*
X140408328Y-136186672D01*
X140386879Y-136163006D01*
X140367852Y-136137351D01*
X140351431Y-136109955D01*
X140337775Y-136081081D01*
X140327015Y-136051008D01*
X140319254Y-136020025D01*
X140314567Y-135988431D01*
X140313000Y-135956529D01*
X140313000Y-134807471D01*
X140314567Y-134775569D01*
X140319254Y-134743975D01*
X140327015Y-134712992D01*
X140337775Y-134682919D01*
X140351431Y-134654045D01*
X140367852Y-134626649D01*
X140386879Y-134600994D01*
X140408328Y-134577328D01*
X140431994Y-134555879D01*
X140457649Y-134536852D01*
X140485045Y-134520431D01*
X140513919Y-134506775D01*
X140543992Y-134496015D01*
X140574975Y-134488254D01*
X140606569Y-134483567D01*
X140638471Y-134482000D01*
X141712529Y-134482000D01*
X141744431Y-134483567D01*
X141744431Y-134483567D01*
G37*
D11*
X141175500Y-135382000D03*
D10*
G36*
X143619431Y-134483567D02*
X143651025Y-134488254D01*
X143682008Y-134496015D01*
X143712081Y-134506775D01*
X143740955Y-134520431D01*
X143768351Y-134536852D01*
X143794006Y-134555879D01*
X143817672Y-134577328D01*
X143839121Y-134600994D01*
X143858148Y-134626649D01*
X143874569Y-134654045D01*
X143888225Y-134682919D01*
X143898985Y-134712992D01*
X143906746Y-134743975D01*
X143911433Y-134775569D01*
X143913000Y-134807471D01*
X143913000Y-135956529D01*
X143911433Y-135988431D01*
X143906746Y-136020025D01*
X143898985Y-136051008D01*
X143888225Y-136081081D01*
X143874569Y-136109955D01*
X143858148Y-136137351D01*
X143839121Y-136163006D01*
X143817672Y-136186672D01*
X143794006Y-136208121D01*
X143768351Y-136227148D01*
X143740955Y-136243569D01*
X143712081Y-136257225D01*
X143682008Y-136267985D01*
X143651025Y-136275746D01*
X143619431Y-136280433D01*
X143587529Y-136282000D01*
X142513471Y-136282000D01*
X142481569Y-136280433D01*
X142449975Y-136275746D01*
X142418992Y-136267985D01*
X142388919Y-136257225D01*
X142360045Y-136243569D01*
X142332649Y-136227148D01*
X142306994Y-136208121D01*
X142283328Y-136186672D01*
X142261879Y-136163006D01*
X142242852Y-136137351D01*
X142226431Y-136109955D01*
X142212775Y-136081081D01*
X142202015Y-136051008D01*
X142194254Y-136020025D01*
X142189567Y-135988431D01*
X142188000Y-135956529D01*
X142188000Y-134807471D01*
X142189567Y-134775569D01*
X142194254Y-134743975D01*
X142202015Y-134712992D01*
X142212775Y-134682919D01*
X142226431Y-134654045D01*
X142242852Y-134626649D01*
X142261879Y-134600994D01*
X142283328Y-134577328D01*
X142306994Y-134555879D01*
X142332649Y-134536852D01*
X142360045Y-134520431D01*
X142388919Y-134506775D01*
X142418992Y-134496015D01*
X142449975Y-134488254D01*
X142481569Y-134483567D01*
X142513471Y-134482000D01*
X143587529Y-134482000D01*
X143619431Y-134483567D01*
X143619431Y-134483567D01*
G37*
D11*
X143050500Y-135382000D03*
G04 #@! TD*
D10*
G04 #@! TO.C,R21*
G36*
X141871431Y-131181567D02*
X141903025Y-131186254D01*
X141934008Y-131194015D01*
X141964081Y-131204775D01*
X141992955Y-131218431D01*
X142020351Y-131234852D01*
X142046006Y-131253879D01*
X142069672Y-131275328D01*
X142091121Y-131298994D01*
X142110148Y-131324649D01*
X142126569Y-131352045D01*
X142140225Y-131380919D01*
X142150985Y-131410992D01*
X142158746Y-131441975D01*
X142163433Y-131473569D01*
X142165000Y-131505471D01*
X142165000Y-132654529D01*
X142163433Y-132686431D01*
X142158746Y-132718025D01*
X142150985Y-132749008D01*
X142140225Y-132779081D01*
X142126569Y-132807955D01*
X142110148Y-132835351D01*
X142091121Y-132861006D01*
X142069672Y-132884672D01*
X142046006Y-132906121D01*
X142020351Y-132925148D01*
X141992955Y-132941569D01*
X141964081Y-132955225D01*
X141934008Y-132965985D01*
X141903025Y-132973746D01*
X141871431Y-132978433D01*
X141839529Y-132980000D01*
X140765471Y-132980000D01*
X140733569Y-132978433D01*
X140701975Y-132973746D01*
X140670992Y-132965985D01*
X140640919Y-132955225D01*
X140612045Y-132941569D01*
X140584649Y-132925148D01*
X140558994Y-132906121D01*
X140535328Y-132884672D01*
X140513879Y-132861006D01*
X140494852Y-132835351D01*
X140478431Y-132807955D01*
X140464775Y-132779081D01*
X140454015Y-132749008D01*
X140446254Y-132718025D01*
X140441567Y-132686431D01*
X140440000Y-132654529D01*
X140440000Y-131505471D01*
X140441567Y-131473569D01*
X140446254Y-131441975D01*
X140454015Y-131410992D01*
X140464775Y-131380919D01*
X140478431Y-131352045D01*
X140494852Y-131324649D01*
X140513879Y-131298994D01*
X140535328Y-131275328D01*
X140558994Y-131253879D01*
X140584649Y-131234852D01*
X140612045Y-131218431D01*
X140640919Y-131204775D01*
X140670992Y-131194015D01*
X140701975Y-131186254D01*
X140733569Y-131181567D01*
X140765471Y-131180000D01*
X141839529Y-131180000D01*
X141871431Y-131181567D01*
X141871431Y-131181567D01*
G37*
D11*
X141302500Y-132080000D03*
D10*
G36*
X143746431Y-131181567D02*
X143778025Y-131186254D01*
X143809008Y-131194015D01*
X143839081Y-131204775D01*
X143867955Y-131218431D01*
X143895351Y-131234852D01*
X143921006Y-131253879D01*
X143944672Y-131275328D01*
X143966121Y-131298994D01*
X143985148Y-131324649D01*
X144001569Y-131352045D01*
X144015225Y-131380919D01*
X144025985Y-131410992D01*
X144033746Y-131441975D01*
X144038433Y-131473569D01*
X144040000Y-131505471D01*
X144040000Y-132654529D01*
X144038433Y-132686431D01*
X144033746Y-132718025D01*
X144025985Y-132749008D01*
X144015225Y-132779081D01*
X144001569Y-132807955D01*
X143985148Y-132835351D01*
X143966121Y-132861006D01*
X143944672Y-132884672D01*
X143921006Y-132906121D01*
X143895351Y-132925148D01*
X143867955Y-132941569D01*
X143839081Y-132955225D01*
X143809008Y-132965985D01*
X143778025Y-132973746D01*
X143746431Y-132978433D01*
X143714529Y-132980000D01*
X142640471Y-132980000D01*
X142608569Y-132978433D01*
X142576975Y-132973746D01*
X142545992Y-132965985D01*
X142515919Y-132955225D01*
X142487045Y-132941569D01*
X142459649Y-132925148D01*
X142433994Y-132906121D01*
X142410328Y-132884672D01*
X142388879Y-132861006D01*
X142369852Y-132835351D01*
X142353431Y-132807955D01*
X142339775Y-132779081D01*
X142329015Y-132749008D01*
X142321254Y-132718025D01*
X142316567Y-132686431D01*
X142315000Y-132654529D01*
X142315000Y-131505471D01*
X142316567Y-131473569D01*
X142321254Y-131441975D01*
X142329015Y-131410992D01*
X142339775Y-131380919D01*
X142353431Y-131352045D01*
X142369852Y-131324649D01*
X142388879Y-131298994D01*
X142410328Y-131275328D01*
X142433994Y-131253879D01*
X142459649Y-131234852D01*
X142487045Y-131218431D01*
X142515919Y-131204775D01*
X142545992Y-131194015D01*
X142576975Y-131186254D01*
X142608569Y-131181567D01*
X142640471Y-131180000D01*
X143714529Y-131180000D01*
X143746431Y-131181567D01*
X143746431Y-131181567D01*
G37*
D11*
X143177500Y-132080000D03*
G04 #@! TD*
D10*
G04 #@! TO.C,R22*
G36*
X125790931Y-131816567D02*
X125822525Y-131821254D01*
X125853508Y-131829015D01*
X125883581Y-131839775D01*
X125912455Y-131853431D01*
X125939851Y-131869852D01*
X125965506Y-131888879D01*
X125989172Y-131910328D01*
X126010621Y-131933994D01*
X126029648Y-131959649D01*
X126046069Y-131987045D01*
X126059725Y-132015919D01*
X126070485Y-132045992D01*
X126078246Y-132076975D01*
X126082933Y-132108569D01*
X126084500Y-132140471D01*
X126084500Y-133289529D01*
X126082933Y-133321431D01*
X126078246Y-133353025D01*
X126070485Y-133384008D01*
X126059725Y-133414081D01*
X126046069Y-133442955D01*
X126029648Y-133470351D01*
X126010621Y-133496006D01*
X125989172Y-133519672D01*
X125965506Y-133541121D01*
X125939851Y-133560148D01*
X125912455Y-133576569D01*
X125883581Y-133590225D01*
X125853508Y-133600985D01*
X125822525Y-133608746D01*
X125790931Y-133613433D01*
X125759029Y-133615000D01*
X124684971Y-133615000D01*
X124653069Y-133613433D01*
X124621475Y-133608746D01*
X124590492Y-133600985D01*
X124560419Y-133590225D01*
X124531545Y-133576569D01*
X124504149Y-133560148D01*
X124478494Y-133541121D01*
X124454828Y-133519672D01*
X124433379Y-133496006D01*
X124414352Y-133470351D01*
X124397931Y-133442955D01*
X124384275Y-133414081D01*
X124373515Y-133384008D01*
X124365754Y-133353025D01*
X124361067Y-133321431D01*
X124359500Y-133289529D01*
X124359500Y-132140471D01*
X124361067Y-132108569D01*
X124365754Y-132076975D01*
X124373515Y-132045992D01*
X124384275Y-132015919D01*
X124397931Y-131987045D01*
X124414352Y-131959649D01*
X124433379Y-131933994D01*
X124454828Y-131910328D01*
X124478494Y-131888879D01*
X124504149Y-131869852D01*
X124531545Y-131853431D01*
X124560419Y-131839775D01*
X124590492Y-131829015D01*
X124621475Y-131821254D01*
X124653069Y-131816567D01*
X124684971Y-131815000D01*
X125759029Y-131815000D01*
X125790931Y-131816567D01*
X125790931Y-131816567D01*
G37*
D11*
X125222000Y-132715000D03*
D10*
G36*
X123915931Y-131816567D02*
X123947525Y-131821254D01*
X123978508Y-131829015D01*
X124008581Y-131839775D01*
X124037455Y-131853431D01*
X124064851Y-131869852D01*
X124090506Y-131888879D01*
X124114172Y-131910328D01*
X124135621Y-131933994D01*
X124154648Y-131959649D01*
X124171069Y-131987045D01*
X124184725Y-132015919D01*
X124195485Y-132045992D01*
X124203246Y-132076975D01*
X124207933Y-132108569D01*
X124209500Y-132140471D01*
X124209500Y-133289529D01*
X124207933Y-133321431D01*
X124203246Y-133353025D01*
X124195485Y-133384008D01*
X124184725Y-133414081D01*
X124171069Y-133442955D01*
X124154648Y-133470351D01*
X124135621Y-133496006D01*
X124114172Y-133519672D01*
X124090506Y-133541121D01*
X124064851Y-133560148D01*
X124037455Y-133576569D01*
X124008581Y-133590225D01*
X123978508Y-133600985D01*
X123947525Y-133608746D01*
X123915931Y-133613433D01*
X123884029Y-133615000D01*
X122809971Y-133615000D01*
X122778069Y-133613433D01*
X122746475Y-133608746D01*
X122715492Y-133600985D01*
X122685419Y-133590225D01*
X122656545Y-133576569D01*
X122629149Y-133560148D01*
X122603494Y-133541121D01*
X122579828Y-133519672D01*
X122558379Y-133496006D01*
X122539352Y-133470351D01*
X122522931Y-133442955D01*
X122509275Y-133414081D01*
X122498515Y-133384008D01*
X122490754Y-133353025D01*
X122486067Y-133321431D01*
X122484500Y-133289529D01*
X122484500Y-132140471D01*
X122486067Y-132108569D01*
X122490754Y-132076975D01*
X122498515Y-132045992D01*
X122509275Y-132015919D01*
X122522931Y-131987045D01*
X122539352Y-131959649D01*
X122558379Y-131933994D01*
X122579828Y-131910328D01*
X122603494Y-131888879D01*
X122629149Y-131869852D01*
X122656545Y-131853431D01*
X122685419Y-131839775D01*
X122715492Y-131829015D01*
X122746475Y-131821254D01*
X122778069Y-131816567D01*
X122809971Y-131815000D01*
X123884029Y-131815000D01*
X123915931Y-131816567D01*
X123915931Y-131816567D01*
G37*
D11*
X123347000Y-132715000D03*
G04 #@! TD*
D12*
G04 #@! TO.C,C3*
X207819000Y-95504000D03*
D13*
X202819000Y-95504000D03*
G04 #@! TD*
D14*
G04 #@! TO.C,M1*
X185420000Y-123190000D03*
X182880000Y-123190000D03*
X185420000Y-120650000D03*
X182880000Y-120650000D03*
X185420000Y-118110000D03*
X182880000Y-118110000D03*
X185420000Y-115570000D03*
X182880000Y-115570000D03*
X185420000Y-113030000D03*
X182880000Y-113030000D03*
X185420000Y-110490000D03*
X182880000Y-110490000D03*
X185420000Y-107950000D03*
X182880000Y-107950000D03*
X185420000Y-105410000D03*
X182880000Y-105410000D03*
X185420000Y-102870000D03*
X182880000Y-102870000D03*
X185420000Y-100330000D03*
X182880000Y-100330000D03*
X185420000Y-97790000D03*
X182880000Y-97790000D03*
X185420000Y-95250000D03*
X182880000Y-95250000D03*
X185420000Y-92710000D03*
X182880000Y-92710000D03*
X185420000Y-90170000D03*
X182880000Y-90170000D03*
X185420000Y-87630000D03*
X182880000Y-87630000D03*
X185420000Y-85090000D03*
X182880000Y-85090000D03*
X185420000Y-82550000D03*
X182880000Y-82550000D03*
X185420000Y-80010000D03*
X182880000Y-80010000D03*
X185420000Y-77470000D03*
X182880000Y-77470000D03*
X185420000Y-74930000D03*
X182880000Y-74930000D03*
X185420000Y-72390000D03*
X182880000Y-72390000D03*
X185420000Y-69850000D03*
X182880000Y-69850000D03*
X185420000Y-67310000D03*
X182880000Y-67310000D03*
X185420000Y-64770000D03*
X182880000Y-64770000D03*
X185420000Y-62230000D03*
X182880000Y-62230000D03*
X134620000Y-123190000D03*
X132080000Y-123190000D03*
X134620000Y-120650000D03*
X132080000Y-120650000D03*
X134620000Y-118110000D03*
X132080000Y-118110000D03*
X134620000Y-115570000D03*
X132080000Y-115570000D03*
X134620000Y-113030000D03*
X132080000Y-113030000D03*
X134620000Y-110490000D03*
X132080000Y-110490000D03*
X134620000Y-107950000D03*
X132080000Y-107950000D03*
X134620000Y-105410000D03*
X132080000Y-105410000D03*
X134620000Y-102870000D03*
X132080000Y-102870000D03*
X134620000Y-100330000D03*
X132080000Y-100330000D03*
X134620000Y-97790000D03*
X132080000Y-97790000D03*
X134620000Y-95250000D03*
X132080000Y-95250000D03*
X134620000Y-92710000D03*
X132080000Y-92710000D03*
X134620000Y-90170000D03*
X132080000Y-90170000D03*
X134620000Y-87630000D03*
X132080000Y-87630000D03*
X134620000Y-85090000D03*
X132080000Y-85090000D03*
X134620000Y-82550000D03*
X132080000Y-82550000D03*
X134620000Y-80010000D03*
X132080000Y-80010000D03*
X134620000Y-77470000D03*
X132080000Y-77470000D03*
X134620000Y-74930000D03*
X132080000Y-74930000D03*
X134620000Y-72390000D03*
X132080000Y-72390000D03*
X134620000Y-69850000D03*
X132080000Y-69850000D03*
X134620000Y-67310000D03*
X132080000Y-67310000D03*
X134620000Y-64770000D03*
X132080000Y-64770000D03*
X134620000Y-62230000D03*
X132080000Y-62230000D03*
G04 #@! TD*
D15*
G04 #@! TO.C,D1*
X152323800Y-83972400D03*
D16*
X165023800Y-83972400D03*
G04 #@! TD*
D15*
G04 #@! TO.C,D2*
X147320000Y-102870000D03*
D16*
X160020000Y-102870000D03*
G04 #@! TD*
D17*
G04 #@! TO.C,J1*
X114300000Y-105410000D03*
X116840000Y-105410000D03*
X114300000Y-102870000D03*
X116840000Y-102870000D03*
X114300000Y-100330000D03*
X116840000Y-100330000D03*
X114300000Y-97790000D03*
X116840000Y-97790000D03*
X114300000Y-95250000D03*
X116840000Y-95250000D03*
X114300000Y-92710000D03*
X116840000Y-92710000D03*
X114300000Y-90170000D03*
D18*
X116840000Y-90170000D03*
G04 #@! TD*
D19*
G04 #@! TO.C,J2*
X188468000Y-139446000D03*
X183388000Y-139446000D03*
X178308000Y-139446000D03*
X173228000Y-139446000D03*
D20*
X168148000Y-139446000D03*
G04 #@! TD*
D21*
G04 #@! TO.C,J4*
X137414000Y-132842000D03*
X136144000Y-135382000D03*
X134874000Y-132842000D03*
X133604000Y-135382000D03*
X132334000Y-132842000D03*
X131064000Y-135382000D03*
X129794000Y-132842000D03*
D22*
X128524000Y-135382000D03*
D23*
X127254000Y-141732000D03*
X138684000Y-141732000D03*
G04 #@! TD*
D10*
G04 #@! TO.C,R5*
G36*
X126093431Y-84191567D02*
X126125025Y-84196254D01*
X126156008Y-84204015D01*
X126186081Y-84214775D01*
X126214955Y-84228431D01*
X126242351Y-84244852D01*
X126268006Y-84263879D01*
X126291672Y-84285328D01*
X126313121Y-84308994D01*
X126332148Y-84334649D01*
X126348569Y-84362045D01*
X126362225Y-84390919D01*
X126372985Y-84420992D01*
X126380746Y-84451975D01*
X126385433Y-84483569D01*
X126387000Y-84515471D01*
X126387000Y-85664529D01*
X126385433Y-85696431D01*
X126380746Y-85728025D01*
X126372985Y-85759008D01*
X126362225Y-85789081D01*
X126348569Y-85817955D01*
X126332148Y-85845351D01*
X126313121Y-85871006D01*
X126291672Y-85894672D01*
X126268006Y-85916121D01*
X126242351Y-85935148D01*
X126214955Y-85951569D01*
X126186081Y-85965225D01*
X126156008Y-85975985D01*
X126125025Y-85983746D01*
X126093431Y-85988433D01*
X126061529Y-85990000D01*
X124987471Y-85990000D01*
X124955569Y-85988433D01*
X124923975Y-85983746D01*
X124892992Y-85975985D01*
X124862919Y-85965225D01*
X124834045Y-85951569D01*
X124806649Y-85935148D01*
X124780994Y-85916121D01*
X124757328Y-85894672D01*
X124735879Y-85871006D01*
X124716852Y-85845351D01*
X124700431Y-85817955D01*
X124686775Y-85789081D01*
X124676015Y-85759008D01*
X124668254Y-85728025D01*
X124663567Y-85696431D01*
X124662000Y-85664529D01*
X124662000Y-84515471D01*
X124663567Y-84483569D01*
X124668254Y-84451975D01*
X124676015Y-84420992D01*
X124686775Y-84390919D01*
X124700431Y-84362045D01*
X124716852Y-84334649D01*
X124735879Y-84308994D01*
X124757328Y-84285328D01*
X124780994Y-84263879D01*
X124806649Y-84244852D01*
X124834045Y-84228431D01*
X124862919Y-84214775D01*
X124892992Y-84204015D01*
X124923975Y-84196254D01*
X124955569Y-84191567D01*
X124987471Y-84190000D01*
X126061529Y-84190000D01*
X126093431Y-84191567D01*
X126093431Y-84191567D01*
G37*
D11*
X125524500Y-85090000D03*
D10*
G36*
X124218431Y-84191567D02*
X124250025Y-84196254D01*
X124281008Y-84204015D01*
X124311081Y-84214775D01*
X124339955Y-84228431D01*
X124367351Y-84244852D01*
X124393006Y-84263879D01*
X124416672Y-84285328D01*
X124438121Y-84308994D01*
X124457148Y-84334649D01*
X124473569Y-84362045D01*
X124487225Y-84390919D01*
X124497985Y-84420992D01*
X124505746Y-84451975D01*
X124510433Y-84483569D01*
X124512000Y-84515471D01*
X124512000Y-85664529D01*
X124510433Y-85696431D01*
X124505746Y-85728025D01*
X124497985Y-85759008D01*
X124487225Y-85789081D01*
X124473569Y-85817955D01*
X124457148Y-85845351D01*
X124438121Y-85871006D01*
X124416672Y-85894672D01*
X124393006Y-85916121D01*
X124367351Y-85935148D01*
X124339955Y-85951569D01*
X124311081Y-85965225D01*
X124281008Y-85975985D01*
X124250025Y-85983746D01*
X124218431Y-85988433D01*
X124186529Y-85990000D01*
X123112471Y-85990000D01*
X123080569Y-85988433D01*
X123048975Y-85983746D01*
X123017992Y-85975985D01*
X122987919Y-85965225D01*
X122959045Y-85951569D01*
X122931649Y-85935148D01*
X122905994Y-85916121D01*
X122882328Y-85894672D01*
X122860879Y-85871006D01*
X122841852Y-85845351D01*
X122825431Y-85817955D01*
X122811775Y-85789081D01*
X122801015Y-85759008D01*
X122793254Y-85728025D01*
X122788567Y-85696431D01*
X122787000Y-85664529D01*
X122787000Y-84515471D01*
X122788567Y-84483569D01*
X122793254Y-84451975D01*
X122801015Y-84420992D01*
X122811775Y-84390919D01*
X122825431Y-84362045D01*
X122841852Y-84334649D01*
X122860879Y-84308994D01*
X122882328Y-84285328D01*
X122905994Y-84263879D01*
X122931649Y-84244852D01*
X122959045Y-84228431D01*
X122987919Y-84214775D01*
X123017992Y-84204015D01*
X123048975Y-84196254D01*
X123080569Y-84191567D01*
X123112471Y-84190000D01*
X124186529Y-84190000D01*
X124218431Y-84191567D01*
X124218431Y-84191567D01*
G37*
D11*
X123649500Y-85090000D03*
G04 #@! TD*
D10*
G04 #@! TO.C,R6*
G36*
X125966431Y-91938567D02*
X125998025Y-91943254D01*
X126029008Y-91951015D01*
X126059081Y-91961775D01*
X126087955Y-91975431D01*
X126115351Y-91991852D01*
X126141006Y-92010879D01*
X126164672Y-92032328D01*
X126186121Y-92055994D01*
X126205148Y-92081649D01*
X126221569Y-92109045D01*
X126235225Y-92137919D01*
X126245985Y-92167992D01*
X126253746Y-92198975D01*
X126258433Y-92230569D01*
X126260000Y-92262471D01*
X126260000Y-93411529D01*
X126258433Y-93443431D01*
X126253746Y-93475025D01*
X126245985Y-93506008D01*
X126235225Y-93536081D01*
X126221569Y-93564955D01*
X126205148Y-93592351D01*
X126186121Y-93618006D01*
X126164672Y-93641672D01*
X126141006Y-93663121D01*
X126115351Y-93682148D01*
X126087955Y-93698569D01*
X126059081Y-93712225D01*
X126029008Y-93722985D01*
X125998025Y-93730746D01*
X125966431Y-93735433D01*
X125934529Y-93737000D01*
X124860471Y-93737000D01*
X124828569Y-93735433D01*
X124796975Y-93730746D01*
X124765992Y-93722985D01*
X124735919Y-93712225D01*
X124707045Y-93698569D01*
X124679649Y-93682148D01*
X124653994Y-93663121D01*
X124630328Y-93641672D01*
X124608879Y-93618006D01*
X124589852Y-93592351D01*
X124573431Y-93564955D01*
X124559775Y-93536081D01*
X124549015Y-93506008D01*
X124541254Y-93475025D01*
X124536567Y-93443431D01*
X124535000Y-93411529D01*
X124535000Y-92262471D01*
X124536567Y-92230569D01*
X124541254Y-92198975D01*
X124549015Y-92167992D01*
X124559775Y-92137919D01*
X124573431Y-92109045D01*
X124589852Y-92081649D01*
X124608879Y-92055994D01*
X124630328Y-92032328D01*
X124653994Y-92010879D01*
X124679649Y-91991852D01*
X124707045Y-91975431D01*
X124735919Y-91961775D01*
X124765992Y-91951015D01*
X124796975Y-91943254D01*
X124828569Y-91938567D01*
X124860471Y-91937000D01*
X125934529Y-91937000D01*
X125966431Y-91938567D01*
X125966431Y-91938567D01*
G37*
D11*
X125397500Y-92837000D03*
D10*
G36*
X124091431Y-91938567D02*
X124123025Y-91943254D01*
X124154008Y-91951015D01*
X124184081Y-91961775D01*
X124212955Y-91975431D01*
X124240351Y-91991852D01*
X124266006Y-92010879D01*
X124289672Y-92032328D01*
X124311121Y-92055994D01*
X124330148Y-92081649D01*
X124346569Y-92109045D01*
X124360225Y-92137919D01*
X124370985Y-92167992D01*
X124378746Y-92198975D01*
X124383433Y-92230569D01*
X124385000Y-92262471D01*
X124385000Y-93411529D01*
X124383433Y-93443431D01*
X124378746Y-93475025D01*
X124370985Y-93506008D01*
X124360225Y-93536081D01*
X124346569Y-93564955D01*
X124330148Y-93592351D01*
X124311121Y-93618006D01*
X124289672Y-93641672D01*
X124266006Y-93663121D01*
X124240351Y-93682148D01*
X124212955Y-93698569D01*
X124184081Y-93712225D01*
X124154008Y-93722985D01*
X124123025Y-93730746D01*
X124091431Y-93735433D01*
X124059529Y-93737000D01*
X122985471Y-93737000D01*
X122953569Y-93735433D01*
X122921975Y-93730746D01*
X122890992Y-93722985D01*
X122860919Y-93712225D01*
X122832045Y-93698569D01*
X122804649Y-93682148D01*
X122778994Y-93663121D01*
X122755328Y-93641672D01*
X122733879Y-93618006D01*
X122714852Y-93592351D01*
X122698431Y-93564955D01*
X122684775Y-93536081D01*
X122674015Y-93506008D01*
X122666254Y-93475025D01*
X122661567Y-93443431D01*
X122660000Y-93411529D01*
X122660000Y-92262471D01*
X122661567Y-92230569D01*
X122666254Y-92198975D01*
X122674015Y-92167992D01*
X122684775Y-92137919D01*
X122698431Y-92109045D01*
X122714852Y-92081649D01*
X122733879Y-92055994D01*
X122755328Y-92032328D01*
X122778994Y-92010879D01*
X122804649Y-91991852D01*
X122832045Y-91975431D01*
X122860919Y-91961775D01*
X122890992Y-91951015D01*
X122921975Y-91943254D01*
X122953569Y-91938567D01*
X122985471Y-91937000D01*
X124059529Y-91937000D01*
X124091431Y-91938567D01*
X124091431Y-91938567D01*
G37*
D11*
X123522500Y-92837000D03*
G04 #@! TD*
D10*
G04 #@! TO.C,C10*
G36*
X125966431Y-88255567D02*
X125998025Y-88260254D01*
X126029008Y-88268015D01*
X126059081Y-88278775D01*
X126087955Y-88292431D01*
X126115351Y-88308852D01*
X126141006Y-88327879D01*
X126164672Y-88349328D01*
X126186121Y-88372994D01*
X126205148Y-88398649D01*
X126221569Y-88426045D01*
X126235225Y-88454919D01*
X126245985Y-88484992D01*
X126253746Y-88515975D01*
X126258433Y-88547569D01*
X126260000Y-88579471D01*
X126260000Y-89728529D01*
X126258433Y-89760431D01*
X126253746Y-89792025D01*
X126245985Y-89823008D01*
X126235225Y-89853081D01*
X126221569Y-89881955D01*
X126205148Y-89909351D01*
X126186121Y-89935006D01*
X126164672Y-89958672D01*
X126141006Y-89980121D01*
X126115351Y-89999148D01*
X126087955Y-90015569D01*
X126059081Y-90029225D01*
X126029008Y-90039985D01*
X125998025Y-90047746D01*
X125966431Y-90052433D01*
X125934529Y-90054000D01*
X124860471Y-90054000D01*
X124828569Y-90052433D01*
X124796975Y-90047746D01*
X124765992Y-90039985D01*
X124735919Y-90029225D01*
X124707045Y-90015569D01*
X124679649Y-89999148D01*
X124653994Y-89980121D01*
X124630328Y-89958672D01*
X124608879Y-89935006D01*
X124589852Y-89909351D01*
X124573431Y-89881955D01*
X124559775Y-89853081D01*
X124549015Y-89823008D01*
X124541254Y-89792025D01*
X124536567Y-89760431D01*
X124535000Y-89728529D01*
X124535000Y-88579471D01*
X124536567Y-88547569D01*
X124541254Y-88515975D01*
X124549015Y-88484992D01*
X124559775Y-88454919D01*
X124573431Y-88426045D01*
X124589852Y-88398649D01*
X124608879Y-88372994D01*
X124630328Y-88349328D01*
X124653994Y-88327879D01*
X124679649Y-88308852D01*
X124707045Y-88292431D01*
X124735919Y-88278775D01*
X124765992Y-88268015D01*
X124796975Y-88260254D01*
X124828569Y-88255567D01*
X124860471Y-88254000D01*
X125934529Y-88254000D01*
X125966431Y-88255567D01*
X125966431Y-88255567D01*
G37*
D11*
X125397500Y-89154000D03*
D10*
G36*
X124091431Y-88255567D02*
X124123025Y-88260254D01*
X124154008Y-88268015D01*
X124184081Y-88278775D01*
X124212955Y-88292431D01*
X124240351Y-88308852D01*
X124266006Y-88327879D01*
X124289672Y-88349328D01*
X124311121Y-88372994D01*
X124330148Y-88398649D01*
X124346569Y-88426045D01*
X124360225Y-88454919D01*
X124370985Y-88484992D01*
X124378746Y-88515975D01*
X124383433Y-88547569D01*
X124385000Y-88579471D01*
X124385000Y-89728529D01*
X124383433Y-89760431D01*
X124378746Y-89792025D01*
X124370985Y-89823008D01*
X124360225Y-89853081D01*
X124346569Y-89881955D01*
X124330148Y-89909351D01*
X124311121Y-89935006D01*
X124289672Y-89958672D01*
X124266006Y-89980121D01*
X124240351Y-89999148D01*
X124212955Y-90015569D01*
X124184081Y-90029225D01*
X124154008Y-90039985D01*
X124123025Y-90047746D01*
X124091431Y-90052433D01*
X124059529Y-90054000D01*
X122985471Y-90054000D01*
X122953569Y-90052433D01*
X122921975Y-90047746D01*
X122890992Y-90039985D01*
X122860919Y-90029225D01*
X122832045Y-90015569D01*
X122804649Y-89999148D01*
X122778994Y-89980121D01*
X122755328Y-89958672D01*
X122733879Y-89935006D01*
X122714852Y-89909351D01*
X122698431Y-89881955D01*
X122684775Y-89853081D01*
X122674015Y-89823008D01*
X122666254Y-89792025D01*
X122661567Y-89760431D01*
X122660000Y-89728529D01*
X122660000Y-88579471D01*
X122661567Y-88547569D01*
X122666254Y-88515975D01*
X122674015Y-88484992D01*
X122684775Y-88454919D01*
X122698431Y-88426045D01*
X122714852Y-88398649D01*
X122733879Y-88372994D01*
X122755328Y-88349328D01*
X122778994Y-88327879D01*
X122804649Y-88308852D01*
X122832045Y-88292431D01*
X122860919Y-88278775D01*
X122890992Y-88268015D01*
X122921975Y-88260254D01*
X122953569Y-88255567D01*
X122985471Y-88254000D01*
X124059529Y-88254000D01*
X124091431Y-88255567D01*
X124091431Y-88255567D01*
G37*
D11*
X123522500Y-89154000D03*
G04 #@! TD*
D24*
G04 #@! TO.C,MK1*
X114300000Y-66040000D03*
G04 #@! TD*
G04 #@! TO.C,MK2*
X205740000Y-66040000D03*
G04 #@! TD*
G04 #@! TO.C,MK3*
X205740000Y-137160000D03*
G04 #@! TD*
G04 #@! TO.C,MK4*
X114300000Y-137160000D03*
G04 #@! TD*
D12*
G04 #@! TO.C,C1*
X120570000Y-78740000D03*
D13*
X115570000Y-78740000D03*
G04 #@! TD*
D12*
G04 #@! TO.C,C2*
X118792000Y-119634000D03*
D13*
X113792000Y-119634000D03*
G04 #@! TD*
D12*
G04 #@! TO.C,C4*
X206930000Y-125730000D03*
D13*
X201930000Y-125730000D03*
G04 #@! TD*
M02*
