G04 #@! TF.GenerationSoftware,KiCad,Pcbnew,5.0.0-fee4fd1~65~ubuntu17.10.1*
G04 #@! TF.CreationDate,2019-02-19T07:35:12-06:00*
G04 #@! TF.ProjectId,control_v1,636F6E74726F6C5F76312E6B69636164,1*
G04 #@! TF.SameCoordinates,Original*
G04 #@! TF.FileFunction,Copper,L2,Bot,Signal*
G04 #@! TF.FilePolarity,Positive*
%FSLAX46Y46*%
G04 Gerber Fmt 4.6, Leading zero omitted, Abs format (unit mm)*
G04 Created by KiCad (PCBNEW 5.0.0-fee4fd1~65~ubuntu17.10.1) date Tue Feb 19 07:35:12 2019*
%MOMM*%
%LPD*%
G01*
G04 APERTURE LIST*
G04 #@! TA.AperFunction,ComponentPad*
%ADD10R,1.700000X1.700000*%
G04 #@! TD*
G04 #@! TA.AperFunction,ComponentPad*
%ADD11O,1.700000X1.700000*%
G04 #@! TD*
G04 #@! TA.AperFunction,ComponentPad*
%ADD12R,2.400000X2.400000*%
G04 #@! TD*
G04 #@! TA.AperFunction,ComponentPad*
%ADD13C,2.400000*%
G04 #@! TD*
G04 #@! TA.AperFunction,ComponentPad*
%ADD14R,2.200000X2.200000*%
G04 #@! TD*
G04 #@! TA.AperFunction,ComponentPad*
%ADD15O,2.200000X2.200000*%
G04 #@! TD*
G04 #@! TA.AperFunction,ComponentPad*
%ADD16R,2.600000X2.600000*%
G04 #@! TD*
G04 #@! TA.AperFunction,ComponentPad*
%ADD17C,2.600000*%
G04 #@! TD*
G04 #@! TA.AperFunction,ComponentPad*
%ADD18R,1.500000X1.500000*%
G04 #@! TD*
G04 #@! TA.AperFunction,ComponentPad*
%ADD19C,1.500000*%
G04 #@! TD*
G04 #@! TA.AperFunction,ComponentPad*
%ADD20C,9.200000*%
G04 #@! TD*
G04 #@! TA.AperFunction,ViaPad*
%ADD21C,1.000000*%
G04 #@! TD*
G04 #@! TA.AperFunction,Conductor*
%ADD22C,0.700000*%
G04 #@! TD*
G04 #@! TA.AperFunction,Conductor*
%ADD23C,0.254000*%
G04 #@! TD*
G04 APERTURE END LIST*
D10*
G04 #@! TO.P,J3,1*
G04 #@! TO.N,Net-(J3-Pad1)*
X137160000Y-135890000D03*
D11*
G04 #@! TO.P,J3,2*
G04 #@! TO.N,/USART_TX*
X134620000Y-135890000D03*
G04 #@! TO.P,J3,3*
G04 #@! TO.N,/USART_RX*
X132080000Y-135890000D03*
G04 #@! TO.P,J3,4*
G04 #@! TO.N,Net-(J3-Pad4)*
X129540000Y-135890000D03*
G04 #@! TO.P,J3,5*
G04 #@! TO.N,Net-(J3-Pad5)*
X127000000Y-135890000D03*
G04 #@! TO.P,J3,6*
G04 #@! TO.N,/GND*
X124460000Y-135890000D03*
G04 #@! TD*
D12*
G04 #@! TO.P,C2,1*
G04 #@! TO.N,/48v*
X111760000Y-119380000D03*
D13*
G04 #@! TO.P,C2,2*
G04 #@! TO.N,/GND*
X119260000Y-119380000D03*
G04 #@! TD*
D14*
G04 #@! TO.P,D1,1*
G04 #@! TO.N,/powerconverters/12v_OUT*
X152400000Y-83820000D03*
D15*
G04 #@! TO.P,D1,2*
G04 #@! TO.N,/GND*
X165100000Y-83820000D03*
G04 #@! TD*
G04 #@! TO.P,D2,2*
G04 #@! TO.N,/GND*
X147320000Y-102870000D03*
D14*
G04 #@! TO.P,D2,1*
G04 #@! TO.N,/powerconverters/5v_OUT*
X160020000Y-102870000D03*
G04 #@! TD*
D10*
G04 #@! TO.P,J1,1*
G04 #@! TO.N,/48v*
X116840000Y-90170000D03*
D11*
G04 #@! TO.P,J1,2*
G04 #@! TO.N,/5v*
X114300000Y-90170000D03*
G04 #@! TO.P,J1,3*
G04 #@! TO.N,/12v*
X116840000Y-92710000D03*
G04 #@! TO.P,J1,4*
G04 #@! TO.N,/GND*
X114300000Y-92710000D03*
G04 #@! TO.P,J1,5*
G04 #@! TO.N,/PHASEA_FB*
X116840000Y-95250000D03*
G04 #@! TO.P,J1,6*
G04 #@! TO.N,/PHASEB_FB*
X114300000Y-95250000D03*
G04 #@! TO.P,J1,7*
G04 #@! TO.N,/AUX_0*
X116840000Y-97790000D03*
G04 #@! TO.P,J1,8*
G04 #@! TO.N,/AUX_1*
X114300000Y-97790000D03*
G04 #@! TO.P,J1,9*
G04 #@! TO.N,/LS_C_TTL_PWM*
X116840000Y-100330000D03*
G04 #@! TO.P,J1,10*
G04 #@! TO.N,/HS_C_TTL_PWM*
X114300000Y-100330000D03*
G04 #@! TO.P,J1,11*
G04 #@! TO.N,/LS_B_TTL_PWM*
X116840000Y-102870000D03*
G04 #@! TO.P,J1,12*
G04 #@! TO.N,/HS_B_TTL_PWM*
X114300000Y-102870000D03*
G04 #@! TO.P,J1,13*
G04 #@! TO.N,/LS_A_TTL_PWM*
X116840000Y-105410000D03*
G04 #@! TO.P,J1,14*
G04 #@! TO.N,/HS_A_TTL_PWM*
X114300000Y-105410000D03*
G04 #@! TD*
D16*
G04 #@! TO.P,J2,1*
G04 #@! TO.N,/HALL_C*
X147320000Y-139700000D03*
D17*
G04 #@! TO.P,J2,2*
G04 #@! TO.N,/HALL_B*
X152400000Y-139700000D03*
G04 #@! TO.P,J2,3*
G04 #@! TO.N,/HALL_A*
X157480000Y-139700000D03*
G04 #@! TO.P,J2,4*
G04 #@! TO.N,/GND*
X162560000Y-139700000D03*
G04 #@! TO.P,J2,5*
G04 #@! TO.N,/5v*
X167640000Y-139700000D03*
G04 #@! TD*
D18*
G04 #@! TO.P,J4,1*
G04 #@! TO.N,Net-(J4-Pad1)*
X181610000Y-134620000D03*
D19*
G04 #@! TO.P,J4,2*
G04 #@! TO.N,Net-(J4-Pad2)*
X182880000Y-132080000D03*
G04 #@! TO.P,J4,3*
G04 #@! TO.N,/5v*
X184150000Y-134620000D03*
G04 #@! TO.P,J4,4*
G04 #@! TO.N,Net-(J4-Pad4)*
X185420000Y-132080000D03*
G04 #@! TO.P,J4,5*
G04 #@! TO.N,Net-(J4-Pad5)*
X186690000Y-134620000D03*
G04 #@! TO.P,J4,6*
G04 #@! TO.N,/GND*
X187960000Y-132080000D03*
G04 #@! TO.P,J4,7*
G04 #@! TO.N,/I2C_SCL*
X189230000Y-134620000D03*
G04 #@! TO.P,J4,8*
G04 #@! TO.N,/I2C_SDA*
X190500000Y-132080000D03*
G04 #@! TD*
D20*
G04 #@! TO.P,MK1,1*
G04 #@! TO.N,N/C*
X114300000Y-66040000D03*
G04 #@! TD*
G04 #@! TO.P,MK2,1*
G04 #@! TO.N,N/C*
X205740000Y-66040000D03*
G04 #@! TD*
G04 #@! TO.P,MK3,1*
G04 #@! TO.N,N/C*
X205740000Y-137160000D03*
G04 #@! TD*
G04 #@! TO.P,MK4,1*
G04 #@! TO.N,N/C*
X114300000Y-137160000D03*
G04 #@! TD*
D21*
G04 #@! TO.N,/48v*
X111370000Y-78740000D03*
X170815000Y-77597000D03*
X155350000Y-75625000D03*
X157070000Y-112335000D03*
G04 #@! TO.N,/GND*
X114300000Y-87376000D03*
X127762000Y-96012000D03*
X159766000Y-108458000D03*
X139446000Y-63246000D03*
X129286000Y-80010000D03*
X201422000Y-100838000D03*
X209550000Y-118618000D03*
X190754000Y-59944000D03*
X144272000Y-82042000D03*
G04 #@! TO.N,/5v*
X111506000Y-95504000D03*
G04 #@! TO.N,/powerconverters/12v_OUT*
X204597000Y-78867000D03*
G04 #@! TO.N,/PHASEB_FB*
X143256000Y-61468000D03*
G04 #@! TO.N,/AUX_0*
X127381000Y-88900000D03*
X127762000Y-75946000D03*
G04 #@! TO.N,/AUX_1*
X124079000Y-79502000D03*
X128270000Y-72390000D03*
G04 #@! TO.N,/LS_C_TTL_PWM*
X134620000Y-97790000D03*
G04 #@! TO.N,/HALL_B*
X163195000Y-128778000D03*
X167132000Y-105029000D03*
G04 #@! TO.N,/HALL_A*
X164465000Y-129794000D03*
X168783000Y-96520000D03*
G04 #@! TO.N,/I2C_SCL*
X191516000Y-89281000D03*
G04 #@! TO.N,/I2C_SDA*
X189738000Y-90424000D03*
G04 #@! TD*
D22*
G04 #@! TO.N,/48v*
X116840000Y-90170000D02*
X116840000Y-84210000D01*
X116840000Y-84210000D02*
X111370000Y-78740000D01*
X155350000Y-77375000D02*
X155350000Y-75625000D01*
X142555000Y-90170000D02*
X155350000Y-77375000D01*
X116840000Y-90170000D02*
X142555000Y-90170000D01*
X155572000Y-77597000D02*
X155350000Y-77375000D01*
X170815000Y-77597000D02*
X155572000Y-77597000D01*
X111760000Y-119380000D02*
X114584002Y-119380000D01*
X114584002Y-119380000D02*
X120045002Y-113919000D01*
X120045002Y-113919000D02*
X155486000Y-113919000D01*
X155486000Y-113919000D02*
X157070000Y-112335000D01*
G04 #@! TO.N,/5v*
X168939999Y-138400001D02*
X182655999Y-138400001D01*
X167640000Y-139700000D02*
X168939999Y-138400001D01*
X182655999Y-138400001D02*
X184150000Y-136906000D01*
X184150000Y-136906000D02*
X184150000Y-134620000D01*
X108331000Y-98679000D02*
X111506000Y-95504000D01*
X108331000Y-122682000D02*
X108331000Y-98679000D01*
X167640000Y-139700000D02*
X158242000Y-130302000D01*
X115951000Y-130302000D02*
X108331000Y-122682000D01*
X158242000Y-130302000D02*
X115951000Y-130302000D01*
G04 #@! TO.N,/powerconverters/12v_OUT*
X155553000Y-78867000D02*
X204597000Y-78867000D01*
X152400000Y-83820000D02*
X152400000Y-82020000D01*
X152400000Y-82020000D02*
X155553000Y-78867000D01*
G04 #@! TO.N,/PHASEB_FB*
X113097919Y-95250000D02*
X108077000Y-90229081D01*
X114300000Y-95250000D02*
X113097919Y-95250000D01*
X108077000Y-90229081D02*
X108077000Y-76073000D01*
X108077000Y-76073000D02*
X110236000Y-73914000D01*
X110236000Y-73914000D02*
X119126000Y-73914000D01*
X119126000Y-73914000D02*
X125603000Y-67437000D01*
X125603000Y-67437000D02*
X125603000Y-64262000D01*
X125603000Y-64262000D02*
X130048000Y-59817000D01*
X130048000Y-59817000D02*
X141605000Y-59817000D01*
X141605000Y-59817000D02*
X143256000Y-61468000D01*
G04 #@! TO.N,/AUX_0*
X127381000Y-88900000D02*
X127381000Y-76327000D01*
X127381000Y-76327000D02*
X127762000Y-75946000D01*
G04 #@! TO.N,/AUX_1*
X124079000Y-79502000D02*
X124079000Y-78794894D01*
X124079000Y-78794894D02*
X124079000Y-76581000D01*
X124079000Y-76581000D02*
X128270000Y-72390000D01*
G04 #@! TO.N,/LS_C_TTL_PWM*
X116840000Y-100330000D02*
X132080000Y-100330000D01*
X132080000Y-100330000D02*
X134620000Y-97790000D01*
G04 #@! TO.N,/HALL_B*
X163195000Y-128778000D02*
X163694999Y-128278001D01*
X163694999Y-128278001D02*
X167132000Y-124841000D01*
X167132000Y-124841000D02*
X167132000Y-105029000D01*
G04 #@! TO.N,/HALL_A*
X164465000Y-129794000D02*
X168783000Y-125476000D01*
X168783000Y-125476000D02*
X168783000Y-96520000D01*
G04 #@! TO.N,/I2C_SCL*
X191800001Y-89565001D02*
X191516000Y-89281000D01*
X191800001Y-133110659D02*
X191800001Y-89565001D01*
X189230000Y-134620000D02*
X190290660Y-134620000D01*
X190290660Y-134620000D02*
X191800001Y-133110659D01*
G04 #@! TO.N,/I2C_SDA*
X190500000Y-132080000D02*
X190500000Y-91186000D01*
X190500000Y-91186000D02*
X189738000Y-90424000D01*
G04 #@! TD*
D23*
G04 #@! TO.N,/GND*
G36*
X206821647Y-57933407D02*
X207884301Y-58147676D01*
X208909269Y-58500601D01*
X209878569Y-58985990D01*
X210775151Y-59595307D01*
X211583270Y-60317850D01*
X212288731Y-61140925D01*
X212879135Y-62050068D01*
X213344116Y-63029316D01*
X213675501Y-64061456D01*
X213868128Y-65132032D01*
X213920001Y-66059852D01*
X213920000Y-137136447D01*
X213846592Y-138241648D01*
X213632324Y-139304302D01*
X213279399Y-140329268D01*
X212794010Y-141298569D01*
X212184700Y-142195143D01*
X211462154Y-143003266D01*
X210639078Y-143708729D01*
X209729931Y-144299135D01*
X208750684Y-144764116D01*
X207718542Y-145095501D01*
X206647968Y-145288128D01*
X205720167Y-145340000D01*
X114323553Y-145340000D01*
X113218352Y-145266592D01*
X112155698Y-145052324D01*
X111130732Y-144699399D01*
X110161431Y-144214010D01*
X109264857Y-143604700D01*
X108456734Y-142882154D01*
X107751271Y-142059078D01*
X107160865Y-141149931D01*
X106695884Y-140170684D01*
X106364499Y-139138542D01*
X106171872Y-138067968D01*
X106120000Y-137140167D01*
X106120000Y-136118694D01*
X109065000Y-136118694D01*
X109065000Y-138201306D01*
X109861981Y-140125389D01*
X111334611Y-141598019D01*
X113258694Y-142395000D01*
X115341306Y-142395000D01*
X117265389Y-141598019D01*
X118738019Y-140125389D01*
X119452698Y-138400000D01*
X145372560Y-138400000D01*
X145372560Y-141000000D01*
X145421843Y-141247765D01*
X145562191Y-141457809D01*
X145772235Y-141598157D01*
X146020000Y-141647440D01*
X148620000Y-141647440D01*
X148867765Y-141598157D01*
X149077809Y-141457809D01*
X149218157Y-141247765D01*
X149267440Y-141000000D01*
X149267440Y-139315105D01*
X150465000Y-139315105D01*
X150465000Y-140084895D01*
X150759586Y-140796090D01*
X151303910Y-141340414D01*
X152015105Y-141635000D01*
X152784895Y-141635000D01*
X153496090Y-141340414D01*
X154040414Y-140796090D01*
X154335000Y-140084895D01*
X154335000Y-139315105D01*
X155545000Y-139315105D01*
X155545000Y-140084895D01*
X155839586Y-140796090D01*
X156383910Y-141340414D01*
X157095105Y-141635000D01*
X157864895Y-141635000D01*
X158576090Y-141340414D01*
X158847045Y-141069459D01*
X161370146Y-141069459D01*
X161505504Y-141367455D01*
X162223880Y-141644066D01*
X162993427Y-141624710D01*
X163614496Y-141367455D01*
X163749854Y-141069459D01*
X162560000Y-139879605D01*
X161370146Y-141069459D01*
X158847045Y-141069459D01*
X159120414Y-140796090D01*
X159415000Y-140084895D01*
X159415000Y-139363880D01*
X160615934Y-139363880D01*
X160635290Y-140133427D01*
X160892545Y-140754496D01*
X161190541Y-140889854D01*
X162380395Y-139700000D01*
X162739605Y-139700000D01*
X163929459Y-140889854D01*
X164227455Y-140754496D01*
X164504066Y-140036120D01*
X164484710Y-139266573D01*
X164227455Y-138645504D01*
X163929459Y-138510146D01*
X162739605Y-139700000D01*
X162380395Y-139700000D01*
X161190541Y-138510146D01*
X160892545Y-138645504D01*
X160615934Y-139363880D01*
X159415000Y-139363880D01*
X159415000Y-139315105D01*
X159120414Y-138603910D01*
X158847045Y-138330541D01*
X161370146Y-138330541D01*
X162560000Y-139520395D01*
X163749854Y-138330541D01*
X163614496Y-138032545D01*
X162896120Y-137755934D01*
X162126573Y-137775290D01*
X161505504Y-138032545D01*
X161370146Y-138330541D01*
X158847045Y-138330541D01*
X158576090Y-138059586D01*
X157864895Y-137765000D01*
X157095105Y-137765000D01*
X156383910Y-138059586D01*
X155839586Y-138603910D01*
X155545000Y-139315105D01*
X154335000Y-139315105D01*
X154040414Y-138603910D01*
X153496090Y-138059586D01*
X152784895Y-137765000D01*
X152015105Y-137765000D01*
X151303910Y-138059586D01*
X150759586Y-138603910D01*
X150465000Y-139315105D01*
X149267440Y-139315105D01*
X149267440Y-138400000D01*
X149218157Y-138152235D01*
X149077809Y-137942191D01*
X148867765Y-137801843D01*
X148620000Y-137752560D01*
X146020000Y-137752560D01*
X145772235Y-137801843D01*
X145562191Y-137942191D01*
X145421843Y-138152235D01*
X145372560Y-138400000D01*
X119452698Y-138400000D01*
X119535000Y-138201306D01*
X119535000Y-136246892D01*
X123018514Y-136246892D01*
X123264817Y-136771358D01*
X123693076Y-137161645D01*
X124103110Y-137331476D01*
X124333000Y-137210155D01*
X124333000Y-136017000D01*
X123139181Y-136017000D01*
X123018514Y-136246892D01*
X119535000Y-136246892D01*
X119535000Y-136118694D01*
X119292443Y-135533108D01*
X123018514Y-135533108D01*
X123139181Y-135763000D01*
X124333000Y-135763000D01*
X124333000Y-134569845D01*
X124587000Y-134569845D01*
X124587000Y-135763000D01*
X124607000Y-135763000D01*
X124607000Y-136017000D01*
X124587000Y-136017000D01*
X124587000Y-137210155D01*
X124816890Y-137331476D01*
X125226924Y-137161645D01*
X125655183Y-136771358D01*
X125716157Y-136641522D01*
X125929375Y-136960625D01*
X126420582Y-137288839D01*
X126853744Y-137375000D01*
X127146256Y-137375000D01*
X127579418Y-137288839D01*
X128070625Y-136960625D01*
X128270000Y-136662239D01*
X128469375Y-136960625D01*
X128960582Y-137288839D01*
X129393744Y-137375000D01*
X129686256Y-137375000D01*
X130119418Y-137288839D01*
X130610625Y-136960625D01*
X130810000Y-136662239D01*
X131009375Y-136960625D01*
X131500582Y-137288839D01*
X131933744Y-137375000D01*
X132226256Y-137375000D01*
X132659418Y-137288839D01*
X133150625Y-136960625D01*
X133350000Y-136662239D01*
X133549375Y-136960625D01*
X134040582Y-137288839D01*
X134473744Y-137375000D01*
X134766256Y-137375000D01*
X135199418Y-137288839D01*
X135690625Y-136960625D01*
X135702816Y-136942381D01*
X135711843Y-136987765D01*
X135852191Y-137197809D01*
X136062235Y-137338157D01*
X136310000Y-137387440D01*
X138010000Y-137387440D01*
X138257765Y-137338157D01*
X138467809Y-137197809D01*
X138608157Y-136987765D01*
X138657440Y-136740000D01*
X138657440Y-135040000D01*
X138608157Y-134792235D01*
X138467809Y-134582191D01*
X138257765Y-134441843D01*
X138010000Y-134392560D01*
X136310000Y-134392560D01*
X136062235Y-134441843D01*
X135852191Y-134582191D01*
X135711843Y-134792235D01*
X135702816Y-134837619D01*
X135690625Y-134819375D01*
X135199418Y-134491161D01*
X134766256Y-134405000D01*
X134473744Y-134405000D01*
X134040582Y-134491161D01*
X133549375Y-134819375D01*
X133350000Y-135117761D01*
X133150625Y-134819375D01*
X132659418Y-134491161D01*
X132226256Y-134405000D01*
X131933744Y-134405000D01*
X131500582Y-134491161D01*
X131009375Y-134819375D01*
X130810000Y-135117761D01*
X130610625Y-134819375D01*
X130119418Y-134491161D01*
X129686256Y-134405000D01*
X129393744Y-134405000D01*
X128960582Y-134491161D01*
X128469375Y-134819375D01*
X128270000Y-135117761D01*
X128070625Y-134819375D01*
X127579418Y-134491161D01*
X127146256Y-134405000D01*
X126853744Y-134405000D01*
X126420582Y-134491161D01*
X125929375Y-134819375D01*
X125716157Y-135138478D01*
X125655183Y-135008642D01*
X125226924Y-134618355D01*
X124816890Y-134448524D01*
X124587000Y-134569845D01*
X124333000Y-134569845D01*
X124103110Y-134448524D01*
X123693076Y-134618355D01*
X123264817Y-135008642D01*
X123018514Y-135533108D01*
X119292443Y-135533108D01*
X118738019Y-134194611D01*
X117265389Y-132721981D01*
X115341306Y-131925000D01*
X113258694Y-131925000D01*
X111334611Y-132721981D01*
X109861981Y-134194611D01*
X109065000Y-136118694D01*
X106120000Y-136118694D01*
X106120000Y-76073000D01*
X107072704Y-76073000D01*
X107092001Y-76170013D01*
X107092000Y-90132073D01*
X107072704Y-90229081D01*
X107092000Y-90326089D01*
X107092000Y-90326092D01*
X107149151Y-90613408D01*
X107366855Y-90939226D01*
X107449098Y-90994179D01*
X110957570Y-94502652D01*
X110863074Y-94541793D01*
X110543793Y-94861074D01*
X110393793Y-95223207D01*
X107703096Y-97913904D01*
X107620856Y-97968855D01*
X107565905Y-98051095D01*
X107565902Y-98051098D01*
X107403151Y-98294673D01*
X107326704Y-98679000D01*
X107346001Y-98776013D01*
X107346000Y-122584992D01*
X107326704Y-122682000D01*
X107346000Y-122779008D01*
X107346000Y-122779011D01*
X107403151Y-123066327D01*
X107620855Y-123392145D01*
X107703098Y-123447098D01*
X115185902Y-130929902D01*
X115240855Y-131012145D01*
X115566672Y-131229849D01*
X115853988Y-131287000D01*
X115853991Y-131287000D01*
X115950999Y-131306296D01*
X116048007Y-131287000D01*
X157834000Y-131287000D01*
X165751015Y-139204015D01*
X165705000Y-139315105D01*
X165705000Y-140084895D01*
X165999586Y-140796090D01*
X166543910Y-141340414D01*
X167255105Y-141635000D01*
X168024895Y-141635000D01*
X168736090Y-141340414D01*
X169280414Y-140796090D01*
X169575000Y-140084895D01*
X169575000Y-139385001D01*
X178764232Y-139385001D01*
X178445259Y-139703974D01*
X178105000Y-140525431D01*
X178105000Y-141414569D01*
X178445259Y-142236026D01*
X179073974Y-142864741D01*
X179895431Y-143205000D01*
X180784569Y-143205000D01*
X181606026Y-142864741D01*
X182234741Y-142236026D01*
X182575000Y-141414569D01*
X182575000Y-140525431D01*
X189535000Y-140525431D01*
X189535000Y-141414569D01*
X189875259Y-142236026D01*
X190503974Y-142864741D01*
X191325431Y-143205000D01*
X192214569Y-143205000D01*
X193036026Y-142864741D01*
X193664741Y-142236026D01*
X194005000Y-141414569D01*
X194005000Y-140525431D01*
X193664741Y-139703974D01*
X193036026Y-139075259D01*
X192214569Y-138735000D01*
X191325431Y-138735000D01*
X190503974Y-139075259D01*
X189875259Y-139703974D01*
X189535000Y-140525431D01*
X182575000Y-140525431D01*
X182234741Y-139703974D01*
X181915768Y-139385001D01*
X182558991Y-139385001D01*
X182655999Y-139404297D01*
X182753007Y-139385001D01*
X182753011Y-139385001D01*
X183040327Y-139327850D01*
X183366144Y-139110146D01*
X183421097Y-139027903D01*
X184777902Y-137671098D01*
X184860145Y-137616145D01*
X185077849Y-137290328D01*
X185135000Y-137003012D01*
X185135000Y-137003008D01*
X185154296Y-136906001D01*
X185135000Y-136808994D01*
X185135000Y-136118694D01*
X200505000Y-136118694D01*
X200505000Y-138201306D01*
X201301981Y-140125389D01*
X202774611Y-141598019D01*
X204698694Y-142395000D01*
X206781306Y-142395000D01*
X208705389Y-141598019D01*
X210178019Y-140125389D01*
X210975000Y-138201306D01*
X210975000Y-136118694D01*
X210178019Y-134194611D01*
X208705389Y-132721981D01*
X206781306Y-131925000D01*
X204698694Y-131925000D01*
X202774611Y-132721981D01*
X201301981Y-134194611D01*
X200505000Y-136118694D01*
X185135000Y-136118694D01*
X185135000Y-135593687D01*
X185324147Y-135404540D01*
X185420000Y-135173130D01*
X185515853Y-135404540D01*
X185905460Y-135794147D01*
X186414506Y-136005000D01*
X186965494Y-136005000D01*
X187474540Y-135794147D01*
X187864147Y-135404540D01*
X187960000Y-135173130D01*
X188055853Y-135404540D01*
X188445460Y-135794147D01*
X188954506Y-136005000D01*
X189505494Y-136005000D01*
X190014540Y-135794147D01*
X190202022Y-135606665D01*
X190290660Y-135624296D01*
X190387668Y-135605000D01*
X190387672Y-135605000D01*
X190674988Y-135547849D01*
X191000805Y-135330145D01*
X191055758Y-135247902D01*
X192427903Y-133875757D01*
X192510146Y-133820804D01*
X192727850Y-133494987D01*
X192785001Y-133207671D01*
X192785001Y-133207670D01*
X192804298Y-133110659D01*
X192785001Y-133013647D01*
X192785001Y-89662008D01*
X192804297Y-89565000D01*
X192785001Y-89467992D01*
X192785001Y-89467989D01*
X192727850Y-89180673D01*
X192651000Y-89065659D01*
X192651000Y-89055234D01*
X192478207Y-88638074D01*
X192158926Y-88318793D01*
X191741766Y-88146000D01*
X191290234Y-88146000D01*
X190873074Y-88318793D01*
X190553793Y-88638074D01*
X190381000Y-89055234D01*
X190381000Y-89461867D01*
X190380926Y-89461793D01*
X189963766Y-89289000D01*
X189512234Y-89289000D01*
X189095074Y-89461793D01*
X188775793Y-89781074D01*
X188603000Y-90198234D01*
X188603000Y-90649766D01*
X188775793Y-91066926D01*
X189095074Y-91386207D01*
X189457206Y-91536207D01*
X189515001Y-91594002D01*
X189515000Y-131106313D01*
X189325853Y-131295460D01*
X189236603Y-131510930D01*
X189172460Y-131356077D01*
X188931517Y-131288088D01*
X188139605Y-132080000D01*
X188931517Y-132871912D01*
X189172460Y-132803923D01*
X189231745Y-132637342D01*
X189325853Y-132864540D01*
X189715460Y-133254147D01*
X190102992Y-133414668D01*
X190043174Y-133474487D01*
X190014540Y-133445853D01*
X189505494Y-133235000D01*
X188954506Y-133235000D01*
X188445460Y-133445853D01*
X188055853Y-133835460D01*
X187960000Y-134066870D01*
X187864147Y-133835460D01*
X187474540Y-133445853D01*
X186965494Y-133235000D01*
X186414506Y-133235000D01*
X185905460Y-133445853D01*
X185515853Y-133835460D01*
X185420000Y-134066870D01*
X185324147Y-133835460D01*
X184934540Y-133445853D01*
X184425494Y-133235000D01*
X183874506Y-133235000D01*
X183365460Y-133445853D01*
X182996469Y-133814844D01*
X182958157Y-133622235D01*
X182853095Y-133465000D01*
X183155494Y-133465000D01*
X183664540Y-133254147D01*
X184054147Y-132864540D01*
X184150000Y-132633130D01*
X184245853Y-132864540D01*
X184635460Y-133254147D01*
X185144506Y-133465000D01*
X185695494Y-133465000D01*
X186204540Y-133254147D01*
X186407170Y-133051517D01*
X187168088Y-133051517D01*
X187236077Y-133292460D01*
X187755171Y-133477201D01*
X188305448Y-133449230D01*
X188683923Y-133292460D01*
X188751912Y-133051517D01*
X187960000Y-132259605D01*
X187168088Y-133051517D01*
X186407170Y-133051517D01*
X186594147Y-132864540D01*
X186683397Y-132649070D01*
X186747540Y-132803923D01*
X186988483Y-132871912D01*
X187780395Y-132080000D01*
X186988483Y-131288088D01*
X186747540Y-131356077D01*
X186688255Y-131522658D01*
X186594147Y-131295460D01*
X186407170Y-131108483D01*
X187168088Y-131108483D01*
X187960000Y-131900395D01*
X188751912Y-131108483D01*
X188683923Y-130867540D01*
X188164829Y-130682799D01*
X187614552Y-130710770D01*
X187236077Y-130867540D01*
X187168088Y-131108483D01*
X186407170Y-131108483D01*
X186204540Y-130905853D01*
X185695494Y-130695000D01*
X185144506Y-130695000D01*
X184635460Y-130905853D01*
X184245853Y-131295460D01*
X184150000Y-131526870D01*
X184054147Y-131295460D01*
X183664540Y-130905853D01*
X183155494Y-130695000D01*
X182604506Y-130695000D01*
X182095460Y-130905853D01*
X181705853Y-131295460D01*
X181495000Y-131804506D01*
X181495000Y-132355494D01*
X181705853Y-132864540D01*
X182063873Y-133222560D01*
X180860000Y-133222560D01*
X180612235Y-133271843D01*
X180402191Y-133412191D01*
X180261843Y-133622235D01*
X180212560Y-133870000D01*
X180212560Y-135370000D01*
X180261843Y-135617765D01*
X180402191Y-135827809D01*
X180612235Y-135968157D01*
X180860000Y-136017440D01*
X182360000Y-136017440D01*
X182607765Y-135968157D01*
X182817809Y-135827809D01*
X182958157Y-135617765D01*
X182996469Y-135425156D01*
X183165001Y-135593688D01*
X183165000Y-136498000D01*
X182247999Y-137415001D01*
X169037006Y-137415001D01*
X168939998Y-137395705D01*
X168842990Y-137415001D01*
X168842987Y-137415001D01*
X168555671Y-137472152D01*
X168229854Y-137689856D01*
X168174901Y-137772099D01*
X168135985Y-137811015D01*
X168024895Y-137765000D01*
X167255105Y-137765000D01*
X167144015Y-137811015D01*
X159007097Y-129674097D01*
X158952145Y-129591855D01*
X158626328Y-129374151D01*
X158339012Y-129317000D01*
X158339008Y-129317000D01*
X158242000Y-129297704D01*
X158144992Y-129317000D01*
X116359000Y-129317000D01*
X115594234Y-128552234D01*
X162060000Y-128552234D01*
X162060000Y-129003766D01*
X162232793Y-129420926D01*
X162552074Y-129740207D01*
X162969234Y-129913000D01*
X163330000Y-129913000D01*
X163330000Y-130019766D01*
X163502793Y-130436926D01*
X163822074Y-130756207D01*
X164239234Y-130929000D01*
X164690766Y-130929000D01*
X165107926Y-130756207D01*
X165427207Y-130436926D01*
X165577207Y-130074793D01*
X169410902Y-126241098D01*
X169493145Y-126186145D01*
X169710849Y-125860328D01*
X169768000Y-125573012D01*
X169768000Y-125573009D01*
X169787296Y-125476001D01*
X169768000Y-125378993D01*
X169768000Y-97107899D01*
X169918000Y-96745766D01*
X169918000Y-96294234D01*
X169745207Y-95877074D01*
X169425926Y-95557793D01*
X169008766Y-95385000D01*
X168557234Y-95385000D01*
X168140074Y-95557793D01*
X167820793Y-95877074D01*
X167648000Y-96294234D01*
X167648000Y-96745766D01*
X167798001Y-97107901D01*
X167798001Y-104089868D01*
X167774926Y-104066793D01*
X167357766Y-103894000D01*
X166906234Y-103894000D01*
X166489074Y-104066793D01*
X166169793Y-104386074D01*
X165997000Y-104803234D01*
X165997000Y-105254766D01*
X166147001Y-105616901D01*
X166147000Y-124433000D01*
X162914208Y-127665792D01*
X162552074Y-127815793D01*
X162232793Y-128135074D01*
X162060000Y-128552234D01*
X115594234Y-128552234D01*
X109316000Y-122274000D01*
X109316000Y-118180000D01*
X109912560Y-118180000D01*
X109912560Y-120580000D01*
X109961843Y-120827765D01*
X110102191Y-121037809D01*
X110312235Y-121178157D01*
X110560000Y-121227440D01*
X112960000Y-121227440D01*
X113207765Y-121178157D01*
X113417809Y-121037809D01*
X113558157Y-120827765D01*
X113588110Y-120677175D01*
X118142430Y-120677175D01*
X118265565Y-120964788D01*
X118947734Y-121224707D01*
X119677443Y-121203786D01*
X120254435Y-120964788D01*
X120377570Y-120677175D01*
X119260000Y-119559605D01*
X118142430Y-120677175D01*
X113588110Y-120677175D01*
X113607440Y-120580000D01*
X113607440Y-120365000D01*
X114486994Y-120365000D01*
X114584002Y-120384296D01*
X114681010Y-120365000D01*
X114681014Y-120365000D01*
X114968330Y-120307849D01*
X115294147Y-120090145D01*
X115349100Y-120007902D01*
X116289268Y-119067734D01*
X117415293Y-119067734D01*
X117436214Y-119797443D01*
X117675212Y-120374435D01*
X117962825Y-120497570D01*
X119080395Y-119380000D01*
X119439605Y-119380000D01*
X120557175Y-120497570D01*
X120844788Y-120374435D01*
X121104707Y-119692266D01*
X121083786Y-118962557D01*
X120844788Y-118385565D01*
X120557175Y-118262430D01*
X119439605Y-119380000D01*
X119080395Y-119380000D01*
X117962825Y-118262430D01*
X117675212Y-118385565D01*
X117415293Y-119067734D01*
X116289268Y-119067734D01*
X117274177Y-118082825D01*
X118142430Y-118082825D01*
X119260000Y-119200395D01*
X120377570Y-118082825D01*
X120254435Y-117795212D01*
X119572266Y-117535293D01*
X118842557Y-117556214D01*
X118265565Y-117795212D01*
X118142430Y-118082825D01*
X117274177Y-118082825D01*
X120453002Y-114904000D01*
X155388992Y-114904000D01*
X155486000Y-114923296D01*
X155583008Y-114904000D01*
X155583012Y-114904000D01*
X155870328Y-114846849D01*
X156196145Y-114629145D01*
X156251098Y-114546902D01*
X157350793Y-113447207D01*
X157712926Y-113297207D01*
X158032207Y-112977926D01*
X158205000Y-112560766D01*
X158205000Y-112109234D01*
X158032207Y-111692074D01*
X157712926Y-111372793D01*
X157295766Y-111200000D01*
X156844234Y-111200000D01*
X156427074Y-111372793D01*
X156107793Y-111692074D01*
X155957793Y-112054207D01*
X155078000Y-112934000D01*
X120142009Y-112934000D01*
X120045001Y-112914704D01*
X119947993Y-112934000D01*
X119947990Y-112934000D01*
X119660674Y-112991151D01*
X119334857Y-113208855D01*
X119279904Y-113291098D01*
X114176002Y-118395000D01*
X113607440Y-118395000D01*
X113607440Y-118180000D01*
X113558157Y-117932235D01*
X113417809Y-117722191D01*
X113207765Y-117581843D01*
X112960000Y-117532560D01*
X110560000Y-117532560D01*
X110312235Y-117581843D01*
X110102191Y-117722191D01*
X109961843Y-117932235D01*
X109912560Y-118180000D01*
X109316000Y-118180000D01*
X109316000Y-99087000D01*
X111786793Y-96616207D01*
X112148926Y-96466207D01*
X112468207Y-96146926D01*
X112511367Y-96042728D01*
X112667311Y-96146926D01*
X112713591Y-96177849D01*
X113000907Y-96235000D01*
X113000911Y-96235000D01*
X113097919Y-96254296D01*
X113174833Y-96238997D01*
X113229375Y-96320625D01*
X113527761Y-96520000D01*
X113229375Y-96719375D01*
X112901161Y-97210582D01*
X112785908Y-97790000D01*
X112901161Y-98369418D01*
X113229375Y-98860625D01*
X113527761Y-99060000D01*
X113229375Y-99259375D01*
X112901161Y-99750582D01*
X112785908Y-100330000D01*
X112901161Y-100909418D01*
X113229375Y-101400625D01*
X113527761Y-101600000D01*
X113229375Y-101799375D01*
X112901161Y-102290582D01*
X112785908Y-102870000D01*
X112901161Y-103449418D01*
X113229375Y-103940625D01*
X113527761Y-104140000D01*
X113229375Y-104339375D01*
X112901161Y-104830582D01*
X112785908Y-105410000D01*
X112901161Y-105989418D01*
X113229375Y-106480625D01*
X113720582Y-106808839D01*
X114153744Y-106895000D01*
X114446256Y-106895000D01*
X114879418Y-106808839D01*
X115370625Y-106480625D01*
X115570000Y-106182239D01*
X115769375Y-106480625D01*
X116260582Y-106808839D01*
X116693744Y-106895000D01*
X116986256Y-106895000D01*
X117419418Y-106808839D01*
X117910625Y-106480625D01*
X118238839Y-105989418D01*
X118354092Y-105410000D01*
X118238839Y-104830582D01*
X117910625Y-104339375D01*
X117612239Y-104140000D01*
X117910625Y-103940625D01*
X118238839Y-103449418D01*
X118275298Y-103266122D01*
X145630825Y-103266122D01*
X145845466Y-103784332D01*
X146307608Y-104279012D01*
X146923877Y-104559183D01*
X147193000Y-104441604D01*
X147193000Y-102997000D01*
X147447000Y-102997000D01*
X147447000Y-104441604D01*
X147716123Y-104559183D01*
X148332392Y-104279012D01*
X148794534Y-103784332D01*
X149009175Y-103266122D01*
X148891125Y-102997000D01*
X147447000Y-102997000D01*
X147193000Y-102997000D01*
X145748875Y-102997000D01*
X145630825Y-103266122D01*
X118275298Y-103266122D01*
X118354092Y-102870000D01*
X118275299Y-102473878D01*
X145630825Y-102473878D01*
X145748875Y-102743000D01*
X147193000Y-102743000D01*
X147193000Y-101298396D01*
X147447000Y-101298396D01*
X147447000Y-102743000D01*
X148891125Y-102743000D01*
X149009175Y-102473878D01*
X148794534Y-101955668D01*
X148621079Y-101770000D01*
X158272560Y-101770000D01*
X158272560Y-103970000D01*
X158321843Y-104217765D01*
X158462191Y-104427809D01*
X158672235Y-104568157D01*
X158920000Y-104617440D01*
X161120000Y-104617440D01*
X161367765Y-104568157D01*
X161577809Y-104427809D01*
X161718157Y-104217765D01*
X161767440Y-103970000D01*
X161767440Y-101770000D01*
X161718157Y-101522235D01*
X161577809Y-101312191D01*
X161367765Y-101171843D01*
X161120000Y-101122560D01*
X158920000Y-101122560D01*
X158672235Y-101171843D01*
X158462191Y-101312191D01*
X158321843Y-101522235D01*
X158272560Y-101770000D01*
X148621079Y-101770000D01*
X148332392Y-101460988D01*
X147716123Y-101180817D01*
X147447000Y-101298396D01*
X147193000Y-101298396D01*
X146923877Y-101180817D01*
X146307608Y-101460988D01*
X145845466Y-101955668D01*
X145630825Y-102473878D01*
X118275299Y-102473878D01*
X118238839Y-102290582D01*
X117910625Y-101799375D01*
X117612239Y-101600000D01*
X117910625Y-101400625D01*
X117967838Y-101315000D01*
X131982992Y-101315000D01*
X132080000Y-101334296D01*
X132177008Y-101315000D01*
X132177012Y-101315000D01*
X132464328Y-101257849D01*
X132790145Y-101040145D01*
X132845098Y-100957902D01*
X134900793Y-98902207D01*
X135262926Y-98752207D01*
X135582207Y-98432926D01*
X135755000Y-98015766D01*
X135755000Y-97564234D01*
X135582207Y-97147074D01*
X135262926Y-96827793D01*
X134845766Y-96655000D01*
X134394234Y-96655000D01*
X133977074Y-96827793D01*
X133657793Y-97147074D01*
X133507793Y-97509207D01*
X131672000Y-99345000D01*
X117967838Y-99345000D01*
X117910625Y-99259375D01*
X117612239Y-99060000D01*
X117910625Y-98860625D01*
X118238839Y-98369418D01*
X118354092Y-97790000D01*
X118238839Y-97210582D01*
X117910625Y-96719375D01*
X117612239Y-96520000D01*
X117910625Y-96320625D01*
X118238839Y-95829418D01*
X118354092Y-95250000D01*
X118238839Y-94670582D01*
X117910625Y-94179375D01*
X117612239Y-93980000D01*
X117910625Y-93780625D01*
X118238839Y-93289418D01*
X118354092Y-92710000D01*
X118238839Y-92130582D01*
X117910625Y-91639375D01*
X117892381Y-91627184D01*
X117937765Y-91618157D01*
X118147809Y-91477809D01*
X118288157Y-91267765D01*
X118310587Y-91155000D01*
X142457992Y-91155000D01*
X142555000Y-91174296D01*
X142652008Y-91155000D01*
X142652012Y-91155000D01*
X142939328Y-91097849D01*
X143265145Y-90880145D01*
X143320098Y-90797902D01*
X150652560Y-83465441D01*
X150652560Y-84920000D01*
X150701843Y-85167765D01*
X150842191Y-85377809D01*
X151052235Y-85518157D01*
X151300000Y-85567440D01*
X153500000Y-85567440D01*
X153747765Y-85518157D01*
X153957809Y-85377809D01*
X154098157Y-85167765D01*
X154147440Y-84920000D01*
X154147440Y-84216122D01*
X163410825Y-84216122D01*
X163625466Y-84734332D01*
X164087608Y-85229012D01*
X164703877Y-85509183D01*
X164973000Y-85391604D01*
X164973000Y-83947000D01*
X165227000Y-83947000D01*
X165227000Y-85391604D01*
X165496123Y-85509183D01*
X166112392Y-85229012D01*
X166574534Y-84734332D01*
X166789175Y-84216122D01*
X166671125Y-83947000D01*
X165227000Y-83947000D01*
X164973000Y-83947000D01*
X163528875Y-83947000D01*
X163410825Y-84216122D01*
X154147440Y-84216122D01*
X154147440Y-83423878D01*
X163410825Y-83423878D01*
X163528875Y-83693000D01*
X164973000Y-83693000D01*
X164973000Y-82248396D01*
X165227000Y-82248396D01*
X165227000Y-83693000D01*
X166671125Y-83693000D01*
X166789175Y-83423878D01*
X166574534Y-82905668D01*
X166112392Y-82410988D01*
X165496123Y-82130817D01*
X165227000Y-82248396D01*
X164973000Y-82248396D01*
X164703877Y-82130817D01*
X164087608Y-82410988D01*
X163625466Y-82905668D01*
X163410825Y-83423878D01*
X154147440Y-83423878D01*
X154147440Y-82720000D01*
X154098157Y-82472235D01*
X153957809Y-82262191D01*
X153747765Y-82121843D01*
X153700549Y-82112451D01*
X155961000Y-79852000D01*
X204009101Y-79852000D01*
X204371234Y-80002000D01*
X204822766Y-80002000D01*
X205239926Y-79829207D01*
X205559207Y-79509926D01*
X205732000Y-79092766D01*
X205732000Y-78641234D01*
X205559207Y-78224074D01*
X205239926Y-77904793D01*
X204822766Y-77732000D01*
X204371234Y-77732000D01*
X204009101Y-77882000D01*
X171925465Y-77882000D01*
X171950000Y-77822766D01*
X171950000Y-77371234D01*
X171777207Y-76954074D01*
X171457926Y-76634793D01*
X171040766Y-76462000D01*
X170589234Y-76462000D01*
X170227101Y-76612000D01*
X156335000Y-76612000D01*
X156335000Y-76212899D01*
X156485000Y-75850766D01*
X156485000Y-75399234D01*
X156312207Y-74982074D01*
X155992926Y-74662793D01*
X155575766Y-74490000D01*
X155124234Y-74490000D01*
X154707074Y-74662793D01*
X154387793Y-74982074D01*
X154215000Y-75399234D01*
X154215000Y-75850766D01*
X154365001Y-76212900D01*
X154365000Y-76966999D01*
X142147000Y-89185000D01*
X128491465Y-89185000D01*
X128516000Y-89125766D01*
X128516000Y-88674234D01*
X128366000Y-88312101D01*
X128366000Y-76924331D01*
X128404926Y-76908207D01*
X128724207Y-76588926D01*
X128897000Y-76171766D01*
X128897000Y-75720234D01*
X128724207Y-75303074D01*
X128404926Y-74983793D01*
X127987766Y-74811000D01*
X127536234Y-74811000D01*
X127119074Y-74983793D01*
X126799793Y-75303074D01*
X126668133Y-75620931D01*
X126615905Y-75699095D01*
X126615902Y-75699098D01*
X126453151Y-75942673D01*
X126376704Y-76327000D01*
X126396001Y-76424013D01*
X126396000Y-88312101D01*
X126246000Y-88674234D01*
X126246000Y-89125766D01*
X126270535Y-89185000D01*
X118310587Y-89185000D01*
X118288157Y-89072235D01*
X118147809Y-88862191D01*
X117937765Y-88721843D01*
X117825000Y-88699413D01*
X117825000Y-84307007D01*
X117844296Y-84209999D01*
X117825000Y-84112991D01*
X117825000Y-84112988D01*
X117767849Y-83825672D01*
X117550145Y-83499855D01*
X117467902Y-83444902D01*
X113299234Y-79276234D01*
X122944000Y-79276234D01*
X122944000Y-79727766D01*
X123116793Y-80144926D01*
X123436074Y-80464207D01*
X123853234Y-80637000D01*
X124304766Y-80637000D01*
X124721926Y-80464207D01*
X125041207Y-80144926D01*
X125214000Y-79727766D01*
X125214000Y-79276234D01*
X125064000Y-78914101D01*
X125064000Y-76989000D01*
X128550793Y-73502207D01*
X128912926Y-73352207D01*
X129232207Y-73032926D01*
X129405000Y-72615766D01*
X129405000Y-72164234D01*
X129232207Y-71747074D01*
X128912926Y-71427793D01*
X128495766Y-71255000D01*
X128044234Y-71255000D01*
X127627074Y-71427793D01*
X127307793Y-71747074D01*
X127157793Y-72109207D01*
X123451096Y-75815904D01*
X123368856Y-75870855D01*
X123313905Y-75953095D01*
X123313902Y-75953098D01*
X123151151Y-76196673D01*
X123074704Y-76581000D01*
X123094001Y-76678013D01*
X123094000Y-78697882D01*
X123094000Y-78914101D01*
X122944000Y-79276234D01*
X113299234Y-79276234D01*
X112482207Y-78459207D01*
X112332207Y-78097074D01*
X112012926Y-77777793D01*
X111595766Y-77605000D01*
X111144234Y-77605000D01*
X110727074Y-77777793D01*
X110407793Y-78097074D01*
X110235000Y-78514234D01*
X110235000Y-78965766D01*
X110407793Y-79382926D01*
X110727074Y-79702207D01*
X111089207Y-79852207D01*
X115855001Y-84618001D01*
X115855000Y-88699413D01*
X115742235Y-88721843D01*
X115532191Y-88862191D01*
X115391843Y-89072235D01*
X115382816Y-89117619D01*
X115370625Y-89099375D01*
X114879418Y-88771161D01*
X114446256Y-88685000D01*
X114153744Y-88685000D01*
X113720582Y-88771161D01*
X113229375Y-89099375D01*
X112901161Y-89590582D01*
X112785908Y-90170000D01*
X112901161Y-90749418D01*
X113229375Y-91240625D01*
X113548478Y-91453843D01*
X113418642Y-91514817D01*
X113028355Y-91943076D01*
X112858524Y-92353110D01*
X112979845Y-92583000D01*
X114173000Y-92583000D01*
X114173000Y-92563000D01*
X114427000Y-92563000D01*
X114427000Y-92583000D01*
X114447000Y-92583000D01*
X114447000Y-92837000D01*
X114427000Y-92837000D01*
X114427000Y-92857000D01*
X114173000Y-92857000D01*
X114173000Y-92837000D01*
X112979845Y-92837000D01*
X112858524Y-93066890D01*
X113028355Y-93476924D01*
X113418642Y-93905183D01*
X113548478Y-93966157D01*
X113343823Y-94102903D01*
X109062000Y-89821081D01*
X109062000Y-76481000D01*
X110644000Y-74899000D01*
X119028992Y-74899000D01*
X119126000Y-74918296D01*
X119223008Y-74899000D01*
X119223012Y-74899000D01*
X119510328Y-74841849D01*
X119836145Y-74624145D01*
X119891098Y-74541902D01*
X126230902Y-68202098D01*
X126313145Y-68147145D01*
X126530849Y-67821328D01*
X126588000Y-67534012D01*
X126588000Y-67534009D01*
X126607296Y-67437001D01*
X126588000Y-67339993D01*
X126588000Y-64998694D01*
X200505000Y-64998694D01*
X200505000Y-67081306D01*
X201301981Y-69005389D01*
X202774611Y-70478019D01*
X204698694Y-71275000D01*
X206781306Y-71275000D01*
X208705389Y-70478019D01*
X210178019Y-69005389D01*
X210975000Y-67081306D01*
X210975000Y-64998694D01*
X210178019Y-63074611D01*
X208705389Y-61601981D01*
X206781306Y-60805000D01*
X204698694Y-60805000D01*
X202774611Y-61601981D01*
X201301981Y-63074611D01*
X200505000Y-64998694D01*
X126588000Y-64998694D01*
X126588000Y-64670000D01*
X130456000Y-60802000D01*
X141197000Y-60802000D01*
X142143793Y-61748794D01*
X142293793Y-62110926D01*
X142613074Y-62430207D01*
X143030234Y-62603000D01*
X143481766Y-62603000D01*
X143898926Y-62430207D01*
X144218207Y-62110926D01*
X144391000Y-61693766D01*
X144391000Y-61242234D01*
X144218207Y-60825074D01*
X143898926Y-60505793D01*
X143536794Y-60355793D01*
X142370098Y-59189098D01*
X142315145Y-59106855D01*
X141989328Y-58889151D01*
X141702012Y-58832000D01*
X141702008Y-58832000D01*
X141605000Y-58812704D01*
X141507992Y-58832000D01*
X130145007Y-58832000D01*
X130047999Y-58812704D01*
X129950991Y-58832000D01*
X129950988Y-58832000D01*
X129663672Y-58889151D01*
X129337855Y-59106855D01*
X129282902Y-59189098D01*
X124975096Y-63496904D01*
X124892856Y-63551855D01*
X124837905Y-63634095D01*
X124837902Y-63634098D01*
X124675151Y-63877673D01*
X124598704Y-64262000D01*
X124618001Y-64359013D01*
X124618000Y-67029000D01*
X118718000Y-72929000D01*
X110333007Y-72929000D01*
X110235999Y-72909704D01*
X110138991Y-72929000D01*
X110138988Y-72929000D01*
X109851672Y-72986151D01*
X109525855Y-73203855D01*
X109470902Y-73286098D01*
X107449096Y-75307904D01*
X107366856Y-75362855D01*
X107311905Y-75445095D01*
X107311902Y-75445098D01*
X107149151Y-75688673D01*
X107072704Y-76073000D01*
X106120000Y-76073000D01*
X106120000Y-66063553D01*
X106190727Y-64998694D01*
X109065000Y-64998694D01*
X109065000Y-67081306D01*
X109861981Y-69005389D01*
X111334611Y-70478019D01*
X113258694Y-71275000D01*
X115341306Y-71275000D01*
X117265389Y-70478019D01*
X118738019Y-69005389D01*
X119535000Y-67081306D01*
X119535000Y-64998694D01*
X118738019Y-63074611D01*
X117265389Y-61601981D01*
X115341306Y-60805000D01*
X113258694Y-60805000D01*
X111334611Y-61601981D01*
X109861981Y-63074611D01*
X109065000Y-64998694D01*
X106190727Y-64998694D01*
X106193407Y-64958353D01*
X106407676Y-63895699D01*
X106760601Y-62870731D01*
X107245990Y-61901431D01*
X107855307Y-61004849D01*
X108577850Y-60196730D01*
X109400925Y-59491269D01*
X110310068Y-58900865D01*
X111289316Y-58435884D01*
X112321456Y-58104499D01*
X113392032Y-57911872D01*
X114319834Y-57860000D01*
X205716447Y-57860000D01*
X206821647Y-57933407D01*
X206821647Y-57933407D01*
G37*
X206821647Y-57933407D02*
X207884301Y-58147676D01*
X208909269Y-58500601D01*
X209878569Y-58985990D01*
X210775151Y-59595307D01*
X211583270Y-60317850D01*
X212288731Y-61140925D01*
X212879135Y-62050068D01*
X213344116Y-63029316D01*
X213675501Y-64061456D01*
X213868128Y-65132032D01*
X213920001Y-66059852D01*
X213920000Y-137136447D01*
X213846592Y-138241648D01*
X213632324Y-139304302D01*
X213279399Y-140329268D01*
X212794010Y-141298569D01*
X212184700Y-142195143D01*
X211462154Y-143003266D01*
X210639078Y-143708729D01*
X209729931Y-144299135D01*
X208750684Y-144764116D01*
X207718542Y-145095501D01*
X206647968Y-145288128D01*
X205720167Y-145340000D01*
X114323553Y-145340000D01*
X113218352Y-145266592D01*
X112155698Y-145052324D01*
X111130732Y-144699399D01*
X110161431Y-144214010D01*
X109264857Y-143604700D01*
X108456734Y-142882154D01*
X107751271Y-142059078D01*
X107160865Y-141149931D01*
X106695884Y-140170684D01*
X106364499Y-139138542D01*
X106171872Y-138067968D01*
X106120000Y-137140167D01*
X106120000Y-136118694D01*
X109065000Y-136118694D01*
X109065000Y-138201306D01*
X109861981Y-140125389D01*
X111334611Y-141598019D01*
X113258694Y-142395000D01*
X115341306Y-142395000D01*
X117265389Y-141598019D01*
X118738019Y-140125389D01*
X119452698Y-138400000D01*
X145372560Y-138400000D01*
X145372560Y-141000000D01*
X145421843Y-141247765D01*
X145562191Y-141457809D01*
X145772235Y-141598157D01*
X146020000Y-141647440D01*
X148620000Y-141647440D01*
X148867765Y-141598157D01*
X149077809Y-141457809D01*
X149218157Y-141247765D01*
X149267440Y-141000000D01*
X149267440Y-139315105D01*
X150465000Y-139315105D01*
X150465000Y-140084895D01*
X150759586Y-140796090D01*
X151303910Y-141340414D01*
X152015105Y-141635000D01*
X152784895Y-141635000D01*
X153496090Y-141340414D01*
X154040414Y-140796090D01*
X154335000Y-140084895D01*
X154335000Y-139315105D01*
X155545000Y-139315105D01*
X155545000Y-140084895D01*
X155839586Y-140796090D01*
X156383910Y-141340414D01*
X157095105Y-141635000D01*
X157864895Y-141635000D01*
X158576090Y-141340414D01*
X158847045Y-141069459D01*
X161370146Y-141069459D01*
X161505504Y-141367455D01*
X162223880Y-141644066D01*
X162993427Y-141624710D01*
X163614496Y-141367455D01*
X163749854Y-141069459D01*
X162560000Y-139879605D01*
X161370146Y-141069459D01*
X158847045Y-141069459D01*
X159120414Y-140796090D01*
X159415000Y-140084895D01*
X159415000Y-139363880D01*
X160615934Y-139363880D01*
X160635290Y-140133427D01*
X160892545Y-140754496D01*
X161190541Y-140889854D01*
X162380395Y-139700000D01*
X162739605Y-139700000D01*
X163929459Y-140889854D01*
X164227455Y-140754496D01*
X164504066Y-140036120D01*
X164484710Y-139266573D01*
X164227455Y-138645504D01*
X163929459Y-138510146D01*
X162739605Y-139700000D01*
X162380395Y-139700000D01*
X161190541Y-138510146D01*
X160892545Y-138645504D01*
X160615934Y-139363880D01*
X159415000Y-139363880D01*
X159415000Y-139315105D01*
X159120414Y-138603910D01*
X158847045Y-138330541D01*
X161370146Y-138330541D01*
X162560000Y-139520395D01*
X163749854Y-138330541D01*
X163614496Y-138032545D01*
X162896120Y-137755934D01*
X162126573Y-137775290D01*
X161505504Y-138032545D01*
X161370146Y-138330541D01*
X158847045Y-138330541D01*
X158576090Y-138059586D01*
X157864895Y-137765000D01*
X157095105Y-137765000D01*
X156383910Y-138059586D01*
X155839586Y-138603910D01*
X155545000Y-139315105D01*
X154335000Y-139315105D01*
X154040414Y-138603910D01*
X153496090Y-138059586D01*
X152784895Y-137765000D01*
X152015105Y-137765000D01*
X151303910Y-138059586D01*
X150759586Y-138603910D01*
X150465000Y-139315105D01*
X149267440Y-139315105D01*
X149267440Y-138400000D01*
X149218157Y-138152235D01*
X149077809Y-137942191D01*
X148867765Y-137801843D01*
X148620000Y-137752560D01*
X146020000Y-137752560D01*
X145772235Y-137801843D01*
X145562191Y-137942191D01*
X145421843Y-138152235D01*
X145372560Y-138400000D01*
X119452698Y-138400000D01*
X119535000Y-138201306D01*
X119535000Y-136246892D01*
X123018514Y-136246892D01*
X123264817Y-136771358D01*
X123693076Y-137161645D01*
X124103110Y-137331476D01*
X124333000Y-137210155D01*
X124333000Y-136017000D01*
X123139181Y-136017000D01*
X123018514Y-136246892D01*
X119535000Y-136246892D01*
X119535000Y-136118694D01*
X119292443Y-135533108D01*
X123018514Y-135533108D01*
X123139181Y-135763000D01*
X124333000Y-135763000D01*
X124333000Y-134569845D01*
X124587000Y-134569845D01*
X124587000Y-135763000D01*
X124607000Y-135763000D01*
X124607000Y-136017000D01*
X124587000Y-136017000D01*
X124587000Y-137210155D01*
X124816890Y-137331476D01*
X125226924Y-137161645D01*
X125655183Y-136771358D01*
X125716157Y-136641522D01*
X125929375Y-136960625D01*
X126420582Y-137288839D01*
X126853744Y-137375000D01*
X127146256Y-137375000D01*
X127579418Y-137288839D01*
X128070625Y-136960625D01*
X128270000Y-136662239D01*
X128469375Y-136960625D01*
X128960582Y-137288839D01*
X129393744Y-137375000D01*
X129686256Y-137375000D01*
X130119418Y-137288839D01*
X130610625Y-136960625D01*
X130810000Y-136662239D01*
X131009375Y-136960625D01*
X131500582Y-137288839D01*
X131933744Y-137375000D01*
X132226256Y-137375000D01*
X132659418Y-137288839D01*
X133150625Y-136960625D01*
X133350000Y-136662239D01*
X133549375Y-136960625D01*
X134040582Y-137288839D01*
X134473744Y-137375000D01*
X134766256Y-137375000D01*
X135199418Y-137288839D01*
X135690625Y-136960625D01*
X135702816Y-136942381D01*
X135711843Y-136987765D01*
X135852191Y-137197809D01*
X136062235Y-137338157D01*
X136310000Y-137387440D01*
X138010000Y-137387440D01*
X138257765Y-137338157D01*
X138467809Y-137197809D01*
X138608157Y-136987765D01*
X138657440Y-136740000D01*
X138657440Y-135040000D01*
X138608157Y-134792235D01*
X138467809Y-134582191D01*
X138257765Y-134441843D01*
X138010000Y-134392560D01*
X136310000Y-134392560D01*
X136062235Y-134441843D01*
X135852191Y-134582191D01*
X135711843Y-134792235D01*
X135702816Y-134837619D01*
X135690625Y-134819375D01*
X135199418Y-134491161D01*
X134766256Y-134405000D01*
X134473744Y-134405000D01*
X134040582Y-134491161D01*
X133549375Y-134819375D01*
X133350000Y-135117761D01*
X133150625Y-134819375D01*
X132659418Y-134491161D01*
X132226256Y-134405000D01*
X131933744Y-134405000D01*
X131500582Y-134491161D01*
X131009375Y-134819375D01*
X130810000Y-135117761D01*
X130610625Y-134819375D01*
X130119418Y-134491161D01*
X129686256Y-134405000D01*
X129393744Y-134405000D01*
X128960582Y-134491161D01*
X128469375Y-134819375D01*
X128270000Y-135117761D01*
X128070625Y-134819375D01*
X127579418Y-134491161D01*
X127146256Y-134405000D01*
X126853744Y-134405000D01*
X126420582Y-134491161D01*
X125929375Y-134819375D01*
X125716157Y-135138478D01*
X125655183Y-135008642D01*
X125226924Y-134618355D01*
X124816890Y-134448524D01*
X124587000Y-134569845D01*
X124333000Y-134569845D01*
X124103110Y-134448524D01*
X123693076Y-134618355D01*
X123264817Y-135008642D01*
X123018514Y-135533108D01*
X119292443Y-135533108D01*
X118738019Y-134194611D01*
X117265389Y-132721981D01*
X115341306Y-131925000D01*
X113258694Y-131925000D01*
X111334611Y-132721981D01*
X109861981Y-134194611D01*
X109065000Y-136118694D01*
X106120000Y-136118694D01*
X106120000Y-76073000D01*
X107072704Y-76073000D01*
X107092001Y-76170013D01*
X107092000Y-90132073D01*
X107072704Y-90229081D01*
X107092000Y-90326089D01*
X107092000Y-90326092D01*
X107149151Y-90613408D01*
X107366855Y-90939226D01*
X107449098Y-90994179D01*
X110957570Y-94502652D01*
X110863074Y-94541793D01*
X110543793Y-94861074D01*
X110393793Y-95223207D01*
X107703096Y-97913904D01*
X107620856Y-97968855D01*
X107565905Y-98051095D01*
X107565902Y-98051098D01*
X107403151Y-98294673D01*
X107326704Y-98679000D01*
X107346001Y-98776013D01*
X107346000Y-122584992D01*
X107326704Y-122682000D01*
X107346000Y-122779008D01*
X107346000Y-122779011D01*
X107403151Y-123066327D01*
X107620855Y-123392145D01*
X107703098Y-123447098D01*
X115185902Y-130929902D01*
X115240855Y-131012145D01*
X115566672Y-131229849D01*
X115853988Y-131287000D01*
X115853991Y-131287000D01*
X115950999Y-131306296D01*
X116048007Y-131287000D01*
X157834000Y-131287000D01*
X165751015Y-139204015D01*
X165705000Y-139315105D01*
X165705000Y-140084895D01*
X165999586Y-140796090D01*
X166543910Y-141340414D01*
X167255105Y-141635000D01*
X168024895Y-141635000D01*
X168736090Y-141340414D01*
X169280414Y-140796090D01*
X169575000Y-140084895D01*
X169575000Y-139385001D01*
X178764232Y-139385001D01*
X178445259Y-139703974D01*
X178105000Y-140525431D01*
X178105000Y-141414569D01*
X178445259Y-142236026D01*
X179073974Y-142864741D01*
X179895431Y-143205000D01*
X180784569Y-143205000D01*
X181606026Y-142864741D01*
X182234741Y-142236026D01*
X182575000Y-141414569D01*
X182575000Y-140525431D01*
X189535000Y-140525431D01*
X189535000Y-141414569D01*
X189875259Y-142236026D01*
X190503974Y-142864741D01*
X191325431Y-143205000D01*
X192214569Y-143205000D01*
X193036026Y-142864741D01*
X193664741Y-142236026D01*
X194005000Y-141414569D01*
X194005000Y-140525431D01*
X193664741Y-139703974D01*
X193036026Y-139075259D01*
X192214569Y-138735000D01*
X191325431Y-138735000D01*
X190503974Y-139075259D01*
X189875259Y-139703974D01*
X189535000Y-140525431D01*
X182575000Y-140525431D01*
X182234741Y-139703974D01*
X181915768Y-139385001D01*
X182558991Y-139385001D01*
X182655999Y-139404297D01*
X182753007Y-139385001D01*
X182753011Y-139385001D01*
X183040327Y-139327850D01*
X183366144Y-139110146D01*
X183421097Y-139027903D01*
X184777902Y-137671098D01*
X184860145Y-137616145D01*
X185077849Y-137290328D01*
X185135000Y-137003012D01*
X185135000Y-137003008D01*
X185154296Y-136906001D01*
X185135000Y-136808994D01*
X185135000Y-136118694D01*
X200505000Y-136118694D01*
X200505000Y-138201306D01*
X201301981Y-140125389D01*
X202774611Y-141598019D01*
X204698694Y-142395000D01*
X206781306Y-142395000D01*
X208705389Y-141598019D01*
X210178019Y-140125389D01*
X210975000Y-138201306D01*
X210975000Y-136118694D01*
X210178019Y-134194611D01*
X208705389Y-132721981D01*
X206781306Y-131925000D01*
X204698694Y-131925000D01*
X202774611Y-132721981D01*
X201301981Y-134194611D01*
X200505000Y-136118694D01*
X185135000Y-136118694D01*
X185135000Y-135593687D01*
X185324147Y-135404540D01*
X185420000Y-135173130D01*
X185515853Y-135404540D01*
X185905460Y-135794147D01*
X186414506Y-136005000D01*
X186965494Y-136005000D01*
X187474540Y-135794147D01*
X187864147Y-135404540D01*
X187960000Y-135173130D01*
X188055853Y-135404540D01*
X188445460Y-135794147D01*
X188954506Y-136005000D01*
X189505494Y-136005000D01*
X190014540Y-135794147D01*
X190202022Y-135606665D01*
X190290660Y-135624296D01*
X190387668Y-135605000D01*
X190387672Y-135605000D01*
X190674988Y-135547849D01*
X191000805Y-135330145D01*
X191055758Y-135247902D01*
X192427903Y-133875757D01*
X192510146Y-133820804D01*
X192727850Y-133494987D01*
X192785001Y-133207671D01*
X192785001Y-133207670D01*
X192804298Y-133110659D01*
X192785001Y-133013647D01*
X192785001Y-89662008D01*
X192804297Y-89565000D01*
X192785001Y-89467992D01*
X192785001Y-89467989D01*
X192727850Y-89180673D01*
X192651000Y-89065659D01*
X192651000Y-89055234D01*
X192478207Y-88638074D01*
X192158926Y-88318793D01*
X191741766Y-88146000D01*
X191290234Y-88146000D01*
X190873074Y-88318793D01*
X190553793Y-88638074D01*
X190381000Y-89055234D01*
X190381000Y-89461867D01*
X190380926Y-89461793D01*
X189963766Y-89289000D01*
X189512234Y-89289000D01*
X189095074Y-89461793D01*
X188775793Y-89781074D01*
X188603000Y-90198234D01*
X188603000Y-90649766D01*
X188775793Y-91066926D01*
X189095074Y-91386207D01*
X189457206Y-91536207D01*
X189515001Y-91594002D01*
X189515000Y-131106313D01*
X189325853Y-131295460D01*
X189236603Y-131510930D01*
X189172460Y-131356077D01*
X188931517Y-131288088D01*
X188139605Y-132080000D01*
X188931517Y-132871912D01*
X189172460Y-132803923D01*
X189231745Y-132637342D01*
X189325853Y-132864540D01*
X189715460Y-133254147D01*
X190102992Y-133414668D01*
X190043174Y-133474487D01*
X190014540Y-133445853D01*
X189505494Y-133235000D01*
X188954506Y-133235000D01*
X188445460Y-133445853D01*
X188055853Y-133835460D01*
X187960000Y-134066870D01*
X187864147Y-133835460D01*
X187474540Y-133445853D01*
X186965494Y-133235000D01*
X186414506Y-133235000D01*
X185905460Y-133445853D01*
X185515853Y-133835460D01*
X185420000Y-134066870D01*
X185324147Y-133835460D01*
X184934540Y-133445853D01*
X184425494Y-133235000D01*
X183874506Y-133235000D01*
X183365460Y-133445853D01*
X182996469Y-133814844D01*
X182958157Y-133622235D01*
X182853095Y-133465000D01*
X183155494Y-133465000D01*
X183664540Y-133254147D01*
X184054147Y-132864540D01*
X184150000Y-132633130D01*
X184245853Y-132864540D01*
X184635460Y-133254147D01*
X185144506Y-133465000D01*
X185695494Y-133465000D01*
X186204540Y-133254147D01*
X186407170Y-133051517D01*
X187168088Y-133051517D01*
X187236077Y-133292460D01*
X187755171Y-133477201D01*
X188305448Y-133449230D01*
X188683923Y-133292460D01*
X188751912Y-133051517D01*
X187960000Y-132259605D01*
X187168088Y-133051517D01*
X186407170Y-133051517D01*
X186594147Y-132864540D01*
X186683397Y-132649070D01*
X186747540Y-132803923D01*
X186988483Y-132871912D01*
X187780395Y-132080000D01*
X186988483Y-131288088D01*
X186747540Y-131356077D01*
X186688255Y-131522658D01*
X186594147Y-131295460D01*
X186407170Y-131108483D01*
X187168088Y-131108483D01*
X187960000Y-131900395D01*
X188751912Y-131108483D01*
X188683923Y-130867540D01*
X188164829Y-130682799D01*
X187614552Y-130710770D01*
X187236077Y-130867540D01*
X187168088Y-131108483D01*
X186407170Y-131108483D01*
X186204540Y-130905853D01*
X185695494Y-130695000D01*
X185144506Y-130695000D01*
X184635460Y-130905853D01*
X184245853Y-131295460D01*
X184150000Y-131526870D01*
X184054147Y-131295460D01*
X183664540Y-130905853D01*
X183155494Y-130695000D01*
X182604506Y-130695000D01*
X182095460Y-130905853D01*
X181705853Y-131295460D01*
X181495000Y-131804506D01*
X181495000Y-132355494D01*
X181705853Y-132864540D01*
X182063873Y-133222560D01*
X180860000Y-133222560D01*
X180612235Y-133271843D01*
X180402191Y-133412191D01*
X180261843Y-133622235D01*
X180212560Y-133870000D01*
X180212560Y-135370000D01*
X180261843Y-135617765D01*
X180402191Y-135827809D01*
X180612235Y-135968157D01*
X180860000Y-136017440D01*
X182360000Y-136017440D01*
X182607765Y-135968157D01*
X182817809Y-135827809D01*
X182958157Y-135617765D01*
X182996469Y-135425156D01*
X183165001Y-135593688D01*
X183165000Y-136498000D01*
X182247999Y-137415001D01*
X169037006Y-137415001D01*
X168939998Y-137395705D01*
X168842990Y-137415001D01*
X168842987Y-137415001D01*
X168555671Y-137472152D01*
X168229854Y-137689856D01*
X168174901Y-137772099D01*
X168135985Y-137811015D01*
X168024895Y-137765000D01*
X167255105Y-137765000D01*
X167144015Y-137811015D01*
X159007097Y-129674097D01*
X158952145Y-129591855D01*
X158626328Y-129374151D01*
X158339012Y-129317000D01*
X158339008Y-129317000D01*
X158242000Y-129297704D01*
X158144992Y-129317000D01*
X116359000Y-129317000D01*
X115594234Y-128552234D01*
X162060000Y-128552234D01*
X162060000Y-129003766D01*
X162232793Y-129420926D01*
X162552074Y-129740207D01*
X162969234Y-129913000D01*
X163330000Y-129913000D01*
X163330000Y-130019766D01*
X163502793Y-130436926D01*
X163822074Y-130756207D01*
X164239234Y-130929000D01*
X164690766Y-130929000D01*
X165107926Y-130756207D01*
X165427207Y-130436926D01*
X165577207Y-130074793D01*
X169410902Y-126241098D01*
X169493145Y-126186145D01*
X169710849Y-125860328D01*
X169768000Y-125573012D01*
X169768000Y-125573009D01*
X169787296Y-125476001D01*
X169768000Y-125378993D01*
X169768000Y-97107899D01*
X169918000Y-96745766D01*
X169918000Y-96294234D01*
X169745207Y-95877074D01*
X169425926Y-95557793D01*
X169008766Y-95385000D01*
X168557234Y-95385000D01*
X168140074Y-95557793D01*
X167820793Y-95877074D01*
X167648000Y-96294234D01*
X167648000Y-96745766D01*
X167798001Y-97107901D01*
X167798001Y-104089868D01*
X167774926Y-104066793D01*
X167357766Y-103894000D01*
X166906234Y-103894000D01*
X166489074Y-104066793D01*
X166169793Y-104386074D01*
X165997000Y-104803234D01*
X165997000Y-105254766D01*
X166147001Y-105616901D01*
X166147000Y-124433000D01*
X162914208Y-127665792D01*
X162552074Y-127815793D01*
X162232793Y-128135074D01*
X162060000Y-128552234D01*
X115594234Y-128552234D01*
X109316000Y-122274000D01*
X109316000Y-118180000D01*
X109912560Y-118180000D01*
X109912560Y-120580000D01*
X109961843Y-120827765D01*
X110102191Y-121037809D01*
X110312235Y-121178157D01*
X110560000Y-121227440D01*
X112960000Y-121227440D01*
X113207765Y-121178157D01*
X113417809Y-121037809D01*
X113558157Y-120827765D01*
X113588110Y-120677175D01*
X118142430Y-120677175D01*
X118265565Y-120964788D01*
X118947734Y-121224707D01*
X119677443Y-121203786D01*
X120254435Y-120964788D01*
X120377570Y-120677175D01*
X119260000Y-119559605D01*
X118142430Y-120677175D01*
X113588110Y-120677175D01*
X113607440Y-120580000D01*
X113607440Y-120365000D01*
X114486994Y-120365000D01*
X114584002Y-120384296D01*
X114681010Y-120365000D01*
X114681014Y-120365000D01*
X114968330Y-120307849D01*
X115294147Y-120090145D01*
X115349100Y-120007902D01*
X116289268Y-119067734D01*
X117415293Y-119067734D01*
X117436214Y-119797443D01*
X117675212Y-120374435D01*
X117962825Y-120497570D01*
X119080395Y-119380000D01*
X119439605Y-119380000D01*
X120557175Y-120497570D01*
X120844788Y-120374435D01*
X121104707Y-119692266D01*
X121083786Y-118962557D01*
X120844788Y-118385565D01*
X120557175Y-118262430D01*
X119439605Y-119380000D01*
X119080395Y-119380000D01*
X117962825Y-118262430D01*
X117675212Y-118385565D01*
X117415293Y-119067734D01*
X116289268Y-119067734D01*
X117274177Y-118082825D01*
X118142430Y-118082825D01*
X119260000Y-119200395D01*
X120377570Y-118082825D01*
X120254435Y-117795212D01*
X119572266Y-117535293D01*
X118842557Y-117556214D01*
X118265565Y-117795212D01*
X118142430Y-118082825D01*
X117274177Y-118082825D01*
X120453002Y-114904000D01*
X155388992Y-114904000D01*
X155486000Y-114923296D01*
X155583008Y-114904000D01*
X155583012Y-114904000D01*
X155870328Y-114846849D01*
X156196145Y-114629145D01*
X156251098Y-114546902D01*
X157350793Y-113447207D01*
X157712926Y-113297207D01*
X158032207Y-112977926D01*
X158205000Y-112560766D01*
X158205000Y-112109234D01*
X158032207Y-111692074D01*
X157712926Y-111372793D01*
X157295766Y-111200000D01*
X156844234Y-111200000D01*
X156427074Y-111372793D01*
X156107793Y-111692074D01*
X155957793Y-112054207D01*
X155078000Y-112934000D01*
X120142009Y-112934000D01*
X120045001Y-112914704D01*
X119947993Y-112934000D01*
X119947990Y-112934000D01*
X119660674Y-112991151D01*
X119334857Y-113208855D01*
X119279904Y-113291098D01*
X114176002Y-118395000D01*
X113607440Y-118395000D01*
X113607440Y-118180000D01*
X113558157Y-117932235D01*
X113417809Y-117722191D01*
X113207765Y-117581843D01*
X112960000Y-117532560D01*
X110560000Y-117532560D01*
X110312235Y-117581843D01*
X110102191Y-117722191D01*
X109961843Y-117932235D01*
X109912560Y-118180000D01*
X109316000Y-118180000D01*
X109316000Y-99087000D01*
X111786793Y-96616207D01*
X112148926Y-96466207D01*
X112468207Y-96146926D01*
X112511367Y-96042728D01*
X112667311Y-96146926D01*
X112713591Y-96177849D01*
X113000907Y-96235000D01*
X113000911Y-96235000D01*
X113097919Y-96254296D01*
X113174833Y-96238997D01*
X113229375Y-96320625D01*
X113527761Y-96520000D01*
X113229375Y-96719375D01*
X112901161Y-97210582D01*
X112785908Y-97790000D01*
X112901161Y-98369418D01*
X113229375Y-98860625D01*
X113527761Y-99060000D01*
X113229375Y-99259375D01*
X112901161Y-99750582D01*
X112785908Y-100330000D01*
X112901161Y-100909418D01*
X113229375Y-101400625D01*
X113527761Y-101600000D01*
X113229375Y-101799375D01*
X112901161Y-102290582D01*
X112785908Y-102870000D01*
X112901161Y-103449418D01*
X113229375Y-103940625D01*
X113527761Y-104140000D01*
X113229375Y-104339375D01*
X112901161Y-104830582D01*
X112785908Y-105410000D01*
X112901161Y-105989418D01*
X113229375Y-106480625D01*
X113720582Y-106808839D01*
X114153744Y-106895000D01*
X114446256Y-106895000D01*
X114879418Y-106808839D01*
X115370625Y-106480625D01*
X115570000Y-106182239D01*
X115769375Y-106480625D01*
X116260582Y-106808839D01*
X116693744Y-106895000D01*
X116986256Y-106895000D01*
X117419418Y-106808839D01*
X117910625Y-106480625D01*
X118238839Y-105989418D01*
X118354092Y-105410000D01*
X118238839Y-104830582D01*
X117910625Y-104339375D01*
X117612239Y-104140000D01*
X117910625Y-103940625D01*
X118238839Y-103449418D01*
X118275298Y-103266122D01*
X145630825Y-103266122D01*
X145845466Y-103784332D01*
X146307608Y-104279012D01*
X146923877Y-104559183D01*
X147193000Y-104441604D01*
X147193000Y-102997000D01*
X147447000Y-102997000D01*
X147447000Y-104441604D01*
X147716123Y-104559183D01*
X148332392Y-104279012D01*
X148794534Y-103784332D01*
X149009175Y-103266122D01*
X148891125Y-102997000D01*
X147447000Y-102997000D01*
X147193000Y-102997000D01*
X145748875Y-102997000D01*
X145630825Y-103266122D01*
X118275298Y-103266122D01*
X118354092Y-102870000D01*
X118275299Y-102473878D01*
X145630825Y-102473878D01*
X145748875Y-102743000D01*
X147193000Y-102743000D01*
X147193000Y-101298396D01*
X147447000Y-101298396D01*
X147447000Y-102743000D01*
X148891125Y-102743000D01*
X149009175Y-102473878D01*
X148794534Y-101955668D01*
X148621079Y-101770000D01*
X158272560Y-101770000D01*
X158272560Y-103970000D01*
X158321843Y-104217765D01*
X158462191Y-104427809D01*
X158672235Y-104568157D01*
X158920000Y-104617440D01*
X161120000Y-104617440D01*
X161367765Y-104568157D01*
X161577809Y-104427809D01*
X161718157Y-104217765D01*
X161767440Y-103970000D01*
X161767440Y-101770000D01*
X161718157Y-101522235D01*
X161577809Y-101312191D01*
X161367765Y-101171843D01*
X161120000Y-101122560D01*
X158920000Y-101122560D01*
X158672235Y-101171843D01*
X158462191Y-101312191D01*
X158321843Y-101522235D01*
X158272560Y-101770000D01*
X148621079Y-101770000D01*
X148332392Y-101460988D01*
X147716123Y-101180817D01*
X147447000Y-101298396D01*
X147193000Y-101298396D01*
X146923877Y-101180817D01*
X146307608Y-101460988D01*
X145845466Y-101955668D01*
X145630825Y-102473878D01*
X118275299Y-102473878D01*
X118238839Y-102290582D01*
X117910625Y-101799375D01*
X117612239Y-101600000D01*
X117910625Y-101400625D01*
X117967838Y-101315000D01*
X131982992Y-101315000D01*
X132080000Y-101334296D01*
X132177008Y-101315000D01*
X132177012Y-101315000D01*
X132464328Y-101257849D01*
X132790145Y-101040145D01*
X132845098Y-100957902D01*
X134900793Y-98902207D01*
X135262926Y-98752207D01*
X135582207Y-98432926D01*
X135755000Y-98015766D01*
X135755000Y-97564234D01*
X135582207Y-97147074D01*
X135262926Y-96827793D01*
X134845766Y-96655000D01*
X134394234Y-96655000D01*
X133977074Y-96827793D01*
X133657793Y-97147074D01*
X133507793Y-97509207D01*
X131672000Y-99345000D01*
X117967838Y-99345000D01*
X117910625Y-99259375D01*
X117612239Y-99060000D01*
X117910625Y-98860625D01*
X118238839Y-98369418D01*
X118354092Y-97790000D01*
X118238839Y-97210582D01*
X117910625Y-96719375D01*
X117612239Y-96520000D01*
X117910625Y-96320625D01*
X118238839Y-95829418D01*
X118354092Y-95250000D01*
X118238839Y-94670582D01*
X117910625Y-94179375D01*
X117612239Y-93980000D01*
X117910625Y-93780625D01*
X118238839Y-93289418D01*
X118354092Y-92710000D01*
X118238839Y-92130582D01*
X117910625Y-91639375D01*
X117892381Y-91627184D01*
X117937765Y-91618157D01*
X118147809Y-91477809D01*
X118288157Y-91267765D01*
X118310587Y-91155000D01*
X142457992Y-91155000D01*
X142555000Y-91174296D01*
X142652008Y-91155000D01*
X142652012Y-91155000D01*
X142939328Y-91097849D01*
X143265145Y-90880145D01*
X143320098Y-90797902D01*
X150652560Y-83465441D01*
X150652560Y-84920000D01*
X150701843Y-85167765D01*
X150842191Y-85377809D01*
X151052235Y-85518157D01*
X151300000Y-85567440D01*
X153500000Y-85567440D01*
X153747765Y-85518157D01*
X153957809Y-85377809D01*
X154098157Y-85167765D01*
X154147440Y-84920000D01*
X154147440Y-84216122D01*
X163410825Y-84216122D01*
X163625466Y-84734332D01*
X164087608Y-85229012D01*
X164703877Y-85509183D01*
X164973000Y-85391604D01*
X164973000Y-83947000D01*
X165227000Y-83947000D01*
X165227000Y-85391604D01*
X165496123Y-85509183D01*
X166112392Y-85229012D01*
X166574534Y-84734332D01*
X166789175Y-84216122D01*
X166671125Y-83947000D01*
X165227000Y-83947000D01*
X164973000Y-83947000D01*
X163528875Y-83947000D01*
X163410825Y-84216122D01*
X154147440Y-84216122D01*
X154147440Y-83423878D01*
X163410825Y-83423878D01*
X163528875Y-83693000D01*
X164973000Y-83693000D01*
X164973000Y-82248396D01*
X165227000Y-82248396D01*
X165227000Y-83693000D01*
X166671125Y-83693000D01*
X166789175Y-83423878D01*
X166574534Y-82905668D01*
X166112392Y-82410988D01*
X165496123Y-82130817D01*
X165227000Y-82248396D01*
X164973000Y-82248396D01*
X164703877Y-82130817D01*
X164087608Y-82410988D01*
X163625466Y-82905668D01*
X163410825Y-83423878D01*
X154147440Y-83423878D01*
X154147440Y-82720000D01*
X154098157Y-82472235D01*
X153957809Y-82262191D01*
X153747765Y-82121843D01*
X153700549Y-82112451D01*
X155961000Y-79852000D01*
X204009101Y-79852000D01*
X204371234Y-80002000D01*
X204822766Y-80002000D01*
X205239926Y-79829207D01*
X205559207Y-79509926D01*
X205732000Y-79092766D01*
X205732000Y-78641234D01*
X205559207Y-78224074D01*
X205239926Y-77904793D01*
X204822766Y-77732000D01*
X204371234Y-77732000D01*
X204009101Y-77882000D01*
X171925465Y-77882000D01*
X171950000Y-77822766D01*
X171950000Y-77371234D01*
X171777207Y-76954074D01*
X171457926Y-76634793D01*
X171040766Y-76462000D01*
X170589234Y-76462000D01*
X170227101Y-76612000D01*
X156335000Y-76612000D01*
X156335000Y-76212899D01*
X156485000Y-75850766D01*
X156485000Y-75399234D01*
X156312207Y-74982074D01*
X155992926Y-74662793D01*
X155575766Y-74490000D01*
X155124234Y-74490000D01*
X154707074Y-74662793D01*
X154387793Y-74982074D01*
X154215000Y-75399234D01*
X154215000Y-75850766D01*
X154365001Y-76212900D01*
X154365000Y-76966999D01*
X142147000Y-89185000D01*
X128491465Y-89185000D01*
X128516000Y-89125766D01*
X128516000Y-88674234D01*
X128366000Y-88312101D01*
X128366000Y-76924331D01*
X128404926Y-76908207D01*
X128724207Y-76588926D01*
X128897000Y-76171766D01*
X128897000Y-75720234D01*
X128724207Y-75303074D01*
X128404926Y-74983793D01*
X127987766Y-74811000D01*
X127536234Y-74811000D01*
X127119074Y-74983793D01*
X126799793Y-75303074D01*
X126668133Y-75620931D01*
X126615905Y-75699095D01*
X126615902Y-75699098D01*
X126453151Y-75942673D01*
X126376704Y-76327000D01*
X126396001Y-76424013D01*
X126396000Y-88312101D01*
X126246000Y-88674234D01*
X126246000Y-89125766D01*
X126270535Y-89185000D01*
X118310587Y-89185000D01*
X118288157Y-89072235D01*
X118147809Y-88862191D01*
X117937765Y-88721843D01*
X117825000Y-88699413D01*
X117825000Y-84307007D01*
X117844296Y-84209999D01*
X117825000Y-84112991D01*
X117825000Y-84112988D01*
X117767849Y-83825672D01*
X117550145Y-83499855D01*
X117467902Y-83444902D01*
X113299234Y-79276234D01*
X122944000Y-79276234D01*
X122944000Y-79727766D01*
X123116793Y-80144926D01*
X123436074Y-80464207D01*
X123853234Y-80637000D01*
X124304766Y-80637000D01*
X124721926Y-80464207D01*
X125041207Y-80144926D01*
X125214000Y-79727766D01*
X125214000Y-79276234D01*
X125064000Y-78914101D01*
X125064000Y-76989000D01*
X128550793Y-73502207D01*
X128912926Y-73352207D01*
X129232207Y-73032926D01*
X129405000Y-72615766D01*
X129405000Y-72164234D01*
X129232207Y-71747074D01*
X128912926Y-71427793D01*
X128495766Y-71255000D01*
X128044234Y-71255000D01*
X127627074Y-71427793D01*
X127307793Y-71747074D01*
X127157793Y-72109207D01*
X123451096Y-75815904D01*
X123368856Y-75870855D01*
X123313905Y-75953095D01*
X123313902Y-75953098D01*
X123151151Y-76196673D01*
X123074704Y-76581000D01*
X123094001Y-76678013D01*
X123094000Y-78697882D01*
X123094000Y-78914101D01*
X122944000Y-79276234D01*
X113299234Y-79276234D01*
X112482207Y-78459207D01*
X112332207Y-78097074D01*
X112012926Y-77777793D01*
X111595766Y-77605000D01*
X111144234Y-77605000D01*
X110727074Y-77777793D01*
X110407793Y-78097074D01*
X110235000Y-78514234D01*
X110235000Y-78965766D01*
X110407793Y-79382926D01*
X110727074Y-79702207D01*
X111089207Y-79852207D01*
X115855001Y-84618001D01*
X115855000Y-88699413D01*
X115742235Y-88721843D01*
X115532191Y-88862191D01*
X115391843Y-89072235D01*
X115382816Y-89117619D01*
X115370625Y-89099375D01*
X114879418Y-88771161D01*
X114446256Y-88685000D01*
X114153744Y-88685000D01*
X113720582Y-88771161D01*
X113229375Y-89099375D01*
X112901161Y-89590582D01*
X112785908Y-90170000D01*
X112901161Y-90749418D01*
X113229375Y-91240625D01*
X113548478Y-91453843D01*
X113418642Y-91514817D01*
X113028355Y-91943076D01*
X112858524Y-92353110D01*
X112979845Y-92583000D01*
X114173000Y-92583000D01*
X114173000Y-92563000D01*
X114427000Y-92563000D01*
X114427000Y-92583000D01*
X114447000Y-92583000D01*
X114447000Y-92837000D01*
X114427000Y-92837000D01*
X114427000Y-92857000D01*
X114173000Y-92857000D01*
X114173000Y-92837000D01*
X112979845Y-92837000D01*
X112858524Y-93066890D01*
X113028355Y-93476924D01*
X113418642Y-93905183D01*
X113548478Y-93966157D01*
X113343823Y-94102903D01*
X109062000Y-89821081D01*
X109062000Y-76481000D01*
X110644000Y-74899000D01*
X119028992Y-74899000D01*
X119126000Y-74918296D01*
X119223008Y-74899000D01*
X119223012Y-74899000D01*
X119510328Y-74841849D01*
X119836145Y-74624145D01*
X119891098Y-74541902D01*
X126230902Y-68202098D01*
X126313145Y-68147145D01*
X126530849Y-67821328D01*
X126588000Y-67534012D01*
X126588000Y-67534009D01*
X126607296Y-67437001D01*
X126588000Y-67339993D01*
X126588000Y-64998694D01*
X200505000Y-64998694D01*
X200505000Y-67081306D01*
X201301981Y-69005389D01*
X202774611Y-70478019D01*
X204698694Y-71275000D01*
X206781306Y-71275000D01*
X208705389Y-70478019D01*
X210178019Y-69005389D01*
X210975000Y-67081306D01*
X210975000Y-64998694D01*
X210178019Y-63074611D01*
X208705389Y-61601981D01*
X206781306Y-60805000D01*
X204698694Y-60805000D01*
X202774611Y-61601981D01*
X201301981Y-63074611D01*
X200505000Y-64998694D01*
X126588000Y-64998694D01*
X126588000Y-64670000D01*
X130456000Y-60802000D01*
X141197000Y-60802000D01*
X142143793Y-61748794D01*
X142293793Y-62110926D01*
X142613074Y-62430207D01*
X143030234Y-62603000D01*
X143481766Y-62603000D01*
X143898926Y-62430207D01*
X144218207Y-62110926D01*
X144391000Y-61693766D01*
X144391000Y-61242234D01*
X144218207Y-60825074D01*
X143898926Y-60505793D01*
X143536794Y-60355793D01*
X142370098Y-59189098D01*
X142315145Y-59106855D01*
X141989328Y-58889151D01*
X141702012Y-58832000D01*
X141702008Y-58832000D01*
X141605000Y-58812704D01*
X141507992Y-58832000D01*
X130145007Y-58832000D01*
X130047999Y-58812704D01*
X129950991Y-58832000D01*
X129950988Y-58832000D01*
X129663672Y-58889151D01*
X129337855Y-59106855D01*
X129282902Y-59189098D01*
X124975096Y-63496904D01*
X124892856Y-63551855D01*
X124837905Y-63634095D01*
X124837902Y-63634098D01*
X124675151Y-63877673D01*
X124598704Y-64262000D01*
X124618001Y-64359013D01*
X124618000Y-67029000D01*
X118718000Y-72929000D01*
X110333007Y-72929000D01*
X110235999Y-72909704D01*
X110138991Y-72929000D01*
X110138988Y-72929000D01*
X109851672Y-72986151D01*
X109525855Y-73203855D01*
X109470902Y-73286098D01*
X107449096Y-75307904D01*
X107366856Y-75362855D01*
X107311905Y-75445095D01*
X107311902Y-75445098D01*
X107149151Y-75688673D01*
X107072704Y-76073000D01*
X106120000Y-76073000D01*
X106120000Y-66063553D01*
X106190727Y-64998694D01*
X109065000Y-64998694D01*
X109065000Y-67081306D01*
X109861981Y-69005389D01*
X111334611Y-70478019D01*
X113258694Y-71275000D01*
X115341306Y-71275000D01*
X117265389Y-70478019D01*
X118738019Y-69005389D01*
X119535000Y-67081306D01*
X119535000Y-64998694D01*
X118738019Y-63074611D01*
X117265389Y-61601981D01*
X115341306Y-60805000D01*
X113258694Y-60805000D01*
X111334611Y-61601981D01*
X109861981Y-63074611D01*
X109065000Y-64998694D01*
X106190727Y-64998694D01*
X106193407Y-64958353D01*
X106407676Y-63895699D01*
X106760601Y-62870731D01*
X107245990Y-61901431D01*
X107855307Y-61004849D01*
X108577850Y-60196730D01*
X109400925Y-59491269D01*
X110310068Y-58900865D01*
X111289316Y-58435884D01*
X112321456Y-58104499D01*
X113392032Y-57911872D01*
X114319834Y-57860000D01*
X205716447Y-57860000D01*
X206821647Y-57933407D01*
G04 #@! TD*
M02*
