G04 #@! TF.GenerationSoftware,KiCad,Pcbnew,5.0.0-fee4fd1~65~ubuntu17.10.1*
G04 #@! TF.CreationDate,2019-02-19T07:35:12-06:00*
G04 #@! TF.ProjectId,control_v1,636F6E74726F6C5F76312E6B69636164,1*
G04 #@! TF.SameCoordinates,Original*
G04 #@! TF.FileFunction,Legend,Top*
G04 #@! TF.FilePolarity,Positive*
%FSLAX46Y46*%
G04 Gerber Fmt 4.6, Leading zero omitted, Abs format (unit mm)*
G04 Created by KiCad (PCBNEW 5.0.0-fee4fd1~65~ubuntu17.10.1) date Tue Feb 19 07:35:12 2019*
%MOMM*%
%LPD*%
G01*
G04 APERTURE LIST*
%ADD10C,0.300000*%
%ADD11C,0.120000*%
%ADD12C,0.150000*%
G04 APERTURE END LIST*
D10*
X120138428Y-106088571D02*
X119424142Y-106088571D01*
X119424142Y-104588571D01*
X120567000Y-105660000D02*
X121281285Y-105660000D01*
X120424142Y-106088571D02*
X120924142Y-104588571D01*
X121424142Y-106088571D01*
X121924142Y-106088571D02*
X121924142Y-104588571D01*
X122495571Y-104588571D01*
X122638428Y-104660000D01*
X122709857Y-104731428D01*
X122781285Y-104874285D01*
X122781285Y-105088571D01*
X122709857Y-105231428D01*
X122638428Y-105302857D01*
X122495571Y-105374285D01*
X121924142Y-105374285D01*
X120138428Y-103548571D02*
X119424142Y-103548571D01*
X119424142Y-102048571D01*
X121138428Y-102762857D02*
X121352714Y-102834285D01*
X121424142Y-102905714D01*
X121495571Y-103048571D01*
X121495571Y-103262857D01*
X121424142Y-103405714D01*
X121352714Y-103477142D01*
X121209857Y-103548571D01*
X120638428Y-103548571D01*
X120638428Y-102048571D01*
X121138428Y-102048571D01*
X121281285Y-102120000D01*
X121352714Y-102191428D01*
X121424142Y-102334285D01*
X121424142Y-102477142D01*
X121352714Y-102620000D01*
X121281285Y-102691428D01*
X121138428Y-102762857D01*
X120638428Y-102762857D01*
X122138428Y-103548571D02*
X122138428Y-102048571D01*
X122709857Y-102048571D01*
X122852714Y-102120000D01*
X122924142Y-102191428D01*
X122995571Y-102334285D01*
X122995571Y-102548571D01*
X122924142Y-102691428D01*
X122852714Y-102762857D01*
X122709857Y-102834285D01*
X122138428Y-102834285D01*
X120138428Y-101008571D02*
X119424142Y-101008571D01*
X119424142Y-99508571D01*
X121495571Y-100865714D02*
X121424142Y-100937142D01*
X121209857Y-101008571D01*
X121067000Y-101008571D01*
X120852714Y-100937142D01*
X120709857Y-100794285D01*
X120638428Y-100651428D01*
X120567000Y-100365714D01*
X120567000Y-100151428D01*
X120638428Y-99865714D01*
X120709857Y-99722857D01*
X120852714Y-99580000D01*
X121067000Y-99508571D01*
X121209857Y-99508571D01*
X121424142Y-99580000D01*
X121495571Y-99651428D01*
X122138428Y-101008571D02*
X122138428Y-99508571D01*
X122709857Y-99508571D01*
X122852714Y-99580000D01*
X122924142Y-99651428D01*
X122995571Y-99794285D01*
X122995571Y-100008571D01*
X122924142Y-100151428D01*
X122852714Y-100222857D01*
X122709857Y-100294285D01*
X122138428Y-100294285D01*
X119606714Y-98040000D02*
X120321000Y-98040000D01*
X119463857Y-98468571D02*
X119963857Y-96968571D01*
X120463857Y-98468571D01*
X120821000Y-96968571D02*
X121821000Y-98468571D01*
X121821000Y-96968571D02*
X120821000Y-98468571D01*
X122678142Y-96968571D02*
X122821000Y-96968571D01*
X122963857Y-97040000D01*
X123035285Y-97111428D01*
X123106714Y-97254285D01*
X123178142Y-97540000D01*
X123178142Y-97897142D01*
X123106714Y-98182857D01*
X123035285Y-98325714D01*
X122963857Y-98397142D01*
X122821000Y-98468571D01*
X122678142Y-98468571D01*
X122535285Y-98397142D01*
X122463857Y-98325714D01*
X122392428Y-98182857D01*
X122321000Y-97897142D01*
X122321000Y-97540000D01*
X122392428Y-97254285D01*
X122463857Y-97111428D01*
X122535285Y-97040000D01*
X122678142Y-96968571D01*
X119606714Y-95500000D02*
X120321000Y-95500000D01*
X119463857Y-95928571D02*
X119963857Y-94428571D01*
X120463857Y-95928571D01*
X121463857Y-95142857D02*
X120963857Y-95142857D01*
X120963857Y-95928571D02*
X120963857Y-94428571D01*
X121678142Y-94428571D01*
X122749571Y-95142857D02*
X122963857Y-95214285D01*
X123035285Y-95285714D01*
X123106714Y-95428571D01*
X123106714Y-95642857D01*
X123035285Y-95785714D01*
X122963857Y-95857142D01*
X122821000Y-95928571D01*
X122249571Y-95928571D01*
X122249571Y-94428571D01*
X122749571Y-94428571D01*
X122892428Y-94500000D01*
X122963857Y-94571428D01*
X123035285Y-94714285D01*
X123035285Y-94857142D01*
X122963857Y-95000000D01*
X122892428Y-95071428D01*
X122749571Y-95142857D01*
X122249571Y-95142857D01*
X120463857Y-93388571D02*
X119606714Y-93388571D01*
X120035285Y-93388571D02*
X120035285Y-91888571D01*
X119892428Y-92102857D01*
X119749571Y-92245714D01*
X119606714Y-92317142D01*
X121035285Y-92031428D02*
X121106714Y-91960000D01*
X121249571Y-91888571D01*
X121606714Y-91888571D01*
X121749571Y-91960000D01*
X121821000Y-92031428D01*
X121892428Y-92174285D01*
X121892428Y-92317142D01*
X121821000Y-92531428D01*
X120963857Y-93388571D01*
X121892428Y-93388571D01*
X122392428Y-92388571D02*
X122749571Y-93388571D01*
X123106714Y-92388571D01*
X120321000Y-89848571D02*
X120321000Y-90848571D01*
X119963857Y-89277142D02*
X119606714Y-90348571D01*
X120535285Y-90348571D01*
X121321000Y-89991428D02*
X121178142Y-89920000D01*
X121106714Y-89848571D01*
X121035285Y-89705714D01*
X121035285Y-89634285D01*
X121106714Y-89491428D01*
X121178142Y-89420000D01*
X121321000Y-89348571D01*
X121606714Y-89348571D01*
X121749571Y-89420000D01*
X121821000Y-89491428D01*
X121892428Y-89634285D01*
X121892428Y-89705714D01*
X121821000Y-89848571D01*
X121749571Y-89920000D01*
X121606714Y-89991428D01*
X121321000Y-89991428D01*
X121178142Y-90062857D01*
X121106714Y-90134285D01*
X121035285Y-90277142D01*
X121035285Y-90562857D01*
X121106714Y-90705714D01*
X121178142Y-90777142D01*
X121321000Y-90848571D01*
X121606714Y-90848571D01*
X121749571Y-90777142D01*
X121821000Y-90705714D01*
X121892428Y-90562857D01*
X121892428Y-90277142D01*
X121821000Y-90134285D01*
X121749571Y-90062857D01*
X121606714Y-89991428D01*
X122392428Y-89848571D02*
X122749571Y-90848571D01*
X123106714Y-89848571D01*
X108073000Y-106088571D02*
X108073000Y-104588571D01*
X108073000Y-105302857D02*
X108930142Y-105302857D01*
X108930142Y-106088571D02*
X108930142Y-104588571D01*
X109573000Y-105660000D02*
X110287285Y-105660000D01*
X109430142Y-106088571D02*
X109930142Y-104588571D01*
X110430142Y-106088571D01*
X110930142Y-106088571D02*
X110930142Y-104588571D01*
X111501571Y-104588571D01*
X111644428Y-104660000D01*
X111715857Y-104731428D01*
X111787285Y-104874285D01*
X111787285Y-105088571D01*
X111715857Y-105231428D01*
X111644428Y-105302857D01*
X111501571Y-105374285D01*
X110930142Y-105374285D01*
X107858714Y-103548571D02*
X107858714Y-102048571D01*
X107858714Y-102762857D02*
X108715857Y-102762857D01*
X108715857Y-103548571D02*
X108715857Y-102048571D01*
X109930142Y-102762857D02*
X110144428Y-102834285D01*
X110215857Y-102905714D01*
X110287285Y-103048571D01*
X110287285Y-103262857D01*
X110215857Y-103405714D01*
X110144428Y-103477142D01*
X110001571Y-103548571D01*
X109430142Y-103548571D01*
X109430142Y-102048571D01*
X109930142Y-102048571D01*
X110073000Y-102120000D01*
X110144428Y-102191428D01*
X110215857Y-102334285D01*
X110215857Y-102477142D01*
X110144428Y-102620000D01*
X110073000Y-102691428D01*
X109930142Y-102762857D01*
X109430142Y-102762857D01*
X110930142Y-103548571D02*
X110930142Y-102048571D01*
X111501571Y-102048571D01*
X111644428Y-102120000D01*
X111715857Y-102191428D01*
X111787285Y-102334285D01*
X111787285Y-102548571D01*
X111715857Y-102691428D01*
X111644428Y-102762857D01*
X111501571Y-102834285D01*
X110930142Y-102834285D01*
X107858714Y-101008571D02*
X107858714Y-99508571D01*
X107858714Y-100222857D02*
X108715857Y-100222857D01*
X108715857Y-101008571D02*
X108715857Y-99508571D01*
X110287285Y-100865714D02*
X110215857Y-100937142D01*
X110001571Y-101008571D01*
X109858714Y-101008571D01*
X109644428Y-100937142D01*
X109501571Y-100794285D01*
X109430142Y-100651428D01*
X109358714Y-100365714D01*
X109358714Y-100151428D01*
X109430142Y-99865714D01*
X109501571Y-99722857D01*
X109644428Y-99580000D01*
X109858714Y-99508571D01*
X110001571Y-99508571D01*
X110215857Y-99580000D01*
X110287285Y-99651428D01*
X110930142Y-101008571D02*
X110930142Y-99508571D01*
X111501571Y-99508571D01*
X111644428Y-99580000D01*
X111715857Y-99651428D01*
X111787285Y-99794285D01*
X111787285Y-100008571D01*
X111715857Y-100151428D01*
X111644428Y-100222857D01*
X111501571Y-100294285D01*
X110930142Y-100294285D01*
X108215857Y-98040000D02*
X108930142Y-98040000D01*
X108073000Y-98468571D02*
X108573000Y-96968571D01*
X109073000Y-98468571D01*
X109430142Y-96968571D02*
X110430142Y-98468571D01*
X110430142Y-96968571D02*
X109430142Y-98468571D01*
X111787285Y-98468571D02*
X110930142Y-98468571D01*
X111358714Y-98468571D02*
X111358714Y-96968571D01*
X111215857Y-97182857D01*
X111073000Y-97325714D01*
X110930142Y-97397142D01*
X108644428Y-95142857D02*
X108858714Y-95214285D01*
X108930142Y-95285714D01*
X109001571Y-95428571D01*
X109001571Y-95642857D01*
X108930142Y-95785714D01*
X108858714Y-95857142D01*
X108715857Y-95928571D01*
X108144428Y-95928571D01*
X108144428Y-94428571D01*
X108644428Y-94428571D01*
X108787285Y-94500000D01*
X108858714Y-94571428D01*
X108930142Y-94714285D01*
X108930142Y-94857142D01*
X108858714Y-95000000D01*
X108787285Y-95071428D01*
X108644428Y-95142857D01*
X108144428Y-95142857D01*
X110144428Y-95142857D02*
X109644428Y-95142857D01*
X109644428Y-95928571D02*
X109644428Y-94428571D01*
X110358714Y-94428571D01*
X111430142Y-95142857D02*
X111644428Y-95214285D01*
X111715857Y-95285714D01*
X111787285Y-95428571D01*
X111787285Y-95642857D01*
X111715857Y-95785714D01*
X111644428Y-95857142D01*
X111501571Y-95928571D01*
X110930142Y-95928571D01*
X110930142Y-94428571D01*
X111430142Y-94428571D01*
X111573000Y-94500000D01*
X111644428Y-94571428D01*
X111715857Y-94714285D01*
X111715857Y-94857142D01*
X111644428Y-95000000D01*
X111573000Y-95071428D01*
X111430142Y-95142857D01*
X110930142Y-95142857D01*
X108644428Y-91960000D02*
X108501571Y-91888571D01*
X108287285Y-91888571D01*
X108073000Y-91960000D01*
X107930142Y-92102857D01*
X107858714Y-92245714D01*
X107787285Y-92531428D01*
X107787285Y-92745714D01*
X107858714Y-93031428D01*
X107930142Y-93174285D01*
X108073000Y-93317142D01*
X108287285Y-93388571D01*
X108430142Y-93388571D01*
X108644428Y-93317142D01*
X108715857Y-93245714D01*
X108715857Y-92745714D01*
X108430142Y-92745714D01*
X109358714Y-93388571D02*
X109358714Y-91888571D01*
X110215857Y-93388571D01*
X110215857Y-91888571D01*
X110930142Y-93388571D02*
X110930142Y-91888571D01*
X111287285Y-91888571D01*
X111501571Y-91960000D01*
X111644428Y-92102857D01*
X111715857Y-92245714D01*
X111787285Y-92531428D01*
X111787285Y-92745714D01*
X111715857Y-93031428D01*
X111644428Y-93174285D01*
X111501571Y-93317142D01*
X111287285Y-93388571D01*
X110930142Y-93388571D01*
X110573000Y-89348571D02*
X109858714Y-89348571D01*
X109787285Y-90062857D01*
X109858714Y-89991428D01*
X110001571Y-89920000D01*
X110358714Y-89920000D01*
X110501571Y-89991428D01*
X110573000Y-90062857D01*
X110644428Y-90205714D01*
X110644428Y-90562857D01*
X110573000Y-90705714D01*
X110501571Y-90777142D01*
X110358714Y-90848571D01*
X110001571Y-90848571D01*
X109858714Y-90777142D01*
X109787285Y-90705714D01*
X111144428Y-89848571D02*
X111501571Y-90848571D01*
X111858714Y-89848571D01*
X161417142Y-131838000D02*
X161274285Y-131766571D01*
X161060000Y-131766571D01*
X160845714Y-131838000D01*
X160702857Y-131980857D01*
X160631428Y-132123714D01*
X160560000Y-132409428D01*
X160560000Y-132623714D01*
X160631428Y-132909428D01*
X160702857Y-133052285D01*
X160845714Y-133195142D01*
X161060000Y-133266571D01*
X161202857Y-133266571D01*
X161417142Y-133195142D01*
X161488571Y-133123714D01*
X161488571Y-132623714D01*
X161202857Y-132623714D01*
X162131428Y-133266571D02*
X162131428Y-131766571D01*
X162988571Y-133266571D01*
X162988571Y-131766571D01*
X163702857Y-133266571D02*
X163702857Y-131766571D01*
X164060000Y-131766571D01*
X164274285Y-131838000D01*
X164417142Y-131980857D01*
X164488571Y-132123714D01*
X164560000Y-132409428D01*
X164560000Y-132623714D01*
X164488571Y-132909428D01*
X164417142Y-133052285D01*
X164274285Y-133195142D01*
X164060000Y-133266571D01*
X163702857Y-133266571D01*
X167425714Y-131766571D02*
X166711428Y-131766571D01*
X166640000Y-132480857D01*
X166711428Y-132409428D01*
X166854285Y-132338000D01*
X167211428Y-132338000D01*
X167354285Y-132409428D01*
X167425714Y-132480857D01*
X167497142Y-132623714D01*
X167497142Y-132980857D01*
X167425714Y-133123714D01*
X167354285Y-133195142D01*
X167211428Y-133266571D01*
X166854285Y-133266571D01*
X166711428Y-133195142D01*
X166640000Y-133123714D01*
X167997142Y-132266571D02*
X168354285Y-133266571D01*
X168711428Y-132266571D01*
X157122857Y-132838000D02*
X157837142Y-132838000D01*
X156980000Y-133266571D02*
X157480000Y-131766571D01*
X157980000Y-133266571D01*
X152507142Y-132480857D02*
X152721428Y-132552285D01*
X152792857Y-132623714D01*
X152864285Y-132766571D01*
X152864285Y-132980857D01*
X152792857Y-133123714D01*
X152721428Y-133195142D01*
X152578571Y-133266571D01*
X152007142Y-133266571D01*
X152007142Y-131766571D01*
X152507142Y-131766571D01*
X152650000Y-131838000D01*
X152721428Y-131909428D01*
X152792857Y-132052285D01*
X152792857Y-132195142D01*
X152721428Y-132338000D01*
X152650000Y-132409428D01*
X152507142Y-132480857D01*
X152007142Y-132480857D01*
X147530285Y-133123714D02*
X147458857Y-133195142D01*
X147244571Y-133266571D01*
X147101714Y-133266571D01*
X146887428Y-133195142D01*
X146744571Y-133052285D01*
X146673142Y-132909428D01*
X146601714Y-132623714D01*
X146601714Y-132409428D01*
X146673142Y-132123714D01*
X146744571Y-131980857D01*
X146887428Y-131838000D01*
X147101714Y-131766571D01*
X147244571Y-131766571D01*
X147458857Y-131838000D01*
X147530285Y-131909428D01*
X149988000Y-91267333D02*
X150940380Y-91267333D01*
X149797523Y-91838761D02*
X150464190Y-89838761D01*
X151130857Y-91838761D01*
X152083238Y-91838761D02*
X151892761Y-91743523D01*
X151797523Y-91553047D01*
X151797523Y-89838761D01*
X153607047Y-91743523D02*
X153416571Y-91838761D01*
X153035619Y-91838761D01*
X152845142Y-91743523D01*
X152749904Y-91553047D01*
X152749904Y-90791142D01*
X152845142Y-90600666D01*
X153035619Y-90505428D01*
X153416571Y-90505428D01*
X153607047Y-90600666D01*
X153702285Y-90791142D01*
X153702285Y-90981619D01*
X152749904Y-91172095D01*
X154368952Y-91838761D02*
X155416571Y-90505428D01*
X154368952Y-90505428D02*
X155416571Y-91838761D01*
X157607047Y-91743523D02*
X157892761Y-91838761D01*
X158368952Y-91838761D01*
X158559428Y-91743523D01*
X158654666Y-91648285D01*
X158749904Y-91457809D01*
X158749904Y-91267333D01*
X158654666Y-91076857D01*
X158559428Y-90981619D01*
X158368952Y-90886380D01*
X157988000Y-90791142D01*
X157797523Y-90695904D01*
X157702285Y-90600666D01*
X157607047Y-90410190D01*
X157607047Y-90219714D01*
X157702285Y-90029238D01*
X157797523Y-89934000D01*
X157988000Y-89838761D01*
X158464190Y-89838761D01*
X158749904Y-89934000D01*
X159607047Y-91838761D02*
X159607047Y-90505428D01*
X159607047Y-89838761D02*
X159511809Y-89934000D01*
X159607047Y-90029238D01*
X159702285Y-89934000D01*
X159607047Y-89838761D01*
X159607047Y-90029238D01*
X160559428Y-91838761D02*
X160559428Y-90505428D01*
X160559428Y-90695904D02*
X160654666Y-90600666D01*
X160845142Y-90505428D01*
X161130857Y-90505428D01*
X161321333Y-90600666D01*
X161416571Y-90791142D01*
X161416571Y-91838761D01*
X161416571Y-90791142D02*
X161511809Y-90600666D01*
X161702285Y-90505428D01*
X161988000Y-90505428D01*
X162178476Y-90600666D01*
X162273714Y-90791142D01*
X162273714Y-91838761D01*
X163511809Y-91838761D02*
X163321333Y-91743523D01*
X163226095Y-91648285D01*
X163130857Y-91457809D01*
X163130857Y-90886380D01*
X163226095Y-90695904D01*
X163321333Y-90600666D01*
X163511809Y-90505428D01*
X163797523Y-90505428D01*
X163988000Y-90600666D01*
X164083238Y-90695904D01*
X164178476Y-90886380D01*
X164178476Y-91457809D01*
X164083238Y-91648285D01*
X163988000Y-91743523D01*
X163797523Y-91838761D01*
X163511809Y-91838761D01*
X165035619Y-90505428D02*
X165035619Y-91838761D01*
X165035619Y-90695904D02*
X165130857Y-90600666D01*
X165321333Y-90505428D01*
X165607047Y-90505428D01*
X165797523Y-90600666D01*
X165892761Y-90791142D01*
X165892761Y-91838761D01*
X150559428Y-93329238D02*
X150654666Y-93234000D01*
X150845142Y-93138761D01*
X151321333Y-93138761D01*
X151511809Y-93234000D01*
X151607047Y-93329238D01*
X151702285Y-93519714D01*
X151702285Y-93710190D01*
X151607047Y-93995904D01*
X150464190Y-95138761D01*
X151702285Y-95138761D01*
X153988000Y-93043523D02*
X152273714Y-95614952D01*
X154464190Y-93138761D02*
X155797523Y-93138761D01*
X154940380Y-95138761D01*
X157988000Y-93043523D02*
X156273714Y-95614952D01*
X158559428Y-93329238D02*
X158654666Y-93234000D01*
X158845142Y-93138761D01*
X159321333Y-93138761D01*
X159511809Y-93234000D01*
X159607047Y-93329238D01*
X159702285Y-93519714D01*
X159702285Y-93710190D01*
X159607047Y-93995904D01*
X158464190Y-95138761D01*
X159702285Y-95138761D01*
X160940380Y-93138761D02*
X161130857Y-93138761D01*
X161321333Y-93234000D01*
X161416571Y-93329238D01*
X161511809Y-93519714D01*
X161607047Y-93900666D01*
X161607047Y-94376857D01*
X161511809Y-94757809D01*
X161416571Y-94948285D01*
X161321333Y-95043523D01*
X161130857Y-95138761D01*
X160940380Y-95138761D01*
X160749904Y-95043523D01*
X160654666Y-94948285D01*
X160559428Y-94757809D01*
X160464190Y-94376857D01*
X160464190Y-93900666D01*
X160559428Y-93519714D01*
X160654666Y-93329238D01*
X160749904Y-93234000D01*
X160940380Y-93138761D01*
X163511809Y-95138761D02*
X162368952Y-95138761D01*
X162940380Y-95138761D02*
X162940380Y-93138761D01*
X162749904Y-93424476D01*
X162559428Y-93614952D01*
X162368952Y-93710190D01*
X164464190Y-95138761D02*
X164845142Y-95138761D01*
X165035619Y-95043523D01*
X165130857Y-94948285D01*
X165321333Y-94662571D01*
X165416571Y-94281619D01*
X165416571Y-93519714D01*
X165321333Y-93329238D01*
X165226095Y-93234000D01*
X165035619Y-93138761D01*
X164654666Y-93138761D01*
X164464190Y-93234000D01*
X164368952Y-93329238D01*
X164273714Y-93519714D01*
X164273714Y-93995904D01*
X164368952Y-94186380D01*
X164464190Y-94281619D01*
X164654666Y-94376857D01*
X165035619Y-94376857D01*
X165226095Y-94281619D01*
X165321333Y-94186380D01*
X165416571Y-93995904D01*
X154797523Y-98438761D02*
X154130857Y-97486380D01*
X153654666Y-98438761D02*
X153654666Y-96438761D01*
X154416571Y-96438761D01*
X154607047Y-96534000D01*
X154702285Y-96629238D01*
X154797523Y-96819714D01*
X154797523Y-97105428D01*
X154702285Y-97295904D01*
X154607047Y-97391142D01*
X154416571Y-97486380D01*
X153654666Y-97486380D01*
X156416571Y-98343523D02*
X156226095Y-98438761D01*
X155845142Y-98438761D01*
X155654666Y-98343523D01*
X155559428Y-98153047D01*
X155559428Y-97391142D01*
X155654666Y-97200666D01*
X155845142Y-97105428D01*
X156226095Y-97105428D01*
X156416571Y-97200666D01*
X156511809Y-97391142D01*
X156511809Y-97581619D01*
X155559428Y-97772095D01*
X157178476Y-97105428D02*
X157654666Y-98438761D01*
X158130857Y-97105428D01*
X158892761Y-98248285D02*
X158988000Y-98343523D01*
X158892761Y-98438761D01*
X158797523Y-98343523D01*
X158892761Y-98248285D01*
X158892761Y-98438761D01*
X162416571Y-98438761D02*
X161273714Y-98438761D01*
X161845142Y-98438761D02*
X161845142Y-96438761D01*
X161654666Y-96724476D01*
X161464190Y-96914952D01*
X161273714Y-97010190D01*
D11*
G04 #@! TO.C,J3*
X138490000Y-137330000D02*
X123130000Y-137330000D01*
X123130000Y-137330000D02*
X123130000Y-139990000D01*
X123130000Y-139990000D02*
X138490000Y-139990000D01*
X138490000Y-139990000D02*
X138490000Y-137330000D01*
X137540000Y-139990000D02*
X137540000Y-145990000D01*
X137540000Y-145990000D02*
X136780000Y-145990000D01*
X136780000Y-145990000D02*
X136780000Y-139990000D01*
X137480000Y-139990000D02*
X137480000Y-145990000D01*
X137360000Y-139990000D02*
X137360000Y-145990000D01*
X137240000Y-139990000D02*
X137240000Y-145990000D01*
X137120000Y-139990000D02*
X137120000Y-145990000D01*
X137000000Y-139990000D02*
X137000000Y-145990000D01*
X136880000Y-139990000D02*
X136880000Y-145990000D01*
X137540000Y-137000000D02*
X137540000Y-137330000D01*
X136780000Y-137000000D02*
X136780000Y-137330000D01*
X135890000Y-137330000D02*
X135890000Y-139990000D01*
X135000000Y-139990000D02*
X135000000Y-145990000D01*
X135000000Y-145990000D02*
X134240000Y-145990000D01*
X134240000Y-145990000D02*
X134240000Y-139990000D01*
X135000000Y-136932929D02*
X135000000Y-137330000D01*
X134240000Y-136932929D02*
X134240000Y-137330000D01*
X133350000Y-137330000D02*
X133350000Y-139990000D01*
X132460000Y-139990000D02*
X132460000Y-145990000D01*
X132460000Y-145990000D02*
X131700000Y-145990000D01*
X131700000Y-145990000D02*
X131700000Y-139990000D01*
X132460000Y-136932929D02*
X132460000Y-137330000D01*
X131700000Y-136932929D02*
X131700000Y-137330000D01*
X130810000Y-137330000D02*
X130810000Y-139990000D01*
X129920000Y-139990000D02*
X129920000Y-145990000D01*
X129920000Y-145990000D02*
X129160000Y-145990000D01*
X129160000Y-145990000D02*
X129160000Y-139990000D01*
X129920000Y-136932929D02*
X129920000Y-137330000D01*
X129160000Y-136932929D02*
X129160000Y-137330000D01*
X128270000Y-137330000D02*
X128270000Y-139990000D01*
X127380000Y-139990000D02*
X127380000Y-145990000D01*
X127380000Y-145990000D02*
X126620000Y-145990000D01*
X126620000Y-145990000D02*
X126620000Y-139990000D01*
X127380000Y-136932929D02*
X127380000Y-137330000D01*
X126620000Y-136932929D02*
X126620000Y-137330000D01*
X125730000Y-137330000D02*
X125730000Y-139990000D01*
X124840000Y-139990000D02*
X124840000Y-145990000D01*
X124840000Y-145990000D02*
X124080000Y-145990000D01*
X124080000Y-145990000D02*
X124080000Y-139990000D01*
X124840000Y-136932929D02*
X124840000Y-137330000D01*
X124080000Y-136932929D02*
X124080000Y-137330000D01*
X137160000Y-134620000D02*
X138430000Y-134620000D01*
X138430000Y-134620000D02*
X138430000Y-135890000D01*
G04 #@! TO.C,C1*
X120930000Y-84100000D02*
X120930000Y-80250000D01*
X120930000Y-73380000D02*
X120930000Y-77230000D01*
X111274437Y-73380000D02*
X120930000Y-73380000D01*
X111274437Y-84100000D02*
X120930000Y-84100000D01*
X110210000Y-83035563D02*
X110210000Y-80250000D01*
X110210000Y-74444437D02*
X110210000Y-77230000D01*
X110210000Y-74444437D02*
X111274437Y-73380000D01*
X110210000Y-83035563D02*
X111274437Y-84100000D01*
X108720000Y-75980000D02*
X109970000Y-75980000D01*
X109345000Y-75355000D02*
X109345000Y-76605000D01*
G04 #@! TO.C,C2*
X123630000Y-119380000D02*
G75*
G03X123630000Y-119380000I-8120000J0D01*
G01*
X115510000Y-111299000D02*
X115510000Y-127461000D01*
X115550000Y-111300000D02*
X115550000Y-127460000D01*
X115590000Y-111300000D02*
X115590000Y-127460000D01*
X115630000Y-111300000D02*
X115630000Y-127460000D01*
X115670000Y-111301000D02*
X115670000Y-127459000D01*
X115710000Y-111302000D02*
X115710000Y-127458000D01*
X115750000Y-111303000D02*
X115750000Y-127457000D01*
X115790000Y-111304000D02*
X115790000Y-127456000D01*
X115830000Y-111306000D02*
X115830000Y-127454000D01*
X115870000Y-111307000D02*
X115870000Y-127453000D01*
X115910000Y-111309000D02*
X115910000Y-127451000D01*
X115950000Y-111311000D02*
X115950000Y-127449000D01*
X115990000Y-111314000D02*
X115990000Y-127446000D01*
X116030000Y-111316000D02*
X116030000Y-127444000D01*
X116070000Y-111319000D02*
X116070000Y-127441000D01*
X116110000Y-111322000D02*
X116110000Y-127438000D01*
X116150000Y-111325000D02*
X116150000Y-127435000D01*
X116190000Y-111328000D02*
X116190000Y-127432000D01*
X116231000Y-111331000D02*
X116231000Y-127429000D01*
X116271000Y-111335000D02*
X116271000Y-127425000D01*
X116311000Y-111339000D02*
X116311000Y-127421000D01*
X116351000Y-111343000D02*
X116351000Y-127417000D01*
X116391000Y-111347000D02*
X116391000Y-127413000D01*
X116431000Y-111352000D02*
X116431000Y-127408000D01*
X116471000Y-111356000D02*
X116471000Y-127404000D01*
X116511000Y-111361000D02*
X116511000Y-127399000D01*
X116551000Y-111366000D02*
X116551000Y-127394000D01*
X116591000Y-111372000D02*
X116591000Y-127388000D01*
X116631000Y-111377000D02*
X116631000Y-127383000D01*
X116671000Y-111383000D02*
X116671000Y-127377000D01*
X116711000Y-111389000D02*
X116711000Y-127371000D01*
X116751000Y-111395000D02*
X116751000Y-127365000D01*
X116791000Y-111401000D02*
X116791000Y-127359000D01*
X116831000Y-111408000D02*
X116831000Y-127352000D01*
X116871000Y-111414000D02*
X116871000Y-127346000D01*
X116911000Y-111421000D02*
X116911000Y-127339000D01*
X116951000Y-111428000D02*
X116951000Y-127332000D01*
X116991000Y-111436000D02*
X116991000Y-127324000D01*
X117031000Y-111443000D02*
X117031000Y-127317000D01*
X117071000Y-111451000D02*
X117071000Y-127309000D01*
X117111000Y-111459000D02*
X117111000Y-127301000D01*
X117151000Y-111467000D02*
X117151000Y-127293000D01*
X117191000Y-111475000D02*
X117191000Y-127285000D01*
X117231000Y-111484000D02*
X117231000Y-127276000D01*
X117271000Y-111493000D02*
X117271000Y-127267000D01*
X117311000Y-111502000D02*
X117311000Y-127258000D01*
X117351000Y-111511000D02*
X117351000Y-127249000D01*
X117391000Y-111520000D02*
X117391000Y-127240000D01*
X117431000Y-111530000D02*
X117431000Y-127230000D01*
X117471000Y-111540000D02*
X117471000Y-127220000D01*
X117511000Y-111550000D02*
X117511000Y-127210000D01*
X117551000Y-111560000D02*
X117551000Y-127200000D01*
X117591000Y-111570000D02*
X117591000Y-127190000D01*
X117631000Y-111581000D02*
X117631000Y-127179000D01*
X117671000Y-111592000D02*
X117671000Y-127168000D01*
X117711000Y-111603000D02*
X117711000Y-127157000D01*
X117751000Y-111615000D02*
X117751000Y-127145000D01*
X117791000Y-111626000D02*
X117791000Y-127134000D01*
X117831000Y-111638000D02*
X117831000Y-117940000D01*
X117831000Y-120820000D02*
X117831000Y-127122000D01*
X117871000Y-111650000D02*
X117871000Y-117940000D01*
X117871000Y-120820000D02*
X117871000Y-127110000D01*
X117911000Y-111662000D02*
X117911000Y-117940000D01*
X117911000Y-120820000D02*
X117911000Y-127098000D01*
X117951000Y-111675000D02*
X117951000Y-117940000D01*
X117951000Y-120820000D02*
X117951000Y-127085000D01*
X117991000Y-111687000D02*
X117991000Y-117940000D01*
X117991000Y-120820000D02*
X117991000Y-127073000D01*
X118031000Y-111700000D02*
X118031000Y-117940000D01*
X118031000Y-120820000D02*
X118031000Y-127060000D01*
X118071000Y-111714000D02*
X118071000Y-117940000D01*
X118071000Y-120820000D02*
X118071000Y-127046000D01*
X118111000Y-111727000D02*
X118111000Y-117940000D01*
X118111000Y-120820000D02*
X118111000Y-127033000D01*
X118151000Y-111741000D02*
X118151000Y-117940000D01*
X118151000Y-120820000D02*
X118151000Y-127019000D01*
X118191000Y-111755000D02*
X118191000Y-117940000D01*
X118191000Y-120820000D02*
X118191000Y-127005000D01*
X118231000Y-111769000D02*
X118231000Y-117940000D01*
X118231000Y-120820000D02*
X118231000Y-126991000D01*
X118271000Y-111783000D02*
X118271000Y-117940000D01*
X118271000Y-120820000D02*
X118271000Y-126977000D01*
X118311000Y-111798000D02*
X118311000Y-117940000D01*
X118311000Y-120820000D02*
X118311000Y-126962000D01*
X118351000Y-111812000D02*
X118351000Y-117940000D01*
X118351000Y-120820000D02*
X118351000Y-126948000D01*
X118391000Y-111827000D02*
X118391000Y-117940000D01*
X118391000Y-120820000D02*
X118391000Y-126933000D01*
X118431000Y-111843000D02*
X118431000Y-117940000D01*
X118431000Y-120820000D02*
X118431000Y-126917000D01*
X118471000Y-111858000D02*
X118471000Y-117940000D01*
X118471000Y-120820000D02*
X118471000Y-126902000D01*
X118511000Y-111874000D02*
X118511000Y-117940000D01*
X118511000Y-120820000D02*
X118511000Y-126886000D01*
X118551000Y-111890000D02*
X118551000Y-117940000D01*
X118551000Y-120820000D02*
X118551000Y-126870000D01*
X118591000Y-111906000D02*
X118591000Y-117940000D01*
X118591000Y-120820000D02*
X118591000Y-126854000D01*
X118631000Y-111923000D02*
X118631000Y-117940000D01*
X118631000Y-120820000D02*
X118631000Y-126837000D01*
X118671000Y-111940000D02*
X118671000Y-117940000D01*
X118671000Y-120820000D02*
X118671000Y-126820000D01*
X118711000Y-111957000D02*
X118711000Y-117940000D01*
X118711000Y-120820000D02*
X118711000Y-126803000D01*
X118751000Y-111974000D02*
X118751000Y-117940000D01*
X118751000Y-120820000D02*
X118751000Y-126786000D01*
X118791000Y-111991000D02*
X118791000Y-117940000D01*
X118791000Y-120820000D02*
X118791000Y-126769000D01*
X118831000Y-112009000D02*
X118831000Y-117940000D01*
X118831000Y-120820000D02*
X118831000Y-126751000D01*
X118871000Y-112027000D02*
X118871000Y-117940000D01*
X118871000Y-120820000D02*
X118871000Y-126733000D01*
X118911000Y-112046000D02*
X118911000Y-117940000D01*
X118911000Y-120820000D02*
X118911000Y-126714000D01*
X118951000Y-112064000D02*
X118951000Y-117940000D01*
X118951000Y-120820000D02*
X118951000Y-126696000D01*
X118991000Y-112083000D02*
X118991000Y-117940000D01*
X118991000Y-120820000D02*
X118991000Y-126677000D01*
X119031000Y-112102000D02*
X119031000Y-117940000D01*
X119031000Y-120820000D02*
X119031000Y-126658000D01*
X119071000Y-112122000D02*
X119071000Y-117940000D01*
X119071000Y-120820000D02*
X119071000Y-126638000D01*
X119111000Y-112141000D02*
X119111000Y-117940000D01*
X119111000Y-120820000D02*
X119111000Y-126619000D01*
X119151000Y-112161000D02*
X119151000Y-117940000D01*
X119151000Y-120820000D02*
X119151000Y-126599000D01*
X119191000Y-112181000D02*
X119191000Y-117940000D01*
X119191000Y-120820000D02*
X119191000Y-126579000D01*
X119231000Y-112202000D02*
X119231000Y-117940000D01*
X119231000Y-120820000D02*
X119231000Y-126558000D01*
X119271000Y-112223000D02*
X119271000Y-117940000D01*
X119271000Y-120820000D02*
X119271000Y-126537000D01*
X119311000Y-112244000D02*
X119311000Y-117940000D01*
X119311000Y-120820000D02*
X119311000Y-126516000D01*
X119351000Y-112265000D02*
X119351000Y-117940000D01*
X119351000Y-120820000D02*
X119351000Y-126495000D01*
X119391000Y-112286000D02*
X119391000Y-117940000D01*
X119391000Y-120820000D02*
X119391000Y-126474000D01*
X119431000Y-112308000D02*
X119431000Y-117940000D01*
X119431000Y-120820000D02*
X119431000Y-126452000D01*
X119471000Y-112331000D02*
X119471000Y-117940000D01*
X119471000Y-120820000D02*
X119471000Y-126429000D01*
X119511000Y-112353000D02*
X119511000Y-117940000D01*
X119511000Y-120820000D02*
X119511000Y-126407000D01*
X119551000Y-112376000D02*
X119551000Y-117940000D01*
X119551000Y-120820000D02*
X119551000Y-126384000D01*
X119591000Y-112399000D02*
X119591000Y-117940000D01*
X119591000Y-120820000D02*
X119591000Y-126361000D01*
X119631000Y-112422000D02*
X119631000Y-117940000D01*
X119631000Y-120820000D02*
X119631000Y-126338000D01*
X119671000Y-112446000D02*
X119671000Y-117940000D01*
X119671000Y-120820000D02*
X119671000Y-126314000D01*
X119711000Y-112470000D02*
X119711000Y-117940000D01*
X119711000Y-120820000D02*
X119711000Y-126290000D01*
X119751000Y-112494000D02*
X119751000Y-117940000D01*
X119751000Y-120820000D02*
X119751000Y-126266000D01*
X119791000Y-112519000D02*
X119791000Y-117940000D01*
X119791000Y-120820000D02*
X119791000Y-126241000D01*
X119831000Y-112544000D02*
X119831000Y-117940000D01*
X119831000Y-120820000D02*
X119831000Y-126216000D01*
X119871000Y-112569000D02*
X119871000Y-117940000D01*
X119871000Y-120820000D02*
X119871000Y-126191000D01*
X119911000Y-112595000D02*
X119911000Y-117940000D01*
X119911000Y-120820000D02*
X119911000Y-126165000D01*
X119951000Y-112621000D02*
X119951000Y-117940000D01*
X119951000Y-120820000D02*
X119951000Y-126139000D01*
X119991000Y-112647000D02*
X119991000Y-117940000D01*
X119991000Y-120820000D02*
X119991000Y-126113000D01*
X120031000Y-112674000D02*
X120031000Y-117940000D01*
X120031000Y-120820000D02*
X120031000Y-126086000D01*
X120071000Y-112701000D02*
X120071000Y-117940000D01*
X120071000Y-120820000D02*
X120071000Y-126059000D01*
X120111000Y-112728000D02*
X120111000Y-117940000D01*
X120111000Y-120820000D02*
X120111000Y-126032000D01*
X120151000Y-112756000D02*
X120151000Y-117940000D01*
X120151000Y-120820000D02*
X120151000Y-126004000D01*
X120191000Y-112784000D02*
X120191000Y-117940000D01*
X120191000Y-120820000D02*
X120191000Y-125976000D01*
X120231000Y-112812000D02*
X120231000Y-117940000D01*
X120231000Y-120820000D02*
X120231000Y-125948000D01*
X120271000Y-112841000D02*
X120271000Y-117940000D01*
X120271000Y-120820000D02*
X120271000Y-125919000D01*
X120311000Y-112870000D02*
X120311000Y-117940000D01*
X120311000Y-120820000D02*
X120311000Y-125890000D01*
X120351000Y-112900000D02*
X120351000Y-117940000D01*
X120351000Y-120820000D02*
X120351000Y-125860000D01*
X120391000Y-112930000D02*
X120391000Y-117940000D01*
X120391000Y-120820000D02*
X120391000Y-125830000D01*
X120431000Y-112960000D02*
X120431000Y-117940000D01*
X120431000Y-120820000D02*
X120431000Y-125800000D01*
X120471000Y-112990000D02*
X120471000Y-117940000D01*
X120471000Y-120820000D02*
X120471000Y-125770000D01*
X120511000Y-113022000D02*
X120511000Y-117940000D01*
X120511000Y-120820000D02*
X120511000Y-125738000D01*
X120551000Y-113053000D02*
X120551000Y-117940000D01*
X120551000Y-120820000D02*
X120551000Y-125707000D01*
X120591000Y-113085000D02*
X120591000Y-117940000D01*
X120591000Y-120820000D02*
X120591000Y-125675000D01*
X120631000Y-113117000D02*
X120631000Y-117940000D01*
X120631000Y-120820000D02*
X120631000Y-125643000D01*
X120671000Y-113150000D02*
X120671000Y-117940000D01*
X120671000Y-120820000D02*
X120671000Y-125610000D01*
X120711000Y-113183000D02*
X120711000Y-125577000D01*
X120751000Y-113217000D02*
X120751000Y-125543000D01*
X120791000Y-113251000D02*
X120791000Y-125509000D01*
X120831000Y-113285000D02*
X120831000Y-125475000D01*
X120871000Y-113320000D02*
X120871000Y-125440000D01*
X120911000Y-113355000D02*
X120911000Y-125405000D01*
X120951000Y-113391000D02*
X120951000Y-125369000D01*
X120991000Y-113428000D02*
X120991000Y-125332000D01*
X121031000Y-113464000D02*
X121031000Y-125296000D01*
X121071000Y-113502000D02*
X121071000Y-125258000D01*
X121111000Y-113540000D02*
X121111000Y-125220000D01*
X121151000Y-113578000D02*
X121151000Y-125182000D01*
X121191000Y-113617000D02*
X121191000Y-125143000D01*
X121231000Y-113656000D02*
X121231000Y-125104000D01*
X121271000Y-113696000D02*
X121271000Y-125064000D01*
X121311000Y-113737000D02*
X121311000Y-125023000D01*
X121351000Y-113778000D02*
X121351000Y-124982000D01*
X121391000Y-113820000D02*
X121391000Y-124940000D01*
X121431000Y-113862000D02*
X121431000Y-124898000D01*
X121471000Y-113905000D02*
X121471000Y-124855000D01*
X121511000Y-113948000D02*
X121511000Y-124812000D01*
X121551000Y-113992000D02*
X121551000Y-124768000D01*
X121591000Y-114037000D02*
X121591000Y-124723000D01*
X121631000Y-114083000D02*
X121631000Y-124677000D01*
X121671000Y-114129000D02*
X121671000Y-124631000D01*
X121711000Y-114176000D02*
X121711000Y-124584000D01*
X121751000Y-114224000D02*
X121751000Y-124536000D01*
X121791000Y-114272000D02*
X121791000Y-124488000D01*
X121831000Y-114321000D02*
X121831000Y-124439000D01*
X121871000Y-114371000D02*
X121871000Y-124389000D01*
X121911000Y-114422000D02*
X121911000Y-124338000D01*
X121951000Y-114474000D02*
X121951000Y-124286000D01*
X121991000Y-114526000D02*
X121991000Y-124234000D01*
X122031000Y-114580000D02*
X122031000Y-124180000D01*
X122071000Y-114634000D02*
X122071000Y-124126000D01*
X122111000Y-114689000D02*
X122111000Y-124071000D01*
X122151000Y-114746000D02*
X122151000Y-124014000D01*
X122191000Y-114803000D02*
X122191000Y-123957000D01*
X122231000Y-114861000D02*
X122231000Y-123899000D01*
X122271000Y-114921000D02*
X122271000Y-123839000D01*
X122311000Y-114982000D02*
X122311000Y-123778000D01*
X122351000Y-115044000D02*
X122351000Y-123716000D01*
X122391000Y-115107000D02*
X122391000Y-123653000D01*
X122431000Y-115171000D02*
X122431000Y-123589000D01*
X122471000Y-115237000D02*
X122471000Y-123523000D01*
X122511000Y-115304000D02*
X122511000Y-123456000D01*
X122551000Y-115373000D02*
X122551000Y-123387000D01*
X122591000Y-115444000D02*
X122591000Y-123316000D01*
X122631000Y-115516000D02*
X122631000Y-123244000D01*
X122671000Y-115590000D02*
X122671000Y-123170000D01*
X122711000Y-115665000D02*
X122711000Y-123095000D01*
X122751000Y-115743000D02*
X122751000Y-123017000D01*
X122791000Y-115823000D02*
X122791000Y-122937000D01*
X122831000Y-115905000D02*
X122831000Y-122855000D01*
X122871000Y-115990000D02*
X122871000Y-122770000D01*
X122911000Y-116077000D02*
X122911000Y-122683000D01*
X122951000Y-116167000D02*
X122951000Y-122593000D01*
X122991000Y-116260000D02*
X122991000Y-122500000D01*
X123031000Y-116356000D02*
X123031000Y-122404000D01*
X123071000Y-116456000D02*
X123071000Y-122304000D01*
X123111000Y-116560000D02*
X123111000Y-122200000D01*
X123151000Y-116669000D02*
X123151000Y-122091000D01*
X123191000Y-116783000D02*
X123191000Y-121977000D01*
X123231000Y-116902000D02*
X123231000Y-121858000D01*
X123271000Y-117029000D02*
X123271000Y-121731000D01*
X123311000Y-117162000D02*
X123311000Y-121598000D01*
X123351000Y-117306000D02*
X123351000Y-121454000D01*
X123391000Y-117460000D02*
X123391000Y-121300000D01*
X123431000Y-117628000D02*
X123431000Y-121132000D01*
X123471000Y-117816000D02*
X123471000Y-120944000D01*
X123511000Y-118029000D02*
X123511000Y-120731000D01*
X123551000Y-118282000D02*
X123551000Y-120478000D01*
X123591000Y-118615000D02*
X123591000Y-120145000D01*
X106820509Y-114825000D02*
X108420509Y-114825000D01*
X107620509Y-114025000D02*
X107620509Y-115625000D01*
G04 #@! TO.C,C3*
X208730000Y-98240000D02*
X208730000Y-95490000D01*
X208730000Y-89720000D02*
X208730000Y-92470000D01*
X201274437Y-89720000D02*
X208730000Y-89720000D01*
X201274437Y-98240000D02*
X208730000Y-98240000D01*
X200210000Y-97175563D02*
X200210000Y-95490000D01*
X200210000Y-90784437D02*
X200210000Y-92470000D01*
X200210000Y-90784437D02*
X201274437Y-89720000D01*
X200210000Y-97175563D02*
X201274437Y-98240000D01*
X198970000Y-91470000D02*
X199970000Y-91470000D01*
X199470000Y-90970000D02*
X199470000Y-91970000D01*
G04 #@! TO.C,C4*
X209730000Y-130990000D02*
X209730000Y-127240000D01*
X209730000Y-120470000D02*
X209730000Y-124220000D01*
X200274437Y-120470000D02*
X209730000Y-120470000D01*
X200274437Y-130990000D02*
X209730000Y-130990000D01*
X199210000Y-129925563D02*
X199210000Y-127240000D01*
X199210000Y-121534437D02*
X199210000Y-124220000D01*
X199210000Y-121534437D02*
X200274437Y-120470000D01*
X199210000Y-129925563D02*
X200274437Y-130990000D01*
X197720000Y-122970000D02*
X198970000Y-122970000D01*
X198345000Y-122345000D02*
X198345000Y-123595000D01*
G04 #@! TO.C,C5*
X170999564Y-75290000D02*
X169795436Y-75290000D01*
X170999564Y-77110000D02*
X169795436Y-77110000D01*
G04 #@! TO.C,C6*
X164715436Y-110850000D02*
X165919564Y-110850000D01*
X164715436Y-112670000D02*
X165919564Y-112670000D01*
G04 #@! TO.C,D1*
X156030000Y-82350000D02*
X156030000Y-85290000D01*
X156030000Y-85290000D02*
X161470000Y-85290000D01*
X161470000Y-85290000D02*
X161470000Y-82350000D01*
X161470000Y-82350000D02*
X156030000Y-82350000D01*
X153740000Y-83820000D02*
X156030000Y-83820000D01*
X163760000Y-83820000D02*
X161470000Y-83820000D01*
X156930000Y-82350000D02*
X156930000Y-85290000D01*
X157050000Y-82350000D02*
X157050000Y-85290000D01*
X156810000Y-82350000D02*
X156810000Y-85290000D01*
G04 #@! TO.C,D2*
X155610000Y-104340000D02*
X155610000Y-101400000D01*
X155370000Y-104340000D02*
X155370000Y-101400000D01*
X155490000Y-104340000D02*
X155490000Y-101400000D01*
X148660000Y-102870000D02*
X150950000Y-102870000D01*
X158680000Y-102870000D02*
X156390000Y-102870000D01*
X150950000Y-104340000D02*
X156390000Y-104340000D01*
X150950000Y-101400000D02*
X150950000Y-104340000D01*
X156390000Y-101400000D02*
X150950000Y-101400000D01*
X156390000Y-104340000D02*
X156390000Y-101400000D01*
G04 #@! TO.C,J2*
X148003318Y-141234756D02*
G75*
G02X147320000Y-141380000I-683318J1534756D01*
G01*
X148855426Y-139016958D02*
G75*
G02X148855000Y-140384000I-1535426J-683042D01*
G01*
X146636958Y-138164574D02*
G75*
G02X148004000Y-138165000I683042J-1535426D01*
G01*
X145784574Y-140383042D02*
G75*
G02X145785000Y-139016000I1535426J683042D01*
G01*
X147348805Y-141380253D02*
G75*
G02X146636000Y-141235000I-28805J1680253D01*
G01*
X154080000Y-139700000D02*
G75*
G03X154080000Y-139700000I-1680000J0D01*
G01*
X159160000Y-139700000D02*
G75*
G03X159160000Y-139700000I-1680000J0D01*
G01*
X164240000Y-139700000D02*
G75*
G03X164240000Y-139700000I-1680000J0D01*
G01*
X169320000Y-139700000D02*
G75*
G03X169320000Y-139700000I-1680000J0D01*
G01*
X144720000Y-143800000D02*
X170240000Y-143800000D01*
X144720000Y-142300000D02*
X170240000Y-142300000D01*
X144720000Y-137399000D02*
X170240000Y-137399000D01*
X144720000Y-134439000D02*
X170240000Y-134439000D01*
X144720000Y-144360000D02*
X170240000Y-144360000D01*
X144720000Y-134439000D02*
X144720000Y-144360000D01*
X170240000Y-134439000D02*
X170240000Y-144360000D01*
X153675000Y-138631000D02*
X153628000Y-138677000D01*
X151366000Y-140939000D02*
X151331000Y-140974000D01*
X153470000Y-138425000D02*
X153435000Y-138461000D01*
X151173000Y-140723000D02*
X151126000Y-140769000D01*
X158755000Y-138631000D02*
X158708000Y-138677000D01*
X156446000Y-140939000D02*
X156411000Y-140974000D01*
X158550000Y-138425000D02*
X158515000Y-138461000D01*
X156253000Y-140723000D02*
X156206000Y-140769000D01*
X163835000Y-138631000D02*
X163788000Y-138677000D01*
X161526000Y-140939000D02*
X161491000Y-140974000D01*
X163630000Y-138425000D02*
X163595000Y-138461000D01*
X161333000Y-140723000D02*
X161286000Y-140769000D01*
X168915000Y-138631000D02*
X168868000Y-138677000D01*
X166606000Y-140939000D02*
X166571000Y-140974000D01*
X168710000Y-138425000D02*
X168675000Y-138461000D01*
X166413000Y-140723000D02*
X166366000Y-140769000D01*
X144480000Y-143860000D02*
X144480000Y-144600000D01*
X144480000Y-144600000D02*
X144980000Y-144600000D01*
G04 #@! TO.C,J4*
X177610000Y-135120000D02*
X178110000Y-134620000D01*
X177610000Y-134120000D02*
X177610000Y-135120000D01*
X178110000Y-134620000D02*
X177610000Y-134120000D01*
X178295000Y-148700000D02*
X193815000Y-148700000D01*
X193815000Y-130740000D02*
X193815000Y-148700000D01*
X193815000Y-130740000D02*
X178295000Y-130740000D01*
X178295000Y-130740000D02*
X178295000Y-148700000D01*
G04 #@! TO.C,L1*
X210220000Y-85140000D02*
X198720000Y-85140000D01*
X210870000Y-84490000D02*
X210870000Y-81740000D01*
X198720000Y-72340000D02*
X210220000Y-72340000D01*
X198070000Y-84490000D02*
X198070000Y-81740000D01*
X210870000Y-75740000D02*
X210870000Y-72990000D01*
X198070000Y-75740000D02*
X198070000Y-72990000D01*
X210870000Y-84490000D02*
G75*
G02X210220000Y-85140000I-650000J0D01*
G01*
X210220000Y-72340000D02*
G75*
G02X210870000Y-72990000I0J-650000D01*
G01*
X198070000Y-72990000D02*
G75*
G02X198720000Y-72340000I650000J0D01*
G01*
X198720000Y-85140000D02*
G75*
G02X198070000Y-84490000I0J650000D01*
G01*
G04 #@! TO.C,L2*
X210220000Y-104090000D02*
G75*
G02X210870000Y-104740000I0J-650000D01*
G01*
X210870000Y-116240000D02*
G75*
G02X210220000Y-116890000I-650000J0D01*
G01*
X198720000Y-116890000D02*
G75*
G02X198070000Y-116240000I0J650000D01*
G01*
X198070000Y-104740000D02*
G75*
G02X198720000Y-104090000I650000J0D01*
G01*
X210870000Y-113490000D02*
X210870000Y-116240000D01*
X198070000Y-113490000D02*
X198070000Y-116240000D01*
X210870000Y-104740000D02*
X210870000Y-107490000D01*
X210220000Y-116890000D02*
X198720000Y-116890000D01*
X198070000Y-104740000D02*
X198070000Y-107490000D01*
X198720000Y-104090000D02*
X210220000Y-104090000D01*
D12*
G04 #@! TO.C,M1*
X193580000Y-28730000D02*
X125580000Y-28730000D01*
X125580000Y-28730000D02*
X125580000Y-127980000D01*
X125580000Y-127980000D02*
X193580000Y-127980000D01*
X193580000Y-127980000D02*
X193580000Y-28730000D01*
D11*
G04 #@! TO.C,R1*
X170055483Y-70410000D02*
X169639517Y-70410000D01*
X170055483Y-71830000D02*
X169639517Y-71830000D01*
G04 #@! TO.C,R2*
X169613733Y-66550000D02*
X169956267Y-66550000D01*
X169613733Y-65530000D02*
X169956267Y-65530000D01*
G04 #@! TO.C,R3*
X164876267Y-122430000D02*
X164533733Y-122430000D01*
X164876267Y-121410000D02*
X164533733Y-121410000D01*
G04 #@! TO.C,R4*
X164559517Y-116130000D02*
X164975483Y-116130000D01*
X164559517Y-117550000D02*
X164975483Y-117550000D01*
G04 #@! TO.C,R5*
X143385483Y-65480000D02*
X142969517Y-65480000D01*
X143385483Y-64060000D02*
X142969517Y-64060000D01*
G04 #@! TO.C,R6*
X142969517Y-73100000D02*
X143385483Y-73100000D01*
X142969517Y-71680000D02*
X143385483Y-71680000D01*
G04 #@! TO.C,R7*
X142969517Y-83110000D02*
X143385483Y-83110000D01*
X142969517Y-84530000D02*
X143385483Y-84530000D01*
G04 #@! TO.C,R8*
X143385483Y-79300000D02*
X142969517Y-79300000D01*
X143385483Y-80720000D02*
X142969517Y-80720000D01*
G04 #@! TO.C,U1*
X153550000Y-71300000D02*
X153550000Y-72800000D01*
X153550000Y-72800000D02*
X154500000Y-72800000D01*
X154500000Y-72800000D02*
X154500000Y-77925000D01*
X163950000Y-71300000D02*
X163950000Y-72800000D01*
X163950000Y-72800000D02*
X163000000Y-72800000D01*
X163000000Y-72800000D02*
X163000000Y-73900000D01*
G04 #@! TO.C,U2*
X149420000Y-115160000D02*
X149420000Y-114060000D01*
X148470000Y-115160000D02*
X149420000Y-115160000D01*
X148470000Y-116660000D02*
X148470000Y-115160000D01*
X157920000Y-115160000D02*
X157920000Y-110035000D01*
X158870000Y-115160000D02*
X157920000Y-115160000D01*
X158870000Y-116660000D02*
X158870000Y-115160000D01*
G04 #@! TO.C,C7*
X142969517Y-94540000D02*
X143385483Y-94540000D01*
X142969517Y-95960000D02*
X143385483Y-95960000D01*
G04 #@! TO.C,C8*
X173260483Y-97080000D02*
X172844517Y-97080000D01*
X173260483Y-98500000D02*
X172844517Y-98500000D01*
G04 #@! TO.C,C9*
X173260483Y-87070000D02*
X172844517Y-87070000D01*
X173260483Y-85650000D02*
X172844517Y-85650000D01*
G04 #@! TO.C,C10*
X142969517Y-69290000D02*
X143385483Y-69290000D01*
X142969517Y-67870000D02*
X143385483Y-67870000D01*
G04 #@! TO.C,C11*
X142969517Y-75490000D02*
X143385483Y-75490000D01*
X142969517Y-76910000D02*
X143385483Y-76910000D01*
G04 #@! TO.C,R9*
X142969517Y-90730000D02*
X143385483Y-90730000D01*
X142969517Y-92150000D02*
X143385483Y-92150000D01*
G04 #@! TO.C,R10*
X142969517Y-88340000D02*
X143385483Y-88340000D01*
X142969517Y-86920000D02*
X143385483Y-86920000D01*
G04 #@! TO.C,R11*
X173260483Y-102310000D02*
X172844517Y-102310000D01*
X173260483Y-100890000D02*
X172844517Y-100890000D01*
G04 #@! TO.C,R12*
X173260483Y-104700000D02*
X172844517Y-104700000D01*
X173260483Y-106120000D02*
X172844517Y-106120000D01*
G04 #@! TO.C,R13*
X173260483Y-94690000D02*
X172844517Y-94690000D01*
X173260483Y-93270000D02*
X172844517Y-93270000D01*
G04 #@! TO.C,R14*
X173260483Y-89460000D02*
X172844517Y-89460000D01*
X173260483Y-90880000D02*
X172844517Y-90880000D01*
G04 #@! TO.C,J3*
D12*
X121586666Y-140676380D02*
X121586666Y-141390666D01*
X121539047Y-141533523D01*
X121443809Y-141628761D01*
X121300952Y-141676380D01*
X121205714Y-141676380D01*
X121967619Y-140676380D02*
X122586666Y-140676380D01*
X122253333Y-141057333D01*
X122396190Y-141057333D01*
X122491428Y-141104952D01*
X122539047Y-141152571D01*
X122586666Y-141247809D01*
X122586666Y-141485904D01*
X122539047Y-141581142D01*
X122491428Y-141628761D01*
X122396190Y-141676380D01*
X122110476Y-141676380D01*
X122015238Y-141628761D01*
X121967619Y-141581142D01*
G04 #@! TO.C,C1*
X115403333Y-72797142D02*
X115355714Y-72844761D01*
X115212857Y-72892380D01*
X115117619Y-72892380D01*
X114974761Y-72844761D01*
X114879523Y-72749523D01*
X114831904Y-72654285D01*
X114784285Y-72463809D01*
X114784285Y-72320952D01*
X114831904Y-72130476D01*
X114879523Y-72035238D01*
X114974761Y-71940000D01*
X115117619Y-71892380D01*
X115212857Y-71892380D01*
X115355714Y-71940000D01*
X115403333Y-71987619D01*
X116355714Y-72892380D02*
X115784285Y-72892380D01*
X116070000Y-72892380D02*
X116070000Y-71892380D01*
X115974761Y-72035238D01*
X115879523Y-72130476D01*
X115784285Y-72178095D01*
G04 #@! TO.C,C2*
X115343333Y-110487142D02*
X115295714Y-110534761D01*
X115152857Y-110582380D01*
X115057619Y-110582380D01*
X114914761Y-110534761D01*
X114819523Y-110439523D01*
X114771904Y-110344285D01*
X114724285Y-110153809D01*
X114724285Y-110010952D01*
X114771904Y-109820476D01*
X114819523Y-109725238D01*
X114914761Y-109630000D01*
X115057619Y-109582380D01*
X115152857Y-109582380D01*
X115295714Y-109630000D01*
X115343333Y-109677619D01*
X115724285Y-109677619D02*
X115771904Y-109630000D01*
X115867142Y-109582380D01*
X116105238Y-109582380D01*
X116200476Y-109630000D01*
X116248095Y-109677619D01*
X116295714Y-109772857D01*
X116295714Y-109868095D01*
X116248095Y-110010952D01*
X115676666Y-110582380D01*
X116295714Y-110582380D01*
G04 #@! TO.C,C3*
X212447142Y-94146666D02*
X212494761Y-94194285D01*
X212542380Y-94337142D01*
X212542380Y-94432380D01*
X212494761Y-94575238D01*
X212399523Y-94670476D01*
X212304285Y-94718095D01*
X212113809Y-94765714D01*
X211970952Y-94765714D01*
X211780476Y-94718095D01*
X211685238Y-94670476D01*
X211590000Y-94575238D01*
X211542380Y-94432380D01*
X211542380Y-94337142D01*
X211590000Y-94194285D01*
X211637619Y-94146666D01*
X211542380Y-93813333D02*
X211542380Y-93194285D01*
X211923333Y-93527619D01*
X211923333Y-93384761D01*
X211970952Y-93289523D01*
X212018571Y-93241904D01*
X212113809Y-93194285D01*
X212351904Y-93194285D01*
X212447142Y-93241904D01*
X212494761Y-93289523D01*
X212542380Y-93384761D01*
X212542380Y-93670476D01*
X212494761Y-93765714D01*
X212447142Y-93813333D01*
G04 #@! TO.C,C4*
X212447142Y-125896666D02*
X212494761Y-125944285D01*
X212542380Y-126087142D01*
X212542380Y-126182380D01*
X212494761Y-126325238D01*
X212399523Y-126420476D01*
X212304285Y-126468095D01*
X212113809Y-126515714D01*
X211970952Y-126515714D01*
X211780476Y-126468095D01*
X211685238Y-126420476D01*
X211590000Y-126325238D01*
X211542380Y-126182380D01*
X211542380Y-126087142D01*
X211590000Y-125944285D01*
X211637619Y-125896666D01*
X211875714Y-125039523D02*
X212542380Y-125039523D01*
X211494761Y-125277619D02*
X212209047Y-125515714D01*
X212209047Y-124896666D01*
G04 #@! TO.C,C5*
X170230833Y-78377142D02*
X170183214Y-78424761D01*
X170040357Y-78472380D01*
X169945119Y-78472380D01*
X169802261Y-78424761D01*
X169707023Y-78329523D01*
X169659404Y-78234285D01*
X169611785Y-78043809D01*
X169611785Y-77900952D01*
X169659404Y-77710476D01*
X169707023Y-77615238D01*
X169802261Y-77520000D01*
X169945119Y-77472380D01*
X170040357Y-77472380D01*
X170183214Y-77520000D01*
X170230833Y-77567619D01*
X171135595Y-77472380D02*
X170659404Y-77472380D01*
X170611785Y-77948571D01*
X170659404Y-77900952D01*
X170754642Y-77853333D01*
X170992738Y-77853333D01*
X171087976Y-77900952D01*
X171135595Y-77948571D01*
X171183214Y-78043809D01*
X171183214Y-78281904D01*
X171135595Y-78377142D01*
X171087976Y-78424761D01*
X170992738Y-78472380D01*
X170754642Y-78472380D01*
X170659404Y-78424761D01*
X170611785Y-78377142D01*
G04 #@! TO.C,C6*
X165150833Y-110297142D02*
X165103214Y-110344761D01*
X164960357Y-110392380D01*
X164865119Y-110392380D01*
X164722261Y-110344761D01*
X164627023Y-110249523D01*
X164579404Y-110154285D01*
X164531785Y-109963809D01*
X164531785Y-109820952D01*
X164579404Y-109630476D01*
X164627023Y-109535238D01*
X164722261Y-109440000D01*
X164865119Y-109392380D01*
X164960357Y-109392380D01*
X165103214Y-109440000D01*
X165150833Y-109487619D01*
X166007976Y-109392380D02*
X165817500Y-109392380D01*
X165722261Y-109440000D01*
X165674642Y-109487619D01*
X165579404Y-109630476D01*
X165531785Y-109820952D01*
X165531785Y-110201904D01*
X165579404Y-110297142D01*
X165627023Y-110344761D01*
X165722261Y-110392380D01*
X165912738Y-110392380D01*
X166007976Y-110344761D01*
X166055595Y-110297142D01*
X166103214Y-110201904D01*
X166103214Y-109963809D01*
X166055595Y-109868571D01*
X166007976Y-109820952D01*
X165912738Y-109773333D01*
X165722261Y-109773333D01*
X165627023Y-109820952D01*
X165579404Y-109868571D01*
X165531785Y-109963809D01*
G04 #@! TO.C,D1*
X158011904Y-81802380D02*
X158011904Y-80802380D01*
X158250000Y-80802380D01*
X158392857Y-80850000D01*
X158488095Y-80945238D01*
X158535714Y-81040476D01*
X158583333Y-81230952D01*
X158583333Y-81373809D01*
X158535714Y-81564285D01*
X158488095Y-81659523D01*
X158392857Y-81754761D01*
X158250000Y-81802380D01*
X158011904Y-81802380D01*
X159535714Y-81802380D02*
X158964285Y-81802380D01*
X159250000Y-81802380D02*
X159250000Y-80802380D01*
X159154761Y-80945238D01*
X159059523Y-81040476D01*
X158964285Y-81088095D01*
X152138095Y-82172380D02*
X152138095Y-81172380D01*
X152709523Y-82172380D02*
X152280952Y-81600952D01*
X152709523Y-81172380D02*
X152138095Y-81743809D01*
G04 #@! TO.C,D2*
X152931904Y-105792380D02*
X152931904Y-104792380D01*
X153170000Y-104792380D01*
X153312857Y-104840000D01*
X153408095Y-104935238D01*
X153455714Y-105030476D01*
X153503333Y-105220952D01*
X153503333Y-105363809D01*
X153455714Y-105554285D01*
X153408095Y-105649523D01*
X153312857Y-105744761D01*
X153170000Y-105792380D01*
X152931904Y-105792380D01*
X153884285Y-104887619D02*
X153931904Y-104840000D01*
X154027142Y-104792380D01*
X154265238Y-104792380D01*
X154360476Y-104840000D01*
X154408095Y-104887619D01*
X154455714Y-104982857D01*
X154455714Y-105078095D01*
X154408095Y-105220952D01*
X153836666Y-105792380D01*
X154455714Y-105792380D01*
X159758095Y-105422380D02*
X159758095Y-104422380D01*
X160329523Y-105422380D02*
X159900952Y-104850952D01*
X160329523Y-104422380D02*
X159758095Y-104993809D01*
G04 #@! TO.C,J2*
X143430666Y-139152380D02*
X143430666Y-139866666D01*
X143383047Y-140009523D01*
X143287809Y-140104761D01*
X143144952Y-140152380D01*
X143049714Y-140152380D01*
X143859238Y-139247619D02*
X143906857Y-139200000D01*
X144002095Y-139152380D01*
X144240190Y-139152380D01*
X144335428Y-139200000D01*
X144383047Y-139247619D01*
X144430666Y-139342857D01*
X144430666Y-139438095D01*
X144383047Y-139580952D01*
X143811619Y-140152380D01*
X144430666Y-140152380D01*
G04 #@! TO.C,J4*
X185721666Y-129072380D02*
X185721666Y-129786666D01*
X185674047Y-129929523D01*
X185578809Y-130024761D01*
X185435952Y-130072380D01*
X185340714Y-130072380D01*
X186626428Y-129405714D02*
X186626428Y-130072380D01*
X186388333Y-129024761D02*
X186150238Y-129739047D01*
X186769285Y-129739047D01*
G04 #@! TO.C,L1*
X212542380Y-78906666D02*
X212542380Y-79382857D01*
X211542380Y-79382857D01*
X212542380Y-78049523D02*
X212542380Y-78620952D01*
X212542380Y-78335238D02*
X211542380Y-78335238D01*
X211685238Y-78430476D01*
X211780476Y-78525714D01*
X211828095Y-78620952D01*
G04 #@! TO.C,L2*
X212542380Y-110656666D02*
X212542380Y-111132857D01*
X211542380Y-111132857D01*
X211637619Y-110370952D02*
X211590000Y-110323333D01*
X211542380Y-110228095D01*
X211542380Y-109990000D01*
X211590000Y-109894761D01*
X211637619Y-109847142D01*
X211732857Y-109799523D01*
X211828095Y-109799523D01*
X211970952Y-109847142D01*
X212542380Y-110418571D01*
X212542380Y-109799523D01*
G04 #@! TO.C,M1*
X157270476Y-25432380D02*
X157270476Y-24432380D01*
X157603809Y-25146666D01*
X157937142Y-24432380D01*
X157937142Y-25432380D01*
X158937142Y-25432380D02*
X158365714Y-25432380D01*
X158651428Y-25432380D02*
X158651428Y-24432380D01*
X158556190Y-24575238D01*
X158460952Y-24670476D01*
X158365714Y-24718095D01*
G04 #@! TO.C,R1*
X169680833Y-73222380D02*
X169347500Y-72746190D01*
X169109404Y-73222380D02*
X169109404Y-72222380D01*
X169490357Y-72222380D01*
X169585595Y-72270000D01*
X169633214Y-72317619D01*
X169680833Y-72412857D01*
X169680833Y-72555714D01*
X169633214Y-72650952D01*
X169585595Y-72698571D01*
X169490357Y-72746190D01*
X169109404Y-72746190D01*
X170633214Y-73222380D02*
X170061785Y-73222380D01*
X170347500Y-73222380D02*
X170347500Y-72222380D01*
X170252261Y-72365238D01*
X170157023Y-72460476D01*
X170061785Y-72508095D01*
G04 #@! TO.C,R2*
X169618333Y-67892591D02*
X169285000Y-67416401D01*
X169046904Y-67892591D02*
X169046904Y-66892591D01*
X169427857Y-66892591D01*
X169523095Y-66940211D01*
X169570714Y-66987830D01*
X169618333Y-67083068D01*
X169618333Y-67225925D01*
X169570714Y-67321163D01*
X169523095Y-67368782D01*
X169427857Y-67416401D01*
X169046904Y-67416401D01*
X169999285Y-66987830D02*
X170046904Y-66940211D01*
X170142142Y-66892591D01*
X170380238Y-66892591D01*
X170475476Y-66940211D01*
X170523095Y-66987830D01*
X170570714Y-67083068D01*
X170570714Y-67178306D01*
X170523095Y-67321163D01*
X169951666Y-67892591D01*
X170570714Y-67892591D01*
G04 #@! TO.C,R3*
X164538333Y-121102380D02*
X164205000Y-120626190D01*
X163966904Y-121102380D02*
X163966904Y-120102380D01*
X164347857Y-120102380D01*
X164443095Y-120150000D01*
X164490714Y-120197619D01*
X164538333Y-120292857D01*
X164538333Y-120435714D01*
X164490714Y-120530952D01*
X164443095Y-120578571D01*
X164347857Y-120626190D01*
X163966904Y-120626190D01*
X164871666Y-120102380D02*
X165490714Y-120102380D01*
X165157380Y-120483333D01*
X165300238Y-120483333D01*
X165395476Y-120530952D01*
X165443095Y-120578571D01*
X165490714Y-120673809D01*
X165490714Y-120911904D01*
X165443095Y-121007142D01*
X165395476Y-121054761D01*
X165300238Y-121102380D01*
X165014523Y-121102380D01*
X164919285Y-121054761D01*
X164871666Y-121007142D01*
G04 #@! TO.C,R4*
X164600833Y-115642380D02*
X164267500Y-115166190D01*
X164029404Y-115642380D02*
X164029404Y-114642380D01*
X164410357Y-114642380D01*
X164505595Y-114690000D01*
X164553214Y-114737619D01*
X164600833Y-114832857D01*
X164600833Y-114975714D01*
X164553214Y-115070952D01*
X164505595Y-115118571D01*
X164410357Y-115166190D01*
X164029404Y-115166190D01*
X165457976Y-114975714D02*
X165457976Y-115642380D01*
X165219880Y-114594761D02*
X164981785Y-115309047D01*
X165600833Y-115309047D01*
G04 #@! TO.C,R5*
X147153333Y-65222380D02*
X146820000Y-64746190D01*
X146581904Y-65222380D02*
X146581904Y-64222380D01*
X146962857Y-64222380D01*
X147058095Y-64270000D01*
X147105714Y-64317619D01*
X147153333Y-64412857D01*
X147153333Y-64555714D01*
X147105714Y-64650952D01*
X147058095Y-64698571D01*
X146962857Y-64746190D01*
X146581904Y-64746190D01*
X148058095Y-64222380D02*
X147581904Y-64222380D01*
X147534285Y-64698571D01*
X147581904Y-64650952D01*
X147677142Y-64603333D01*
X147915238Y-64603333D01*
X148010476Y-64650952D01*
X148058095Y-64698571D01*
X148105714Y-64793809D01*
X148105714Y-65031904D01*
X148058095Y-65127142D01*
X148010476Y-65174761D01*
X147915238Y-65222380D01*
X147677142Y-65222380D01*
X147581904Y-65174761D01*
X147534285Y-65127142D01*
G04 #@! TO.C,R6*
X147153333Y-72842380D02*
X146820000Y-72366190D01*
X146581904Y-72842380D02*
X146581904Y-71842380D01*
X146962857Y-71842380D01*
X147058095Y-71890000D01*
X147105714Y-71937619D01*
X147153333Y-72032857D01*
X147153333Y-72175714D01*
X147105714Y-72270952D01*
X147058095Y-72318571D01*
X146962857Y-72366190D01*
X146581904Y-72366190D01*
X148010476Y-71842380D02*
X147820000Y-71842380D01*
X147724761Y-71890000D01*
X147677142Y-71937619D01*
X147581904Y-72080476D01*
X147534285Y-72270952D01*
X147534285Y-72651904D01*
X147581904Y-72747142D01*
X147629523Y-72794761D01*
X147724761Y-72842380D01*
X147915238Y-72842380D01*
X148010476Y-72794761D01*
X148058095Y-72747142D01*
X148105714Y-72651904D01*
X148105714Y-72413809D01*
X148058095Y-72318571D01*
X148010476Y-72270952D01*
X147915238Y-72223333D01*
X147724761Y-72223333D01*
X147629523Y-72270952D01*
X147581904Y-72318571D01*
X147534285Y-72413809D01*
G04 #@! TO.C,R7*
X147153333Y-84272380D02*
X146820000Y-83796190D01*
X146581904Y-84272380D02*
X146581904Y-83272380D01*
X146962857Y-83272380D01*
X147058095Y-83320000D01*
X147105714Y-83367619D01*
X147153333Y-83462857D01*
X147153333Y-83605714D01*
X147105714Y-83700952D01*
X147058095Y-83748571D01*
X146962857Y-83796190D01*
X146581904Y-83796190D01*
X147486666Y-83272380D02*
X148153333Y-83272380D01*
X147724761Y-84272380D01*
G04 #@! TO.C,R8*
X147153333Y-80462380D02*
X146820000Y-79986190D01*
X146581904Y-80462380D02*
X146581904Y-79462380D01*
X146962857Y-79462380D01*
X147058095Y-79510000D01*
X147105714Y-79557619D01*
X147153333Y-79652857D01*
X147153333Y-79795714D01*
X147105714Y-79890952D01*
X147058095Y-79938571D01*
X146962857Y-79986190D01*
X146581904Y-79986190D01*
X147724761Y-79890952D02*
X147629523Y-79843333D01*
X147581904Y-79795714D01*
X147534285Y-79700476D01*
X147534285Y-79652857D01*
X147581904Y-79557619D01*
X147629523Y-79510000D01*
X147724761Y-79462380D01*
X147915238Y-79462380D01*
X148010476Y-79510000D01*
X148058095Y-79557619D01*
X148105714Y-79652857D01*
X148105714Y-79700476D01*
X148058095Y-79795714D01*
X148010476Y-79843333D01*
X147915238Y-79890952D01*
X147724761Y-79890952D01*
X147629523Y-79938571D01*
X147581904Y-79986190D01*
X147534285Y-80081428D01*
X147534285Y-80271904D01*
X147581904Y-80367142D01*
X147629523Y-80414761D01*
X147724761Y-80462380D01*
X147915238Y-80462380D01*
X148010476Y-80414761D01*
X148058095Y-80367142D01*
X148105714Y-80271904D01*
X148105714Y-80081428D01*
X148058095Y-79986190D01*
X148010476Y-79938571D01*
X147915238Y-79890952D01*
G04 #@! TO.C,U1*
X151552380Y-70611904D02*
X152361904Y-70611904D01*
X152457142Y-70564285D01*
X152504761Y-70516666D01*
X152552380Y-70421428D01*
X152552380Y-70230952D01*
X152504761Y-70135714D01*
X152457142Y-70088095D01*
X152361904Y-70040476D01*
X151552380Y-70040476D01*
X152552380Y-69040476D02*
X152552380Y-69611904D01*
X152552380Y-69326190D02*
X151552380Y-69326190D01*
X151695238Y-69421428D01*
X151790476Y-69516666D01*
X151838095Y-69611904D01*
G04 #@! TO.C,U2*
X159772380Y-118871904D02*
X160581904Y-118871904D01*
X160677142Y-118824285D01*
X160724761Y-118776666D01*
X160772380Y-118681428D01*
X160772380Y-118490952D01*
X160724761Y-118395714D01*
X160677142Y-118348095D01*
X160581904Y-118300476D01*
X159772380Y-118300476D01*
X159867619Y-117871904D02*
X159820000Y-117824285D01*
X159772380Y-117729047D01*
X159772380Y-117490952D01*
X159820000Y-117395714D01*
X159867619Y-117348095D01*
X159962857Y-117300476D01*
X160058095Y-117300476D01*
X160200952Y-117348095D01*
X160772380Y-117919523D01*
X160772380Y-117300476D01*
G04 #@! TO.C,C7*
X147153333Y-95607142D02*
X147105714Y-95654761D01*
X146962857Y-95702380D01*
X146867619Y-95702380D01*
X146724761Y-95654761D01*
X146629523Y-95559523D01*
X146581904Y-95464285D01*
X146534285Y-95273809D01*
X146534285Y-95130952D01*
X146581904Y-94940476D01*
X146629523Y-94845238D01*
X146724761Y-94750000D01*
X146867619Y-94702380D01*
X146962857Y-94702380D01*
X147105714Y-94750000D01*
X147153333Y-94797619D01*
X147486666Y-94702380D02*
X148153333Y-94702380D01*
X147724761Y-95702380D01*
G04 #@! TO.C,C8*
X168743333Y-98147142D02*
X168695714Y-98194761D01*
X168552857Y-98242380D01*
X168457619Y-98242380D01*
X168314761Y-98194761D01*
X168219523Y-98099523D01*
X168171904Y-98004285D01*
X168124285Y-97813809D01*
X168124285Y-97670952D01*
X168171904Y-97480476D01*
X168219523Y-97385238D01*
X168314761Y-97290000D01*
X168457619Y-97242380D01*
X168552857Y-97242380D01*
X168695714Y-97290000D01*
X168743333Y-97337619D01*
X169314761Y-97670952D02*
X169219523Y-97623333D01*
X169171904Y-97575714D01*
X169124285Y-97480476D01*
X169124285Y-97432857D01*
X169171904Y-97337619D01*
X169219523Y-97290000D01*
X169314761Y-97242380D01*
X169505238Y-97242380D01*
X169600476Y-97290000D01*
X169648095Y-97337619D01*
X169695714Y-97432857D01*
X169695714Y-97480476D01*
X169648095Y-97575714D01*
X169600476Y-97623333D01*
X169505238Y-97670952D01*
X169314761Y-97670952D01*
X169219523Y-97718571D01*
X169171904Y-97766190D01*
X169124285Y-97861428D01*
X169124285Y-98051904D01*
X169171904Y-98147142D01*
X169219523Y-98194761D01*
X169314761Y-98242380D01*
X169505238Y-98242380D01*
X169600476Y-98194761D01*
X169648095Y-98147142D01*
X169695714Y-98051904D01*
X169695714Y-97861428D01*
X169648095Y-97766190D01*
X169600476Y-97718571D01*
X169505238Y-97670952D01*
G04 #@! TO.C,C9*
X168743333Y-86717142D02*
X168695714Y-86764761D01*
X168552857Y-86812380D01*
X168457619Y-86812380D01*
X168314761Y-86764761D01*
X168219523Y-86669523D01*
X168171904Y-86574285D01*
X168124285Y-86383809D01*
X168124285Y-86240952D01*
X168171904Y-86050476D01*
X168219523Y-85955238D01*
X168314761Y-85860000D01*
X168457619Y-85812380D01*
X168552857Y-85812380D01*
X168695714Y-85860000D01*
X168743333Y-85907619D01*
X169219523Y-86812380D02*
X169410000Y-86812380D01*
X169505238Y-86764761D01*
X169552857Y-86717142D01*
X169648095Y-86574285D01*
X169695714Y-86383809D01*
X169695714Y-86002857D01*
X169648095Y-85907619D01*
X169600476Y-85860000D01*
X169505238Y-85812380D01*
X169314761Y-85812380D01*
X169219523Y-85860000D01*
X169171904Y-85907619D01*
X169124285Y-86002857D01*
X169124285Y-86240952D01*
X169171904Y-86336190D01*
X169219523Y-86383809D01*
X169314761Y-86431428D01*
X169505238Y-86431428D01*
X169600476Y-86383809D01*
X169648095Y-86336190D01*
X169695714Y-86240952D01*
G04 #@! TO.C,C10*
X146677142Y-68937142D02*
X146629523Y-68984761D01*
X146486666Y-69032380D01*
X146391428Y-69032380D01*
X146248571Y-68984761D01*
X146153333Y-68889523D01*
X146105714Y-68794285D01*
X146058095Y-68603809D01*
X146058095Y-68460952D01*
X146105714Y-68270476D01*
X146153333Y-68175238D01*
X146248571Y-68080000D01*
X146391428Y-68032380D01*
X146486666Y-68032380D01*
X146629523Y-68080000D01*
X146677142Y-68127619D01*
X147629523Y-69032380D02*
X147058095Y-69032380D01*
X147343809Y-69032380D02*
X147343809Y-68032380D01*
X147248571Y-68175238D01*
X147153333Y-68270476D01*
X147058095Y-68318095D01*
X148248571Y-68032380D02*
X148343809Y-68032380D01*
X148439047Y-68080000D01*
X148486666Y-68127619D01*
X148534285Y-68222857D01*
X148581904Y-68413333D01*
X148581904Y-68651428D01*
X148534285Y-68841904D01*
X148486666Y-68937142D01*
X148439047Y-68984761D01*
X148343809Y-69032380D01*
X148248571Y-69032380D01*
X148153333Y-68984761D01*
X148105714Y-68937142D01*
X148058095Y-68841904D01*
X148010476Y-68651428D01*
X148010476Y-68413333D01*
X148058095Y-68222857D01*
X148105714Y-68127619D01*
X148153333Y-68080000D01*
X148248571Y-68032380D01*
G04 #@! TO.C,C11*
X146677142Y-76557142D02*
X146629523Y-76604761D01*
X146486666Y-76652380D01*
X146391428Y-76652380D01*
X146248571Y-76604761D01*
X146153333Y-76509523D01*
X146105714Y-76414285D01*
X146058095Y-76223809D01*
X146058095Y-76080952D01*
X146105714Y-75890476D01*
X146153333Y-75795238D01*
X146248571Y-75700000D01*
X146391428Y-75652380D01*
X146486666Y-75652380D01*
X146629523Y-75700000D01*
X146677142Y-75747619D01*
X147629523Y-76652380D02*
X147058095Y-76652380D01*
X147343809Y-76652380D02*
X147343809Y-75652380D01*
X147248571Y-75795238D01*
X147153333Y-75890476D01*
X147058095Y-75938095D01*
X148581904Y-76652380D02*
X148010476Y-76652380D01*
X148296190Y-76652380D02*
X148296190Y-75652380D01*
X148200952Y-75795238D01*
X148105714Y-75890476D01*
X148010476Y-75938095D01*
G04 #@! TO.C,R9*
X147153333Y-91892380D02*
X146820000Y-91416190D01*
X146581904Y-91892380D02*
X146581904Y-90892380D01*
X146962857Y-90892380D01*
X147058095Y-90940000D01*
X147105714Y-90987619D01*
X147153333Y-91082857D01*
X147153333Y-91225714D01*
X147105714Y-91320952D01*
X147058095Y-91368571D01*
X146962857Y-91416190D01*
X146581904Y-91416190D01*
X147629523Y-91892380D02*
X147820000Y-91892380D01*
X147915238Y-91844761D01*
X147962857Y-91797142D01*
X148058095Y-91654285D01*
X148105714Y-91463809D01*
X148105714Y-91082857D01*
X148058095Y-90987619D01*
X148010476Y-90940000D01*
X147915238Y-90892380D01*
X147724761Y-90892380D01*
X147629523Y-90940000D01*
X147581904Y-90987619D01*
X147534285Y-91082857D01*
X147534285Y-91320952D01*
X147581904Y-91416190D01*
X147629523Y-91463809D01*
X147724761Y-91511428D01*
X147915238Y-91511428D01*
X148010476Y-91463809D01*
X148058095Y-91416190D01*
X148105714Y-91320952D01*
G04 #@! TO.C,R10*
X146677142Y-88082380D02*
X146343809Y-87606190D01*
X146105714Y-88082380D02*
X146105714Y-87082380D01*
X146486666Y-87082380D01*
X146581904Y-87130000D01*
X146629523Y-87177619D01*
X146677142Y-87272857D01*
X146677142Y-87415714D01*
X146629523Y-87510952D01*
X146581904Y-87558571D01*
X146486666Y-87606190D01*
X146105714Y-87606190D01*
X147629523Y-88082380D02*
X147058095Y-88082380D01*
X147343809Y-88082380D02*
X147343809Y-87082380D01*
X147248571Y-87225238D01*
X147153333Y-87320476D01*
X147058095Y-87368095D01*
X148248571Y-87082380D02*
X148343809Y-87082380D01*
X148439047Y-87130000D01*
X148486666Y-87177619D01*
X148534285Y-87272857D01*
X148581904Y-87463333D01*
X148581904Y-87701428D01*
X148534285Y-87891904D01*
X148486666Y-87987142D01*
X148439047Y-88034761D01*
X148343809Y-88082380D01*
X148248571Y-88082380D01*
X148153333Y-88034761D01*
X148105714Y-87987142D01*
X148058095Y-87891904D01*
X148010476Y-87701428D01*
X148010476Y-87463333D01*
X148058095Y-87272857D01*
X148105714Y-87177619D01*
X148153333Y-87130000D01*
X148248571Y-87082380D01*
G04 #@! TO.C,R11*
X168267142Y-102052380D02*
X167933809Y-101576190D01*
X167695714Y-102052380D02*
X167695714Y-101052380D01*
X168076666Y-101052380D01*
X168171904Y-101100000D01*
X168219523Y-101147619D01*
X168267142Y-101242857D01*
X168267142Y-101385714D01*
X168219523Y-101480952D01*
X168171904Y-101528571D01*
X168076666Y-101576190D01*
X167695714Y-101576190D01*
X169219523Y-102052380D02*
X168648095Y-102052380D01*
X168933809Y-102052380D02*
X168933809Y-101052380D01*
X168838571Y-101195238D01*
X168743333Y-101290476D01*
X168648095Y-101338095D01*
X170171904Y-102052380D02*
X169600476Y-102052380D01*
X169886190Y-102052380D02*
X169886190Y-101052380D01*
X169790952Y-101195238D01*
X169695714Y-101290476D01*
X169600476Y-101338095D01*
G04 #@! TO.C,R12*
X168267142Y-105862380D02*
X167933809Y-105386190D01*
X167695714Y-105862380D02*
X167695714Y-104862380D01*
X168076666Y-104862380D01*
X168171904Y-104910000D01*
X168219523Y-104957619D01*
X168267142Y-105052857D01*
X168267142Y-105195714D01*
X168219523Y-105290952D01*
X168171904Y-105338571D01*
X168076666Y-105386190D01*
X167695714Y-105386190D01*
X169219523Y-105862380D02*
X168648095Y-105862380D01*
X168933809Y-105862380D02*
X168933809Y-104862380D01*
X168838571Y-105005238D01*
X168743333Y-105100476D01*
X168648095Y-105148095D01*
X169600476Y-104957619D02*
X169648095Y-104910000D01*
X169743333Y-104862380D01*
X169981428Y-104862380D01*
X170076666Y-104910000D01*
X170124285Y-104957619D01*
X170171904Y-105052857D01*
X170171904Y-105148095D01*
X170124285Y-105290952D01*
X169552857Y-105862380D01*
X170171904Y-105862380D01*
G04 #@! TO.C,R13*
X168267142Y-94432380D02*
X167933809Y-93956190D01*
X167695714Y-94432380D02*
X167695714Y-93432380D01*
X168076666Y-93432380D01*
X168171904Y-93480000D01*
X168219523Y-93527619D01*
X168267142Y-93622857D01*
X168267142Y-93765714D01*
X168219523Y-93860952D01*
X168171904Y-93908571D01*
X168076666Y-93956190D01*
X167695714Y-93956190D01*
X169219523Y-94432380D02*
X168648095Y-94432380D01*
X168933809Y-94432380D02*
X168933809Y-93432380D01*
X168838571Y-93575238D01*
X168743333Y-93670476D01*
X168648095Y-93718095D01*
X169552857Y-93432380D02*
X170171904Y-93432380D01*
X169838571Y-93813333D01*
X169981428Y-93813333D01*
X170076666Y-93860952D01*
X170124285Y-93908571D01*
X170171904Y-94003809D01*
X170171904Y-94241904D01*
X170124285Y-94337142D01*
X170076666Y-94384761D01*
X169981428Y-94432380D01*
X169695714Y-94432380D01*
X169600476Y-94384761D01*
X169552857Y-94337142D01*
G04 #@! TO.C,R14*
X168267142Y-90622380D02*
X167933809Y-90146190D01*
X167695714Y-90622380D02*
X167695714Y-89622380D01*
X168076666Y-89622380D01*
X168171904Y-89670000D01*
X168219523Y-89717619D01*
X168267142Y-89812857D01*
X168267142Y-89955714D01*
X168219523Y-90050952D01*
X168171904Y-90098571D01*
X168076666Y-90146190D01*
X167695714Y-90146190D01*
X169219523Y-90622380D02*
X168648095Y-90622380D01*
X168933809Y-90622380D02*
X168933809Y-89622380D01*
X168838571Y-89765238D01*
X168743333Y-89860476D01*
X168648095Y-89908095D01*
X170076666Y-89955714D02*
X170076666Y-90622380D01*
X169838571Y-89574761D02*
X169600476Y-90289047D01*
X170219523Y-90289047D01*
G04 #@! TO.C,MK1*
X112990476Y-60892380D02*
X112990476Y-59892380D01*
X113323809Y-60606666D01*
X113657142Y-59892380D01*
X113657142Y-60892380D01*
X114133333Y-60892380D02*
X114133333Y-59892380D01*
X114704761Y-60892380D02*
X114276190Y-60320952D01*
X114704761Y-59892380D02*
X114133333Y-60463809D01*
X115657142Y-60892380D02*
X115085714Y-60892380D01*
X115371428Y-60892380D02*
X115371428Y-59892380D01*
X115276190Y-60035238D01*
X115180952Y-60130476D01*
X115085714Y-60178095D01*
G04 #@! TO.C,MK2*
X204430476Y-60892380D02*
X204430476Y-59892380D01*
X204763809Y-60606666D01*
X205097142Y-59892380D01*
X205097142Y-60892380D01*
X205573333Y-60892380D02*
X205573333Y-59892380D01*
X206144761Y-60892380D02*
X205716190Y-60320952D01*
X206144761Y-59892380D02*
X205573333Y-60463809D01*
X206525714Y-59987619D02*
X206573333Y-59940000D01*
X206668571Y-59892380D01*
X206906666Y-59892380D01*
X207001904Y-59940000D01*
X207049523Y-59987619D01*
X207097142Y-60082857D01*
X207097142Y-60178095D01*
X207049523Y-60320952D01*
X206478095Y-60892380D01*
X207097142Y-60892380D01*
G04 #@! TO.C,MK3*
X204430476Y-143708380D02*
X204430476Y-142708380D01*
X204763809Y-143422666D01*
X205097142Y-142708380D01*
X205097142Y-143708380D01*
X205573333Y-143708380D02*
X205573333Y-142708380D01*
X206144761Y-143708380D02*
X205716190Y-143136952D01*
X206144761Y-142708380D02*
X205573333Y-143279809D01*
X206478095Y-142708380D02*
X207097142Y-142708380D01*
X206763809Y-143089333D01*
X206906666Y-143089333D01*
X207001904Y-143136952D01*
X207049523Y-143184571D01*
X207097142Y-143279809D01*
X207097142Y-143517904D01*
X207049523Y-143613142D01*
X207001904Y-143660761D01*
X206906666Y-143708380D01*
X206620952Y-143708380D01*
X206525714Y-143660761D01*
X206478095Y-143613142D01*
G04 #@! TO.C,MK4*
X112990476Y-143708380D02*
X112990476Y-142708380D01*
X113323809Y-143422666D01*
X113657142Y-142708380D01*
X113657142Y-143708380D01*
X114133333Y-143708380D02*
X114133333Y-142708380D01*
X114704761Y-143708380D02*
X114276190Y-143136952D01*
X114704761Y-142708380D02*
X114133333Y-143279809D01*
X115561904Y-143041714D02*
X115561904Y-143708380D01*
X115323809Y-142660761D02*
X115085714Y-143375047D01*
X115704761Y-143375047D01*
G04 #@! TD*
M02*
