G04 #@! TF.GenerationSoftware,KiCad,Pcbnew,5.0.0-fee4fd1~65~ubuntu17.10.1*
G04 #@! TF.CreationDate,2019-04-27T11:03:51-05:00*
G04 #@! TF.ProjectId,control_v1,636F6E74726F6C5F76312E6B69636164,1*
G04 #@! TF.SameCoordinates,Original*
G04 #@! TF.FileFunction,Legend,Bot*
G04 #@! TF.FilePolarity,Positive*
%FSLAX46Y46*%
G04 Gerber Fmt 4.6, Leading zero omitted, Abs format (unit mm)*
G04 Created by KiCad (PCBNEW 5.0.0-fee4fd1~65~ubuntu17.10.1) date Sat Apr 27 11:03:51 2019*
%MOMM*%
%LPD*%
G01*
G04 APERTURE LIST*
%ADD10C,0.200000*%
%ADD11C,0.300000*%
%ADD12C,0.120000*%
%ADD13C,0.150000*%
G04 APERTURE END LIST*
D10*
X174752000Y-93980000D02*
G75*
G03X174752000Y-93980000I-16580189J0D01*
G01*
D11*
X169988000Y-89934000D02*
X168559428Y-89934000D01*
X170273714Y-90791142D02*
X169273714Y-87791142D01*
X168273714Y-90791142D01*
X166845142Y-90791142D02*
X167130857Y-90648285D01*
X167273714Y-90362571D01*
X167273714Y-87791142D01*
X164559428Y-90648285D02*
X164845142Y-90791142D01*
X165416571Y-90791142D01*
X165702285Y-90648285D01*
X165845142Y-90362571D01*
X165845142Y-89219714D01*
X165702285Y-88934000D01*
X165416571Y-88791142D01*
X164845142Y-88791142D01*
X164559428Y-88934000D01*
X164416571Y-89219714D01*
X164416571Y-89505428D01*
X165845142Y-89791142D01*
X163416571Y-90791142D02*
X161845142Y-88791142D01*
X163416571Y-88791142D02*
X161845142Y-90791142D01*
X158559428Y-90648285D02*
X158130857Y-90791142D01*
X157416571Y-90791142D01*
X157130857Y-90648285D01*
X156988000Y-90505428D01*
X156845142Y-90219714D01*
X156845142Y-89934000D01*
X156988000Y-89648285D01*
X157130857Y-89505428D01*
X157416571Y-89362571D01*
X157988000Y-89219714D01*
X158273714Y-89076857D01*
X158416571Y-88934000D01*
X158559428Y-88648285D01*
X158559428Y-88362571D01*
X158416571Y-88076857D01*
X158273714Y-87934000D01*
X157988000Y-87791142D01*
X157273714Y-87791142D01*
X156845142Y-87934000D01*
X155559428Y-90791142D02*
X155559428Y-88791142D01*
X155559428Y-87791142D02*
X155702285Y-87934000D01*
X155559428Y-88076857D01*
X155416571Y-87934000D01*
X155559428Y-87791142D01*
X155559428Y-88076857D01*
X154130857Y-90791142D02*
X154130857Y-88791142D01*
X154130857Y-89076857D02*
X153988000Y-88934000D01*
X153702285Y-88791142D01*
X153273714Y-88791142D01*
X152988000Y-88934000D01*
X152845142Y-89219714D01*
X152845142Y-90791142D01*
X152845142Y-89219714D02*
X152702285Y-88934000D01*
X152416571Y-88791142D01*
X151988000Y-88791142D01*
X151702285Y-88934000D01*
X151559428Y-89219714D01*
X151559428Y-90791142D01*
X149702285Y-90791142D02*
X149988000Y-90648285D01*
X150130857Y-90505428D01*
X150273714Y-90219714D01*
X150273714Y-89362571D01*
X150130857Y-89076857D01*
X149988000Y-88934000D01*
X149702285Y-88791142D01*
X149273714Y-88791142D01*
X148988000Y-88934000D01*
X148845142Y-89076857D01*
X148702285Y-89362571D01*
X148702285Y-90219714D01*
X148845142Y-90505428D01*
X148988000Y-90648285D01*
X149273714Y-90791142D01*
X149702285Y-90791142D01*
X147416571Y-88791142D02*
X147416571Y-90791142D01*
X147416571Y-89076857D02*
X147273714Y-88934000D01*
X146988000Y-88791142D01*
X146559428Y-88791142D01*
X146273714Y-88934000D01*
X146130857Y-89219714D01*
X146130857Y-90791142D01*
X169130857Y-93591142D02*
X169130857Y-95591142D01*
X169845142Y-92448285D02*
X170559428Y-94591142D01*
X168702285Y-94591142D01*
X165416571Y-92448285D02*
X167988000Y-96305428D01*
X162845142Y-95591142D02*
X164559428Y-95591142D01*
X163702285Y-95591142D02*
X163702285Y-92591142D01*
X163988000Y-93019714D01*
X164273714Y-93305428D01*
X164559428Y-93448285D01*
X160273714Y-92591142D02*
X160845142Y-92591142D01*
X161130857Y-92734000D01*
X161273714Y-92876857D01*
X161559428Y-93305428D01*
X161702285Y-93876857D01*
X161702285Y-95019714D01*
X161559428Y-95305428D01*
X161416571Y-95448285D01*
X161130857Y-95591142D01*
X160559428Y-95591142D01*
X160273714Y-95448285D01*
X160130857Y-95305428D01*
X159988000Y-95019714D01*
X159988000Y-94305428D01*
X160130857Y-94019714D01*
X160273714Y-93876857D01*
X160559428Y-93734000D01*
X161130857Y-93734000D01*
X161416571Y-93876857D01*
X161559428Y-94019714D01*
X161702285Y-94305428D01*
X156559428Y-92448285D02*
X159130857Y-96305428D01*
X155702285Y-92876857D02*
X155559428Y-92734000D01*
X155273714Y-92591142D01*
X154559428Y-92591142D01*
X154273714Y-92734000D01*
X154130857Y-92876857D01*
X153988000Y-93162571D01*
X153988000Y-93448285D01*
X154130857Y-93876857D01*
X155845142Y-95591142D01*
X153988000Y-95591142D01*
X152130857Y-92591142D02*
X151845142Y-92591142D01*
X151559428Y-92734000D01*
X151416571Y-92876857D01*
X151273714Y-93162571D01*
X151130857Y-93734000D01*
X151130857Y-94448285D01*
X151273714Y-95019714D01*
X151416571Y-95305428D01*
X151559428Y-95448285D01*
X151845142Y-95591142D01*
X152130857Y-95591142D01*
X152416571Y-95448285D01*
X152559428Y-95305428D01*
X152702285Y-95019714D01*
X152845142Y-94448285D01*
X152845142Y-93734000D01*
X152702285Y-93162571D01*
X152559428Y-92876857D01*
X152416571Y-92734000D01*
X152130857Y-92591142D01*
X148273714Y-95591142D02*
X149988000Y-95591142D01*
X149130857Y-95591142D02*
X149130857Y-92591142D01*
X149416571Y-93019714D01*
X149702285Y-93305428D01*
X149988000Y-93448285D01*
X146845142Y-95591142D02*
X146273714Y-95591142D01*
X145988000Y-95448285D01*
X145845142Y-95305428D01*
X145559428Y-94876857D01*
X145416571Y-94305428D01*
X145416571Y-93162571D01*
X145559428Y-92876857D01*
X145702285Y-92734000D01*
X145988000Y-92591142D01*
X146559428Y-92591142D01*
X146845142Y-92734000D01*
X146988000Y-92876857D01*
X147130857Y-93162571D01*
X147130857Y-93876857D01*
X146988000Y-94162571D01*
X146845142Y-94305428D01*
X146559428Y-94448285D01*
X145988000Y-94448285D01*
X145702285Y-94305428D01*
X145559428Y-94162571D01*
X145416571Y-93876857D01*
X162773714Y-100391142D02*
X163773714Y-98962571D01*
X164488000Y-100391142D02*
X164488000Y-97391142D01*
X163345142Y-97391142D01*
X163059428Y-97534000D01*
X162916571Y-97676857D01*
X162773714Y-97962571D01*
X162773714Y-98391142D01*
X162916571Y-98676857D01*
X163059428Y-98819714D01*
X163345142Y-98962571D01*
X164488000Y-98962571D01*
X160345142Y-100248285D02*
X160630857Y-100391142D01*
X161202285Y-100391142D01*
X161488000Y-100248285D01*
X161630857Y-99962571D01*
X161630857Y-98819714D01*
X161488000Y-98534000D01*
X161202285Y-98391142D01*
X160630857Y-98391142D01*
X160345142Y-98534000D01*
X160202285Y-98819714D01*
X160202285Y-99105428D01*
X161630857Y-99391142D01*
X159202285Y-98391142D02*
X158488000Y-100391142D01*
X157773714Y-98391142D01*
X156630857Y-100105428D02*
X156488000Y-100248285D01*
X156630857Y-100391142D01*
X156773714Y-100248285D01*
X156630857Y-100105428D01*
X156630857Y-100391142D01*
X153202285Y-97391142D02*
X151345142Y-97391142D01*
X152345142Y-98534000D01*
X151916571Y-98534000D01*
X151630857Y-98676857D01*
X151488000Y-98819714D01*
X151345142Y-99105428D01*
X151345142Y-99819714D01*
X151488000Y-100105428D01*
X151630857Y-100248285D01*
X151916571Y-100391142D01*
X152773714Y-100391142D01*
X153059428Y-100248285D01*
X153202285Y-100105428D01*
D12*
G04 #@! TO.C,R20*
X142320983Y-136092000D02*
X141905017Y-136092000D01*
X142320983Y-134672000D02*
X141905017Y-134672000D01*
G04 #@! TO.C,R21*
X142032017Y-132790000D02*
X142447983Y-132790000D01*
X142032017Y-131370000D02*
X142447983Y-131370000D01*
G04 #@! TO.C,R22*
X124076517Y-132005000D02*
X124492483Y-132005000D01*
X124076517Y-133425000D02*
X124492483Y-133425000D01*
G04 #@! TO.C,J1*
X118170000Y-88840000D02*
X116840000Y-88840000D01*
X118170000Y-90170000D02*
X118170000Y-88840000D01*
X115570000Y-88840000D02*
X112970000Y-88840000D01*
X115570000Y-91440000D02*
X115570000Y-88840000D01*
X118170000Y-91440000D02*
X115570000Y-91440000D01*
X112970000Y-88840000D02*
X112970000Y-106740000D01*
X118170000Y-91440000D02*
X118170000Y-106740000D01*
X118170000Y-106740000D02*
X112970000Y-106740000D01*
G04 #@! TO.C,R5*
X124379017Y-84380000D02*
X124794983Y-84380000D01*
X124379017Y-85800000D02*
X124794983Y-85800000D01*
G04 #@! TO.C,R6*
X124252017Y-92127000D02*
X124667983Y-92127000D01*
X124252017Y-93547000D02*
X124667983Y-93547000D01*
G04 #@! TO.C,C10*
X124252017Y-88444000D02*
X124667983Y-88444000D01*
X124252017Y-89864000D02*
X124667983Y-89864000D01*
G04 #@! TO.C,R20*
D13*
X146184857Y-135707380D02*
X146518190Y-135231190D01*
X146756285Y-135707380D02*
X146756285Y-134707380D01*
X146375333Y-134707380D01*
X146280095Y-134755000D01*
X146232476Y-134802619D01*
X146184857Y-134897857D01*
X146184857Y-135040714D01*
X146232476Y-135135952D01*
X146280095Y-135183571D01*
X146375333Y-135231190D01*
X146756285Y-135231190D01*
X145803904Y-134802619D02*
X145756285Y-134755000D01*
X145661047Y-134707380D01*
X145422952Y-134707380D01*
X145327714Y-134755000D01*
X145280095Y-134802619D01*
X145232476Y-134897857D01*
X145232476Y-134993095D01*
X145280095Y-135135952D01*
X145851523Y-135707380D01*
X145232476Y-135707380D01*
X144613428Y-134707380D02*
X144518190Y-134707380D01*
X144422952Y-134755000D01*
X144375333Y-134802619D01*
X144327714Y-134897857D01*
X144280095Y-135088333D01*
X144280095Y-135326428D01*
X144327714Y-135516904D01*
X144375333Y-135612142D01*
X144422952Y-135659761D01*
X144518190Y-135707380D01*
X144613428Y-135707380D01*
X144708666Y-135659761D01*
X144756285Y-135612142D01*
X144803904Y-135516904D01*
X144851523Y-135326428D01*
X144851523Y-135088333D01*
X144803904Y-134897857D01*
X144756285Y-134802619D01*
X144708666Y-134755000D01*
X144613428Y-134707380D01*
G04 #@! TO.C,R21*
X146184857Y-132405380D02*
X146518190Y-131929190D01*
X146756285Y-132405380D02*
X146756285Y-131405380D01*
X146375333Y-131405380D01*
X146280095Y-131453000D01*
X146232476Y-131500619D01*
X146184857Y-131595857D01*
X146184857Y-131738714D01*
X146232476Y-131833952D01*
X146280095Y-131881571D01*
X146375333Y-131929190D01*
X146756285Y-131929190D01*
X145803904Y-131500619D02*
X145756285Y-131453000D01*
X145661047Y-131405380D01*
X145422952Y-131405380D01*
X145327714Y-131453000D01*
X145280095Y-131500619D01*
X145232476Y-131595857D01*
X145232476Y-131691095D01*
X145280095Y-131833952D01*
X145851523Y-132405380D01*
X145232476Y-132405380D01*
X144280095Y-132405380D02*
X144851523Y-132405380D01*
X144565809Y-132405380D02*
X144565809Y-131405380D01*
X144661047Y-131548238D01*
X144756285Y-131643476D01*
X144851523Y-131691095D01*
G04 #@! TO.C,R22*
X124975857Y-131008380D02*
X125309190Y-130532190D01*
X125547285Y-131008380D02*
X125547285Y-130008380D01*
X125166333Y-130008380D01*
X125071095Y-130056000D01*
X125023476Y-130103619D01*
X124975857Y-130198857D01*
X124975857Y-130341714D01*
X125023476Y-130436952D01*
X125071095Y-130484571D01*
X125166333Y-130532190D01*
X125547285Y-130532190D01*
X124594904Y-130103619D02*
X124547285Y-130056000D01*
X124452047Y-130008380D01*
X124213952Y-130008380D01*
X124118714Y-130056000D01*
X124071095Y-130103619D01*
X124023476Y-130198857D01*
X124023476Y-130294095D01*
X124071095Y-130436952D01*
X124642523Y-131008380D01*
X124023476Y-131008380D01*
X123642523Y-130103619D02*
X123594904Y-130056000D01*
X123499666Y-130008380D01*
X123261571Y-130008380D01*
X123166333Y-130056000D01*
X123118714Y-130103619D01*
X123071095Y-130198857D01*
X123071095Y-130294095D01*
X123118714Y-130436952D01*
X123690142Y-131008380D01*
X123071095Y-131008380D01*
G04 #@! TO.C,J1*
X115903333Y-87292380D02*
X115903333Y-88006666D01*
X115950952Y-88149523D01*
X116046190Y-88244761D01*
X116189047Y-88292380D01*
X116284285Y-88292380D01*
X114903333Y-88292380D02*
X115474761Y-88292380D01*
X115189047Y-88292380D02*
X115189047Y-87292380D01*
X115284285Y-87435238D01*
X115379523Y-87530476D01*
X115474761Y-87578095D01*
G04 #@! TO.C,R5*
X128182666Y-85542380D02*
X128516000Y-85066190D01*
X128754095Y-85542380D02*
X128754095Y-84542380D01*
X128373142Y-84542380D01*
X128277904Y-84590000D01*
X128230285Y-84637619D01*
X128182666Y-84732857D01*
X128182666Y-84875714D01*
X128230285Y-84970952D01*
X128277904Y-85018571D01*
X128373142Y-85066190D01*
X128754095Y-85066190D01*
X127277904Y-84542380D02*
X127754095Y-84542380D01*
X127801714Y-85018571D01*
X127754095Y-84970952D01*
X127658857Y-84923333D01*
X127420761Y-84923333D01*
X127325523Y-84970952D01*
X127277904Y-85018571D01*
X127230285Y-85113809D01*
X127230285Y-85351904D01*
X127277904Y-85447142D01*
X127325523Y-85494761D01*
X127420761Y-85542380D01*
X127658857Y-85542380D01*
X127754095Y-85494761D01*
X127801714Y-85447142D01*
G04 #@! TO.C,R6*
X128309666Y-93289380D02*
X128643000Y-92813190D01*
X128881095Y-93289380D02*
X128881095Y-92289380D01*
X128500142Y-92289380D01*
X128404904Y-92337000D01*
X128357285Y-92384619D01*
X128309666Y-92479857D01*
X128309666Y-92622714D01*
X128357285Y-92717952D01*
X128404904Y-92765571D01*
X128500142Y-92813190D01*
X128881095Y-92813190D01*
X127452523Y-92289380D02*
X127643000Y-92289380D01*
X127738238Y-92337000D01*
X127785857Y-92384619D01*
X127881095Y-92527476D01*
X127928714Y-92717952D01*
X127928714Y-93098904D01*
X127881095Y-93194142D01*
X127833476Y-93241761D01*
X127738238Y-93289380D01*
X127547761Y-93289380D01*
X127452523Y-93241761D01*
X127404904Y-93194142D01*
X127357285Y-93098904D01*
X127357285Y-92860809D01*
X127404904Y-92765571D01*
X127452523Y-92717952D01*
X127547761Y-92670333D01*
X127738238Y-92670333D01*
X127833476Y-92717952D01*
X127881095Y-92765571D01*
X127928714Y-92860809D01*
G04 #@! TO.C,C10*
X128658857Y-89511142D02*
X128706476Y-89558761D01*
X128849333Y-89606380D01*
X128944571Y-89606380D01*
X129087428Y-89558761D01*
X129182666Y-89463523D01*
X129230285Y-89368285D01*
X129277904Y-89177809D01*
X129277904Y-89034952D01*
X129230285Y-88844476D01*
X129182666Y-88749238D01*
X129087428Y-88654000D01*
X128944571Y-88606380D01*
X128849333Y-88606380D01*
X128706476Y-88654000D01*
X128658857Y-88701619D01*
X127706476Y-89606380D02*
X128277904Y-89606380D01*
X127992190Y-89606380D02*
X127992190Y-88606380D01*
X128087428Y-88749238D01*
X128182666Y-88844476D01*
X128277904Y-88892095D01*
X127087428Y-88606380D02*
X126992190Y-88606380D01*
X126896952Y-88654000D01*
X126849333Y-88701619D01*
X126801714Y-88796857D01*
X126754095Y-88987333D01*
X126754095Y-89225428D01*
X126801714Y-89415904D01*
X126849333Y-89511142D01*
X126896952Y-89558761D01*
X126992190Y-89606380D01*
X127087428Y-89606380D01*
X127182666Y-89558761D01*
X127230285Y-89511142D01*
X127277904Y-89415904D01*
X127325523Y-89225428D01*
X127325523Y-88987333D01*
X127277904Y-88796857D01*
X127230285Y-88701619D01*
X127182666Y-88654000D01*
X127087428Y-88606380D01*
G04 #@! TD*
M02*
