G04 #@! TF.GenerationSoftware,KiCad,Pcbnew,5.0.0-fee4fd1~65~ubuntu17.10.1*
G04 #@! TF.CreationDate,2019-02-19T07:35:12-06:00*
G04 #@! TF.ProjectId,control_v1,636F6E74726F6C5F76312E6B69636164,1*
G04 #@! TF.SameCoordinates,Original*
G04 #@! TF.FileFunction,Soldermask,Top*
G04 #@! TF.FilePolarity,Negative*
%FSLAX46Y46*%
G04 Gerber Fmt 4.6, Leading zero omitted, Abs format (unit mm)*
G04 Created by KiCad (PCBNEW 5.0.0-fee4fd1~65~ubuntu17.10.1) date Tue Feb 19 07:35:12 2019*
%MOMM*%
%LPD*%
G01*
G04 APERTURE LIST*
%ADD10R,2.100000X2.100000*%
%ADD11O,2.100000X2.100000*%
%ADD12R,4.800000X2.900000*%
%ADD13R,2.800000X2.800000*%
%ADD14C,2.800000*%
%ADD15R,3.900000X2.900000*%
%ADD16R,4.400000X2.900000*%
%ADD17C,0.100000*%
%ADD18C,1.825000*%
%ADD19R,2.600000X2.600000*%
%ADD20O,2.600000X2.600000*%
%ADD21R,3.000000X3.000000*%
%ADD22C,3.000000*%
%ADD23C,3.600000*%
%ADD24R,1.900000X1.900000*%
%ADD25C,1.900000*%
%ADD26R,3.300000X5.800000*%
%ADD27R,2.150000X1.600000*%
%ADD28C,1.725000*%
%ADD29C,1.350000*%
%ADD30R,1.500000X5.000000*%
%ADD31R,11.200000X9.800000*%
%ADD32C,9.600000*%
G04 APERTURE END LIST*
D10*
G04 #@! TO.C,J3*
X137160000Y-135890000D03*
D11*
X134620000Y-135890000D03*
X132080000Y-135890000D03*
X129540000Y-135890000D03*
X127000000Y-135890000D03*
X124460000Y-135890000D03*
G04 #@! TD*
D12*
G04 #@! TO.C,C1*
X111370000Y-78740000D03*
X119770000Y-78740000D03*
G04 #@! TD*
D13*
G04 #@! TO.C,C2*
X111760000Y-119380000D03*
D14*
X119260000Y-119380000D03*
G04 #@! TD*
D15*
G04 #@! TO.C,C3*
X201220000Y-93980000D03*
X207720000Y-93980000D03*
G04 #@! TD*
D16*
G04 #@! TO.C,C4*
X200470000Y-125730000D03*
X208470000Y-125730000D03*
G04 #@! TD*
D17*
G04 #@! TO.C,C5*
G36*
X169533707Y-75126542D02*
X169564787Y-75131152D01*
X169595266Y-75138787D01*
X169624850Y-75149372D01*
X169653254Y-75162806D01*
X169680204Y-75178959D01*
X169705442Y-75197677D01*
X169728723Y-75218777D01*
X169749823Y-75242058D01*
X169768541Y-75267296D01*
X169784694Y-75294246D01*
X169798128Y-75322650D01*
X169808713Y-75352234D01*
X169816348Y-75382713D01*
X169820958Y-75413793D01*
X169822500Y-75445176D01*
X169822500Y-76954824D01*
X169820958Y-76986207D01*
X169816348Y-77017287D01*
X169808713Y-77047766D01*
X169798128Y-77077350D01*
X169784694Y-77105754D01*
X169768541Y-77132704D01*
X169749823Y-77157942D01*
X169728723Y-77181223D01*
X169705442Y-77202323D01*
X169680204Y-77221041D01*
X169653254Y-77237194D01*
X169624850Y-77250628D01*
X169595266Y-77261213D01*
X169564787Y-77268848D01*
X169533707Y-77273458D01*
X169502324Y-77275000D01*
X168317676Y-77275000D01*
X168286293Y-77273458D01*
X168255213Y-77268848D01*
X168224734Y-77261213D01*
X168195150Y-77250628D01*
X168166746Y-77237194D01*
X168139796Y-77221041D01*
X168114558Y-77202323D01*
X168091277Y-77181223D01*
X168070177Y-77157942D01*
X168051459Y-77132704D01*
X168035306Y-77105754D01*
X168021872Y-77077350D01*
X168011287Y-77047766D01*
X168003652Y-77017287D01*
X167999042Y-76986207D01*
X167997500Y-76954824D01*
X167997500Y-75445176D01*
X167999042Y-75413793D01*
X168003652Y-75382713D01*
X168011287Y-75352234D01*
X168021872Y-75322650D01*
X168035306Y-75294246D01*
X168051459Y-75267296D01*
X168070177Y-75242058D01*
X168091277Y-75218777D01*
X168114558Y-75197677D01*
X168139796Y-75178959D01*
X168166746Y-75162806D01*
X168195150Y-75149372D01*
X168224734Y-75138787D01*
X168255213Y-75131152D01*
X168286293Y-75126542D01*
X168317676Y-75125000D01*
X169502324Y-75125000D01*
X169533707Y-75126542D01*
X169533707Y-75126542D01*
G37*
D18*
X168910000Y-76200000D03*
D17*
G36*
X172508707Y-75126542D02*
X172539787Y-75131152D01*
X172570266Y-75138787D01*
X172599850Y-75149372D01*
X172628254Y-75162806D01*
X172655204Y-75178959D01*
X172680442Y-75197677D01*
X172703723Y-75218777D01*
X172724823Y-75242058D01*
X172743541Y-75267296D01*
X172759694Y-75294246D01*
X172773128Y-75322650D01*
X172783713Y-75352234D01*
X172791348Y-75382713D01*
X172795958Y-75413793D01*
X172797500Y-75445176D01*
X172797500Y-76954824D01*
X172795958Y-76986207D01*
X172791348Y-77017287D01*
X172783713Y-77047766D01*
X172773128Y-77077350D01*
X172759694Y-77105754D01*
X172743541Y-77132704D01*
X172724823Y-77157942D01*
X172703723Y-77181223D01*
X172680442Y-77202323D01*
X172655204Y-77221041D01*
X172628254Y-77237194D01*
X172599850Y-77250628D01*
X172570266Y-77261213D01*
X172539787Y-77268848D01*
X172508707Y-77273458D01*
X172477324Y-77275000D01*
X171292676Y-77275000D01*
X171261293Y-77273458D01*
X171230213Y-77268848D01*
X171199734Y-77261213D01*
X171170150Y-77250628D01*
X171141746Y-77237194D01*
X171114796Y-77221041D01*
X171089558Y-77202323D01*
X171066277Y-77181223D01*
X171045177Y-77157942D01*
X171026459Y-77132704D01*
X171010306Y-77105754D01*
X170996872Y-77077350D01*
X170986287Y-77047766D01*
X170978652Y-77017287D01*
X170974042Y-76986207D01*
X170972500Y-76954824D01*
X170972500Y-75445176D01*
X170974042Y-75413793D01*
X170978652Y-75382713D01*
X170986287Y-75352234D01*
X170996872Y-75322650D01*
X171010306Y-75294246D01*
X171026459Y-75267296D01*
X171045177Y-75242058D01*
X171066277Y-75218777D01*
X171089558Y-75197677D01*
X171114796Y-75178959D01*
X171141746Y-75162806D01*
X171170150Y-75149372D01*
X171199734Y-75138787D01*
X171230213Y-75131152D01*
X171261293Y-75126542D01*
X171292676Y-75125000D01*
X172477324Y-75125000D01*
X172508707Y-75126542D01*
X172508707Y-75126542D01*
G37*
D18*
X171885000Y-76200000D03*
G04 #@! TD*
D17*
G04 #@! TO.C,C6*
G36*
X164453707Y-110686542D02*
X164484787Y-110691152D01*
X164515266Y-110698787D01*
X164544850Y-110709372D01*
X164573254Y-110722806D01*
X164600204Y-110738959D01*
X164625442Y-110757677D01*
X164648723Y-110778777D01*
X164669823Y-110802058D01*
X164688541Y-110827296D01*
X164704694Y-110854246D01*
X164718128Y-110882650D01*
X164728713Y-110912234D01*
X164736348Y-110942713D01*
X164740958Y-110973793D01*
X164742500Y-111005176D01*
X164742500Y-112514824D01*
X164740958Y-112546207D01*
X164736348Y-112577287D01*
X164728713Y-112607766D01*
X164718128Y-112637350D01*
X164704694Y-112665754D01*
X164688541Y-112692704D01*
X164669823Y-112717942D01*
X164648723Y-112741223D01*
X164625442Y-112762323D01*
X164600204Y-112781041D01*
X164573254Y-112797194D01*
X164544850Y-112810628D01*
X164515266Y-112821213D01*
X164484787Y-112828848D01*
X164453707Y-112833458D01*
X164422324Y-112835000D01*
X163237676Y-112835000D01*
X163206293Y-112833458D01*
X163175213Y-112828848D01*
X163144734Y-112821213D01*
X163115150Y-112810628D01*
X163086746Y-112797194D01*
X163059796Y-112781041D01*
X163034558Y-112762323D01*
X163011277Y-112741223D01*
X162990177Y-112717942D01*
X162971459Y-112692704D01*
X162955306Y-112665754D01*
X162941872Y-112637350D01*
X162931287Y-112607766D01*
X162923652Y-112577287D01*
X162919042Y-112546207D01*
X162917500Y-112514824D01*
X162917500Y-111005176D01*
X162919042Y-110973793D01*
X162923652Y-110942713D01*
X162931287Y-110912234D01*
X162941872Y-110882650D01*
X162955306Y-110854246D01*
X162971459Y-110827296D01*
X162990177Y-110802058D01*
X163011277Y-110778777D01*
X163034558Y-110757677D01*
X163059796Y-110738959D01*
X163086746Y-110722806D01*
X163115150Y-110709372D01*
X163144734Y-110698787D01*
X163175213Y-110691152D01*
X163206293Y-110686542D01*
X163237676Y-110685000D01*
X164422324Y-110685000D01*
X164453707Y-110686542D01*
X164453707Y-110686542D01*
G37*
D18*
X163830000Y-111760000D03*
D17*
G36*
X167428707Y-110686542D02*
X167459787Y-110691152D01*
X167490266Y-110698787D01*
X167519850Y-110709372D01*
X167548254Y-110722806D01*
X167575204Y-110738959D01*
X167600442Y-110757677D01*
X167623723Y-110778777D01*
X167644823Y-110802058D01*
X167663541Y-110827296D01*
X167679694Y-110854246D01*
X167693128Y-110882650D01*
X167703713Y-110912234D01*
X167711348Y-110942713D01*
X167715958Y-110973793D01*
X167717500Y-111005176D01*
X167717500Y-112514824D01*
X167715958Y-112546207D01*
X167711348Y-112577287D01*
X167703713Y-112607766D01*
X167693128Y-112637350D01*
X167679694Y-112665754D01*
X167663541Y-112692704D01*
X167644823Y-112717942D01*
X167623723Y-112741223D01*
X167600442Y-112762323D01*
X167575204Y-112781041D01*
X167548254Y-112797194D01*
X167519850Y-112810628D01*
X167490266Y-112821213D01*
X167459787Y-112828848D01*
X167428707Y-112833458D01*
X167397324Y-112835000D01*
X166212676Y-112835000D01*
X166181293Y-112833458D01*
X166150213Y-112828848D01*
X166119734Y-112821213D01*
X166090150Y-112810628D01*
X166061746Y-112797194D01*
X166034796Y-112781041D01*
X166009558Y-112762323D01*
X165986277Y-112741223D01*
X165965177Y-112717942D01*
X165946459Y-112692704D01*
X165930306Y-112665754D01*
X165916872Y-112637350D01*
X165906287Y-112607766D01*
X165898652Y-112577287D01*
X165894042Y-112546207D01*
X165892500Y-112514824D01*
X165892500Y-111005176D01*
X165894042Y-110973793D01*
X165898652Y-110942713D01*
X165906287Y-110912234D01*
X165916872Y-110882650D01*
X165930306Y-110854246D01*
X165946459Y-110827296D01*
X165965177Y-110802058D01*
X165986277Y-110778777D01*
X166009558Y-110757677D01*
X166034796Y-110738959D01*
X166061746Y-110722806D01*
X166090150Y-110709372D01*
X166119734Y-110698787D01*
X166150213Y-110691152D01*
X166181293Y-110686542D01*
X166212676Y-110685000D01*
X167397324Y-110685000D01*
X167428707Y-110686542D01*
X167428707Y-110686542D01*
G37*
D18*
X166805000Y-111760000D03*
G04 #@! TD*
D19*
G04 #@! TO.C,D1*
X152400000Y-83820000D03*
D20*
X165100000Y-83820000D03*
G04 #@! TD*
G04 #@! TO.C,D2*
X147320000Y-102870000D03*
D19*
X160020000Y-102870000D03*
G04 #@! TD*
D10*
G04 #@! TO.C,J1*
X116840000Y-90170000D03*
D11*
X114300000Y-90170000D03*
X116840000Y-92710000D03*
X114300000Y-92710000D03*
X116840000Y-95250000D03*
X114300000Y-95250000D03*
X116840000Y-97790000D03*
X114300000Y-97790000D03*
X116840000Y-100330000D03*
X114300000Y-100330000D03*
X116840000Y-102870000D03*
X114300000Y-102870000D03*
X116840000Y-105410000D03*
X114300000Y-105410000D03*
G04 #@! TD*
D21*
G04 #@! TO.C,J2*
X147320000Y-139700000D03*
D22*
X152400000Y-139700000D03*
X157480000Y-139700000D03*
X162560000Y-139700000D03*
X167640000Y-139700000D03*
G04 #@! TD*
D23*
G04 #@! TO.C,J4*
X191770000Y-140970000D03*
X180340000Y-140970000D03*
D24*
X181610000Y-134620000D03*
D25*
X182880000Y-132080000D03*
X184150000Y-134620000D03*
X185420000Y-132080000D03*
X186690000Y-134620000D03*
X187960000Y-132080000D03*
X189230000Y-134620000D03*
X190500000Y-132080000D03*
G04 #@! TD*
D26*
G04 #@! TO.C,L1*
X199620000Y-78740000D03*
X209320000Y-78740000D03*
G04 #@! TD*
G04 #@! TO.C,L2*
X199620000Y-110490000D03*
X209320000Y-110490000D03*
G04 #@! TD*
D27*
G04 #@! TO.C,M1*
X132080000Y-62230000D03*
X136330000Y-62230000D03*
X132080000Y-64770000D03*
X136330000Y-64770000D03*
X132080000Y-67310000D03*
X136330000Y-67310000D03*
X132080000Y-69850000D03*
X136330000Y-69850000D03*
X132080000Y-72390000D03*
X136330000Y-72390000D03*
X132080000Y-74930000D03*
X136330000Y-74930000D03*
X132080000Y-77470000D03*
X136330000Y-77470000D03*
X132080000Y-80010000D03*
X136330000Y-80010000D03*
X132080000Y-82550000D03*
X136330000Y-82550000D03*
X132080000Y-85090000D03*
X136330000Y-85090000D03*
X132080000Y-87630000D03*
X136330000Y-87630000D03*
X132080000Y-90170000D03*
X136330000Y-90170000D03*
X132080000Y-92710000D03*
X136330000Y-92710000D03*
X132080000Y-95250000D03*
X136330000Y-95250000D03*
X132080000Y-97790000D03*
X136330000Y-97790000D03*
X132080000Y-100330000D03*
X136330000Y-100330000D03*
X132080000Y-102870000D03*
X136330000Y-102870000D03*
X132080000Y-105410000D03*
X136330000Y-105410000D03*
X132080000Y-107950000D03*
X136330000Y-107950000D03*
X132080000Y-110490000D03*
X136330000Y-110490000D03*
X132080000Y-113030000D03*
X136330000Y-113030000D03*
X132080000Y-115570000D03*
X136330000Y-115570000D03*
X132080000Y-118110000D03*
X136330000Y-118110000D03*
X132080000Y-120650000D03*
X136330000Y-120650000D03*
X132080000Y-123190000D03*
X136330000Y-123190000D03*
X182880000Y-62230000D03*
X187130000Y-62230000D03*
X182880000Y-64770000D03*
X187130000Y-64770000D03*
X182880000Y-67310000D03*
X187130000Y-67310000D03*
X182880000Y-69850000D03*
X187130000Y-69850000D03*
X182880000Y-72390000D03*
X187130000Y-72390000D03*
X182880000Y-74930000D03*
X187130000Y-74930000D03*
X182880000Y-77470000D03*
X187130000Y-77470000D03*
X182880000Y-80010000D03*
X187130000Y-80010000D03*
X182880000Y-82550000D03*
X187130000Y-82550000D03*
X182880000Y-85090000D03*
X187130000Y-85090000D03*
X182880000Y-87630000D03*
X187130000Y-87630000D03*
X182880000Y-90170000D03*
X187130000Y-90170000D03*
X182880000Y-92710000D03*
X187130000Y-92710000D03*
X182880000Y-95250000D03*
X187130000Y-95250000D03*
X182880000Y-97790000D03*
X187130000Y-97790000D03*
X182880000Y-100330000D03*
X187130000Y-100330000D03*
X182880000Y-102870000D03*
X187130000Y-102870000D03*
X182880000Y-105410000D03*
X187130000Y-105410000D03*
X182880000Y-107950000D03*
X187130000Y-107950000D03*
X182880000Y-110490000D03*
X187130000Y-110490000D03*
X182880000Y-113030000D03*
X187130000Y-113030000D03*
X182880000Y-115570000D03*
X187130000Y-115570000D03*
X182880000Y-118110000D03*
X187130000Y-118110000D03*
X182880000Y-120650000D03*
X187130000Y-120650000D03*
X182880000Y-123190000D03*
X187130000Y-123190000D03*
G04 #@! TD*
D17*
G04 #@! TO.C,R1*
G36*
X169478931Y-70221567D02*
X169510525Y-70226254D01*
X169541508Y-70234015D01*
X169571581Y-70244775D01*
X169600455Y-70258431D01*
X169627851Y-70274852D01*
X169653506Y-70293879D01*
X169677172Y-70315328D01*
X169698621Y-70338994D01*
X169717648Y-70364649D01*
X169734069Y-70392045D01*
X169747725Y-70420919D01*
X169758485Y-70450992D01*
X169766246Y-70481975D01*
X169770933Y-70513569D01*
X169772500Y-70545471D01*
X169772500Y-71694529D01*
X169770933Y-71726431D01*
X169766246Y-71758025D01*
X169758485Y-71789008D01*
X169747725Y-71819081D01*
X169734069Y-71847955D01*
X169717648Y-71875351D01*
X169698621Y-71901006D01*
X169677172Y-71924672D01*
X169653506Y-71946121D01*
X169627851Y-71965148D01*
X169600455Y-71981569D01*
X169571581Y-71995225D01*
X169541508Y-72005985D01*
X169510525Y-72013746D01*
X169478931Y-72018433D01*
X169447029Y-72020000D01*
X168372971Y-72020000D01*
X168341069Y-72018433D01*
X168309475Y-72013746D01*
X168278492Y-72005985D01*
X168248419Y-71995225D01*
X168219545Y-71981569D01*
X168192149Y-71965148D01*
X168166494Y-71946121D01*
X168142828Y-71924672D01*
X168121379Y-71901006D01*
X168102352Y-71875351D01*
X168085931Y-71847955D01*
X168072275Y-71819081D01*
X168061515Y-71789008D01*
X168053754Y-71758025D01*
X168049067Y-71726431D01*
X168047500Y-71694529D01*
X168047500Y-70545471D01*
X168049067Y-70513569D01*
X168053754Y-70481975D01*
X168061515Y-70450992D01*
X168072275Y-70420919D01*
X168085931Y-70392045D01*
X168102352Y-70364649D01*
X168121379Y-70338994D01*
X168142828Y-70315328D01*
X168166494Y-70293879D01*
X168192149Y-70274852D01*
X168219545Y-70258431D01*
X168248419Y-70244775D01*
X168278492Y-70234015D01*
X168309475Y-70226254D01*
X168341069Y-70221567D01*
X168372971Y-70220000D01*
X169447029Y-70220000D01*
X169478931Y-70221567D01*
X169478931Y-70221567D01*
G37*
D28*
X168910000Y-71120000D03*
D17*
G36*
X171353931Y-70221567D02*
X171385525Y-70226254D01*
X171416508Y-70234015D01*
X171446581Y-70244775D01*
X171475455Y-70258431D01*
X171502851Y-70274852D01*
X171528506Y-70293879D01*
X171552172Y-70315328D01*
X171573621Y-70338994D01*
X171592648Y-70364649D01*
X171609069Y-70392045D01*
X171622725Y-70420919D01*
X171633485Y-70450992D01*
X171641246Y-70481975D01*
X171645933Y-70513569D01*
X171647500Y-70545471D01*
X171647500Y-71694529D01*
X171645933Y-71726431D01*
X171641246Y-71758025D01*
X171633485Y-71789008D01*
X171622725Y-71819081D01*
X171609069Y-71847955D01*
X171592648Y-71875351D01*
X171573621Y-71901006D01*
X171552172Y-71924672D01*
X171528506Y-71946121D01*
X171502851Y-71965148D01*
X171475455Y-71981569D01*
X171446581Y-71995225D01*
X171416508Y-72005985D01*
X171385525Y-72013746D01*
X171353931Y-72018433D01*
X171322029Y-72020000D01*
X170247971Y-72020000D01*
X170216069Y-72018433D01*
X170184475Y-72013746D01*
X170153492Y-72005985D01*
X170123419Y-71995225D01*
X170094545Y-71981569D01*
X170067149Y-71965148D01*
X170041494Y-71946121D01*
X170017828Y-71924672D01*
X169996379Y-71901006D01*
X169977352Y-71875351D01*
X169960931Y-71847955D01*
X169947275Y-71819081D01*
X169936515Y-71789008D01*
X169928754Y-71758025D01*
X169924067Y-71726431D01*
X169922500Y-71694529D01*
X169922500Y-70545471D01*
X169924067Y-70513569D01*
X169928754Y-70481975D01*
X169936515Y-70450992D01*
X169947275Y-70420919D01*
X169960931Y-70392045D01*
X169977352Y-70364649D01*
X169996379Y-70338994D01*
X170017828Y-70315328D01*
X170041494Y-70293879D01*
X170067149Y-70274852D01*
X170094545Y-70258431D01*
X170123419Y-70244775D01*
X170153492Y-70234015D01*
X170184475Y-70226254D01*
X170216069Y-70221567D01*
X170247971Y-70220000D01*
X171322029Y-70220000D01*
X171353931Y-70221567D01*
X171353931Y-70221567D01*
G37*
D28*
X170785000Y-71120000D03*
G04 #@! TD*
D17*
G04 #@! TO.C,R2*
G36*
X171080581Y-65366625D02*
X171113343Y-65371485D01*
X171145471Y-65379533D01*
X171176656Y-65390691D01*
X171206596Y-65404852D01*
X171235005Y-65421879D01*
X171261608Y-65441609D01*
X171286149Y-65463851D01*
X171308391Y-65488392D01*
X171328121Y-65514995D01*
X171345148Y-65543404D01*
X171359309Y-65573344D01*
X171370467Y-65604529D01*
X171378515Y-65636657D01*
X171383375Y-65669419D01*
X171385000Y-65702500D01*
X171385000Y-66377500D01*
X171383375Y-66410581D01*
X171378515Y-66443343D01*
X171370467Y-66475471D01*
X171359309Y-66506656D01*
X171345148Y-66536596D01*
X171328121Y-66565005D01*
X171308391Y-66591608D01*
X171286149Y-66616149D01*
X171261608Y-66638391D01*
X171235005Y-66658121D01*
X171206596Y-66675148D01*
X171176656Y-66689309D01*
X171145471Y-66700467D01*
X171113343Y-66708515D01*
X171080581Y-66713375D01*
X171047500Y-66715000D01*
X170272500Y-66715000D01*
X170239419Y-66713375D01*
X170206657Y-66708515D01*
X170174529Y-66700467D01*
X170143344Y-66689309D01*
X170113404Y-66675148D01*
X170084995Y-66658121D01*
X170058392Y-66638391D01*
X170033851Y-66616149D01*
X170011609Y-66591608D01*
X169991879Y-66565005D01*
X169974852Y-66536596D01*
X169960691Y-66506656D01*
X169949533Y-66475471D01*
X169941485Y-66443343D01*
X169936625Y-66410581D01*
X169935000Y-66377500D01*
X169935000Y-65702500D01*
X169936625Y-65669419D01*
X169941485Y-65636657D01*
X169949533Y-65604529D01*
X169960691Y-65573344D01*
X169974852Y-65543404D01*
X169991879Y-65514995D01*
X170011609Y-65488392D01*
X170033851Y-65463851D01*
X170058392Y-65441609D01*
X170084995Y-65421879D01*
X170113404Y-65404852D01*
X170143344Y-65390691D01*
X170174529Y-65379533D01*
X170206657Y-65371485D01*
X170239419Y-65366625D01*
X170272500Y-65365000D01*
X171047500Y-65365000D01*
X171080581Y-65366625D01*
X171080581Y-65366625D01*
G37*
D29*
X170660000Y-66040000D03*
D17*
G36*
X169330581Y-65366625D02*
X169363343Y-65371485D01*
X169395471Y-65379533D01*
X169426656Y-65390691D01*
X169456596Y-65404852D01*
X169485005Y-65421879D01*
X169511608Y-65441609D01*
X169536149Y-65463851D01*
X169558391Y-65488392D01*
X169578121Y-65514995D01*
X169595148Y-65543404D01*
X169609309Y-65573344D01*
X169620467Y-65604529D01*
X169628515Y-65636657D01*
X169633375Y-65669419D01*
X169635000Y-65702500D01*
X169635000Y-66377500D01*
X169633375Y-66410581D01*
X169628515Y-66443343D01*
X169620467Y-66475471D01*
X169609309Y-66506656D01*
X169595148Y-66536596D01*
X169578121Y-66565005D01*
X169558391Y-66591608D01*
X169536149Y-66616149D01*
X169511608Y-66638391D01*
X169485005Y-66658121D01*
X169456596Y-66675148D01*
X169426656Y-66689309D01*
X169395471Y-66700467D01*
X169363343Y-66708515D01*
X169330581Y-66713375D01*
X169297500Y-66715000D01*
X168522500Y-66715000D01*
X168489419Y-66713375D01*
X168456657Y-66708515D01*
X168424529Y-66700467D01*
X168393344Y-66689309D01*
X168363404Y-66675148D01*
X168334995Y-66658121D01*
X168308392Y-66638391D01*
X168283851Y-66616149D01*
X168261609Y-66591608D01*
X168241879Y-66565005D01*
X168224852Y-66536596D01*
X168210691Y-66506656D01*
X168199533Y-66475471D01*
X168191485Y-66443343D01*
X168186625Y-66410581D01*
X168185000Y-66377500D01*
X168185000Y-65702500D01*
X168186625Y-65669419D01*
X168191485Y-65636657D01*
X168199533Y-65604529D01*
X168210691Y-65573344D01*
X168224852Y-65543404D01*
X168241879Y-65514995D01*
X168261609Y-65488392D01*
X168283851Y-65463851D01*
X168308392Y-65441609D01*
X168334995Y-65421879D01*
X168363404Y-65404852D01*
X168393344Y-65390691D01*
X168424529Y-65379533D01*
X168456657Y-65371485D01*
X168489419Y-65366625D01*
X168522500Y-65365000D01*
X169297500Y-65365000D01*
X169330581Y-65366625D01*
X169330581Y-65366625D01*
G37*
D29*
X168910000Y-66040000D03*
G04 #@! TD*
D17*
G04 #@! TO.C,R3*
G36*
X166000581Y-121246625D02*
X166033343Y-121251485D01*
X166065471Y-121259533D01*
X166096656Y-121270691D01*
X166126596Y-121284852D01*
X166155005Y-121301879D01*
X166181608Y-121321609D01*
X166206149Y-121343851D01*
X166228391Y-121368392D01*
X166248121Y-121394995D01*
X166265148Y-121423404D01*
X166279309Y-121453344D01*
X166290467Y-121484529D01*
X166298515Y-121516657D01*
X166303375Y-121549419D01*
X166305000Y-121582500D01*
X166305000Y-122257500D01*
X166303375Y-122290581D01*
X166298515Y-122323343D01*
X166290467Y-122355471D01*
X166279309Y-122386656D01*
X166265148Y-122416596D01*
X166248121Y-122445005D01*
X166228391Y-122471608D01*
X166206149Y-122496149D01*
X166181608Y-122518391D01*
X166155005Y-122538121D01*
X166126596Y-122555148D01*
X166096656Y-122569309D01*
X166065471Y-122580467D01*
X166033343Y-122588515D01*
X166000581Y-122593375D01*
X165967500Y-122595000D01*
X165192500Y-122595000D01*
X165159419Y-122593375D01*
X165126657Y-122588515D01*
X165094529Y-122580467D01*
X165063344Y-122569309D01*
X165033404Y-122555148D01*
X165004995Y-122538121D01*
X164978392Y-122518391D01*
X164953851Y-122496149D01*
X164931609Y-122471608D01*
X164911879Y-122445005D01*
X164894852Y-122416596D01*
X164880691Y-122386656D01*
X164869533Y-122355471D01*
X164861485Y-122323343D01*
X164856625Y-122290581D01*
X164855000Y-122257500D01*
X164855000Y-121582500D01*
X164856625Y-121549419D01*
X164861485Y-121516657D01*
X164869533Y-121484529D01*
X164880691Y-121453344D01*
X164894852Y-121423404D01*
X164911879Y-121394995D01*
X164931609Y-121368392D01*
X164953851Y-121343851D01*
X164978392Y-121321609D01*
X165004995Y-121301879D01*
X165033404Y-121284852D01*
X165063344Y-121270691D01*
X165094529Y-121259533D01*
X165126657Y-121251485D01*
X165159419Y-121246625D01*
X165192500Y-121245000D01*
X165967500Y-121245000D01*
X166000581Y-121246625D01*
X166000581Y-121246625D01*
G37*
D29*
X165580000Y-121920000D03*
D17*
G36*
X164250581Y-121246625D02*
X164283343Y-121251485D01*
X164315471Y-121259533D01*
X164346656Y-121270691D01*
X164376596Y-121284852D01*
X164405005Y-121301879D01*
X164431608Y-121321609D01*
X164456149Y-121343851D01*
X164478391Y-121368392D01*
X164498121Y-121394995D01*
X164515148Y-121423404D01*
X164529309Y-121453344D01*
X164540467Y-121484529D01*
X164548515Y-121516657D01*
X164553375Y-121549419D01*
X164555000Y-121582500D01*
X164555000Y-122257500D01*
X164553375Y-122290581D01*
X164548515Y-122323343D01*
X164540467Y-122355471D01*
X164529309Y-122386656D01*
X164515148Y-122416596D01*
X164498121Y-122445005D01*
X164478391Y-122471608D01*
X164456149Y-122496149D01*
X164431608Y-122518391D01*
X164405005Y-122538121D01*
X164376596Y-122555148D01*
X164346656Y-122569309D01*
X164315471Y-122580467D01*
X164283343Y-122588515D01*
X164250581Y-122593375D01*
X164217500Y-122595000D01*
X163442500Y-122595000D01*
X163409419Y-122593375D01*
X163376657Y-122588515D01*
X163344529Y-122580467D01*
X163313344Y-122569309D01*
X163283404Y-122555148D01*
X163254995Y-122538121D01*
X163228392Y-122518391D01*
X163203851Y-122496149D01*
X163181609Y-122471608D01*
X163161879Y-122445005D01*
X163144852Y-122416596D01*
X163130691Y-122386656D01*
X163119533Y-122355471D01*
X163111485Y-122323343D01*
X163106625Y-122290581D01*
X163105000Y-122257500D01*
X163105000Y-121582500D01*
X163106625Y-121549419D01*
X163111485Y-121516657D01*
X163119533Y-121484529D01*
X163130691Y-121453344D01*
X163144852Y-121423404D01*
X163161879Y-121394995D01*
X163181609Y-121368392D01*
X163203851Y-121343851D01*
X163228392Y-121321609D01*
X163254995Y-121301879D01*
X163283404Y-121284852D01*
X163313344Y-121270691D01*
X163344529Y-121259533D01*
X163376657Y-121251485D01*
X163409419Y-121246625D01*
X163442500Y-121245000D01*
X164217500Y-121245000D01*
X164250581Y-121246625D01*
X164250581Y-121246625D01*
G37*
D29*
X163830000Y-121920000D03*
G04 #@! TD*
D17*
G04 #@! TO.C,R4*
G36*
X164398931Y-115941567D02*
X164430525Y-115946254D01*
X164461508Y-115954015D01*
X164491581Y-115964775D01*
X164520455Y-115978431D01*
X164547851Y-115994852D01*
X164573506Y-116013879D01*
X164597172Y-116035328D01*
X164618621Y-116058994D01*
X164637648Y-116084649D01*
X164654069Y-116112045D01*
X164667725Y-116140919D01*
X164678485Y-116170992D01*
X164686246Y-116201975D01*
X164690933Y-116233569D01*
X164692500Y-116265471D01*
X164692500Y-117414529D01*
X164690933Y-117446431D01*
X164686246Y-117478025D01*
X164678485Y-117509008D01*
X164667725Y-117539081D01*
X164654069Y-117567955D01*
X164637648Y-117595351D01*
X164618621Y-117621006D01*
X164597172Y-117644672D01*
X164573506Y-117666121D01*
X164547851Y-117685148D01*
X164520455Y-117701569D01*
X164491581Y-117715225D01*
X164461508Y-117725985D01*
X164430525Y-117733746D01*
X164398931Y-117738433D01*
X164367029Y-117740000D01*
X163292971Y-117740000D01*
X163261069Y-117738433D01*
X163229475Y-117733746D01*
X163198492Y-117725985D01*
X163168419Y-117715225D01*
X163139545Y-117701569D01*
X163112149Y-117685148D01*
X163086494Y-117666121D01*
X163062828Y-117644672D01*
X163041379Y-117621006D01*
X163022352Y-117595351D01*
X163005931Y-117567955D01*
X162992275Y-117539081D01*
X162981515Y-117509008D01*
X162973754Y-117478025D01*
X162969067Y-117446431D01*
X162967500Y-117414529D01*
X162967500Y-116265471D01*
X162969067Y-116233569D01*
X162973754Y-116201975D01*
X162981515Y-116170992D01*
X162992275Y-116140919D01*
X163005931Y-116112045D01*
X163022352Y-116084649D01*
X163041379Y-116058994D01*
X163062828Y-116035328D01*
X163086494Y-116013879D01*
X163112149Y-115994852D01*
X163139545Y-115978431D01*
X163168419Y-115964775D01*
X163198492Y-115954015D01*
X163229475Y-115946254D01*
X163261069Y-115941567D01*
X163292971Y-115940000D01*
X164367029Y-115940000D01*
X164398931Y-115941567D01*
X164398931Y-115941567D01*
G37*
D28*
X163830000Y-116840000D03*
D17*
G36*
X166273931Y-115941567D02*
X166305525Y-115946254D01*
X166336508Y-115954015D01*
X166366581Y-115964775D01*
X166395455Y-115978431D01*
X166422851Y-115994852D01*
X166448506Y-116013879D01*
X166472172Y-116035328D01*
X166493621Y-116058994D01*
X166512648Y-116084649D01*
X166529069Y-116112045D01*
X166542725Y-116140919D01*
X166553485Y-116170992D01*
X166561246Y-116201975D01*
X166565933Y-116233569D01*
X166567500Y-116265471D01*
X166567500Y-117414529D01*
X166565933Y-117446431D01*
X166561246Y-117478025D01*
X166553485Y-117509008D01*
X166542725Y-117539081D01*
X166529069Y-117567955D01*
X166512648Y-117595351D01*
X166493621Y-117621006D01*
X166472172Y-117644672D01*
X166448506Y-117666121D01*
X166422851Y-117685148D01*
X166395455Y-117701569D01*
X166366581Y-117715225D01*
X166336508Y-117725985D01*
X166305525Y-117733746D01*
X166273931Y-117738433D01*
X166242029Y-117740000D01*
X165167971Y-117740000D01*
X165136069Y-117738433D01*
X165104475Y-117733746D01*
X165073492Y-117725985D01*
X165043419Y-117715225D01*
X165014545Y-117701569D01*
X164987149Y-117685148D01*
X164961494Y-117666121D01*
X164937828Y-117644672D01*
X164916379Y-117621006D01*
X164897352Y-117595351D01*
X164880931Y-117567955D01*
X164867275Y-117539081D01*
X164856515Y-117509008D01*
X164848754Y-117478025D01*
X164844067Y-117446431D01*
X164842500Y-117414529D01*
X164842500Y-116265471D01*
X164844067Y-116233569D01*
X164848754Y-116201975D01*
X164856515Y-116170992D01*
X164867275Y-116140919D01*
X164880931Y-116112045D01*
X164897352Y-116084649D01*
X164916379Y-116058994D01*
X164937828Y-116035328D01*
X164961494Y-116013879D01*
X164987149Y-115994852D01*
X165014545Y-115978431D01*
X165043419Y-115964775D01*
X165073492Y-115954015D01*
X165104475Y-115946254D01*
X165136069Y-115941567D01*
X165167971Y-115940000D01*
X166242029Y-115940000D01*
X166273931Y-115941567D01*
X166273931Y-115941567D01*
G37*
D28*
X165705000Y-116840000D03*
G04 #@! TD*
D17*
G04 #@! TO.C,R5*
G36*
X144683931Y-63871567D02*
X144715525Y-63876254D01*
X144746508Y-63884015D01*
X144776581Y-63894775D01*
X144805455Y-63908431D01*
X144832851Y-63924852D01*
X144858506Y-63943879D01*
X144882172Y-63965328D01*
X144903621Y-63988994D01*
X144922648Y-64014649D01*
X144939069Y-64042045D01*
X144952725Y-64070919D01*
X144963485Y-64100992D01*
X144971246Y-64131975D01*
X144975933Y-64163569D01*
X144977500Y-64195471D01*
X144977500Y-65344529D01*
X144975933Y-65376431D01*
X144971246Y-65408025D01*
X144963485Y-65439008D01*
X144952725Y-65469081D01*
X144939069Y-65497955D01*
X144922648Y-65525351D01*
X144903621Y-65551006D01*
X144882172Y-65574672D01*
X144858506Y-65596121D01*
X144832851Y-65615148D01*
X144805455Y-65631569D01*
X144776581Y-65645225D01*
X144746508Y-65655985D01*
X144715525Y-65663746D01*
X144683931Y-65668433D01*
X144652029Y-65670000D01*
X143577971Y-65670000D01*
X143546069Y-65668433D01*
X143514475Y-65663746D01*
X143483492Y-65655985D01*
X143453419Y-65645225D01*
X143424545Y-65631569D01*
X143397149Y-65615148D01*
X143371494Y-65596121D01*
X143347828Y-65574672D01*
X143326379Y-65551006D01*
X143307352Y-65525351D01*
X143290931Y-65497955D01*
X143277275Y-65469081D01*
X143266515Y-65439008D01*
X143258754Y-65408025D01*
X143254067Y-65376431D01*
X143252500Y-65344529D01*
X143252500Y-64195471D01*
X143254067Y-64163569D01*
X143258754Y-64131975D01*
X143266515Y-64100992D01*
X143277275Y-64070919D01*
X143290931Y-64042045D01*
X143307352Y-64014649D01*
X143326379Y-63988994D01*
X143347828Y-63965328D01*
X143371494Y-63943879D01*
X143397149Y-63924852D01*
X143424545Y-63908431D01*
X143453419Y-63894775D01*
X143483492Y-63884015D01*
X143514475Y-63876254D01*
X143546069Y-63871567D01*
X143577971Y-63870000D01*
X144652029Y-63870000D01*
X144683931Y-63871567D01*
X144683931Y-63871567D01*
G37*
D28*
X144115000Y-64770000D03*
D17*
G36*
X142808931Y-63871567D02*
X142840525Y-63876254D01*
X142871508Y-63884015D01*
X142901581Y-63894775D01*
X142930455Y-63908431D01*
X142957851Y-63924852D01*
X142983506Y-63943879D01*
X143007172Y-63965328D01*
X143028621Y-63988994D01*
X143047648Y-64014649D01*
X143064069Y-64042045D01*
X143077725Y-64070919D01*
X143088485Y-64100992D01*
X143096246Y-64131975D01*
X143100933Y-64163569D01*
X143102500Y-64195471D01*
X143102500Y-65344529D01*
X143100933Y-65376431D01*
X143096246Y-65408025D01*
X143088485Y-65439008D01*
X143077725Y-65469081D01*
X143064069Y-65497955D01*
X143047648Y-65525351D01*
X143028621Y-65551006D01*
X143007172Y-65574672D01*
X142983506Y-65596121D01*
X142957851Y-65615148D01*
X142930455Y-65631569D01*
X142901581Y-65645225D01*
X142871508Y-65655985D01*
X142840525Y-65663746D01*
X142808931Y-65668433D01*
X142777029Y-65670000D01*
X141702971Y-65670000D01*
X141671069Y-65668433D01*
X141639475Y-65663746D01*
X141608492Y-65655985D01*
X141578419Y-65645225D01*
X141549545Y-65631569D01*
X141522149Y-65615148D01*
X141496494Y-65596121D01*
X141472828Y-65574672D01*
X141451379Y-65551006D01*
X141432352Y-65525351D01*
X141415931Y-65497955D01*
X141402275Y-65469081D01*
X141391515Y-65439008D01*
X141383754Y-65408025D01*
X141379067Y-65376431D01*
X141377500Y-65344529D01*
X141377500Y-64195471D01*
X141379067Y-64163569D01*
X141383754Y-64131975D01*
X141391515Y-64100992D01*
X141402275Y-64070919D01*
X141415931Y-64042045D01*
X141432352Y-64014649D01*
X141451379Y-63988994D01*
X141472828Y-63965328D01*
X141496494Y-63943879D01*
X141522149Y-63924852D01*
X141549545Y-63908431D01*
X141578419Y-63894775D01*
X141608492Y-63884015D01*
X141639475Y-63876254D01*
X141671069Y-63871567D01*
X141702971Y-63870000D01*
X142777029Y-63870000D01*
X142808931Y-63871567D01*
X142808931Y-63871567D01*
G37*
D28*
X142240000Y-64770000D03*
G04 #@! TD*
D17*
G04 #@! TO.C,R6*
G36*
X144683931Y-71491567D02*
X144715525Y-71496254D01*
X144746508Y-71504015D01*
X144776581Y-71514775D01*
X144805455Y-71528431D01*
X144832851Y-71544852D01*
X144858506Y-71563879D01*
X144882172Y-71585328D01*
X144903621Y-71608994D01*
X144922648Y-71634649D01*
X144939069Y-71662045D01*
X144952725Y-71690919D01*
X144963485Y-71720992D01*
X144971246Y-71751975D01*
X144975933Y-71783569D01*
X144977500Y-71815471D01*
X144977500Y-72964529D01*
X144975933Y-72996431D01*
X144971246Y-73028025D01*
X144963485Y-73059008D01*
X144952725Y-73089081D01*
X144939069Y-73117955D01*
X144922648Y-73145351D01*
X144903621Y-73171006D01*
X144882172Y-73194672D01*
X144858506Y-73216121D01*
X144832851Y-73235148D01*
X144805455Y-73251569D01*
X144776581Y-73265225D01*
X144746508Y-73275985D01*
X144715525Y-73283746D01*
X144683931Y-73288433D01*
X144652029Y-73290000D01*
X143577971Y-73290000D01*
X143546069Y-73288433D01*
X143514475Y-73283746D01*
X143483492Y-73275985D01*
X143453419Y-73265225D01*
X143424545Y-73251569D01*
X143397149Y-73235148D01*
X143371494Y-73216121D01*
X143347828Y-73194672D01*
X143326379Y-73171006D01*
X143307352Y-73145351D01*
X143290931Y-73117955D01*
X143277275Y-73089081D01*
X143266515Y-73059008D01*
X143258754Y-73028025D01*
X143254067Y-72996431D01*
X143252500Y-72964529D01*
X143252500Y-71815471D01*
X143254067Y-71783569D01*
X143258754Y-71751975D01*
X143266515Y-71720992D01*
X143277275Y-71690919D01*
X143290931Y-71662045D01*
X143307352Y-71634649D01*
X143326379Y-71608994D01*
X143347828Y-71585328D01*
X143371494Y-71563879D01*
X143397149Y-71544852D01*
X143424545Y-71528431D01*
X143453419Y-71514775D01*
X143483492Y-71504015D01*
X143514475Y-71496254D01*
X143546069Y-71491567D01*
X143577971Y-71490000D01*
X144652029Y-71490000D01*
X144683931Y-71491567D01*
X144683931Y-71491567D01*
G37*
D28*
X144115000Y-72390000D03*
D17*
G36*
X142808931Y-71491567D02*
X142840525Y-71496254D01*
X142871508Y-71504015D01*
X142901581Y-71514775D01*
X142930455Y-71528431D01*
X142957851Y-71544852D01*
X142983506Y-71563879D01*
X143007172Y-71585328D01*
X143028621Y-71608994D01*
X143047648Y-71634649D01*
X143064069Y-71662045D01*
X143077725Y-71690919D01*
X143088485Y-71720992D01*
X143096246Y-71751975D01*
X143100933Y-71783569D01*
X143102500Y-71815471D01*
X143102500Y-72964529D01*
X143100933Y-72996431D01*
X143096246Y-73028025D01*
X143088485Y-73059008D01*
X143077725Y-73089081D01*
X143064069Y-73117955D01*
X143047648Y-73145351D01*
X143028621Y-73171006D01*
X143007172Y-73194672D01*
X142983506Y-73216121D01*
X142957851Y-73235148D01*
X142930455Y-73251569D01*
X142901581Y-73265225D01*
X142871508Y-73275985D01*
X142840525Y-73283746D01*
X142808931Y-73288433D01*
X142777029Y-73290000D01*
X141702971Y-73290000D01*
X141671069Y-73288433D01*
X141639475Y-73283746D01*
X141608492Y-73275985D01*
X141578419Y-73265225D01*
X141549545Y-73251569D01*
X141522149Y-73235148D01*
X141496494Y-73216121D01*
X141472828Y-73194672D01*
X141451379Y-73171006D01*
X141432352Y-73145351D01*
X141415931Y-73117955D01*
X141402275Y-73089081D01*
X141391515Y-73059008D01*
X141383754Y-73028025D01*
X141379067Y-72996431D01*
X141377500Y-72964529D01*
X141377500Y-71815471D01*
X141379067Y-71783569D01*
X141383754Y-71751975D01*
X141391515Y-71720992D01*
X141402275Y-71690919D01*
X141415931Y-71662045D01*
X141432352Y-71634649D01*
X141451379Y-71608994D01*
X141472828Y-71585328D01*
X141496494Y-71563879D01*
X141522149Y-71544852D01*
X141549545Y-71528431D01*
X141578419Y-71514775D01*
X141608492Y-71504015D01*
X141639475Y-71496254D01*
X141671069Y-71491567D01*
X141702971Y-71490000D01*
X142777029Y-71490000D01*
X142808931Y-71491567D01*
X142808931Y-71491567D01*
G37*
D28*
X142240000Y-72390000D03*
G04 #@! TD*
D17*
G04 #@! TO.C,R7*
G36*
X142808931Y-82921567D02*
X142840525Y-82926254D01*
X142871508Y-82934015D01*
X142901581Y-82944775D01*
X142930455Y-82958431D01*
X142957851Y-82974852D01*
X142983506Y-82993879D01*
X143007172Y-83015328D01*
X143028621Y-83038994D01*
X143047648Y-83064649D01*
X143064069Y-83092045D01*
X143077725Y-83120919D01*
X143088485Y-83150992D01*
X143096246Y-83181975D01*
X143100933Y-83213569D01*
X143102500Y-83245471D01*
X143102500Y-84394529D01*
X143100933Y-84426431D01*
X143096246Y-84458025D01*
X143088485Y-84489008D01*
X143077725Y-84519081D01*
X143064069Y-84547955D01*
X143047648Y-84575351D01*
X143028621Y-84601006D01*
X143007172Y-84624672D01*
X142983506Y-84646121D01*
X142957851Y-84665148D01*
X142930455Y-84681569D01*
X142901581Y-84695225D01*
X142871508Y-84705985D01*
X142840525Y-84713746D01*
X142808931Y-84718433D01*
X142777029Y-84720000D01*
X141702971Y-84720000D01*
X141671069Y-84718433D01*
X141639475Y-84713746D01*
X141608492Y-84705985D01*
X141578419Y-84695225D01*
X141549545Y-84681569D01*
X141522149Y-84665148D01*
X141496494Y-84646121D01*
X141472828Y-84624672D01*
X141451379Y-84601006D01*
X141432352Y-84575351D01*
X141415931Y-84547955D01*
X141402275Y-84519081D01*
X141391515Y-84489008D01*
X141383754Y-84458025D01*
X141379067Y-84426431D01*
X141377500Y-84394529D01*
X141377500Y-83245471D01*
X141379067Y-83213569D01*
X141383754Y-83181975D01*
X141391515Y-83150992D01*
X141402275Y-83120919D01*
X141415931Y-83092045D01*
X141432352Y-83064649D01*
X141451379Y-83038994D01*
X141472828Y-83015328D01*
X141496494Y-82993879D01*
X141522149Y-82974852D01*
X141549545Y-82958431D01*
X141578419Y-82944775D01*
X141608492Y-82934015D01*
X141639475Y-82926254D01*
X141671069Y-82921567D01*
X141702971Y-82920000D01*
X142777029Y-82920000D01*
X142808931Y-82921567D01*
X142808931Y-82921567D01*
G37*
D28*
X142240000Y-83820000D03*
D17*
G36*
X144683931Y-82921567D02*
X144715525Y-82926254D01*
X144746508Y-82934015D01*
X144776581Y-82944775D01*
X144805455Y-82958431D01*
X144832851Y-82974852D01*
X144858506Y-82993879D01*
X144882172Y-83015328D01*
X144903621Y-83038994D01*
X144922648Y-83064649D01*
X144939069Y-83092045D01*
X144952725Y-83120919D01*
X144963485Y-83150992D01*
X144971246Y-83181975D01*
X144975933Y-83213569D01*
X144977500Y-83245471D01*
X144977500Y-84394529D01*
X144975933Y-84426431D01*
X144971246Y-84458025D01*
X144963485Y-84489008D01*
X144952725Y-84519081D01*
X144939069Y-84547955D01*
X144922648Y-84575351D01*
X144903621Y-84601006D01*
X144882172Y-84624672D01*
X144858506Y-84646121D01*
X144832851Y-84665148D01*
X144805455Y-84681569D01*
X144776581Y-84695225D01*
X144746508Y-84705985D01*
X144715525Y-84713746D01*
X144683931Y-84718433D01*
X144652029Y-84720000D01*
X143577971Y-84720000D01*
X143546069Y-84718433D01*
X143514475Y-84713746D01*
X143483492Y-84705985D01*
X143453419Y-84695225D01*
X143424545Y-84681569D01*
X143397149Y-84665148D01*
X143371494Y-84646121D01*
X143347828Y-84624672D01*
X143326379Y-84601006D01*
X143307352Y-84575351D01*
X143290931Y-84547955D01*
X143277275Y-84519081D01*
X143266515Y-84489008D01*
X143258754Y-84458025D01*
X143254067Y-84426431D01*
X143252500Y-84394529D01*
X143252500Y-83245471D01*
X143254067Y-83213569D01*
X143258754Y-83181975D01*
X143266515Y-83150992D01*
X143277275Y-83120919D01*
X143290931Y-83092045D01*
X143307352Y-83064649D01*
X143326379Y-83038994D01*
X143347828Y-83015328D01*
X143371494Y-82993879D01*
X143397149Y-82974852D01*
X143424545Y-82958431D01*
X143453419Y-82944775D01*
X143483492Y-82934015D01*
X143514475Y-82926254D01*
X143546069Y-82921567D01*
X143577971Y-82920000D01*
X144652029Y-82920000D01*
X144683931Y-82921567D01*
X144683931Y-82921567D01*
G37*
D28*
X144115000Y-83820000D03*
G04 #@! TD*
D17*
G04 #@! TO.C,R8*
G36*
X142808931Y-79111567D02*
X142840525Y-79116254D01*
X142871508Y-79124015D01*
X142901581Y-79134775D01*
X142930455Y-79148431D01*
X142957851Y-79164852D01*
X142983506Y-79183879D01*
X143007172Y-79205328D01*
X143028621Y-79228994D01*
X143047648Y-79254649D01*
X143064069Y-79282045D01*
X143077725Y-79310919D01*
X143088485Y-79340992D01*
X143096246Y-79371975D01*
X143100933Y-79403569D01*
X143102500Y-79435471D01*
X143102500Y-80584529D01*
X143100933Y-80616431D01*
X143096246Y-80648025D01*
X143088485Y-80679008D01*
X143077725Y-80709081D01*
X143064069Y-80737955D01*
X143047648Y-80765351D01*
X143028621Y-80791006D01*
X143007172Y-80814672D01*
X142983506Y-80836121D01*
X142957851Y-80855148D01*
X142930455Y-80871569D01*
X142901581Y-80885225D01*
X142871508Y-80895985D01*
X142840525Y-80903746D01*
X142808931Y-80908433D01*
X142777029Y-80910000D01*
X141702971Y-80910000D01*
X141671069Y-80908433D01*
X141639475Y-80903746D01*
X141608492Y-80895985D01*
X141578419Y-80885225D01*
X141549545Y-80871569D01*
X141522149Y-80855148D01*
X141496494Y-80836121D01*
X141472828Y-80814672D01*
X141451379Y-80791006D01*
X141432352Y-80765351D01*
X141415931Y-80737955D01*
X141402275Y-80709081D01*
X141391515Y-80679008D01*
X141383754Y-80648025D01*
X141379067Y-80616431D01*
X141377500Y-80584529D01*
X141377500Y-79435471D01*
X141379067Y-79403569D01*
X141383754Y-79371975D01*
X141391515Y-79340992D01*
X141402275Y-79310919D01*
X141415931Y-79282045D01*
X141432352Y-79254649D01*
X141451379Y-79228994D01*
X141472828Y-79205328D01*
X141496494Y-79183879D01*
X141522149Y-79164852D01*
X141549545Y-79148431D01*
X141578419Y-79134775D01*
X141608492Y-79124015D01*
X141639475Y-79116254D01*
X141671069Y-79111567D01*
X141702971Y-79110000D01*
X142777029Y-79110000D01*
X142808931Y-79111567D01*
X142808931Y-79111567D01*
G37*
D28*
X142240000Y-80010000D03*
D17*
G36*
X144683931Y-79111567D02*
X144715525Y-79116254D01*
X144746508Y-79124015D01*
X144776581Y-79134775D01*
X144805455Y-79148431D01*
X144832851Y-79164852D01*
X144858506Y-79183879D01*
X144882172Y-79205328D01*
X144903621Y-79228994D01*
X144922648Y-79254649D01*
X144939069Y-79282045D01*
X144952725Y-79310919D01*
X144963485Y-79340992D01*
X144971246Y-79371975D01*
X144975933Y-79403569D01*
X144977500Y-79435471D01*
X144977500Y-80584529D01*
X144975933Y-80616431D01*
X144971246Y-80648025D01*
X144963485Y-80679008D01*
X144952725Y-80709081D01*
X144939069Y-80737955D01*
X144922648Y-80765351D01*
X144903621Y-80791006D01*
X144882172Y-80814672D01*
X144858506Y-80836121D01*
X144832851Y-80855148D01*
X144805455Y-80871569D01*
X144776581Y-80885225D01*
X144746508Y-80895985D01*
X144715525Y-80903746D01*
X144683931Y-80908433D01*
X144652029Y-80910000D01*
X143577971Y-80910000D01*
X143546069Y-80908433D01*
X143514475Y-80903746D01*
X143483492Y-80895985D01*
X143453419Y-80885225D01*
X143424545Y-80871569D01*
X143397149Y-80855148D01*
X143371494Y-80836121D01*
X143347828Y-80814672D01*
X143326379Y-80791006D01*
X143307352Y-80765351D01*
X143290931Y-80737955D01*
X143277275Y-80709081D01*
X143266515Y-80679008D01*
X143258754Y-80648025D01*
X143254067Y-80616431D01*
X143252500Y-80584529D01*
X143252500Y-79435471D01*
X143254067Y-79403569D01*
X143258754Y-79371975D01*
X143266515Y-79340992D01*
X143277275Y-79310919D01*
X143290931Y-79282045D01*
X143307352Y-79254649D01*
X143326379Y-79228994D01*
X143347828Y-79205328D01*
X143371494Y-79183879D01*
X143397149Y-79164852D01*
X143424545Y-79148431D01*
X143453419Y-79134775D01*
X143483492Y-79124015D01*
X143514475Y-79116254D01*
X143546069Y-79111567D01*
X143577971Y-79110000D01*
X144652029Y-79110000D01*
X144683931Y-79111567D01*
X144683931Y-79111567D01*
G37*
D28*
X144115000Y-80010000D03*
G04 #@! TD*
D30*
G04 #@! TO.C,U1*
X155350000Y-75625000D03*
X157050000Y-75625000D03*
X158750000Y-75625000D03*
X160450000Y-75625000D03*
X162150000Y-75625000D03*
D31*
X158750000Y-66475000D03*
G04 #@! TD*
G04 #@! TO.C,U2*
X153670000Y-121485000D03*
D30*
X150270000Y-112335000D03*
X151970000Y-112335000D03*
X153670000Y-112335000D03*
X155370000Y-112335000D03*
X157070000Y-112335000D03*
G04 #@! TD*
D17*
G04 #@! TO.C,C7*
G36*
X142808931Y-94351567D02*
X142840525Y-94356254D01*
X142871508Y-94364015D01*
X142901581Y-94374775D01*
X142930455Y-94388431D01*
X142957851Y-94404852D01*
X142983506Y-94423879D01*
X143007172Y-94445328D01*
X143028621Y-94468994D01*
X143047648Y-94494649D01*
X143064069Y-94522045D01*
X143077725Y-94550919D01*
X143088485Y-94580992D01*
X143096246Y-94611975D01*
X143100933Y-94643569D01*
X143102500Y-94675471D01*
X143102500Y-95824529D01*
X143100933Y-95856431D01*
X143096246Y-95888025D01*
X143088485Y-95919008D01*
X143077725Y-95949081D01*
X143064069Y-95977955D01*
X143047648Y-96005351D01*
X143028621Y-96031006D01*
X143007172Y-96054672D01*
X142983506Y-96076121D01*
X142957851Y-96095148D01*
X142930455Y-96111569D01*
X142901581Y-96125225D01*
X142871508Y-96135985D01*
X142840525Y-96143746D01*
X142808931Y-96148433D01*
X142777029Y-96150000D01*
X141702971Y-96150000D01*
X141671069Y-96148433D01*
X141639475Y-96143746D01*
X141608492Y-96135985D01*
X141578419Y-96125225D01*
X141549545Y-96111569D01*
X141522149Y-96095148D01*
X141496494Y-96076121D01*
X141472828Y-96054672D01*
X141451379Y-96031006D01*
X141432352Y-96005351D01*
X141415931Y-95977955D01*
X141402275Y-95949081D01*
X141391515Y-95919008D01*
X141383754Y-95888025D01*
X141379067Y-95856431D01*
X141377500Y-95824529D01*
X141377500Y-94675471D01*
X141379067Y-94643569D01*
X141383754Y-94611975D01*
X141391515Y-94580992D01*
X141402275Y-94550919D01*
X141415931Y-94522045D01*
X141432352Y-94494649D01*
X141451379Y-94468994D01*
X141472828Y-94445328D01*
X141496494Y-94423879D01*
X141522149Y-94404852D01*
X141549545Y-94388431D01*
X141578419Y-94374775D01*
X141608492Y-94364015D01*
X141639475Y-94356254D01*
X141671069Y-94351567D01*
X141702971Y-94350000D01*
X142777029Y-94350000D01*
X142808931Y-94351567D01*
X142808931Y-94351567D01*
G37*
D28*
X142240000Y-95250000D03*
D17*
G36*
X144683931Y-94351567D02*
X144715525Y-94356254D01*
X144746508Y-94364015D01*
X144776581Y-94374775D01*
X144805455Y-94388431D01*
X144832851Y-94404852D01*
X144858506Y-94423879D01*
X144882172Y-94445328D01*
X144903621Y-94468994D01*
X144922648Y-94494649D01*
X144939069Y-94522045D01*
X144952725Y-94550919D01*
X144963485Y-94580992D01*
X144971246Y-94611975D01*
X144975933Y-94643569D01*
X144977500Y-94675471D01*
X144977500Y-95824529D01*
X144975933Y-95856431D01*
X144971246Y-95888025D01*
X144963485Y-95919008D01*
X144952725Y-95949081D01*
X144939069Y-95977955D01*
X144922648Y-96005351D01*
X144903621Y-96031006D01*
X144882172Y-96054672D01*
X144858506Y-96076121D01*
X144832851Y-96095148D01*
X144805455Y-96111569D01*
X144776581Y-96125225D01*
X144746508Y-96135985D01*
X144715525Y-96143746D01*
X144683931Y-96148433D01*
X144652029Y-96150000D01*
X143577971Y-96150000D01*
X143546069Y-96148433D01*
X143514475Y-96143746D01*
X143483492Y-96135985D01*
X143453419Y-96125225D01*
X143424545Y-96111569D01*
X143397149Y-96095148D01*
X143371494Y-96076121D01*
X143347828Y-96054672D01*
X143326379Y-96031006D01*
X143307352Y-96005351D01*
X143290931Y-95977955D01*
X143277275Y-95949081D01*
X143266515Y-95919008D01*
X143258754Y-95888025D01*
X143254067Y-95856431D01*
X143252500Y-95824529D01*
X143252500Y-94675471D01*
X143254067Y-94643569D01*
X143258754Y-94611975D01*
X143266515Y-94580992D01*
X143277275Y-94550919D01*
X143290931Y-94522045D01*
X143307352Y-94494649D01*
X143326379Y-94468994D01*
X143347828Y-94445328D01*
X143371494Y-94423879D01*
X143397149Y-94404852D01*
X143424545Y-94388431D01*
X143453419Y-94374775D01*
X143483492Y-94364015D01*
X143514475Y-94356254D01*
X143546069Y-94351567D01*
X143577971Y-94350000D01*
X144652029Y-94350000D01*
X144683931Y-94351567D01*
X144683931Y-94351567D01*
G37*
D28*
X144115000Y-95250000D03*
G04 #@! TD*
D17*
G04 #@! TO.C,C8*
G36*
X172683931Y-96891567D02*
X172715525Y-96896254D01*
X172746508Y-96904015D01*
X172776581Y-96914775D01*
X172805455Y-96928431D01*
X172832851Y-96944852D01*
X172858506Y-96963879D01*
X172882172Y-96985328D01*
X172903621Y-97008994D01*
X172922648Y-97034649D01*
X172939069Y-97062045D01*
X172952725Y-97090919D01*
X172963485Y-97120992D01*
X172971246Y-97151975D01*
X172975933Y-97183569D01*
X172977500Y-97215471D01*
X172977500Y-98364529D01*
X172975933Y-98396431D01*
X172971246Y-98428025D01*
X172963485Y-98459008D01*
X172952725Y-98489081D01*
X172939069Y-98517955D01*
X172922648Y-98545351D01*
X172903621Y-98571006D01*
X172882172Y-98594672D01*
X172858506Y-98616121D01*
X172832851Y-98635148D01*
X172805455Y-98651569D01*
X172776581Y-98665225D01*
X172746508Y-98675985D01*
X172715525Y-98683746D01*
X172683931Y-98688433D01*
X172652029Y-98690000D01*
X171577971Y-98690000D01*
X171546069Y-98688433D01*
X171514475Y-98683746D01*
X171483492Y-98675985D01*
X171453419Y-98665225D01*
X171424545Y-98651569D01*
X171397149Y-98635148D01*
X171371494Y-98616121D01*
X171347828Y-98594672D01*
X171326379Y-98571006D01*
X171307352Y-98545351D01*
X171290931Y-98517955D01*
X171277275Y-98489081D01*
X171266515Y-98459008D01*
X171258754Y-98428025D01*
X171254067Y-98396431D01*
X171252500Y-98364529D01*
X171252500Y-97215471D01*
X171254067Y-97183569D01*
X171258754Y-97151975D01*
X171266515Y-97120992D01*
X171277275Y-97090919D01*
X171290931Y-97062045D01*
X171307352Y-97034649D01*
X171326379Y-97008994D01*
X171347828Y-96985328D01*
X171371494Y-96963879D01*
X171397149Y-96944852D01*
X171424545Y-96928431D01*
X171453419Y-96914775D01*
X171483492Y-96904015D01*
X171514475Y-96896254D01*
X171546069Y-96891567D01*
X171577971Y-96890000D01*
X172652029Y-96890000D01*
X172683931Y-96891567D01*
X172683931Y-96891567D01*
G37*
D28*
X172115000Y-97790000D03*
D17*
G36*
X174558931Y-96891567D02*
X174590525Y-96896254D01*
X174621508Y-96904015D01*
X174651581Y-96914775D01*
X174680455Y-96928431D01*
X174707851Y-96944852D01*
X174733506Y-96963879D01*
X174757172Y-96985328D01*
X174778621Y-97008994D01*
X174797648Y-97034649D01*
X174814069Y-97062045D01*
X174827725Y-97090919D01*
X174838485Y-97120992D01*
X174846246Y-97151975D01*
X174850933Y-97183569D01*
X174852500Y-97215471D01*
X174852500Y-98364529D01*
X174850933Y-98396431D01*
X174846246Y-98428025D01*
X174838485Y-98459008D01*
X174827725Y-98489081D01*
X174814069Y-98517955D01*
X174797648Y-98545351D01*
X174778621Y-98571006D01*
X174757172Y-98594672D01*
X174733506Y-98616121D01*
X174707851Y-98635148D01*
X174680455Y-98651569D01*
X174651581Y-98665225D01*
X174621508Y-98675985D01*
X174590525Y-98683746D01*
X174558931Y-98688433D01*
X174527029Y-98690000D01*
X173452971Y-98690000D01*
X173421069Y-98688433D01*
X173389475Y-98683746D01*
X173358492Y-98675985D01*
X173328419Y-98665225D01*
X173299545Y-98651569D01*
X173272149Y-98635148D01*
X173246494Y-98616121D01*
X173222828Y-98594672D01*
X173201379Y-98571006D01*
X173182352Y-98545351D01*
X173165931Y-98517955D01*
X173152275Y-98489081D01*
X173141515Y-98459008D01*
X173133754Y-98428025D01*
X173129067Y-98396431D01*
X173127500Y-98364529D01*
X173127500Y-97215471D01*
X173129067Y-97183569D01*
X173133754Y-97151975D01*
X173141515Y-97120992D01*
X173152275Y-97090919D01*
X173165931Y-97062045D01*
X173182352Y-97034649D01*
X173201379Y-97008994D01*
X173222828Y-96985328D01*
X173246494Y-96963879D01*
X173272149Y-96944852D01*
X173299545Y-96928431D01*
X173328419Y-96914775D01*
X173358492Y-96904015D01*
X173389475Y-96896254D01*
X173421069Y-96891567D01*
X173452971Y-96890000D01*
X174527029Y-96890000D01*
X174558931Y-96891567D01*
X174558931Y-96891567D01*
G37*
D28*
X173990000Y-97790000D03*
G04 #@! TD*
D17*
G04 #@! TO.C,C9*
G36*
X174558931Y-85461567D02*
X174590525Y-85466254D01*
X174621508Y-85474015D01*
X174651581Y-85484775D01*
X174680455Y-85498431D01*
X174707851Y-85514852D01*
X174733506Y-85533879D01*
X174757172Y-85555328D01*
X174778621Y-85578994D01*
X174797648Y-85604649D01*
X174814069Y-85632045D01*
X174827725Y-85660919D01*
X174838485Y-85690992D01*
X174846246Y-85721975D01*
X174850933Y-85753569D01*
X174852500Y-85785471D01*
X174852500Y-86934529D01*
X174850933Y-86966431D01*
X174846246Y-86998025D01*
X174838485Y-87029008D01*
X174827725Y-87059081D01*
X174814069Y-87087955D01*
X174797648Y-87115351D01*
X174778621Y-87141006D01*
X174757172Y-87164672D01*
X174733506Y-87186121D01*
X174707851Y-87205148D01*
X174680455Y-87221569D01*
X174651581Y-87235225D01*
X174621508Y-87245985D01*
X174590525Y-87253746D01*
X174558931Y-87258433D01*
X174527029Y-87260000D01*
X173452971Y-87260000D01*
X173421069Y-87258433D01*
X173389475Y-87253746D01*
X173358492Y-87245985D01*
X173328419Y-87235225D01*
X173299545Y-87221569D01*
X173272149Y-87205148D01*
X173246494Y-87186121D01*
X173222828Y-87164672D01*
X173201379Y-87141006D01*
X173182352Y-87115351D01*
X173165931Y-87087955D01*
X173152275Y-87059081D01*
X173141515Y-87029008D01*
X173133754Y-86998025D01*
X173129067Y-86966431D01*
X173127500Y-86934529D01*
X173127500Y-85785471D01*
X173129067Y-85753569D01*
X173133754Y-85721975D01*
X173141515Y-85690992D01*
X173152275Y-85660919D01*
X173165931Y-85632045D01*
X173182352Y-85604649D01*
X173201379Y-85578994D01*
X173222828Y-85555328D01*
X173246494Y-85533879D01*
X173272149Y-85514852D01*
X173299545Y-85498431D01*
X173328419Y-85484775D01*
X173358492Y-85474015D01*
X173389475Y-85466254D01*
X173421069Y-85461567D01*
X173452971Y-85460000D01*
X174527029Y-85460000D01*
X174558931Y-85461567D01*
X174558931Y-85461567D01*
G37*
D28*
X173990000Y-86360000D03*
D17*
G36*
X172683931Y-85461567D02*
X172715525Y-85466254D01*
X172746508Y-85474015D01*
X172776581Y-85484775D01*
X172805455Y-85498431D01*
X172832851Y-85514852D01*
X172858506Y-85533879D01*
X172882172Y-85555328D01*
X172903621Y-85578994D01*
X172922648Y-85604649D01*
X172939069Y-85632045D01*
X172952725Y-85660919D01*
X172963485Y-85690992D01*
X172971246Y-85721975D01*
X172975933Y-85753569D01*
X172977500Y-85785471D01*
X172977500Y-86934529D01*
X172975933Y-86966431D01*
X172971246Y-86998025D01*
X172963485Y-87029008D01*
X172952725Y-87059081D01*
X172939069Y-87087955D01*
X172922648Y-87115351D01*
X172903621Y-87141006D01*
X172882172Y-87164672D01*
X172858506Y-87186121D01*
X172832851Y-87205148D01*
X172805455Y-87221569D01*
X172776581Y-87235225D01*
X172746508Y-87245985D01*
X172715525Y-87253746D01*
X172683931Y-87258433D01*
X172652029Y-87260000D01*
X171577971Y-87260000D01*
X171546069Y-87258433D01*
X171514475Y-87253746D01*
X171483492Y-87245985D01*
X171453419Y-87235225D01*
X171424545Y-87221569D01*
X171397149Y-87205148D01*
X171371494Y-87186121D01*
X171347828Y-87164672D01*
X171326379Y-87141006D01*
X171307352Y-87115351D01*
X171290931Y-87087955D01*
X171277275Y-87059081D01*
X171266515Y-87029008D01*
X171258754Y-86998025D01*
X171254067Y-86966431D01*
X171252500Y-86934529D01*
X171252500Y-85785471D01*
X171254067Y-85753569D01*
X171258754Y-85721975D01*
X171266515Y-85690992D01*
X171277275Y-85660919D01*
X171290931Y-85632045D01*
X171307352Y-85604649D01*
X171326379Y-85578994D01*
X171347828Y-85555328D01*
X171371494Y-85533879D01*
X171397149Y-85514852D01*
X171424545Y-85498431D01*
X171453419Y-85484775D01*
X171483492Y-85474015D01*
X171514475Y-85466254D01*
X171546069Y-85461567D01*
X171577971Y-85460000D01*
X172652029Y-85460000D01*
X172683931Y-85461567D01*
X172683931Y-85461567D01*
G37*
D28*
X172115000Y-86360000D03*
G04 #@! TD*
D17*
G04 #@! TO.C,C10*
G36*
X144683931Y-67681567D02*
X144715525Y-67686254D01*
X144746508Y-67694015D01*
X144776581Y-67704775D01*
X144805455Y-67718431D01*
X144832851Y-67734852D01*
X144858506Y-67753879D01*
X144882172Y-67775328D01*
X144903621Y-67798994D01*
X144922648Y-67824649D01*
X144939069Y-67852045D01*
X144952725Y-67880919D01*
X144963485Y-67910992D01*
X144971246Y-67941975D01*
X144975933Y-67973569D01*
X144977500Y-68005471D01*
X144977500Y-69154529D01*
X144975933Y-69186431D01*
X144971246Y-69218025D01*
X144963485Y-69249008D01*
X144952725Y-69279081D01*
X144939069Y-69307955D01*
X144922648Y-69335351D01*
X144903621Y-69361006D01*
X144882172Y-69384672D01*
X144858506Y-69406121D01*
X144832851Y-69425148D01*
X144805455Y-69441569D01*
X144776581Y-69455225D01*
X144746508Y-69465985D01*
X144715525Y-69473746D01*
X144683931Y-69478433D01*
X144652029Y-69480000D01*
X143577971Y-69480000D01*
X143546069Y-69478433D01*
X143514475Y-69473746D01*
X143483492Y-69465985D01*
X143453419Y-69455225D01*
X143424545Y-69441569D01*
X143397149Y-69425148D01*
X143371494Y-69406121D01*
X143347828Y-69384672D01*
X143326379Y-69361006D01*
X143307352Y-69335351D01*
X143290931Y-69307955D01*
X143277275Y-69279081D01*
X143266515Y-69249008D01*
X143258754Y-69218025D01*
X143254067Y-69186431D01*
X143252500Y-69154529D01*
X143252500Y-68005471D01*
X143254067Y-67973569D01*
X143258754Y-67941975D01*
X143266515Y-67910992D01*
X143277275Y-67880919D01*
X143290931Y-67852045D01*
X143307352Y-67824649D01*
X143326379Y-67798994D01*
X143347828Y-67775328D01*
X143371494Y-67753879D01*
X143397149Y-67734852D01*
X143424545Y-67718431D01*
X143453419Y-67704775D01*
X143483492Y-67694015D01*
X143514475Y-67686254D01*
X143546069Y-67681567D01*
X143577971Y-67680000D01*
X144652029Y-67680000D01*
X144683931Y-67681567D01*
X144683931Y-67681567D01*
G37*
D28*
X144115000Y-68580000D03*
D17*
G36*
X142808931Y-67681567D02*
X142840525Y-67686254D01*
X142871508Y-67694015D01*
X142901581Y-67704775D01*
X142930455Y-67718431D01*
X142957851Y-67734852D01*
X142983506Y-67753879D01*
X143007172Y-67775328D01*
X143028621Y-67798994D01*
X143047648Y-67824649D01*
X143064069Y-67852045D01*
X143077725Y-67880919D01*
X143088485Y-67910992D01*
X143096246Y-67941975D01*
X143100933Y-67973569D01*
X143102500Y-68005471D01*
X143102500Y-69154529D01*
X143100933Y-69186431D01*
X143096246Y-69218025D01*
X143088485Y-69249008D01*
X143077725Y-69279081D01*
X143064069Y-69307955D01*
X143047648Y-69335351D01*
X143028621Y-69361006D01*
X143007172Y-69384672D01*
X142983506Y-69406121D01*
X142957851Y-69425148D01*
X142930455Y-69441569D01*
X142901581Y-69455225D01*
X142871508Y-69465985D01*
X142840525Y-69473746D01*
X142808931Y-69478433D01*
X142777029Y-69480000D01*
X141702971Y-69480000D01*
X141671069Y-69478433D01*
X141639475Y-69473746D01*
X141608492Y-69465985D01*
X141578419Y-69455225D01*
X141549545Y-69441569D01*
X141522149Y-69425148D01*
X141496494Y-69406121D01*
X141472828Y-69384672D01*
X141451379Y-69361006D01*
X141432352Y-69335351D01*
X141415931Y-69307955D01*
X141402275Y-69279081D01*
X141391515Y-69249008D01*
X141383754Y-69218025D01*
X141379067Y-69186431D01*
X141377500Y-69154529D01*
X141377500Y-68005471D01*
X141379067Y-67973569D01*
X141383754Y-67941975D01*
X141391515Y-67910992D01*
X141402275Y-67880919D01*
X141415931Y-67852045D01*
X141432352Y-67824649D01*
X141451379Y-67798994D01*
X141472828Y-67775328D01*
X141496494Y-67753879D01*
X141522149Y-67734852D01*
X141549545Y-67718431D01*
X141578419Y-67704775D01*
X141608492Y-67694015D01*
X141639475Y-67686254D01*
X141671069Y-67681567D01*
X141702971Y-67680000D01*
X142777029Y-67680000D01*
X142808931Y-67681567D01*
X142808931Y-67681567D01*
G37*
D28*
X142240000Y-68580000D03*
G04 #@! TD*
D17*
G04 #@! TO.C,C11*
G36*
X142808931Y-75301567D02*
X142840525Y-75306254D01*
X142871508Y-75314015D01*
X142901581Y-75324775D01*
X142930455Y-75338431D01*
X142957851Y-75354852D01*
X142983506Y-75373879D01*
X143007172Y-75395328D01*
X143028621Y-75418994D01*
X143047648Y-75444649D01*
X143064069Y-75472045D01*
X143077725Y-75500919D01*
X143088485Y-75530992D01*
X143096246Y-75561975D01*
X143100933Y-75593569D01*
X143102500Y-75625471D01*
X143102500Y-76774529D01*
X143100933Y-76806431D01*
X143096246Y-76838025D01*
X143088485Y-76869008D01*
X143077725Y-76899081D01*
X143064069Y-76927955D01*
X143047648Y-76955351D01*
X143028621Y-76981006D01*
X143007172Y-77004672D01*
X142983506Y-77026121D01*
X142957851Y-77045148D01*
X142930455Y-77061569D01*
X142901581Y-77075225D01*
X142871508Y-77085985D01*
X142840525Y-77093746D01*
X142808931Y-77098433D01*
X142777029Y-77100000D01*
X141702971Y-77100000D01*
X141671069Y-77098433D01*
X141639475Y-77093746D01*
X141608492Y-77085985D01*
X141578419Y-77075225D01*
X141549545Y-77061569D01*
X141522149Y-77045148D01*
X141496494Y-77026121D01*
X141472828Y-77004672D01*
X141451379Y-76981006D01*
X141432352Y-76955351D01*
X141415931Y-76927955D01*
X141402275Y-76899081D01*
X141391515Y-76869008D01*
X141383754Y-76838025D01*
X141379067Y-76806431D01*
X141377500Y-76774529D01*
X141377500Y-75625471D01*
X141379067Y-75593569D01*
X141383754Y-75561975D01*
X141391515Y-75530992D01*
X141402275Y-75500919D01*
X141415931Y-75472045D01*
X141432352Y-75444649D01*
X141451379Y-75418994D01*
X141472828Y-75395328D01*
X141496494Y-75373879D01*
X141522149Y-75354852D01*
X141549545Y-75338431D01*
X141578419Y-75324775D01*
X141608492Y-75314015D01*
X141639475Y-75306254D01*
X141671069Y-75301567D01*
X141702971Y-75300000D01*
X142777029Y-75300000D01*
X142808931Y-75301567D01*
X142808931Y-75301567D01*
G37*
D28*
X142240000Y-76200000D03*
D17*
G36*
X144683931Y-75301567D02*
X144715525Y-75306254D01*
X144746508Y-75314015D01*
X144776581Y-75324775D01*
X144805455Y-75338431D01*
X144832851Y-75354852D01*
X144858506Y-75373879D01*
X144882172Y-75395328D01*
X144903621Y-75418994D01*
X144922648Y-75444649D01*
X144939069Y-75472045D01*
X144952725Y-75500919D01*
X144963485Y-75530992D01*
X144971246Y-75561975D01*
X144975933Y-75593569D01*
X144977500Y-75625471D01*
X144977500Y-76774529D01*
X144975933Y-76806431D01*
X144971246Y-76838025D01*
X144963485Y-76869008D01*
X144952725Y-76899081D01*
X144939069Y-76927955D01*
X144922648Y-76955351D01*
X144903621Y-76981006D01*
X144882172Y-77004672D01*
X144858506Y-77026121D01*
X144832851Y-77045148D01*
X144805455Y-77061569D01*
X144776581Y-77075225D01*
X144746508Y-77085985D01*
X144715525Y-77093746D01*
X144683931Y-77098433D01*
X144652029Y-77100000D01*
X143577971Y-77100000D01*
X143546069Y-77098433D01*
X143514475Y-77093746D01*
X143483492Y-77085985D01*
X143453419Y-77075225D01*
X143424545Y-77061569D01*
X143397149Y-77045148D01*
X143371494Y-77026121D01*
X143347828Y-77004672D01*
X143326379Y-76981006D01*
X143307352Y-76955351D01*
X143290931Y-76927955D01*
X143277275Y-76899081D01*
X143266515Y-76869008D01*
X143258754Y-76838025D01*
X143254067Y-76806431D01*
X143252500Y-76774529D01*
X143252500Y-75625471D01*
X143254067Y-75593569D01*
X143258754Y-75561975D01*
X143266515Y-75530992D01*
X143277275Y-75500919D01*
X143290931Y-75472045D01*
X143307352Y-75444649D01*
X143326379Y-75418994D01*
X143347828Y-75395328D01*
X143371494Y-75373879D01*
X143397149Y-75354852D01*
X143424545Y-75338431D01*
X143453419Y-75324775D01*
X143483492Y-75314015D01*
X143514475Y-75306254D01*
X143546069Y-75301567D01*
X143577971Y-75300000D01*
X144652029Y-75300000D01*
X144683931Y-75301567D01*
X144683931Y-75301567D01*
G37*
D28*
X144115000Y-76200000D03*
G04 #@! TD*
D17*
G04 #@! TO.C,R9*
G36*
X142808931Y-90541567D02*
X142840525Y-90546254D01*
X142871508Y-90554015D01*
X142901581Y-90564775D01*
X142930455Y-90578431D01*
X142957851Y-90594852D01*
X142983506Y-90613879D01*
X143007172Y-90635328D01*
X143028621Y-90658994D01*
X143047648Y-90684649D01*
X143064069Y-90712045D01*
X143077725Y-90740919D01*
X143088485Y-90770992D01*
X143096246Y-90801975D01*
X143100933Y-90833569D01*
X143102500Y-90865471D01*
X143102500Y-92014529D01*
X143100933Y-92046431D01*
X143096246Y-92078025D01*
X143088485Y-92109008D01*
X143077725Y-92139081D01*
X143064069Y-92167955D01*
X143047648Y-92195351D01*
X143028621Y-92221006D01*
X143007172Y-92244672D01*
X142983506Y-92266121D01*
X142957851Y-92285148D01*
X142930455Y-92301569D01*
X142901581Y-92315225D01*
X142871508Y-92325985D01*
X142840525Y-92333746D01*
X142808931Y-92338433D01*
X142777029Y-92340000D01*
X141702971Y-92340000D01*
X141671069Y-92338433D01*
X141639475Y-92333746D01*
X141608492Y-92325985D01*
X141578419Y-92315225D01*
X141549545Y-92301569D01*
X141522149Y-92285148D01*
X141496494Y-92266121D01*
X141472828Y-92244672D01*
X141451379Y-92221006D01*
X141432352Y-92195351D01*
X141415931Y-92167955D01*
X141402275Y-92139081D01*
X141391515Y-92109008D01*
X141383754Y-92078025D01*
X141379067Y-92046431D01*
X141377500Y-92014529D01*
X141377500Y-90865471D01*
X141379067Y-90833569D01*
X141383754Y-90801975D01*
X141391515Y-90770992D01*
X141402275Y-90740919D01*
X141415931Y-90712045D01*
X141432352Y-90684649D01*
X141451379Y-90658994D01*
X141472828Y-90635328D01*
X141496494Y-90613879D01*
X141522149Y-90594852D01*
X141549545Y-90578431D01*
X141578419Y-90564775D01*
X141608492Y-90554015D01*
X141639475Y-90546254D01*
X141671069Y-90541567D01*
X141702971Y-90540000D01*
X142777029Y-90540000D01*
X142808931Y-90541567D01*
X142808931Y-90541567D01*
G37*
D28*
X142240000Y-91440000D03*
D17*
G36*
X144683931Y-90541567D02*
X144715525Y-90546254D01*
X144746508Y-90554015D01*
X144776581Y-90564775D01*
X144805455Y-90578431D01*
X144832851Y-90594852D01*
X144858506Y-90613879D01*
X144882172Y-90635328D01*
X144903621Y-90658994D01*
X144922648Y-90684649D01*
X144939069Y-90712045D01*
X144952725Y-90740919D01*
X144963485Y-90770992D01*
X144971246Y-90801975D01*
X144975933Y-90833569D01*
X144977500Y-90865471D01*
X144977500Y-92014529D01*
X144975933Y-92046431D01*
X144971246Y-92078025D01*
X144963485Y-92109008D01*
X144952725Y-92139081D01*
X144939069Y-92167955D01*
X144922648Y-92195351D01*
X144903621Y-92221006D01*
X144882172Y-92244672D01*
X144858506Y-92266121D01*
X144832851Y-92285148D01*
X144805455Y-92301569D01*
X144776581Y-92315225D01*
X144746508Y-92325985D01*
X144715525Y-92333746D01*
X144683931Y-92338433D01*
X144652029Y-92340000D01*
X143577971Y-92340000D01*
X143546069Y-92338433D01*
X143514475Y-92333746D01*
X143483492Y-92325985D01*
X143453419Y-92315225D01*
X143424545Y-92301569D01*
X143397149Y-92285148D01*
X143371494Y-92266121D01*
X143347828Y-92244672D01*
X143326379Y-92221006D01*
X143307352Y-92195351D01*
X143290931Y-92167955D01*
X143277275Y-92139081D01*
X143266515Y-92109008D01*
X143258754Y-92078025D01*
X143254067Y-92046431D01*
X143252500Y-92014529D01*
X143252500Y-90865471D01*
X143254067Y-90833569D01*
X143258754Y-90801975D01*
X143266515Y-90770992D01*
X143277275Y-90740919D01*
X143290931Y-90712045D01*
X143307352Y-90684649D01*
X143326379Y-90658994D01*
X143347828Y-90635328D01*
X143371494Y-90613879D01*
X143397149Y-90594852D01*
X143424545Y-90578431D01*
X143453419Y-90564775D01*
X143483492Y-90554015D01*
X143514475Y-90546254D01*
X143546069Y-90541567D01*
X143577971Y-90540000D01*
X144652029Y-90540000D01*
X144683931Y-90541567D01*
X144683931Y-90541567D01*
G37*
D28*
X144115000Y-91440000D03*
G04 #@! TD*
D17*
G04 #@! TO.C,R10*
G36*
X144683931Y-86731567D02*
X144715525Y-86736254D01*
X144746508Y-86744015D01*
X144776581Y-86754775D01*
X144805455Y-86768431D01*
X144832851Y-86784852D01*
X144858506Y-86803879D01*
X144882172Y-86825328D01*
X144903621Y-86848994D01*
X144922648Y-86874649D01*
X144939069Y-86902045D01*
X144952725Y-86930919D01*
X144963485Y-86960992D01*
X144971246Y-86991975D01*
X144975933Y-87023569D01*
X144977500Y-87055471D01*
X144977500Y-88204529D01*
X144975933Y-88236431D01*
X144971246Y-88268025D01*
X144963485Y-88299008D01*
X144952725Y-88329081D01*
X144939069Y-88357955D01*
X144922648Y-88385351D01*
X144903621Y-88411006D01*
X144882172Y-88434672D01*
X144858506Y-88456121D01*
X144832851Y-88475148D01*
X144805455Y-88491569D01*
X144776581Y-88505225D01*
X144746508Y-88515985D01*
X144715525Y-88523746D01*
X144683931Y-88528433D01*
X144652029Y-88530000D01*
X143577971Y-88530000D01*
X143546069Y-88528433D01*
X143514475Y-88523746D01*
X143483492Y-88515985D01*
X143453419Y-88505225D01*
X143424545Y-88491569D01*
X143397149Y-88475148D01*
X143371494Y-88456121D01*
X143347828Y-88434672D01*
X143326379Y-88411006D01*
X143307352Y-88385351D01*
X143290931Y-88357955D01*
X143277275Y-88329081D01*
X143266515Y-88299008D01*
X143258754Y-88268025D01*
X143254067Y-88236431D01*
X143252500Y-88204529D01*
X143252500Y-87055471D01*
X143254067Y-87023569D01*
X143258754Y-86991975D01*
X143266515Y-86960992D01*
X143277275Y-86930919D01*
X143290931Y-86902045D01*
X143307352Y-86874649D01*
X143326379Y-86848994D01*
X143347828Y-86825328D01*
X143371494Y-86803879D01*
X143397149Y-86784852D01*
X143424545Y-86768431D01*
X143453419Y-86754775D01*
X143483492Y-86744015D01*
X143514475Y-86736254D01*
X143546069Y-86731567D01*
X143577971Y-86730000D01*
X144652029Y-86730000D01*
X144683931Y-86731567D01*
X144683931Y-86731567D01*
G37*
D28*
X144115000Y-87630000D03*
D17*
G36*
X142808931Y-86731567D02*
X142840525Y-86736254D01*
X142871508Y-86744015D01*
X142901581Y-86754775D01*
X142930455Y-86768431D01*
X142957851Y-86784852D01*
X142983506Y-86803879D01*
X143007172Y-86825328D01*
X143028621Y-86848994D01*
X143047648Y-86874649D01*
X143064069Y-86902045D01*
X143077725Y-86930919D01*
X143088485Y-86960992D01*
X143096246Y-86991975D01*
X143100933Y-87023569D01*
X143102500Y-87055471D01*
X143102500Y-88204529D01*
X143100933Y-88236431D01*
X143096246Y-88268025D01*
X143088485Y-88299008D01*
X143077725Y-88329081D01*
X143064069Y-88357955D01*
X143047648Y-88385351D01*
X143028621Y-88411006D01*
X143007172Y-88434672D01*
X142983506Y-88456121D01*
X142957851Y-88475148D01*
X142930455Y-88491569D01*
X142901581Y-88505225D01*
X142871508Y-88515985D01*
X142840525Y-88523746D01*
X142808931Y-88528433D01*
X142777029Y-88530000D01*
X141702971Y-88530000D01*
X141671069Y-88528433D01*
X141639475Y-88523746D01*
X141608492Y-88515985D01*
X141578419Y-88505225D01*
X141549545Y-88491569D01*
X141522149Y-88475148D01*
X141496494Y-88456121D01*
X141472828Y-88434672D01*
X141451379Y-88411006D01*
X141432352Y-88385351D01*
X141415931Y-88357955D01*
X141402275Y-88329081D01*
X141391515Y-88299008D01*
X141383754Y-88268025D01*
X141379067Y-88236431D01*
X141377500Y-88204529D01*
X141377500Y-87055471D01*
X141379067Y-87023569D01*
X141383754Y-86991975D01*
X141391515Y-86960992D01*
X141402275Y-86930919D01*
X141415931Y-86902045D01*
X141432352Y-86874649D01*
X141451379Y-86848994D01*
X141472828Y-86825328D01*
X141496494Y-86803879D01*
X141522149Y-86784852D01*
X141549545Y-86768431D01*
X141578419Y-86754775D01*
X141608492Y-86744015D01*
X141639475Y-86736254D01*
X141671069Y-86731567D01*
X141702971Y-86730000D01*
X142777029Y-86730000D01*
X142808931Y-86731567D01*
X142808931Y-86731567D01*
G37*
D28*
X142240000Y-87630000D03*
G04 #@! TD*
D17*
G04 #@! TO.C,R11*
G36*
X174558931Y-100701567D02*
X174590525Y-100706254D01*
X174621508Y-100714015D01*
X174651581Y-100724775D01*
X174680455Y-100738431D01*
X174707851Y-100754852D01*
X174733506Y-100773879D01*
X174757172Y-100795328D01*
X174778621Y-100818994D01*
X174797648Y-100844649D01*
X174814069Y-100872045D01*
X174827725Y-100900919D01*
X174838485Y-100930992D01*
X174846246Y-100961975D01*
X174850933Y-100993569D01*
X174852500Y-101025471D01*
X174852500Y-102174529D01*
X174850933Y-102206431D01*
X174846246Y-102238025D01*
X174838485Y-102269008D01*
X174827725Y-102299081D01*
X174814069Y-102327955D01*
X174797648Y-102355351D01*
X174778621Y-102381006D01*
X174757172Y-102404672D01*
X174733506Y-102426121D01*
X174707851Y-102445148D01*
X174680455Y-102461569D01*
X174651581Y-102475225D01*
X174621508Y-102485985D01*
X174590525Y-102493746D01*
X174558931Y-102498433D01*
X174527029Y-102500000D01*
X173452971Y-102500000D01*
X173421069Y-102498433D01*
X173389475Y-102493746D01*
X173358492Y-102485985D01*
X173328419Y-102475225D01*
X173299545Y-102461569D01*
X173272149Y-102445148D01*
X173246494Y-102426121D01*
X173222828Y-102404672D01*
X173201379Y-102381006D01*
X173182352Y-102355351D01*
X173165931Y-102327955D01*
X173152275Y-102299081D01*
X173141515Y-102269008D01*
X173133754Y-102238025D01*
X173129067Y-102206431D01*
X173127500Y-102174529D01*
X173127500Y-101025471D01*
X173129067Y-100993569D01*
X173133754Y-100961975D01*
X173141515Y-100930992D01*
X173152275Y-100900919D01*
X173165931Y-100872045D01*
X173182352Y-100844649D01*
X173201379Y-100818994D01*
X173222828Y-100795328D01*
X173246494Y-100773879D01*
X173272149Y-100754852D01*
X173299545Y-100738431D01*
X173328419Y-100724775D01*
X173358492Y-100714015D01*
X173389475Y-100706254D01*
X173421069Y-100701567D01*
X173452971Y-100700000D01*
X174527029Y-100700000D01*
X174558931Y-100701567D01*
X174558931Y-100701567D01*
G37*
D28*
X173990000Y-101600000D03*
D17*
G36*
X172683931Y-100701567D02*
X172715525Y-100706254D01*
X172746508Y-100714015D01*
X172776581Y-100724775D01*
X172805455Y-100738431D01*
X172832851Y-100754852D01*
X172858506Y-100773879D01*
X172882172Y-100795328D01*
X172903621Y-100818994D01*
X172922648Y-100844649D01*
X172939069Y-100872045D01*
X172952725Y-100900919D01*
X172963485Y-100930992D01*
X172971246Y-100961975D01*
X172975933Y-100993569D01*
X172977500Y-101025471D01*
X172977500Y-102174529D01*
X172975933Y-102206431D01*
X172971246Y-102238025D01*
X172963485Y-102269008D01*
X172952725Y-102299081D01*
X172939069Y-102327955D01*
X172922648Y-102355351D01*
X172903621Y-102381006D01*
X172882172Y-102404672D01*
X172858506Y-102426121D01*
X172832851Y-102445148D01*
X172805455Y-102461569D01*
X172776581Y-102475225D01*
X172746508Y-102485985D01*
X172715525Y-102493746D01*
X172683931Y-102498433D01*
X172652029Y-102500000D01*
X171577971Y-102500000D01*
X171546069Y-102498433D01*
X171514475Y-102493746D01*
X171483492Y-102485985D01*
X171453419Y-102475225D01*
X171424545Y-102461569D01*
X171397149Y-102445148D01*
X171371494Y-102426121D01*
X171347828Y-102404672D01*
X171326379Y-102381006D01*
X171307352Y-102355351D01*
X171290931Y-102327955D01*
X171277275Y-102299081D01*
X171266515Y-102269008D01*
X171258754Y-102238025D01*
X171254067Y-102206431D01*
X171252500Y-102174529D01*
X171252500Y-101025471D01*
X171254067Y-100993569D01*
X171258754Y-100961975D01*
X171266515Y-100930992D01*
X171277275Y-100900919D01*
X171290931Y-100872045D01*
X171307352Y-100844649D01*
X171326379Y-100818994D01*
X171347828Y-100795328D01*
X171371494Y-100773879D01*
X171397149Y-100754852D01*
X171424545Y-100738431D01*
X171453419Y-100724775D01*
X171483492Y-100714015D01*
X171514475Y-100706254D01*
X171546069Y-100701567D01*
X171577971Y-100700000D01*
X172652029Y-100700000D01*
X172683931Y-100701567D01*
X172683931Y-100701567D01*
G37*
D28*
X172115000Y-101600000D03*
G04 #@! TD*
D17*
G04 #@! TO.C,R12*
G36*
X172683931Y-104511567D02*
X172715525Y-104516254D01*
X172746508Y-104524015D01*
X172776581Y-104534775D01*
X172805455Y-104548431D01*
X172832851Y-104564852D01*
X172858506Y-104583879D01*
X172882172Y-104605328D01*
X172903621Y-104628994D01*
X172922648Y-104654649D01*
X172939069Y-104682045D01*
X172952725Y-104710919D01*
X172963485Y-104740992D01*
X172971246Y-104771975D01*
X172975933Y-104803569D01*
X172977500Y-104835471D01*
X172977500Y-105984529D01*
X172975933Y-106016431D01*
X172971246Y-106048025D01*
X172963485Y-106079008D01*
X172952725Y-106109081D01*
X172939069Y-106137955D01*
X172922648Y-106165351D01*
X172903621Y-106191006D01*
X172882172Y-106214672D01*
X172858506Y-106236121D01*
X172832851Y-106255148D01*
X172805455Y-106271569D01*
X172776581Y-106285225D01*
X172746508Y-106295985D01*
X172715525Y-106303746D01*
X172683931Y-106308433D01*
X172652029Y-106310000D01*
X171577971Y-106310000D01*
X171546069Y-106308433D01*
X171514475Y-106303746D01*
X171483492Y-106295985D01*
X171453419Y-106285225D01*
X171424545Y-106271569D01*
X171397149Y-106255148D01*
X171371494Y-106236121D01*
X171347828Y-106214672D01*
X171326379Y-106191006D01*
X171307352Y-106165351D01*
X171290931Y-106137955D01*
X171277275Y-106109081D01*
X171266515Y-106079008D01*
X171258754Y-106048025D01*
X171254067Y-106016431D01*
X171252500Y-105984529D01*
X171252500Y-104835471D01*
X171254067Y-104803569D01*
X171258754Y-104771975D01*
X171266515Y-104740992D01*
X171277275Y-104710919D01*
X171290931Y-104682045D01*
X171307352Y-104654649D01*
X171326379Y-104628994D01*
X171347828Y-104605328D01*
X171371494Y-104583879D01*
X171397149Y-104564852D01*
X171424545Y-104548431D01*
X171453419Y-104534775D01*
X171483492Y-104524015D01*
X171514475Y-104516254D01*
X171546069Y-104511567D01*
X171577971Y-104510000D01*
X172652029Y-104510000D01*
X172683931Y-104511567D01*
X172683931Y-104511567D01*
G37*
D28*
X172115000Y-105410000D03*
D17*
G36*
X174558931Y-104511567D02*
X174590525Y-104516254D01*
X174621508Y-104524015D01*
X174651581Y-104534775D01*
X174680455Y-104548431D01*
X174707851Y-104564852D01*
X174733506Y-104583879D01*
X174757172Y-104605328D01*
X174778621Y-104628994D01*
X174797648Y-104654649D01*
X174814069Y-104682045D01*
X174827725Y-104710919D01*
X174838485Y-104740992D01*
X174846246Y-104771975D01*
X174850933Y-104803569D01*
X174852500Y-104835471D01*
X174852500Y-105984529D01*
X174850933Y-106016431D01*
X174846246Y-106048025D01*
X174838485Y-106079008D01*
X174827725Y-106109081D01*
X174814069Y-106137955D01*
X174797648Y-106165351D01*
X174778621Y-106191006D01*
X174757172Y-106214672D01*
X174733506Y-106236121D01*
X174707851Y-106255148D01*
X174680455Y-106271569D01*
X174651581Y-106285225D01*
X174621508Y-106295985D01*
X174590525Y-106303746D01*
X174558931Y-106308433D01*
X174527029Y-106310000D01*
X173452971Y-106310000D01*
X173421069Y-106308433D01*
X173389475Y-106303746D01*
X173358492Y-106295985D01*
X173328419Y-106285225D01*
X173299545Y-106271569D01*
X173272149Y-106255148D01*
X173246494Y-106236121D01*
X173222828Y-106214672D01*
X173201379Y-106191006D01*
X173182352Y-106165351D01*
X173165931Y-106137955D01*
X173152275Y-106109081D01*
X173141515Y-106079008D01*
X173133754Y-106048025D01*
X173129067Y-106016431D01*
X173127500Y-105984529D01*
X173127500Y-104835471D01*
X173129067Y-104803569D01*
X173133754Y-104771975D01*
X173141515Y-104740992D01*
X173152275Y-104710919D01*
X173165931Y-104682045D01*
X173182352Y-104654649D01*
X173201379Y-104628994D01*
X173222828Y-104605328D01*
X173246494Y-104583879D01*
X173272149Y-104564852D01*
X173299545Y-104548431D01*
X173328419Y-104534775D01*
X173358492Y-104524015D01*
X173389475Y-104516254D01*
X173421069Y-104511567D01*
X173452971Y-104510000D01*
X174527029Y-104510000D01*
X174558931Y-104511567D01*
X174558931Y-104511567D01*
G37*
D28*
X173990000Y-105410000D03*
G04 #@! TD*
D17*
G04 #@! TO.C,R13*
G36*
X174558931Y-93081567D02*
X174590525Y-93086254D01*
X174621508Y-93094015D01*
X174651581Y-93104775D01*
X174680455Y-93118431D01*
X174707851Y-93134852D01*
X174733506Y-93153879D01*
X174757172Y-93175328D01*
X174778621Y-93198994D01*
X174797648Y-93224649D01*
X174814069Y-93252045D01*
X174827725Y-93280919D01*
X174838485Y-93310992D01*
X174846246Y-93341975D01*
X174850933Y-93373569D01*
X174852500Y-93405471D01*
X174852500Y-94554529D01*
X174850933Y-94586431D01*
X174846246Y-94618025D01*
X174838485Y-94649008D01*
X174827725Y-94679081D01*
X174814069Y-94707955D01*
X174797648Y-94735351D01*
X174778621Y-94761006D01*
X174757172Y-94784672D01*
X174733506Y-94806121D01*
X174707851Y-94825148D01*
X174680455Y-94841569D01*
X174651581Y-94855225D01*
X174621508Y-94865985D01*
X174590525Y-94873746D01*
X174558931Y-94878433D01*
X174527029Y-94880000D01*
X173452971Y-94880000D01*
X173421069Y-94878433D01*
X173389475Y-94873746D01*
X173358492Y-94865985D01*
X173328419Y-94855225D01*
X173299545Y-94841569D01*
X173272149Y-94825148D01*
X173246494Y-94806121D01*
X173222828Y-94784672D01*
X173201379Y-94761006D01*
X173182352Y-94735351D01*
X173165931Y-94707955D01*
X173152275Y-94679081D01*
X173141515Y-94649008D01*
X173133754Y-94618025D01*
X173129067Y-94586431D01*
X173127500Y-94554529D01*
X173127500Y-93405471D01*
X173129067Y-93373569D01*
X173133754Y-93341975D01*
X173141515Y-93310992D01*
X173152275Y-93280919D01*
X173165931Y-93252045D01*
X173182352Y-93224649D01*
X173201379Y-93198994D01*
X173222828Y-93175328D01*
X173246494Y-93153879D01*
X173272149Y-93134852D01*
X173299545Y-93118431D01*
X173328419Y-93104775D01*
X173358492Y-93094015D01*
X173389475Y-93086254D01*
X173421069Y-93081567D01*
X173452971Y-93080000D01*
X174527029Y-93080000D01*
X174558931Y-93081567D01*
X174558931Y-93081567D01*
G37*
D28*
X173990000Y-93980000D03*
D17*
G36*
X172683931Y-93081567D02*
X172715525Y-93086254D01*
X172746508Y-93094015D01*
X172776581Y-93104775D01*
X172805455Y-93118431D01*
X172832851Y-93134852D01*
X172858506Y-93153879D01*
X172882172Y-93175328D01*
X172903621Y-93198994D01*
X172922648Y-93224649D01*
X172939069Y-93252045D01*
X172952725Y-93280919D01*
X172963485Y-93310992D01*
X172971246Y-93341975D01*
X172975933Y-93373569D01*
X172977500Y-93405471D01*
X172977500Y-94554529D01*
X172975933Y-94586431D01*
X172971246Y-94618025D01*
X172963485Y-94649008D01*
X172952725Y-94679081D01*
X172939069Y-94707955D01*
X172922648Y-94735351D01*
X172903621Y-94761006D01*
X172882172Y-94784672D01*
X172858506Y-94806121D01*
X172832851Y-94825148D01*
X172805455Y-94841569D01*
X172776581Y-94855225D01*
X172746508Y-94865985D01*
X172715525Y-94873746D01*
X172683931Y-94878433D01*
X172652029Y-94880000D01*
X171577971Y-94880000D01*
X171546069Y-94878433D01*
X171514475Y-94873746D01*
X171483492Y-94865985D01*
X171453419Y-94855225D01*
X171424545Y-94841569D01*
X171397149Y-94825148D01*
X171371494Y-94806121D01*
X171347828Y-94784672D01*
X171326379Y-94761006D01*
X171307352Y-94735351D01*
X171290931Y-94707955D01*
X171277275Y-94679081D01*
X171266515Y-94649008D01*
X171258754Y-94618025D01*
X171254067Y-94586431D01*
X171252500Y-94554529D01*
X171252500Y-93405471D01*
X171254067Y-93373569D01*
X171258754Y-93341975D01*
X171266515Y-93310992D01*
X171277275Y-93280919D01*
X171290931Y-93252045D01*
X171307352Y-93224649D01*
X171326379Y-93198994D01*
X171347828Y-93175328D01*
X171371494Y-93153879D01*
X171397149Y-93134852D01*
X171424545Y-93118431D01*
X171453419Y-93104775D01*
X171483492Y-93094015D01*
X171514475Y-93086254D01*
X171546069Y-93081567D01*
X171577971Y-93080000D01*
X172652029Y-93080000D01*
X172683931Y-93081567D01*
X172683931Y-93081567D01*
G37*
D28*
X172115000Y-93980000D03*
G04 #@! TD*
D17*
G04 #@! TO.C,R14*
G36*
X172683931Y-89271567D02*
X172715525Y-89276254D01*
X172746508Y-89284015D01*
X172776581Y-89294775D01*
X172805455Y-89308431D01*
X172832851Y-89324852D01*
X172858506Y-89343879D01*
X172882172Y-89365328D01*
X172903621Y-89388994D01*
X172922648Y-89414649D01*
X172939069Y-89442045D01*
X172952725Y-89470919D01*
X172963485Y-89500992D01*
X172971246Y-89531975D01*
X172975933Y-89563569D01*
X172977500Y-89595471D01*
X172977500Y-90744529D01*
X172975933Y-90776431D01*
X172971246Y-90808025D01*
X172963485Y-90839008D01*
X172952725Y-90869081D01*
X172939069Y-90897955D01*
X172922648Y-90925351D01*
X172903621Y-90951006D01*
X172882172Y-90974672D01*
X172858506Y-90996121D01*
X172832851Y-91015148D01*
X172805455Y-91031569D01*
X172776581Y-91045225D01*
X172746508Y-91055985D01*
X172715525Y-91063746D01*
X172683931Y-91068433D01*
X172652029Y-91070000D01*
X171577971Y-91070000D01*
X171546069Y-91068433D01*
X171514475Y-91063746D01*
X171483492Y-91055985D01*
X171453419Y-91045225D01*
X171424545Y-91031569D01*
X171397149Y-91015148D01*
X171371494Y-90996121D01*
X171347828Y-90974672D01*
X171326379Y-90951006D01*
X171307352Y-90925351D01*
X171290931Y-90897955D01*
X171277275Y-90869081D01*
X171266515Y-90839008D01*
X171258754Y-90808025D01*
X171254067Y-90776431D01*
X171252500Y-90744529D01*
X171252500Y-89595471D01*
X171254067Y-89563569D01*
X171258754Y-89531975D01*
X171266515Y-89500992D01*
X171277275Y-89470919D01*
X171290931Y-89442045D01*
X171307352Y-89414649D01*
X171326379Y-89388994D01*
X171347828Y-89365328D01*
X171371494Y-89343879D01*
X171397149Y-89324852D01*
X171424545Y-89308431D01*
X171453419Y-89294775D01*
X171483492Y-89284015D01*
X171514475Y-89276254D01*
X171546069Y-89271567D01*
X171577971Y-89270000D01*
X172652029Y-89270000D01*
X172683931Y-89271567D01*
X172683931Y-89271567D01*
G37*
D28*
X172115000Y-90170000D03*
D17*
G36*
X174558931Y-89271567D02*
X174590525Y-89276254D01*
X174621508Y-89284015D01*
X174651581Y-89294775D01*
X174680455Y-89308431D01*
X174707851Y-89324852D01*
X174733506Y-89343879D01*
X174757172Y-89365328D01*
X174778621Y-89388994D01*
X174797648Y-89414649D01*
X174814069Y-89442045D01*
X174827725Y-89470919D01*
X174838485Y-89500992D01*
X174846246Y-89531975D01*
X174850933Y-89563569D01*
X174852500Y-89595471D01*
X174852500Y-90744529D01*
X174850933Y-90776431D01*
X174846246Y-90808025D01*
X174838485Y-90839008D01*
X174827725Y-90869081D01*
X174814069Y-90897955D01*
X174797648Y-90925351D01*
X174778621Y-90951006D01*
X174757172Y-90974672D01*
X174733506Y-90996121D01*
X174707851Y-91015148D01*
X174680455Y-91031569D01*
X174651581Y-91045225D01*
X174621508Y-91055985D01*
X174590525Y-91063746D01*
X174558931Y-91068433D01*
X174527029Y-91070000D01*
X173452971Y-91070000D01*
X173421069Y-91068433D01*
X173389475Y-91063746D01*
X173358492Y-91055985D01*
X173328419Y-91045225D01*
X173299545Y-91031569D01*
X173272149Y-91015148D01*
X173246494Y-90996121D01*
X173222828Y-90974672D01*
X173201379Y-90951006D01*
X173182352Y-90925351D01*
X173165931Y-90897955D01*
X173152275Y-90869081D01*
X173141515Y-90839008D01*
X173133754Y-90808025D01*
X173129067Y-90776431D01*
X173127500Y-90744529D01*
X173127500Y-89595471D01*
X173129067Y-89563569D01*
X173133754Y-89531975D01*
X173141515Y-89500992D01*
X173152275Y-89470919D01*
X173165931Y-89442045D01*
X173182352Y-89414649D01*
X173201379Y-89388994D01*
X173222828Y-89365328D01*
X173246494Y-89343879D01*
X173272149Y-89324852D01*
X173299545Y-89308431D01*
X173328419Y-89294775D01*
X173358492Y-89284015D01*
X173389475Y-89276254D01*
X173421069Y-89271567D01*
X173452971Y-89270000D01*
X174527029Y-89270000D01*
X174558931Y-89271567D01*
X174558931Y-89271567D01*
G37*
D28*
X173990000Y-90170000D03*
G04 #@! TD*
D32*
G04 #@! TO.C,MK1*
X114300000Y-66040000D03*
G04 #@! TD*
G04 #@! TO.C,MK2*
X205740000Y-66040000D03*
G04 #@! TD*
G04 #@! TO.C,MK3*
X205740000Y-137160000D03*
G04 #@! TD*
G04 #@! TO.C,MK4*
X114300000Y-137160000D03*
G04 #@! TD*
M02*
